%FSLAX25Y25*%
%MOIN*%
G70*
G01*
G75*
G04 Layer_Physical_Order=3*
G04 Layer_Color=36540*
%ADD10O,0.07874X0.01201*%
%ADD11R,0.05512X0.04724*%
%ADD12R,0.04724X0.05512*%
%ADD13O,0.08661X0.02362*%
%ADD14O,0.07087X0.01772*%
%ADD15R,0.08661X0.07874*%
%ADD16R,0.07874X0.08661*%
%ADD17O,0.09843X0.02756*%
%ADD18O,0.02756X0.09843*%
%ADD19O,0.02362X0.08661*%
%ADD20R,0.06693X0.04331*%
%ADD21R,0.09449X0.10236*%
%ADD22R,0.10236X0.04331*%
%ADD23C,0.01575*%
%ADD24C,0.00787*%
%ADD25C,0.04724*%
%ADD26C,0.02362*%
%ADD27C,0.02756*%
%ADD28C,0.03937*%
%ADD29R,0.05906X0.05906*%
%ADD30C,0.05906*%
%ADD31R,0.27559X0.27559*%
%ADD32R,0.05906X0.05906*%
%ADD33C,0.06654*%
%ADD34R,0.06654X0.06654*%
%ADD35C,0.18740*%
%ADD36C,0.03583*%
%ADD37C,0.05906*%
G36*
X15710Y333662D02*
Y308071D01*
X15862Y307303D01*
X16297Y306652D01*
X16949Y306217D01*
X17717Y306064D01*
X53150D01*
X53918Y306217D01*
X54569Y306652D01*
X55004Y307303D01*
X55157Y308071D01*
Y333308D01*
D01*
X55510Y333662D01*
X136180Y333662D01*
X136180Y333662D01*
X271654Y333661D01*
Y333161D01*
Y333161D01*
X271654Y306263D01*
X271654Y306263D01*
X271621Y306109D01*
Y306108D01*
X271621Y306107D01*
Y306107D01*
X271621Y306106D01*
X271619Y306099D01*
X271619Y306098D01*
X271619Y306097D01*
X271618Y306093D01*
X271618Y306092D01*
X271618Y306091D01*
X271618Y306091D01*
X271618Y306090D01*
X271617Y306089D01*
X271617Y306089D01*
Y306089D01*
X271604Y306070D01*
X271596Y306049D01*
X271591Y306042D01*
X271524Y305881D01*
X271107Y305795D01*
X270944Y305840D01*
X270616Y305976D01*
X269331Y306145D01*
X268046Y305976D01*
X266849Y305480D01*
X265821Y304691D01*
X265032Y303663D01*
X264587Y302590D01*
X264587Y302589D01*
X264075D01*
X264074Y302590D01*
X263630Y303663D01*
X262841Y304691D01*
X261813Y305480D01*
X260615Y305976D01*
X259331Y306145D01*
X258046Y305976D01*
X256849Y305480D01*
X255821Y304691D01*
X255032Y303663D01*
X254587Y302590D01*
X254587Y302589D01*
X254075D01*
X254074Y302590D01*
X253629Y303663D01*
X252841Y304691D01*
X251813Y305480D01*
X250616Y305976D01*
X249331Y306145D01*
X248046Y305976D01*
X246849Y305480D01*
X245821Y304691D01*
X245032Y303663D01*
X244587Y302590D01*
X244587Y302589D01*
X244075D01*
X244074Y302590D01*
X243630Y303663D01*
X242841Y304691D01*
X241813Y305480D01*
X240616Y305976D01*
X239331Y306145D01*
X238046Y305976D01*
X236849Y305480D01*
X235821Y304691D01*
X235032Y303663D01*
X234752Y302987D01*
X234252Y303086D01*
Y306102D01*
X224410D01*
Y296260D01*
X234252D01*
Y299276D01*
X234752Y299375D01*
X235032Y298699D01*
X235821Y297671D01*
X236849Y296883D01*
X238046Y296387D01*
X239331Y296217D01*
X240616Y296387D01*
X241813Y296883D01*
X242841Y297671D01*
X243630Y298699D01*
X244074Y299773D01*
X244075Y299773D01*
X244587D01*
X244587Y299773D01*
X245032Y298699D01*
X245821Y297671D01*
X246849Y296883D01*
X248046Y296387D01*
X249331Y296217D01*
X250616Y296387D01*
X251813Y296883D01*
X252841Y297671D01*
X253629Y298699D01*
X254074Y299773D01*
X254075Y299773D01*
X254587D01*
X254587Y299773D01*
X255032Y298699D01*
X255821Y297671D01*
X256849Y296883D01*
X258046Y296387D01*
X259331Y296217D01*
X260615Y296387D01*
X261813Y296883D01*
X262841Y297671D01*
X263630Y298699D01*
X264074Y299773D01*
X264075Y299773D01*
X264587D01*
X264587Y299773D01*
X265032Y298699D01*
X265821Y297671D01*
X266849Y296883D01*
X268046Y296387D01*
X269331Y296217D01*
X270616Y296387D01*
X270911Y296509D01*
X270920Y296513D01*
D01*
X271023Y296555D01*
X271081Y296536D01*
X271153Y296544D01*
X271524Y296388D01*
X271588Y296284D01*
X271618Y296231D01*
X271636Y296168D01*
X271641Y296139D01*
X271642Y296139D01*
X271645Y296134D01*
X271651Y296110D01*
X271651Y296110D01*
X271653Y296100D01*
X271653Y296100D01*
X271653Y296100D01*
X271654Y296100D01*
Y296100D01*
X271654Y296100D01*
Y290846D01*
X271654Y290846D01*
X271654D01*
Y288116D01*
Y288116D01*
Y288116D01*
Y288116D01*
Y284719D01*
Y284719D01*
Y284719D01*
Y284719D01*
Y280744D01*
X271654Y270394D01*
X271654Y270394D01*
D01*
X270815Y270047D01*
X270742Y270017D01*
X269956Y269414D01*
X269354Y268629D01*
X268975Y267714D01*
X268953Y267548D01*
X268449D01*
X268427Y267714D01*
X268048Y268629D01*
X267445Y269414D01*
X266660Y270017D01*
X265745Y270395D01*
X264764Y270525D01*
X263782Y270395D01*
X262868Y270017D01*
X262082Y269414D01*
X261480Y268629D01*
X261101Y267714D01*
X260971Y266732D01*
X261101Y265751D01*
X261480Y264836D01*
X262082Y264051D01*
X262868Y263448D01*
X263782Y263069D01*
X264764Y262940D01*
X265745Y263069D01*
X266660Y263448D01*
X267445Y264051D01*
X268048Y264836D01*
X268427Y265751D01*
X268449Y265916D01*
X268953D01*
X268975Y265751D01*
X269354Y264836D01*
X269956Y264051D01*
X270742Y263448D01*
X271355Y263194D01*
Y263194D01*
X271339Y263116D01*
X271337Y263103D01*
Y263103D01*
X271303Y262943D01*
X271302Y262753D01*
X271298Y262734D01*
X271298Y262725D01*
X271298Y262721D01*
X271298Y262718D01*
X271298Y262717D01*
X271263Y262541D01*
X271263Y262538D01*
X271262Y262529D01*
Y262473D01*
X271263Y262464D01*
X271262Y262455D01*
X271263Y262346D01*
X271262Y262340D01*
Y261472D01*
X271262Y261470D01*
Y261439D01*
X271275Y261370D01*
X271275Y261277D01*
X271300Y261153D01*
Y261081D01*
X271300Y261079D01*
X271312Y261050D01*
X271312Y261019D01*
X271314Y261011D01*
X271331Y260970D01*
X271347Y260746D01*
X271355Y260716D01*
X271355Y260716D01*
Y260716D01*
X271396Y260634D01*
X271403Y260609D01*
X271411Y260592D01*
X271428Y260509D01*
X271499Y260401D01*
X271510Y260363D01*
X271524Y260312D01*
X271524Y260312D01*
X271524Y260312D01*
X271524Y260311D01*
X271548Y260255D01*
X271548Y260255D01*
X271548Y260255D01*
D01*
X271548Y260254D01*
X271600Y260128D01*
X271626Y259996D01*
X271627Y259994D01*
X271633Y259965D01*
X271634Y259962D01*
X271634Y259962D01*
X271634Y259962D01*
X271634Y259962D01*
X271634Y259962D01*
X271634Y259962D01*
X271634Y259962D01*
X271634Y259962D01*
D01*
X271634Y259961D01*
X271647Y259930D01*
X271653Y259921D01*
X271654Y259920D01*
X271654Y259722D01*
X271654Y259722D01*
D01*
X271654Y259722D01*
X271654Y253238D01*
Y248531D01*
X271654Y248531D01*
Y248531D01*
Y248385D01*
Y248385D01*
X271654Y210630D01*
X271654Y210630D01*
Y202334D01*
Y200434D01*
X271654Y168182D01*
Y168182D01*
Y168182D01*
Y168182D01*
Y168182D01*
Y168182D01*
Y168182D01*
Y168182D01*
X271654Y160559D01*
X271654Y160559D01*
X271654Y155521D01*
Y151091D01*
X271654Y151091D01*
Y150986D01*
Y150986D01*
Y150788D01*
X271654Y150788D01*
X271618Y150610D01*
X271618Y150610D01*
X271607Y150591D01*
X271607Y150590D01*
X271607Y150589D01*
X271606Y150589D01*
X271606Y150589D01*
X271560Y150477D01*
X271555Y150469D01*
X271481Y150373D01*
X271481Y150373D01*
X271472Y150342D01*
X271457Y150319D01*
X271436Y150269D01*
X271436Y150269D01*
X271432Y150259D01*
X271432Y150259D01*
X271432Y150259D01*
X271422Y150243D01*
X271412Y150194D01*
X271407Y150185D01*
X271404Y150164D01*
X271382Y150125D01*
X271382Y150125D01*
X271368Y150012D01*
X271329Y149920D01*
X271321Y149900D01*
X271321Y149900D01*
X271307Y149867D01*
Y149866D01*
X271307Y149865D01*
X271307Y149739D01*
X271274Y149618D01*
X271283Y149547D01*
X271269Y149475D01*
Y149307D01*
X271262Y149270D01*
Y149009D01*
X270813Y148788D01*
X270597Y148953D01*
X269682Y149332D01*
X268701Y149462D01*
X267719Y149332D01*
X266805Y148953D01*
X266019Y148351D01*
X265472Y147638D01*
X264909D01*
X264909D01*
X248267Y147638D01*
X248267D01*
X246423D01*
X245991Y147969D01*
X245076Y148348D01*
X244094Y148477D01*
X243113Y148348D01*
X242198Y147969D01*
X241766Y147638D01*
X239922Y147638D01*
X239922Y147638D01*
X238182Y147638D01*
X233627D01*
X233195Y147969D01*
X232281Y148348D01*
X231299Y148477D01*
X230318Y148348D01*
X229403Y147969D01*
X228971Y147638D01*
X227127D01*
X227127D01*
X221608D01*
X221361Y148138D01*
X221788Y148695D01*
X222167Y149609D01*
X222296Y150591D01*
X222167Y151572D01*
X221788Y152487D01*
X221185Y153272D01*
X220400Y153875D01*
X219485Y154254D01*
X218504Y154383D01*
X217523Y154254D01*
X216608Y153875D01*
X216285Y153627D01*
X215929Y153984D01*
X216021Y154104D01*
X216302Y154783D01*
X216332Y155012D01*
X214083D01*
Y152762D01*
X214311Y152792D01*
X214990Y153074D01*
X215111Y153166D01*
X215467Y152809D01*
X215220Y152487D01*
X214841Y151572D01*
X214712Y150591D01*
X214841Y149609D01*
X215220Y148695D01*
X215647Y148138D01*
X215400Y147638D01*
X208496D01*
X207415D01*
X187992Y147638D01*
X187992Y117126D01*
X189961D01*
X190159D01*
X190353Y117087D01*
X190550D01*
X190550Y117087D01*
X208691Y117087D01*
X227306Y117087D01*
X227540D01*
X227734Y117126D01*
X234865D01*
X235059Y117087D01*
X240102D01*
X240102Y117087D01*
X240218Y117087D01*
X240218Y117087D01*
X240218Y117087D01*
X240335D01*
X240529Y117126D01*
X247660D01*
X247854Y117087D01*
X248081D01*
X270761Y117087D01*
X271262D01*
Y116734D01*
Y116734D01*
Y116734D01*
Y85172D01*
X271252Y85111D01*
X270879Y84662D01*
X270841Y84650D01*
X270783Y84646D01*
X205088Y84646D01*
X191295Y84646D01*
X190497D01*
X190384Y84623D01*
X190380Y84624D01*
X190339Y84616D01*
X190285Y84623D01*
X190231Y84619D01*
X190104Y84583D01*
X189961Y84573D01*
X189897Y84555D01*
X189809Y84510D01*
X189612Y84471D01*
X189586Y84461D01*
X189586Y84460D01*
X189586Y84460D01*
X189532Y84425D01*
X189477Y84409D01*
X189472Y84406D01*
X189456Y84401D01*
X189456Y84401D01*
X189294Y84276D01*
X189281Y84272D01*
X189273Y84266D01*
X189199Y84235D01*
X189070Y84149D01*
X188980Y84059D01*
X188980Y84059D01*
X188944Y84035D01*
X188935Y84025D01*
X188934Y84025D01*
X188917Y84008D01*
X188892Y83995D01*
X188874Y83981D01*
X188874Y83981D01*
X187992D01*
Y77362D01*
Y71804D01*
X187956Y71621D01*
X187852Y71466D01*
X186713Y70327D01*
X186603Y70163D01*
X186464Y70023D01*
X186388Y69840D01*
X186278Y69676D01*
X186275Y69664D01*
X186275Y69664D01*
X186144Y69348D01*
X186138Y69338D01*
X186099Y69144D01*
X186024Y68961D01*
X186024Y68764D01*
X185985Y68570D01*
Y68379D01*
Y68372D01*
X185985Y44645D01*
X185985Y44645D01*
X185632Y44291D01*
X181942D01*
X181942Y44291D01*
X181813Y45273D01*
X181434Y46187D01*
X180831Y46973D01*
X180046Y47576D01*
X179131Y47954D01*
X178150Y48084D01*
X177168Y47954D01*
X176253Y47576D01*
X175468Y46973D01*
X174865Y46187D01*
X174487Y45273D01*
X174357Y44291D01*
X174357Y44291D01*
X144410Y44291D01*
X144032Y45203D01*
X143599Y45768D01*
X144032Y46332D01*
X144411Y47247D01*
X144540Y48228D01*
X144411Y49210D01*
X144032Y50125D01*
X143430Y50910D01*
X142644Y51513D01*
X141730Y51891D01*
X140748Y52021D01*
X139767Y51891D01*
X138852Y51513D01*
X138066Y50910D01*
X137464Y50125D01*
X137085Y49210D01*
X136956Y48228D01*
X137085Y47247D01*
X137464Y46332D01*
X137897Y45768D01*
X137464Y45203D01*
X137086Y44291D01*
X107771D01*
X107672Y44791D01*
X107707Y44806D01*
X108290Y45253D01*
X108738Y45836D01*
X109019Y46516D01*
X109049Y46744D01*
X103550D01*
X103580Y46516D01*
X103861Y45836D01*
X104308Y45253D01*
X104892Y44806D01*
X104927Y44791D01*
X104827Y44291D01*
X90590D01*
Y59929D01*
X90966Y60259D01*
X91535Y60184D01*
X92517Y60313D01*
X93432Y60692D01*
X94217Y61295D01*
X94820Y62080D01*
X95199Y62995D01*
X95328Y63976D01*
X95199Y64958D01*
X94820Y65873D01*
X94217Y66658D01*
X93432Y67261D01*
X92517Y67639D01*
X91535Y67769D01*
X90966Y67694D01*
X90590Y68023D01*
Y88544D01*
X108097D01*
X108310Y88587D01*
X108527Y88064D01*
X109130Y87279D01*
X109915Y86677D01*
X110829Y86298D01*
X110904Y86288D01*
X111095Y85826D01*
X110889Y85558D01*
X110510Y84643D01*
X110381Y83662D01*
X110510Y82680D01*
X110889Y81765D01*
X111492Y80980D01*
X112277Y80377D01*
X113192Y79998D01*
X114173Y79869D01*
X115155Y79998D01*
X116069Y80377D01*
X116855Y80980D01*
X117457Y81765D01*
X117836Y82680D01*
X117966Y83662D01*
X117836Y84643D01*
X117457Y85558D01*
X116855Y86343D01*
X116069Y86946D01*
X115155Y87325D01*
X115081Y87334D01*
X114889Y87796D01*
X115095Y88064D01*
X115312Y88587D01*
X115526Y88544D01*
X117126D01*
X117126Y88544D01*
X127110D01*
X127304Y88583D01*
X127502D01*
X127684Y88658D01*
X127878Y88697D01*
X128043Y88807D01*
X128225Y88882D01*
X128365Y89022D01*
X128529Y89132D01*
X129009Y89236D01*
X129924Y88857D01*
X130905Y88727D01*
X131887Y88857D01*
X132802Y89236D01*
X133282Y89132D01*
X133446Y89022D01*
X133586Y88882D01*
X133768Y88807D01*
X133933Y88697D01*
X134127Y88658D01*
X134309Y88583D01*
X134507D01*
X134701Y88544D01*
X141379D01*
X142147Y88697D01*
X142798Y89132D01*
X143151Y89486D01*
X143587Y90137D01*
X143739Y90905D01*
Y97782D01*
X144239Y98090D01*
X145079Y97979D01*
X146060Y98109D01*
X146975Y98488D01*
X147760Y99090D01*
X148363Y99876D01*
X148742Y100790D01*
X148871Y101772D01*
X148742Y102753D01*
X148363Y103668D01*
X147760Y104453D01*
X146975Y105056D01*
X146060Y105435D01*
X145079Y105564D01*
X144239Y105454D01*
X143739Y105762D01*
X143739Y159987D01*
X144239Y160295D01*
X145079Y160184D01*
X146060Y160313D01*
X146975Y160692D01*
X147760Y161295D01*
X148363Y162080D01*
X148742Y162995D01*
X148871Y163976D01*
X148742Y164958D01*
X148363Y165873D01*
X147760Y166658D01*
X146975Y167261D01*
X146060Y167640D01*
X145079Y167769D01*
X144097Y167640D01*
X143183Y167261D01*
X142397Y166658D01*
X141795Y165873D01*
X141578Y165350D01*
X141364Y165393D01*
X117480Y165393D01*
X116711Y165240D01*
X116060Y164805D01*
X115707Y164452D01*
X115272Y163800D01*
X115119Y163032D01*
Y150465D01*
X114619Y150131D01*
X114171Y150317D01*
X113189Y150446D01*
X112207Y150317D01*
X111293Y149938D01*
X110507Y149335D01*
X109905Y148550D01*
X109526Y147635D01*
X109397Y146653D01*
X109526Y145672D01*
X109905Y144757D01*
X110507Y143972D01*
X111293Y143369D01*
X112207Y142991D01*
X113189Y142861D01*
X114171Y142991D01*
X114619Y143176D01*
X115119Y142842D01*
Y127422D01*
X115012Y127194D01*
X114619Y126986D01*
X114515Y127007D01*
X90590Y127007D01*
Y142726D01*
Y142726D01*
X90590Y145003D01*
X90590Y145004D01*
Y145795D01*
X91090Y146129D01*
X91538Y145943D01*
X92520Y145814D01*
X93501Y145943D01*
X94416Y146322D01*
X95201Y146925D01*
X95804Y147710D01*
X96183Y148625D01*
X96312Y149606D01*
X96183Y150588D01*
X95804Y151502D01*
X95201Y152288D01*
X94416Y152891D01*
X93501Y153269D01*
X92520Y153399D01*
X91538Y153269D01*
X91090Y153084D01*
X90590Y153418D01*
X90590Y153418D01*
Y175197D01*
Y209146D01*
D01*
Y209292D01*
Y210760D01*
Y210903D01*
X90563Y211035D01*
Y211076D01*
X90551Y211138D01*
Y211295D01*
X90525Y211427D01*
X90480Y211534D01*
X90453Y211733D01*
X90449Y211745D01*
X90444Y211753D01*
X90444Y211757D01*
X90420Y211798D01*
X90411Y211844D01*
X90408Y211848D01*
X90406Y211857D01*
X90401Y211869D01*
X90290Y212035D01*
X90252Y212145D01*
X90184Y212262D01*
X90080Y212379D01*
X90048Y212433D01*
X90021Y212464D01*
X90021Y212464D01*
X89953Y212580D01*
X89858Y212687D01*
X89858Y212687D01*
X89666Y212904D01*
X89618Y212941D01*
X89584Y212991D01*
X89567Y213002D01*
Y220026D01*
X89648Y220080D01*
X89648Y220080D01*
X89648Y220080D01*
Y220080D01*
X89648Y220080D01*
X89862Y220294D01*
X89972Y220458D01*
X90112Y220598D01*
X90185Y220776D01*
X90203Y220795D01*
X90211Y220816D01*
X90297Y220945D01*
X90299Y220956D01*
X90299Y220956D01*
X90354Y221089D01*
X90354Y221089D01*
X90431Y221273D01*
X90431Y221273D01*
X90437Y221283D01*
X90471Y221455D01*
X90542Y221615D01*
X90542Y221615D01*
X90543Y221638D01*
X90551Y221659D01*
X90551Y221786D01*
X90585Y221908D01*
X90576Y221980D01*
X90590Y222050D01*
Y230590D01*
X90587Y230605D01*
X91463Y230968D01*
X92248Y231571D01*
X92851Y232356D01*
X93230Y233271D01*
X93359Y234252D01*
X93230Y235233D01*
X92851Y236148D01*
X92248Y236934D01*
X91649Y237393D01*
X91615Y237480D01*
Y237914D01*
X91649Y238000D01*
X92248Y238460D01*
X92851Y239246D01*
X93230Y240160D01*
X93359Y241142D01*
X93230Y242123D01*
X92851Y243038D01*
X92248Y243823D01*
X91463Y244426D01*
X90590Y244788D01*
Y265356D01*
Y265356D01*
Y265709D01*
X91090D01*
X91090Y265709D01*
X105276Y265709D01*
X105276D01*
Y260193D01*
Y250181D01*
X104776Y249934D01*
X104258Y250331D01*
X103344Y250710D01*
X102362Y250840D01*
X101381Y250710D01*
X100466Y250331D01*
X99681Y249729D01*
X99078Y248943D01*
X98699Y248029D01*
X98570Y247047D01*
X98699Y246066D01*
X99078Y245151D01*
X99681Y244366D01*
X100466Y243763D01*
X101381Y243384D01*
X102362Y243255D01*
X103344Y243384D01*
X104258Y243763D01*
X104776Y244161D01*
X105276Y243914D01*
Y239924D01*
X105280Y239906D01*
X105277Y239888D01*
X105356Y239523D01*
X105429Y239156D01*
X105439Y239141D01*
X105443Y239123D01*
X105657Y238815D01*
X105864Y238505D01*
X105879Y238494D01*
X105890Y238479D01*
X106038Y238336D01*
X106208Y238227D01*
X106299Y238140D01*
Y237451D01*
X106208Y237363D01*
X106038Y237254D01*
X105889Y237111D01*
X105879Y237096D01*
X105864Y237086D01*
X105656Y236775D01*
X105579Y236664D01*
X105269Y236592D01*
X105031Y236580D01*
X104970Y236596D01*
X104258Y237142D01*
X103344Y237521D01*
X102362Y237651D01*
X101381Y237521D01*
X100466Y237142D01*
X99681Y236540D01*
X99078Y235754D01*
X98699Y234840D01*
X98570Y233858D01*
X98699Y232877D01*
X99078Y231962D01*
X99681Y231177D01*
X100466Y230574D01*
X101381Y230195D01*
X102362Y230066D01*
X103344Y230195D01*
X104258Y230574D01*
X104776Y230972D01*
X105276Y230725D01*
Y217454D01*
X105315Y217260D01*
Y217062D01*
X105351Y216880D01*
X105351Y216880D01*
Y216880D01*
X105427Y216697D01*
X105429Y216686D01*
X105436Y216676D01*
X105484Y216559D01*
X105567Y216359D01*
X105569Y216348D01*
X105575Y216339D01*
X105651Y216156D01*
X105651Y216156D01*
X105651Y216156D01*
X105754Y216001D01*
X105894Y215861D01*
X106004Y215697D01*
X106159Y215542D01*
X106223Y215447D01*
X106263Y215387D01*
X106299Y215204D01*
Y209646D01*
X173857Y209646D01*
X174357Y209646D01*
X174357D01*
X174487Y208664D01*
X174865Y207750D01*
X175468Y206964D01*
X176253Y206362D01*
X177168Y205983D01*
X178150Y205854D01*
X179131Y205983D01*
X180046Y206362D01*
X180831Y206964D01*
X181434Y207750D01*
X181813Y208664D01*
X181942Y209646D01*
X182442Y209646D01*
X187992D01*
Y209646D01*
X202047D01*
X202425Y208734D01*
X203027Y207948D01*
X203813Y207346D01*
X204727Y206967D01*
X205709Y206838D01*
X206690Y206967D01*
X207605Y207346D01*
X208390Y207948D01*
X208993Y208734D01*
X209371Y209646D01*
X213583D01*
Y212874D01*
X214495Y213251D01*
X215280Y213854D01*
X215883Y214639D01*
X216262Y215554D01*
X216391Y216535D01*
X216262Y217517D01*
X215883Y218432D01*
X215280Y219217D01*
X214495Y219820D01*
X213583Y220197D01*
X213583Y248031D01*
X135865Y248031D01*
X135865Y258590D01*
X136365Y258924D01*
X136814Y258739D01*
X137795Y258609D01*
X138777Y258739D01*
X139691Y259117D01*
X140477Y259720D01*
X141079Y260506D01*
X141458Y261420D01*
X141588Y262402D01*
X141458Y263383D01*
X141079Y264298D01*
X140477Y265083D01*
X139691Y265686D01*
X138777Y266065D01*
X137795Y266194D01*
X136814Y266065D01*
X136365Y265879D01*
X135865Y266213D01*
Y266213D01*
Y266213D01*
Y270524D01*
Y270524D01*
X135865Y270524D01*
X136365Y270624D01*
X136480Y270348D01*
X137082Y269563D01*
X137868Y268960D01*
X138782Y268581D01*
X139764Y268452D01*
X140745Y268581D01*
X141660Y268960D01*
X142445Y269563D01*
X143048Y270348D01*
X143427Y271263D01*
X143556Y272244D01*
X143427Y273226D01*
X143048Y274140D01*
X142445Y274926D01*
X141660Y275528D01*
X140745Y275907D01*
X139764Y276036D01*
X138782Y275907D01*
X137868Y275528D01*
X137082Y274926D01*
X136480Y274140D01*
X136365Y273865D01*
X135865Y273964D01*
X135865Y273964D01*
Y285999D01*
Y285999D01*
Y285999D01*
Y286057D01*
Y286057D01*
X135836Y286207D01*
X135836Y286207D01*
X135838Y286261D01*
X135840Y286297D01*
X135843Y286360D01*
X135827Y286462D01*
X135829Y286507D01*
X135827Y286521D01*
Y289277D01*
X135827Y292306D01*
Y297875D01*
Y297875D01*
Y298190D01*
Y298190D01*
Y300197D01*
X133740D01*
X133660D01*
X133466Y300235D01*
X132318D01*
X89108Y300236D01*
X88914Y300197D01*
X86614D01*
Y298004D01*
X86576Y297810D01*
Y297677D01*
X86576Y297677D01*
Y288424D01*
Y288424D01*
Y285825D01*
Y285825D01*
Y285472D01*
X63980D01*
X43604Y285472D01*
X43330Y285972D01*
X43714Y287571D01*
X43854Y289350D01*
X43714Y291130D01*
X43297Y292865D01*
X42614Y294514D01*
X41682Y296036D01*
X40523Y297393D01*
X39166Y298552D01*
X37644Y299484D01*
X35995Y300167D01*
X35872Y300197D01*
D01*
X34260Y300584D01*
X32480Y300724D01*
X30701Y300584D01*
X29920Y300396D01*
D01*
X28966Y300167D01*
X27317Y299484D01*
X25795Y298552D01*
X24438Y297393D01*
X23279Y296036D01*
X22346Y294514D01*
X21663Y292865D01*
X21247Y291130D01*
X21107Y289350D01*
X21247Y287571D01*
X21631Y285972D01*
X21357Y285472D01*
X7243D01*
X6890Y285825D01*
X6890Y333308D01*
X7243Y333662D01*
X15710Y333662D01*
D02*
G37*
G36*
X100100Y298228D02*
X132318Y298228D01*
X133268D01*
X133466D01*
X133660Y298190D01*
X133820D01*
Y297875D01*
Y297875D01*
Y292306D01*
X133820Y289277D01*
Y289277D01*
Y286521D01*
X133837Y286435D01*
X133835Y286388D01*
X133835Y286388D01*
X133835Y286387D01*
X133833Y286351D01*
X133830Y286298D01*
X133843Y286218D01*
X133843Y286218D01*
X133845Y286205D01*
X133843Y286160D01*
X133856Y286071D01*
X133848Y285927D01*
X133848Y285926D01*
X133858Y285898D01*
Y273964D01*
X133858Y273964D01*
Y270524D01*
X133858Y270524D01*
D01*
Y270524D01*
Y270524D01*
Y266213D01*
Y266213D01*
Y266213D01*
Y266213D01*
Y258590D01*
Y258590D01*
Y253946D01*
X133858Y244094D01*
X158146D01*
X158456Y243701D01*
X158443Y243595D01*
X158314Y242618D01*
X158443Y241637D01*
X158822Y240722D01*
X159425Y239937D01*
X160210Y239334D01*
X161125Y238955D01*
X162106Y238826D01*
X163088Y238955D01*
X164003Y239334D01*
X164788Y239937D01*
X165391Y240722D01*
X165770Y241637D01*
X165899Y242618D01*
X165770Y243595D01*
X165757Y243701D01*
X166067Y244094D01*
X210630Y244094D01*
Y219764D01*
X209917Y219217D01*
X209314Y218432D01*
X208935Y217517D01*
X208806Y216535D01*
X208935Y215554D01*
X209314Y214639D01*
X209917Y213854D01*
X210507Y213401D01*
X210526Y212995D01*
X210143Y212598D01*
X208937D01*
X208390Y213312D01*
X207605Y213914D01*
X206690Y214293D01*
X205709Y214422D01*
X204727Y214293D01*
X203813Y213914D01*
X203027Y213312D01*
X202480Y212598D01*
X180478Y212598D01*
X180046Y212930D01*
X179131Y213309D01*
X178150Y213438D01*
X177168Y213309D01*
X176253Y212930D01*
X175821Y212598D01*
X133858Y212598D01*
D01*
X108660Y212598D01*
X108306Y212952D01*
Y215402D01*
X108153Y216170D01*
X108153Y216170D01*
Y216170D01*
X107891Y216562D01*
X107719Y216821D01*
X107719Y216821D01*
X107719Y216821D01*
X107423Y217116D01*
X107320Y217271D01*
X107283Y217454D01*
Y235667D01*
X107432Y235810D01*
X107554Y235832D01*
X108067Y235729D01*
X108539Y235114D01*
X109324Y234511D01*
X110239Y234132D01*
X111221Y234003D01*
X112202Y234132D01*
X113117Y234511D01*
X113902Y235114D01*
X114505Y235899D01*
X114884Y236814D01*
X114905Y236979D01*
X115410D01*
X115431Y236814D01*
X115810Y235899D01*
X116413Y235114D01*
X117198Y234511D01*
X117626Y234334D01*
D01*
X118113Y234132D01*
X119095Y234003D01*
X120076Y234132D01*
X120991Y234511D01*
X121776Y235114D01*
X122379Y235899D01*
X122758Y236814D01*
X122887Y237795D01*
X122758Y238777D01*
X122379Y239691D01*
X121776Y240477D01*
X120991Y241080D01*
X120076Y241458D01*
X119095Y241588D01*
X118113Y241458D01*
X117626Y241257D01*
D01*
X117198Y241080D01*
X116413Y240477D01*
X115810Y239691D01*
X115431Y238777D01*
X115410Y238611D01*
X114905D01*
X114884Y238777D01*
X114505Y239691D01*
X113902Y240477D01*
X113117Y241080D01*
X112202Y241458D01*
X111221Y241588D01*
X110239Y241458D01*
X109324Y241080D01*
X108539Y240477D01*
X108067Y239862D01*
X107554Y239759D01*
X107432Y239781D01*
X107283Y239924D01*
X107283Y260193D01*
Y265709D01*
Y265709D01*
Y267717D01*
X105277D01*
X105276Y267717D01*
X105276D01*
X91090Y267717D01*
X91090Y267717D01*
X88583D01*
X88583Y285472D01*
Y285472D01*
Y285825D01*
Y285825D01*
Y288424D01*
Y288424D01*
Y297613D01*
X88583Y297613D01*
Y297677D01*
Y297810D01*
X88874Y298190D01*
X88914D01*
X89108Y298228D01*
X89306D01*
X89306Y298228D01*
X100100Y298228D01*
D02*
G37*
G36*
X22789Y283465D02*
X23279Y282665D01*
X24438Y281308D01*
X25795Y280149D01*
X27317Y279216D01*
X28966Y278533D01*
X30701Y278117D01*
X32480Y277977D01*
X34260Y278117D01*
X35995Y278533D01*
X37644Y279216D01*
X39166Y280149D01*
X40523Y281308D01*
X41682Y282665D01*
X42172Y283465D01*
X55900Y283465D01*
X63980D01*
X86576D01*
X88583D01*
Y265709D01*
Y265356D01*
Y265356D01*
Y244788D01*
Y244788D01*
Y243755D01*
X88159Y243580D01*
X87576Y243133D01*
X87129Y242549D01*
X86848Y241870D01*
X86817Y241642D01*
X89567D01*
Y240642D01*
X86817D01*
X86848Y240413D01*
X87129Y239734D01*
X87576Y239151D01*
X88159Y238703D01*
X88583Y238528D01*
Y237914D01*
X87671Y237536D01*
X86885Y236934D01*
X86283Y236148D01*
X85904Y235233D01*
X85775Y234252D01*
X85904Y233271D01*
X86283Y232356D01*
X86885Y231571D01*
X87671Y230968D01*
X88583Y230590D01*
Y222050D01*
X88583Y222050D01*
Y222050D01*
X88576Y222041D01*
X88500Y221857D01*
X88500Y221857D01*
X88500Y221857D01*
X88445Y221724D01*
X88443Y221713D01*
X88229Y221499D01*
X88229Y221499D01*
X88229Y221499D01*
X88229Y221499D01*
X84829D01*
X84583Y221999D01*
X84977Y222513D01*
X85356Y223428D01*
X85485Y224410D01*
X85356Y225391D01*
X84977Y226306D01*
X84374Y227091D01*
X83589Y227694D01*
X82674Y228073D01*
X81693Y228202D01*
X80712Y228073D01*
X79797Y227694D01*
X79011Y227091D01*
X78409Y226306D01*
X78030Y225391D01*
X77901Y224410D01*
X78030Y223428D01*
X78409Y222513D01*
X78803Y221999D01*
X78557Y221499D01*
X73906D01*
X67486Y227919D01*
X66458Y228708D01*
X65261Y229204D01*
X63976Y229373D01*
X62692Y229204D01*
X61495Y228708D01*
X60466Y227919D01*
X59678Y226891D01*
X59182Y225694D01*
X59013Y224410D01*
X59182Y223125D01*
X59678Y221928D01*
X60466Y220900D01*
X68341Y213026D01*
X69369Y212237D01*
X70215Y211886D01*
X70566Y211741D01*
X71851Y211572D01*
X88165D01*
X88165Y211572D01*
X88348Y211366D01*
X88348Y211366D01*
X88452Y211248D01*
X88520Y211132D01*
X88520Y211132D01*
X88530Y211120D01*
X88546Y211102D01*
X88552Y211088D01*
X88556Y211075D01*
Y211035D01*
X88583Y210903D01*
Y210760D01*
Y209292D01*
Y209146D01*
Y175197D01*
Y153418D01*
X88583Y153418D01*
Y145003D01*
X88583Y145003D01*
X88583Y143689D01*
Y125000D01*
X114515Y125000D01*
X114614Y124500D01*
X114246Y124347D01*
X113460Y123745D01*
X112858Y122959D01*
X112479Y122045D01*
X112349Y121063D01*
X112479Y120081D01*
X112858Y119167D01*
X113460Y118382D01*
X114246Y117779D01*
X115160Y117400D01*
X116142Y117271D01*
X117123Y117400D01*
X117126Y117401D01*
D01*
X118038Y117779D01*
X118823Y118382D01*
X119426Y119167D01*
X119805Y120081D01*
X119827Y120247D01*
X120331D01*
D01*
X120353Y120081D01*
X120732Y119167D01*
X121334Y118382D01*
X122120Y117779D01*
X123034Y117400D01*
X124016Y117271D01*
X124997Y117400D01*
X125912Y117779D01*
X126697Y118382D01*
X127300Y119167D01*
X127679Y120081D01*
X127808Y121063D01*
X127679Y122045D01*
X127300Y122959D01*
X126697Y123745D01*
X125912Y124347D01*
D01*
X125543Y124500D01*
D01*
X124997Y124726D01*
X124016Y124855D01*
X123034Y124726D01*
X122120Y124347D01*
X121334Y123745D01*
X120732Y122959D01*
X120353Y122045D01*
X120331Y121879D01*
X119827D01*
X119805Y122045D01*
X119426Y122959D01*
X118823Y123745D01*
X118038Y124347D01*
X117126Y124725D01*
X117126Y163032D01*
X117480Y163386D01*
X141364Y163386D01*
X141416Y162995D01*
X141732Y162231D01*
X141732Y103518D01*
X141732Y103517D01*
D01*
X141416Y102753D01*
X141287Y101772D01*
X141416Y100790D01*
X141580Y100394D01*
X141732Y100026D01*
Y90905D01*
X141379Y90551D01*
X134701D01*
X134367Y91051D01*
X134367Y91051D01*
X134569Y91538D01*
X134698Y92520D01*
X134569Y93501D01*
X134190Y94416D01*
X133587Y95201D01*
X132802Y95804D01*
X131887Y96183D01*
X130905Y96312D01*
X129924Y96183D01*
X129009Y95804D01*
X128224Y95201D01*
X127621Y94416D01*
X127243Y93501D01*
X127113Y92520D01*
X127243Y91538D01*
X127444Y91051D01*
X127110Y90551D01*
X117126D01*
Y90551D01*
X115526D01*
X115474Y90942D01*
X115095Y91857D01*
X114493Y92642D01*
X113707Y93245D01*
X112793Y93624D01*
X112627Y93646D01*
Y94150D01*
X112793Y94172D01*
X113707Y94551D01*
X114493Y95153D01*
X115095Y95938D01*
X115474Y96853D01*
X115603Y97835D01*
X115474Y98816D01*
X115095Y99731D01*
X114493Y100516D01*
X113707Y101119D01*
X112793Y101498D01*
X111811Y101627D01*
X110829Y101498D01*
X109915Y101119D01*
X109130Y100516D01*
X108527Y99731D01*
X108148Y98816D01*
X108019Y97835D01*
X108148Y96853D01*
X108527Y95938D01*
X109130Y95153D01*
X109915Y94551D01*
X110829Y94172D01*
X110995Y94150D01*
Y93646D01*
X110829Y93624D01*
X109915Y93245D01*
X109130Y92642D01*
X108527Y91857D01*
X108148Y90942D01*
X108097Y90551D01*
X88583D01*
Y66304D01*
X88251Y65873D01*
X87872Y64958D01*
X87743Y63976D01*
X87872Y62995D01*
X88251Y62080D01*
X88583Y61648D01*
Y41339D01*
X137519Y41339D01*
X138066Y40626D01*
X138852Y40023D01*
X139767Y39644D01*
X140748Y39515D01*
X141730Y39644D01*
X142644Y40023D01*
X143430Y40626D01*
X143977Y41339D01*
X175046Y41339D01*
X175293Y40839D01*
X174865Y40282D01*
X174487Y39367D01*
X174357Y38386D01*
X174487Y37404D01*
X174865Y36490D01*
X175468Y35704D01*
X176253Y35102D01*
X177168Y34723D01*
X178150Y34594D01*
X179131Y34723D01*
X180046Y35102D01*
X180831Y35704D01*
X181434Y36490D01*
X181813Y37404D01*
X181942Y38386D01*
X181813Y39367D01*
X181434Y40282D01*
X181007Y40839D01*
X181253Y41339D01*
X192271Y41339D01*
X192370Y40839D01*
X192001Y40686D01*
X191216Y40083D01*
X190613Y39298D01*
X190235Y38383D01*
X190105Y37402D01*
X190235Y36420D01*
X190613Y35506D01*
X191216Y34720D01*
X192001Y34117D01*
X192916Y33739D01*
X193898Y33609D01*
X194879Y33739D01*
X195794Y34117D01*
X196524Y34678D01*
X196729Y34748D01*
X196972D01*
X197177Y34678D01*
X197907Y34117D01*
X198822Y33739D01*
X199803Y33609D01*
X200785Y33739D01*
X201699Y34117D01*
X202485Y34720D01*
X203087Y35506D01*
X203466Y36420D01*
X203595Y37402D01*
X203466Y38383D01*
X203087Y39298D01*
X202485Y40083D01*
X201699Y40686D01*
X201331Y40839D01*
X201430Y41339D01*
X271614Y41339D01*
X271631Y41316D01*
X272214Y40869D01*
X272893Y40588D01*
X273122Y40558D01*
Y42807D01*
X270872D01*
X270903Y42579D01*
X271184Y41899D01*
X271270Y41787D01*
X271049Y41339D01*
X188346Y41339D01*
X187992Y41692D01*
Y44645D01*
X187992Y44645D01*
X187992Y68372D01*
Y68379D01*
Y68570D01*
X187992Y68570D01*
X187992Y68570D01*
X187998Y68580D01*
X188130Y68896D01*
X188132Y68907D01*
X188132Y68907D01*
X188132Y68908D01*
X189272Y70047D01*
X189382Y70211D01*
X189521Y70351D01*
X189625Y70506D01*
X189700Y70689D01*
X189707Y70698D01*
X189709Y70710D01*
X189840Y71026D01*
X189847Y71036D01*
X189849Y71047D01*
X189924Y71230D01*
Y71230D01*
X189961Y71412D01*
Y71610D01*
X189999Y71804D01*
Y77362D01*
Y82341D01*
X190059Y82366D01*
X190095Y82390D01*
X190099Y82394D01*
X190109Y82399D01*
X190128Y82414D01*
X190185Y82480D01*
X190313Y82566D01*
X190354Y82606D01*
X190354Y82606D01*
X190380Y82617D01*
X190434Y82621D01*
X190497Y82639D01*
X191295D01*
X205088Y82639D01*
X270783Y82639D01*
X270863Y82655D01*
X270944Y82645D01*
X271342Y82677D01*
X280586D01*
X280586Y82677D01*
X280784D01*
X280978Y82639D01*
X284893Y82639D01*
X295599D01*
X314795Y82639D01*
X318414D01*
X318607Y82677D01*
X319882D01*
X319882Y41692D01*
X319528Y41339D01*
X276195D01*
X275974Y41787D01*
X276060Y41899D01*
X276342Y42579D01*
X276372Y42807D01*
X274122D01*
Y40558D01*
X274351Y40588D01*
X275030Y40869D01*
X275613Y41316D01*
X275630Y41339D01*
X319882Y41339D01*
Y34841D01*
X319528Y34487D01*
X293307D01*
X292539Y34335D01*
X291888Y33900D01*
X291453Y33248D01*
X291300Y32480D01*
Y5275D01*
X290947Y4921D01*
X55157Y4921D01*
Y32480D01*
X55004Y33248D01*
X54569Y33900D01*
X53918Y34335D01*
X53150Y34487D01*
X37298D01*
X37201Y34978D01*
X37644Y35161D01*
X39166Y36094D01*
X40523Y37253D01*
X41682Y38610D01*
X42614Y40132D01*
X43297Y41781D01*
X43714Y43516D01*
X43854Y45295D01*
X43714Y47074D01*
X43297Y48810D01*
X42614Y50459D01*
X41682Y51981D01*
X40523Y53338D01*
X39166Y54497D01*
X37644Y55429D01*
X35995Y56112D01*
X34260Y56529D01*
X32480Y56669D01*
X30701Y56529D01*
X28966Y56112D01*
X27317Y55429D01*
X25795Y54497D01*
X24438Y53338D01*
X23279Y51981D01*
X22346Y50459D01*
X21663Y48810D01*
X21247Y47074D01*
X21107Y45295D01*
X21247Y43516D01*
X21663Y41781D01*
X22346Y40132D01*
X23279Y38610D01*
X24438Y37253D01*
X25795Y36094D01*
X27317Y35161D01*
X27760Y34978D01*
X27662Y34487D01*
X17717D01*
X16949Y34335D01*
X16297Y33900D01*
X15862Y33248D01*
X15710Y32480D01*
Y5275D01*
X15356Y4921D01*
X6162D01*
Y283111D01*
X6515Y283465D01*
X22789D01*
D02*
G37*
G36*
X291300Y333662D02*
Y308071D01*
X291453Y307303D01*
X291888Y306652D01*
X292539Y306217D01*
X293307Y306064D01*
X318898D01*
X318898Y84974D01*
X318607Y84684D01*
X318414Y84646D01*
X314795D01*
X295599Y84646D01*
X284893D01*
X284893D01*
X282575Y84646D01*
X280978D01*
X280784Y84684D01*
X280586D01*
X280586Y84684D01*
X273416D01*
X273269Y85123D01*
Y116734D01*
Y116734D01*
Y116734D01*
Y119095D01*
X270761D01*
X270761D01*
X248081Y119095D01*
X247890D01*
X247890D01*
X247854D01*
X247591Y119505D01*
X247568Y119624D01*
X247758Y120081D01*
X247887Y121063D01*
X247758Y122045D01*
X247379Y122959D01*
X246776Y123745D01*
X245991Y124347D01*
X245076Y124726D01*
X244094Y124855D01*
X243113Y124726D01*
X242198Y124347D01*
X241413Y123745D01*
X240810Y122959D01*
X240431Y122045D01*
X240302Y121063D01*
X240431Y120081D01*
X240621Y119623D01*
X240598Y119504D01*
X240335Y119095D01*
X240218D01*
X240102Y119095D01*
X240102Y119095D01*
X235059D01*
X234796Y119505D01*
X234773Y119623D01*
X234962Y120081D01*
X235091Y121063D01*
X234962Y122045D01*
X234583Y122959D01*
X233981Y123745D01*
X233195Y124347D01*
X232281Y124726D01*
X231299Y124855D01*
X230318Y124726D01*
X229403Y124347D01*
X228618Y123745D01*
X228015Y122959D01*
X227636Y122045D01*
X227507Y121063D01*
X227636Y120081D01*
X227826Y119623D01*
X227803Y119505D01*
X227540Y119095D01*
X227504D01*
X227504D01*
X227306D01*
X208691Y119095D01*
X190550Y119095D01*
X190550Y119095D01*
X190353D01*
X190159Y119133D01*
X189999D01*
X189999Y145631D01*
X207415Y145631D01*
X215400D01*
X215594Y145669D01*
X221414D01*
X221608Y145631D01*
X227252D01*
X227582Y145255D01*
X227507Y144685D01*
X227636Y143704D01*
X228015Y142789D01*
X228618Y142004D01*
X229403Y141401D01*
X230318Y141022D01*
X231299Y140893D01*
X232281Y141022D01*
X233195Y141401D01*
X233981Y142004D01*
X234583Y142789D01*
X234962Y143704D01*
X235091Y144685D01*
X235016Y145255D01*
X235346Y145631D01*
X238182D01*
X239922Y145631D01*
X239922Y145631D01*
X240048D01*
X240377Y145255D01*
X240302Y144685D01*
X240431Y143704D01*
X240810Y142789D01*
X241413Y142004D01*
X242198Y141401D01*
X243113Y141022D01*
X243082Y140522D01*
X242719Y140474D01*
X241805Y140095D01*
X241019Y139493D01*
X240417Y138707D01*
X240038Y137793D01*
X239909Y136811D01*
X240038Y135829D01*
X240417Y134915D01*
X241019Y134130D01*
X241805Y133527D01*
X242719Y133148D01*
X243701Y133019D01*
X244682Y133148D01*
X245597Y133527D01*
X246382Y134130D01*
X246985Y134915D01*
X247364Y135829D01*
X247493Y136811D01*
X247364Y137793D01*
X246985Y138707D01*
X246382Y139493D01*
X245597Y140095D01*
X244682Y140474D01*
X244714Y140974D01*
X245076Y141022D01*
X245991Y141401D01*
X246776Y142004D01*
X247379Y142789D01*
X247758Y143704D01*
X247887Y144685D01*
X247812Y145255D01*
X248142Y145631D01*
X248267D01*
X264909Y145631D01*
X264914D01*
X265038Y144688D01*
X265417Y143773D01*
X266019Y142988D01*
X266805Y142385D01*
X267719Y142006D01*
X268701Y141877D01*
X269682Y142006D01*
X270597Y142385D01*
X271382Y142988D01*
X271985Y143773D01*
X272364Y144688D01*
X272493Y145669D01*
X273269D01*
Y149270D01*
X273276Y149307D01*
Y149449D01*
X273300Y149476D01*
X273304Y149485D01*
X273336Y149580D01*
X273351Y149597D01*
X273362Y149616D01*
X273372Y149647D01*
X273415Y149711D01*
X273455Y149808D01*
X273456Y149810D01*
X273456Y149810D01*
X273457Y149812D01*
X273460Y149821D01*
X273462Y149822D01*
X273462Y149827D01*
X273472Y149841D01*
X273508Y150020D01*
X273510Y150032D01*
X273517Y150043D01*
X273517Y150043D01*
X273520Y150057D01*
X273587Y150218D01*
X273622Y150397D01*
X273622Y150594D01*
X273661Y150788D01*
Y151091D01*
X273661Y151091D01*
Y154335D01*
X273661Y160559D01*
X273661Y160559D01*
Y160559D01*
X274161Y160893D01*
X274609Y160707D01*
X275591Y160578D01*
X276572Y160707D01*
X277487Y161086D01*
X278272Y161689D01*
X278875Y162474D01*
X279254Y163389D01*
X279383Y164370D01*
X279254Y165352D01*
X278875Y166266D01*
X278272Y167052D01*
X277487Y167654D01*
X276572Y168033D01*
X275591Y168162D01*
X274609Y168033D01*
X274161Y167848D01*
X273661Y168182D01*
Y168182D01*
Y168182D01*
Y168182D01*
Y168182D01*
Y168182D01*
Y168182D01*
X273661Y200434D01*
Y202334D01*
Y210630D01*
X273661Y210630D01*
X273661Y248385D01*
Y248385D01*
Y248531D01*
X273661Y248531D01*
Y253238D01*
X273661Y259722D01*
X273661Y259722D01*
Y259722D01*
X273660Y259723D01*
X273660Y259723D01*
X273660Y259920D01*
X273624Y260104D01*
X273626Y260292D01*
X273625Y260293D01*
X273622Y260302D01*
Y260313D01*
X273599Y260367D01*
X273595Y260385D01*
X273595Y260387D01*
Y260387D01*
X273568Y260520D01*
X273538Y260592D01*
X273538Y260597D01*
X273538Y260597D01*
X273533Y260606D01*
X273516Y260646D01*
X273516Y260647D01*
Y260648D01*
X273516Y260648D01*
X273515Y260649D01*
X273508Y260688D01*
X273502Y260697D01*
X273502Y260698D01*
X273488Y260729D01*
X273488Y260730D01*
X273488Y260730D01*
X273487Y260732D01*
X273487Y260733D01*
X273486Y260734D01*
X273486Y260734D01*
X273486Y260734D01*
X273454Y260896D01*
X273402Y261022D01*
X273402Y261023D01*
X273378Y261080D01*
X273338Y261139D01*
X273319Y261209D01*
X273319Y261209D01*
X273290Y261246D01*
X273283Y261276D01*
X273283Y261402D01*
X273281Y261410D01*
X273269Y261439D01*
Y261470D01*
X273269Y261472D01*
Y262340D01*
X273270Y262343D01*
X273269Y262473D01*
Y262529D01*
X273269Y262535D01*
X273303Y262702D01*
X273305Y262708D01*
Y262708D01*
X273305Y262708D01*
X273305Y262717D01*
X273305Y262717D01*
X273308Y262724D01*
X273323Y262802D01*
X273323Y263000D01*
X273330Y263031D01*
X273619Y263069D01*
X274534Y263448D01*
X275319Y264051D01*
X275922Y264836D01*
X276301Y265751D01*
X276430Y266732D01*
X276301Y267714D01*
X275922Y268629D01*
X275319Y269414D01*
X274534Y270017D01*
X273658Y270379D01*
X273661Y270394D01*
X273661Y280744D01*
Y284719D01*
Y284719D01*
Y284719D01*
Y284719D01*
Y288116D01*
Y288116D01*
Y288116D01*
Y288116D01*
Y290846D01*
Y290846D01*
Y296100D01*
X273659Y296108D01*
X273661Y296117D01*
X273647Y296180D01*
X273655Y296243D01*
X273623Y296361D01*
X273624Y296483D01*
X273623Y296483D01*
X273619Y296496D01*
X273618Y296509D01*
X273616Y296519D01*
X273609Y296535D01*
X273609Y296546D01*
X273605Y296556D01*
X273600Y296577D01*
X273599Y296581D01*
X273598Y296598D01*
X273589Y296617D01*
X273587Y296640D01*
X273581Y296664D01*
X273573Y296680D01*
X273571Y296698D01*
X273554Y296761D01*
X273513Y296844D01*
X273508Y296868D01*
X273508Y296868D01*
Y296868D01*
X273503Y296875D01*
X273501Y296884D01*
X273501Y296884D01*
X273495Y296892D01*
X273489Y296924D01*
X273489Y296924D01*
X273455Y296973D01*
X273448Y296998D01*
X273448Y296998D01*
X273428Y297024D01*
X273359Y297230D01*
X273329Y297283D01*
X273309Y297305D01*
X273299Y297333D01*
X273269Y297382D01*
Y298229D01*
X273629Y298699D01*
X274125Y299897D01*
X274294Y301181D01*
X274125Y302466D01*
X273629Y303663D01*
X273269Y304133D01*
Y304944D01*
X273273Y304954D01*
X273273Y304954D01*
X273273Y304954D01*
X273286Y304974D01*
X273286Y304974D01*
X273378Y305112D01*
X273445Y305273D01*
X273445Y305273D01*
X273450Y305280D01*
X273453Y305288D01*
X273466Y305307D01*
X273468Y305317D01*
X273472Y305323D01*
X273475Y305340D01*
X273476Y305340D01*
X273506Y305492D01*
X273508Y305495D01*
X273508Y305495D01*
X273511Y305511D01*
X273581Y305672D01*
X273581Y305673D01*
X273581Y305674D01*
X273581Y305675D01*
X273581Y305675D01*
X273581Y305679D01*
X273583Y305683D01*
X273584Y305687D01*
X273584Y305688D01*
X273584Y305689D01*
Y305690D01*
X273586Y305697D01*
X273586Y305698D01*
Y305699D01*
X273586Y305699D01*
X273618Y305853D01*
X273620Y306045D01*
X273628Y306082D01*
X273626Y306091D01*
X273661Y306263D01*
X273661Y333161D01*
Y333161D01*
X274161Y333662D01*
X291300Y333662D01*
D02*
G37*
%LPC*%
G36*
X282980Y142513D02*
Y140264D01*
X285230D01*
X285200Y140492D01*
X284919Y141172D01*
X284471Y141755D01*
X283888Y142202D01*
X283209Y142483D01*
X282980Y142513D01*
D02*
G37*
G36*
X124016Y151430D02*
X123034Y151301D01*
X122120Y150922D01*
X121334Y150319D01*
X120732Y149534D01*
X120353Y148619D01*
X120223Y147638D01*
X120353Y146656D01*
X120732Y145742D01*
X121334Y144956D01*
X122120Y144354D01*
X123034Y143975D01*
X124016Y143846D01*
X124997Y143975D01*
X125912Y144354D01*
X126697Y144956D01*
X127300Y145742D01*
X127679Y146656D01*
X127747Y146686D01*
X128386Y146427D01*
X128467Y146230D01*
X128915Y145647D01*
X129498Y145200D01*
X130177Y144918D01*
X130406Y144888D01*
Y147638D01*
Y150388D01*
X130177Y150357D01*
X129498Y150076D01*
X128915Y149629D01*
X128467Y149046D01*
X128386Y148849D01*
X127747Y148590D01*
X127679Y148619D01*
X127300Y149534D01*
X126697Y150319D01*
X125912Y150922D01*
X124997Y151301D01*
X124016Y151430D01*
D02*
G37*
G36*
X281980Y142513D02*
X281752Y142483D01*
X281073Y142202D01*
X280490Y141755D01*
X280042Y141172D01*
X279761Y140492D01*
X279731Y140264D01*
X281980D01*
Y142513D01*
D02*
G37*
G36*
X67913Y159304D02*
X66932Y159175D01*
X66017Y158796D01*
X65232Y158193D01*
X64629Y157408D01*
X64250Y156493D01*
X64121Y155512D01*
X64250Y154530D01*
X64629Y153616D01*
X65232Y152830D01*
X66017Y152228D01*
X66932Y151849D01*
X67913Y151720D01*
X68895Y151849D01*
X69810Y152228D01*
X70595Y152830D01*
X71198Y153616D01*
X71576Y154530D01*
X71706Y155512D01*
X71576Y156493D01*
X71198Y157408D01*
X70595Y158193D01*
X69810Y158796D01*
X68895Y159175D01*
X67913Y159304D01*
D02*
G37*
G36*
X133655Y147138D02*
X131406D01*
Y144888D01*
X131634Y144918D01*
X132313Y145200D01*
X132896Y145647D01*
X133344Y146230D01*
X133625Y146909D01*
X133655Y147138D01*
D02*
G37*
G36*
X131406Y150388D02*
Y148138D01*
X133655D01*
X133625Y148367D01*
X133344Y149046D01*
X132896Y149629D01*
X132313Y150076D01*
X131634Y150357D01*
X131406Y150388D01*
D02*
G37*
G36*
X251181Y158320D02*
X250200Y158191D01*
X249285Y157812D01*
X248500Y157209D01*
X247897Y156424D01*
X247518Y155509D01*
X247389Y154528D01*
X247518Y153546D01*
X247897Y152631D01*
X248500Y151846D01*
X249285Y151243D01*
X249654Y151091D01*
X250200Y150865D01*
X251181Y150735D01*
X252163Y150865D01*
X253077Y151243D01*
X253863Y151846D01*
X254465Y152631D01*
X254844Y153546D01*
X254973Y154528D01*
X254844Y155509D01*
X254465Y156424D01*
X253863Y157209D01*
X253077Y157812D01*
X252163Y158191D01*
X251181Y158320D01*
D02*
G37*
G36*
X193898Y159304D02*
X192916Y159175D01*
X192001Y158796D01*
X191216Y158193D01*
X190613Y157408D01*
X190235Y156493D01*
X190105Y155512D01*
X190235Y154530D01*
X190613Y153616D01*
X191216Y152830D01*
X192001Y152228D01*
X192916Y151849D01*
X193898Y151720D01*
X194879Y151849D01*
X195794Y152228D01*
X196579Y152830D01*
X197182Y153616D01*
X197561Y154530D01*
X197690Y155512D01*
X197561Y156493D01*
X197182Y157408D01*
X196579Y158193D01*
X195794Y158796D01*
X194879Y159175D01*
X193898Y159304D01*
D02*
G37*
G36*
X158465D02*
X157483Y159175D01*
X156569Y158796D01*
X155783Y158193D01*
X155180Y157408D01*
X154801Y156493D01*
X154672Y155512D01*
X154801Y154530D01*
X155180Y153616D01*
X155783Y152830D01*
X156569Y152228D01*
X157483Y151849D01*
X158465Y151720D01*
X159446Y151849D01*
X160361Y152228D01*
X161146Y152830D01*
X161749Y153616D01*
X162128Y154530D01*
X162257Y155512D01*
X162128Y156493D01*
X161749Y157408D01*
X161146Y158193D01*
X160361Y158796D01*
X159446Y159175D01*
X158465Y159304D01*
D02*
G37*
G36*
X260433Y144540D02*
X259452Y144411D01*
X258537Y144032D01*
X257751Y143430D01*
X257149Y142644D01*
X256770Y141730D01*
X256641Y140748D01*
X256770Y139767D01*
X257149Y138852D01*
X257751Y138066D01*
X258537Y137464D01*
X259452Y137085D01*
X260433Y136956D01*
X261415Y137085D01*
X262329Y137464D01*
X263115Y138066D01*
X263717Y138852D01*
X264096Y139767D01*
X264225Y140748D01*
X264096Y141730D01*
X263717Y142644D01*
X263115Y143430D01*
X262329Y144032D01*
X261415Y144411D01*
X260433Y144540D01*
D02*
G37*
G36*
X110033Y133358D02*
X107783D01*
Y131109D01*
X108012Y131139D01*
X108691Y131420D01*
X109274Y131868D01*
X109722Y132451D01*
X110003Y133130D01*
X110033Y133358D01*
D02*
G37*
G36*
X32480Y155055D02*
X30701Y154915D01*
X28966Y154498D01*
X27317Y153815D01*
X25795Y152883D01*
X24438Y151724D01*
X23279Y150366D01*
X22346Y148845D01*
X21663Y147196D01*
X21247Y145460D01*
X21107Y143681D01*
X21247Y141902D01*
X21663Y140166D01*
X22346Y138518D01*
X23279Y136996D01*
X24438Y135639D01*
X25795Y134480D01*
X27317Y133547D01*
X28966Y132864D01*
X30701Y132448D01*
X32480Y132308D01*
X34260Y132448D01*
X35995Y132864D01*
X37644Y133547D01*
X39166Y134480D01*
X40523Y135639D01*
X41682Y136996D01*
X42614Y138518D01*
X43297Y140166D01*
X43714Y141902D01*
X43854Y143681D01*
X43714Y145460D01*
X43297Y147196D01*
X42614Y148845D01*
X41682Y150366D01*
X40523Y151724D01*
X39166Y152883D01*
X37644Y153815D01*
X35995Y154498D01*
X34260Y154915D01*
X32480Y155055D01*
D02*
G37*
G36*
X106783Y133358D02*
X104534D01*
X104564Y133130D01*
X104845Y132451D01*
X105293Y131868D01*
X105876Y131420D01*
X106555Y131139D01*
X106783Y131109D01*
Y133358D01*
D02*
G37*
G36*
X207183Y133163D02*
X206990D01*
Y133133D01*
Y133114D01*
Y133110D01*
X206699Y133072D01*
D01*
X206105Y132994D01*
X205190Y132615D01*
X204405Y132012D01*
X203802Y131227D01*
X203424Y130312D01*
X203294Y129331D01*
X203424Y128349D01*
X203802Y127435D01*
X204405Y126649D01*
X205190Y126047D01*
X206105Y125668D01*
X207087Y125539D01*
X208068Y125668D01*
X208983Y126047D01*
X209768Y126649D01*
X210371Y127435D01*
X210750Y128349D01*
X210879Y129331D01*
X210750Y130312D01*
X210371Y131227D01*
X209768Y132012D01*
X208983Y132615D01*
X208068Y132994D01*
X207474Y133072D01*
X207474D01*
X207183Y133110D01*
Y133114D01*
Y133133D01*
Y133163D01*
D02*
G37*
G36*
X285230Y139264D02*
X279731D01*
X279761Y139035D01*
X280042Y138356D01*
X280490Y137773D01*
X281073Y137326D01*
X281270Y137244D01*
X281528Y136606D01*
X281499Y136537D01*
X280584Y136158D01*
X279799Y135556D01*
X279196Y134770D01*
X278817Y133856D01*
X278688Y132874D01*
X278817Y131893D01*
X279196Y130978D01*
X279799Y130192D01*
X280584Y129590D01*
X281499Y129211D01*
X282480Y129082D01*
X283462Y129211D01*
X284377Y129590D01*
X285162Y130192D01*
X285765Y130978D01*
X286143Y131893D01*
X286273Y132874D01*
X286143Y133856D01*
X285765Y134770D01*
X285162Y135556D01*
X284377Y136158D01*
X283462Y136537D01*
X283433Y136606D01*
X283691Y137244D01*
X283888Y137326D01*
X284471Y137773D01*
X284919Y138356D01*
X285200Y139035D01*
X285230Y139264D01*
D02*
G37*
G36*
X206587Y135917D02*
X204337D01*
X204367Y135689D01*
X204648Y135010D01*
X205096Y134427D01*
X205679Y133979D01*
X206358Y133698D01*
X206587Y133668D01*
Y135917D01*
D02*
G37*
G36*
Y139167D02*
X206358Y139137D01*
X205679Y138856D01*
X205096Y138408D01*
X204648Y137825D01*
X204367Y137146D01*
X204337Y136917D01*
X206587D01*
Y139167D01*
D02*
G37*
G36*
X207587D02*
Y136917D01*
X209836D01*
X209806Y137146D01*
X209525Y137825D01*
X209078Y138408D01*
X208494Y138856D01*
X207815Y139137D01*
X207587Y139167D01*
D02*
G37*
G36*
X107783Y136608D02*
Y134358D01*
X110033D01*
X110003Y134587D01*
X109722Y135266D01*
X109274Y135849D01*
X108691Y136297D01*
X108012Y136578D01*
X107783Y136608D01*
D02*
G37*
G36*
X209836Y135917D02*
X207587D01*
Y133668D01*
X207815Y133698D01*
X208494Y133979D01*
X209078Y134427D01*
X209525Y135010D01*
X209806Y135689D01*
X209836Y135917D01*
D02*
G37*
G36*
X106783Y136608D02*
X106555Y136578D01*
X105876Y136297D01*
X105293Y135849D01*
X104845Y135266D01*
X104564Y134587D01*
X104534Y134358D01*
X106783D01*
Y136608D01*
D02*
G37*
G36*
X284246Y175681D02*
X281996D01*
Y173432D01*
X282225Y173462D01*
X282904Y173743D01*
X283487Y174190D01*
X283934Y174773D01*
X284216Y175452D01*
X284246Y175681D01*
D02*
G37*
G36*
X280996Y178931D02*
X280767Y178901D01*
X280088Y178619D01*
X279505Y178172D01*
X279058Y177589D01*
X278777Y176910D01*
X278747Y176681D01*
X280996D01*
Y178931D01*
D02*
G37*
G36*
Y175681D02*
X278747D01*
X278777Y175452D01*
X279058Y174773D01*
X279505Y174190D01*
X280088Y173743D01*
X280767Y173462D01*
X280996Y173432D01*
Y175681D01*
D02*
G37*
G36*
X130905Y177021D02*
X129924Y176892D01*
X129009Y176513D01*
X128224Y175910D01*
X127621Y175125D01*
X127243Y174210D01*
X127113Y173228D01*
X127243Y172247D01*
X127621Y171332D01*
X128224Y170547D01*
X129009Y169944D01*
X129924Y169565D01*
X130905Y169436D01*
X131887Y169565D01*
X132802Y169944D01*
X133587Y170547D01*
X134190Y171332D01*
X134569Y172247D01*
X134698Y173228D01*
X134569Y174210D01*
X134190Y175125D01*
X133587Y175910D01*
X132802Y176513D01*
X131887Y176892D01*
X130905Y177021D01*
D02*
G37*
G36*
X113189Y188241D02*
X112207Y188112D01*
X111293Y187733D01*
X110508Y187130D01*
X109905Y186345D01*
X109526Y185430D01*
X109397Y184449D01*
X109526Y183467D01*
X109905Y182553D01*
X110508Y181767D01*
X111293Y181165D01*
X112207Y180786D01*
X112373Y180764D01*
Y180260D01*
X112207Y180238D01*
X111293Y179859D01*
X110508Y179256D01*
X109905Y178471D01*
X109526Y177556D01*
X109397Y176575D01*
X109526Y175593D01*
X109905Y174679D01*
X110508Y173893D01*
X111293Y173291D01*
X112207Y172912D01*
X113189Y172783D01*
X114171Y172912D01*
X115085Y173291D01*
X115871Y173893D01*
X116473Y174679D01*
X116852Y175593D01*
X116981Y176575D01*
X116852Y177556D01*
X116473Y178471D01*
X115871Y179256D01*
X115085Y179859D01*
X114171Y180238D01*
X114005Y180260D01*
Y180764D01*
X114171Y180786D01*
X115085Y181165D01*
X115871Y181767D01*
X116473Y182553D01*
X116852Y183467D01*
X116981Y184449D01*
X116852Y185430D01*
X116473Y186345D01*
X115871Y187130D01*
X115085Y187733D01*
X114171Y188112D01*
X113189Y188241D01*
D02*
G37*
G36*
X159449Y187847D02*
X158467Y187718D01*
X157553Y187339D01*
X156767Y186737D01*
X156165Y185951D01*
X155786Y185037D01*
X155657Y184055D01*
X155786Y183074D01*
X156165Y182159D01*
X156767Y181374D01*
X157553Y180771D01*
X158467Y180392D01*
X159449Y180263D01*
X160430Y180392D01*
X161345Y180771D01*
X162130Y181374D01*
X162733Y182159D01*
X163112Y183074D01*
X163241Y184055D01*
X163112Y185037D01*
X162733Y185951D01*
X162130Y186737D01*
X161345Y187339D01*
X160430Y187718D01*
X159449Y187847D01*
D02*
G37*
G36*
X219331Y200830D02*
X218046Y200661D01*
X216849Y200165D01*
X215821Y199376D01*
X215032Y198348D01*
X214536Y197151D01*
X214367Y195866D01*
X214536Y194581D01*
X215032Y193384D01*
X215821Y192356D01*
X216849Y191568D01*
X218046Y191072D01*
X219331Y190902D01*
X220616Y191072D01*
X221813Y191568D01*
X222841Y192356D01*
X223629Y193384D01*
X223909Y194060D01*
X224410Y193961D01*
Y190945D01*
X234252D01*
Y200787D01*
X224410D01*
Y197771D01*
X223909Y197672D01*
X223629Y198348D01*
X222841Y199376D01*
X221813Y200165D01*
X220616Y200661D01*
X219331Y200830D01*
D02*
G37*
G36*
X32480Y202338D02*
X30701Y202198D01*
X28966Y201782D01*
X27317Y201099D01*
X25795Y200166D01*
X24438Y199007D01*
X23279Y197650D01*
X22346Y196128D01*
X21663Y194479D01*
X21247Y192744D01*
X21107Y190965D01*
X21247Y189185D01*
X21663Y187450D01*
X22346Y185801D01*
X23279Y184279D01*
X24438Y182922D01*
X25795Y181763D01*
X27317Y180831D01*
X28966Y180148D01*
X30701Y179731D01*
X32480Y179591D01*
X34260Y179731D01*
X35995Y180148D01*
X37644Y180831D01*
X39166Y181763D01*
X40523Y182922D01*
X41682Y184279D01*
X42614Y185801D01*
X43297Y187450D01*
X43714Y189185D01*
X43854Y190965D01*
X43714Y192744D01*
X43297Y194479D01*
X42614Y196128D01*
X41682Y197650D01*
X40523Y199007D01*
X39166Y200166D01*
X37644Y201099D01*
X35995Y201782D01*
X34260Y202198D01*
X32480Y202338D01*
D02*
G37*
G36*
X281996Y178931D02*
Y176681D01*
X284246D01*
X284216Y176910D01*
X283934Y177589D01*
X283487Y178172D01*
X282904Y178619D01*
X282225Y178901D01*
X281996Y178931D01*
D02*
G37*
G36*
X241142Y185879D02*
X240160Y185750D01*
X239246Y185371D01*
X238460Y184768D01*
X237858Y183983D01*
X237479Y183068D01*
X237349Y182087D01*
X237479Y181105D01*
X237858Y180191D01*
X238460Y179405D01*
X239246Y178802D01*
X240160Y178424D01*
X241142Y178294D01*
X242123Y178424D01*
X243038Y178802D01*
X243823Y179405D01*
X244426Y180191D01*
X244805Y181105D01*
X244934Y182087D01*
X244805Y183068D01*
X244426Y183983D01*
X243823Y184768D01*
X243038Y185371D01*
X242123Y185750D01*
X241142Y185879D01*
D02*
G37*
G36*
X74319Y171057D02*
Y168807D01*
X76569D01*
X76538Y169036D01*
X76257Y169715D01*
X75810Y170298D01*
X75227Y170745D01*
X74548Y171027D01*
X74319Y171057D01*
D02*
G37*
G36*
X158465Y169147D02*
X157483Y169017D01*
X156569Y168639D01*
X155783Y168036D01*
X155180Y167251D01*
X154801Y166336D01*
X154672Y165354D01*
X154801Y164373D01*
X155180Y163458D01*
X155783Y162673D01*
X156569Y162070D01*
X157483Y161691D01*
X158465Y161562D01*
X159446Y161691D01*
X160361Y162070D01*
X161146Y162673D01*
X161749Y163458D01*
X162128Y164373D01*
X162257Y165354D01*
X162128Y166336D01*
X161749Y167251D01*
X161146Y168036D01*
X160361Y168639D01*
X159446Y169017D01*
X158465Y169147D01*
D02*
G37*
G36*
X193898D02*
X192916Y169017D01*
X192001Y168639D01*
X191216Y168036D01*
X190613Y167251D01*
X190235Y166336D01*
X190105Y165354D01*
X190235Y164373D01*
X190613Y163458D01*
X191216Y162673D01*
X192001Y162070D01*
X192916Y161691D01*
X193898Y161562D01*
X194879Y161691D01*
X195794Y162070D01*
X196579Y162673D01*
X197182Y163458D01*
X197561Y164373D01*
X197690Y165354D01*
X197561Y166336D01*
X197182Y167251D01*
X196579Y168036D01*
X195794Y168639D01*
X194879Y169017D01*
X193898Y169147D01*
D02*
G37*
G36*
X234252Y167178D02*
X233271Y167049D01*
X232356Y166670D01*
X231571Y166067D01*
X230968Y165282D01*
X230589Y164367D01*
X230460Y163386D01*
X230589Y162404D01*
X230968Y161490D01*
X231571Y160704D01*
X232356Y160102D01*
X233271Y159723D01*
X234252Y159594D01*
X235233Y159723D01*
X236148Y160102D01*
X236934Y160704D01*
X237536Y161490D01*
X237915Y162404D01*
X238044Y163386D01*
X237915Y164367D01*
X237536Y165282D01*
X236934Y166067D01*
X236148Y166670D01*
X235233Y167049D01*
X234252Y167178D01*
D02*
G37*
G36*
X207283Y160682D02*
X206302Y160553D01*
X205387Y160174D01*
X204602Y159571D01*
X203999Y158786D01*
X203620Y157871D01*
X203491Y156890D01*
X203620Y155908D01*
X203999Y154994D01*
X204602Y154208D01*
X205387Y153606D01*
X206302Y153227D01*
X207283Y153097D01*
X208265Y153227D01*
X209180Y153606D01*
X209965Y154208D01*
X210366Y154731D01*
X210515Y154746D01*
X210924Y154637D01*
X211144Y154104D01*
X211592Y153521D01*
X212175Y153074D01*
X212854Y152792D01*
X213083Y152762D01*
Y155512D01*
Y158262D01*
X212854Y158231D01*
X212175Y157950D01*
X211592Y157503D01*
X211513Y157400D01*
X210990Y157540D01*
X210947Y157871D01*
X210568Y158786D01*
X209965Y159571D01*
X209180Y160174D01*
X208265Y160553D01*
X207283Y160682D01*
D02*
G37*
G36*
X214083Y158262D02*
Y156012D01*
X216332D01*
X216302Y156241D01*
X216021Y156920D01*
X215574Y157503D01*
X214990Y157950D01*
X214311Y158231D01*
X214083Y158262D01*
D02*
G37*
G36*
X249016Y176036D02*
X248034Y175907D01*
X247120Y175528D01*
X246334Y174926D01*
X245732Y174140D01*
X245353Y173226D01*
X245223Y172244D01*
X245353Y171263D01*
X245732Y170348D01*
X246334Y169563D01*
X247120Y168960D01*
X248034Y168581D01*
X249016Y168452D01*
X249997Y168581D01*
X250912Y168960D01*
X251697Y169563D01*
X252300Y170348D01*
X252679Y171263D01*
X252808Y172244D01*
X252679Y173226D01*
X252300Y174140D01*
X251697Y174926D01*
X250912Y175528D01*
X249997Y175907D01*
X249016Y176036D01*
D02*
G37*
G36*
X73319Y171057D02*
X73090Y171027D01*
X72411Y170745D01*
X71828Y170298D01*
X71381Y169715D01*
X71100Y169036D01*
X71069Y168807D01*
X73319D01*
Y171057D01*
D02*
G37*
G36*
X266732Y175052D02*
X265751Y174923D01*
X264836Y174544D01*
X264051Y173941D01*
X263448Y173156D01*
X263069Y172241D01*
X262940Y171260D01*
X263069Y170278D01*
X263448Y169364D01*
X264051Y168578D01*
X264836Y167976D01*
X265751Y167597D01*
X266732Y167468D01*
X267714Y167597D01*
X268629Y167976D01*
X269414Y168578D01*
X270017Y169364D01*
X270395Y170278D01*
X270525Y171260D01*
X270395Y172241D01*
X270017Y173156D01*
X269414Y173941D01*
X268629Y174544D01*
X267714Y174923D01*
X266732Y175052D01*
D02*
G37*
G36*
X73319Y167807D02*
X71069D01*
X71100Y167578D01*
X71381Y166899D01*
X71828Y166316D01*
X72411Y165869D01*
X73090Y165588D01*
X73319Y165558D01*
Y167807D01*
D02*
G37*
G36*
X76569D02*
X74319D01*
Y165558D01*
X74548Y165588D01*
X75227Y165869D01*
X75810Y166316D01*
X76257Y166899D01*
X76538Y167578D01*
X76569Y167807D01*
D02*
G37*
G36*
X220866Y69737D02*
X219885Y69608D01*
X218970Y69229D01*
X218185Y68626D01*
X217582Y67841D01*
X217203Y66926D01*
X217074Y65945D01*
X217203Y64963D01*
X217582Y64049D01*
X218185Y63263D01*
X218970Y62661D01*
X219885Y62282D01*
X220866Y62153D01*
X221848Y62282D01*
X222762Y62661D01*
X223548Y63263D01*
X224150Y64049D01*
X224529Y64963D01*
X224658Y65945D01*
X224529Y66926D01*
X224150Y67841D01*
X223548Y68626D01*
X222762Y69229D01*
X221848Y69608D01*
X220866Y69737D01*
D02*
G37*
G36*
X262205D02*
X261223Y69608D01*
X260309Y69229D01*
X259523Y68626D01*
X258921Y67841D01*
X258542Y66926D01*
X258413Y65945D01*
X258542Y64963D01*
X258921Y64049D01*
X259523Y63263D01*
X260309Y62661D01*
X261223Y62282D01*
X262205Y62153D01*
X263186Y62282D01*
X264101Y62661D01*
X264886Y63263D01*
X265489Y64049D01*
X265868Y64963D01*
X265997Y65945D01*
X265868Y66926D01*
X265489Y67841D01*
X264886Y68626D01*
X264101Y69229D01*
X263186Y69608D01*
X262205Y69737D01*
D02*
G37*
G36*
X251969Y69737D02*
X250987Y69608D01*
X250072Y69229D01*
X249287Y68626D01*
X248684Y67841D01*
X248306Y66926D01*
X248176Y65945D01*
X248306Y64963D01*
X248684Y64049D01*
X249287Y63263D01*
X250072Y62661D01*
X250987Y62282D01*
X251969Y62153D01*
X252950Y62282D01*
X253865Y62661D01*
X254650Y63263D01*
X255253Y64049D01*
X255632Y64963D01*
X255761Y65945D01*
X255632Y66926D01*
X255253Y67841D01*
X254650Y68626D01*
X253865Y69229D01*
X252950Y69608D01*
X251969Y69737D01*
D02*
G37*
G36*
X174697Y62492D02*
X172447D01*
X172477Y62264D01*
X172759Y61585D01*
X173206Y61001D01*
X173789Y60554D01*
X174468Y60273D01*
X174697Y60243D01*
Y62492D01*
D02*
G37*
G36*
X177946D02*
X175697D01*
Y60243D01*
X175926Y60273D01*
X176605Y60554D01*
X177188Y61001D01*
X177635Y61585D01*
X177916Y62264D01*
X177946Y62492D01*
D02*
G37*
G36*
X174697Y65742D02*
X174468Y65712D01*
X173789Y65430D01*
X173206Y64983D01*
X172759Y64400D01*
X172477Y63721D01*
X172447Y63492D01*
X174697D01*
Y65742D01*
D02*
G37*
G36*
X38071Y121640D02*
X36689Y121458D01*
X35400Y120925D01*
X34294Y120076D01*
X33446Y118970D01*
X32912Y117682D01*
X32730Y116299D01*
X32912Y114917D01*
X33446Y113629D01*
X34294Y112523D01*
X35400Y111674D01*
X36689Y111140D01*
X37005Y111099D01*
Y110594D01*
X36689Y110553D01*
X35400Y110019D01*
X34294Y109170D01*
X33446Y108064D01*
X32912Y106776D01*
X32730Y105394D01*
X32912Y104011D01*
X33446Y102723D01*
X34294Y101617D01*
X35400Y100768D01*
X36689Y100235D01*
X37005Y100193D01*
Y99689D01*
X36689Y99647D01*
X35400Y99114D01*
X34294Y98265D01*
X33446Y97159D01*
X32912Y95871D01*
X32730Y94488D01*
X32912Y93106D01*
X33446Y91818D01*
X34294Y90711D01*
X35400Y89863D01*
X36689Y89329D01*
X37005Y89288D01*
Y88783D01*
X36689Y88742D01*
X35400Y88208D01*
X34294Y87359D01*
X33446Y86253D01*
X32912Y84965D01*
X32730Y83583D01*
X32912Y82200D01*
X33446Y80912D01*
X34294Y79806D01*
X35400Y78957D01*
X36571Y78472D01*
X36471Y77972D01*
X32776D01*
Y67382D01*
X43366D01*
Y77972D01*
X39670D01*
X39571Y78472D01*
X40741Y78957D01*
X41848Y79806D01*
X42696Y80912D01*
X43230Y82200D01*
X43412Y83583D01*
X43230Y84965D01*
X42696Y86253D01*
X41848Y87359D01*
X40741Y88208D01*
X39453Y88742D01*
X39137Y88783D01*
Y89288D01*
X39453Y89329D01*
X40741Y89863D01*
X41848Y90711D01*
X42696Y91818D01*
X43230Y93106D01*
X43412Y94488D01*
X43230Y95871D01*
X42696Y97159D01*
X41848Y98265D01*
X40741Y99114D01*
X39453Y99647D01*
X39137Y99689D01*
Y100193D01*
X39453Y100235D01*
X40741Y100768D01*
X41848Y101617D01*
X42696Y102723D01*
X43230Y104011D01*
X43412Y105394D01*
X43230Y106776D01*
X42696Y108064D01*
X41848Y109170D01*
X40741Y110019D01*
X39453Y110553D01*
X39137Y110594D01*
Y111099D01*
X39453Y111140D01*
X40741Y111674D01*
X41848Y112523D01*
X42696Y113629D01*
X43230Y114917D01*
X43412Y116299D01*
X43230Y117682D01*
X42696Y118970D01*
X41848Y120076D01*
X40741Y120925D01*
X39453Y121458D01*
X38071Y121640D01*
D02*
G37*
G36*
X26890Y116187D02*
X25507Y116005D01*
X24219Y115472D01*
X23113Y114623D01*
X22264Y113517D01*
X21731Y112229D01*
X21549Y110846D01*
X21731Y109464D01*
X22264Y108176D01*
X23113Y107070D01*
X24219Y106221D01*
X25507Y105687D01*
X25824Y105646D01*
Y105141D01*
X25507Y105100D01*
X24219Y104566D01*
X23113Y103718D01*
X22264Y102611D01*
X21731Y101323D01*
X21549Y99941D01*
X21731Y98559D01*
X22264Y97271D01*
X23113Y96164D01*
X24219Y95315D01*
X25507Y94782D01*
X25824Y94740D01*
Y94236D01*
X25507Y94194D01*
X24219Y93661D01*
X23113Y92812D01*
X22264Y91706D01*
X21731Y90418D01*
X21549Y89035D01*
X21731Y87653D01*
X22264Y86365D01*
X23113Y85259D01*
X24219Y84410D01*
X25507Y83876D01*
X25824Y83835D01*
Y83331D01*
X25507Y83289D01*
X24219Y82755D01*
X23113Y81906D01*
X22264Y80800D01*
X21731Y79512D01*
X21549Y78130D01*
X21731Y76748D01*
X22264Y75459D01*
X23113Y74353D01*
X24219Y73505D01*
X25507Y72971D01*
X26890Y72789D01*
X28272Y72971D01*
X29560Y73505D01*
X30666Y74353D01*
X31515Y75459D01*
X32049Y76748D01*
X32231Y78130D01*
X32049Y79512D01*
X31515Y80800D01*
X30666Y81906D01*
X29560Y82755D01*
X28272Y83289D01*
X27956Y83331D01*
Y83835D01*
X28272Y83876D01*
X29560Y84410D01*
X30666Y85259D01*
X31515Y86365D01*
X32049Y87653D01*
X32231Y89035D01*
X32049Y90418D01*
X31515Y91706D01*
X30666Y92812D01*
X29560Y93661D01*
X28272Y94194D01*
X27956Y94236D01*
Y94740D01*
X28272Y94782D01*
X29560Y95315D01*
X30666Y96164D01*
X31515Y97271D01*
X32049Y98559D01*
X32231Y99941D01*
X32049Y101323D01*
X31515Y102611D01*
X30666Y103718D01*
X29560Y104566D01*
X28272Y105100D01*
X27956Y105141D01*
Y105646D01*
X28272Y105687D01*
X29560Y106221D01*
X30666Y107070D01*
X31515Y108176D01*
X32049Y109464D01*
X32231Y110846D01*
X32049Y112229D01*
X31515Y113517D01*
X30666Y114623D01*
X29560Y115472D01*
X28272Y116005D01*
X26890Y116187D01*
D02*
G37*
G36*
X66929Y72690D02*
X65948Y72561D01*
X65033Y72182D01*
X64248Y71579D01*
X63645Y70794D01*
X63266Y69879D01*
X63137Y68898D01*
X63266Y67916D01*
X63645Y67002D01*
X64248Y66216D01*
X65033Y65614D01*
X65948Y65235D01*
X66929Y65105D01*
X67911Y65235D01*
X68825Y65614D01*
X69611Y66216D01*
X70213Y67002D01*
X70592Y67916D01*
X70722Y68898D01*
X70592Y69879D01*
X70213Y70794D01*
X69611Y71579D01*
X68825Y72182D01*
X67911Y72561D01*
X66929Y72690D01*
D02*
G37*
G36*
X175697Y65742D02*
Y63492D01*
X177946D01*
X177916Y63721D01*
X177635Y64400D01*
X177188Y64983D01*
X176605Y65430D01*
X175926Y65712D01*
X175697Y65742D01*
D02*
G37*
G36*
X273622Y72690D02*
X272641Y72561D01*
X271726Y72182D01*
X270940Y71579D01*
X270338Y70794D01*
X269959Y69879D01*
X269830Y68898D01*
X269959Y67916D01*
X270338Y67001D01*
X270940Y66216D01*
X271726Y65614D01*
X272641Y65235D01*
X273622Y65105D01*
X274604Y65235D01*
X275518Y65614D01*
X276304Y66216D01*
X276906Y67001D01*
X277285Y67916D01*
X277414Y68898D01*
X277285Y69879D01*
X276906Y70794D01*
X276304Y71579D01*
X275518Y72182D01*
X274604Y72561D01*
X273622Y72690D01*
D02*
G37*
G36*
X144185Y33261D02*
X143956Y33231D01*
X143277Y32950D01*
X142694Y32503D01*
X142247Y31920D01*
X141966Y31241D01*
X141936Y31012D01*
X144185D01*
Y33261D01*
D02*
G37*
G36*
X145185D02*
Y31012D01*
X147435D01*
X147405Y31241D01*
X147123Y31920D01*
X146676Y32503D01*
X146093Y32950D01*
X145414Y33231D01*
X145185Y33261D01*
D02*
G37*
G36*
X147435Y30012D02*
X145185D01*
Y27762D01*
X145414Y27792D01*
X146093Y28074D01*
X146676Y28521D01*
X147123Y29104D01*
X147405Y29783D01*
X147435Y30012D01*
D02*
G37*
G36*
X163386Y34304D02*
X162404Y34175D01*
X161490Y33796D01*
X160704Y33193D01*
X160102Y32408D01*
X159723Y31493D01*
X159594Y30512D01*
X159723Y29530D01*
X160102Y28616D01*
X160704Y27830D01*
X161490Y27228D01*
X162404Y26849D01*
X163386Y26720D01*
X164367Y26849D01*
X165282Y27228D01*
X166067Y27830D01*
X166670Y28616D01*
X167049Y29530D01*
X167178Y30512D01*
X167049Y31493D01*
X166670Y32408D01*
X166067Y33193D01*
X165282Y33796D01*
X164367Y34175D01*
X163386Y34304D01*
D02*
G37*
G36*
X144185Y30012D02*
X141936D01*
X141966Y29783D01*
X142247Y29104D01*
X142694Y28521D01*
X143277Y28074D01*
X143956Y27792D01*
X144185Y27762D01*
Y30012D01*
D02*
G37*
G36*
X273122Y46057D02*
X272893Y46027D01*
X272214Y45745D01*
X271631Y45298D01*
X271184Y44715D01*
X270903Y44036D01*
X270872Y43807D01*
X273122D01*
Y46057D01*
D02*
G37*
G36*
X112205Y63832D02*
X111223Y63702D01*
X110309Y63324D01*
X109523Y62721D01*
X108921Y61936D01*
X108542Y61021D01*
X108412Y60039D01*
X108542Y59058D01*
X108921Y58143D01*
X109523Y57358D01*
X110309Y56755D01*
X111223Y56376D01*
X112205Y56247D01*
X113186Y56376D01*
X114101Y56755D01*
X114886Y57358D01*
X115489Y58143D01*
X115868Y59058D01*
X115997Y60039D01*
X115868Y61021D01*
X115489Y61936D01*
X114886Y62721D01*
X114101Y63324D01*
X113186Y63702D01*
X112205Y63832D01*
D02*
G37*
G36*
X157480Y66785D02*
X156499Y66655D01*
X155584Y66276D01*
X154799Y65674D01*
X154196Y64888D01*
X153817Y63974D01*
X153688Y62992D01*
X153817Y62011D01*
X154196Y61096D01*
X154799Y60311D01*
X155584Y59708D01*
X156499Y59329D01*
X157480Y59200D01*
X158462Y59329D01*
X159377Y59708D01*
X160162Y60311D01*
X160765Y61096D01*
X161143Y62011D01*
X161273Y62992D01*
X161143Y63974D01*
X160765Y64888D01*
X160162Y65674D01*
X159377Y66276D01*
X158462Y66655D01*
X157480Y66785D01*
D02*
G37*
G36*
X106799Y49994D02*
Y47744D01*
X109049D01*
X109019Y47973D01*
X108738Y48652D01*
X108290Y49235D01*
X107707Y49682D01*
X107028Y49964D01*
X106799Y49994D01*
D02*
G37*
G36*
X274122Y46057D02*
Y43807D01*
X276372D01*
X276342Y44036D01*
X276060Y44715D01*
X275613Y45298D01*
X275030Y45745D01*
X274351Y46027D01*
X274122Y46057D01*
D02*
G37*
G36*
X105799Y49994D02*
X105571Y49964D01*
X104892Y49682D01*
X104308Y49235D01*
X103861Y48652D01*
X103580Y47973D01*
X103550Y47744D01*
X105799D01*
Y49994D01*
D02*
G37*
G36*
X214083Y112986D02*
Y110736D01*
X216332D01*
X216302Y110965D01*
X216021Y111644D01*
X215574Y112227D01*
X214990Y112674D01*
X214311Y112956D01*
X214083Y112986D01*
D02*
G37*
G36*
X213083D02*
X212854Y112956D01*
X212175Y112674D01*
X211592Y112227D01*
X211144Y111644D01*
X210924Y111112D01*
X210515Y111002D01*
X210366Y111018D01*
X209965Y111540D01*
X209180Y112143D01*
X208265Y112521D01*
X207283Y112651D01*
X206302Y112521D01*
X205387Y112143D01*
X204602Y111540D01*
X203999Y110755D01*
X203620Y109840D01*
X203491Y108858D01*
X203620Y107877D01*
X203999Y106962D01*
X204602Y106177D01*
X205387Y105574D01*
X206302Y105195D01*
X207283Y105066D01*
X208265Y105195D01*
X209180Y105574D01*
X209965Y106177D01*
X210568Y106962D01*
X210947Y107877D01*
X210990Y108208D01*
X211513Y108348D01*
X211592Y108246D01*
X212175Y107798D01*
X212854Y107517D01*
X213083Y107487D01*
Y110236D01*
Y112986D01*
D02*
G37*
G36*
X216332Y109736D02*
X214083D01*
Y107487D01*
X214311Y107517D01*
X214990Y107798D01*
X215574Y108246D01*
X216021Y108829D01*
X216302Y109508D01*
X216332Y109736D01*
D02*
G37*
G36*
X224410Y115013D02*
X223428Y114884D01*
X222513Y114505D01*
X221728Y113902D01*
X221125Y113117D01*
X220746Y112202D01*
X220617Y111221D01*
X220746Y110239D01*
X221125Y109324D01*
X221728Y108539D01*
X222513Y107936D01*
X223428Y107557D01*
X224410Y107428D01*
X225391Y107557D01*
X226306Y107936D01*
X227091Y108539D01*
X227694Y109324D01*
X228073Y110239D01*
X228202Y111221D01*
X228073Y112202D01*
X227694Y113117D01*
X227091Y113902D01*
X226306Y114505D01*
X225391Y114884D01*
X224410Y115013D01*
D02*
G37*
G36*
X251181D02*
X250200Y114884D01*
X249285Y114505D01*
X248500Y113902D01*
X247897Y113117D01*
X247518Y112202D01*
X247389Y111221D01*
X247518Y110239D01*
X247897Y109324D01*
X248500Y108539D01*
X249285Y107936D01*
X250200Y107557D01*
X251181Y107428D01*
X252163Y107557D01*
X253077Y107936D01*
X253863Y108539D01*
X254465Y109324D01*
X254844Y110239D01*
X254973Y111221D01*
X254844Y112202D01*
X254465Y113117D01*
X253863Y113902D01*
X253077Y114505D01*
X252163Y114884D01*
X251181Y115013D01*
D02*
G37*
G36*
X130406Y117610D02*
X128156D01*
X128186Y117382D01*
X128467Y116703D01*
X128915Y116120D01*
X129498Y115672D01*
X130177Y115391D01*
X130406Y115361D01*
Y117610D01*
D02*
G37*
G36*
X232283Y138635D02*
X231302Y138506D01*
X230387Y138127D01*
X229602Y137524D01*
X228999Y136739D01*
X228620Y135824D01*
X228491Y134843D01*
X228620Y133861D01*
X228999Y132946D01*
X229602Y132161D01*
X230387Y131558D01*
X231302Y131179D01*
X231477Y131157D01*
X231444Y130906D01*
X231573Y129924D01*
X231952Y129009D01*
X232555Y128224D01*
X233340Y127621D01*
X234255Y127243D01*
X235236Y127113D01*
X235487Y127146D01*
X235510Y126971D01*
X235889Y126057D01*
X236492Y125271D01*
X237277Y124669D01*
X238192Y124290D01*
X239173Y124161D01*
X240155Y124290D01*
X241069Y124669D01*
X241855Y125271D01*
X242458Y126057D01*
X242836Y126971D01*
X242966Y127953D01*
X242836Y128934D01*
X242458Y129849D01*
X241855Y130634D01*
X241069Y131237D01*
X240155Y131616D01*
X239173Y131745D01*
X238922Y131712D01*
X238899Y131887D01*
X238521Y132802D01*
X237918Y133587D01*
X237132Y134190D01*
X236218Y134569D01*
X236043Y134592D01*
X236076Y134843D01*
X235947Y135824D01*
X235568Y136739D01*
X234965Y137524D01*
X234180Y138127D01*
X233265Y138506D01*
X232283Y138635D01*
D02*
G37*
G36*
X159449Y140603D02*
X158467Y140474D01*
X157553Y140095D01*
X156767Y139493D01*
X156165Y138707D01*
X155786Y137793D01*
X155657Y136811D01*
X155786Y135830D01*
X156165Y134915D01*
X156767Y134130D01*
X157553Y133527D01*
X158467Y133148D01*
X158633Y133126D01*
Y132622D01*
X158467Y132600D01*
X157553Y132221D01*
X156767Y131619D01*
X156165Y130833D01*
X155786Y129919D01*
X155657Y128937D01*
X155786Y127955D01*
X156165Y127041D01*
X156767Y126256D01*
X157553Y125653D01*
X158467Y125274D01*
X159449Y125145D01*
X160430Y125274D01*
X161345Y125653D01*
X162130Y126256D01*
X162733Y127041D01*
X163112Y127955D01*
X163241Y128937D01*
X163112Y129919D01*
X162733Y130833D01*
X162130Y131619D01*
X161345Y132221D01*
X160430Y132600D01*
X160265Y132622D01*
Y133126D01*
X160430Y133148D01*
X161345Y133527D01*
X162130Y134130D01*
X162733Y134915D01*
X163112Y135830D01*
X163241Y136811D01*
X163112Y137793D01*
X162733Y138707D01*
X162130Y139493D01*
X161345Y140095D01*
X160430Y140474D01*
X159449Y140603D01*
D02*
G37*
G36*
X131406Y120860D02*
Y118610D01*
X133655D01*
X133625Y118839D01*
X133344Y119518D01*
X132896Y120101D01*
X132313Y120548D01*
X131634Y120830D01*
X131406Y120860D01*
D02*
G37*
G36*
X133655Y117610D02*
X131406D01*
Y115361D01*
X131634Y115391D01*
X132313Y115672D01*
X132896Y116120D01*
X133344Y116703D01*
X133625Y117382D01*
X133655Y117610D01*
D02*
G37*
G36*
X130406Y120860D02*
X130177Y120830D01*
X129498Y120548D01*
X128915Y120101D01*
X128467Y119518D01*
X128186Y118839D01*
X128156Y118610D01*
X130406D01*
Y120860D01*
D02*
G37*
G36*
X125000Y87454D02*
X124019Y87325D01*
X123104Y86946D01*
X122318Y86343D01*
X121716Y85558D01*
X121337Y84643D01*
X121208Y83662D01*
X121337Y82680D01*
X121716Y81765D01*
X122318Y80980D01*
X123104Y80377D01*
X124019Y79998D01*
X125000Y79869D01*
X125981Y79998D01*
X126896Y80377D01*
X127682Y80980D01*
X128284Y81765D01*
X128663Y82680D01*
X128792Y83662D01*
X128663Y84643D01*
X128284Y85558D01*
X127682Y86343D01*
X126896Y86946D01*
X125981Y87325D01*
X125000Y87454D01*
D02*
G37*
G36*
X72335Y84443D02*
X72106Y84412D01*
X71427Y84131D01*
X70844Y83684D01*
X70397Y83101D01*
X70115Y82422D01*
X70085Y82193D01*
X72335D01*
Y84443D01*
D02*
G37*
G36*
X75584Y81193D02*
X73335D01*
Y78943D01*
X73563Y78974D01*
X74242Y79255D01*
X74826Y79702D01*
X75273Y80285D01*
X75554Y80964D01*
X75584Y81193D01*
D02*
G37*
G36*
X159449Y85485D02*
X158467Y85356D01*
X157553Y84977D01*
X156767Y84374D01*
X156165Y83589D01*
X155786Y82674D01*
X155657Y81693D01*
X155786Y80712D01*
X156165Y79797D01*
X156767Y79011D01*
X157553Y78409D01*
X158467Y78030D01*
X159449Y77901D01*
X160430Y78030D01*
X161345Y78409D01*
X162130Y79011D01*
X162733Y79797D01*
X163112Y80712D01*
X163241Y81693D01*
X163112Y82674D01*
X162733Y83589D01*
X162130Y84374D01*
X161345Y84977D01*
X160430Y85356D01*
X159449Y85485D01*
D02*
G37*
G36*
X72335Y81193D02*
X70085D01*
X70115Y80964D01*
X70397Y80285D01*
X70844Y79702D01*
X71427Y79255D01*
X72106Y78974D01*
X72335Y78943D01*
Y81193D01*
D02*
G37*
G36*
X73335Y84443D02*
Y82193D01*
X75584D01*
X75554Y82422D01*
X75273Y83101D01*
X74826Y83684D01*
X74242Y84131D01*
X73563Y84412D01*
X73335Y84443D01*
D02*
G37*
G36*
X158465Y114029D02*
X157483Y113899D01*
X156569Y113521D01*
X155783Y112918D01*
X155180Y112132D01*
X154801Y111218D01*
X154672Y110236D01*
X154801Y109255D01*
X155180Y108340D01*
X155783Y107555D01*
X156569Y106952D01*
X157483Y106573D01*
X158465Y106444D01*
X159446Y106573D01*
X160361Y106952D01*
X161146Y107555D01*
X161749Y108340D01*
X162128Y109255D01*
X162257Y110236D01*
X162128Y111218D01*
X161749Y112132D01*
X161146Y112918D01*
X160361Y113521D01*
X159446Y113899D01*
X158465Y114029D01*
D02*
G37*
G36*
X193898D02*
X192916Y113899D01*
X192001Y113521D01*
X191216Y112918D01*
X190613Y112132D01*
X190235Y111218D01*
X190105Y110236D01*
X190235Y109255D01*
X190613Y108340D01*
X191216Y107555D01*
X192001Y106952D01*
X192916Y106573D01*
X193898Y106444D01*
X194879Y106573D01*
X195794Y106952D01*
X196579Y107555D01*
X197182Y108340D01*
X197561Y109255D01*
X197690Y110236D01*
X197561Y111218D01*
X197182Y112132D01*
X196579Y112918D01*
X195794Y113521D01*
X194879Y113899D01*
X193898Y114029D01*
D02*
G37*
G36*
X234252Y106155D02*
X233271Y106025D01*
X232356Y105647D01*
X231571Y105044D01*
X230968Y104258D01*
X230589Y103344D01*
X230460Y102362D01*
X230589Y101381D01*
X230968Y100466D01*
X231571Y99681D01*
X232356Y99078D01*
X233271Y98699D01*
X234252Y98570D01*
X235233Y98699D01*
X236148Y99078D01*
X236934Y99681D01*
X237536Y100466D01*
X237915Y101381D01*
X238044Y102362D01*
X237915Y103344D01*
X237536Y104258D01*
X236934Y105044D01*
X236148Y105647D01*
X235233Y106025D01*
X234252Y106155D01*
D02*
G37*
G36*
X158465Y104186D02*
X157483Y104057D01*
X156569Y103678D01*
X155783Y103075D01*
X155180Y102290D01*
X154801Y101375D01*
X154672Y100394D01*
X154801Y99412D01*
X155180Y98498D01*
X155783Y97712D01*
X156569Y97110D01*
X157483Y96731D01*
X158465Y96601D01*
X159446Y96731D01*
X160361Y97110D01*
X161146Y97712D01*
X161749Y98498D01*
X162128Y99412D01*
X162257Y100394D01*
X162128Y101375D01*
X161749Y102290D01*
X161146Y103075D01*
X160361Y103678D01*
X159446Y104057D01*
X158465Y104186D01*
D02*
G37*
G36*
X193898D02*
X192916Y104057D01*
X192001Y103678D01*
X191216Y103075D01*
X190613Y102290D01*
X190235Y101375D01*
X190105Y100394D01*
X190235Y99412D01*
X190613Y98498D01*
X191216Y97712D01*
X192001Y97110D01*
X192916Y96731D01*
X193898Y96601D01*
X194879Y96731D01*
X195794Y97110D01*
X196579Y97712D01*
X197182Y98498D01*
X197561Y99412D01*
X197690Y100394D01*
X197561Y101375D01*
X197182Y102290D01*
X196579Y103075D01*
X195794Y103678D01*
X194879Y104057D01*
X193898Y104186D01*
D02*
G37*
G36*
X249016Y198674D02*
X248034Y198545D01*
X247120Y198166D01*
X246334Y197564D01*
X245732Y196778D01*
X245353Y195863D01*
X245223Y194882D01*
X245353Y193900D01*
X245732Y192986D01*
X246334Y192200D01*
X247120Y191598D01*
X248034Y191219D01*
X249016Y191090D01*
X249997Y191219D01*
X250912Y191598D01*
X251697Y192200D01*
X252300Y192986D01*
X252679Y193900D01*
X252808Y194882D01*
X252679Y195863D01*
X252300Y196778D01*
X251697Y197564D01*
X250912Y198166D01*
X249997Y198545D01*
X249016Y198674D01*
D02*
G37*
G36*
X291839Y289167D02*
Y286917D01*
X294088D01*
X294058Y287146D01*
X293777Y287825D01*
X293329Y288408D01*
X292746Y288856D01*
X292067Y289137D01*
X291839Y289167D01*
D02*
G37*
G36*
X75287Y289854D02*
X73038D01*
X73068Y289626D01*
X73349Y288947D01*
X73797Y288364D01*
X74380Y287916D01*
X75059Y287635D01*
X75287Y287605D01*
Y289854D01*
D02*
G37*
G36*
X280996Y289167D02*
X280767Y289137D01*
X280088Y288856D01*
X279505Y288408D01*
X279058Y287825D01*
X278777Y287146D01*
X278747Y286917D01*
X280996D01*
Y289167D01*
D02*
G37*
G36*
Y285917D02*
X278747D01*
X278777Y285689D01*
X279058Y285010D01*
X279505Y284427D01*
X280088Y283979D01*
X280767Y283698D01*
X280996Y283668D01*
Y285917D01*
D02*
G37*
G36*
X294088D02*
X291839D01*
Y283668D01*
X292067Y283698D01*
X292746Y283979D01*
X293329Y284427D01*
X293777Y285010D01*
X294058Y285689D01*
X294088Y285917D01*
D02*
G37*
G36*
X285917Y289167D02*
X285689Y289137D01*
X285010Y288856D01*
X284427Y288408D01*
X284272Y288207D01*
X283642D01*
X283487Y288408D01*
X282904Y288856D01*
X282225Y289137D01*
X281996Y289167D01*
Y286417D01*
Y283668D01*
X282225Y283698D01*
X282904Y283979D01*
X283487Y284427D01*
X283642Y284628D01*
X284272D01*
X284427Y284427D01*
X285010Y283979D01*
X285689Y283698D01*
X285917Y283668D01*
Y286417D01*
Y289167D01*
D02*
G37*
G36*
X290839D02*
X290610Y289137D01*
X289931Y288856D01*
X289348Y288408D01*
X289193Y288207D01*
X288563D01*
X288408Y288408D01*
X287825Y288856D01*
X287146Y289137D01*
X286917Y289167D01*
Y286417D01*
Y283668D01*
X287146Y283698D01*
X287825Y283979D01*
X288408Y284427D01*
X288563Y284628D01*
X289193D01*
X289348Y284427D01*
X289931Y283979D01*
X290610Y283698D01*
X290839Y283668D01*
Y286417D01*
Y289167D01*
D02*
G37*
G36*
X113970Y289854D02*
X111721D01*
Y287605D01*
X111949Y287635D01*
X112628Y287916D01*
X113211Y288364D01*
X113659Y288947D01*
X113940Y289626D01*
X113970Y289854D01*
D02*
G37*
G36*
X84443Y289854D02*
X82193D01*
Y287605D01*
X82422Y287635D01*
X83101Y287916D01*
X83684Y288364D01*
X84131Y288947D01*
X84412Y289626D01*
X84443Y289854D01*
D02*
G37*
G36*
X104815D02*
X102565D01*
X102595Y289626D01*
X102877Y288947D01*
X103324Y288364D01*
X103907Y287916D01*
X104586Y287635D01*
X104815Y287605D01*
Y289854D01*
D02*
G37*
G36*
X119095Y281942D02*
X118113Y281813D01*
X117198Y281434D01*
X116413Y280831D01*
X115810Y280046D01*
X115431Y279131D01*
X115410Y278966D01*
X114905D01*
X114884Y279131D01*
X114505Y280046D01*
X113902Y280831D01*
X113117Y281434D01*
X112202Y281813D01*
X111221Y281942D01*
X110239Y281813D01*
X109324Y281434D01*
X108539Y280831D01*
X107936Y280046D01*
X107783Y279677D01*
X107557Y279131D01*
X107428Y278150D01*
X107557Y277168D01*
X107803Y276575D01*
X107936Y276254D01*
X108539Y275468D01*
X109324Y274866D01*
X110239Y274487D01*
X111221Y274357D01*
X112202Y274487D01*
X113117Y274866D01*
X113902Y275468D01*
X114505Y276254D01*
X114884Y277168D01*
X114905Y277334D01*
X115410D01*
X115431Y277168D01*
X115810Y276254D01*
X116413Y275468D01*
X117198Y274866D01*
X118113Y274487D01*
X119095Y274357D01*
X120076Y274487D01*
X120991Y274866D01*
X121776Y275468D01*
X122379Y276254D01*
X122758Y277168D01*
X122887Y278150D01*
X122758Y279131D01*
X122379Y280046D01*
X121776Y280831D01*
X120991Y281434D01*
X120076Y281813D01*
X119095Y281942D01*
D02*
G37*
G36*
X233268Y275446D02*
X232286Y275317D01*
X231372Y274938D01*
X230586Y274335D01*
X229984Y273550D01*
X229605Y272635D01*
X229583Y272470D01*
X229079D01*
X229057Y272635D01*
X228678Y273550D01*
X228075Y274335D01*
X227290Y274938D01*
X226375Y275317D01*
X225394Y275446D01*
X224412Y275317D01*
X223498Y274938D01*
X222712Y274335D01*
X222110Y273550D01*
X221731Y272635D01*
X221602Y271654D01*
X221731Y270672D01*
X222110Y269758D01*
X222712Y268972D01*
X223498Y268369D01*
X224412Y267991D01*
X225394Y267861D01*
X226375Y267991D01*
X227290Y268369D01*
X228075Y268972D01*
X228678Y269758D01*
X229057Y270672D01*
X229079Y270838D01*
X229583D01*
X229605Y270672D01*
X229984Y269758D01*
X230586Y268972D01*
X231372Y268369D01*
X232286Y267991D01*
X233268Y267861D01*
X234249Y267991D01*
X235164Y268369D01*
X235949Y268972D01*
X236552Y269758D01*
X236931Y270672D01*
X237060Y271654D01*
X236931Y272635D01*
X236552Y273550D01*
X235949Y274335D01*
X235164Y274938D01*
X234249Y275317D01*
X233268Y275446D01*
D02*
G37*
G36*
X310197Y276617D02*
X308912Y276448D01*
X307715Y275952D01*
X306687Y275164D01*
X305898Y274135D01*
X305618Y273459D01*
X305118Y273559D01*
Y276575D01*
X295276D01*
Y266732D01*
X298292D01*
X298391Y266232D01*
X297715Y265952D01*
X296687Y265163D01*
X295898Y264136D01*
X295402Y262938D01*
X295233Y261654D01*
X295402Y260369D01*
X295898Y259172D01*
X296687Y258144D01*
X297715Y257355D01*
X298789Y256910D01*
X298789Y256909D01*
Y256398D01*
X298789Y256397D01*
X297715Y255952D01*
X296687Y255164D01*
X295898Y254135D01*
X295402Y252938D01*
X295233Y251654D01*
X295402Y250369D01*
X295898Y249172D01*
X296687Y248144D01*
X297715Y247355D01*
X298789Y246910D01*
X298789Y246909D01*
Y246398D01*
X298789Y246397D01*
X297715Y245952D01*
X296687Y245163D01*
X295898Y244135D01*
X295402Y242938D01*
X295233Y241654D01*
X295402Y240369D01*
X295898Y239172D01*
X296687Y238144D01*
X297715Y237355D01*
X298789Y236910D01*
X298789Y236909D01*
Y236398D01*
X298789Y236397D01*
X297715Y235952D01*
X296687Y235163D01*
X295898Y234136D01*
X295402Y232938D01*
X295233Y231654D01*
X295402Y230369D01*
X295898Y229172D01*
X296687Y228144D01*
X297715Y227355D01*
X298789Y226910D01*
X298789Y226909D01*
Y226398D01*
X298789Y226397D01*
X297715Y225952D01*
X296687Y225164D01*
X295898Y224135D01*
X295402Y222938D01*
X295233Y221654D01*
X295402Y220369D01*
X295898Y219172D01*
X296687Y218144D01*
X297715Y217355D01*
X298789Y216910D01*
X298789Y216909D01*
Y216398D01*
X298789Y216397D01*
X297715Y215952D01*
X296687Y215163D01*
X295898Y214136D01*
X295402Y212938D01*
X295233Y211654D01*
X295402Y210369D01*
X295898Y209172D01*
X296687Y208144D01*
X297715Y207355D01*
X298789Y206910D01*
X298789Y206909D01*
Y206398D01*
X298789Y206397D01*
X297715Y205952D01*
X296687Y205164D01*
X295898Y204135D01*
X295402Y202938D01*
X295233Y201654D01*
X295402Y200369D01*
X295898Y199172D01*
X296687Y198144D01*
X297715Y197355D01*
X298789Y196910D01*
X298789Y196909D01*
Y196398D01*
X298789Y196397D01*
X297715Y195952D01*
X296687Y195164D01*
X295898Y194135D01*
X295402Y192938D01*
X295233Y191654D01*
X295402Y190369D01*
X295898Y189172D01*
X296687Y188144D01*
X297715Y187355D01*
X298789Y186910D01*
X298789Y186909D01*
Y186398D01*
X298789Y186397D01*
X297715Y185952D01*
X296687Y185163D01*
X295898Y184135D01*
X295402Y182938D01*
X295233Y181654D01*
X295402Y180369D01*
X295898Y179172D01*
X296687Y178144D01*
X297715Y177355D01*
X298789Y176910D01*
X298789Y176909D01*
Y176398D01*
X298789Y176397D01*
X297715Y175952D01*
X296687Y175163D01*
X295898Y174135D01*
X295402Y172938D01*
X295233Y171654D01*
X295402Y170369D01*
X295898Y169172D01*
X296687Y168144D01*
X297715Y167355D01*
X298789Y166910D01*
X298789Y166909D01*
Y166398D01*
X298789Y166397D01*
X297715Y165952D01*
X296687Y165164D01*
X295898Y164136D01*
X295402Y162938D01*
X295233Y161654D01*
X295402Y160369D01*
X295898Y159172D01*
X296687Y158144D01*
X297715Y157355D01*
X298789Y156910D01*
X298789Y156909D01*
Y156398D01*
X298789Y156397D01*
X297715Y155952D01*
X296687Y155164D01*
X295898Y154136D01*
X295402Y152938D01*
X295233Y151654D01*
X295402Y150369D01*
X295898Y149172D01*
X296687Y148144D01*
X297715Y147355D01*
X298912Y146859D01*
X300197Y146690D01*
X301482Y146859D01*
X302679Y147355D01*
X303707Y148144D01*
X304496Y149172D01*
X304940Y150245D01*
X304941Y150245D01*
X305453D01*
X305453Y150245D01*
X305898Y149172D01*
X306687Y148144D01*
X307715Y147355D01*
X308912Y146859D01*
X310197Y146690D01*
X311482Y146859D01*
X312679Y147355D01*
X313707Y148144D01*
X314496Y149172D01*
X314991Y150369D01*
X315161Y151654D01*
X314991Y152938D01*
X314496Y154136D01*
X313707Y155164D01*
X312679Y155952D01*
X311605Y156397D01*
X311605Y156398D01*
Y156909D01*
X311605Y156910D01*
X312679Y157355D01*
X313707Y158144D01*
X314496Y159172D01*
X314991Y160369D01*
X315161Y161654D01*
X314991Y162938D01*
X314496Y164136D01*
X313707Y165164D01*
X312679Y165952D01*
X311605Y166397D01*
X311605Y166398D01*
Y166909D01*
X311605Y166910D01*
X312679Y167355D01*
X313707Y168144D01*
X314496Y169172D01*
X314991Y170369D01*
X315161Y171654D01*
X314991Y172938D01*
X314496Y174135D01*
X313707Y175163D01*
X312679Y175952D01*
X311605Y176397D01*
X311605Y176398D01*
Y176909D01*
X311605Y176910D01*
X312679Y177355D01*
X313707Y178144D01*
X314496Y179172D01*
X314991Y180369D01*
X315161Y181654D01*
X314991Y182938D01*
X314496Y184135D01*
X313707Y185163D01*
X312679Y185952D01*
X311605Y186397D01*
X311605Y186398D01*
Y186909D01*
X311605Y186910D01*
X312679Y187355D01*
X313707Y188144D01*
X314496Y189172D01*
X314991Y190369D01*
X315161Y191654D01*
X314991Y192938D01*
X314496Y194135D01*
X313707Y195164D01*
X312679Y195952D01*
X311605Y196397D01*
X311605Y196398D01*
Y196909D01*
X311605Y196910D01*
X312679Y197355D01*
X313707Y198144D01*
X314496Y199172D01*
X314991Y200369D01*
X315161Y201654D01*
X314991Y202938D01*
X314496Y204135D01*
X313707Y205164D01*
X312679Y205952D01*
X311605Y206397D01*
X311605Y206398D01*
Y206909D01*
X311605Y206910D01*
X312679Y207355D01*
X313707Y208144D01*
X314496Y209172D01*
X314991Y210369D01*
X315161Y211654D01*
X314991Y212938D01*
X314496Y214136D01*
X313707Y215163D01*
X312679Y215952D01*
X311605Y216397D01*
X311605Y216398D01*
Y216909D01*
X311605Y216910D01*
X312679Y217355D01*
X313707Y218144D01*
X314496Y219172D01*
X314991Y220369D01*
X315161Y221654D01*
X314991Y222938D01*
X314496Y224135D01*
X313707Y225164D01*
X312679Y225952D01*
X311605Y226397D01*
X311605Y226398D01*
Y226909D01*
X311605Y226910D01*
X312679Y227355D01*
X313707Y228144D01*
X314496Y229172D01*
X314991Y230369D01*
X315161Y231654D01*
X314991Y232938D01*
X314496Y234136D01*
X313707Y235163D01*
X312679Y235952D01*
X311605Y236397D01*
X311605Y236398D01*
Y236909D01*
X311605Y236910D01*
X312679Y237355D01*
X313707Y238144D01*
X314496Y239172D01*
X314991Y240369D01*
X315161Y241654D01*
X314991Y242938D01*
X314496Y244135D01*
X313707Y245163D01*
X312679Y245952D01*
X311605Y246397D01*
X311605Y246398D01*
Y246909D01*
X311605Y246910D01*
X312679Y247355D01*
X313707Y248144D01*
X314496Y249172D01*
X314991Y250369D01*
X315161Y251654D01*
X314991Y252938D01*
X314496Y254135D01*
X313707Y255164D01*
X312679Y255952D01*
X311605Y256397D01*
X311605Y256398D01*
Y256909D01*
X311605Y256910D01*
X312679Y257355D01*
X313707Y258144D01*
X314496Y259172D01*
X314991Y260369D01*
X315161Y261654D01*
X314991Y262938D01*
X314496Y264136D01*
X313707Y265163D01*
X312679Y265952D01*
X311605Y266397D01*
X311605Y266398D01*
Y266909D01*
X311605Y266910D01*
X312679Y267355D01*
X313707Y268144D01*
X314496Y269172D01*
X314991Y270369D01*
X315161Y271654D01*
X314991Y272938D01*
X314496Y274135D01*
X313707Y275164D01*
X312679Y275952D01*
X311482Y276448D01*
X310197Y276617D01*
D02*
G37*
G36*
X102362Y278005D02*
X101381Y277876D01*
X100466Y277497D01*
X99681Y276894D01*
X99078Y276109D01*
X98699Y275194D01*
X98570Y274213D01*
X98699Y273231D01*
X99078Y272317D01*
X99681Y271531D01*
X100466Y270928D01*
X101381Y270550D01*
X102362Y270420D01*
X103344Y270550D01*
X104258Y270928D01*
X105044Y271531D01*
X105647Y272317D01*
X106025Y273231D01*
X106155Y274213D01*
X106025Y275194D01*
X105647Y276109D01*
X105044Y276894D01*
X104258Y277497D01*
X103344Y277876D01*
X102362Y278005D01*
D02*
G37*
G36*
X96957Y264167D02*
Y261917D01*
X99206D01*
X99176Y262146D01*
X98895Y262825D01*
X98448Y263408D01*
X97864Y263856D01*
X97185Y264137D01*
X96957Y264167D01*
D02*
G37*
G36*
X214567Y269540D02*
X213585Y269411D01*
X212671Y269032D01*
X211885Y268430D01*
X211283Y267644D01*
X210904Y266730D01*
X210882Y266564D01*
X210378D01*
X210356Y266730D01*
X209977Y267644D01*
X209374Y268430D01*
X208589Y269032D01*
X207675Y269411D01*
X206693Y269540D01*
X205712Y269411D01*
X204797Y269032D01*
X204011Y268430D01*
X203409Y267644D01*
X203030Y266730D01*
X202901Y265748D01*
X203030Y264767D01*
X203409Y263852D01*
X204011Y263067D01*
X204797Y262464D01*
X205712Y262085D01*
X206693Y261956D01*
X207675Y262085D01*
X208589Y262464D01*
X209374Y263067D01*
X209977Y263852D01*
X210356Y264767D01*
X210378Y264932D01*
X210882D01*
X210904Y264767D01*
X211283Y263852D01*
X211885Y263067D01*
X212671Y262464D01*
X213585Y262085D01*
X214567Y261956D01*
X215548Y262085D01*
X216463Y262464D01*
X217249Y263067D01*
X217851Y263852D01*
X218230Y264767D01*
X218359Y265748D01*
X218230Y266730D01*
X217851Y267644D01*
X217249Y268430D01*
X216463Y269032D01*
X215548Y269411D01*
X214567Y269540D01*
D02*
G37*
G36*
X126469Y280899D02*
X126240Y280869D01*
X125561Y280588D01*
X124978Y280140D01*
X124530Y279557D01*
X124249Y278878D01*
X124219Y278650D01*
X126469D01*
Y280899D01*
D02*
G37*
G36*
X127469D02*
Y278650D01*
X129718D01*
X129688Y278878D01*
X129407Y279557D01*
X128959Y280140D01*
X128376Y280588D01*
X127697Y280869D01*
X127469Y280899D01*
D02*
G37*
G36*
X129718Y277650D02*
X127469D01*
Y275400D01*
X127697Y275430D01*
X128376Y275711D01*
X128959Y276159D01*
X129407Y276742D01*
X129688Y277421D01*
X129718Y277650D01*
D02*
G37*
G36*
X178150Y282336D02*
X177168Y282206D01*
X176253Y281828D01*
X175468Y281225D01*
X174865Y280439D01*
X174487Y279525D01*
X174357Y278543D01*
X174487Y277562D01*
X174865Y276647D01*
X175468Y275862D01*
X176253Y275259D01*
X177168Y274880D01*
X178150Y274751D01*
X179131Y274880D01*
X180046Y275259D01*
X180831Y275862D01*
X181434Y276647D01*
X181813Y277562D01*
X181942Y278543D01*
X181813Y279525D01*
X181434Y280439D01*
X180831Y281225D01*
X180046Y281828D01*
X179131Y282206D01*
X178150Y282336D01*
D02*
G37*
G36*
X126469Y277650D02*
X124219D01*
X124249Y277421D01*
X124530Y276742D01*
X124978Y276159D01*
X125561Y275711D01*
X126240Y275430D01*
X126469Y275400D01*
Y277650D01*
D02*
G37*
G36*
X150591Y298084D02*
X149609Y297955D01*
X148695Y297576D01*
X147909Y296973D01*
X147306Y296188D01*
X146927Y295273D01*
X146798Y294291D01*
X146927Y293310D01*
X147306Y292395D01*
X147909Y291610D01*
X148695Y291007D01*
X149609Y290628D01*
X150591Y290499D01*
X151572Y290628D01*
X152487Y291007D01*
X153272Y291610D01*
X153875Y292395D01*
X154254Y293310D01*
X154276Y293475D01*
X154780D01*
X154802Y293310D01*
X155180Y292395D01*
X155783Y291610D01*
X156569Y291007D01*
X157483Y290628D01*
X158465Y290499D01*
X159446Y290628D01*
X160361Y291007D01*
X161146Y291610D01*
X161749Y292395D01*
X162128Y293310D01*
X162257Y294291D01*
X162128Y295273D01*
X161749Y296187D01*
X161146Y296973D01*
X160361Y297576D01*
X159446Y297954D01*
X158465Y298084D01*
X157483Y297954D01*
X156569Y297576D01*
X155783Y296973D01*
X155180Y296187D01*
X154802Y295273D01*
X154780Y295107D01*
X154276D01*
X154254Y295273D01*
X153875Y296188D01*
X153272Y296973D01*
X152487Y297576D01*
X151572Y297955D01*
X150591Y298084D01*
D02*
G37*
G36*
X196850Y298084D02*
X195869Y297954D01*
X194954Y297576D01*
X194169Y296973D01*
X193566Y296187D01*
X193187Y295273D01*
X193166Y295107D01*
X192661D01*
X192640Y295273D01*
X192261Y296187D01*
X191658Y296973D01*
X190873Y297576D01*
X189958Y297954D01*
X188976Y298084D01*
X187995Y297954D01*
X187080Y297576D01*
X186295Y296973D01*
X185692Y296187D01*
X185313Y295273D01*
X185184Y294291D01*
X185313Y293310D01*
X185692Y292395D01*
X186295Y291610D01*
X187080Y291007D01*
X187995Y290628D01*
X188976Y290499D01*
X189958Y290628D01*
X190873Y291007D01*
X191658Y291610D01*
X192261Y292395D01*
X192640Y293310D01*
X192661Y293475D01*
X193166D01*
X193187Y293310D01*
X193566Y292395D01*
X194169Y291610D01*
X194954Y291007D01*
X195869Y290628D01*
X196850Y290499D01*
X197832Y290628D01*
X198747Y291007D01*
X199532Y291610D01*
X200135Y292395D01*
X200514Y293310D01*
X200643Y294291D01*
X200514Y295273D01*
X200135Y296187D01*
X199532Y296973D01*
X198747Y297576D01*
X197832Y297954D01*
X196850Y298084D01*
D02*
G37*
G36*
X67913Y315800D02*
X66932Y315671D01*
X66017Y315292D01*
X65232Y314689D01*
X64629Y313904D01*
X64250Y312989D01*
X64121Y312008D01*
X64250Y311027D01*
X64629Y310112D01*
X65232Y309326D01*
X66017Y308724D01*
X66932Y308345D01*
X67913Y308216D01*
X68895Y308345D01*
X69810Y308724D01*
X70595Y309326D01*
X71198Y310112D01*
X71576Y311027D01*
X71706Y312008D01*
X71576Y312989D01*
X71198Y313904D01*
X70595Y314689D01*
X69810Y315292D01*
X68895Y315671D01*
X67913Y315800D01*
D02*
G37*
G36*
X119595Y297041D02*
Y294791D01*
X121844D01*
X121814Y295020D01*
X121533Y295699D01*
X121085Y296282D01*
X120502Y296730D01*
X119823Y297011D01*
X119595Y297041D01*
D02*
G37*
G36*
X68413D02*
Y294791D01*
X70663D01*
X70633Y295020D01*
X70352Y295699D01*
X69904Y296282D01*
X69321Y296730D01*
X68642Y297011D01*
X68413Y297041D01*
D02*
G37*
G36*
X118595D02*
X118366Y297011D01*
X117687Y296730D01*
X117104Y296282D01*
X116656Y295699D01*
X116375Y295020D01*
X116345Y294791D01*
X118595D01*
Y297041D01*
D02*
G37*
G36*
X81693Y319737D02*
X80712Y319608D01*
X79797Y319229D01*
X79067Y318669D01*
X78862Y318599D01*
X78618D01*
X78414Y318669D01*
X77684Y319229D01*
X76769Y319608D01*
X75788Y319737D01*
X74806Y319608D01*
X73891Y319229D01*
X73106Y318626D01*
X72503Y317841D01*
X72124Y316927D01*
X71995Y315945D01*
X72124Y314964D01*
X72503Y314049D01*
X73106Y313263D01*
X73891Y312661D01*
X74806Y312282D01*
X75788Y312153D01*
X76769Y312282D01*
X77684Y312661D01*
X78414Y313221D01*
X78618Y313291D01*
X78862D01*
X79067Y313221D01*
X79797Y312661D01*
X80712Y312282D01*
X81693Y312153D01*
X82674Y312282D01*
X83589Y312661D01*
X84374Y313263D01*
X84977Y314049D01*
X85356Y314964D01*
X85485Y315945D01*
X85356Y316927D01*
X84977Y317841D01*
X84374Y318626D01*
X83589Y319229D01*
X82674Y319608D01*
X81693Y319737D01*
D02*
G37*
G36*
X111221D02*
X110239Y319608D01*
X109324Y319229D01*
X108594Y318669D01*
X108390Y318599D01*
X108146D01*
X107941Y318669D01*
X107211Y319229D01*
X106297Y319608D01*
X105315Y319737D01*
X104333Y319608D01*
X103419Y319229D01*
X102633Y318626D01*
X102031Y317841D01*
X101652Y316927D01*
X101523Y315945D01*
X101652Y314964D01*
X102031Y314049D01*
X102633Y313263D01*
X103419Y312661D01*
X104333Y312282D01*
X105315Y312153D01*
X106297Y312282D01*
X107211Y312661D01*
X107941Y313221D01*
X108146Y313291D01*
X108390D01*
X108594Y313221D01*
X109324Y312661D01*
X110239Y312282D01*
X111221Y312153D01*
X112202Y312282D01*
X113117Y312661D01*
X113902Y313263D01*
X114505Y314049D01*
X114884Y314964D01*
X115013Y315945D01*
X114884Y316927D01*
X114505Y317841D01*
X113902Y318626D01*
X113117Y319229D01*
X112202Y319608D01*
X111221Y319737D01*
D02*
G37*
G36*
X158465Y316194D02*
X157483Y316065D01*
X156569Y315686D01*
X155783Y315083D01*
X155180Y314298D01*
X154801Y313383D01*
X154780Y313218D01*
X154275D01*
X154254Y313383D01*
X153875Y314298D01*
X153272Y315083D01*
X152487Y315686D01*
X151572Y316065D01*
X150591Y316194D01*
X149609Y316065D01*
X148695Y315686D01*
X147909Y315083D01*
X147306Y314298D01*
X146927Y313383D01*
X146798Y312402D01*
X146927Y311420D01*
X147306Y310506D01*
X147909Y309720D01*
X148695Y309117D01*
X149609Y308739D01*
X150591Y308609D01*
X151572Y308739D01*
X152487Y309117D01*
X153272Y309720D01*
X153875Y310506D01*
X154254Y311420D01*
X154275Y311586D01*
X154780D01*
X154801Y311420D01*
X155180Y310506D01*
X155783Y309720D01*
X156569Y309117D01*
X157483Y308739D01*
X158465Y308609D01*
X159446Y308739D01*
X160361Y309117D01*
X161146Y309720D01*
X161749Y310506D01*
X162128Y311420D01*
X162257Y312402D01*
X162128Y313383D01*
X161749Y314298D01*
X161146Y315083D01*
X160361Y315686D01*
X159446Y316065D01*
X158465Y316194D01*
D02*
G37*
G36*
X119095Y315800D02*
X118113Y315671D01*
X117198Y315292D01*
X116413Y314689D01*
X115810Y313904D01*
X115431Y312989D01*
X115302Y312008D01*
X115431Y311027D01*
X115810Y310112D01*
X116413Y309326D01*
X117198Y308724D01*
X118113Y308345D01*
X119095Y308216D01*
X120076Y308345D01*
X120991Y308724D01*
X121776Y309326D01*
X122379Y310112D01*
X122758Y311027D01*
X122887Y312008D01*
X122758Y312989D01*
X122379Y313904D01*
X121776Y314689D01*
X120991Y315292D01*
X120076Y315671D01*
X119095Y315800D01*
D02*
G37*
G36*
X196851Y315800D02*
X195869Y315671D01*
X194954Y315292D01*
X194169Y314689D01*
X193566Y313904D01*
X193187Y312989D01*
X193166Y312824D01*
X192661D01*
X192640Y312989D01*
X192261Y313904D01*
X191658Y314689D01*
X190873Y315292D01*
X189958Y315671D01*
X188976Y315800D01*
X187995Y315671D01*
X187080Y315292D01*
X186295Y314689D01*
X185692Y313904D01*
X185313Y312989D01*
X185184Y312008D01*
X185313Y311026D01*
X185692Y310112D01*
X186295Y309326D01*
X187080Y308724D01*
X187995Y308345D01*
X188976Y308216D01*
X189958Y308345D01*
X190873Y308724D01*
X191658Y309326D01*
X192261Y310112D01*
X192640Y311026D01*
X192661Y311192D01*
X193166D01*
X193187Y311026D01*
X193566Y310112D01*
X194169Y309326D01*
X194954Y308724D01*
X195869Y308345D01*
X196851Y308216D01*
X197832Y308345D01*
X198747Y308724D01*
X199532Y309326D01*
X200135Y310112D01*
X200514Y311026D01*
X200643Y312008D01*
X200514Y312989D01*
X200135Y313904D01*
X199532Y314689D01*
X198747Y315292D01*
X197832Y315671D01*
X196851Y315800D01*
D02*
G37*
G36*
X67413Y297041D02*
X67185Y297011D01*
X66506Y296730D01*
X65923Y296282D01*
X65475Y295699D01*
X65194Y295020D01*
X65164Y294791D01*
X67413D01*
Y297041D01*
D02*
G37*
G36*
X111721Y293104D02*
Y290854D01*
X113970D01*
X113940Y291083D01*
X113659Y291762D01*
X113211Y292345D01*
X112628Y292793D01*
X111949Y293074D01*
X111721Y293104D01*
D02*
G37*
G36*
X81193Y293104D02*
X80964Y293074D01*
X80285Y292793D01*
X79702Y292345D01*
X79255Y291762D01*
X79001Y291150D01*
X78740Y291096D01*
X78479Y291150D01*
X78226Y291762D01*
X77778Y292345D01*
X77195Y292793D01*
X76516Y293074D01*
X76288Y293104D01*
Y290354D01*
Y287605D01*
X76516Y287635D01*
X77195Y287916D01*
X77778Y288364D01*
X78226Y288947D01*
X78479Y289558D01*
X78740Y289613D01*
X79001Y289558D01*
X79255Y288947D01*
X79702Y288364D01*
X80285Y287916D01*
X80964Y287635D01*
X81193Y287605D01*
Y290354D01*
Y293104D01*
D02*
G37*
G36*
X104815D02*
X104586Y293074D01*
X103907Y292793D01*
X103324Y292345D01*
X102877Y291762D01*
X102595Y291083D01*
X102565Y290854D01*
X104815D01*
Y293104D01*
D02*
G37*
G36*
X75287D02*
X75059Y293074D01*
X74380Y292793D01*
X73797Y292345D01*
X73349Y291762D01*
X73068Y291083D01*
X73038Y290854D01*
X75287D01*
Y293104D01*
D02*
G37*
G36*
X82193D02*
Y290854D01*
X84443D01*
X84412Y291083D01*
X84131Y291762D01*
X83684Y292345D01*
X83101Y292793D01*
X82422Y293074D01*
X82193Y293104D01*
D02*
G37*
G36*
X118595Y293791D02*
X116345D01*
X116375Y293563D01*
X116656Y292884D01*
X117104Y292301D01*
X117687Y291853D01*
X118366Y291572D01*
X118595Y291542D01*
Y293791D01*
D02*
G37*
G36*
X121844D02*
X119595D01*
Y291542D01*
X119823Y291572D01*
X120502Y291853D01*
X121085Y292301D01*
X121533Y292884D01*
X121814Y293563D01*
X121844Y293791D01*
D02*
G37*
G36*
X70663D02*
X68413D01*
Y291542D01*
X68642Y291572D01*
X69321Y291853D01*
X69904Y292301D01*
X70352Y292884D01*
X70633Y293563D01*
X70663Y293791D01*
D02*
G37*
G36*
X110721Y293104D02*
X110492Y293074D01*
X109813Y292793D01*
X109230Y292345D01*
X108782Y291762D01*
X108529Y291151D01*
X108268Y291096D01*
X108007Y291151D01*
X107753Y291762D01*
X107306Y292345D01*
X106723Y292793D01*
X106044Y293074D01*
X105815Y293104D01*
Y290354D01*
Y287605D01*
X106044Y287635D01*
X106723Y287916D01*
X107306Y288364D01*
X107753Y288947D01*
X108007Y289558D01*
X108268Y289613D01*
X108529Y289558D01*
X108782Y288947D01*
X109230Y288364D01*
X109813Y287916D01*
X110492Y287635D01*
X110721Y287605D01*
Y290354D01*
Y293104D01*
D02*
G37*
G36*
X67413Y293791D02*
X65164D01*
X65194Y293563D01*
X65475Y292884D01*
X65923Y292301D01*
X66506Y291853D01*
X67185Y291572D01*
X67413Y291542D01*
Y293791D01*
D02*
G37*
G36*
X95957Y264167D02*
X95728Y264137D01*
X95049Y263856D01*
X94466Y263408D01*
X94019Y262825D01*
X93737Y262146D01*
X93707Y261917D01*
X95957D01*
Y264167D01*
D02*
G37*
G36*
X96957Y223813D02*
Y221563D01*
X99206D01*
X99176Y221792D01*
X98895Y222471D01*
X98448Y223054D01*
X97864Y223501D01*
X97185Y223782D01*
X96957Y223813D01*
D02*
G37*
G36*
X239173Y229186D02*
X238192Y229057D01*
X237277Y228678D01*
X236492Y228075D01*
X235889Y227290D01*
X235510Y226375D01*
X235381Y225394D01*
X235510Y224412D01*
X235889Y223498D01*
X236492Y222712D01*
X237277Y222110D01*
X238192Y221731D01*
X239173Y221602D01*
X240155Y221731D01*
X241069Y222110D01*
X241855Y222712D01*
X242458Y223498D01*
X242836Y224412D01*
X242966Y225394D01*
X242836Y226375D01*
X242458Y227290D01*
X241855Y228075D01*
X241069Y228678D01*
X240155Y229057D01*
X239173Y229186D01*
D02*
G37*
G36*
X95957Y223813D02*
X95728Y223782D01*
X95049Y223501D01*
X94466Y223054D01*
X94019Y222471D01*
X93737Y221792D01*
X93707Y221563D01*
X95957D01*
Y223813D01*
D02*
G37*
G36*
X37571Y222673D02*
X33744D01*
Y218847D01*
X37571D01*
Y222673D01*
D02*
G37*
G36*
X42398D02*
X38571D01*
Y218847D01*
X42398D01*
Y222673D01*
D02*
G37*
G36*
X139764Y235682D02*
X138782Y235553D01*
X137868Y235174D01*
X137082Y234571D01*
X136480Y233786D01*
X136101Y232871D01*
X135971Y231890D01*
X136101Y230908D01*
X136480Y229994D01*
X137082Y229208D01*
X137868Y228606D01*
X138782Y228227D01*
X139764Y228098D01*
X140745Y228227D01*
X141660Y228606D01*
X142445Y229208D01*
X143048Y229994D01*
X143427Y230908D01*
X143556Y231890D01*
X143427Y232871D01*
X143048Y233786D01*
X142445Y234571D01*
X141660Y235174D01*
X140745Y235553D01*
X139764Y235682D01*
D02*
G37*
G36*
X200287Y232080D02*
X200059Y232050D01*
X199380Y231769D01*
X198797Y231322D01*
X198349Y230738D01*
X198068Y230060D01*
X198038Y229831D01*
X200287D01*
Y232080D01*
D02*
G37*
G36*
X203537Y228831D02*
X201287D01*
Y226581D01*
X201516Y226611D01*
X202195Y226892D01*
X202778Y227340D01*
X203226Y227923D01*
X203507Y228602D01*
X203537Y228831D01*
D02*
G37*
G36*
X38071Y267309D02*
X36689Y267127D01*
X35400Y266594D01*
X34294Y265745D01*
X33446Y264639D01*
X32912Y263351D01*
X32730Y261968D01*
X32912Y260586D01*
X33446Y259298D01*
X34294Y258192D01*
X35400Y257343D01*
X36689Y256809D01*
X37005Y256768D01*
Y256264D01*
X36689Y256222D01*
X35400Y255688D01*
X34294Y254840D01*
X33446Y253733D01*
X32912Y252445D01*
X32730Y251063D01*
X32912Y249681D01*
X33446Y248393D01*
X34294Y247286D01*
X35400Y246438D01*
X36689Y245904D01*
X37005Y245862D01*
Y245358D01*
X36689Y245316D01*
X35400Y244783D01*
X34294Y243934D01*
X33446Y242828D01*
X32912Y241540D01*
X32730Y240158D01*
X32912Y238775D01*
X33446Y237487D01*
X34294Y236381D01*
X35400Y235532D01*
X36689Y234998D01*
X37005Y234957D01*
Y234453D01*
X36689Y234411D01*
X35400Y233877D01*
X34294Y233029D01*
X33446Y231922D01*
X32912Y230634D01*
X32730Y229252D01*
X32912Y227870D01*
X33446Y226582D01*
X34294Y225475D01*
X35400Y224626D01*
X36689Y224093D01*
X38071Y223911D01*
X39453Y224093D01*
X40741Y224626D01*
X41848Y225475D01*
X42696Y226582D01*
X43230Y227870D01*
X43412Y229252D01*
X43230Y230634D01*
X42696Y231922D01*
X41848Y233029D01*
X40741Y233877D01*
X39453Y234411D01*
X39137Y234453D01*
Y234957D01*
X39453Y234998D01*
X40741Y235532D01*
X41848Y236381D01*
X42696Y237487D01*
X43230Y238775D01*
X43412Y240158D01*
X43230Y241540D01*
X42696Y242828D01*
X41848Y243934D01*
X40741Y244783D01*
X39453Y245316D01*
X39137Y245358D01*
Y245862D01*
X39453Y245904D01*
X40741Y246438D01*
X41848Y247286D01*
X42696Y248393D01*
X43230Y249681D01*
X43412Y251063D01*
X43230Y252445D01*
X42696Y253733D01*
X41848Y254840D01*
X40741Y255688D01*
X39453Y256222D01*
X39137Y256264D01*
Y256768D01*
X39453Y256809D01*
X40741Y257343D01*
X41848Y258192D01*
X42696Y259298D01*
X43230Y260586D01*
X43412Y261968D01*
X43230Y263351D01*
X42696Y264639D01*
X41848Y265745D01*
X40741Y266594D01*
X39453Y267127D01*
X38071Y267309D01*
D02*
G37*
G36*
X200287Y228831D02*
X198038D01*
X198068Y228602D01*
X198349Y227923D01*
X198797Y227340D01*
X199380Y226892D01*
X200059Y226611D01*
X200287Y226581D01*
Y228831D01*
D02*
G37*
G36*
X26890Y261857D02*
X25507Y261675D01*
X24219Y261141D01*
X23113Y260292D01*
X22264Y259186D01*
X21731Y257898D01*
X21549Y256516D01*
X21731Y255133D01*
X22264Y253845D01*
X23113Y252739D01*
X24219Y251890D01*
X25507Y251357D01*
X25824Y251315D01*
Y250811D01*
X25507Y250769D01*
X24219Y250236D01*
X23113Y249387D01*
X22264Y248281D01*
X21731Y246993D01*
X21549Y245610D01*
X21731Y244228D01*
X22264Y242940D01*
X23113Y241834D01*
X24219Y240985D01*
X25507Y240451D01*
X25824Y240410D01*
Y239905D01*
X25507Y239864D01*
X24219Y239330D01*
X23113Y238481D01*
X22264Y237375D01*
X21731Y236087D01*
X21549Y234705D01*
X21731Y233322D01*
X22264Y232034D01*
X23113Y230928D01*
X24219Y230079D01*
X25507Y229546D01*
X25824Y229504D01*
Y229000D01*
X25507Y228958D01*
X24219Y228425D01*
X23113Y227576D01*
X22264Y226470D01*
X21731Y225182D01*
X21549Y223799D01*
X21731Y222417D01*
X22264Y221129D01*
X23113Y220023D01*
X24219Y219174D01*
X25507Y218640D01*
X26890Y218458D01*
X28272Y218640D01*
X29560Y219174D01*
X30666Y220023D01*
X31515Y221129D01*
X32049Y222417D01*
X32231Y223799D01*
X32049Y225182D01*
X31515Y226470D01*
X30666Y227576D01*
X29560Y228425D01*
X28272Y228958D01*
X27956Y229000D01*
Y229504D01*
X28272Y229546D01*
X29560Y230079D01*
X30666Y230928D01*
X31515Y232034D01*
X32049Y233322D01*
X32231Y234705D01*
X32049Y236087D01*
X31515Y237375D01*
X30666Y238481D01*
X29560Y239330D01*
X28272Y239864D01*
X27956Y239905D01*
Y240410D01*
X28272Y240451D01*
X29560Y240985D01*
X30666Y241834D01*
X31515Y242940D01*
X32049Y244228D01*
X32231Y245610D01*
X32049Y246993D01*
X31515Y248281D01*
X30666Y249387D01*
X29560Y250236D01*
X28272Y250769D01*
X27956Y250811D01*
Y251315D01*
X28272Y251357D01*
X29560Y251890D01*
X30666Y252739D01*
X31515Y253845D01*
X32049Y255133D01*
X32231Y256516D01*
X32049Y257898D01*
X31515Y259186D01*
X30666Y260292D01*
X29560Y261141D01*
X28272Y261675D01*
X26890Y261857D01*
D02*
G37*
G36*
X267232Y197632D02*
Y195382D01*
X269482D01*
X269452Y195611D01*
X269171Y196290D01*
X268723Y196873D01*
X268140Y197320D01*
X267461Y197601D01*
X267232Y197632D01*
D02*
G37*
G36*
X37571Y217846D02*
X33744D01*
Y214020D01*
X37571D01*
Y217846D01*
D02*
G37*
G36*
X266232Y197632D02*
X266004Y197601D01*
X265325Y197320D01*
X264741Y196873D01*
X264294Y196290D01*
X264013Y195611D01*
X263983Y195382D01*
X266232D01*
Y197632D01*
D02*
G37*
G36*
Y194382D02*
X263983D01*
X264013Y194153D01*
X264294Y193474D01*
X264741Y192891D01*
X265325Y192444D01*
X266004Y192162D01*
X266232Y192132D01*
Y194382D01*
D02*
G37*
G36*
X269482D02*
X267232D01*
Y192132D01*
X267461Y192162D01*
X268140Y192444D01*
X268723Y192891D01*
X269171Y193474D01*
X269452Y194153D01*
X269482Y194382D01*
D02*
G37*
G36*
X95957Y220563D02*
X93707D01*
X93737Y220334D01*
X94019Y219655D01*
X94466Y219072D01*
X95049Y218625D01*
X95728Y218344D01*
X95957Y218313D01*
Y220563D01*
D02*
G37*
G36*
X99206D02*
X96957D01*
Y218313D01*
X97185Y218344D01*
X97864Y218625D01*
X98448Y219072D01*
X98895Y219655D01*
X99176Y220334D01*
X99206Y220563D01*
D02*
G37*
G36*
X138780Y225249D02*
X137798Y225120D01*
X136883Y224741D01*
X136098Y224138D01*
X135495Y223353D01*
X135117Y222438D01*
X134987Y221457D01*
X135117Y220475D01*
X135495Y219561D01*
X136098Y218775D01*
X136883Y218173D01*
X137798Y217794D01*
X138780Y217665D01*
X139761Y217794D01*
X140676Y218173D01*
X141461Y218775D01*
X142064Y219561D01*
X142443Y220475D01*
X142572Y221457D01*
X142443Y222438D01*
X142064Y223353D01*
X141461Y224138D01*
X140676Y224741D01*
X139761Y225120D01*
X138780Y225249D01*
D02*
G37*
G36*
X42398Y217846D02*
X38571D01*
Y214020D01*
X42398D01*
Y217846D01*
D02*
G37*
G36*
X121063Y224855D02*
X120081Y224726D01*
X119167Y224347D01*
X118382Y223745D01*
X117779Y222959D01*
X117400Y222045D01*
X117271Y221063D01*
X117400Y220082D01*
X117758Y219217D01*
X117779Y219167D01*
X118382Y218382D01*
X119167Y217779D01*
X120081Y217400D01*
X121063Y217271D01*
X122045Y217400D01*
X122959Y217779D01*
X123745Y218382D01*
X124347Y219167D01*
X124726Y220082D01*
X124855Y221063D01*
X124726Y222045D01*
X124347Y222959D01*
X123745Y223745D01*
X122959Y224347D01*
X122045Y224726D01*
X121063Y224855D01*
D02*
G37*
G36*
X201287Y232080D02*
Y229831D01*
X203537D01*
X203507Y230060D01*
X203226Y230738D01*
X202778Y231322D01*
X202195Y231769D01*
X201516Y232050D01*
X201287Y232080D01*
D02*
G37*
G36*
X121063Y266194D02*
X120081Y266065D01*
X119167Y265686D01*
X118382Y265083D01*
X117779Y264298D01*
X117400Y263383D01*
X117271Y262402D01*
X117400Y261420D01*
X117779Y260506D01*
X118382Y259720D01*
X119167Y259117D01*
X120081Y258739D01*
X121063Y258609D01*
X122045Y258739D01*
X122959Y259117D01*
X123745Y259720D01*
X124347Y260506D01*
X124726Y261420D01*
X124855Y262402D01*
X124726Y263383D01*
X124347Y264298D01*
X123745Y265083D01*
X122959Y265686D01*
X122045Y266065D01*
X121063Y266194D01*
D02*
G37*
G36*
X95957Y260917D02*
X93707D01*
X93737Y260689D01*
X94019Y260010D01*
X94466Y259427D01*
X95049Y258979D01*
X95728Y258698D01*
X95957Y258668D01*
Y260917D01*
D02*
G37*
G36*
X152356Y259343D02*
X150106D01*
Y257093D01*
X150335Y257123D01*
X151014Y257404D01*
X151597Y257852D01*
X152045Y258435D01*
X152326Y259114D01*
X152356Y259343D01*
D02*
G37*
G36*
X248031Y258714D02*
X247050Y258584D01*
X246135Y258206D01*
X245350Y257603D01*
X244747Y256817D01*
X244368Y255903D01*
X244239Y254921D01*
X244368Y253940D01*
X244747Y253025D01*
X245350Y252240D01*
X246135Y251637D01*
X247050Y251258D01*
X248031Y251129D01*
X249013Y251258D01*
X249928Y251637D01*
X250713Y252240D01*
X251316Y253025D01*
X251695Y253940D01*
X251824Y254921D01*
X251695Y255903D01*
X251316Y256817D01*
X250713Y257603D01*
X249928Y258206D01*
X249013Y258584D01*
X248031Y258714D01*
D02*
G37*
G36*
X149106Y259343D02*
X146857D01*
X146887Y259114D01*
X147168Y258435D01*
X147616Y257852D01*
X148199Y257404D01*
X148878Y257123D01*
X149106Y257093D01*
Y259343D01*
D02*
G37*
G36*
X86614Y280512D02*
X76772D01*
Y270669D01*
X79788D01*
X79887Y270169D01*
X79211Y269889D01*
X78183Y269100D01*
X77394Y268073D01*
X76898Y266875D01*
X76729Y265591D01*
X76898Y264306D01*
X77394Y263109D01*
X78183Y262081D01*
X79211Y261292D01*
X80408Y260796D01*
X81693Y260627D01*
X82978Y260796D01*
X84175Y261292D01*
X85203Y262081D01*
X85992Y263109D01*
X86488Y264306D01*
X86657Y265591D01*
X86488Y266875D01*
X85992Y268073D01*
X85203Y269100D01*
X84175Y269889D01*
X83499Y270169D01*
X83598Y270669D01*
X86614D01*
Y280512D01*
D02*
G37*
G36*
X65945Y280669D02*
X56102D01*
Y270827D01*
X59118D01*
X59218Y270327D01*
X58542Y270047D01*
X57514Y269258D01*
X56725Y268230D01*
X56229Y267033D01*
X56060Y265748D01*
X56229Y264463D01*
X56725Y263266D01*
X57514Y262238D01*
X58542Y261449D01*
X59739Y260953D01*
X61024Y260784D01*
X62308Y260953D01*
X63506Y261449D01*
X64534Y262238D01*
X65322Y263266D01*
X65818Y264463D01*
X65987Y265748D01*
X65818Y267033D01*
X65322Y268230D01*
X64534Y269258D01*
X63506Y270047D01*
X62830Y270327D01*
X62929Y270827D01*
X65945D01*
Y280669D01*
D02*
G37*
G36*
X150106Y262592D02*
Y260343D01*
X152356D01*
X152326Y260571D01*
X152045Y261250D01*
X151597Y261833D01*
X151014Y262281D01*
X150335Y262562D01*
X150106Y262592D01*
D02*
G37*
G36*
X99206Y260917D02*
X96957D01*
Y258668D01*
X97185Y258698D01*
X97864Y258979D01*
X98448Y259427D01*
X98895Y260010D01*
X99176Y260689D01*
X99206Y260917D01*
D02*
G37*
G36*
X149106Y262592D02*
X148878Y262562D01*
X148199Y262281D01*
X147616Y261833D01*
X147168Y261250D01*
X146887Y260571D01*
X146857Y260343D01*
X149106D01*
Y262592D01*
D02*
G37*
G36*
X278543Y257729D02*
X277562Y257600D01*
X276647Y257221D01*
X275862Y256619D01*
X275259Y255833D01*
X274880Y254919D01*
X274751Y253937D01*
X274880Y252956D01*
X275259Y252041D01*
X275862Y251255D01*
X276647Y250653D01*
X277562Y250274D01*
X278543Y250145D01*
X279525Y250274D01*
X280439Y250653D01*
X281225Y251255D01*
X281828Y252041D01*
X282206Y252956D01*
X282336Y253937D01*
X282206Y254919D01*
X281828Y255833D01*
X281225Y256619D01*
X280439Y257221D01*
X279525Y257600D01*
X278543Y257729D01*
D02*
G37*
G36*
X129718Y237295D02*
X127469D01*
Y235046D01*
X127697Y235076D01*
X128376Y235357D01*
X128959Y235805D01*
X129407Y236388D01*
X129688Y237067D01*
X129718Y237295D01*
D02*
G37*
G36*
X199803Y242966D02*
X198822Y242836D01*
X197907Y242458D01*
X197122Y241855D01*
X196519Y241069D01*
X196140Y240155D01*
X196011Y239173D01*
X196140Y238192D01*
X196519Y237277D01*
X197122Y236492D01*
X197907Y235889D01*
X198822Y235510D01*
X199803Y235381D01*
X200785Y235510D01*
X201699Y235889D01*
X202485Y236492D01*
X203087Y237277D01*
X203466Y238192D01*
X203595Y239173D01*
X203466Y240155D01*
X203087Y241069D01*
X202485Y241855D01*
X201699Y242458D01*
X200785Y242836D01*
X199803Y242966D01*
D02*
G37*
G36*
X126469Y237295D02*
X124219D01*
X124249Y237067D01*
X124530Y236388D01*
X124978Y235805D01*
X125561Y235357D01*
X126240Y235076D01*
X126469Y235046D01*
Y237295D01*
D02*
G37*
G36*
X149606Y238044D02*
X148625Y237915D01*
X147710Y237536D01*
X146925Y236934D01*
X146322Y236148D01*
X145943Y235233D01*
X145814Y234252D01*
X145943Y233271D01*
X146322Y232356D01*
X146925Y231571D01*
X147710Y230968D01*
X148625Y230589D01*
X149606Y230460D01*
X150588Y230589D01*
X151503Y230968D01*
X152288Y231571D01*
X152891Y232356D01*
X153269Y233271D01*
X153399Y234252D01*
X153269Y235233D01*
X152891Y236148D01*
X152288Y236934D01*
X151503Y237536D01*
X150588Y237915D01*
X149606Y238044D01*
D02*
G37*
G36*
X257874Y240013D02*
X256892Y239883D01*
X255978Y239505D01*
X255192Y238902D01*
X254590Y238117D01*
X254211Y237202D01*
X254082Y236221D01*
X254211Y235239D01*
X254590Y234324D01*
X255192Y233539D01*
X255978Y232936D01*
X256892Y232557D01*
X257874Y232428D01*
X258856Y232557D01*
X259770Y232936D01*
X260556Y233539D01*
X261158Y234324D01*
X261537Y235239D01*
X261666Y236221D01*
X261537Y237202D01*
X261158Y238117D01*
X260556Y238902D01*
X259770Y239505D01*
X258856Y239883D01*
X257874Y240013D01*
D02*
G37*
G36*
X69882Y246903D02*
X68900Y246773D01*
X67986Y246394D01*
X67200Y245792D01*
X66598Y245006D01*
X66219Y244092D01*
X66090Y243110D01*
X66219Y242129D01*
X66598Y241214D01*
X67200Y240429D01*
X67986Y239826D01*
X68900Y239447D01*
X69882Y239318D01*
X70863Y239447D01*
X71778Y239826D01*
X72563Y240429D01*
X73166Y241214D01*
X73545Y242129D01*
X73674Y243110D01*
X73545Y244092D01*
X73166Y245006D01*
X72563Y245792D01*
X71778Y246394D01*
X70863Y246773D01*
X69882Y246903D01*
D02*
G37*
G36*
X51181Y253792D02*
X50200Y253663D01*
X49285Y253284D01*
X48500Y252682D01*
X47897Y251896D01*
X47518Y250982D01*
X47389Y250000D01*
X47518Y249019D01*
X47897Y248104D01*
X48500Y247319D01*
X49285Y246716D01*
X50200Y246337D01*
X51181Y246208D01*
X52163Y246337D01*
X53077Y246716D01*
X53863Y247319D01*
X54465Y248104D01*
X54844Y249019D01*
X54973Y250000D01*
X54844Y250982D01*
X54465Y251896D01*
X53863Y252682D01*
X53077Y253284D01*
X52163Y253663D01*
X51181Y253792D01*
D02*
G37*
G36*
X127469Y240545D02*
Y238295D01*
X129718D01*
X129688Y238524D01*
X129407Y239203D01*
X128959Y239786D01*
X128376Y240234D01*
X127697Y240515D01*
X127469Y240545D01*
D02*
G37*
G36*
X238189Y249855D02*
X237208Y249726D01*
X236293Y249347D01*
X235507Y248745D01*
X234905Y247959D01*
X234526Y247044D01*
X234397Y246063D01*
X234526Y245081D01*
X234905Y244167D01*
X235465Y243437D01*
X235535Y243232D01*
Y242988D01*
X235465Y242784D01*
X234905Y242054D01*
X234526Y241139D01*
X234397Y240158D01*
X234526Y239176D01*
X234905Y238261D01*
X235507Y237476D01*
X236293Y236873D01*
X237208Y236494D01*
X238189Y236365D01*
X239171Y236494D01*
X240085Y236873D01*
X240870Y237476D01*
X241473Y238261D01*
X241852Y239176D01*
X241981Y240158D01*
X241852Y241139D01*
X241473Y242054D01*
X240913Y242784D01*
X240843Y242988D01*
Y243232D01*
X240913Y243437D01*
X241473Y244167D01*
X241852Y245081D01*
X241981Y246063D01*
X241852Y247044D01*
X241473Y247959D01*
X240870Y248745D01*
X240085Y249347D01*
X239171Y249726D01*
X238189Y249855D01*
D02*
G37*
G36*
X126469Y240545D02*
X126240Y240515D01*
X125561Y240234D01*
X124978Y239786D01*
X124530Y239203D01*
X124249Y238524D01*
X124219Y238295D01*
X126469D01*
Y240545D01*
D02*
G37*
%LPD*%
D34*
X38071Y218347D02*
D03*
D36*
X282480Y139764D02*
D03*
X281496Y286417D02*
D03*
X286417D02*
D03*
X291339D02*
D03*
X89567Y241142D02*
D03*
X63976Y224410D02*
D03*
X281496Y176181D02*
D03*
X266732Y194882D02*
D03*
X72835Y81693D02*
D03*
X73819Y168307D02*
D03*
X273622Y43307D02*
D03*
X144685Y30512D02*
D03*
X130906Y118110D02*
D03*
Y147638D02*
D03*
X111221Y290354D02*
D03*
X119095Y294291D02*
D03*
X67913D02*
D03*
X175197Y62992D02*
D03*
X106299Y47244D02*
D03*
X107283Y133858D02*
D03*
X213583Y155512D02*
D03*
Y110236D02*
D03*
X207087Y136417D02*
D03*
X200787Y229331D02*
D03*
X126969Y237795D02*
D03*
X96457Y221063D02*
D03*
X126969Y278150D02*
D03*
X96457Y261417D02*
D03*
X149606Y259843D02*
D03*
X105315Y290354D02*
D03*
X75788D02*
D03*
X81693D02*
D03*
D37*
X63976Y224410D02*
X71851Y216535D01*
X91929D01*
M02*
