M48
;Layer_Color=9474304
;FILE_FORMAT=2:5
INCH,LZ
;TYPE=PLATED
T1F00S00C0.02000
T2F00S00C0.03543
T3F00S00C0.04291
T4F00S00C0.12835
T5F00S00C0.13780
%
T01
X0066929Y0068898
X0072835Y0081693
X0091535Y0063976
X0112205Y0060039
X0106299Y0047244
X0111811Y0089961
Y0097835
X0107283Y0133858
X009252Y0149606
X0067913Y0155512
X0113189Y0146653
X0124016Y0147638
X0130906Y0147638
Y011811
X0124016Y0121063
X0116142
X0114173Y0083662
X0125
X0130905Y009252
X0145079Y0101772
X0158465Y0100394
Y0110236
X0159449Y0128937
Y0136811
X0158465Y0155512
X0193898
X0207283Y015689
X0213583Y0155512
X0218504Y0150591
X0231299Y0144685
X0232283Y0134843
X0235236Y0130906
X0239173Y0127953
X0244094Y0121063
X0231299
X022441Y0111221
X0213583Y0110236
X0207283Y0108858
X0193898Y0110236
Y0100394
X0207087Y0129331
Y0136417
X0243701Y0136811
X0244094Y0144685
X0251181Y0154528
X0260433Y0140748
X0268701Y0145669
X0251181Y0111221
X0234252Y0102362
X0220866Y0065945
X0251969Y0065945
X0262205Y0065945
X0175197Y0062992
X015748Y0062992
X0159449Y0081693
X0140748Y0048228
Y0043307
X0144685Y0030512
X0163386Y0030512
X017815Y0038386
Y0044291
X0193898Y0037402
X0199803
X0273622Y0043307
X0273622Y0068898
X028248Y0132874
Y0139764
X0275591Y016437
X0281496Y0176181
X0278543Y0253937
X0272638Y0266732
X0281496Y0286417
X0286417
X0291339
X0264764Y0266732
X0248031Y0254921
X0238189Y0246063
Y0240158
X0239173Y0225394
X0257874Y0236221
X0249016Y0194882
X0266732
Y017126
X0249016Y0172244
X0241142Y0182087
X0234252Y0163386
X0193898Y0165354
X0158465
X0145079Y0163976
X0130905Y0173228
X0113189Y0176575
Y0184449
X0121063Y0221063
X013878Y0221457
X0139764Y023189
X0149606Y0234252
X0162106Y0242618
X0149606Y0259843
X0137795Y0262402
X0139764Y0272244
X0126969Y027815
X0119095
X0119095Y0294291
Y0312008
X0150591Y0312402
X0158465
X0158465Y0294291
X0150591Y0294291
X0188976Y0294291
X019685
X0196851Y0312008
X0188976
X017815Y0278543
X0206693Y0265748
X0214567
X0225394Y0271654
X0233268
X0199803Y0239173
X0200787Y0229331
X0205709Y021063
X0212598Y0216535
X017815Y0209646
X0159449Y0184055
X0126969Y0237795
X0119095
X0121063Y0262402
X0111221Y027815
Y0290354
X0105315Y0290354
X0102362Y0274213
X0096457Y0261417
X0102362Y0247047
X0102362Y0233858
X0111221Y0237795
X0089567Y0241142
Y0234252
X0081693Y022441
X0063976
X0069882Y024311
X0051181Y025
X0067913Y0294291
X0075788Y0290354
X0081693
Y0315945
X0075788
X0067913Y0312008
X0105315Y0315945
X0111221
X0096457Y0221063
X0073819Y0168307
T02
X0300197Y0151654
Y0161654
X0310197
Y0151654
Y0171654
Y0181654
Y0191654
Y0201654
Y0211654
Y0221654
Y0231654
Y0241654
Y0251654
Y0261654
Y0271654
X0300197
Y0261654
Y0251654
Y0241654
Y0231654
Y0221654
Y0211654
Y0201654
Y0191654
Y0181654
Y0171654
X0269331Y0301181
X0259331
X0249331
X0239331
X0229331
X0229331Y0195866
X0219331
X0081693Y0265591
Y0275591
X0061024Y0275748
Y0265748
T03
X002689Y007813
Y0089035
Y0099941
Y0110846
X0038071Y0116299
Y0105394
Y0094488
Y0083583
Y0072677
Y0218347
Y0229252
Y0240158
Y0251063
Y0261968
X002689Y0256516
Y024561
Y0234705
Y0223799
T04
X003248Y0045295
Y0143681
Y0190965
Y028935
T05
X0035433Y0014764
X0311024
X0035433Y0325787
X0311024
M30
