%FSLAX25Y25*%
%MOIN*%
G70*
G01*
G75*
G04 Layer_Physical_Order=4*
G04 Layer_Color=16711680*
%ADD10O,0.07874X0.01201*%
%ADD11R,0.05512X0.04724*%
%ADD12R,0.04724X0.05512*%
%ADD13O,0.08661X0.02362*%
%ADD14O,0.07087X0.01772*%
%ADD15R,0.08661X0.07874*%
%ADD16R,0.07874X0.08661*%
%ADD17O,0.09843X0.02756*%
%ADD18O,0.02756X0.09843*%
%ADD19O,0.02362X0.08661*%
%ADD20R,0.06693X0.04331*%
%ADD21R,0.09449X0.10236*%
%ADD22R,0.10236X0.04331*%
%ADD23C,0.01575*%
%ADD24C,0.00787*%
%ADD25C,0.04724*%
%ADD26C,0.02362*%
%ADD27C,0.02756*%
%ADD28C,0.03937*%
%ADD29R,0.05906X0.05906*%
%ADD30C,0.05906*%
%ADD31R,0.27559X0.27559*%
%ADD32R,0.05906X0.05906*%
%ADD33C,0.06654*%
%ADD34R,0.06654X0.06654*%
%ADD35C,0.18740*%
%ADD36C,0.03583*%
%ADD37C,0.05906*%
G36*
X16994Y334646D02*
Y308071D01*
X17049Y307794D01*
X17206Y307560D01*
X17440Y307403D01*
X17717Y307348D01*
X53150D01*
X53426Y307403D01*
X53661Y307560D01*
X53817Y307794D01*
X53872Y308071D01*
Y334292D01*
X54226Y334646D01*
X292584Y334646D01*
Y308071D01*
X292640Y307794D01*
X292796Y307560D01*
X293031Y307403D01*
X293307Y307348D01*
X319528D01*
X319882Y306995D01*
X319882Y33203D01*
X293307D01*
X293031Y33148D01*
X292796Y32991D01*
X292640Y32757D01*
X292584Y32480D01*
Y5275D01*
X292231Y4921D01*
X53872Y4921D01*
Y32480D01*
X53817Y32757D01*
X53661Y32991D01*
X53426Y33148D01*
X53150Y33203D01*
X17717D01*
X17440Y33148D01*
X17206Y32991D01*
X17049Y32757D01*
X16994Y32480D01*
Y5275D01*
X16640Y4921D01*
X5906D01*
X5906Y334292D01*
X6259Y334646D01*
X16994D01*
D02*
G37*
%LPC*%
G36*
X309697Y155575D02*
X309165Y155505D01*
X308204Y155106D01*
X307378Y154473D01*
X306744Y153647D01*
X306346Y152685D01*
X306276Y152154D01*
X309697D01*
Y155575D01*
D02*
G37*
G36*
X253931Y154028D02*
X251681D01*
Y151778D01*
X251910Y151808D01*
X252589Y152089D01*
X253172Y152537D01*
X253619Y153120D01*
X253901Y153799D01*
X253931Y154028D01*
D02*
G37*
G36*
X250681D02*
X248431D01*
X248462Y153799D01*
X248743Y153120D01*
X249190Y152537D01*
X249773Y152089D01*
X250452Y151808D01*
X250681Y151778D01*
Y154028D01*
D02*
G37*
G36*
X310697Y155575D02*
Y152154D01*
X314118D01*
X314048Y152685D01*
X313650Y153647D01*
X313016Y154473D01*
X312190Y155106D01*
X311229Y155505D01*
X310697Y155575D01*
D02*
G37*
G36*
X196647Y155012D02*
X194398D01*
Y152762D01*
X194626Y152792D01*
X195305Y153074D01*
X195888Y153521D01*
X196336Y154104D01*
X196617Y154783D01*
X196647Y155012D01*
D02*
G37*
G36*
X193398D02*
X191148D01*
X191178Y154783D01*
X191459Y154104D01*
X191907Y153521D01*
X192490Y153074D01*
X193169Y152792D01*
X193398Y152762D01*
Y155012D01*
D02*
G37*
G36*
X157965D02*
X155715D01*
X155745Y154783D01*
X156026Y154104D01*
X156474Y153521D01*
X157057Y153074D01*
X157736Y152792D01*
X157965Y152762D01*
Y155012D01*
D02*
G37*
G36*
X300197Y155347D02*
X299241Y155221D01*
X298350Y154852D01*
X297586Y154265D01*
X296999Y153500D01*
X296630Y152609D01*
X296504Y151654D01*
X296630Y150698D01*
X296999Y149807D01*
X297586Y149042D01*
X298350Y148455D01*
X299241Y148086D01*
X300197Y147961D01*
X301153Y148086D01*
X302043Y148455D01*
X302808Y149042D01*
X303395Y149807D01*
X303764Y150698D01*
X303890Y151654D01*
X303764Y152609D01*
X303395Y153500D01*
X302808Y154265D01*
X302043Y154852D01*
X301153Y155221D01*
X300197Y155347D01*
D02*
G37*
G36*
X221254Y150091D02*
X219004D01*
Y147841D01*
X219233Y147871D01*
X219912Y148152D01*
X220495Y148600D01*
X220942Y149183D01*
X221223Y149862D01*
X221254Y150091D01*
D02*
G37*
G36*
X218004D02*
X215754D01*
X215785Y149862D01*
X216066Y149183D01*
X216513Y148600D01*
X217096Y148152D01*
X217775Y147871D01*
X218004Y147841D01*
Y150091D01*
D02*
G37*
G36*
X92020Y152356D02*
X91791Y152326D01*
X91112Y152044D01*
X90529Y151597D01*
X90082Y151014D01*
X89800Y150335D01*
X89770Y150106D01*
X92020D01*
Y152356D01*
D02*
G37*
G36*
X219004Y153340D02*
Y151091D01*
X221254D01*
X221223Y151319D01*
X220942Y151998D01*
X220495Y152581D01*
X219912Y153029D01*
X219233Y153310D01*
X219004Y153340D01*
D02*
G37*
G36*
X218004D02*
X217775Y153310D01*
X217096Y153029D01*
X216513Y152581D01*
X216066Y151998D01*
X215785Y151319D01*
X215754Y151091D01*
X218004D01*
Y153340D01*
D02*
G37*
G36*
X93020Y152356D02*
Y150106D01*
X95269D01*
X95239Y150335D01*
X94958Y151014D01*
X94511Y151597D01*
X93927Y152044D01*
X93248Y152326D01*
X93020Y152356D01*
D02*
G37*
G36*
X67413Y155012D02*
X65164D01*
X65194Y154783D01*
X65475Y154104D01*
X65923Y153521D01*
X66506Y153074D01*
X67185Y152792D01*
X67413Y152762D01*
Y155012D01*
D02*
G37*
G36*
Y158262D02*
X67185Y158231D01*
X66506Y157950D01*
X65923Y157503D01*
X65475Y156920D01*
X65194Y156241D01*
X65164Y156012D01*
X67413D01*
Y158262D01*
D02*
G37*
G36*
X194398Y158262D02*
Y156012D01*
X196647D01*
X196617Y156241D01*
X196336Y156920D01*
X195888Y157503D01*
X195305Y157950D01*
X194626Y158231D01*
X194398Y158262D01*
D02*
G37*
G36*
X193398D02*
X193169Y158231D01*
X192490Y157950D01*
X191907Y157503D01*
X191459Y156920D01*
X191178Y156241D01*
X191148Y156012D01*
X193398D01*
Y158262D01*
D02*
G37*
G36*
X68413Y158262D02*
Y156012D01*
X70663D01*
X70633Y156241D01*
X70352Y156920D01*
X69904Y157503D01*
X69321Y157950D01*
X68642Y158231D01*
X68413Y158262D01*
D02*
G37*
G36*
X309697Y161154D02*
X306276D01*
X306346Y160622D01*
X306744Y159660D01*
X307378Y158835D01*
X308204Y158201D01*
X309165Y157803D01*
X309697Y157733D01*
Y161154D01*
D02*
G37*
G36*
X207784Y159639D02*
Y157390D01*
X210033D01*
X210003Y157618D01*
X209722Y158298D01*
X209274Y158881D01*
X208691Y159328D01*
X208012Y159609D01*
X207784Y159639D01*
D02*
G37*
G36*
X206784D02*
X206555Y159609D01*
X205876Y159328D01*
X205293Y158881D01*
X204845Y158298D01*
X204564Y157618D01*
X204534Y157390D01*
X206784D01*
Y159639D01*
D02*
G37*
G36*
Y156390D02*
X204534D01*
X204564Y156161D01*
X204845Y155482D01*
X205293Y154899D01*
X205876Y154452D01*
X206555Y154170D01*
X206784Y154140D01*
Y156390D01*
D02*
G37*
G36*
X213583Y158061D02*
X212607Y157867D01*
X211780Y157314D01*
X211228Y156487D01*
X211034Y155512D01*
X211228Y154536D01*
X211780Y153709D01*
X212607Y153157D01*
X213583Y152963D01*
X214558Y153157D01*
X215385Y153709D01*
X215938Y154536D01*
X216132Y155512D01*
X215938Y156487D01*
X215385Y157314D01*
X214558Y157867D01*
X213583Y158061D01*
D02*
G37*
G36*
X70663Y155012D02*
X68413D01*
Y152762D01*
X68642Y152792D01*
X69321Y153074D01*
X69904Y153521D01*
X70352Y154104D01*
X70633Y154783D01*
X70663Y155012D01*
D02*
G37*
G36*
X210033Y156390D02*
X207784D01*
Y154140D01*
X208012Y154170D01*
X208691Y154452D01*
X209274Y154899D01*
X209722Y155482D01*
X210003Y156161D01*
X210033Y156390D01*
D02*
G37*
G36*
X157965Y158262D02*
X157736Y158231D01*
X157057Y157950D01*
X156474Y157503D01*
X156026Y156920D01*
X155745Y156241D01*
X155715Y156012D01*
X157965D01*
Y158262D01*
D02*
G37*
G36*
X251681Y157277D02*
Y155028D01*
X253931D01*
X253901Y155256D01*
X253619Y155935D01*
X253172Y156518D01*
X252589Y156966D01*
X251910Y157247D01*
X251681Y157277D01*
D02*
G37*
G36*
X250681D02*
X250452Y157247D01*
X249773Y156966D01*
X249190Y156518D01*
X248743Y155935D01*
X248462Y155256D01*
X248431Y155028D01*
X250681D01*
Y157277D01*
D02*
G37*
G36*
X314118Y151154D02*
X310697D01*
Y147733D01*
X311229Y147803D01*
X312190Y148201D01*
X313016Y148835D01*
X313650Y149660D01*
X314048Y150622D01*
X314118Y151154D01*
D02*
G37*
G36*
X42843Y143181D02*
X32980D01*
Y133318D01*
X34108Y133407D01*
X35695Y133788D01*
X37203Y134413D01*
X38594Y135266D01*
X39836Y136326D01*
X40896Y137567D01*
X41749Y138959D01*
X42373Y140467D01*
X42754Y142054D01*
X42843Y143181D01*
D02*
G37*
G36*
X31980D02*
X22118D01*
X22206Y142054D01*
X22587Y140467D01*
X23212Y138959D01*
X24065Y137567D01*
X25125Y136326D01*
X26366Y135266D01*
X27758Y134413D01*
X29266Y133788D01*
X30853Y133407D01*
X31980Y133318D01*
Y143181D01*
D02*
G37*
G36*
X107283Y136407D02*
X106308Y136213D01*
X105481Y135661D01*
X104929Y134834D01*
X104735Y133858D01*
X104929Y132883D01*
X105481Y132056D01*
X106308Y131503D01*
X107283Y131309D01*
X108259Y131503D01*
X109086Y132056D01*
X109638Y132883D01*
X109833Y133858D01*
X109638Y134834D01*
X109086Y135661D01*
X108259Y136213D01*
X107283Y136407D01*
D02*
G37*
G36*
X281980Y135624D02*
X281752Y135594D01*
X281073Y135312D01*
X280490Y134865D01*
X280042Y134282D01*
X279761Y133603D01*
X279731Y133374D01*
X281980D01*
Y135624D01*
D02*
G37*
G36*
X282480Y142313D02*
X281505Y142119D01*
X280678Y141566D01*
X280125Y140739D01*
X279931Y139764D01*
X280125Y138788D01*
X280678Y137961D01*
X281505Y137409D01*
X282480Y137215D01*
X283456Y137409D01*
X284283Y137961D01*
X284835Y138788D01*
X285029Y139764D01*
X284835Y140739D01*
X284283Y141566D01*
X283456Y142119D01*
X282480Y142313D01*
D02*
G37*
G36*
X207087Y138966D02*
X206111Y138772D01*
X205284Y138220D01*
X204732Y137393D01*
X204538Y136417D01*
X204732Y135442D01*
X205284Y134615D01*
X206111Y134062D01*
X207087Y133868D01*
X208062Y134062D01*
X208889Y134615D01*
X209442Y135442D01*
X209636Y136417D01*
X209442Y137393D01*
X208889Y138220D01*
X208062Y138772D01*
X207087Y138966D01*
D02*
G37*
G36*
X282980Y135624D02*
Y133374D01*
X285230D01*
X285200Y133603D01*
X284919Y134282D01*
X284471Y134865D01*
X283888Y135312D01*
X283209Y135594D01*
X282980Y135624D01*
D02*
G37*
G36*
X209836Y128831D02*
X207587D01*
Y126581D01*
X207815Y126611D01*
X208494Y126892D01*
X209078Y127340D01*
X209525Y127923D01*
X209806Y128602D01*
X209836Y128831D01*
D02*
G37*
G36*
X206587D02*
X204337D01*
X204367Y128602D01*
X204648Y127923D01*
X205096Y127340D01*
X205679Y126892D01*
X206358Y126611D01*
X206587Y126581D01*
Y128831D01*
D02*
G37*
G36*
X124016Y150187D02*
X123040Y149993D01*
X122213Y149440D01*
X121661Y148613D01*
X121467Y147638D01*
X121661Y146662D01*
X122136Y145952D01*
X122490Y144884D01*
Y123817D01*
X122184Y122895D01*
X121262Y122588D01*
X118896D01*
X117828Y122943D01*
X117117Y123418D01*
X116142Y123612D01*
X115166Y123418D01*
X114339Y122865D01*
X114151Y122584D01*
X113590Y122472D01*
X113095Y122142D01*
X112764Y121647D01*
X112648Y121063D01*
X112764Y120479D01*
X113095Y119984D01*
X113590Y119654D01*
X114151Y119542D01*
X114339Y119261D01*
X115166Y118708D01*
X116142Y118514D01*
X117117Y118708D01*
X117828Y119183D01*
X118896Y119538D01*
X121262D01*
X122330Y119183D01*
X123040Y118708D01*
X124016Y118514D01*
X124991Y118708D01*
X125818Y119261D01*
X126371Y120088D01*
X126565Y121063D01*
X126371Y122038D01*
X125896Y122749D01*
X125541Y123817D01*
Y144884D01*
X125896Y145952D01*
X126371Y146662D01*
X126565Y147638D01*
X126371Y148613D01*
X125818Y149440D01*
X124991Y149993D01*
X124016Y150187D01*
D02*
G37*
G36*
X206587Y132080D02*
X206358Y132050D01*
X205679Y131769D01*
X205096Y131322D01*
X204648Y130738D01*
X204367Y130059D01*
X204337Y129831D01*
X206587D01*
Y132080D01*
D02*
G37*
G36*
X285230Y132374D02*
X282980D01*
Y130124D01*
X283209Y130155D01*
X283888Y130436D01*
X284471Y130883D01*
X284919Y131466D01*
X285200Y132145D01*
X285230Y132374D01*
D02*
G37*
G36*
X281980D02*
X279731D01*
X279761Y132145D01*
X280042Y131466D01*
X280490Y130883D01*
X281073Y130436D01*
X281752Y130155D01*
X281980Y130124D01*
Y132374D01*
D02*
G37*
G36*
X207587Y132080D02*
Y129831D01*
X209836D01*
X209806Y130059D01*
X209525Y130738D01*
X209078Y131322D01*
X208494Y131769D01*
X207815Y132050D01*
X207587Y132080D01*
D02*
G37*
G36*
X243201Y139561D02*
X242972Y139531D01*
X242293Y139249D01*
X241710Y138802D01*
X241263Y138219D01*
X240981Y137540D01*
X240951Y137311D01*
X243201D01*
Y139561D01*
D02*
G37*
G36*
X92020Y149106D02*
X89770D01*
X89800Y148878D01*
X90082Y148199D01*
X90529Y147616D01*
X91112Y147168D01*
X91791Y146887D01*
X92020Y146857D01*
Y149106D01*
D02*
G37*
G36*
X32980Y154044D02*
Y144181D01*
X42843D01*
X42754Y145308D01*
X42373Y146896D01*
X41749Y148404D01*
X40896Y149795D01*
X39836Y151037D01*
X38594Y152097D01*
X37203Y152950D01*
X35695Y153574D01*
X34108Y153955D01*
X32980Y154044D01*
D02*
G37*
G36*
X31980D02*
X30853Y153955D01*
X29266Y153574D01*
X27758Y152950D01*
X26366Y152097D01*
X25125Y151037D01*
X24065Y149795D01*
X23212Y148404D01*
X22587Y146896D01*
X22206Y145308D01*
X22118Y144181D01*
X31980D01*
Y154044D01*
D02*
G37*
G36*
X95269Y149106D02*
X93020D01*
Y146857D01*
X93248Y146887D01*
X93927Y147168D01*
X94511Y147616D01*
X94958Y148199D01*
X95239Y148878D01*
X95269Y149106D01*
D02*
G37*
G36*
X309697Y151154D02*
X306276D01*
X306346Y150622D01*
X306744Y149660D01*
X307378Y148835D01*
X308204Y148201D01*
X309165Y147803D01*
X309697Y147733D01*
Y151154D01*
D02*
G37*
G36*
X113689Y149403D02*
Y147153D01*
X115939D01*
X115909Y147382D01*
X115627Y148061D01*
X115180Y148644D01*
X114597Y149092D01*
X113918Y149373D01*
X113689Y149403D01*
D02*
G37*
G36*
X112689D02*
X112460Y149373D01*
X111781Y149092D01*
X111198Y148644D01*
X110751Y148061D01*
X110469Y147382D01*
X110439Y147153D01*
X112689D01*
Y149403D01*
D02*
G37*
G36*
X263183Y140248D02*
X260933D01*
Y137998D01*
X261162Y138029D01*
X261841Y138310D01*
X262424Y138757D01*
X262871Y139340D01*
X263153Y140019D01*
X263183Y140248D01*
D02*
G37*
G36*
X259933D02*
X257683D01*
X257714Y140019D01*
X257995Y139340D01*
X258442Y138757D01*
X259025Y138310D01*
X259704Y138029D01*
X259933Y137998D01*
Y140248D01*
D02*
G37*
G36*
X244201Y139561D02*
Y137311D01*
X246450D01*
X246420Y137540D01*
X246139Y138219D01*
X245692Y138802D01*
X245109Y139249D01*
X244429Y139531D01*
X244201Y139561D01*
D02*
G37*
G36*
X259933Y143498D02*
X259704Y143468D01*
X259025Y143186D01*
X258442Y142739D01*
X257995Y142156D01*
X257714Y141477D01*
X257683Y141248D01*
X259933D01*
Y143498D01*
D02*
G37*
G36*
X115939Y146153D02*
X113689D01*
Y143904D01*
X113918Y143934D01*
X114597Y144215D01*
X115180Y144663D01*
X115627Y145246D01*
X115909Y145925D01*
X115939Y146153D01*
D02*
G37*
G36*
X112689D02*
X110439D01*
X110469Y145925D01*
X110751Y145246D01*
X111198Y144663D01*
X111781Y144215D01*
X112460Y143934D01*
X112689Y143904D01*
Y146153D01*
D02*
G37*
G36*
X260933Y143498D02*
Y141248D01*
X263183D01*
X263153Y141477D01*
X262871Y142156D01*
X262424Y142739D01*
X261841Y143186D01*
X261162Y143468D01*
X260933Y143498D01*
D02*
G37*
G36*
X314118Y161154D02*
X310697D01*
Y157733D01*
X311229Y157803D01*
X312190Y158201D01*
X313016Y158835D01*
X313650Y159660D01*
X314048Y160622D01*
X314118Y161154D01*
D02*
G37*
G36*
Y181154D02*
X310697D01*
Y177733D01*
X311229Y177803D01*
X312190Y178201D01*
X313016Y178834D01*
X313650Y179660D01*
X314048Y180622D01*
X314118Y181154D01*
D02*
G37*
G36*
X309697D02*
X306276D01*
X306346Y180622D01*
X306744Y179660D01*
X307378Y178834D01*
X308204Y178201D01*
X309165Y177803D01*
X309697Y177733D01*
Y181154D01*
D02*
G37*
G36*
X113689Y179324D02*
Y177075D01*
X115939D01*
X115909Y177304D01*
X115627Y177983D01*
X115180Y178566D01*
X114597Y179013D01*
X113918Y179294D01*
X113689Y179324D01*
D02*
G37*
G36*
X300197Y185347D02*
X299241Y185221D01*
X298350Y184852D01*
X297586Y184265D01*
X296999Y183500D01*
X296630Y182609D01*
X296504Y181654D01*
X296630Y180698D01*
X296929Y179975D01*
X292512Y175559D01*
X292269Y175194D01*
X292183Y174764D01*
Y166804D01*
X271591Y146212D01*
X271113Y146358D01*
X271056Y146645D01*
X270503Y147472D01*
X269676Y148024D01*
X268701Y148218D01*
X267725Y148024D01*
X266898Y147472D01*
X266346Y146645D01*
X266152Y145669D01*
X266346Y144694D01*
X266898Y143867D01*
X267725Y143314D01*
X268013Y143257D01*
X268158Y142779D01*
X259889Y134510D01*
X246078D01*
X245837Y135010D01*
X246139Y135403D01*
X246420Y136082D01*
X246450Y136311D01*
X240951D01*
X240981Y136082D01*
X241263Y135403D01*
X241564Y135010D01*
X241324Y134510D01*
X238143D01*
X237015Y135637D01*
X236651Y135881D01*
X236221Y135967D01*
X235280D01*
X234100Y136625D01*
X234086Y136645D01*
X233259Y137197D01*
X232283Y137392D01*
X231308Y137197D01*
X230481Y136645D01*
X229928Y135818D01*
X229734Y134843D01*
X229928Y133867D01*
X230481Y133040D01*
X231308Y132488D01*
X232283Y132294D01*
X232597Y132356D01*
X232898Y131906D01*
X232881Y131881D01*
X232687Y130906D01*
X232881Y129930D01*
X233434Y129103D01*
X234261Y128551D01*
X235236Y128357D01*
X236212Y128551D01*
X236237Y128567D01*
X236687Y128267D01*
X236624Y127953D01*
X236818Y126977D01*
X237371Y126150D01*
X238198Y125598D01*
X239173Y125404D01*
X240149Y125598D01*
X240976Y126150D01*
X240989Y126171D01*
X242194Y126842D01*
X242556Y126914D01*
X242921Y127158D01*
X244560Y128797D01*
X262795D01*
X263225Y128883D01*
X263590Y129127D01*
X294993Y160530D01*
X296699D01*
X296999Y159807D01*
X297586Y159042D01*
X298350Y158455D01*
X299241Y158086D01*
X300197Y157961D01*
X301153Y158086D01*
X302043Y158455D01*
X302808Y159042D01*
X303395Y159807D01*
X303764Y160698D01*
X303890Y161654D01*
X303764Y162609D01*
X303395Y163500D01*
X302808Y164265D01*
X302043Y164852D01*
X301153Y165221D01*
X300197Y165347D01*
X299241Y165221D01*
X298350Y164852D01*
X297586Y164265D01*
X296999Y163500D01*
X296699Y162778D01*
X294995D01*
X294788Y163278D01*
X299556Y168045D01*
X300197Y167961D01*
X301153Y168086D01*
X302043Y168455D01*
X302808Y169042D01*
X303395Y169807D01*
X303764Y170698D01*
X303890Y171654D01*
X303764Y172609D01*
X303395Y173500D01*
X302808Y174265D01*
X302043Y174852D01*
X301153Y175221D01*
X300197Y175347D01*
X299241Y175221D01*
X298350Y174852D01*
X297586Y174265D01*
X296999Y173500D01*
X296630Y172609D01*
X296504Y171654D01*
X296630Y170698D01*
X296999Y169807D01*
X297494Y169162D01*
X294931Y166599D01*
X294431Y166806D01*
Y174298D01*
X298518Y178386D01*
X299241Y178086D01*
X300197Y177961D01*
X301153Y178086D01*
X302043Y178455D01*
X302808Y179042D01*
X303395Y179807D01*
X303764Y180698D01*
X303890Y181654D01*
X303764Y182609D01*
X303395Y183500D01*
X302808Y184265D01*
X302043Y184852D01*
X301153Y185221D01*
X300197Y185347D01*
D02*
G37*
G36*
X31980Y190465D02*
X22118D01*
X22206Y189337D01*
X22587Y187750D01*
X23212Y186242D01*
X24065Y184850D01*
X25125Y183609D01*
X26366Y182549D01*
X27758Y181696D01*
X29266Y181071D01*
X30853Y180691D01*
X31980Y180602D01*
Y190465D01*
D02*
G37*
G36*
X243891Y181587D02*
X241642D01*
Y179337D01*
X241870Y179367D01*
X242549Y179648D01*
X243132Y180096D01*
X243580Y180679D01*
X243861Y181358D01*
X243891Y181587D01*
D02*
G37*
G36*
X240642D02*
X238392D01*
X238422Y181358D01*
X238703Y180679D01*
X239151Y180096D01*
X239734Y179648D01*
X240413Y179367D01*
X240642Y179337D01*
Y181587D01*
D02*
G37*
G36*
X130405Y175978D02*
X130177Y175948D01*
X129498Y175667D01*
X128915Y175219D01*
X128467Y174636D01*
X128186Y173957D01*
X128156Y173728D01*
X130405D01*
Y175978D01*
D02*
G37*
G36*
X281496Y178730D02*
X280521Y178536D01*
X279694Y177983D01*
X279141Y177157D01*
X278947Y176181D01*
X279141Y175206D01*
X279694Y174379D01*
X280521Y173826D01*
X281496Y173632D01*
X282472Y173826D01*
X283298Y174379D01*
X283851Y175206D01*
X284045Y176181D01*
X283851Y177157D01*
X283298Y177983D01*
X282472Y178536D01*
X281496Y178730D01*
D02*
G37*
G36*
X310697Y175575D02*
Y172154D01*
X314118D01*
X314048Y172686D01*
X313650Y173647D01*
X313016Y174473D01*
X312190Y175106D01*
X311229Y175505D01*
X310697Y175575D01*
D02*
G37*
G36*
X131405Y175978D02*
Y173728D01*
X133655D01*
X133625Y173957D01*
X133344Y174636D01*
X132896Y175219D01*
X132313Y175667D01*
X131634Y175948D01*
X131405Y175978D01*
D02*
G37*
G36*
X112689Y179324D02*
X112460Y179294D01*
X111781Y179013D01*
X111198Y178566D01*
X110751Y177983D01*
X110469Y177304D01*
X110439Y177075D01*
X112689D01*
Y179324D01*
D02*
G37*
G36*
X115939Y176075D02*
X113689D01*
Y173825D01*
X113918Y173855D01*
X114597Y174137D01*
X115180Y174584D01*
X115627Y175167D01*
X115909Y175846D01*
X115939Y176075D01*
D02*
G37*
G36*
X112689D02*
X110439D01*
X110469Y175846D01*
X110751Y175167D01*
X111198Y174584D01*
X111781Y174137D01*
X112460Y173855D01*
X112689Y173825D01*
Y176075D01*
D02*
G37*
G36*
X42843Y190465D02*
X32980D01*
Y180602D01*
X34108Y180691D01*
X35695Y181071D01*
X37203Y181696D01*
X38594Y182549D01*
X39836Y183609D01*
X40896Y184850D01*
X41749Y186242D01*
X42373Y187750D01*
X42754Y189337D01*
X42843Y190465D01*
D02*
G37*
G36*
X314118Y191154D02*
X310697D01*
Y187733D01*
X311229Y187803D01*
X312190Y188201D01*
X313016Y188835D01*
X313650Y189660D01*
X314048Y190622D01*
X314118Y191154D01*
D02*
G37*
G36*
X309697D02*
X306276D01*
X306346Y190622D01*
X306744Y189660D01*
X307378Y188835D01*
X308204Y188201D01*
X309165Y187803D01*
X309697Y187733D01*
Y191154D01*
D02*
G37*
G36*
X113689Y187198D02*
Y184949D01*
X115939D01*
X115909Y185178D01*
X115627Y185857D01*
X115180Y186440D01*
X114597Y186887D01*
X113918Y187168D01*
X113689Y187198D01*
D02*
G37*
G36*
X300197Y195347D02*
X299241Y195221D01*
X298350Y194852D01*
X297586Y194265D01*
X296999Y193500D01*
X296630Y192609D01*
X296504Y191654D01*
X296630Y190698D01*
X296999Y189807D01*
X297586Y189042D01*
X298350Y188455D01*
X299241Y188086D01*
X300197Y187961D01*
X301153Y188086D01*
X302043Y188455D01*
X302808Y189042D01*
X303395Y189807D01*
X303764Y190698D01*
X303890Y191654D01*
X303764Y192609D01*
X303395Y193500D01*
X302808Y194265D01*
X302043Y194852D01*
X301153Y195221D01*
X300197Y195347D01*
D02*
G37*
G36*
X218831Y195366D02*
X215410D01*
X215480Y194834D01*
X215878Y193873D01*
X216512Y193047D01*
X217337Y192413D01*
X218299Y192015D01*
X218831Y191945D01*
Y195366D01*
D02*
G37*
G36*
X32980Y201327D02*
Y191465D01*
X42843D01*
X42754Y192592D01*
X42373Y194179D01*
X41749Y195687D01*
X40896Y197079D01*
X39836Y198320D01*
X38594Y199380D01*
X37203Y200233D01*
X35695Y200858D01*
X34108Y201239D01*
X32980Y201327D01*
D02*
G37*
G36*
X31980D02*
X30853Y201239D01*
X29266Y200858D01*
X27758Y200233D01*
X26366Y199380D01*
X25125Y198320D01*
X24065Y197079D01*
X23212Y195687D01*
X22587Y194179D01*
X22206Y192592D01*
X22118Y191465D01*
X31980D01*
Y201327D01*
D02*
G37*
G36*
X309697Y185575D02*
X309165Y185505D01*
X308204Y185106D01*
X307378Y184473D01*
X306744Y183647D01*
X306346Y182685D01*
X306276Y182154D01*
X309697D01*
Y185575D01*
D02*
G37*
G36*
X115939Y183949D02*
X113689D01*
Y181699D01*
X113918Y181729D01*
X114597Y182011D01*
X115180Y182458D01*
X115627Y183041D01*
X115909Y183720D01*
X115939Y183949D01*
D02*
G37*
G36*
X112689D02*
X110439D01*
X110469Y183720D01*
X110751Y183041D01*
X111198Y182458D01*
X111781Y182011D01*
X112460Y181729D01*
X112689Y181699D01*
Y183949D01*
D02*
G37*
G36*
X310697Y185575D02*
Y182154D01*
X314118D01*
X314048Y182685D01*
X313650Y183647D01*
X313016Y184473D01*
X312190Y185106D01*
X311229Y185505D01*
X310697Y185575D01*
D02*
G37*
G36*
X112689Y187198D02*
X112460Y187168D01*
X111781Y186887D01*
X111198Y186440D01*
X110751Y185857D01*
X110469Y185178D01*
X110439Y184949D01*
X112689D01*
Y187198D01*
D02*
G37*
G36*
X241642Y184836D02*
Y182587D01*
X243891D01*
X243861Y182815D01*
X243580Y183494D01*
X243132Y184077D01*
X242549Y184525D01*
X241870Y184806D01*
X241642Y184836D01*
D02*
G37*
G36*
X240642D02*
X240413Y184806D01*
X239734Y184525D01*
X239151Y184077D01*
X238703Y183494D01*
X238422Y182815D01*
X238392Y182587D01*
X240642D01*
Y184836D01*
D02*
G37*
G36*
X309697Y175575D02*
X309165Y175505D01*
X308204Y175106D01*
X307378Y174473D01*
X306744Y173647D01*
X306346Y172686D01*
X306276Y172154D01*
X309697D01*
Y175575D01*
D02*
G37*
G36*
X196647Y164854D02*
X194398D01*
Y162605D01*
X194626Y162635D01*
X195305Y162916D01*
X195888Y163364D01*
X196336Y163947D01*
X196617Y164626D01*
X196647Y164854D01*
D02*
G37*
G36*
X193398D02*
X191148D01*
X191178Y164626D01*
X191459Y163947D01*
X191907Y163364D01*
X192490Y162916D01*
X193169Y162635D01*
X193398Y162605D01*
Y164854D01*
D02*
G37*
G36*
X157965D02*
X155715D01*
X155745Y164626D01*
X156026Y163947D01*
X156474Y163364D01*
X157057Y162916D01*
X157736Y162635D01*
X157965Y162605D01*
Y164854D01*
D02*
G37*
G36*
X233752Y166136D02*
X233523Y166105D01*
X232844Y165824D01*
X232261Y165377D01*
X231814Y164794D01*
X231533Y164115D01*
X231502Y163886D01*
X233752D01*
Y166136D01*
D02*
G37*
G36*
X275091Y167120D02*
X274862Y167090D01*
X274183Y166808D01*
X273600Y166361D01*
X273152Y165778D01*
X272871Y165099D01*
X272841Y164870D01*
X275091D01*
Y167120D01*
D02*
G37*
G36*
X145579Y166726D02*
Y164476D01*
X147828D01*
X147798Y164705D01*
X147517Y165384D01*
X147070Y165967D01*
X146486Y166415D01*
X145808Y166696D01*
X145579Y166726D01*
D02*
G37*
G36*
X234752Y166136D02*
Y163886D01*
X237002D01*
X236971Y164115D01*
X236690Y164794D01*
X236243Y165377D01*
X235660Y165824D01*
X234981Y166105D01*
X234752Y166136D01*
D02*
G37*
G36*
X147828Y163476D02*
X145579D01*
Y161227D01*
X145808Y161257D01*
X146486Y161538D01*
X147070Y161986D01*
X147517Y162569D01*
X147798Y163248D01*
X147828Y163476D01*
D02*
G37*
G36*
X237002Y162886D02*
X234752D01*
Y160636D01*
X234981Y160666D01*
X235660Y160948D01*
X236243Y161395D01*
X236690Y161978D01*
X236971Y162657D01*
X237002Y162886D01*
D02*
G37*
G36*
X233752D02*
X231502D01*
X231533Y162657D01*
X231814Y161978D01*
X232261Y161395D01*
X232844Y160948D01*
X233523Y160666D01*
X233752Y160636D01*
Y162886D01*
D02*
G37*
G36*
X275091Y163870D02*
X272841D01*
X272871Y163641D01*
X273152Y162962D01*
X273600Y162379D01*
X274183Y161932D01*
X274862Y161651D01*
X275091Y161620D01*
Y163870D01*
D02*
G37*
G36*
X310697Y165575D02*
Y162154D01*
X314118D01*
X314048Y162686D01*
X313650Y163647D01*
X313016Y164473D01*
X312190Y165106D01*
X311229Y165505D01*
X310697Y165575D01*
D02*
G37*
G36*
X309697D02*
X309165Y165505D01*
X308204Y165106D01*
X307378Y164473D01*
X306744Y163647D01*
X306346Y162686D01*
X306276Y162154D01*
X309697D01*
Y165575D01*
D02*
G37*
G36*
X278340Y163870D02*
X276091D01*
Y161620D01*
X276319Y161651D01*
X276998Y161932D01*
X277581Y162379D01*
X278029Y162962D01*
X278310Y163641D01*
X278340Y163870D01*
D02*
G37*
G36*
X276091Y167120D02*
Y164870D01*
X278340D01*
X278310Y165099D01*
X278029Y165778D01*
X277581Y166361D01*
X276998Y166808D01*
X276319Y167090D01*
X276091Y167120D01*
D02*
G37*
G36*
X206693Y198964D02*
X148622D01*
X147820Y198858D01*
X147511Y198730D01*
X147073Y198549D01*
X146432Y198056D01*
X138026Y189651D01*
X137534Y189009D01*
X137315Y188481D01*
X137225Y188262D01*
X137119Y187461D01*
Y158232D01*
X128715Y149828D01*
X128223Y149187D01*
X127914Y148440D01*
X127808Y147638D01*
X127914Y146836D01*
X128223Y146089D01*
X128715Y145448D01*
X129357Y144956D01*
X130104Y144646D01*
X130906Y144541D01*
X131707Y144646D01*
X132454Y144956D01*
X133096Y145448D01*
X142407Y154759D01*
X142899Y155400D01*
X143208Y156147D01*
X143314Y156949D01*
Y161242D01*
X143814Y161479D01*
X144350Y161257D01*
X144579Y161227D01*
Y163976D01*
Y166726D01*
X144350Y166696D01*
X143814Y166474D01*
X143314Y166711D01*
Y186178D01*
X149905Y192769D01*
X205410D01*
X228125Y170054D01*
X228766Y169562D01*
X229295Y169343D01*
X229513Y169252D01*
X230315Y169147D01*
X249016D01*
X249817Y169252D01*
X250565Y169562D01*
X251206Y170054D01*
X251698Y170695D01*
X252008Y171442D01*
X252113Y172244D01*
X252008Y173046D01*
X251698Y173793D01*
X251206Y174434D01*
X250565Y174926D01*
X249817Y175236D01*
X249016Y175341D01*
X231598D01*
X208883Y198056D01*
X208242Y198549D01*
X207713Y198767D01*
X207495Y198858D01*
X206693Y198964D01*
D02*
G37*
G36*
X269482Y170760D02*
X267232D01*
Y168510D01*
X267461Y168540D01*
X268140Y168822D01*
X268723Y169269D01*
X269171Y169852D01*
X269452Y170531D01*
X269482Y170760D01*
D02*
G37*
G36*
X266232D02*
X263983D01*
X264013Y170531D01*
X264294Y169852D01*
X264741Y169269D01*
X265325Y168822D01*
X266004Y168540D01*
X266232Y168510D01*
Y170760D01*
D02*
G37*
G36*
X130405Y172728D02*
X128156D01*
X128186Y172500D01*
X128467Y171821D01*
X128915Y171238D01*
X129498Y170790D01*
X130177Y170509D01*
X130405Y170479D01*
Y172728D01*
D02*
G37*
G36*
X267232Y174010D02*
Y171760D01*
X269482D01*
X269452Y171989D01*
X269171Y172668D01*
X268723Y173251D01*
X268140Y173698D01*
X267461Y173979D01*
X267232Y174010D01*
D02*
G37*
G36*
X266232D02*
X266004Y173979D01*
X265325Y173698D01*
X264741Y173251D01*
X264294Y172668D01*
X264013Y171989D01*
X263983Y171760D01*
X266232D01*
Y174010D01*
D02*
G37*
G36*
X133655Y172728D02*
X131405D01*
Y170479D01*
X131634Y170509D01*
X132313Y170790D01*
X132896Y171238D01*
X133344Y171821D01*
X133625Y172500D01*
X133655Y172728D01*
D02*
G37*
G36*
X193398Y168104D02*
X193169Y168074D01*
X192490Y167793D01*
X191907Y167345D01*
X191459Y166762D01*
X191178Y166083D01*
X191148Y165854D01*
X193398D01*
Y168104D01*
D02*
G37*
G36*
X157965D02*
X157736Y168074D01*
X157057Y167793D01*
X156474Y167345D01*
X156026Y166762D01*
X155745Y166083D01*
X155715Y165854D01*
X157965D01*
Y168104D01*
D02*
G37*
G36*
X73819Y170856D02*
X72843Y170662D01*
X72017Y170109D01*
X71464Y169283D01*
X71270Y168307D01*
X71464Y167332D01*
X72017Y166505D01*
X72843Y165952D01*
X73819Y165758D01*
X74794Y165952D01*
X75621Y166505D01*
X76174Y167332D01*
X76368Y168307D01*
X76174Y169283D01*
X75621Y170109D01*
X74794Y170662D01*
X73819Y170856D01*
D02*
G37*
G36*
X194398Y168104D02*
Y165854D01*
X196647D01*
X196617Y166083D01*
X196336Y166762D01*
X195888Y167345D01*
X195305Y167793D01*
X194626Y168074D01*
X194398Y168104D01*
D02*
G37*
G36*
X159449Y186755D02*
X158750Y186663D01*
X158099Y186394D01*
X157539Y185965D01*
X157110Y185405D01*
X156841Y184754D01*
X156749Y184055D01*
Y173307D01*
X156841Y172608D01*
X157110Y171957D01*
X157539Y171398D01*
X160233Y168704D01*
Y168085D01*
X159733Y167850D01*
X159193Y168074D01*
X158965Y168104D01*
Y165354D01*
Y162605D01*
X159193Y162635D01*
X159733Y162858D01*
X160233Y162623D01*
Y158243D01*
X159733Y158008D01*
X159193Y158231D01*
X158965Y158262D01*
Y155512D01*
Y152762D01*
X159078Y152777D01*
X159298Y152461D01*
X159338Y152330D01*
X157539Y150531D01*
X157110Y149972D01*
X156841Y149321D01*
X156749Y148622D01*
Y136811D01*
Y128937D01*
Y117126D01*
X156841Y116427D01*
X157110Y115776D01*
X157539Y115217D01*
X159338Y113418D01*
X159298Y113287D01*
X159078Y112971D01*
X158965Y112986D01*
Y110236D01*
Y107487D01*
X159193Y107517D01*
X159733Y107740D01*
X160233Y107505D01*
Y103125D01*
X159733Y102890D01*
X159193Y103113D01*
X158965Y103143D01*
Y100394D01*
Y97644D01*
X159193Y97674D01*
X159733Y97898D01*
X160233Y97663D01*
Y97044D01*
X157539Y94350D01*
X157110Y93791D01*
X156841Y93140D01*
X156749Y92441D01*
Y81693D01*
Y77890D01*
X138839Y59980D01*
X138410Y59421D01*
X138140Y58770D01*
X138048Y58071D01*
Y48228D01*
Y43307D01*
X138140Y42608D01*
X138410Y41957D01*
X138839Y41398D01*
X139398Y40969D01*
X140049Y40699D01*
X140748Y40607D01*
X141447Y40699D01*
X142098Y40969D01*
X142657Y41398D01*
X143087Y41957D01*
X143356Y42608D01*
X143448Y43307D01*
Y48228D01*
Y56952D01*
X161358Y74862D01*
X161787Y75422D01*
X162057Y76073D01*
X162149Y76772D01*
Y81693D01*
Y91322D01*
X164842Y94016D01*
X165272Y94575D01*
X165462Y95036D01*
X165541Y95226D01*
X165633Y95925D01*
Y113642D01*
X165541Y114341D01*
X165462Y114531D01*
X165272Y114992D01*
X164842Y115551D01*
X162149Y118245D01*
Y128937D01*
Y136811D01*
Y147504D01*
X164842Y150197D01*
X165272Y150756D01*
X165462Y151217D01*
X165541Y151408D01*
X165633Y152106D01*
Y169823D01*
X165541Y170522D01*
X165462Y170712D01*
X165272Y171173D01*
X164842Y171732D01*
X162149Y174426D01*
Y184055D01*
X162057Y184754D01*
X161787Y185405D01*
X161358Y185965D01*
X160799Y186394D01*
X160148Y186663D01*
X159449Y186755D01*
D02*
G37*
G36*
X314118Y171154D02*
X310697D01*
Y167733D01*
X311229Y167803D01*
X312190Y168201D01*
X313016Y168834D01*
X313650Y169660D01*
X314048Y170622D01*
X314118Y171154D01*
D02*
G37*
G36*
X309697D02*
X306276D01*
X306346Y170622D01*
X306744Y169660D01*
X307378Y168834D01*
X308204Y168201D01*
X309165Y167803D01*
X309697Y167733D01*
Y171154D01*
D02*
G37*
G36*
X38571Y120598D02*
Y116799D01*
X42369D01*
X42286Y117429D01*
X41850Y118481D01*
X41157Y119385D01*
X40253Y120079D01*
X39200Y120515D01*
X38571Y120598D01*
D02*
G37*
G36*
X251468Y68695D02*
X251240Y68664D01*
X250561Y68383D01*
X249978Y67936D01*
X249530Y67353D01*
X249249Y66674D01*
X249219Y66445D01*
X251468D01*
Y68695D01*
D02*
G37*
G36*
X69679Y68398D02*
X67429D01*
Y66148D01*
X67658Y66178D01*
X68337Y66460D01*
X68920Y66907D01*
X69367Y67490D01*
X69649Y68169D01*
X69679Y68398D01*
D02*
G37*
G36*
X66429D02*
X64180D01*
X64210Y68169D01*
X64491Y67490D01*
X64938Y66907D01*
X65522Y66460D01*
X66201Y66178D01*
X66429Y66148D01*
Y68398D01*
D02*
G37*
G36*
X252468Y68695D02*
Y66445D01*
X254718D01*
X254688Y66674D01*
X254407Y67353D01*
X253959Y67936D01*
X253376Y68383D01*
X252697Y68664D01*
X252468Y68695D01*
D02*
G37*
G36*
X261705Y68695D02*
X261476Y68664D01*
X260797Y68383D01*
X260214Y67936D01*
X259767Y67353D01*
X259485Y66674D01*
X259455Y66445D01*
X261705D01*
Y68695D01*
D02*
G37*
G36*
X221366D02*
Y66445D01*
X223616D01*
X223586Y66674D01*
X223304Y67353D01*
X222857Y67936D01*
X222274Y68383D01*
X221595Y68664D01*
X221366Y68695D01*
D02*
G37*
G36*
X220366D02*
X220138Y68664D01*
X219459Y68383D01*
X218875Y67936D01*
X218428Y67353D01*
X218147Y66674D01*
X218117Y66445D01*
X220366D01*
Y68695D01*
D02*
G37*
G36*
X157980Y65742D02*
Y63492D01*
X160230D01*
X160200Y63721D01*
X159919Y64400D01*
X159471Y64983D01*
X158888Y65430D01*
X158209Y65712D01*
X157980Y65742D01*
D02*
G37*
G36*
X156980D02*
X156752Y65712D01*
X156073Y65430D01*
X155490Y64983D01*
X155042Y64400D01*
X154761Y63721D01*
X154731Y63492D01*
X156980D01*
Y65742D01*
D02*
G37*
G36*
X264954Y65445D02*
X262705D01*
Y63195D01*
X262933Y63226D01*
X263613Y63507D01*
X264196Y63954D01*
X264643Y64537D01*
X264924Y65216D01*
X264954Y65445D01*
D02*
G37*
G36*
X91035Y66726D02*
X90807Y66696D01*
X90128Y66415D01*
X89545Y65967D01*
X89097Y65384D01*
X88816Y64705D01*
X88786Y64476D01*
X91035D01*
Y66726D01*
D02*
G37*
G36*
X276372Y68398D02*
X274122D01*
Y66148D01*
X274351Y66178D01*
X275030Y66460D01*
X275613Y66907D01*
X276060Y67490D01*
X276342Y68169D01*
X276372Y68398D01*
D02*
G37*
G36*
X273122D02*
X270872D01*
X270903Y68169D01*
X271184Y67490D01*
X271631Y66907D01*
X272214Y66460D01*
X272893Y66178D01*
X273122Y66148D01*
Y68398D01*
D02*
G37*
G36*
X92035Y66726D02*
Y64476D01*
X94285D01*
X94255Y64705D01*
X93974Y65384D01*
X93526Y65967D01*
X92943Y66415D01*
X92264Y66696D01*
X92035Y66726D01*
D02*
G37*
G36*
X262705Y68695D02*
Y66445D01*
X264954D01*
X264924Y66674D01*
X264643Y67353D01*
X264196Y67936D01*
X263613Y68383D01*
X262933Y68664D01*
X262705Y68695D01*
D02*
G37*
G36*
X72835Y84242D02*
X71859Y84048D01*
X71032Y83495D01*
X70480Y82668D01*
X70286Y81693D01*
X70480Y80717D01*
X71032Y79891D01*
X71859Y79338D01*
X72835Y79144D01*
X73810Y79338D01*
X74637Y79891D01*
X75190Y80717D01*
X75384Y81693D01*
X75190Y82668D01*
X74637Y83495D01*
X73810Y84048D01*
X72835Y84242D01*
D02*
G37*
G36*
X26890Y82200D02*
X25836Y82061D01*
X24855Y81655D01*
X24012Y81008D01*
X23365Y80165D01*
X22958Y79183D01*
X22819Y78130D01*
X22958Y77076D01*
X23365Y76095D01*
X24012Y75252D01*
X24855Y74605D01*
X25836Y74198D01*
X26890Y74060D01*
X27943Y74198D01*
X28925Y74605D01*
X29768Y75252D01*
X30415Y76095D01*
X30821Y77076D01*
X30960Y78130D01*
X30821Y79183D01*
X30415Y80165D01*
X29768Y81008D01*
X28925Y81655D01*
X27943Y82061D01*
X26890Y82200D01*
D02*
G37*
G36*
X42398Y77004D02*
X38571D01*
Y73177D01*
X42398D01*
Y77004D01*
D02*
G37*
G36*
X37571Y83083D02*
X33773D01*
X33856Y82453D01*
X34291Y81401D01*
X34985Y80497D01*
X35889Y79803D01*
X36941Y79367D01*
X37571Y79284D01*
Y83083D01*
D02*
G37*
G36*
X38571Y87881D02*
Y84083D01*
X42369D01*
X42286Y84712D01*
X41850Y85765D01*
X41157Y86669D01*
X40253Y87362D01*
X39200Y87798D01*
X38571Y87881D01*
D02*
G37*
G36*
X37571D02*
X36941Y87798D01*
X35889Y87362D01*
X34985Y86669D01*
X34291Y85765D01*
X33856Y84712D01*
X33773Y84083D01*
X37571D01*
Y87881D01*
D02*
G37*
G36*
X42369Y83083D02*
X38571D01*
Y79284D01*
X39200Y79367D01*
X40253Y79803D01*
X41157Y80497D01*
X41850Y81401D01*
X42286Y82453D01*
X42369Y83083D01*
D02*
G37*
G36*
X273122Y71647D02*
X272893Y71617D01*
X272214Y71336D01*
X271631Y70889D01*
X271184Y70305D01*
X270903Y69626D01*
X270872Y69398D01*
X273122D01*
Y71647D01*
D02*
G37*
G36*
X42398Y72177D02*
X38571D01*
Y68350D01*
X42398D01*
Y72177D01*
D02*
G37*
G36*
X37571D02*
X33744D01*
Y68350D01*
X37571D01*
Y72177D01*
D02*
G37*
G36*
X274122Y71647D02*
Y69398D01*
X276372D01*
X276342Y69626D01*
X276060Y70305D01*
X275613Y70889D01*
X275030Y71336D01*
X274351Y71617D01*
X274122Y71647D01*
D02*
G37*
G36*
X37571Y77004D02*
X33744D01*
Y73177D01*
X37571D01*
Y77004D01*
D02*
G37*
G36*
X67429Y71647D02*
Y69398D01*
X69679D01*
X69649Y69626D01*
X69367Y70305D01*
X68920Y70889D01*
X68337Y71336D01*
X67658Y71617D01*
X67429Y71647D01*
D02*
G37*
G36*
X66429D02*
X66201Y71617D01*
X65522Y71336D01*
X64938Y70889D01*
X64491Y70305D01*
X64210Y69626D01*
X64180Y69398D01*
X66429D01*
Y71647D01*
D02*
G37*
G36*
X261705Y65445D02*
X259455D01*
X259485Y65216D01*
X259767Y64537D01*
X260214Y63954D01*
X260797Y63507D01*
X261476Y63226D01*
X261705Y63195D01*
Y65445D01*
D02*
G37*
G36*
X193398Y40151D02*
X193169Y40121D01*
X192490Y39840D01*
X191907Y39392D01*
X191459Y38809D01*
X191178Y38130D01*
X191148Y37902D01*
X193398D01*
Y40151D01*
D02*
G37*
G36*
X42843Y44795D02*
X32980D01*
Y34933D01*
X34108Y35021D01*
X35695Y35402D01*
X37203Y36027D01*
X38594Y36880D01*
X39836Y37940D01*
X40896Y39181D01*
X41749Y40573D01*
X42373Y42081D01*
X42754Y43668D01*
X42843Y44795D01*
D02*
G37*
G36*
X31980D02*
X22118D01*
X22206Y43668D01*
X22587Y42081D01*
X23212Y40573D01*
X24065Y39181D01*
X25125Y37940D01*
X26366Y36880D01*
X27758Y36027D01*
X29266Y35402D01*
X30853Y35021D01*
X31980Y34933D01*
Y44795D01*
D02*
G37*
G36*
X200303Y40151D02*
Y37902D01*
X202553D01*
X202523Y38130D01*
X202241Y38809D01*
X201794Y39392D01*
X201211Y39840D01*
X200532Y40121D01*
X200303Y40151D01*
D02*
G37*
G36*
X106299Y49793D02*
X105324Y49599D01*
X104497Y49047D01*
X103944Y48220D01*
X103750Y47244D01*
X103944Y46269D01*
X104497Y45442D01*
X105324Y44889D01*
X106299Y44695D01*
X107275Y44889D01*
X108102Y45442D01*
X108654Y46269D01*
X108848Y47244D01*
X108654Y48220D01*
X108102Y49047D01*
X107275Y49599D01*
X106299Y49793D01*
D02*
G37*
G36*
X273622Y45856D02*
X272647Y45662D01*
X271820Y45110D01*
X271267Y44283D01*
X271073Y43307D01*
X271267Y42332D01*
X271820Y41505D01*
X272647Y40952D01*
X273622Y40758D01*
X274598Y40952D01*
X275425Y41505D01*
X275977Y42332D01*
X276171Y43307D01*
X275977Y44283D01*
X275425Y45110D01*
X274598Y45662D01*
X273622Y45856D01*
D02*
G37*
G36*
X199303Y40151D02*
X199074Y40121D01*
X198396Y39840D01*
X197812Y39392D01*
X197365Y38809D01*
X197112Y38198D01*
X196850Y38143D01*
X196589Y38198D01*
X196336Y38809D01*
X195888Y39392D01*
X195305Y39840D01*
X194626Y40121D01*
X194398Y40151D01*
Y37402D01*
Y34652D01*
X194626Y34682D01*
X195305Y34963D01*
X195888Y35411D01*
X196336Y35994D01*
X196589Y36606D01*
X196850Y36660D01*
X197112Y36606D01*
X197365Y35994D01*
X197812Y35411D01*
X198396Y34963D01*
X199074Y34682D01*
X199303Y34652D01*
Y37402D01*
Y40151D01*
D02*
G37*
G36*
X144685Y33061D02*
X143710Y32867D01*
X142883Y32314D01*
X142330Y31487D01*
X142136Y30512D01*
X142330Y29536D01*
X142883Y28710D01*
X143710Y28157D01*
X144685Y27963D01*
X145660Y28157D01*
X146487Y28710D01*
X147040Y29536D01*
X147234Y30512D01*
X147040Y31487D01*
X146487Y32314D01*
X145660Y32867D01*
X144685Y33061D01*
D02*
G37*
G36*
X166136Y30012D02*
X163886D01*
Y27762D01*
X164115Y27792D01*
X164794Y28074D01*
X165377Y28521D01*
X165824Y29104D01*
X166105Y29783D01*
X166136Y30012D01*
D02*
G37*
G36*
X162886D02*
X160636D01*
X160666Y29783D01*
X160948Y29104D01*
X161395Y28521D01*
X161978Y28074D01*
X162657Y27792D01*
X162886Y27762D01*
Y30012D01*
D02*
G37*
G36*
Y33261D02*
X162657Y33231D01*
X161978Y32950D01*
X161395Y32503D01*
X160948Y31920D01*
X160666Y31241D01*
X160636Y31012D01*
X162886D01*
Y33261D01*
D02*
G37*
G36*
X202553Y36902D02*
X200303D01*
Y34652D01*
X200532Y34682D01*
X201211Y34963D01*
X201794Y35411D01*
X202241Y35994D01*
X202523Y36673D01*
X202553Y36902D01*
D02*
G37*
G36*
X193398D02*
X191148D01*
X191178Y36673D01*
X191459Y35994D01*
X191907Y35411D01*
X192490Y34963D01*
X193169Y34682D01*
X193398Y34652D01*
Y36902D01*
D02*
G37*
G36*
X163886Y33261D02*
Y31012D01*
X166136D01*
X166105Y31241D01*
X165824Y31920D01*
X165377Y32503D01*
X164794Y32950D01*
X164115Y33231D01*
X163886Y33261D01*
D02*
G37*
G36*
X31980Y55658D02*
X30853Y55569D01*
X29266Y55188D01*
X27758Y54564D01*
X26366Y53711D01*
X25125Y52651D01*
X24065Y51410D01*
X23212Y50018D01*
X22587Y48510D01*
X22206Y46922D01*
X22118Y45795D01*
X31980D01*
Y55658D01*
D02*
G37*
G36*
X94285Y63476D02*
X92035D01*
Y61227D01*
X92264Y61257D01*
X92943Y61538D01*
X93526Y61986D01*
X93974Y62569D01*
X94255Y63248D01*
X94285Y63476D01*
D02*
G37*
G36*
X91035D02*
X88786D01*
X88816Y63248D01*
X89097Y62569D01*
X89545Y61986D01*
X90128Y61538D01*
X90807Y61257D01*
X91035Y61227D01*
Y63476D01*
D02*
G37*
G36*
X112705Y62789D02*
Y60539D01*
X114954D01*
X114924Y60768D01*
X114643Y61447D01*
X114196Y62030D01*
X113612Y62478D01*
X112933Y62759D01*
X112705Y62789D01*
D02*
G37*
G36*
X251468Y65445D02*
X249219D01*
X249249Y65216D01*
X249530Y64537D01*
X249978Y63954D01*
X250561Y63507D01*
X251240Y63225D01*
X251468Y63195D01*
Y65445D01*
D02*
G37*
G36*
X223616Y65445D02*
X221366D01*
Y63195D01*
X221595Y63226D01*
X222274Y63507D01*
X222857Y63954D01*
X223304Y64537D01*
X223586Y65216D01*
X223616Y65445D01*
D02*
G37*
G36*
X220366D02*
X218117D01*
X218147Y65216D01*
X218428Y64537D01*
X218875Y63954D01*
X219459Y63507D01*
X220138Y63226D01*
X220366Y63195D01*
Y65445D01*
D02*
G37*
G36*
X254718Y65445D02*
X252468D01*
Y63195D01*
X252697Y63225D01*
X253376Y63507D01*
X253959Y63954D01*
X254407Y64537D01*
X254688Y65216D01*
X254718Y65445D01*
D02*
G37*
G36*
X114954Y59539D02*
X112705D01*
Y57290D01*
X112933Y57320D01*
X113612Y57601D01*
X114196Y58049D01*
X114643Y58632D01*
X114924Y59311D01*
X114954Y59539D01*
D02*
G37*
G36*
X111705D02*
X109455D01*
X109485Y59311D01*
X109766Y58632D01*
X110214Y58049D01*
X110797Y57601D01*
X111476Y57320D01*
X111705Y57290D01*
Y59539D01*
D02*
G37*
G36*
X32980Y55658D02*
Y45795D01*
X42843D01*
X42754Y46922D01*
X42373Y48510D01*
X41749Y50018D01*
X40896Y51410D01*
X39836Y52651D01*
X38594Y53711D01*
X37203Y54564D01*
X35695Y55188D01*
X34108Y55569D01*
X32980Y55658D01*
D02*
G37*
G36*
X156980Y62492D02*
X154731D01*
X154761Y62264D01*
X155042Y61585D01*
X155490Y61001D01*
X156073Y60554D01*
X156752Y60273D01*
X156980Y60243D01*
Y62492D01*
D02*
G37*
G36*
X111705Y62789D02*
X111476Y62759D01*
X110797Y62478D01*
X110214Y62030D01*
X109766Y61447D01*
X109485Y60768D01*
X109455Y60539D01*
X111705D01*
Y62789D01*
D02*
G37*
G36*
X175197Y65541D02*
X174221Y65347D01*
X173395Y64795D01*
X172842Y63968D01*
X172648Y62992D01*
X172842Y62017D01*
X173395Y61190D01*
X174221Y60637D01*
X175197Y60443D01*
X176172Y60637D01*
X176999Y61190D01*
X177552Y62017D01*
X177746Y62992D01*
X177552Y63968D01*
X176999Y64795D01*
X176172Y65347D01*
X175197Y65541D01*
D02*
G37*
G36*
X160230Y62492D02*
X157980D01*
Y60243D01*
X158209Y60273D01*
X158888Y60554D01*
X159471Y61001D01*
X159919Y61585D01*
X160200Y62264D01*
X160230Y62492D01*
D02*
G37*
G36*
X26890Y93106D02*
X25836Y92967D01*
X24855Y92560D01*
X24012Y91913D01*
X23365Y91070D01*
X22958Y90089D01*
X22819Y89035D01*
X22958Y87982D01*
X23365Y87000D01*
X24012Y86157D01*
X24855Y85510D01*
X25836Y85104D01*
X26890Y84965D01*
X27943Y85104D01*
X28925Y85510D01*
X29768Y86157D01*
X30415Y87000D01*
X30821Y87982D01*
X30960Y89035D01*
X30821Y90089D01*
X30415Y91070D01*
X29768Y91913D01*
X28925Y92560D01*
X27943Y92967D01*
X26890Y93106D01*
D02*
G37*
G36*
X157965Y109736D02*
X155715D01*
X155745Y109508D01*
X156026Y108829D01*
X156474Y108246D01*
X157057Y107798D01*
X157736Y107517D01*
X157965Y107487D01*
Y109736D01*
D02*
G37*
G36*
X26890Y114917D02*
X25836Y114778D01*
X24855Y114371D01*
X24012Y113725D01*
X23365Y112882D01*
X22958Y111900D01*
X22819Y110846D01*
X22958Y109793D01*
X23365Y108811D01*
X24012Y107968D01*
X24855Y107322D01*
X25836Y106915D01*
X26890Y106776D01*
X27943Y106915D01*
X28925Y107322D01*
X29768Y107968D01*
X30415Y108811D01*
X30821Y109793D01*
X30960Y110846D01*
X30821Y111900D01*
X30415Y112882D01*
X29768Y113725D01*
X28925Y114371D01*
X27943Y114778D01*
X26890Y114917D01*
D02*
G37*
G36*
X210033Y108358D02*
X207784D01*
Y106109D01*
X208012Y106139D01*
X208691Y106420D01*
X209274Y106868D01*
X209722Y107451D01*
X210003Y108130D01*
X210033Y108358D01*
D02*
G37*
G36*
X193398Y109736D02*
X191148D01*
X191178Y109508D01*
X191459Y108829D01*
X191907Y108246D01*
X192490Y107798D01*
X193169Y107517D01*
X193398Y107487D01*
Y109736D01*
D02*
G37*
G36*
X244094Y147385D02*
X219488D01*
X218789Y147293D01*
X218138Y147024D01*
X217579Y146595D01*
X217150Y146035D01*
X216880Y145384D01*
X216788Y144685D01*
Y121063D01*
Y96591D01*
X176240Y56043D01*
X175811Y55484D01*
X175541Y54833D01*
X175449Y54134D01*
Y38386D01*
X175541Y37687D01*
X175811Y37036D01*
X176240Y36476D01*
X176799Y36047D01*
X177451Y35778D01*
X178150Y35686D01*
X178849Y35778D01*
X179500Y36047D01*
X180059Y36476D01*
X180488Y37036D01*
X180758Y37687D01*
X180850Y38386D01*
Y53015D01*
X221398Y93563D01*
X221827Y94122D01*
X222018Y94583D01*
X222096Y94774D01*
X222188Y95473D01*
Y108776D01*
X222689Y109023D01*
X223002Y108782D01*
X223681Y108501D01*
X223909Y108471D01*
Y111221D01*
Y113970D01*
X223681Y113940D01*
X223002Y113659D01*
X222689Y113418D01*
X222188Y113665D01*
Y114867D01*
X225684Y118363D01*
X244390D01*
X245089Y118455D01*
X245740Y118725D01*
X246299Y119154D01*
X246728Y119713D01*
X246998Y120364D01*
X247090Y121063D01*
X246998Y121762D01*
X246728Y122413D01*
X246299Y122972D01*
X245740Y123401D01*
X245089Y123671D01*
X244390Y123763D01*
X225684D01*
X222188Y127259D01*
Y141985D01*
X244094D01*
X244793Y142077D01*
X245445Y142347D01*
X246004Y142776D01*
X246433Y143335D01*
X246703Y143986D01*
X246795Y144685D01*
X246703Y145384D01*
X246433Y146035D01*
X246004Y146595D01*
X245445Y147024D01*
X244793Y147293D01*
X244094Y147385D01*
D02*
G37*
G36*
X213583Y112785D02*
X212607Y112591D01*
X211780Y112039D01*
X211228Y111212D01*
X211034Y110236D01*
X211228Y109261D01*
X211780Y108434D01*
X212607Y107881D01*
X213583Y107687D01*
X214558Y107881D01*
X215385Y108434D01*
X215938Y109261D01*
X216132Y110236D01*
X215938Y111212D01*
X215385Y112039D01*
X214558Y112591D01*
X213583Y112785D01*
D02*
G37*
G36*
X196647Y109736D02*
X194398D01*
Y107487D01*
X194626Y107517D01*
X195305Y107798D01*
X195888Y108246D01*
X196336Y108829D01*
X196617Y109508D01*
X196647Y109736D01*
D02*
G37*
G36*
X233752Y105112D02*
X233523Y105082D01*
X232844Y104800D01*
X232261Y104353D01*
X231814Y103770D01*
X231533Y103091D01*
X231502Y102862D01*
X233752D01*
Y105112D01*
D02*
G37*
G36*
X145579Y104521D02*
Y102272D01*
X147828D01*
X147798Y102500D01*
X147517Y103179D01*
X147070Y103762D01*
X146486Y104210D01*
X145808Y104491D01*
X145579Y104521D01*
D02*
G37*
G36*
X144579D02*
X144350Y104491D01*
X143671Y104210D01*
X143088Y103762D01*
X142641Y103179D01*
X142359Y102500D01*
X142329Y102272D01*
X144579D01*
Y104521D01*
D02*
G37*
G36*
X234752Y105112D02*
Y102862D01*
X237002D01*
X236971Y103091D01*
X236690Y103770D01*
X236243Y104353D01*
X235660Y104800D01*
X234981Y105082D01*
X234752Y105112D01*
D02*
G37*
G36*
X206784Y108358D02*
X204534D01*
X204564Y108130D01*
X204845Y107451D01*
X205293Y106868D01*
X205876Y106420D01*
X206555Y106139D01*
X206784Y106109D01*
Y108358D01*
D02*
G37*
G36*
X38571Y109692D02*
Y105894D01*
X42369D01*
X42286Y106523D01*
X41850Y107576D01*
X41157Y108480D01*
X40253Y109173D01*
X39200Y109609D01*
X38571Y109692D01*
D02*
G37*
G36*
X37571D02*
X36941Y109609D01*
X35889Y109173D01*
X34985Y108480D01*
X34291Y107576D01*
X33856Y106523D01*
X33773Y105894D01*
X37571D01*
Y109692D01*
D02*
G37*
G36*
X227159Y110721D02*
X224909D01*
Y108471D01*
X225138Y108501D01*
X225817Y108782D01*
X226400Y109230D01*
X226848Y109813D01*
X227129Y110492D01*
X227159Y110721D01*
D02*
G37*
G36*
X251681Y113970D02*
Y111721D01*
X253931D01*
X253901Y111949D01*
X253619Y112628D01*
X253172Y113211D01*
X252589Y113659D01*
X251910Y113940D01*
X251681Y113970D01*
D02*
G37*
G36*
X250681D02*
X250452Y113940D01*
X249773Y113659D01*
X249190Y113211D01*
X248743Y112628D01*
X248462Y111949D01*
X248431Y111721D01*
X250681D01*
Y113970D01*
D02*
G37*
G36*
X224909D02*
Y111721D01*
X227159D01*
X227129Y111949D01*
X226848Y112628D01*
X226400Y113211D01*
X225817Y113659D01*
X225138Y113940D01*
X224909Y113970D01*
D02*
G37*
G36*
X37571Y115799D02*
X33773D01*
X33856Y115170D01*
X34291Y114117D01*
X34985Y113213D01*
X35889Y112520D01*
X36941Y112084D01*
X37571Y112001D01*
Y115799D01*
D02*
G37*
G36*
Y120598D02*
X36941Y120515D01*
X35889Y120079D01*
X34985Y119385D01*
X34291Y118481D01*
X33856Y117429D01*
X33773Y116799D01*
X37571D01*
Y120598D01*
D02*
G37*
G36*
X130906Y120659D02*
X129930Y120465D01*
X129103Y119913D01*
X128551Y119086D01*
X128357Y118110D01*
X128551Y117135D01*
X129103Y116308D01*
X129930Y115755D01*
X130906Y115561D01*
X131881Y115755D01*
X132708Y116308D01*
X133261Y117135D01*
X133455Y118110D01*
X133261Y119086D01*
X132708Y119913D01*
X131881Y120465D01*
X130906Y120659D01*
D02*
G37*
G36*
X42369Y115799D02*
X38571D01*
Y112001D01*
X39200Y112084D01*
X40253Y112520D01*
X41157Y113213D01*
X41850Y114117D01*
X42286Y115170D01*
X42369Y115799D01*
D02*
G37*
G36*
X206784Y111608D02*
X206555Y111578D01*
X205876Y111297D01*
X205293Y110849D01*
X204845Y110266D01*
X204564Y109587D01*
X204534Y109358D01*
X206784D01*
Y111608D01*
D02*
G37*
G36*
X253931Y110721D02*
X251681D01*
Y108471D01*
X251910Y108501D01*
X252589Y108782D01*
X253172Y109230D01*
X253619Y109813D01*
X253901Y110492D01*
X253931Y110721D01*
D02*
G37*
G36*
X250681D02*
X248431D01*
X248462Y110492D01*
X248743Y109813D01*
X249190Y109230D01*
X249773Y108782D01*
X250452Y108501D01*
X250681Y108471D01*
Y110721D01*
D02*
G37*
G36*
X207784Y111608D02*
Y109358D01*
X210033D01*
X210003Y109587D01*
X209722Y110266D01*
X209274Y110849D01*
X208691Y111297D01*
X208012Y111578D01*
X207784Y111608D01*
D02*
G37*
G36*
X194398Y112986D02*
Y110736D01*
X196647D01*
X196617Y110965D01*
X196336Y111644D01*
X195888Y112227D01*
X195305Y112674D01*
X194626Y112956D01*
X194398Y112986D01*
D02*
G37*
G36*
X193398D02*
X193169Y112956D01*
X192490Y112674D01*
X191907Y112227D01*
X191459Y111644D01*
X191178Y110965D01*
X191148Y110736D01*
X193398D01*
Y112986D01*
D02*
G37*
G36*
X157965D02*
X157736Y112956D01*
X157057Y112674D01*
X156474Y112227D01*
X156026Y111644D01*
X155745Y110965D01*
X155715Y110736D01*
X157965D01*
Y112986D01*
D02*
G37*
G36*
X42369Y104894D02*
X38571D01*
Y101095D01*
X39200Y101178D01*
X40253Y101614D01*
X41157Y102308D01*
X41850Y103212D01*
X42286Y104264D01*
X42369Y104894D01*
D02*
G37*
G36*
X130405Y95269D02*
X130177Y95239D01*
X129498Y94958D01*
X128915Y94511D01*
X128467Y93927D01*
X128186Y93248D01*
X128156Y93020D01*
X130405D01*
Y95269D01*
D02*
G37*
G36*
X112311Y92710D02*
Y90461D01*
X114561D01*
X114531Y90689D01*
X114249Y91368D01*
X113802Y91952D01*
X113219Y92399D01*
X112540Y92680D01*
X112311Y92710D01*
D02*
G37*
G36*
X111311D02*
X111082Y92680D01*
X110403Y92399D01*
X109820Y91952D01*
X109373Y91368D01*
X109092Y90689D01*
X109061Y90461D01*
X111311D01*
Y92710D01*
D02*
G37*
G36*
X131405Y95269D02*
Y93020D01*
X133655D01*
X133625Y93248D01*
X133344Y93927D01*
X132896Y94511D01*
X132313Y94958D01*
X131634Y95239D01*
X131405Y95269D01*
D02*
G37*
G36*
X111311Y97335D02*
X109061D01*
X109092Y97106D01*
X109373Y96427D01*
X109820Y95844D01*
X110403Y95397D01*
X111082Y95115D01*
X111311Y95085D01*
Y97335D01*
D02*
G37*
G36*
X38571Y98786D02*
Y94988D01*
X42369D01*
X42286Y95618D01*
X41850Y96670D01*
X41157Y97574D01*
X40253Y98268D01*
X39200Y98704D01*
X38571Y98786D01*
D02*
G37*
G36*
X37571D02*
X36941Y98704D01*
X35889Y98268D01*
X34985Y97574D01*
X34291Y96670D01*
X33856Y95618D01*
X33773Y94988D01*
X37571D01*
Y98786D01*
D02*
G37*
G36*
X114561Y89461D02*
X112311D01*
Y87211D01*
X112540Y87241D01*
X113219Y87522D01*
X113802Y87970D01*
X114249Y88553D01*
X114531Y89232D01*
X114561Y89461D01*
D02*
G37*
G36*
X111311D02*
X109061D01*
X109092Y89232D01*
X109373Y88553D01*
X109820Y87970D01*
X110403Y87522D01*
X111082Y87241D01*
X111311Y87211D01*
Y89461D01*
D02*
G37*
G36*
X125000Y86211D02*
X124025Y86016D01*
X123314Y85542D01*
X122246Y85187D01*
X116928D01*
X115859Y85542D01*
X115149Y86016D01*
X114173Y86211D01*
X113198Y86016D01*
X112371Y85464D01*
X111818Y84637D01*
X111624Y83662D01*
X111818Y82686D01*
X112371Y81859D01*
X113198Y81306D01*
X114173Y81112D01*
X115149Y81306D01*
X115859Y81781D01*
X116928Y82136D01*
X122246D01*
X123314Y81781D01*
X124025Y81306D01*
X125000Y81112D01*
X125976Y81306D01*
X126802Y81859D01*
X127355Y82686D01*
X127549Y83662D01*
X127355Y84637D01*
X126802Y85464D01*
X125976Y86016D01*
X125000Y86211D01*
D02*
G37*
G36*
X130405Y92020D02*
X128156D01*
X128186Y91791D01*
X128467Y91112D01*
X128915Y90529D01*
X129498Y90082D01*
X130177Y89800D01*
X130405Y89770D01*
Y92020D01*
D02*
G37*
G36*
X42369Y93988D02*
X38571D01*
Y90190D01*
X39200Y90273D01*
X40253Y90709D01*
X41157Y91402D01*
X41850Y92306D01*
X42286Y93359D01*
X42369Y93988D01*
D02*
G37*
G36*
X37571D02*
X33773D01*
X33856Y93359D01*
X34291Y92306D01*
X34985Y91402D01*
X35889Y90709D01*
X36941Y90273D01*
X37571Y90190D01*
Y93988D01*
D02*
G37*
G36*
X133655Y92020D02*
X131405D01*
Y89770D01*
X131634Y89800D01*
X132313Y90082D01*
X132896Y90529D01*
X133344Y91112D01*
X133625Y91791D01*
X133655Y92020D01*
D02*
G37*
G36*
X114561Y97335D02*
X112311D01*
Y95085D01*
X112540Y95115D01*
X113219Y95397D01*
X113802Y95844D01*
X114249Y96427D01*
X114531Y97106D01*
X114561Y97335D01*
D02*
G37*
G36*
X237002Y101862D02*
X234752D01*
Y99613D01*
X234981Y99643D01*
X235660Y99924D01*
X236243Y100371D01*
X236690Y100954D01*
X236971Y101634D01*
X237002Y101862D01*
D02*
G37*
G36*
X233752D02*
X231502D01*
X231533Y101634D01*
X231814Y100954D01*
X232261Y100371D01*
X232844Y99924D01*
X233523Y99643D01*
X233752Y99613D01*
Y101862D01*
D02*
G37*
G36*
X147828Y101272D02*
X145579D01*
Y99022D01*
X145808Y99052D01*
X146486Y99334D01*
X147070Y99781D01*
X147517Y100364D01*
X147798Y101043D01*
X147828Y101272D01*
D02*
G37*
G36*
X157965Y103143D02*
X157736Y103113D01*
X157057Y102832D01*
X156474Y102385D01*
X156026Y101802D01*
X155745Y101122D01*
X155715Y100894D01*
X157965D01*
Y103143D01*
D02*
G37*
G36*
X37571Y104894D02*
X33773D01*
X33856Y104264D01*
X34291Y103212D01*
X34985Y102308D01*
X35889Y101614D01*
X36941Y101178D01*
X37571Y101095D01*
Y104894D01*
D02*
G37*
G36*
X194398Y103143D02*
Y100894D01*
X196647D01*
X196617Y101122D01*
X196336Y101802D01*
X195888Y102385D01*
X195305Y102832D01*
X194626Y103113D01*
X194398Y103143D01*
D02*
G37*
G36*
X193398D02*
X193169Y103113D01*
X192490Y102832D01*
X191907Y102385D01*
X191459Y101802D01*
X191178Y101122D01*
X191148Y100894D01*
X193398D01*
Y103143D01*
D02*
G37*
G36*
Y99894D02*
X191148D01*
X191178Y99665D01*
X191459Y98986D01*
X191907Y98403D01*
X192490Y97956D01*
X193169Y97674D01*
X193398Y97644D01*
Y99894D01*
D02*
G37*
G36*
X157965D02*
X155715D01*
X155745Y99665D01*
X156026Y98986D01*
X156474Y98403D01*
X157057Y97956D01*
X157736Y97674D01*
X157965Y97644D01*
Y99894D01*
D02*
G37*
G36*
X26890Y104011D02*
X25836Y103873D01*
X24855Y103466D01*
X24012Y102819D01*
X23365Y101976D01*
X22958Y100994D01*
X22819Y99941D01*
X22958Y98887D01*
X23365Y97906D01*
X24012Y97063D01*
X24855Y96416D01*
X25836Y96009D01*
X26890Y95871D01*
X27943Y96009D01*
X28925Y96416D01*
X29768Y97063D01*
X30415Y97906D01*
X30821Y98887D01*
X30960Y99941D01*
X30821Y100994D01*
X30415Y101976D01*
X29768Y102819D01*
X28925Y103466D01*
X27943Y103873D01*
X26890Y104011D01*
D02*
G37*
G36*
X196647Y99894D02*
X194398D01*
Y97644D01*
X194626Y97674D01*
X195305Y97956D01*
X195888Y98403D01*
X196336Y98986D01*
X196617Y99665D01*
X196647Y99894D01*
D02*
G37*
G36*
X144579Y101272D02*
X142329D01*
X142359Y101043D01*
X142641Y100364D01*
X143088Y99781D01*
X143671Y99334D01*
X144350Y99052D01*
X144579Y99022D01*
Y101272D01*
D02*
G37*
G36*
X112311Y100584D02*
Y98335D01*
X114561D01*
X114531Y98563D01*
X114249Y99242D01*
X113802Y99826D01*
X113219Y100273D01*
X112540Y100554D01*
X112311Y100584D01*
D02*
G37*
G36*
X111311D02*
X111082Y100554D01*
X110403Y100273D01*
X109820Y99826D01*
X109373Y99242D01*
X109092Y98563D01*
X109061Y98335D01*
X111311D01*
Y100584D01*
D02*
G37*
G36*
X264264Y266232D02*
X262014D01*
X262044Y266004D01*
X262326Y265325D01*
X262773Y264741D01*
X263356Y264294D01*
X264035Y264013D01*
X264264Y263983D01*
Y266232D01*
D02*
G37*
G36*
X138295Y265151D02*
Y262902D01*
X140545D01*
X140515Y263130D01*
X140234Y263809D01*
X139786Y264392D01*
X139203Y264840D01*
X138524Y265121D01*
X138295Y265151D01*
D02*
G37*
G36*
X137295D02*
X137067Y265121D01*
X136388Y264840D01*
X135804Y264392D01*
X135357Y263809D01*
X135076Y263130D01*
X135046Y262902D01*
X137295D01*
Y265151D01*
D02*
G37*
G36*
X267513Y266232D02*
X265264D01*
Y263983D01*
X265493Y264013D01*
X266172Y264294D01*
X266755Y264741D01*
X267202Y265325D01*
X267483Y266004D01*
X267513Y266232D01*
D02*
G37*
G36*
X207193Y268498D02*
Y266248D01*
X209443D01*
X209413Y266477D01*
X209131Y267156D01*
X208684Y267739D01*
X208101Y268186D01*
X207422Y268468D01*
X207193Y268498D01*
D02*
G37*
G36*
X206193D02*
X205964Y268468D01*
X205285Y268186D01*
X204702Y267739D01*
X204255Y267156D01*
X203974Y266477D01*
X203943Y266248D01*
X206193D01*
Y268498D01*
D02*
G37*
G36*
X272138Y266232D02*
X269888D01*
X269918Y266004D01*
X270200Y265325D01*
X270647Y264741D01*
X271230Y264294D01*
X271909Y264013D01*
X272138Y263983D01*
Y266232D01*
D02*
G37*
G36*
X119595Y314758D02*
Y312508D01*
X121844D01*
X121814Y312737D01*
X121533Y313416D01*
X121085Y313999D01*
X120502Y314446D01*
X119823Y314727D01*
X119595Y314758D01*
D02*
G37*
G36*
X150091Y315151D02*
X149862Y315121D01*
X149183Y314840D01*
X148600Y314392D01*
X148152Y313809D01*
X147871Y313130D01*
X147841Y312902D01*
X150091D01*
Y315151D01*
D02*
G37*
G36*
X96457Y263966D02*
X95481Y263772D01*
X94654Y263220D01*
X94102Y262393D01*
X93908Y261417D01*
X94102Y260442D01*
X94654Y259615D01*
X95481Y259062D01*
X96457Y258868D01*
X97432Y259062D01*
X98259Y259615D01*
X98812Y260442D01*
X99006Y261417D01*
X98812Y262393D01*
X98259Y263220D01*
X97432Y263772D01*
X96457Y263966D01*
D02*
G37*
G36*
X309697Y265575D02*
X309165Y265505D01*
X308204Y265106D01*
X307378Y264473D01*
X306744Y263647D01*
X306346Y262685D01*
X306276Y262154D01*
X309697D01*
Y265575D01*
D02*
G37*
G36*
X38571Y266267D02*
Y262469D01*
X42369D01*
X42286Y263098D01*
X41850Y264151D01*
X41157Y265054D01*
X40253Y265748D01*
X39200Y266184D01*
X38571Y266267D01*
D02*
G37*
G36*
X37571D02*
X36941Y266184D01*
X35889Y265748D01*
X34985Y265054D01*
X34291Y264151D01*
X33856Y263098D01*
X33773Y262469D01*
X37571D01*
Y266267D01*
D02*
G37*
G36*
X310697Y265575D02*
Y262154D01*
X314118D01*
X314048Y262685D01*
X313650Y263647D01*
X313016Y264473D01*
X312190Y265106D01*
X311229Y265505D01*
X310697Y265575D01*
D02*
G37*
G36*
X214067Y268498D02*
X213838Y268468D01*
X213159Y268186D01*
X212576Y267739D01*
X212129Y267156D01*
X211847Y266477D01*
X211817Y266248D01*
X214067D01*
Y268498D01*
D02*
G37*
G36*
X232768Y271154D02*
X230518D01*
X230548Y270925D01*
X230830Y270246D01*
X231277Y269663D01*
X231860Y269215D01*
X232539Y268934D01*
X232768Y268904D01*
Y271154D01*
D02*
G37*
G36*
X228143D02*
X225894D01*
Y268904D01*
X226122Y268934D01*
X226801Y269215D01*
X227385Y269663D01*
X227832Y270246D01*
X228113Y270925D01*
X228143Y271154D01*
D02*
G37*
G36*
X224894D02*
X222644D01*
X222674Y270925D01*
X222955Y270246D01*
X223403Y269663D01*
X223986Y269215D01*
X224665Y268934D01*
X224894Y268904D01*
Y271154D01*
D02*
G37*
G36*
X236017D02*
X233768D01*
Y268904D01*
X233997Y268934D01*
X234676Y269215D01*
X235259Y269663D01*
X235706Y270246D01*
X235987Y270925D01*
X236017Y271154D01*
D02*
G37*
G36*
X101862Y273713D02*
X99613D01*
X99643Y273484D01*
X99924Y272805D01*
X100371Y272222D01*
X100954Y271774D01*
X101634Y271493D01*
X101862Y271463D01*
Y273713D01*
D02*
G37*
G36*
X142513Y271744D02*
X140264D01*
Y269495D01*
X140492Y269525D01*
X141172Y269806D01*
X141755Y270253D01*
X142202Y270836D01*
X142483Y271515D01*
X142513Y271744D01*
D02*
G37*
G36*
X139264D02*
X137014D01*
X137044Y271515D01*
X137326Y270836D01*
X137773Y270253D01*
X138356Y269806D01*
X139035Y269525D01*
X139264Y269495D01*
Y271744D01*
D02*
G37*
G36*
X265264Y269482D02*
Y267232D01*
X267513D01*
X267483Y267461D01*
X267202Y268140D01*
X266755Y268723D01*
X266172Y269171D01*
X265493Y269452D01*
X265264Y269482D01*
D02*
G37*
G36*
X264264D02*
X264035Y269452D01*
X263356Y269171D01*
X262773Y268723D01*
X262326Y268140D01*
X262044Y267461D01*
X262014Y267232D01*
X264264D01*
Y269482D01*
D02*
G37*
G36*
X215067Y268498D02*
Y266248D01*
X217317D01*
X217286Y266477D01*
X217005Y267156D01*
X216558Y267739D01*
X215975Y268186D01*
X215296Y268468D01*
X215067Y268498D01*
D02*
G37*
G36*
X272138Y269482D02*
X271909Y269452D01*
X271230Y269171D01*
X270647Y268723D01*
X270200Y268140D01*
X269918Y267461D01*
X269888Y267232D01*
X272138D01*
Y269482D01*
D02*
G37*
G36*
X303858Y275315D02*
X296535D01*
Y267992D01*
X303858D01*
Y275315D01*
D02*
G37*
G36*
X314118Y271154D02*
X310697D01*
Y267733D01*
X311229Y267803D01*
X312190Y268201D01*
X313016Y268834D01*
X313650Y269660D01*
X314048Y270622D01*
X314118Y271154D01*
D02*
G37*
G36*
X309697D02*
X306276D01*
X306346Y270622D01*
X306744Y269660D01*
X307378Y268834D01*
X308204Y268201D01*
X309165Y267803D01*
X309697Y267733D01*
Y271154D01*
D02*
G37*
G36*
X158965Y315151D02*
Y312902D01*
X161214D01*
X161184Y313130D01*
X160903Y313809D01*
X160455Y314392D01*
X159872Y314840D01*
X159193Y315121D01*
X158965Y315151D01*
D02*
G37*
G36*
X75287Y315445D02*
X73038D01*
X73068Y315216D01*
X73349Y314537D01*
X73797Y313954D01*
X74380Y313507D01*
X75059Y313226D01*
X75287Y313195D01*
Y315445D01*
D02*
G37*
G36*
X84443D02*
X82193D01*
Y313195D01*
X82422Y313226D01*
X83101Y313507D01*
X83684Y313954D01*
X84131Y314537D01*
X84412Y315216D01*
X84443Y315445D01*
D02*
G37*
G36*
X101862Y249797D02*
X101634Y249767D01*
X100954Y249485D01*
X100371Y249038D01*
X99924Y248455D01*
X99643Y247776D01*
X99613Y247547D01*
X101862D01*
Y249797D01*
D02*
G37*
G36*
X157965Y315151D02*
X157736Y315121D01*
X157057Y314840D01*
X156474Y314392D01*
X156026Y313809D01*
X155745Y313130D01*
X155715Y312902D01*
X157965D01*
Y315151D01*
D02*
G37*
G36*
X309697Y251154D02*
X306276D01*
X306346Y250622D01*
X306744Y249660D01*
X307378Y248834D01*
X308204Y248201D01*
X309165Y247803D01*
X309697Y247733D01*
Y251154D01*
D02*
G37*
G36*
X102862Y249797D02*
Y247547D01*
X105112D01*
X105082Y247776D01*
X104800Y248455D01*
X104353Y249038D01*
X103770Y249485D01*
X103091Y249767D01*
X102862Y249797D01*
D02*
G37*
G36*
X238689Y248813D02*
Y246563D01*
X240939D01*
X240909Y246792D01*
X240627Y247471D01*
X240180Y248054D01*
X239597Y248501D01*
X238918Y248782D01*
X238689Y248813D01*
D02*
G37*
G36*
X237689D02*
X237460Y248782D01*
X236781Y248501D01*
X236198Y248054D01*
X235751Y247471D01*
X235470Y246792D01*
X235439Y246563D01*
X237689D01*
Y248813D01*
D02*
G37*
G36*
X105112Y246547D02*
X102862D01*
Y244298D01*
X103091Y244328D01*
X103770Y244609D01*
X104353Y245057D01*
X104800Y245640D01*
X105082Y246319D01*
X105112Y246547D01*
D02*
G37*
G36*
X104815Y315445D02*
X102565D01*
X102595Y315216D01*
X102877Y314537D01*
X103324Y313954D01*
X103907Y313507D01*
X104586Y313226D01*
X104815Y313195D01*
Y315445D01*
D02*
G37*
G36*
X64685Y279410D02*
X57362D01*
Y274244D01*
X50103Y266984D01*
X49772Y266489D01*
X49656Y265906D01*
Y252754D01*
X49301Y251686D01*
X48826Y250975D01*
X48632Y250000D01*
X48826Y249025D01*
X49379Y248198D01*
X50206Y247645D01*
X51181Y247451D01*
X52157Y247645D01*
X52984Y248198D01*
X53536Y249025D01*
X53730Y250000D01*
X53536Y250975D01*
X53061Y251686D01*
X52706Y252754D01*
Y265274D01*
X59519Y272087D01*
X64685D01*
Y279410D01*
D02*
G37*
G36*
X42369Y250563D02*
X38571D01*
Y246765D01*
X39200Y246848D01*
X40253Y247284D01*
X41157Y247977D01*
X41850Y248881D01*
X42286Y249934D01*
X42369Y250563D01*
D02*
G37*
G36*
X37571D02*
X33773D01*
X33856Y249934D01*
X34291Y248881D01*
X34985Y247977D01*
X35889Y247284D01*
X36941Y246848D01*
X37571Y246765D01*
Y250563D01*
D02*
G37*
G36*
X314118Y251154D02*
X310697D01*
Y247733D01*
X311229Y247803D01*
X312190Y248201D01*
X313016Y248834D01*
X313650Y249660D01*
X314048Y250622D01*
X314118Y251154D01*
D02*
G37*
G36*
X248532Y257671D02*
Y255421D01*
X250781D01*
X250751Y255650D01*
X250470Y256329D01*
X250022Y256912D01*
X249439Y257360D01*
X248760Y257641D01*
X248532Y257671D01*
D02*
G37*
G36*
X247532D02*
X247303Y257641D01*
X246624Y257360D01*
X246041Y256912D01*
X245593Y256329D01*
X245312Y255650D01*
X245282Y255421D01*
X247532D01*
Y257671D01*
D02*
G37*
G36*
X26890Y260586D02*
X25836Y260447D01*
X24855Y260041D01*
X24012Y259394D01*
X23365Y258551D01*
X22958Y257569D01*
X22819Y256516D01*
X22958Y255462D01*
X23365Y254481D01*
X24012Y253638D01*
X24855Y252991D01*
X25836Y252584D01*
X26890Y252446D01*
X27943Y252584D01*
X28925Y252991D01*
X29768Y253638D01*
X30415Y254481D01*
X30821Y255462D01*
X30960Y256516D01*
X30821Y257569D01*
X30415Y258551D01*
X29768Y259394D01*
X28925Y260041D01*
X27943Y260447D01*
X26890Y260586D01*
D02*
G37*
G36*
X37571Y261469D02*
X33773D01*
X33856Y260839D01*
X34291Y259786D01*
X34985Y258883D01*
X35889Y258189D01*
X36941Y257753D01*
X37571Y257670D01*
Y261469D01*
D02*
G37*
G36*
X314118Y261154D02*
X310697D01*
Y257733D01*
X311229Y257803D01*
X312190Y258201D01*
X313016Y258835D01*
X313650Y259660D01*
X314048Y260622D01*
X314118Y261154D01*
D02*
G37*
G36*
X309697D02*
X306276D01*
X306346Y260622D01*
X306744Y259660D01*
X307378Y258835D01*
X308204Y258201D01*
X309165Y257803D01*
X309697Y257733D01*
Y261154D01*
D02*
G37*
G36*
X42369Y261469D02*
X38571D01*
Y257670D01*
X39200Y257753D01*
X40253Y258189D01*
X41157Y258883D01*
X41850Y259786D01*
X42286Y260839D01*
X42369Y261469D01*
D02*
G37*
G36*
X38571Y255361D02*
Y251563D01*
X42369D01*
X42286Y252192D01*
X41850Y253245D01*
X41157Y254149D01*
X40253Y254842D01*
X39200Y255278D01*
X38571Y255361D01*
D02*
G37*
G36*
X37571D02*
X36941Y255278D01*
X35889Y254842D01*
X34985Y254149D01*
X34291Y253245D01*
X33856Y252192D01*
X33773Y251563D01*
X37571D01*
Y255361D01*
D02*
G37*
G36*
X151091Y315151D02*
Y312902D01*
X153340D01*
X153310Y313130D01*
X153029Y313809D01*
X152581Y314392D01*
X151998Y314840D01*
X151319Y315121D01*
X151091Y315151D01*
D02*
G37*
G36*
X309697Y255575D02*
X309165Y255505D01*
X308204Y255106D01*
X307378Y254473D01*
X306744Y253647D01*
X306346Y252685D01*
X306276Y252154D01*
X309697D01*
Y255575D01*
D02*
G37*
G36*
X250781Y254421D02*
X248532D01*
Y252172D01*
X248760Y252202D01*
X249439Y252483D01*
X250022Y252930D01*
X250470Y253514D01*
X250751Y254193D01*
X250781Y254421D01*
D02*
G37*
G36*
X247532D02*
X245282D01*
X245312Y254193D01*
X245593Y253514D01*
X246041Y252930D01*
X246624Y252483D01*
X247303Y252202D01*
X247532Y252172D01*
Y254421D01*
D02*
G37*
G36*
X310697Y255575D02*
Y252154D01*
X314118D01*
X314048Y252685D01*
X313650Y253647D01*
X313016Y254473D01*
X312190Y255106D01*
X311229Y255505D01*
X310697Y255575D01*
D02*
G37*
G36*
X105112Y273713D02*
X102862D01*
Y271463D01*
X103091Y271493D01*
X103770Y271774D01*
X104353Y272222D01*
X104800Y272805D01*
X105082Y273484D01*
X105112Y273713D01*
D02*
G37*
G36*
X232992Y304843D02*
X225669D01*
Y297520D01*
X232992D01*
Y304843D01*
D02*
G37*
G36*
X259331Y304874D02*
X258375Y304748D01*
X257484Y304379D01*
X256719Y303793D01*
X256133Y303028D01*
X255764Y302137D01*
X255638Y301181D01*
X255764Y300225D01*
X256133Y299335D01*
X256719Y298570D01*
X257484Y297983D01*
X258375Y297614D01*
X259331Y297488D01*
X260287Y297614D01*
X261177Y297983D01*
X261942Y298570D01*
X262529Y299335D01*
X262898Y300225D01*
X263024Y301181D01*
X262898Y302137D01*
X262529Y303028D01*
X261942Y303793D01*
X261177Y304379D01*
X260287Y304748D01*
X259331Y304874D01*
D02*
G37*
G36*
X249331D02*
X248375Y304748D01*
X247484Y304379D01*
X246719Y303793D01*
X246132Y303028D01*
X245764Y302137D01*
X245638Y301181D01*
X245764Y300225D01*
X246132Y299335D01*
X246719Y298570D01*
X247484Y297983D01*
X248375Y297614D01*
X249331Y297488D01*
X250287Y297614D01*
X251177Y297983D01*
X251942Y298570D01*
X252529Y299335D01*
X252898Y300225D01*
X253024Y301181D01*
X252898Y302137D01*
X252529Y303028D01*
X251942Y303793D01*
X251177Y304379D01*
X250287Y304748D01*
X249331Y304874D01*
D02*
G37*
G36*
X268831Y305102D02*
X268299Y305032D01*
X267337Y304634D01*
X266512Y304000D01*
X265878Y303175D01*
X265480Y302213D01*
X265410Y301681D01*
X268831D01*
Y305102D01*
D02*
G37*
G36*
X191726Y311508D02*
X189476D01*
Y309258D01*
X189705Y309288D01*
X190384Y309570D01*
X190967Y310017D01*
X191415Y310600D01*
X191696Y311279D01*
X191726Y311508D01*
D02*
G37*
G36*
X188476D02*
X186227D01*
X186257Y311279D01*
X186538Y310600D01*
X186986Y310017D01*
X187569Y309570D01*
X188248Y309288D01*
X188476Y309258D01*
Y311508D01*
D02*
G37*
G36*
X269831Y305102D02*
Y301681D01*
X273252D01*
X273182Y302213D01*
X272783Y303175D01*
X272150Y304000D01*
X271324Y304634D01*
X270363Y305032D01*
X269831Y305102D01*
D02*
G37*
G36*
X150591Y296840D02*
X149615Y296646D01*
X148788Y296094D01*
X148236Y295267D01*
X148042Y294291D01*
X148236Y293316D01*
X148788Y292489D01*
X149615Y291936D01*
X150591Y291742D01*
X151566Y291936D01*
X152393Y292489D01*
X152946Y293316D01*
X153140Y294291D01*
X152946Y295267D01*
X152393Y296094D01*
X151566Y296646D01*
X150591Y296840D01*
D02*
G37*
G36*
X158465Y296840D02*
X157489Y296646D01*
X156662Y296094D01*
X156110Y295267D01*
X155916Y294291D01*
X156110Y293316D01*
X156662Y292489D01*
X157489Y291936D01*
X158465Y291742D01*
X159440Y291936D01*
X160267Y292489D01*
X160820Y293316D01*
X161014Y294291D01*
X160820Y295267D01*
X160267Y296094D01*
X159440Y296646D01*
X158465Y296840D01*
D02*
G37*
G36*
X32980Y299713D02*
Y289850D01*
X42843D01*
X42754Y290978D01*
X42373Y292565D01*
X41749Y294073D01*
X40896Y295465D01*
X39836Y296706D01*
X38594Y297766D01*
X37203Y298619D01*
X35695Y299243D01*
X34108Y299624D01*
X32980Y299713D01*
D02*
G37*
G36*
X67913Y296840D02*
X66938Y296646D01*
X66111Y296094D01*
X65558Y295267D01*
X65364Y294291D01*
X65558Y293316D01*
X66111Y292489D01*
X66938Y291936D01*
X67913Y291742D01*
X68889Y291936D01*
X69716Y292489D01*
X70268Y293316D01*
X70462Y294291D01*
X70268Y295267D01*
X69716Y296094D01*
X68889Y296646D01*
X67913Y296840D01*
D02*
G37*
G36*
X273252Y300681D02*
X269831D01*
Y297260D01*
X270363Y297330D01*
X271324Y297728D01*
X272150Y298362D01*
X272783Y299188D01*
X273182Y300149D01*
X273252Y300681D01*
D02*
G37*
G36*
X268831D02*
X265410D01*
X265480Y300149D01*
X265878Y299188D01*
X266512Y298362D01*
X267337Y297728D01*
X268299Y297330D01*
X268831Y297260D01*
Y300681D01*
D02*
G37*
G36*
X119095Y296840D02*
X118119Y296646D01*
X117292Y296094D01*
X116740Y295267D01*
X116545Y294291D01*
X116740Y293316D01*
X117292Y292489D01*
X118119Y291936D01*
X119095Y291742D01*
X120070Y291936D01*
X120897Y292489D01*
X121449Y293316D01*
X121643Y294291D01*
X121449Y295267D01*
X120897Y296094D01*
X120070Y296646D01*
X119095Y296840D01*
D02*
G37*
G36*
X196351Y311508D02*
X194101D01*
X194131Y311279D01*
X194412Y310600D01*
X194860Y310017D01*
X195443Y309570D01*
X196122Y309288D01*
X196351Y309258D01*
Y311508D01*
D02*
G37*
G36*
X188476Y314757D02*
X188248Y314727D01*
X187569Y314446D01*
X186986Y313999D01*
X186538Y313416D01*
X186257Y312737D01*
X186227Y312508D01*
X188476D01*
Y314757D01*
D02*
G37*
G36*
X161214Y311902D02*
X158965D01*
Y309652D01*
X159193Y309682D01*
X159872Y309963D01*
X160455Y310411D01*
X160903Y310994D01*
X161184Y311673D01*
X161214Y311902D01*
D02*
G37*
G36*
X157965D02*
X155715D01*
X155745Y311673D01*
X156026Y310994D01*
X156474Y310411D01*
X157057Y309963D01*
X157736Y309682D01*
X157965Y309652D01*
Y311902D01*
D02*
G37*
G36*
X189476Y314757D02*
Y312508D01*
X191726D01*
X191696Y312737D01*
X191415Y313416D01*
X190967Y313999D01*
X190384Y314446D01*
X189705Y314727D01*
X189476Y314757D01*
D02*
G37*
G36*
X67413Y314758D02*
X67185Y314727D01*
X66506Y314446D01*
X65923Y313999D01*
X65475Y313416D01*
X65194Y312737D01*
X65164Y312508D01*
X67413D01*
Y314758D01*
D02*
G37*
G36*
X197351Y314757D02*
Y312508D01*
X199600D01*
X199570Y312737D01*
X199289Y313416D01*
X198841Y313999D01*
X198258Y314446D01*
X197579Y314727D01*
X197351Y314757D01*
D02*
G37*
G36*
X196351D02*
X196122Y314727D01*
X195443Y314446D01*
X194860Y313999D01*
X194412Y313416D01*
X194131Y312737D01*
X194101Y312508D01*
X196351D01*
Y314757D01*
D02*
G37*
G36*
X70663Y311508D02*
X68413D01*
Y309258D01*
X68642Y309289D01*
X69321Y309570D01*
X69904Y310017D01*
X70352Y310600D01*
X70633Y311279D01*
X70663Y311508D01*
D02*
G37*
G36*
X67413D02*
X65164D01*
X65194Y311279D01*
X65475Y310600D01*
X65923Y310017D01*
X66506Y309570D01*
X67185Y309289D01*
X67413Y309258D01*
Y311508D01*
D02*
G37*
G36*
X199600Y311508D02*
X197351D01*
Y309258D01*
X197579Y309288D01*
X198258Y309570D01*
X198841Y310017D01*
X199289Y310600D01*
X199570Y311279D01*
X199600Y311508D01*
D02*
G37*
G36*
X118595Y311508D02*
X116345D01*
X116375Y311279D01*
X116656Y310600D01*
X117104Y310017D01*
X117687Y309570D01*
X118366Y309289D01*
X118595Y309258D01*
Y311508D01*
D02*
G37*
G36*
X153340Y311902D02*
X151091D01*
Y309652D01*
X151319Y309682D01*
X151998Y309963D01*
X152581Y310411D01*
X153029Y310994D01*
X153310Y311673D01*
X153340Y311902D01*
D02*
G37*
G36*
X150091D02*
X147841D01*
X147871Y311673D01*
X148152Y310994D01*
X148600Y310411D01*
X149183Y309963D01*
X149862Y309682D01*
X150091Y309652D01*
Y311902D01*
D02*
G37*
G36*
X121844Y311508D02*
X119595D01*
Y309258D01*
X119823Y309289D01*
X120502Y309570D01*
X121085Y310017D01*
X121533Y310600D01*
X121814Y311279D01*
X121844Y311508D01*
D02*
G37*
G36*
X101862Y276962D02*
X101634Y276932D01*
X100954Y276651D01*
X100371Y276203D01*
X99924Y275620D01*
X99643Y274941D01*
X99613Y274713D01*
X101862D01*
Y276962D01*
D02*
G37*
G36*
X140264Y274994D02*
Y272744D01*
X142513D01*
X142483Y272973D01*
X142202Y273652D01*
X141755Y274235D01*
X141172Y274682D01*
X140492Y274964D01*
X140264Y274994D01*
D02*
G37*
G36*
X139264D02*
X139035Y274964D01*
X138356Y274682D01*
X137773Y274235D01*
X137326Y273652D01*
X137044Y272973D01*
X137014Y272744D01*
X139264D01*
Y274994D01*
D02*
G37*
G36*
X102862Y276962D02*
Y274713D01*
X105112D01*
X105082Y274941D01*
X104800Y275620D01*
X104353Y276203D01*
X103770Y276651D01*
X103091Y276932D01*
X102862Y276962D01*
D02*
G37*
G36*
X180899Y278043D02*
X178650D01*
Y275794D01*
X178878Y275824D01*
X179557Y276105D01*
X180140Y276553D01*
X180588Y277136D01*
X180869Y277815D01*
X180899Y278043D01*
D02*
G37*
G36*
X177650D02*
X175400D01*
X175430Y277815D01*
X175711Y277136D01*
X176159Y276553D01*
X176742Y276105D01*
X177421Y275824D01*
X177650Y275794D01*
Y278043D01*
D02*
G37*
G36*
X126969Y280699D02*
X125993Y280505D01*
X125166Y279952D01*
X124614Y279125D01*
X124420Y278150D01*
X124614Y277174D01*
X125166Y276347D01*
X125993Y275795D01*
X126969Y275601D01*
X127944Y275795D01*
X128771Y276347D01*
X129323Y277174D01*
X129517Y278150D01*
X129323Y279125D01*
X128771Y279952D01*
X127944Y280505D01*
X126969Y280699D01*
D02*
G37*
G36*
X310697Y275575D02*
Y272154D01*
X314118D01*
X314048Y272686D01*
X313650Y273647D01*
X313016Y274473D01*
X312190Y275106D01*
X311229Y275505D01*
X310697Y275575D01*
D02*
G37*
G36*
X309697D02*
X309165Y275505D01*
X308204Y275106D01*
X307378Y274473D01*
X306744Y273647D01*
X306346Y272686D01*
X306276Y272154D01*
X309697D01*
Y275575D01*
D02*
G37*
G36*
X85354Y279252D02*
X78032D01*
Y271929D01*
X85354D01*
Y279252D01*
D02*
G37*
G36*
X224894Y274403D02*
X224665Y274373D01*
X223986Y274092D01*
X223403Y273644D01*
X222955Y273061D01*
X222674Y272382D01*
X222644Y272154D01*
X224894D01*
Y274403D01*
D02*
G37*
G36*
X233768D02*
Y272154D01*
X236017D01*
X235987Y272382D01*
X235706Y273061D01*
X235259Y273644D01*
X234676Y274092D01*
X233997Y274373D01*
X233768Y274403D01*
D02*
G37*
G36*
X232768D02*
X232539Y274373D01*
X231860Y274092D01*
X231277Y273644D01*
X230830Y273061D01*
X230548Y272382D01*
X230518Y272154D01*
X232768D01*
Y274403D01*
D02*
G37*
G36*
X225894D02*
Y272154D01*
X228143D01*
X228113Y272382D01*
X227832Y273061D01*
X227385Y273644D01*
X226801Y274092D01*
X226122Y274373D01*
X225894Y274403D01*
D02*
G37*
G36*
X119095Y281247D02*
X118293Y281141D01*
X117546Y280832D01*
X116904Y280340D01*
X114514Y277949D01*
X114110Y278119D01*
X114033Y278175D01*
X113940Y278878D01*
X113659Y279557D01*
X113211Y280140D01*
X112628Y280588D01*
X111949Y280869D01*
X111721Y280899D01*
Y278150D01*
X111221D01*
Y277650D01*
X108471D01*
X108501Y277421D01*
X108782Y276742D01*
X109230Y276159D01*
X109813Y275711D01*
X110492Y275430D01*
X111195Y275338D01*
X111251Y275260D01*
X111421Y274856D01*
X110999Y274434D01*
X110507Y273793D01*
X110288Y273265D01*
X110197Y273046D01*
X110092Y272244D01*
Y256890D01*
X110197Y256088D01*
X110288Y255869D01*
X110507Y255341D01*
X110999Y254700D01*
X115997Y249701D01*
Y237795D01*
X116103Y236994D01*
X116412Y236247D01*
X116904Y235605D01*
X117546Y235113D01*
X118293Y234804D01*
X119095Y234698D01*
X119896Y234804D01*
X120643Y235113D01*
X121285Y235605D01*
X121408Y235765D01*
X121908Y235596D01*
Y231371D01*
X120268Y229732D01*
X120025Y229367D01*
X119939Y228937D01*
Y224059D01*
X119281Y222879D01*
X119261Y222866D01*
X118708Y222039D01*
X118514Y221063D01*
X118708Y220088D01*
X119261Y219261D01*
X120088Y218708D01*
X121063Y218514D01*
X122038Y218708D01*
X122865Y219261D01*
X123418Y220088D01*
X123612Y221063D01*
X123418Y222039D01*
X122865Y222866D01*
X122845Y222879D01*
X122187Y224059D01*
Y228471D01*
X123826Y230111D01*
X124070Y230475D01*
X124155Y230906D01*
Y236674D01*
X124413Y236756D01*
X124655Y236757D01*
X125166Y235993D01*
X125993Y235440D01*
X126969Y235246D01*
X127944Y235440D01*
X128771Y235993D01*
X129323Y236820D01*
X129517Y237795D01*
X129323Y238771D01*
X128771Y239598D01*
X127944Y240150D01*
X126969Y240344D01*
X125993Y240150D01*
X125166Y239598D01*
X124655Y238833D01*
X124413Y238835D01*
X124155Y238917D01*
Y254528D01*
X124070Y254958D01*
X123826Y255322D01*
X122187Y256962D01*
Y259405D01*
X122845Y260586D01*
X122865Y260599D01*
X122879Y260620D01*
X124059Y261278D01*
X130834D01*
X133398Y258713D01*
X133763Y258470D01*
X134193Y258384D01*
X140413D01*
X140844Y258470D01*
X141208Y258713D01*
X144107Y261612D01*
X147252D01*
X147487Y261171D01*
X147251Y260818D01*
X147057Y259843D01*
X147251Y258867D01*
X147804Y258040D01*
X148631Y257488D01*
X149606Y257294D01*
X150582Y257488D01*
X151409Y258040D01*
X151961Y258867D01*
X152155Y259843D01*
X151961Y260818D01*
X151725Y261171D01*
X151961Y261612D01*
X255499D01*
X269875Y247237D01*
X270239Y246993D01*
X270669Y246908D01*
X296575D01*
X297005Y246993D01*
X297370Y247237D01*
X298518Y248386D01*
X299241Y248086D01*
X300197Y247961D01*
X301153Y248086D01*
X302043Y248455D01*
X302808Y249042D01*
X303395Y249807D01*
X303764Y250698D01*
X303890Y251654D01*
X303764Y252609D01*
X303395Y253500D01*
X302808Y254265D01*
X302043Y254852D01*
X301153Y255221D01*
X300197Y255347D01*
X299241Y255221D01*
X298350Y254852D01*
X297586Y254265D01*
X296999Y253500D01*
X296630Y252609D01*
X296504Y251654D01*
X296630Y250698D01*
X296929Y249975D01*
X296109Y249155D01*
X271135D01*
X256759Y263531D01*
X256395Y263775D01*
X255965Y263860D01*
X217202D01*
X216981Y264309D01*
X217005Y264340D01*
X217286Y265019D01*
X217317Y265248D01*
X211817D01*
X211847Y265019D01*
X212129Y264340D01*
X212153Y264309D01*
X211932Y263860D01*
X209328D01*
X209107Y264309D01*
X209131Y264340D01*
X209413Y265019D01*
X209443Y265248D01*
X203943D01*
X203974Y265019D01*
X204255Y264340D01*
X204279Y264309D01*
X204058Y263860D01*
X143642D01*
X143212Y263775D01*
X142847Y263531D01*
X141024Y261708D01*
X140630Y261902D01*
X135046D01*
X135076Y261673D01*
X135285Y261168D01*
X135048Y260730D01*
X134606Y260685D01*
X132094Y263196D01*
X131729Y263440D01*
X131299Y263526D01*
X124059D01*
X122879Y264184D01*
X122865Y264204D01*
X122038Y264757D01*
X121063Y264951D01*
X120088Y264757D01*
X119261Y264204D01*
X118708Y263377D01*
X118514Y262402D01*
X118708Y261426D01*
X119261Y260599D01*
X119281Y260585D01*
X119939Y259405D01*
Y256496D01*
X120025Y256066D01*
X120268Y255701D01*
X121908Y254062D01*
Y253184D01*
X121408Y253014D01*
X121285Y253174D01*
X116286Y258173D01*
Y270961D01*
X121285Y275959D01*
X121777Y276601D01*
X122086Y277348D01*
X122192Y278150D01*
X122086Y278951D01*
X121777Y279698D01*
X121285Y280340D01*
X120643Y280832D01*
X119896Y281141D01*
X119095Y281247D01*
D02*
G37*
G36*
X75788Y292903D02*
X74812Y292709D01*
X73985Y292157D01*
X73432Y291330D01*
X73238Y290354D01*
X73432Y289379D01*
X73985Y288552D01*
X74812Y287999D01*
X75788Y287805D01*
X76763Y287999D01*
X77590Y288552D01*
X78142Y289379D01*
X78336Y290354D01*
X78142Y291330D01*
X77590Y292157D01*
X76763Y292709D01*
X75788Y292903D01*
D02*
G37*
G36*
X291339Y288966D02*
X290363Y288772D01*
X289536Y288220D01*
X289179Y287685D01*
X288577D01*
X288220Y288220D01*
X287393Y288772D01*
X286417Y288966D01*
X285442Y288772D01*
X284615Y288220D01*
X284257Y287685D01*
X283656D01*
X283298Y288220D01*
X282472Y288772D01*
X281496Y288966D01*
X280521Y288772D01*
X279694Y288220D01*
X279141Y287393D01*
X278947Y286417D01*
X279141Y285442D01*
X279694Y284615D01*
X280521Y284062D01*
X281496Y283868D01*
X282472Y284062D01*
X283298Y284615D01*
X283656Y285150D01*
X284257D01*
X284615Y284615D01*
X285442Y284062D01*
X286417Y283868D01*
X287393Y284062D01*
X288220Y284615D01*
X288577Y285150D01*
X289179D01*
X289536Y284615D01*
X290363Y284062D01*
X291339Y283868D01*
X292314Y284062D01*
X293141Y284615D01*
X293694Y285442D01*
X293888Y286417D01*
X293694Y287393D01*
X293141Y288220D01*
X292314Y288772D01*
X291339Y288966D01*
D02*
G37*
G36*
X239331Y304874D02*
X238375Y304748D01*
X237484Y304379D01*
X236719Y303793D01*
X236133Y303028D01*
X235764Y302137D01*
X235638Y301181D01*
X235764Y300225D01*
X236133Y299335D01*
X236233Y299203D01*
Y294134D01*
X236339Y293332D01*
X236430Y293113D01*
X236648Y292585D01*
X237141Y291944D01*
X243873Y285211D01*
X244514Y284719D01*
X245261Y284410D01*
X246063Y284304D01*
X267431D01*
X269809Y281927D01*
X269479Y281550D01*
X269067Y281866D01*
X268415Y282136D01*
X267717Y282228D01*
X215686D01*
X201713Y296201D01*
X201153Y296630D01*
X200502Y296900D01*
X199803Y296992D01*
X188976D01*
X188277Y296900D01*
X187626Y296630D01*
X187067Y296201D01*
X186638Y295641D01*
X186368Y294990D01*
X186276Y294291D01*
X186368Y293593D01*
X186638Y292941D01*
X187067Y292382D01*
X187626Y291953D01*
X188277Y291683D01*
X188976Y291591D01*
X198685D01*
X212658Y277618D01*
X213217Y277189D01*
X213677Y276998D01*
X213868Y276919D01*
X214567Y276827D01*
X266598D01*
X273512Y269914D01*
X273471Y269784D01*
X273251Y269467D01*
X273138Y269482D01*
Y266732D01*
Y263983D01*
X273366Y264013D01*
X274046Y264294D01*
X274629Y264741D01*
X275076Y265325D01*
X275357Y266004D01*
X275843Y265921D01*
Y253937D01*
X275935Y253238D01*
X276205Y252587D01*
X276634Y252028D01*
X277193Y251599D01*
X277845Y251329D01*
X278543Y251237D01*
X279242Y251329D01*
X279893Y251599D01*
X280453Y252028D01*
X280882Y252587D01*
X281152Y253238D01*
X281244Y253937D01*
Y268701D01*
X281152Y269400D01*
X281073Y269590D01*
X280882Y270051D01*
X280566Y270463D01*
X280942Y270793D01*
X292272Y259463D01*
X292914Y258971D01*
X293442Y258752D01*
X293661Y258662D01*
X294462Y258556D01*
X298219D01*
X298350Y258455D01*
X299241Y258086D01*
X300197Y257961D01*
X301153Y258086D01*
X302043Y258455D01*
X302808Y259042D01*
X303395Y259807D01*
X303764Y260698D01*
X303890Y261654D01*
X303764Y262609D01*
X303395Y263500D01*
X302808Y264265D01*
X302043Y264852D01*
X301153Y265221D01*
X300197Y265347D01*
X299241Y265221D01*
X298350Y264852D01*
X298219Y264751D01*
X295745D01*
X270905Y289592D01*
X270263Y290084D01*
X269735Y290303D01*
X269516Y290393D01*
X268714Y290499D01*
X247346D01*
X242428Y295417D01*
Y299203D01*
X242529Y299335D01*
X242898Y300225D01*
X243024Y301181D01*
X242898Y302137D01*
X242529Y303028D01*
X241942Y303793D01*
X241177Y304379D01*
X240287Y304748D01*
X239331Y304874D01*
D02*
G37*
G36*
X81693Y292903D02*
X80717Y292709D01*
X79891Y292157D01*
X79338Y291330D01*
X79144Y290354D01*
X79338Y289379D01*
X79891Y288552D01*
X80717Y287999D01*
X81693Y287805D01*
X82668Y287999D01*
X83495Y288552D01*
X84048Y289379D01*
X84242Y290354D01*
X84048Y291330D01*
X83495Y292157D01*
X82668Y292709D01*
X81693Y292903D01*
D02*
G37*
G36*
X31980Y299713D02*
X30853Y299624D01*
X29266Y299243D01*
X27758Y298619D01*
X26366Y297766D01*
X25125Y296706D01*
X24065Y295465D01*
X23212Y294073D01*
X22587Y292565D01*
X22206Y290978D01*
X22118Y289850D01*
X31980D01*
Y299713D01*
D02*
G37*
G36*
X111221Y292903D02*
X110245Y292709D01*
X109418Y292157D01*
X108866Y291330D01*
X108671Y290354D01*
X108866Y289379D01*
X109418Y288552D01*
X110245Y288000D01*
X111221Y287805D01*
X112196Y288000D01*
X113023Y288552D01*
X113575Y289379D01*
X113769Y290354D01*
X113575Y291330D01*
X113023Y292157D01*
X112196Y292709D01*
X111221Y292903D01*
D02*
G37*
G36*
X105315Y292903D02*
X104340Y292709D01*
X103513Y292157D01*
X102960Y291330D01*
X102766Y290354D01*
X102960Y289379D01*
X103513Y288552D01*
X104340Y287999D01*
X105315Y287805D01*
X106290Y287999D01*
X107117Y288552D01*
X107670Y289379D01*
X107864Y290354D01*
X107670Y291330D01*
X107117Y292157D01*
X106290Y292709D01*
X105315Y292903D01*
D02*
G37*
G36*
X110721Y280899D02*
X110492Y280869D01*
X109813Y280588D01*
X109230Y280140D01*
X108782Y279557D01*
X108501Y278878D01*
X108471Y278650D01*
X110721D01*
Y280899D01*
D02*
G37*
G36*
X68413Y314758D02*
Y312508D01*
X70663D01*
X70633Y312737D01*
X70352Y313416D01*
X69904Y313999D01*
X69321Y314446D01*
X68642Y314727D01*
X68413Y314758D01*
D02*
G37*
G36*
X118595D02*
X118366Y314727D01*
X117687Y314446D01*
X117104Y313999D01*
X116656Y313416D01*
X116375Y312737D01*
X116345Y312508D01*
X118595D01*
Y314758D01*
D02*
G37*
G36*
X31980Y288850D02*
X22118D01*
X22206Y287723D01*
X22587Y286136D01*
X23212Y284628D01*
X24065Y283236D01*
X25125Y281995D01*
X26366Y280935D01*
X27758Y280082D01*
X29266Y279457D01*
X30853Y279076D01*
X31980Y278988D01*
Y288850D01*
D02*
G37*
G36*
X178650Y281293D02*
Y279043D01*
X180899D01*
X180869Y279272D01*
X180588Y279951D01*
X180140Y280534D01*
X179557Y280982D01*
X178878Y281263D01*
X178650Y281293D01*
D02*
G37*
G36*
X177650D02*
X177421Y281263D01*
X176742Y280982D01*
X176159Y280534D01*
X175711Y279951D01*
X175430Y279272D01*
X175400Y279043D01*
X177650D01*
Y281293D01*
D02*
G37*
G36*
X42843Y288850D02*
X32980D01*
Y278988D01*
X34108Y279076D01*
X35695Y279457D01*
X37203Y280082D01*
X38594Y280935D01*
X39836Y281995D01*
X40896Y283236D01*
X41749Y284628D01*
X42373Y286136D01*
X42754Y287723D01*
X42843Y288850D01*
D02*
G37*
G36*
X138280Y220957D02*
X136030D01*
X136060Y220728D01*
X136341Y220049D01*
X136789Y219466D01*
X137372Y219019D01*
X138051Y218737D01*
X138280Y218707D01*
Y220957D01*
D02*
G37*
G36*
X96457Y223612D02*
X95481Y223418D01*
X94654Y222866D01*
X94102Y222039D01*
X93908Y221063D01*
X94102Y220088D01*
X94654Y219261D01*
X95481Y218708D01*
X96457Y218514D01*
X97432Y218708D01*
X98259Y219261D01*
X98812Y220088D01*
X99006Y221063D01*
X98812Y222039D01*
X98259Y222866D01*
X97432Y223418D01*
X96457Y223612D01*
D02*
G37*
G36*
X300197Y225347D02*
X299241Y225221D01*
X298350Y224852D01*
X297586Y224265D01*
X296999Y223500D01*
X296630Y222609D01*
X296504Y221654D01*
X296630Y220698D01*
X296999Y219807D01*
X297586Y219042D01*
X298350Y218455D01*
X299241Y218086D01*
X300197Y217961D01*
X301153Y218086D01*
X302043Y218455D01*
X302808Y219042D01*
X303395Y219807D01*
X303764Y220698D01*
X303890Y221654D01*
X303764Y222609D01*
X303395Y223500D01*
X302808Y224265D01*
X302043Y224852D01*
X301153Y225221D01*
X300197Y225347D01*
D02*
G37*
G36*
X141529Y220957D02*
X139280D01*
Y218707D01*
X139508Y218737D01*
X140187Y219019D01*
X140770Y219466D01*
X141218Y220049D01*
X141499Y220728D01*
X141529Y220957D01*
D02*
G37*
G36*
X84443Y223909D02*
X82193D01*
Y221660D01*
X82422Y221690D01*
X83101Y221971D01*
X83684Y222419D01*
X84131Y223002D01*
X84412Y223681D01*
X84443Y223909D01*
D02*
G37*
G36*
X81193D02*
X78943D01*
X78974Y223681D01*
X79255Y223002D01*
X79702Y222419D01*
X80285Y221971D01*
X80964Y221690D01*
X81193Y221660D01*
Y223909D01*
D02*
G37*
G36*
X26890Y227870D02*
X25836Y227731D01*
X24855Y227324D01*
X24012Y226677D01*
X23365Y225834D01*
X22958Y224853D01*
X22819Y223799D01*
X22958Y222746D01*
X23365Y221764D01*
X24012Y220921D01*
X24855Y220274D01*
X25836Y219868D01*
X26890Y219729D01*
X27943Y219868D01*
X28925Y220274D01*
X29768Y220921D01*
X30415Y221764D01*
X30821Y222746D01*
X30960Y223799D01*
X30821Y224853D01*
X30415Y225834D01*
X29768Y226677D01*
X28925Y227324D01*
X27943Y227731D01*
X26890Y227870D01*
D02*
G37*
G36*
X42106Y222382D02*
X34035D01*
Y214311D01*
X42106D01*
Y222382D01*
D02*
G37*
G36*
X215348Y216036D02*
X213099D01*
Y213786D01*
X213327Y213816D01*
X214006Y214097D01*
X214589Y214545D01*
X215037Y215128D01*
X215318Y215807D01*
X215348Y216036D01*
D02*
G37*
G36*
X212099D02*
X209849D01*
X209879Y215807D01*
X210160Y215128D01*
X210608Y214545D01*
X211191Y214097D01*
X211870Y213816D01*
X212099Y213786D01*
Y216036D01*
D02*
G37*
G36*
Y219285D02*
X211870Y219255D01*
X211191Y218974D01*
X210608Y218526D01*
X210160Y217943D01*
X209879Y217264D01*
X209849Y217036D01*
X212099D01*
Y219285D01*
D02*
G37*
G36*
X314118Y221154D02*
X310697D01*
Y217733D01*
X311229Y217803D01*
X312190Y218201D01*
X313016Y218834D01*
X313650Y219660D01*
X314048Y220622D01*
X314118Y221154D01*
D02*
G37*
G36*
X309697D02*
X306276D01*
X306346Y220622D01*
X306744Y219660D01*
X307378Y218834D01*
X308204Y218201D01*
X309165Y217803D01*
X309697Y217733D01*
Y221154D01*
D02*
G37*
G36*
X213099Y219285D02*
Y217036D01*
X215348D01*
X215318Y217264D01*
X215037Y217943D01*
X214589Y218526D01*
X214006Y218974D01*
X213327Y219255D01*
X213099Y219285D01*
D02*
G37*
G36*
X63976Y226958D02*
X63001Y226764D01*
X62174Y226212D01*
X61621Y225385D01*
X61427Y224410D01*
X61621Y223434D01*
X62174Y222607D01*
X63001Y222055D01*
X63976Y221861D01*
X64952Y222055D01*
X65779Y222607D01*
X66331Y223434D01*
X66525Y224410D01*
X66331Y225385D01*
X65779Y226212D01*
X64952Y226764D01*
X63976Y226958D01*
D02*
G37*
G36*
X37571Y228752D02*
X33773D01*
X33856Y228122D01*
X34291Y227070D01*
X34985Y226166D01*
X35889Y225472D01*
X36941Y225037D01*
X37571Y224954D01*
Y228752D01*
D02*
G37*
G36*
X82193Y227159D02*
Y224909D01*
X84443D01*
X84412Y225138D01*
X84131Y225817D01*
X83684Y226400D01*
X83101Y226848D01*
X82422Y227129D01*
X82193Y227159D01*
D02*
G37*
G36*
X81193D02*
X80964Y227129D01*
X80285Y226848D01*
X79702Y226400D01*
X79255Y225817D01*
X78974Y225138D01*
X78943Y224909D01*
X81193D01*
Y227159D01*
D02*
G37*
G36*
X42369Y228752D02*
X38571D01*
Y224954D01*
X39200Y225037D01*
X40253Y225472D01*
X41157Y226166D01*
X41850Y227070D01*
X42286Y228122D01*
X42369Y228752D01*
D02*
G37*
G36*
X200787Y231880D02*
X199812Y231686D01*
X198985Y231133D01*
X198433Y230306D01*
X198239Y229331D01*
X198433Y228355D01*
X198985Y227528D01*
X199812Y226976D01*
X200787Y226782D01*
X201763Y226976D01*
X202590Y227528D01*
X203142Y228355D01*
X203336Y229331D01*
X203142Y230306D01*
X202590Y231133D01*
X201763Y231686D01*
X200787Y231880D01*
D02*
G37*
G36*
X239673Y228143D02*
Y225894D01*
X241923D01*
X241893Y226122D01*
X241612Y226801D01*
X241164Y227385D01*
X240581Y227832D01*
X239902Y228113D01*
X239673Y228143D01*
D02*
G37*
G36*
X238673D02*
X238445Y228113D01*
X237766Y227832D01*
X237182Y227385D01*
X236735Y226801D01*
X236454Y226122D01*
X236424Y225894D01*
X238673D01*
Y228143D01*
D02*
G37*
G36*
X309697Y225575D02*
X309165Y225505D01*
X308204Y225106D01*
X307378Y224473D01*
X306744Y223647D01*
X306346Y222686D01*
X306276Y222154D01*
X309697D01*
Y225575D01*
D02*
G37*
G36*
X139280Y224206D02*
Y221957D01*
X141529D01*
X141499Y222185D01*
X141218Y222865D01*
X140770Y223448D01*
X140187Y223895D01*
X139508Y224176D01*
X139280Y224206D01*
D02*
G37*
G36*
X138280D02*
X138051Y224176D01*
X137372Y223895D01*
X136789Y223448D01*
X136341Y222865D01*
X136060Y222185D01*
X136030Y221957D01*
X138280D01*
Y224206D01*
D02*
G37*
G36*
X310697Y225575D02*
Y222154D01*
X314118D01*
X314048Y222686D01*
X313650Y223647D01*
X313016Y224473D01*
X312190Y225106D01*
X311229Y225505D01*
X310697Y225575D01*
D02*
G37*
G36*
X241923Y224894D02*
X239673D01*
Y222644D01*
X239902Y222674D01*
X240581Y222955D01*
X241164Y223403D01*
X241612Y223986D01*
X241893Y224665D01*
X241923Y224894D01*
D02*
G37*
G36*
X238673D02*
X236424D01*
X236454Y224665D01*
X236735Y223986D01*
X237182Y223403D01*
X237766Y222955D01*
X238445Y222674D01*
X238673Y222644D01*
Y224894D01*
D02*
G37*
G36*
X110721Y318695D02*
X110492Y318665D01*
X109813Y318383D01*
X109230Y317936D01*
X108782Y317353D01*
X108529Y316741D01*
X108268Y316687D01*
X108007Y316741D01*
X107753Y317353D01*
X107306Y317936D01*
X106723Y318383D01*
X106044Y318665D01*
X105815Y318695D01*
Y315945D01*
Y313195D01*
X106044Y313226D01*
X106723Y313507D01*
X107306Y313954D01*
X107753Y314537D01*
X108007Y315149D01*
X108268Y315203D01*
X108529Y315149D01*
X108782Y314537D01*
X109230Y313954D01*
X109813Y313507D01*
X110492Y313226D01*
X110721Y313195D01*
Y315945D01*
Y318695D01*
D02*
G37*
G36*
X218831Y199787D02*
X218299Y199717D01*
X217337Y199319D01*
X216512Y198685D01*
X215878Y197860D01*
X215480Y196898D01*
X215410Y196366D01*
X218831D01*
Y199787D01*
D02*
G37*
G36*
X249516Y197632D02*
Y195382D01*
X251765D01*
X251735Y195611D01*
X251454Y196290D01*
X251007Y196873D01*
X250424Y197320D01*
X249745Y197601D01*
X249516Y197632D01*
D02*
G37*
G36*
X248516D02*
X248287Y197601D01*
X247608Y197320D01*
X247025Y196873D01*
X246578Y196290D01*
X246296Y195611D01*
X246266Y195382D01*
X248516D01*
Y197632D01*
D02*
G37*
G36*
X219831Y199787D02*
Y196366D01*
X223252D01*
X223182Y196898D01*
X222783Y197860D01*
X222150Y198685D01*
X221324Y199319D01*
X220363Y199717D01*
X219831Y199787D01*
D02*
G37*
G36*
X300197Y205347D02*
X299241Y205221D01*
X298350Y204852D01*
X297586Y204265D01*
X296999Y203500D01*
X296630Y202609D01*
X296504Y201654D01*
X296630Y200698D01*
X296999Y199807D01*
X297586Y199042D01*
X298350Y198455D01*
X299241Y198086D01*
X300197Y197961D01*
X301153Y198086D01*
X302043Y198455D01*
X302808Y199042D01*
X303395Y199807D01*
X303764Y200698D01*
X303890Y201654D01*
X303764Y202609D01*
X303395Y203500D01*
X302808Y204265D01*
X302043Y204852D01*
X301153Y205221D01*
X300197Y205347D01*
D02*
G37*
G36*
X314118Y201154D02*
X310697D01*
Y197733D01*
X311229Y197803D01*
X312190Y198201D01*
X313016Y198835D01*
X313650Y199660D01*
X314048Y200622D01*
X314118Y201154D01*
D02*
G37*
G36*
X309697D02*
X306276D01*
X306346Y200622D01*
X306744Y199660D01*
X307378Y198835D01*
X308204Y198201D01*
X309165Y197803D01*
X309697Y197733D01*
Y201154D01*
D02*
G37*
G36*
X251765Y194382D02*
X249516D01*
Y192132D01*
X249745Y192162D01*
X250424Y192444D01*
X251007Y192891D01*
X251454Y193474D01*
X251735Y194153D01*
X251765Y194382D01*
D02*
G37*
G36*
X248516D02*
X246266D01*
X246296Y194153D01*
X246578Y193474D01*
X247025Y192891D01*
X247608Y192444D01*
X248287Y192162D01*
X248516Y192132D01*
Y194382D01*
D02*
G37*
G36*
X223252Y195366D02*
X219831D01*
Y191945D01*
X220363Y192015D01*
X221324Y192413D01*
X222150Y193047D01*
X222783Y193873D01*
X223182Y194834D01*
X223252Y195366D01*
D02*
G37*
G36*
X309697Y195575D02*
X309165Y195505D01*
X308204Y195106D01*
X307378Y194473D01*
X306744Y193647D01*
X306346Y192685D01*
X306276Y192154D01*
X309697D01*
Y195575D01*
D02*
G37*
G36*
X266732Y197431D02*
X265757Y197237D01*
X264930Y196684D01*
X264377Y195857D01*
X264183Y194882D01*
X264377Y193906D01*
X264930Y193079D01*
X265757Y192527D01*
X266732Y192333D01*
X267708Y192527D01*
X268535Y193079D01*
X269087Y193906D01*
X269281Y194882D01*
X269087Y195857D01*
X268535Y196684D01*
X267708Y197237D01*
X266732Y197431D01*
D02*
G37*
G36*
X232992Y199528D02*
X225669D01*
Y192205D01*
X232992D01*
Y199528D01*
D02*
G37*
G36*
X310697Y195575D02*
Y192154D01*
X314118D01*
X314048Y192685D01*
X313650Y193647D01*
X313016Y194473D01*
X312190Y195106D01*
X311229Y195505D01*
X310697Y195575D01*
D02*
G37*
G36*
X309697Y205575D02*
X309165Y205505D01*
X308204Y205106D01*
X307378Y204473D01*
X306744Y203647D01*
X306346Y202685D01*
X306276Y202154D01*
X309697D01*
Y205575D01*
D02*
G37*
G36*
X178650Y212395D02*
Y210146D01*
X180899D01*
X180869Y210374D01*
X180588Y211053D01*
X180140Y211636D01*
X179557Y212084D01*
X178878Y212365D01*
X178650Y212395D01*
D02*
G37*
G36*
X177650D02*
X177421Y212365D01*
X176742Y212084D01*
X176159Y211636D01*
X175711Y211053D01*
X175430Y210374D01*
X175400Y210146D01*
X177650D01*
Y212395D01*
D02*
G37*
G36*
X300197Y215347D02*
X299241Y215221D01*
X298350Y214852D01*
X297586Y214265D01*
X296999Y213500D01*
X296630Y212609D01*
X296504Y211654D01*
X296630Y210698D01*
X296999Y209807D01*
X297586Y209042D01*
X298350Y208455D01*
X299241Y208086D01*
X300197Y207961D01*
X301153Y208086D01*
X302043Y208455D01*
X302808Y209042D01*
X303395Y209807D01*
X303764Y210698D01*
X303890Y211654D01*
X303764Y212609D01*
X303395Y213500D01*
X302808Y214265D01*
X302043Y214852D01*
X301153Y215221D01*
X300197Y215347D01*
D02*
G37*
G36*
X205209Y213380D02*
X204980Y213350D01*
X204301Y213068D01*
X203718Y212621D01*
X203271Y212038D01*
X202989Y211359D01*
X202959Y211130D01*
X205209D01*
Y213380D01*
D02*
G37*
G36*
X310697Y215575D02*
Y212154D01*
X314118D01*
X314048Y212685D01*
X313650Y213647D01*
X313016Y214473D01*
X312190Y215106D01*
X311229Y215505D01*
X310697Y215575D01*
D02*
G37*
G36*
X309697D02*
X309165Y215505D01*
X308204Y215106D01*
X307378Y214473D01*
X306744Y213647D01*
X306346Y212685D01*
X306276Y212154D01*
X309697D01*
Y215575D01*
D02*
G37*
G36*
X206209Y213380D02*
Y211130D01*
X208458D01*
X208428Y211359D01*
X208147Y212038D01*
X207699Y212621D01*
X207116Y213068D01*
X206437Y213350D01*
X206209Y213380D01*
D02*
G37*
G36*
X180899Y209146D02*
X178650D01*
Y206896D01*
X178878Y206926D01*
X179557Y207207D01*
X180140Y207655D01*
X180588Y208238D01*
X180869Y208917D01*
X180899Y209146D01*
D02*
G37*
G36*
X177650D02*
X175400D01*
X175430Y208917D01*
X175711Y208238D01*
X176159Y207655D01*
X176742Y207207D01*
X177421Y206926D01*
X177650Y206896D01*
Y209146D01*
D02*
G37*
G36*
X310697Y205575D02*
Y202154D01*
X314118D01*
X314048Y202685D01*
X313650Y203647D01*
X313016Y204473D01*
X312190Y205106D01*
X311229Y205505D01*
X310697Y205575D01*
D02*
G37*
G36*
X309697Y211154D02*
X306276D01*
X306346Y210622D01*
X306744Y209660D01*
X307378Y208835D01*
X308204Y208201D01*
X309165Y207803D01*
X309697Y207733D01*
Y211154D01*
D02*
G37*
G36*
X208458Y210130D02*
X206209D01*
Y207880D01*
X206437Y207910D01*
X207116Y208192D01*
X207699Y208639D01*
X208147Y209222D01*
X208428Y209901D01*
X208458Y210130D01*
D02*
G37*
G36*
X205209D02*
X202959D01*
X202989Y209901D01*
X203271Y209222D01*
X203718Y208639D01*
X204301Y208192D01*
X204980Y207910D01*
X205209Y207880D01*
Y210130D01*
D02*
G37*
G36*
X314118Y211154D02*
X310697D01*
Y207733D01*
X311229Y207803D01*
X312190Y208201D01*
X313016Y208835D01*
X313650Y209660D01*
X314048Y210622D01*
X314118Y211154D01*
D02*
G37*
G36*
X309697Y231154D02*
X306276D01*
X306346Y230622D01*
X306744Y229660D01*
X307378Y228835D01*
X308204Y228201D01*
X309165Y227803D01*
X309697Y227733D01*
Y231154D01*
D02*
G37*
G36*
X111721Y240545D02*
Y238295D01*
X113970D01*
X113940Y238524D01*
X113659Y239203D01*
X113211Y239786D01*
X112628Y240234D01*
X111949Y240515D01*
X111721Y240545D01*
D02*
G37*
G36*
X110721D02*
X110492Y240515D01*
X109813Y240234D01*
X109230Y239786D01*
X108782Y239203D01*
X108501Y238524D01*
X108471Y238295D01*
X110721D01*
Y240545D01*
D02*
G37*
G36*
X111721Y318695D02*
Y316445D01*
X113970D01*
X113940Y316674D01*
X113659Y317353D01*
X113211Y317936D01*
X112628Y318383D01*
X111949Y318665D01*
X111721Y318695D01*
D02*
G37*
G36*
X89567Y243691D02*
X88591Y243497D01*
X87765Y242944D01*
X87212Y242117D01*
X87018Y241142D01*
X87212Y240166D01*
X87765Y239339D01*
X88591Y238787D01*
X89567Y238593D01*
X90542Y238787D01*
X91369Y239339D01*
X91922Y240166D01*
X92116Y241142D01*
X91922Y242117D01*
X91369Y242944D01*
X90542Y243497D01*
X89567Y243691D01*
D02*
G37*
G36*
X200303Y241923D02*
Y239673D01*
X202553D01*
X202523Y239902D01*
X202241Y240581D01*
X201794Y241164D01*
X201211Y241612D01*
X200532Y241893D01*
X200303Y241923D01*
D02*
G37*
G36*
X104815Y318695D02*
X104586Y318665D01*
X103907Y318383D01*
X103324Y317936D01*
X102877Y317353D01*
X102595Y316674D01*
X102565Y316445D01*
X104815D01*
Y318695D01*
D02*
G37*
G36*
X199303Y241923D02*
X199074Y241893D01*
X198396Y241612D01*
X197812Y241164D01*
X197365Y240581D01*
X197084Y239902D01*
X197054Y239673D01*
X199303D01*
Y241923D01*
D02*
G37*
G36*
X237689Y239657D02*
X235439D01*
X235470Y239429D01*
X235751Y238750D01*
X236198Y238167D01*
X236781Y237719D01*
X237460Y237438D01*
X237689Y237408D01*
Y239657D01*
D02*
G37*
G36*
X258374Y238970D02*
Y236720D01*
X260624D01*
X260594Y236949D01*
X260312Y237628D01*
X259865Y238211D01*
X259282Y238659D01*
X258603Y238940D01*
X258374Y238970D01*
D02*
G37*
G36*
X257374D02*
X257145Y238940D01*
X256466Y238659D01*
X255883Y238211D01*
X255436Y237628D01*
X255154Y236949D01*
X255124Y236720D01*
X257374D01*
Y238970D01*
D02*
G37*
G36*
X240939Y239657D02*
X238689D01*
Y237408D01*
X238918Y237438D01*
X239597Y237719D01*
X240180Y238167D01*
X240627Y238750D01*
X240909Y239429D01*
X240939Y239657D01*
D02*
G37*
G36*
X300197Y245347D02*
X299241Y245221D01*
X298350Y244852D01*
X297586Y244265D01*
X296999Y243500D01*
X296630Y242609D01*
X296504Y241654D01*
X296630Y240698D01*
X296999Y239807D01*
X297586Y239042D01*
X298350Y238455D01*
X299241Y238086D01*
X300197Y237961D01*
X301153Y238086D01*
X302043Y238455D01*
X302808Y239042D01*
X303395Y239807D01*
X303764Y240698D01*
X303890Y241654D01*
X303764Y242609D01*
X303395Y243500D01*
X302808Y244265D01*
X302043Y244852D01*
X301153Y245221D01*
X300197Y245347D01*
D02*
G37*
G36*
X314118Y241154D02*
X310697D01*
Y237733D01*
X311229Y237803D01*
X312190Y238201D01*
X313016Y238835D01*
X313650Y239660D01*
X314048Y240622D01*
X314118Y241154D01*
D02*
G37*
G36*
X309697D02*
X306276D01*
X306346Y240622D01*
X306744Y239660D01*
X307378Y238835D01*
X308204Y238201D01*
X309165Y237803D01*
X309697Y237733D01*
Y241154D01*
D02*
G37*
G36*
X161606Y242118D02*
X159357D01*
X159387Y241889D01*
X159668Y241210D01*
X160116Y240627D01*
X160699Y240180D01*
X161378Y239899D01*
X161606Y239868D01*
Y242118D01*
D02*
G37*
G36*
Y245368D02*
X161378Y245338D01*
X160699Y245056D01*
X160116Y244609D01*
X159668Y244026D01*
X159387Y243347D01*
X159357Y243118D01*
X161606D01*
Y245368D01*
D02*
G37*
G36*
X310697Y245575D02*
Y242154D01*
X314118D01*
X314048Y242686D01*
X313650Y243647D01*
X313016Y244473D01*
X312190Y245106D01*
X311229Y245505D01*
X310697Y245575D01*
D02*
G37*
G36*
X309697D02*
X309165Y245505D01*
X308204Y245106D01*
X307378Y244473D01*
X306744Y243647D01*
X306346Y242686D01*
X306276Y242154D01*
X309697D01*
Y245575D01*
D02*
G37*
G36*
X162606Y245368D02*
Y243118D01*
X164856D01*
X164826Y243347D01*
X164545Y244026D01*
X164097Y244609D01*
X163514Y245056D01*
X162835Y245338D01*
X162606Y245368D01*
D02*
G37*
G36*
X101862Y246547D02*
X99613D01*
X99643Y246319D01*
X99924Y245640D01*
X100371Y245057D01*
X100954Y244609D01*
X101634Y244328D01*
X101862Y244298D01*
Y246547D01*
D02*
G37*
G36*
X113970Y315445D02*
X111721D01*
Y313195D01*
X111949Y313226D01*
X112628Y313507D01*
X113211Y313954D01*
X113659Y314537D01*
X113940Y315216D01*
X113970Y315445D01*
D02*
G37*
G36*
X75287Y318695D02*
X75059Y318665D01*
X74380Y318383D01*
X73797Y317936D01*
X73349Y317353D01*
X73068Y316674D01*
X73038Y316445D01*
X75287D01*
Y318695D01*
D02*
G37*
G36*
X37571Y244456D02*
X36941Y244373D01*
X35889Y243937D01*
X34985Y243243D01*
X34291Y242339D01*
X33856Y241287D01*
X33773Y240657D01*
X37571D01*
Y244456D01*
D02*
G37*
G36*
X61024Y269441D02*
X60068Y269315D01*
X59177Y268946D01*
X58412Y268359D01*
X57825Y267595D01*
X57456Y266704D01*
X57331Y265748D01*
X57456Y264792D01*
X57825Y263902D01*
X58412Y263137D01*
X59177Y262550D01*
X59498Y262417D01*
Y252953D01*
X59614Y252369D01*
X59945Y251874D01*
X67179Y244641D01*
X67473Y243816D01*
X67333Y243110D01*
X67527Y242135D01*
X68080Y241308D01*
X68906Y240755D01*
X69882Y240561D01*
X70857Y240755D01*
X71684Y241308D01*
X72237Y242135D01*
X72431Y243110D01*
X72237Y244086D01*
X71684Y244913D01*
X70857Y245465D01*
X70837Y245469D01*
X70041Y246093D01*
X62549Y253585D01*
Y262417D01*
X62870Y262550D01*
X63635Y263137D01*
X64222Y263902D01*
X64591Y264792D01*
X64717Y265748D01*
X64591Y266704D01*
X64222Y267595D01*
X63635Y268359D01*
X62870Y268946D01*
X61980Y269315D01*
X61024Y269441D01*
D02*
G37*
G36*
X164856Y242118D02*
X162606D01*
Y239868D01*
X162835Y239899D01*
X163514Y240180D01*
X164097Y240627D01*
X164545Y241210D01*
X164826Y241889D01*
X164856Y242118D01*
D02*
G37*
G36*
X38571Y244456D02*
Y240657D01*
X42369D01*
X42286Y241287D01*
X41850Y242339D01*
X41157Y243243D01*
X40253Y243937D01*
X39200Y244373D01*
X38571Y244456D01*
D02*
G37*
G36*
X82193Y318695D02*
Y316445D01*
X84443D01*
X84412Y316674D01*
X84131Y317353D01*
X83684Y317936D01*
X83101Y318383D01*
X82422Y318665D01*
X82193Y318695D01*
D02*
G37*
G36*
X26890Y249680D02*
X25836Y249542D01*
X24855Y249135D01*
X24012Y248488D01*
X23365Y247645D01*
X22958Y246664D01*
X22819Y245610D01*
X22958Y244557D01*
X23365Y243575D01*
X24012Y242732D01*
X24855Y242085D01*
X25836Y241679D01*
X26890Y241540D01*
X27943Y241679D01*
X28925Y242085D01*
X29768Y242732D01*
X30415Y243575D01*
X30821Y244557D01*
X30960Y245610D01*
X30821Y246664D01*
X30415Y247645D01*
X29768Y248488D01*
X28925Y249135D01*
X27943Y249542D01*
X26890Y249680D01*
D02*
G37*
G36*
X240939Y245563D02*
X235439D01*
X235470Y245334D01*
X235751Y244655D01*
X236198Y244072D01*
X236781Y243625D01*
X237393Y243371D01*
X237447Y243110D01*
X237393Y242849D01*
X236781Y242596D01*
X236198Y242148D01*
X235751Y241565D01*
X235470Y240886D01*
X235439Y240657D01*
X240939D01*
X240909Y240886D01*
X240627Y241565D01*
X240180Y242148D01*
X239597Y242596D01*
X238985Y242849D01*
X238931Y243110D01*
X238985Y243371D01*
X239597Y243625D01*
X240180Y244072D01*
X240627Y244655D01*
X240909Y245334D01*
X240939Y245563D01*
D02*
G37*
G36*
X149106Y233752D02*
X146857D01*
X146887Y233523D01*
X147168Y232844D01*
X147616Y232261D01*
X148199Y231814D01*
X148878Y231533D01*
X149106Y231502D01*
Y233752D01*
D02*
G37*
G36*
X105112Y233358D02*
X102862D01*
Y231109D01*
X103091Y231139D01*
X103770Y231420D01*
X104353Y231868D01*
X104800Y232451D01*
X105082Y233130D01*
X105112Y233358D01*
D02*
G37*
G36*
X101862D02*
X99613D01*
X99643Y233130D01*
X99924Y232451D01*
X100371Y231868D01*
X100954Y231420D01*
X101634Y231139D01*
X101862Y231109D01*
Y233358D01*
D02*
G37*
G36*
X152356Y233752D02*
X150106D01*
Y231502D01*
X150335Y231533D01*
X151014Y231814D01*
X151597Y232261D01*
X152045Y232844D01*
X152326Y233523D01*
X152356Y233752D01*
D02*
G37*
G36*
X310697Y235575D02*
Y232154D01*
X314118D01*
X314048Y232685D01*
X313650Y233647D01*
X313016Y234473D01*
X312190Y235106D01*
X311229Y235505D01*
X310697Y235575D01*
D02*
G37*
G36*
X309697D02*
X309165Y235505D01*
X308204Y235106D01*
X307378Y234473D01*
X306744Y233647D01*
X306346Y232685D01*
X306276Y232154D01*
X309697D01*
Y235575D01*
D02*
G37*
G36*
X81693Y269284D02*
X80737Y269158D01*
X79847Y268789D01*
X79082Y268202D01*
X78495Y267437D01*
X78126Y266546D01*
X78000Y265591D01*
X78126Y264635D01*
X78495Y263744D01*
X79082Y262979D01*
X79847Y262392D01*
X80168Y262259D01*
Y242126D01*
X80284Y241542D01*
X80614Y241047D01*
X86541Y235121D01*
X87045Y234115D01*
X87212Y233277D01*
X87765Y232450D01*
X88591Y231897D01*
X89567Y231703D01*
X90542Y231897D01*
X91369Y232450D01*
X91922Y233277D01*
X92116Y234252D01*
X91922Y235227D01*
X91369Y236054D01*
X90542Y236607D01*
X89704Y236774D01*
X88698Y237278D01*
X83218Y242758D01*
Y262259D01*
X83539Y262392D01*
X84304Y262979D01*
X84891Y263744D01*
X85260Y264635D01*
X85386Y265591D01*
X85260Y266546D01*
X84891Y267437D01*
X84304Y268202D01*
X83539Y268789D01*
X82649Y269158D01*
X81693Y269284D01*
D02*
G37*
G36*
X139264Y231390D02*
X137014D01*
X137044Y231161D01*
X137326Y230482D01*
X137773Y229899D01*
X138356Y229452D01*
X139035Y229170D01*
X139264Y229140D01*
Y231390D01*
D02*
G37*
G36*
X300197Y235347D02*
X299241Y235221D01*
X298350Y234852D01*
X297586Y234265D01*
X296999Y233500D01*
X296630Y232609D01*
X296504Y231654D01*
X296630Y230698D01*
X296999Y229807D01*
X297586Y229042D01*
X298350Y228455D01*
X299241Y228086D01*
X300197Y227961D01*
X301153Y228086D01*
X302043Y228455D01*
X302808Y229042D01*
X303395Y229807D01*
X303764Y230698D01*
X303890Y231654D01*
X303764Y232609D01*
X303395Y233500D01*
X302808Y234265D01*
X302043Y234852D01*
X301153Y235221D01*
X300197Y235347D01*
D02*
G37*
G36*
X314118Y231154D02*
X310697D01*
Y227733D01*
X311229Y227803D01*
X312190Y228201D01*
X313016Y228835D01*
X313650Y229660D01*
X314048Y230622D01*
X314118Y231154D01*
D02*
G37*
G36*
X142513Y231390D02*
X140264D01*
Y229140D01*
X140492Y229170D01*
X141172Y229452D01*
X141755Y229899D01*
X142202Y230482D01*
X142483Y231161D01*
X142513Y231390D01*
D02*
G37*
G36*
X26890Y238775D02*
X25836Y238636D01*
X24855Y238230D01*
X24012Y237583D01*
X23365Y236740D01*
X22958Y235758D01*
X22819Y234705D01*
X22958Y233651D01*
X23365Y232670D01*
X24012Y231827D01*
X24855Y231180D01*
X25836Y230773D01*
X26890Y230634D01*
X27943Y230773D01*
X28925Y231180D01*
X29768Y231827D01*
X30415Y232670D01*
X30821Y233651D01*
X30960Y234705D01*
X30821Y235758D01*
X30415Y236740D01*
X29768Y237583D01*
X28925Y238230D01*
X27943Y238636D01*
X26890Y238775D01*
D02*
G37*
G36*
X38571Y233550D02*
Y229752D01*
X42369D01*
X42286Y230381D01*
X41850Y231434D01*
X41157Y232338D01*
X40253Y233031D01*
X39200Y233467D01*
X38571Y233550D01*
D02*
G37*
G36*
X37571D02*
X36941Y233467D01*
X35889Y233031D01*
X34985Y232338D01*
X34291Y231434D01*
X33856Y230381D01*
X33773Y229752D01*
X37571D01*
Y233550D01*
D02*
G37*
G36*
X139264Y234639D02*
X139035Y234609D01*
X138356Y234328D01*
X137773Y233881D01*
X137326Y233297D01*
X137044Y232618D01*
X137014Y232390D01*
X139264D01*
Y234639D01*
D02*
G37*
G36*
X113970Y237295D02*
X111721D01*
Y235046D01*
X111949Y235076D01*
X112628Y235357D01*
X113211Y235805D01*
X113659Y236388D01*
X113940Y237067D01*
X113970Y237295D01*
D02*
G37*
G36*
X110721D02*
X108471D01*
X108501Y237067D01*
X108782Y236388D01*
X109230Y235805D01*
X109813Y235357D01*
X110492Y235076D01*
X110721Y235046D01*
Y237295D01*
D02*
G37*
G36*
X150106Y237002D02*
Y234752D01*
X152356D01*
X152326Y234981D01*
X152045Y235660D01*
X151597Y236243D01*
X151014Y236690D01*
X150335Y236971D01*
X150106Y237002D01*
D02*
G37*
G36*
X37571Y239657D02*
X33773D01*
X33856Y239028D01*
X34291Y237975D01*
X34985Y237072D01*
X35889Y236378D01*
X36941Y235942D01*
X37571Y235859D01*
Y239657D01*
D02*
G37*
G36*
X202553Y238673D02*
X200303D01*
Y236424D01*
X200532Y236454D01*
X201211Y236735D01*
X201794Y237182D01*
X202241Y237766D01*
X202523Y238445D01*
X202553Y238673D01*
D02*
G37*
G36*
X199303D02*
X197054D01*
X197084Y238445D01*
X197365Y237766D01*
X197812Y237182D01*
X198396Y236735D01*
X199074Y236454D01*
X199303Y236424D01*
Y238673D01*
D02*
G37*
G36*
X42369Y239657D02*
X38571D01*
Y235859D01*
X39200Y235942D01*
X40253Y236378D01*
X41157Y237072D01*
X41850Y237975D01*
X42286Y239028D01*
X42369Y239657D01*
D02*
G37*
G36*
X260624Y235720D02*
X258374D01*
Y233471D01*
X258603Y233501D01*
X259282Y233782D01*
X259865Y234230D01*
X260312Y234813D01*
X260594Y235492D01*
X260624Y235720D01*
D02*
G37*
G36*
X257374D02*
X255124D01*
X255154Y235492D01*
X255436Y234813D01*
X255883Y234230D01*
X256466Y233782D01*
X257145Y233501D01*
X257374Y233471D01*
Y235720D01*
D02*
G37*
G36*
X140264Y234639D02*
Y232390D01*
X142513D01*
X142483Y232618D01*
X142202Y233297D01*
X141755Y233881D01*
X141172Y234328D01*
X140492Y234609D01*
X140264Y234639D01*
D02*
G37*
G36*
X81193Y318695D02*
X80964Y318665D01*
X80285Y318383D01*
X79702Y317936D01*
X79255Y317353D01*
X79001Y316741D01*
X78740Y316687D01*
X78479Y316741D01*
X78226Y317353D01*
X77778Y317936D01*
X77195Y318383D01*
X76516Y318665D01*
X76288Y318695D01*
Y315945D01*
Y313195D01*
X76516Y313226D01*
X77195Y313507D01*
X77778Y313954D01*
X78226Y314537D01*
X78479Y315149D01*
X78740Y315203D01*
X79001Y315149D01*
X79255Y314537D01*
X79702Y313954D01*
X80285Y313507D01*
X80964Y313226D01*
X81193Y313195D01*
Y315945D01*
Y318695D01*
D02*
G37*
G36*
X149106Y237002D02*
X148878Y236971D01*
X148199Y236690D01*
X147616Y236243D01*
X147168Y235660D01*
X146887Y234981D01*
X146857Y234752D01*
X149106D01*
Y237002D01*
D02*
G37*
G36*
X102862Y236608D02*
Y234358D01*
X105112D01*
X105082Y234587D01*
X104800Y235266D01*
X104353Y235849D01*
X103770Y236297D01*
X103091Y236578D01*
X102862Y236608D01*
D02*
G37*
G36*
X101862D02*
X101634Y236578D01*
X100954Y236297D01*
X100371Y235849D01*
X99924Y235266D01*
X99643Y234587D01*
X99613Y234358D01*
X101862D01*
Y236608D01*
D02*
G37*
%LPD*%
G36*
X70561Y244768D02*
X68238Y243823D01*
X67792Y245071D01*
X69461Y245629D01*
X70561Y244768D01*
D02*
G37*
G36*
X235106Y135236D02*
Y134449D01*
X233563Y133589D01*
Y136097D01*
X235106Y135236D01*
D02*
G37*
G36*
X241996Y128347D02*
Y127559D01*
X240453Y126699D01*
Y129207D01*
X241996Y128347D01*
D02*
G37*
G36*
X237456Y132283D02*
X238002Y131496D01*
X236994Y130561D01*
X235732Y132627D01*
X237456Y132283D01*
D02*
G37*
G36*
X89549Y236043D02*
X87776Y234270D01*
X87112Y235593D01*
X88226Y236706D01*
X89549Y236043D01*
D02*
G37*
G36*
X122317Y222342D02*
X119809D01*
X120669Y223885D01*
X121457D01*
X122317Y222342D01*
D02*
G37*
G36*
X270698Y144814D02*
X271226D01*
X270948Y143422D01*
X269556Y143144D01*
Y143672D01*
X268848Y143884D01*
X270486Y145522D01*
X270698Y144814D01*
D02*
G37*
G36*
X124803Y144954D02*
X123228D01*
X122762Y146359D01*
X125270D01*
X124803Y144954D01*
D02*
G37*
G36*
X125270Y122342D02*
X122762D01*
X123228Y123747D01*
X124803D01*
X125270Y122342D01*
D02*
G37*
G36*
X123885Y262795D02*
Y262008D01*
X122342Y261148D01*
Y263656D01*
X123885Y262795D01*
D02*
G37*
G36*
X121457Y259579D02*
X120669D01*
X119809Y261122D01*
X122317D01*
X121457Y259579D01*
D02*
G37*
G36*
X116857Y84449D02*
Y82874D01*
X115453Y82407D01*
Y84915D01*
X116857Y84449D01*
D02*
G37*
G36*
X123721Y82407D02*
X122316Y82874D01*
Y84449D01*
X123721Y84915D01*
Y82407D01*
D02*
G37*
G36*
X118826Y121851D02*
Y120276D01*
X117421Y119809D01*
Y122317D01*
X118826Y121851D01*
D02*
G37*
G36*
X122737Y119809D02*
X121332Y120276D01*
Y121851D01*
X122737Y122317D01*
Y119809D01*
D02*
G37*
G36*
X52435Y251279D02*
X49927D01*
X50394Y252684D01*
X51969D01*
X52435Y251279D01*
D02*
G37*
G36*
X225394Y123032D02*
Y119095D01*
X221457Y115157D01*
X217520Y121063D01*
X221457Y126969D01*
X225394Y123032D01*
D02*
G37*
D23*
X69882Y243110D02*
Y244094D01*
X61024Y252953D02*
X69882Y244094D01*
X51181Y265906D02*
X61024Y275748D01*
X51181Y250000D02*
Y265906D01*
X61024Y252953D02*
Y265748D01*
X81693Y242126D02*
Y265591D01*
Y242126D02*
X89567Y234252D01*
X124016Y121063D02*
Y147638D01*
X114173Y83662D02*
X124016D01*
X116142Y121063D02*
X124016D01*
X114173D02*
X116142D01*
D24*
X270669Y143701D02*
X293307Y166339D01*
X260354Y133386D02*
X270669Y143701D01*
X268701Y145669D02*
X270669Y143701D01*
X296575Y248032D02*
X300197Y251654D01*
X270669Y248032D02*
X296575D01*
X293307Y174764D02*
X300197Y181654D01*
X293307Y166339D02*
Y174764D01*
X237677Y133386D02*
X260354D01*
X300197Y170276D02*
Y171654D01*
X261811Y131890D02*
X300197Y170276D01*
X236221Y131890D02*
X261811D01*
X294528Y161654D02*
X300197D01*
X262795Y129921D02*
X294528Y161654D01*
X244094Y129921D02*
X262795D01*
X134193Y259508D02*
X140413D01*
X131299Y262402D02*
X134193Y259508D01*
X121063Y262402D02*
X131299D01*
X143642Y262736D02*
X255965D01*
X140413Y259508D02*
X143642Y262736D01*
X255965D02*
X270669Y248032D01*
X242126Y127953D02*
X244094Y129921D01*
X239173Y127953D02*
X242126D01*
X236221Y134843D02*
X237677Y133386D01*
X235236Y130906D02*
X236221Y131890D01*
X232283Y134843D02*
X236221D01*
X121063Y221063D02*
Y228937D01*
Y256496D02*
Y262402D01*
Y228937D02*
X123031Y230906D01*
Y254528D01*
X121063Y256496D02*
X123031Y254528D01*
D25*
X239331Y294134D02*
Y301181D01*
Y294134D02*
X246063Y287402D01*
X268714D01*
X294462Y261654D01*
X300197D01*
X148622Y195866D02*
X206693D01*
X140217Y187461D02*
X148622Y195866D01*
X206693D02*
X230315Y172244D01*
X140217Y156949D02*
Y187461D01*
X230315Y172244D02*
X249016D01*
X130906Y147638D02*
X140217Y156949D01*
X119095Y237795D02*
Y250984D01*
X113189Y256890D02*
X119095Y250984D01*
X113189Y256890D02*
Y272244D01*
X119095Y278150D01*
D28*
X278543Y253937D02*
Y268701D01*
X267717Y279528D02*
X278543Y268701D01*
X214567Y279528D02*
X267717D01*
X178150Y54134D02*
X219488Y95473D01*
X178150Y38386D02*
Y54134D01*
X219488Y95473D02*
Y121063D01*
X188976Y294291D02*
X199803D01*
X214567Y279528D01*
X231299Y121063D02*
X244390D01*
X140748Y58071D02*
X159449Y76772D01*
X140748Y48228D02*
Y58071D01*
X159449Y76772D02*
Y81693D01*
X140748Y43307D02*
Y48228D01*
X219488Y121063D02*
X231299D01*
X159449Y173307D02*
Y184055D01*
Y173307D02*
X162933Y169823D01*
X159449Y128937D02*
Y136811D01*
X219488Y121063D02*
Y144685D01*
X159449Y81693D02*
Y92441D01*
X162933Y95925D01*
X219488Y144685D02*
X244094D01*
X159449Y117126D02*
Y128937D01*
Y117126D02*
X162933Y113642D01*
Y95925D02*
Y113642D01*
X159449Y136811D02*
Y148622D01*
X162933Y152106D01*
Y169823D01*
D29*
X300197Y271654D02*
D03*
X61024Y275748D02*
D03*
X81693Y275591D02*
D03*
D30*
X310197Y271654D02*
D03*
X300197Y261654D02*
D03*
X310197D02*
D03*
X300197Y251654D02*
D03*
X310197D02*
D03*
X300197Y241654D02*
D03*
X310197D02*
D03*
X300197Y231654D02*
D03*
X310197D02*
D03*
X300197Y221654D02*
D03*
X310197D02*
D03*
X300197Y211654D02*
D03*
X310197D02*
D03*
X300197Y201654D02*
D03*
X310197D02*
D03*
X300197Y191654D02*
D03*
X310197D02*
D03*
X300197Y181654D02*
D03*
X310197D02*
D03*
X300197Y171654D02*
D03*
X310197D02*
D03*
X300197Y161654D02*
D03*
X310197D02*
D03*
X300197Y151654D02*
D03*
X310197D02*
D03*
X219331Y195866D02*
D03*
X61024Y265748D02*
D03*
X81693Y265591D02*
D03*
X269331Y301181D02*
D03*
X259331D02*
D03*
X249331D02*
D03*
X239331D02*
D03*
D31*
X311024Y14764D02*
D03*
X311024Y325787D02*
D03*
X35433D02*
D03*
X35433Y14764D02*
D03*
D32*
X229331Y195866D02*
D03*
X229331Y301181D02*
D03*
D33*
X38071Y261968D02*
D03*
X26890Y256516D02*
D03*
X38071Y251063D02*
D03*
X26890Y245610D02*
D03*
X38071Y240158D02*
D03*
X26890Y234705D02*
D03*
X38071Y229252D02*
D03*
X26890Y223799D02*
D03*
Y78130D02*
D03*
X38071Y83583D02*
D03*
X26890Y89035D02*
D03*
X38071Y94488D02*
D03*
X26890Y99941D02*
D03*
X38071Y105394D02*
D03*
X26890Y110846D02*
D03*
X38071Y116299D02*
D03*
D34*
Y218347D02*
D03*
Y72677D02*
D03*
D35*
X32480Y190965D02*
D03*
Y289350D02*
D03*
Y143681D02*
D03*
Y45295D02*
D03*
D36*
X241142Y182087D02*
D03*
X238189Y240158D02*
D03*
Y246063D02*
D03*
X91535Y63976D02*
D03*
X112205Y60039D02*
D03*
X92520Y149606D02*
D03*
X113189Y146653D02*
D03*
X138780Y221457D02*
D03*
X69882Y243110D02*
D03*
X248031Y254921D02*
D03*
X51181Y250000D02*
D03*
X218504Y150591D02*
D03*
X89567Y234252D02*
D03*
X282480Y132874D02*
D03*
X268701Y145669D02*
D03*
X282480Y139764D02*
D03*
X249016Y194882D02*
D03*
X281496Y286417D02*
D03*
X286417D02*
D03*
X291339D02*
D03*
X188976Y294291D02*
D03*
X278543Y253937D02*
D03*
X244094Y121063D02*
D03*
X231299D02*
D03*
X89567Y241142D02*
D03*
X102362Y247047D02*
D03*
X63976Y224410D02*
D03*
X81693D02*
D03*
X281496Y176181D02*
D03*
X275591Y164370D02*
D03*
X266732Y171260D02*
D03*
X249016Y172244D02*
D03*
X266732Y194882D02*
D03*
X188976Y312008D02*
D03*
X196851D02*
D03*
X150591Y294291D02*
D03*
X72835Y81693D02*
D03*
X73819Y168307D02*
D03*
X273622Y43307D02*
D03*
X144685Y30512D02*
D03*
X157480Y62992D02*
D03*
X130906Y118110D02*
D03*
Y147638D02*
D03*
X111221Y290354D02*
D03*
X81693Y315945D02*
D03*
X111221D02*
D03*
X119095Y294291D02*
D03*
X67913D02*
D03*
X75788Y315945D02*
D03*
X67913Y312008D02*
D03*
X119095D02*
D03*
X105315Y315945D02*
D03*
X239173Y225394D02*
D03*
X257874Y236221D02*
D03*
X264764Y266732D02*
D03*
X233268Y271654D02*
D03*
X225394D02*
D03*
X214567Y265748D02*
D03*
X224410Y111221D02*
D03*
X251181D02*
D03*
Y154528D02*
D03*
X239173Y127953D02*
D03*
X235236Y130906D02*
D03*
X232283Y134843D02*
D03*
X124016Y147638D02*
D03*
X140748Y48228D02*
D03*
Y43307D02*
D03*
X178150Y44291D02*
D03*
Y38386D02*
D03*
X163386Y30512D02*
D03*
X175197Y62992D02*
D03*
X106299Y47244D02*
D03*
X107283Y133858D02*
D03*
X125000Y83662D02*
D03*
X124016Y121063D02*
D03*
X116142D02*
D03*
X114173Y83662D02*
D03*
X273622Y68898D02*
D03*
X251969Y65945D02*
D03*
X130905Y173228D02*
D03*
X213583Y155512D02*
D03*
X234252Y163386D02*
D03*
Y102362D02*
D03*
X213583Y110236D02*
D03*
X130905Y92520D02*
D03*
X159449Y184055D02*
D03*
Y136811D02*
D03*
X145079Y163976D02*
D03*
X207283Y156890D02*
D03*
X158465Y155512D02*
D03*
Y165354D02*
D03*
X193898Y155512D02*
D03*
Y165354D02*
D03*
X231299Y144685D02*
D03*
X207283Y108858D02*
D03*
X207087Y129331D02*
D03*
Y136417D02*
D03*
X159449Y81693D02*
D03*
Y128937D02*
D03*
X145079Y101772D02*
D03*
X193898Y100394D02*
D03*
Y110236D02*
D03*
X158465Y100394D02*
D03*
Y110236D02*
D03*
X220866Y65945D02*
D03*
X262205D02*
D03*
X66929Y68898D02*
D03*
X67913Y155512D02*
D03*
X113189Y184449D02*
D03*
Y176575D02*
D03*
X111811Y97835D02*
D03*
Y89961D02*
D03*
X206693Y265748D02*
D03*
X272638Y266732D02*
D03*
X243701Y136811D02*
D03*
X260433Y140748D02*
D03*
X162106Y242618D02*
D03*
X212598Y216535D02*
D03*
X244094Y144685D02*
D03*
X193898Y37402D02*
D03*
X199803D02*
D03*
X199803Y239173D02*
D03*
X178150Y209646D02*
D03*
Y278543D02*
D03*
X149606Y234252D02*
D03*
X200787Y229331D02*
D03*
X205709Y210630D02*
D03*
X139764Y272244D02*
D03*
X137795Y262402D02*
D03*
X102362Y274213D02*
D03*
X111221Y278150D02*
D03*
Y237795D02*
D03*
X139764Y231890D02*
D03*
X102362Y233858D02*
D03*
X126969Y237795D02*
D03*
X119095D02*
D03*
X96457Y221063D02*
D03*
X119095Y278150D02*
D03*
X126969D02*
D03*
X96457Y261417D02*
D03*
X149606Y259843D02*
D03*
X121063Y262402D02*
D03*
Y221063D02*
D03*
X158465Y312402D02*
D03*
X150591D02*
D03*
X105315Y290354D02*
D03*
X75788D02*
D03*
X81693D02*
D03*
X196850Y294291D02*
D03*
X158465D02*
D03*
M02*
