%FSLAX25Y25*%
%MOIN*%
G70*
G01*
G75*
G04 Layer_Physical_Order=2*
G04 Layer_Color=16440176*
%ADD10O,0.07874X0.01201*%
%ADD11R,0.05512X0.04724*%
%ADD12R,0.04724X0.05512*%
%ADD13O,0.08661X0.02362*%
%ADD14O,0.07087X0.01772*%
%ADD15R,0.08661X0.07874*%
%ADD16R,0.07874X0.08661*%
%ADD17O,0.09843X0.02756*%
%ADD18O,0.02756X0.09843*%
%ADD19O,0.02362X0.08661*%
%ADD20R,0.06693X0.04331*%
%ADD21R,0.09449X0.10236*%
%ADD22R,0.10236X0.04331*%
%ADD23C,0.01575*%
%ADD24C,0.00787*%
%ADD25C,0.04724*%
%ADD26C,0.02362*%
%ADD27C,0.02756*%
%ADD28C,0.03937*%
%ADD29R,0.05906X0.05906*%
%ADD30C,0.05906*%
%ADD31R,0.27559X0.27559*%
%ADD32R,0.05906X0.05906*%
%ADD33C,0.06654*%
%ADD34R,0.06654X0.06654*%
%ADD35C,0.18740*%
%ADD36C,0.03583*%
G36*
X291300Y308071D02*
X291453Y307303D01*
X291888Y306652D01*
X292539Y306217D01*
X293307Y306064D01*
X319882D01*
Y295276D01*
Y34487D01*
X293307D01*
X292539Y34335D01*
X291888Y33900D01*
X291453Y33248D01*
X291300Y32480D01*
Y4921D01*
X55157D01*
Y32480D01*
X55004Y33248D01*
X54569Y33900D01*
X53918Y34335D01*
X53150Y34487D01*
X33698D01*
X33678Y34987D01*
X34108Y35021D01*
X35695Y35402D01*
X37203Y36027D01*
X38594Y36880D01*
X39836Y37940D01*
X40896Y39181D01*
X41749Y40573D01*
X42373Y42081D01*
X42754Y43668D01*
X42843Y44795D01*
X22118D01*
X22206Y43668D01*
X22587Y42081D01*
X23212Y40573D01*
X24065Y39181D01*
X25125Y37940D01*
X26366Y36880D01*
X27758Y36027D01*
X29266Y35402D01*
X30853Y35021D01*
X31283Y34987D01*
X31263Y34487D01*
X17717D01*
X16949Y34335D01*
X16297Y33900D01*
X15862Y33248D01*
X15710Y32480D01*
Y4921D01*
X5906D01*
Y334646D01*
X15710D01*
Y308071D01*
X15862Y307303D01*
X16297Y306652D01*
X16949Y306217D01*
X17717Y306064D01*
X53150D01*
X53918Y306217D01*
X54569Y306652D01*
X55004Y307303D01*
X55157Y308071D01*
Y334646D01*
X291300D01*
Y308071D01*
D02*
G37*
%LPC*%
G36*
X93020Y152356D02*
Y150106D01*
X95269D01*
X95239Y150335D01*
X94958Y151014D01*
X94511Y151597D01*
X93927Y152044D01*
X93248Y152326D01*
X93020Y152356D01*
D02*
G37*
G36*
X92020D02*
X91791Y152326D01*
X91112Y152044D01*
X90529Y151597D01*
X90082Y151014D01*
X89800Y150335D01*
X89770Y150106D01*
X92020D01*
Y152356D01*
D02*
G37*
G36*
X130906Y151430D02*
X129924Y151301D01*
X129009Y150922D01*
X128224Y150319D01*
X127764Y149720D01*
X127678Y149686D01*
X127243D01*
X127157Y149720D01*
X126697Y150319D01*
X125912Y150922D01*
X124997Y151301D01*
X124016Y151430D01*
X123034Y151301D01*
X122120Y150922D01*
X121334Y150319D01*
X120732Y149534D01*
X120353Y148619D01*
X120223Y147638D01*
X120353Y146656D01*
X120732Y145742D01*
X121334Y144956D01*
X122120Y144354D01*
X123034Y143975D01*
X124016Y143846D01*
X124997Y143975D01*
X125912Y144354D01*
X126697Y144956D01*
X127157Y145556D01*
X127243Y145590D01*
X127678D01*
X127764Y145556D01*
X128224Y144956D01*
X129009Y144354D01*
X129924Y143975D01*
X130906Y143846D01*
X131887Y143975D01*
X132802Y144354D01*
X133587Y144956D01*
X134190Y145742D01*
X134569Y146656D01*
X134698Y147638D01*
X134569Y148619D01*
X134190Y149534D01*
X133587Y150319D01*
X132802Y150922D01*
X131887Y151301D01*
X130906Y151430D01*
D02*
G37*
G36*
X207784Y159639D02*
Y156890D01*
Y154140D01*
X208012Y154170D01*
X208691Y154452D01*
X209274Y154899D01*
X209353Y155002D01*
X209876Y154862D01*
X209920Y154530D01*
X210298Y153616D01*
X210901Y152830D01*
X211687Y152228D01*
X212601Y151849D01*
X213583Y151720D01*
X214564Y151849D01*
X215479Y152228D01*
X215801Y152475D01*
X216158Y152119D01*
X216066Y151998D01*
X215785Y151319D01*
X215754Y151091D01*
X218004D01*
Y153340D01*
X217775Y153310D01*
X217096Y153029D01*
X216976Y152937D01*
X216619Y153293D01*
X216867Y153616D01*
X217246Y154530D01*
X217375Y155512D01*
X217246Y156493D01*
X216867Y157408D01*
X216264Y158193D01*
X215479Y158796D01*
X214564Y159175D01*
X213583Y159304D01*
X212601Y159175D01*
X211687Y158796D01*
X210901Y158193D01*
X210500Y157671D01*
X210351Y157655D01*
X209942Y157765D01*
X209722Y158298D01*
X209274Y158881D01*
X208691Y159328D01*
X208012Y159609D01*
X207784Y159639D01*
D02*
G37*
G36*
X250681Y154028D02*
X248431D01*
X248462Y153799D01*
X248743Y153120D01*
X249190Y152537D01*
X249773Y152089D01*
X250452Y151808D01*
X250681Y151778D01*
Y154028D01*
D02*
G37*
G36*
X219004Y153340D02*
Y151091D01*
X221254D01*
X221223Y151319D01*
X220942Y151998D01*
X220495Y152581D01*
X219912Y153029D01*
X219233Y153310D01*
X219004Y153340D01*
D02*
G37*
G36*
X253931Y154028D02*
X251681D01*
Y151778D01*
X251910Y151808D01*
X252589Y152089D01*
X253172Y152537D01*
X253619Y153120D01*
X253901Y153799D01*
X253931Y154028D01*
D02*
G37*
G36*
X113689Y149403D02*
Y147153D01*
X115939D01*
X115909Y147382D01*
X115627Y148061D01*
X115180Y148644D01*
X114597Y149092D01*
X113918Y149373D01*
X113689Y149403D01*
D02*
G37*
G36*
X112689D02*
X112460Y149373D01*
X111781Y149092D01*
X111198Y148644D01*
X110751Y148061D01*
X110469Y147382D01*
X110439Y147153D01*
X112689D01*
Y149403D01*
D02*
G37*
G36*
X95269Y149106D02*
X93020D01*
Y146857D01*
X93248Y146887D01*
X93927Y147168D01*
X94511Y147616D01*
X94958Y148199D01*
X95239Y148878D01*
X95269Y149106D01*
D02*
G37*
G36*
X309697Y151154D02*
X306276D01*
X306346Y150622D01*
X306744Y149660D01*
X307378Y148835D01*
X308204Y148201D01*
X309165Y147803D01*
X309697Y147733D01*
Y151154D01*
D02*
G37*
G36*
X221254Y150091D02*
X219004D01*
Y147841D01*
X219233Y147871D01*
X219912Y148152D01*
X220495Y148600D01*
X220942Y149183D01*
X221223Y149862D01*
X221254Y150091D01*
D02*
G37*
G36*
X218004D02*
X215754D01*
X215785Y149862D01*
X216066Y149183D01*
X216513Y148600D01*
X217096Y148152D01*
X217775Y147871D01*
X218004Y147841D01*
Y150091D01*
D02*
G37*
G36*
X314118Y151154D02*
X310697D01*
Y147733D01*
X311229Y147803D01*
X312190Y148201D01*
X313016Y148835D01*
X313650Y149660D01*
X314048Y150622D01*
X314118Y151154D01*
D02*
G37*
G36*
X251681Y157277D02*
Y155028D01*
X253931D01*
X253901Y155256D01*
X253619Y155935D01*
X253172Y156518D01*
X252589Y156966D01*
X251910Y157247D01*
X251681Y157277D01*
D02*
G37*
G36*
X250681D02*
X250452Y157247D01*
X249773Y156966D01*
X249190Y156518D01*
X248743Y155935D01*
X248462Y155256D01*
X248431Y155028D01*
X250681D01*
Y157277D01*
D02*
G37*
G36*
X206784Y156390D02*
X204534D01*
X204564Y156161D01*
X204845Y155482D01*
X205293Y154899D01*
X205876Y154452D01*
X206555Y154170D01*
X206784Y154140D01*
Y156390D01*
D02*
G37*
G36*
X157965Y158262D02*
X157736Y158231D01*
X157057Y157950D01*
X156474Y157503D01*
X156026Y156920D01*
X155745Y156241D01*
X155715Y156012D01*
X157965D01*
Y158262D01*
D02*
G37*
G36*
X194398D02*
Y156012D01*
X196647D01*
X196617Y156241D01*
X196336Y156920D01*
X195888Y157503D01*
X195305Y157950D01*
X194626Y158231D01*
X194398Y158262D01*
D02*
G37*
G36*
X193398D02*
X193169Y158231D01*
X192490Y157950D01*
X191907Y157503D01*
X191459Y156920D01*
X191178Y156241D01*
X191148Y156012D01*
X193398D01*
Y158262D01*
D02*
G37*
G36*
X158965D02*
Y156012D01*
X161214D01*
X161184Y156241D01*
X160903Y156920D01*
X160455Y157503D01*
X159872Y157950D01*
X159193Y158231D01*
X158965Y158262D01*
D02*
G37*
G36*
X70663Y155012D02*
X68413D01*
Y152762D01*
X68642Y152792D01*
X69321Y153074D01*
X69904Y153521D01*
X70352Y154104D01*
X70633Y154783D01*
X70663Y155012D01*
D02*
G37*
G36*
X157965Y155012D02*
X155715D01*
X155745Y154783D01*
X156026Y154104D01*
X156474Y153521D01*
X157057Y153074D01*
X157736Y152792D01*
X157965Y152762D01*
Y155012D01*
D02*
G37*
G36*
X310697Y155575D02*
Y152154D01*
X314118D01*
X314048Y152685D01*
X313650Y153647D01*
X313016Y154473D01*
X312190Y155106D01*
X311229Y155505D01*
X310697Y155575D01*
D02*
G37*
G36*
X309697D02*
X309165Y155505D01*
X308204Y155106D01*
X307378Y154473D01*
X306744Y153647D01*
X306346Y152685D01*
X306276Y152154D01*
X309697D01*
Y155575D01*
D02*
G37*
G36*
X161214Y155012D02*
X158965D01*
Y152762D01*
X159193Y152792D01*
X159872Y153074D01*
X160455Y153521D01*
X160903Y154104D01*
X161184Y154783D01*
X161214Y155012D01*
D02*
G37*
G36*
X67413Y155012D02*
X65164D01*
X65194Y154783D01*
X65475Y154104D01*
X65923Y153521D01*
X66506Y153074D01*
X67185Y152792D01*
X67413Y152762D01*
Y155012D01*
D02*
G37*
G36*
X196647Y155012D02*
X194398D01*
Y152762D01*
X194626Y152792D01*
X195305Y153074D01*
X195888Y153521D01*
X196336Y154104D01*
X196617Y154783D01*
X196647Y155012D01*
D02*
G37*
G36*
X193398D02*
X191148D01*
X191178Y154783D01*
X191459Y154104D01*
X191907Y153521D01*
X192490Y153074D01*
X193169Y152792D01*
X193398Y152762D01*
Y155012D01*
D02*
G37*
G36*
X92020Y149106D02*
X89770D01*
X89800Y148878D01*
X90082Y148199D01*
X90529Y147616D01*
X91112Y147168D01*
X91791Y146887D01*
X92020Y146857D01*
Y149106D01*
D02*
G37*
G36*
X207087Y140210D02*
X206105Y140080D01*
X205190Y139702D01*
X204405Y139099D01*
X203802Y138313D01*
X203424Y137399D01*
X203294Y136417D01*
X203424Y135436D01*
X203802Y134521D01*
X204405Y133736D01*
X205190Y133133D01*
X206105Y132754D01*
X206699Y132676D01*
X206699D01*
X206990Y132638D01*
Y132634D01*
Y132615D01*
Y132585D01*
X207183D01*
Y132615D01*
Y132634D01*
Y132638D01*
X207474Y132676D01*
D01*
X208068Y132754D01*
X208983Y133133D01*
X209768Y133736D01*
X210371Y134521D01*
X210750Y135436D01*
X210879Y136417D01*
X210750Y137399D01*
X210371Y138313D01*
X209768Y139099D01*
X208983Y139702D01*
X208068Y140080D01*
X207087Y140210D01*
D02*
G37*
G36*
X285230Y132374D02*
X282980D01*
Y130124D01*
X283209Y130155D01*
X283888Y130436D01*
X284471Y130883D01*
X284919Y131466D01*
X285200Y132145D01*
X285230Y132374D01*
D02*
G37*
G36*
X281980D02*
X279731D01*
X279761Y132145D01*
X280042Y131466D01*
X280490Y130883D01*
X281073Y130436D01*
X281752Y130155D01*
X281980Y130124D01*
Y132374D01*
D02*
G37*
G36*
X31980Y143181D02*
X22118D01*
X22206Y142054D01*
X22587Y140467D01*
X23212Y138959D01*
X24065Y137567D01*
X25125Y136326D01*
X26366Y135266D01*
X27758Y134413D01*
X29266Y133788D01*
X30853Y133407D01*
X31980Y133318D01*
Y143181D01*
D02*
G37*
G36*
X243201Y136311D02*
X240951D01*
X240981Y136082D01*
X241263Y135403D01*
X241710Y134820D01*
X242293Y134373D01*
X242972Y134092D01*
X243201Y134061D01*
Y136311D01*
D02*
G37*
G36*
X282480Y143556D02*
X281499Y143427D01*
X280584Y143048D01*
X279799Y142445D01*
X279196Y141660D01*
X278817Y140745D01*
X278688Y139764D01*
X278817Y138782D01*
X279196Y137868D01*
X279799Y137082D01*
X280584Y136480D01*
X281499Y136101D01*
X281528Y136032D01*
X281270Y135394D01*
X281073Y135312D01*
X280490Y134865D01*
X280042Y134282D01*
X279761Y133603D01*
X279731Y133374D01*
X285230D01*
X285200Y133603D01*
X284919Y134282D01*
X284471Y134865D01*
X283888Y135312D01*
X283691Y135394D01*
X283433Y136032D01*
X283462Y136101D01*
X284377Y136480D01*
X285162Y137082D01*
X285765Y137868D01*
X286143Y138782D01*
X286273Y139764D01*
X286143Y140745D01*
X285765Y141660D01*
X285162Y142445D01*
X284377Y143048D01*
X283462Y143427D01*
X282480Y143556D01*
D02*
G37*
G36*
X42843Y143181D02*
X32980D01*
Y133318D01*
X34108Y133407D01*
X35695Y133788D01*
X37203Y134413D01*
X38594Y135266D01*
X39836Y136326D01*
X40896Y137567D01*
X41749Y138959D01*
X42373Y140467D01*
X42754Y142054D01*
X42843Y143181D01*
D02*
G37*
G36*
X107283Y137651D02*
X106302Y137521D01*
X105387Y137143D01*
X104602Y136540D01*
X103999Y135755D01*
X103620Y134840D01*
X103491Y133858D01*
X103620Y132877D01*
X103999Y131962D01*
X104602Y131177D01*
X105387Y130574D01*
X106302Y130195D01*
X107283Y130066D01*
X108265Y130195D01*
X109180Y130574D01*
X109965Y131177D01*
X110568Y131962D01*
X110947Y132877D01*
X111076Y133858D01*
X110947Y134840D01*
X110568Y135755D01*
X109965Y136540D01*
X109180Y137143D01*
X108265Y137521D01*
X107283Y137651D01*
D02*
G37*
G36*
X159449Y140603D02*
X158467Y140474D01*
X157553Y140095D01*
X156767Y139493D01*
X156165Y138707D01*
X155786Y137793D01*
X155657Y136811D01*
X155786Y135830D01*
X156165Y134915D01*
X156767Y134130D01*
X157553Y133527D01*
X158467Y133148D01*
X158633Y133126D01*
Y132622D01*
X158467Y132600D01*
X157553Y132221D01*
X156767Y131619D01*
X156165Y130833D01*
X155786Y129919D01*
X155657Y128937D01*
X155786Y127955D01*
X156165Y127041D01*
X156767Y126256D01*
X157553Y125653D01*
X158467Y125274D01*
X159449Y125145D01*
X160430Y125274D01*
X161345Y125653D01*
X162130Y126256D01*
X162733Y127041D01*
X163112Y127955D01*
X163241Y128937D01*
X163112Y129919D01*
X162733Y130833D01*
X162130Y131619D01*
X161345Y132221D01*
X160430Y132600D01*
X160265Y132622D01*
Y133126D01*
X160430Y133148D01*
X161345Y133527D01*
X162130Y134130D01*
X162733Y134915D01*
X163112Y135830D01*
X163241Y136811D01*
X163112Y137793D01*
X162733Y138707D01*
X162130Y139493D01*
X161345Y140095D01*
X160430Y140474D01*
X159449Y140603D01*
D02*
G37*
G36*
X232283Y138635D02*
X231302Y138506D01*
X230387Y138127D01*
X229602Y137524D01*
X228999Y136739D01*
X228620Y135824D01*
X228491Y134843D01*
X228620Y133861D01*
X228999Y132946D01*
X229602Y132161D01*
X230387Y131558D01*
X231302Y131179D01*
X231477Y131157D01*
X231444Y130906D01*
X231573Y129924D01*
X231952Y129009D01*
X232555Y128224D01*
X233340Y127621D01*
X234255Y127243D01*
X235236Y127113D01*
X235487Y127146D01*
X235510Y126971D01*
X235889Y126057D01*
X236492Y125271D01*
X237277Y124669D01*
X238192Y124290D01*
X239173Y124161D01*
X240155Y124290D01*
X241069Y124669D01*
X241855Y125271D01*
X242458Y126057D01*
X242836Y126971D01*
X242966Y127953D01*
X242836Y128934D01*
X242458Y129849D01*
X241855Y130634D01*
X241069Y131237D01*
X240155Y131616D01*
X239173Y131745D01*
X238922Y131712D01*
X238899Y131887D01*
X238521Y132802D01*
X237918Y133587D01*
X237132Y134190D01*
X236218Y134569D01*
X236043Y134592D01*
X236076Y134843D01*
X235947Y135824D01*
X235568Y136739D01*
X234965Y137524D01*
X234180Y138127D01*
X233265Y138506D01*
X232283Y138635D01*
D02*
G37*
G36*
X124016Y124855D02*
X123034Y124726D01*
X122120Y124347D01*
X121334Y123745D01*
X120732Y122959D01*
X120353Y122045D01*
X120331Y121879D01*
X119827D01*
X119805Y122045D01*
X119426Y122959D01*
X118823Y123745D01*
X118038Y124347D01*
X117123Y124726D01*
X116142Y124855D01*
X115160Y124726D01*
X114246Y124347D01*
X113460Y123745D01*
X112858Y122959D01*
X112479Y122045D01*
X112349Y121063D01*
X112479Y120081D01*
X112858Y119167D01*
X113460Y118382D01*
X114246Y117779D01*
X115160Y117400D01*
X116142Y117271D01*
X117123Y117400D01*
X118038Y117779D01*
X118823Y118382D01*
X119426Y119167D01*
X119805Y120081D01*
X119827Y120247D01*
X120331D01*
X120353Y120081D01*
X120732Y119167D01*
X121334Y118382D01*
X122120Y117779D01*
X123034Y117400D01*
X124016Y117271D01*
X124997Y117400D01*
X125912Y117779D01*
X126639Y118336D01*
X126865Y118272D01*
X127047Y118154D01*
X127114Y118103D01*
X127243Y117129D01*
X127621Y116214D01*
X128224Y115429D01*
X129009Y114826D01*
X129924Y114447D01*
X130906Y114318D01*
X131887Y114447D01*
X132802Y114826D01*
X133587Y115429D01*
X134190Y116214D01*
X134569Y117129D01*
X134698Y118110D01*
X134569Y119092D01*
X134190Y120006D01*
X133587Y120792D01*
X132802Y121395D01*
X131887Y121773D01*
X130906Y121903D01*
X129924Y121773D01*
X129009Y121395D01*
X128283Y120837D01*
X128056Y120901D01*
X127875Y121020D01*
X127807Y121070D01*
X127679Y122045D01*
X127300Y122959D01*
X126697Y123745D01*
X125912Y124347D01*
X124997Y124726D01*
X124016Y124855D01*
D02*
G37*
G36*
X206587Y128831D02*
X204337D01*
X204367Y128602D01*
X204648Y127923D01*
X205096Y127340D01*
X205679Y126892D01*
X206358Y126611D01*
X206587Y126581D01*
Y128831D01*
D02*
G37*
G36*
X207587Y132080D02*
Y129831D01*
X209836D01*
X209806Y130059D01*
X209525Y130738D01*
X209078Y131322D01*
X208494Y131769D01*
X207815Y132050D01*
X207587Y132080D01*
D02*
G37*
G36*
X206587D02*
X206358Y132050D01*
X205679Y131769D01*
X205096Y131322D01*
X204648Y130738D01*
X204367Y130059D01*
X204337Y129831D01*
X206587D01*
Y132080D01*
D02*
G37*
G36*
X209836Y128831D02*
X207587D01*
Y126581D01*
X207815Y126611D01*
X208494Y126892D01*
X209078Y127340D01*
X209525Y127923D01*
X209806Y128602D01*
X209836Y128831D01*
D02*
G37*
G36*
X112689Y146153D02*
X110439D01*
X110469Y145925D01*
X110751Y145246D01*
X111198Y144663D01*
X111781Y144215D01*
X112460Y143934D01*
X112689Y143904D01*
Y146153D01*
D02*
G37*
G36*
X268701Y149462D02*
X267719Y149332D01*
X266805Y148953D01*
X266019Y148351D01*
X265417Y147565D01*
X265038Y146651D01*
X264909Y145669D01*
X265038Y144688D01*
X265417Y143773D01*
X266019Y142988D01*
X266805Y142385D01*
X267719Y142006D01*
X268701Y141877D01*
X269682Y142006D01*
X270597Y142385D01*
X271382Y142988D01*
X271985Y143773D01*
X272364Y144688D01*
X272493Y145669D01*
X272364Y146651D01*
X271985Y147565D01*
X271382Y148351D01*
X270597Y148953D01*
X269682Y149332D01*
X268701Y149462D01*
D02*
G37*
G36*
X260933Y143498D02*
Y141248D01*
X263183D01*
X263153Y141477D01*
X262871Y142156D01*
X262424Y142739D01*
X261841Y143186D01*
X261162Y143468D01*
X260933Y143498D01*
D02*
G37*
G36*
X115939Y146153D02*
X113689D01*
Y143904D01*
X113918Y143934D01*
X114597Y144215D01*
X115180Y144663D01*
X115627Y145246D01*
X115909Y145925D01*
X115939Y146153D01*
D02*
G37*
G36*
X305118Y276575D02*
X295276D01*
Y266732D01*
X298292D01*
X298391Y266232D01*
X297715Y265952D01*
X296687Y265163D01*
X295898Y264136D01*
X295402Y262938D01*
X295233Y261654D01*
X295402Y260369D01*
X295898Y259172D01*
X296687Y258144D01*
X297715Y257355D01*
X298789Y256910D01*
X298789Y256909D01*
Y256398D01*
X298789Y256397D01*
X297715Y255952D01*
X296687Y255164D01*
X295898Y254135D01*
X295402Y252938D01*
X295233Y251654D01*
X295402Y250369D01*
X295898Y249172D01*
X296687Y248144D01*
X297715Y247355D01*
X298789Y246910D01*
X298789Y246909D01*
Y246398D01*
X298789Y246397D01*
X297715Y245952D01*
X296687Y245163D01*
X295898Y244135D01*
X295402Y242938D01*
X295233Y241654D01*
X295402Y240369D01*
X295898Y239172D01*
X296687Y238144D01*
X297715Y237355D01*
X298789Y236910D01*
X298789Y236909D01*
Y236398D01*
X298789Y236397D01*
X297715Y235952D01*
X296687Y235163D01*
X295898Y234136D01*
X295402Y232938D01*
X295233Y231654D01*
X295402Y230369D01*
X295898Y229172D01*
X296687Y228144D01*
X297715Y227355D01*
X298789Y226910D01*
X298789Y226909D01*
Y226398D01*
X298789Y226397D01*
X297715Y225952D01*
X296687Y225164D01*
X295898Y224135D01*
X295402Y222938D01*
X295233Y221654D01*
X295402Y220369D01*
X295898Y219172D01*
X296687Y218144D01*
X297715Y217355D01*
X298789Y216910D01*
X298789Y216909D01*
Y216398D01*
X298789Y216397D01*
X297715Y215952D01*
X296687Y215163D01*
X295898Y214136D01*
X295402Y212938D01*
X295233Y211654D01*
X295402Y210369D01*
X295898Y209172D01*
X296687Y208144D01*
X297715Y207355D01*
X298789Y206910D01*
X298789Y206909D01*
Y206398D01*
X298789Y206397D01*
X297715Y205952D01*
X296687Y205164D01*
X295898Y204135D01*
X295402Y202938D01*
X295233Y201654D01*
X295402Y200369D01*
X295898Y199172D01*
X296687Y198144D01*
X297715Y197355D01*
X298789Y196910D01*
X298789Y196909D01*
Y196398D01*
X298789Y196397D01*
X297715Y195952D01*
X296687Y195164D01*
X295898Y194135D01*
X295402Y192938D01*
X295233Y191654D01*
X295402Y190369D01*
X295898Y189172D01*
X296687Y188144D01*
X297715Y187355D01*
X298789Y186910D01*
X298789Y186909D01*
Y186398D01*
X298789Y186397D01*
X297715Y185952D01*
X296687Y185163D01*
X295898Y184135D01*
X295402Y182938D01*
X295233Y181654D01*
X295402Y180369D01*
X295898Y179172D01*
X296687Y178144D01*
X297715Y177355D01*
X298789Y176910D01*
X298789Y176909D01*
Y176398D01*
X298789Y176397D01*
X297715Y175952D01*
X296687Y175163D01*
X295898Y174135D01*
X295402Y172938D01*
X295233Y171654D01*
X295402Y170369D01*
X295898Y169172D01*
X296687Y168144D01*
X297715Y167355D01*
X298789Y166910D01*
X298789Y166909D01*
Y166398D01*
X298789Y166397D01*
X297715Y165952D01*
X296687Y165164D01*
X295898Y164136D01*
X295402Y162938D01*
X295233Y161654D01*
X295402Y160369D01*
X295898Y159172D01*
X296687Y158144D01*
X297715Y157355D01*
X298789Y156910D01*
X298789Y156909D01*
Y156398D01*
X298789Y156397D01*
X297715Y155952D01*
X296687Y155164D01*
X295898Y154136D01*
X295402Y152938D01*
X295233Y151654D01*
X295402Y150369D01*
X295898Y149172D01*
X296687Y148144D01*
X297715Y147355D01*
X298912Y146859D01*
X300197Y146690D01*
X301482Y146859D01*
X302679Y147355D01*
X303707Y148144D01*
X304496Y149172D01*
X304992Y150369D01*
X305161Y151654D01*
X304992Y152938D01*
X304496Y154136D01*
X303707Y155164D01*
X302679Y155952D01*
X301605Y156397D01*
X301605Y156398D01*
Y156909D01*
X301605Y156910D01*
X302679Y157355D01*
X303707Y158144D01*
X304496Y159172D01*
X304992Y160369D01*
X305161Y161654D01*
X304992Y162938D01*
X304496Y164136D01*
X303707Y165164D01*
X302679Y165952D01*
X301605Y166397D01*
X301605Y166398D01*
Y166909D01*
X301605Y166910D01*
X302679Y167355D01*
X303707Y168144D01*
X304496Y169172D01*
X304992Y170369D01*
X305161Y171654D01*
X304992Y172938D01*
X304496Y174135D01*
X303707Y175163D01*
X302679Y175952D01*
X301605Y176397D01*
X301605Y176398D01*
Y176909D01*
X301605Y176910D01*
X302679Y177355D01*
X303707Y178144D01*
X304496Y179172D01*
X304992Y180369D01*
X305161Y181654D01*
X304992Y182938D01*
X304496Y184135D01*
X303707Y185163D01*
X302679Y185952D01*
X301605Y186397D01*
X301605Y186398D01*
Y186909D01*
X301605Y186910D01*
X302679Y187355D01*
X303707Y188144D01*
X304496Y189172D01*
X304992Y190369D01*
X305161Y191654D01*
X304992Y192938D01*
X304496Y194135D01*
X303707Y195164D01*
X302679Y195952D01*
X301605Y196397D01*
X301605Y196398D01*
Y196909D01*
X301605Y196910D01*
X302679Y197355D01*
X303707Y198144D01*
X304496Y199172D01*
X304992Y200369D01*
X305161Y201654D01*
X304992Y202938D01*
X304496Y204135D01*
X303707Y205164D01*
X302679Y205952D01*
X301605Y206397D01*
X301605Y206398D01*
Y206909D01*
X301605Y206910D01*
X302679Y207355D01*
X303707Y208144D01*
X304496Y209172D01*
X304992Y210369D01*
X305161Y211654D01*
X304992Y212938D01*
X304496Y214136D01*
X303707Y215163D01*
X302679Y215952D01*
X301605Y216397D01*
X301605Y216398D01*
Y216909D01*
X301605Y216910D01*
X302679Y217355D01*
X303707Y218144D01*
X304496Y219172D01*
X304992Y220369D01*
X305161Y221654D01*
X304992Y222938D01*
X304496Y224135D01*
X303707Y225164D01*
X302679Y225952D01*
X301605Y226397D01*
X301605Y226398D01*
Y226909D01*
X301605Y226910D01*
X302679Y227355D01*
X303707Y228144D01*
X304496Y229172D01*
X304992Y230369D01*
X305161Y231654D01*
X304992Y232938D01*
X304496Y234136D01*
X303707Y235163D01*
X302679Y235952D01*
X301605Y236397D01*
X301605Y236398D01*
Y236909D01*
X301605Y236910D01*
X302679Y237355D01*
X303707Y238144D01*
X304496Y239172D01*
X304992Y240369D01*
X305161Y241654D01*
X304992Y242938D01*
X304496Y244135D01*
X303707Y245163D01*
X302679Y245952D01*
X301605Y246397D01*
X301605Y246398D01*
Y246909D01*
X301605Y246910D01*
X302679Y247355D01*
X303707Y248144D01*
X304496Y249172D01*
X304992Y250369D01*
X305161Y251654D01*
X304992Y252938D01*
X304496Y254135D01*
X303707Y255164D01*
X302679Y255952D01*
X301605Y256397D01*
X301605Y256398D01*
Y256909D01*
X301605Y256910D01*
X302679Y257355D01*
X303707Y258144D01*
X304496Y259172D01*
X304992Y260369D01*
X305161Y261654D01*
X304992Y262938D01*
X304496Y264136D01*
X303707Y265163D01*
X302679Y265952D01*
X302003Y266232D01*
X302102Y266732D01*
X305118D01*
Y276575D01*
D02*
G37*
G36*
X32980Y154044D02*
Y144181D01*
X42843D01*
X42754Y145308D01*
X42373Y146896D01*
X41749Y148404D01*
X40896Y149795D01*
X39836Y151037D01*
X38594Y152097D01*
X37203Y152950D01*
X35695Y153574D01*
X34108Y153955D01*
X32980Y154044D01*
D02*
G37*
G36*
X31980D02*
X30853Y153955D01*
X29266Y153574D01*
X27758Y152950D01*
X26366Y152097D01*
X25125Y151037D01*
X24065Y149795D01*
X23212Y148404D01*
X22587Y146896D01*
X22206Y145308D01*
X22118Y144181D01*
X31980D01*
Y154044D01*
D02*
G37*
G36*
X259933Y143498D02*
X259704Y143468D01*
X259025Y143186D01*
X258442Y142739D01*
X257995Y142156D01*
X257714Y141477D01*
X257683Y141248D01*
X259933D01*
Y143498D01*
D02*
G37*
G36*
X244201Y139561D02*
Y137311D01*
X246450D01*
X246420Y137540D01*
X246139Y138219D01*
X245692Y138802D01*
X245109Y139249D01*
X244429Y139531D01*
X244201Y139561D01*
D02*
G37*
G36*
X243201D02*
X242972Y139531D01*
X242293Y139249D01*
X241710Y138802D01*
X241263Y138219D01*
X240981Y137540D01*
X240951Y137311D01*
X243201D01*
Y139561D01*
D02*
G37*
G36*
X246450Y136311D02*
X244201D01*
Y134061D01*
X244429Y134092D01*
X245109Y134373D01*
X245692Y134820D01*
X246139Y135403D01*
X246420Y136082D01*
X246450Y136311D01*
D02*
G37*
G36*
X259933Y140248D02*
X257683D01*
X257714Y140019D01*
X257995Y139340D01*
X258442Y138757D01*
X259025Y138310D01*
X259704Y138029D01*
X259933Y137998D01*
Y140248D01*
D02*
G37*
G36*
X244094Y148477D02*
X243113Y148348D01*
X242198Y147969D01*
X241413Y147367D01*
X240810Y146581D01*
X240431Y145667D01*
X240302Y144685D01*
X240431Y143704D01*
X240810Y142789D01*
X241413Y142004D01*
X242198Y141401D01*
X243113Y141022D01*
X244094Y140893D01*
X245076Y141022D01*
X245991Y141401D01*
X246776Y142004D01*
X247379Y142789D01*
X247758Y143704D01*
X247887Y144685D01*
X247758Y145667D01*
X247379Y146581D01*
X246776Y147367D01*
X245991Y147969D01*
X245076Y148348D01*
X244094Y148477D01*
D02*
G37*
G36*
X231299D02*
X230318Y148348D01*
X229403Y147969D01*
X228618Y147367D01*
X228015Y146581D01*
X227636Y145667D01*
X227507Y144685D01*
X227636Y143704D01*
X228015Y142789D01*
X228618Y142004D01*
X229403Y141401D01*
X230318Y141022D01*
X231299Y140893D01*
X232281Y141022D01*
X233195Y141401D01*
X233981Y142004D01*
X234583Y142789D01*
X234962Y143704D01*
X235091Y144685D01*
X234962Y145667D01*
X234583Y146581D01*
X233981Y147367D01*
X233195Y147969D01*
X232281Y148348D01*
X231299Y148477D01*
D02*
G37*
G36*
X263183Y140248D02*
X260933D01*
Y137998D01*
X261162Y138029D01*
X261841Y138310D01*
X262424Y138757D01*
X262871Y139340D01*
X263153Y140019D01*
X263183Y140248D01*
D02*
G37*
G36*
X130405Y175978D02*
X130177Y175948D01*
X129498Y175667D01*
X128915Y175219D01*
X128467Y174636D01*
X128186Y173957D01*
X128156Y173728D01*
X130405D01*
Y175978D01*
D02*
G37*
G36*
X281496Y179973D02*
X280515Y179844D01*
X279600Y179465D01*
X278815Y178863D01*
X278212Y178077D01*
X277833Y177163D01*
X277704Y176181D01*
X277833Y175200D01*
X278212Y174285D01*
X278815Y173500D01*
X279600Y172897D01*
X280515Y172518D01*
X281496Y172389D01*
X282478Y172518D01*
X283392Y172897D01*
X284178Y173500D01*
X284780Y174285D01*
X285159Y175200D01*
X285288Y176181D01*
X285159Y177163D01*
X284780Y178077D01*
X284178Y178863D01*
X283392Y179465D01*
X282478Y179844D01*
X281496Y179973D01*
D02*
G37*
G36*
X310697Y175575D02*
Y172154D01*
X314118D01*
X314048Y172686D01*
X313650Y173647D01*
X313016Y174473D01*
X312190Y175106D01*
X311229Y175505D01*
X310697Y175575D01*
D02*
G37*
G36*
X131405Y175978D02*
Y173728D01*
X133655D01*
X133625Y173957D01*
X133344Y174636D01*
X132896Y175219D01*
X132313Y175667D01*
X131634Y175948D01*
X131405Y175978D01*
D02*
G37*
G36*
X112689Y179324D02*
X112460Y179294D01*
X111781Y179013D01*
X111198Y178566D01*
X110751Y177983D01*
X110469Y177304D01*
X110439Y177075D01*
X112689D01*
Y179324D01*
D02*
G37*
G36*
X115939Y176075D02*
X113689D01*
Y173825D01*
X113918Y173855D01*
X114597Y174137D01*
X115180Y174584D01*
X115627Y175167D01*
X115909Y175846D01*
X115939Y176075D01*
D02*
G37*
G36*
X112689D02*
X110439D01*
X110469Y175846D01*
X110751Y175167D01*
X111198Y174584D01*
X111781Y174137D01*
X112460Y173855D01*
X112689Y173825D01*
Y176075D01*
D02*
G37*
G36*
X309697Y175575D02*
X309165Y175505D01*
X308204Y175106D01*
X307378Y174473D01*
X306744Y173647D01*
X306346Y172686D01*
X306276Y172154D01*
X309697D01*
Y175575D01*
D02*
G37*
G36*
X269482Y170760D02*
X267232D01*
Y168510D01*
X267461Y168540D01*
X268140Y168822D01*
X268723Y169269D01*
X269171Y169852D01*
X269452Y170531D01*
X269482Y170760D01*
D02*
G37*
G36*
X266232D02*
X263983D01*
X264013Y170531D01*
X264294Y169852D01*
X264741Y169269D01*
X265325Y168822D01*
X266004Y168540D01*
X266232Y168510D01*
Y170760D01*
D02*
G37*
G36*
X249016Y176036D02*
X248034Y175907D01*
X247120Y175528D01*
X246334Y174926D01*
X245732Y174140D01*
X245353Y173226D01*
X245223Y172244D01*
X245353Y171263D01*
X245732Y170348D01*
X246334Y169563D01*
X247120Y168960D01*
X248034Y168581D01*
X249016Y168452D01*
X249997Y168581D01*
X250912Y168960D01*
X251697Y169563D01*
X252300Y170348D01*
X252679Y171263D01*
X252808Y172244D01*
X252679Y173226D01*
X252300Y174140D01*
X251697Y174926D01*
X250912Y175528D01*
X249997Y175907D01*
X249016Y176036D01*
D02*
G37*
G36*
X130405Y172728D02*
X128156D01*
X128186Y172500D01*
X128467Y171821D01*
X128915Y171238D01*
X129498Y170790D01*
X130177Y170509D01*
X130405Y170479D01*
Y172728D01*
D02*
G37*
G36*
X267232Y174010D02*
Y171760D01*
X269482D01*
X269452Y171989D01*
X269171Y172668D01*
X268723Y173251D01*
X268140Y173698D01*
X267461Y173979D01*
X267232Y174010D01*
D02*
G37*
G36*
X266232D02*
X266004Y173979D01*
X265325Y173698D01*
X264741Y173251D01*
X264294Y172668D01*
X264013Y171989D01*
X263983Y171760D01*
X266232D01*
Y174010D01*
D02*
G37*
G36*
X133655Y172728D02*
X131405D01*
Y170479D01*
X131634Y170509D01*
X132313Y170790D01*
X132896Y171238D01*
X133344Y171821D01*
X133625Y172500D01*
X133655Y172728D01*
D02*
G37*
G36*
X309697Y185575D02*
X309165Y185505D01*
X308204Y185106D01*
X307378Y184473D01*
X306744Y183647D01*
X306346Y182685D01*
X306276Y182154D01*
X309697D01*
Y185575D01*
D02*
G37*
G36*
X115939Y183949D02*
X113689D01*
Y181699D01*
X113918Y181729D01*
X114597Y182011D01*
X115180Y182458D01*
X115627Y183041D01*
X115909Y183720D01*
X115939Y183949D01*
D02*
G37*
G36*
X112689D02*
X110439D01*
X110469Y183720D01*
X110751Y183041D01*
X111198Y182458D01*
X111781Y182011D01*
X112460Y181729D01*
X112689Y181699D01*
Y183949D01*
D02*
G37*
G36*
X310697Y185575D02*
Y182154D01*
X314118D01*
X314048Y182685D01*
X313650Y183647D01*
X313016Y184473D01*
X312190Y185106D01*
X311229Y185505D01*
X310697Y185575D01*
D02*
G37*
G36*
X112689Y187198D02*
X112460Y187168D01*
X111781Y186887D01*
X111198Y186440D01*
X110751Y185857D01*
X110469Y185178D01*
X110439Y184949D01*
X112689D01*
Y187198D01*
D02*
G37*
G36*
X241642Y184836D02*
Y182587D01*
X243891D01*
X243861Y182815D01*
X243580Y183494D01*
X243132Y184077D01*
X242549Y184525D01*
X241870Y184806D01*
X241642Y184836D01*
D02*
G37*
G36*
X240642D02*
X240413Y184806D01*
X239734Y184525D01*
X239151Y184077D01*
X238703Y183494D01*
X238422Y182815D01*
X238392Y182587D01*
X240642D01*
Y184836D01*
D02*
G37*
G36*
X42843Y190465D02*
X32980D01*
Y180602D01*
X34108Y180691D01*
X35695Y181071D01*
X37203Y181696D01*
X38594Y182549D01*
X39836Y183609D01*
X40896Y184850D01*
X41749Y186242D01*
X42373Y187750D01*
X42754Y189337D01*
X42843Y190465D01*
D02*
G37*
G36*
X314118Y181154D02*
X310697D01*
Y177733D01*
X311229Y177803D01*
X312190Y178201D01*
X313016Y178834D01*
X313650Y179660D01*
X314048Y180622D01*
X314118Y181154D01*
D02*
G37*
G36*
X309697D02*
X306276D01*
X306346Y180622D01*
X306744Y179660D01*
X307378Y178834D01*
X308204Y178201D01*
X309165Y177803D01*
X309697Y177733D01*
Y181154D01*
D02*
G37*
G36*
X113689Y179324D02*
Y177075D01*
X115939D01*
X115909Y177304D01*
X115627Y177983D01*
X115180Y178566D01*
X114597Y179013D01*
X113918Y179294D01*
X113689Y179324D01*
D02*
G37*
G36*
X240642Y181587D02*
X238392D01*
X238422Y181358D01*
X238703Y180679D01*
X239151Y180096D01*
X239734Y179648D01*
X240413Y179367D01*
X240642Y179337D01*
Y181587D01*
D02*
G37*
G36*
X31980Y190465D02*
X22118D01*
X22206Y189337D01*
X22587Y187750D01*
X23212Y186242D01*
X24065Y184850D01*
X25125Y183609D01*
X26366Y182549D01*
X27758Y181696D01*
X29266Y181071D01*
X30853Y180691D01*
X31980Y180602D01*
Y190465D01*
D02*
G37*
G36*
X159449Y187847D02*
X158467Y187718D01*
X157553Y187339D01*
X156767Y186737D01*
X156165Y185951D01*
X155786Y185037D01*
X155657Y184055D01*
X155786Y183074D01*
X156165Y182159D01*
X156767Y181374D01*
X157553Y180771D01*
X158467Y180392D01*
X159449Y180263D01*
X160430Y180392D01*
X161345Y180771D01*
X162130Y181374D01*
X162733Y182159D01*
X163112Y183074D01*
X163241Y184055D01*
X163112Y185037D01*
X162733Y185951D01*
X162130Y186737D01*
X161345Y187339D01*
X160430Y187718D01*
X159449Y187847D01*
D02*
G37*
G36*
X243891Y181587D02*
X241642D01*
Y179337D01*
X241870Y179367D01*
X242549Y179648D01*
X243132Y180096D01*
X243580Y180679D01*
X243861Y181358D01*
X243891Y181587D01*
D02*
G37*
G36*
X278340Y163870D02*
X276091D01*
Y161620D01*
X276319Y161651D01*
X276998Y161932D01*
X277581Y162379D01*
X278029Y162962D01*
X278310Y163641D01*
X278340Y163870D01*
D02*
G37*
G36*
X275091D02*
X272841D01*
X272871Y163641D01*
X273152Y162962D01*
X273600Y162379D01*
X274183Y161932D01*
X274862Y161651D01*
X275091Y161620D01*
Y163870D01*
D02*
G37*
G36*
X147828Y163476D02*
X145579D01*
Y161227D01*
X145808Y161257D01*
X146486Y161538D01*
X147070Y161986D01*
X147517Y162569D01*
X147798Y163248D01*
X147828Y163476D01*
D02*
G37*
G36*
X309697Y165575D02*
X309165Y165505D01*
X308204Y165106D01*
X307378Y164473D01*
X306744Y163647D01*
X306346Y162686D01*
X306276Y162154D01*
X309697D01*
Y165575D01*
D02*
G37*
G36*
X161214Y164854D02*
X158965D01*
Y162605D01*
X159193Y162635D01*
X159872Y162916D01*
X160455Y163364D01*
X160903Y163947D01*
X161184Y164626D01*
X161214Y164854D01*
D02*
G37*
G36*
X157965D02*
X155715D01*
X155745Y164626D01*
X156026Y163947D01*
X156474Y163364D01*
X157057Y162916D01*
X157736Y162635D01*
X157965Y162605D01*
Y164854D01*
D02*
G37*
G36*
X310697Y165575D02*
Y162154D01*
X314118D01*
X314048Y162686D01*
X313650Y163647D01*
X313016Y164473D01*
X312190Y165106D01*
X311229Y165505D01*
X310697Y165575D01*
D02*
G37*
G36*
X144579Y163476D02*
X142329D01*
X142359Y163248D01*
X142641Y162569D01*
X143088Y161986D01*
X143671Y161538D01*
X144350Y161257D01*
X144579Y161227D01*
Y163476D01*
D02*
G37*
G36*
X206784Y159639D02*
X206555Y159609D01*
X205876Y159328D01*
X205293Y158881D01*
X204845Y158298D01*
X204564Y157618D01*
X204534Y157390D01*
X206784D01*
Y159639D01*
D02*
G37*
G36*
X68413Y158262D02*
Y156012D01*
X70663D01*
X70633Y156241D01*
X70352Y156920D01*
X69904Y157503D01*
X69321Y157950D01*
X68642Y158231D01*
X68413Y158262D01*
D02*
G37*
G36*
X67413D02*
X67185Y158231D01*
X66506Y157950D01*
X65923Y157503D01*
X65475Y156920D01*
X65194Y156241D01*
X65164Y156012D01*
X67413D01*
Y158262D01*
D02*
G37*
G36*
X309697Y161154D02*
X306276D01*
X306346Y160622D01*
X306744Y159660D01*
X307378Y158835D01*
X308204Y158201D01*
X309165Y157803D01*
X309697Y157733D01*
Y161154D01*
D02*
G37*
G36*
X237002Y162886D02*
X234752D01*
Y160636D01*
X234981Y160666D01*
X235660Y160948D01*
X236243Y161395D01*
X236690Y161978D01*
X236971Y162657D01*
X237002Y162886D01*
D02*
G37*
G36*
X233752D02*
X231502D01*
X231533Y162657D01*
X231814Y161978D01*
X232261Y161395D01*
X232844Y160948D01*
X233523Y160666D01*
X233752Y160636D01*
Y162886D01*
D02*
G37*
G36*
X314118Y161154D02*
X310697D01*
Y157733D01*
X311229Y157803D01*
X312190Y158201D01*
X313016Y158835D01*
X313650Y159660D01*
X314048Y160622D01*
X314118Y161154D01*
D02*
G37*
G36*
X158965Y168104D02*
Y165854D01*
X161214D01*
X161184Y166083D01*
X160903Y166762D01*
X160455Y167345D01*
X159872Y167793D01*
X159193Y168074D01*
X158965Y168104D01*
D02*
G37*
G36*
X157965D02*
X157736Y168074D01*
X157057Y167793D01*
X156474Y167345D01*
X156026Y166762D01*
X155745Y166083D01*
X155715Y165854D01*
X157965D01*
Y168104D01*
D02*
G37*
G36*
X276091Y167120D02*
Y164870D01*
X278340D01*
X278310Y165099D01*
X278029Y165778D01*
X277581Y166361D01*
X276998Y166808D01*
X276319Y167090D01*
X276091Y167120D01*
D02*
G37*
G36*
X193398Y168104D02*
X193169Y168074D01*
X192490Y167793D01*
X191907Y167345D01*
X191459Y166762D01*
X191178Y166083D01*
X191148Y165854D01*
X193398D01*
Y168104D01*
D02*
G37*
G36*
X314118Y171154D02*
X310697D01*
Y167733D01*
X311229Y167803D01*
X312190Y168201D01*
X313016Y168834D01*
X313650Y169660D01*
X314048Y170622D01*
X314118Y171154D01*
D02*
G37*
G36*
X309697D02*
X306276D01*
X306346Y170622D01*
X306744Y169660D01*
X307378Y168834D01*
X308204Y168201D01*
X309165Y167803D01*
X309697Y167733D01*
Y171154D01*
D02*
G37*
G36*
X194398Y168104D02*
Y165854D01*
X196647D01*
X196617Y166083D01*
X196336Y166762D01*
X195888Y167345D01*
X195305Y167793D01*
X194626Y168074D01*
X194398Y168104D01*
D02*
G37*
G36*
X275091Y167120D02*
X274862Y167090D01*
X274183Y166808D01*
X273600Y166361D01*
X273152Y165778D01*
X272871Y165099D01*
X272841Y164870D01*
X275091D01*
Y167120D01*
D02*
G37*
G36*
X233752Y166136D02*
X233523Y166105D01*
X232844Y165824D01*
X232261Y165377D01*
X231814Y164794D01*
X231533Y164115D01*
X231502Y163886D01*
X233752D01*
Y166136D01*
D02*
G37*
G36*
X196647Y164854D02*
X194398D01*
Y162605D01*
X194626Y162635D01*
X195305Y162916D01*
X195888Y163364D01*
X196336Y163947D01*
X196617Y164626D01*
X196647Y164854D01*
D02*
G37*
G36*
X193398D02*
X191148D01*
X191178Y164626D01*
X191459Y163947D01*
X191907Y163364D01*
X192490Y162916D01*
X193169Y162635D01*
X193398Y162605D01*
Y164854D01*
D02*
G37*
G36*
X234752Y166136D02*
Y163886D01*
X237002D01*
X236971Y164115D01*
X236690Y164794D01*
X236243Y165377D01*
X235660Y165824D01*
X234981Y166105D01*
X234752Y166136D01*
D02*
G37*
G36*
X73819Y172099D02*
X72837Y171970D01*
X71923Y171591D01*
X71137Y170989D01*
X70535Y170203D01*
X70156Y169289D01*
X70027Y168307D01*
X70156Y167326D01*
X70535Y166411D01*
X71137Y165626D01*
X71923Y165023D01*
X72837Y164644D01*
X73819Y164515D01*
X74800Y164644D01*
X75715Y165023D01*
X76500Y165626D01*
X77103Y166411D01*
X77482Y167326D01*
X77611Y168307D01*
X77482Y169289D01*
X77103Y170203D01*
X76500Y170989D01*
X75715Y171591D01*
X74800Y171970D01*
X73819Y172099D01*
D02*
G37*
G36*
X145579Y166726D02*
Y164476D01*
X147828D01*
X147798Y164705D01*
X147517Y165384D01*
X147070Y165967D01*
X146486Y166415D01*
X145808Y166696D01*
X145579Y166726D01*
D02*
G37*
G36*
X144579D02*
X144350Y166696D01*
X143671Y166415D01*
X143088Y165967D01*
X142641Y165384D01*
X142359Y164705D01*
X142329Y164476D01*
X144579D01*
Y166726D01*
D02*
G37*
G36*
X244094Y124855D02*
X243113Y124726D01*
X242198Y124347D01*
X241413Y123745D01*
X240810Y122959D01*
X240431Y122045D01*
X240302Y121063D01*
X240431Y120081D01*
X240810Y119167D01*
X241413Y118382D01*
X242198Y117779D01*
X243113Y117400D01*
X244094Y117271D01*
X245076Y117400D01*
X245991Y117779D01*
X246776Y118382D01*
X247379Y119167D01*
X247758Y120081D01*
X247887Y121063D01*
X247758Y122045D01*
X247379Y122959D01*
X246776Y123745D01*
X245991Y124347D01*
X245076Y124726D01*
X244094Y124855D01*
D02*
G37*
G36*
X252468Y68695D02*
Y66445D01*
X254718D01*
X254688Y66674D01*
X254407Y67353D01*
X253959Y67936D01*
X253376Y68383D01*
X252697Y68664D01*
X252468Y68695D01*
D02*
G37*
G36*
X251468D02*
X251240Y68664D01*
X250561Y68383D01*
X249978Y67936D01*
X249530Y67353D01*
X249249Y66674D01*
X249219Y66445D01*
X251468D01*
Y68695D01*
D02*
G37*
G36*
X69679Y68398D02*
X67429D01*
Y66148D01*
X67658Y66178D01*
X68337Y66460D01*
X68920Y66907D01*
X69367Y67490D01*
X69649Y68169D01*
X69679Y68398D01*
D02*
G37*
G36*
X220366Y68695D02*
X220138Y68664D01*
X219459Y68383D01*
X218875Y67936D01*
X218428Y67353D01*
X218147Y66674D01*
X218117Y66445D01*
X220366D01*
Y68695D01*
D02*
G37*
G36*
X262705D02*
Y66445D01*
X264954D01*
X264924Y66674D01*
X264643Y67353D01*
X264196Y67936D01*
X263613Y68383D01*
X262933Y68664D01*
X262705Y68695D01*
D02*
G37*
G36*
X261705D02*
X261476Y68664D01*
X260797Y68383D01*
X260214Y67936D01*
X259767Y67353D01*
X259485Y66674D01*
X259455Y66445D01*
X261705D01*
Y68695D01*
D02*
G37*
G36*
X221366D02*
Y66445D01*
X223616D01*
X223586Y66674D01*
X223304Y67353D01*
X222857Y67936D01*
X222274Y68383D01*
X221595Y68664D01*
X221366Y68695D01*
D02*
G37*
G36*
X66429Y68398D02*
X64180D01*
X64210Y68169D01*
X64491Y67490D01*
X64938Y66907D01*
X65522Y66460D01*
X66201Y66178D01*
X66429Y66148D01*
Y68398D01*
D02*
G37*
G36*
X157980Y65742D02*
Y63492D01*
X160230D01*
X160200Y63721D01*
X159919Y64400D01*
X159471Y64983D01*
X158888Y65430D01*
X158209Y65712D01*
X157980Y65742D01*
D02*
G37*
G36*
X156980D02*
X156752Y65712D01*
X156073Y65430D01*
X155490Y64983D01*
X155042Y64400D01*
X154761Y63721D01*
X154731Y63492D01*
X156980D01*
Y65742D01*
D02*
G37*
G36*
X264954Y65445D02*
X262705D01*
Y63195D01*
X262933Y63226D01*
X263613Y63507D01*
X264196Y63954D01*
X264643Y64537D01*
X264924Y65216D01*
X264954Y65445D01*
D02*
G37*
G36*
X91035Y66726D02*
X90807Y66696D01*
X90128Y66415D01*
X89545Y65967D01*
X89097Y65384D01*
X88816Y64705D01*
X88786Y64476D01*
X91035D01*
Y66726D01*
D02*
G37*
G36*
X276372Y68398D02*
X274122D01*
Y66148D01*
X274351Y66178D01*
X275030Y66460D01*
X275613Y66907D01*
X276060Y67490D01*
X276342Y68169D01*
X276372Y68398D01*
D02*
G37*
G36*
X273122D02*
X270872D01*
X270903Y68169D01*
X271184Y67490D01*
X271631Y66907D01*
X272214Y66460D01*
X272893Y66178D01*
X273122Y66148D01*
Y68398D01*
D02*
G37*
G36*
X92035Y66726D02*
Y64476D01*
X94285D01*
X94255Y64705D01*
X93974Y65384D01*
X93526Y65967D01*
X92943Y66415D01*
X92264Y66696D01*
X92035Y66726D01*
D02*
G37*
G36*
X72835Y85485D02*
X71853Y85356D01*
X70939Y84977D01*
X70153Y84374D01*
X69551Y83589D01*
X69172Y82674D01*
X69042Y81693D01*
X69172Y80712D01*
X69551Y79797D01*
X70153Y79011D01*
X70939Y78409D01*
X71853Y78030D01*
X72835Y77901D01*
X73816Y78030D01*
X74731Y78409D01*
X75516Y79011D01*
X76119Y79797D01*
X76498Y80712D01*
X76627Y81693D01*
X76498Y82674D01*
X76119Y83589D01*
X75516Y84374D01*
X74731Y84977D01*
X73816Y85356D01*
X72835Y85485D01*
D02*
G37*
G36*
X159449Y85485D02*
X158467Y85356D01*
X157553Y84977D01*
X156767Y84374D01*
X156165Y83589D01*
X155786Y82674D01*
X155657Y81693D01*
X155786Y80712D01*
X156165Y79797D01*
X156767Y79011D01*
X157553Y78409D01*
X158467Y78030D01*
X159449Y77901D01*
X160430Y78030D01*
X161345Y78409D01*
X162130Y79011D01*
X162733Y79797D01*
X163112Y80712D01*
X163241Y81693D01*
X163112Y82674D01*
X162733Y83589D01*
X162130Y84374D01*
X161345Y84977D01*
X160430Y85356D01*
X159449Y85485D01*
D02*
G37*
G36*
X42398Y77004D02*
X38571D01*
Y73177D01*
X42398D01*
Y77004D01*
D02*
G37*
G36*
X37571Y83083D02*
X33773D01*
X33856Y82453D01*
X34291Y81401D01*
X34985Y80497D01*
X35889Y79803D01*
X36941Y79367D01*
X37571Y79284D01*
Y83083D01*
D02*
G37*
G36*
X125000Y87454D02*
X124019Y87325D01*
X123104Y86946D01*
X122318Y86343D01*
X121716Y85558D01*
X121337Y84643D01*
X121208Y83662D01*
X121337Y82680D01*
X121716Y81765D01*
X122318Y80980D01*
X123104Y80377D01*
X124019Y79998D01*
X125000Y79869D01*
X125981Y79998D01*
X126896Y80377D01*
X127682Y80980D01*
X128284Y81765D01*
X128663Y82680D01*
X128792Y83662D01*
X128663Y84643D01*
X128284Y85558D01*
X127682Y86343D01*
X126896Y86946D01*
X125981Y87325D01*
X125000Y87454D01*
D02*
G37*
G36*
X114561Y89461D02*
X109061D01*
X109092Y89232D01*
X109373Y88553D01*
X109820Y87970D01*
X110403Y87522D01*
X111082Y87241D01*
X111730Y87156D01*
X111846Y86940D01*
X111894Y86652D01*
X111492Y86343D01*
X110889Y85558D01*
X110510Y84643D01*
X110381Y83662D01*
X110510Y82680D01*
X110889Y81765D01*
X111492Y80980D01*
X112277Y80377D01*
X113192Y79998D01*
X114173Y79869D01*
X115155Y79998D01*
X116069Y80377D01*
X116855Y80980D01*
X117457Y81765D01*
X117836Y82680D01*
X117966Y83662D01*
X117836Y84643D01*
X117457Y85558D01*
X116855Y86343D01*
X116069Y86946D01*
X115155Y87325D01*
X114173Y87454D01*
X113905Y87418D01*
X113706Y87897D01*
X113802Y87970D01*
X114249Y88553D01*
X114531Y89232D01*
X114561Y89461D01*
D02*
G37*
G36*
X42369Y83083D02*
X38571D01*
Y79284D01*
X39200Y79367D01*
X40253Y79803D01*
X41157Y80497D01*
X41850Y81401D01*
X42286Y82453D01*
X42369Y83083D01*
D02*
G37*
G36*
X37571Y77004D02*
X33744D01*
Y73177D01*
X37571D01*
Y77004D01*
D02*
G37*
G36*
X273122Y71647D02*
X272893Y71617D01*
X272214Y71336D01*
X271631Y70889D01*
X271184Y70305D01*
X270903Y69626D01*
X270872Y69398D01*
X273122D01*
Y71647D01*
D02*
G37*
G36*
X42398Y72177D02*
X38571D01*
Y68350D01*
X42398D01*
Y72177D01*
D02*
G37*
G36*
X37571D02*
X33744D01*
Y68350D01*
X37571D01*
Y72177D01*
D02*
G37*
G36*
X274122Y71647D02*
Y69398D01*
X276372D01*
X276342Y69626D01*
X276060Y70305D01*
X275613Y70889D01*
X275030Y71336D01*
X274351Y71617D01*
X274122Y71647D01*
D02*
G37*
G36*
X26890Y116187D02*
X25507Y116005D01*
X24219Y115472D01*
X23113Y114623D01*
X22264Y113517D01*
X21731Y112229D01*
X21549Y110846D01*
X21731Y109464D01*
X22264Y108176D01*
X23113Y107070D01*
X24219Y106221D01*
X25507Y105687D01*
X25824Y105646D01*
Y105141D01*
X25507Y105100D01*
X24219Y104566D01*
X23113Y103718D01*
X22264Y102611D01*
X21731Y101323D01*
X21549Y99941D01*
X21731Y98559D01*
X22264Y97271D01*
X23113Y96164D01*
X24219Y95315D01*
X25507Y94782D01*
X25824Y94740D01*
Y94236D01*
X25507Y94194D01*
X24219Y93661D01*
X23113Y92812D01*
X22264Y91706D01*
X21731Y90418D01*
X21549Y89035D01*
X21731Y87653D01*
X22264Y86365D01*
X23113Y85259D01*
X24219Y84410D01*
X25507Y83876D01*
X25824Y83835D01*
Y83331D01*
X25507Y83289D01*
X24219Y82755D01*
X23113Y81906D01*
X22264Y80800D01*
X21731Y79512D01*
X21549Y78130D01*
X21731Y76748D01*
X22264Y75459D01*
X23113Y74353D01*
X24219Y73505D01*
X25507Y72971D01*
X26890Y72789D01*
X28272Y72971D01*
X29560Y73505D01*
X30666Y74353D01*
X31515Y75459D01*
X32049Y76748D01*
X32231Y78130D01*
X32049Y79512D01*
X31515Y80800D01*
X30666Y81906D01*
X29560Y82755D01*
X28272Y83289D01*
X27956Y83331D01*
Y83835D01*
X28272Y83876D01*
X29560Y84410D01*
X30666Y85259D01*
X31515Y86365D01*
X32049Y87653D01*
X32231Y89035D01*
X32049Y90418D01*
X31515Y91706D01*
X30666Y92812D01*
X29560Y93661D01*
X28272Y94194D01*
X27956Y94236D01*
Y94740D01*
X28272Y94782D01*
X29560Y95315D01*
X30666Y96164D01*
X31515Y97271D01*
X32049Y98559D01*
X32231Y99941D01*
X32049Y101323D01*
X31515Y102611D01*
X30666Y103718D01*
X29560Y104566D01*
X28272Y105100D01*
X27956Y105141D01*
Y105646D01*
X28272Y105687D01*
X29560Y106221D01*
X30666Y107070D01*
X31515Y108176D01*
X32049Y109464D01*
X32231Y110846D01*
X32049Y112229D01*
X31515Y113517D01*
X30666Y114623D01*
X29560Y115472D01*
X28272Y116005D01*
X26890Y116187D01*
D02*
G37*
G36*
X67429Y71647D02*
Y69398D01*
X69679D01*
X69649Y69626D01*
X69367Y70305D01*
X68920Y70889D01*
X68337Y71336D01*
X67658Y71617D01*
X67429Y71647D01*
D02*
G37*
G36*
X66429D02*
X66201Y71617D01*
X65522Y71336D01*
X64938Y70889D01*
X64491Y70305D01*
X64210Y69626D01*
X64180Y69398D01*
X66429D01*
Y71647D01*
D02*
G37*
G36*
X199303Y40151D02*
X199074Y40121D01*
X198396Y39840D01*
X197812Y39392D01*
X197365Y38809D01*
X197112Y38198D01*
X196850Y38143D01*
X196589Y38198D01*
X196336Y38809D01*
X195888Y39392D01*
X195305Y39840D01*
X194626Y40121D01*
X194398Y40151D01*
Y37402D01*
Y34652D01*
X194626Y34682D01*
X195305Y34963D01*
X195888Y35411D01*
X196336Y35994D01*
X196589Y36606D01*
X196850Y36660D01*
X197112Y36606D01*
X197365Y35994D01*
X197812Y35411D01*
X198396Y34963D01*
X199074Y34682D01*
X199303Y34652D01*
Y37402D01*
Y40151D01*
D02*
G37*
G36*
X200303D02*
Y37902D01*
X202553D01*
X202523Y38130D01*
X202241Y38809D01*
X201794Y39392D01*
X201211Y39840D01*
X200532Y40121D01*
X200303Y40151D01*
D02*
G37*
G36*
X193398D02*
X193169Y40121D01*
X192490Y39840D01*
X191907Y39392D01*
X191459Y38809D01*
X191178Y38130D01*
X191148Y37902D01*
X193398D01*
Y40151D01*
D02*
G37*
G36*
X140748Y52021D02*
X139767Y51891D01*
X138852Y51513D01*
X138066Y50910D01*
X137464Y50125D01*
X137085Y49210D01*
X136956Y48228D01*
X137085Y47247D01*
X137464Y46332D01*
X137897Y45768D01*
X137464Y45203D01*
X137085Y44289D01*
X136956Y43307D01*
X137085Y42326D01*
X137464Y41411D01*
X138066Y40626D01*
X138852Y40023D01*
X139767Y39644D01*
X140748Y39515D01*
X141730Y39644D01*
X142644Y40023D01*
X143430Y40626D01*
X144032Y41411D01*
X144411Y42326D01*
X144540Y43307D01*
X144411Y44289D01*
X144032Y45203D01*
X143599Y45768D01*
X144032Y46332D01*
X144411Y47247D01*
X144540Y48228D01*
X144411Y49210D01*
X144032Y50125D01*
X143430Y50910D01*
X142644Y51513D01*
X141730Y51891D01*
X140748Y52021D01*
D02*
G37*
G36*
X31980Y55658D02*
X30853Y55569D01*
X29266Y55188D01*
X27758Y54564D01*
X26366Y53711D01*
X25125Y52651D01*
X24065Y51410D01*
X23212Y50018D01*
X22587Y48510D01*
X22206Y46922D01*
X22118Y45795D01*
X31980D01*
Y55658D01*
D02*
G37*
G36*
X106299Y51036D02*
X105318Y50907D01*
X104403Y50528D01*
X103618Y49926D01*
X103015Y49140D01*
X102636Y48226D01*
X102507Y47244D01*
X102636Y46263D01*
X103015Y45348D01*
X103618Y44563D01*
X104403Y43960D01*
X105318Y43581D01*
X106299Y43452D01*
X107281Y43581D01*
X108195Y43960D01*
X108981Y44563D01*
X109583Y45348D01*
X109962Y46263D01*
X110091Y47244D01*
X109962Y48226D01*
X109583Y49140D01*
X108981Y49926D01*
X108195Y50528D01*
X107281Y50907D01*
X106299Y51036D01*
D02*
G37*
G36*
X273622Y47099D02*
X272641Y46970D01*
X271726Y46591D01*
X270940Y45989D01*
X270338Y45203D01*
X269959Y44289D01*
X269830Y43307D01*
X269959Y42326D01*
X270338Y41411D01*
X270940Y40626D01*
X271726Y40023D01*
X272641Y39644D01*
X273622Y39515D01*
X274604Y39644D01*
X275518Y40023D01*
X276304Y40626D01*
X276906Y41411D01*
X277285Y42326D01*
X277414Y43307D01*
X277285Y44289D01*
X276906Y45203D01*
X276304Y45989D01*
X275518Y46591D01*
X274604Y46970D01*
X273622Y47099D01*
D02*
G37*
G36*
X202553Y36902D02*
X200303D01*
Y34652D01*
X200532Y34682D01*
X201211Y34963D01*
X201794Y35411D01*
X202241Y35994D01*
X202523Y36673D01*
X202553Y36902D01*
D02*
G37*
G36*
X166136Y30012D02*
X163886D01*
Y27762D01*
X164115Y27792D01*
X164794Y28074D01*
X165377Y28521D01*
X165824Y29104D01*
X166105Y29783D01*
X166136Y30012D01*
D02*
G37*
G36*
X162886D02*
X160636D01*
X160666Y29783D01*
X160948Y29104D01*
X161395Y28521D01*
X161978Y28074D01*
X162657Y27792D01*
X162886Y27762D01*
Y30012D01*
D02*
G37*
G36*
X144685Y34304D02*
X143704Y34175D01*
X142789Y33796D01*
X142004Y33193D01*
X141401Y32408D01*
X141022Y31493D01*
X140893Y30512D01*
X141022Y29530D01*
X141401Y28616D01*
X142004Y27830D01*
X142789Y27228D01*
X143704Y26849D01*
X144685Y26720D01*
X145667Y26849D01*
X146581Y27228D01*
X147367Y27830D01*
X147969Y28616D01*
X148348Y29530D01*
X148477Y30512D01*
X148348Y31493D01*
X147969Y32408D01*
X147367Y33193D01*
X146581Y33796D01*
X145667Y34175D01*
X144685Y34304D01*
D02*
G37*
G36*
X162886Y33261D02*
X162657Y33231D01*
X161978Y32950D01*
X161395Y32503D01*
X160948Y31920D01*
X160666Y31241D01*
X160636Y31012D01*
X162886D01*
Y33261D01*
D02*
G37*
G36*
X193398Y36902D02*
X191148D01*
X191178Y36673D01*
X191459Y35994D01*
X191907Y35411D01*
X192490Y34963D01*
X193169Y34682D01*
X193398Y34652D01*
Y36902D01*
D02*
G37*
G36*
X178150Y48084D02*
X177168Y47954D01*
X176253Y47576D01*
X175468Y46973D01*
X174865Y46187D01*
X174487Y45273D01*
X174357Y44291D01*
X174487Y43310D01*
X174865Y42395D01*
X175426Y41665D01*
X175496Y41461D01*
Y41217D01*
X175426Y41012D01*
X174865Y40282D01*
X174487Y39367D01*
X174357Y38386D01*
X174487Y37404D01*
X174865Y36490D01*
X175468Y35704D01*
X176253Y35102D01*
X177168Y34723D01*
X178150Y34594D01*
X179131Y34723D01*
X180046Y35102D01*
X180831Y35704D01*
X181434Y36490D01*
X181813Y37404D01*
X181942Y38386D01*
X181813Y39367D01*
X181434Y40282D01*
X180874Y41012D01*
X180804Y41217D01*
Y41461D01*
X180874Y41665D01*
X181434Y42395D01*
X181813Y43310D01*
X181942Y44291D01*
X181813Y45273D01*
X181434Y46187D01*
X180831Y46973D01*
X180046Y47576D01*
X179131Y47954D01*
X178150Y48084D01*
D02*
G37*
G36*
X163886Y33261D02*
Y31012D01*
X166136D01*
X166105Y31241D01*
X165824Y31920D01*
X165377Y32503D01*
X164794Y32950D01*
X164115Y33231D01*
X163886Y33261D01*
D02*
G37*
G36*
X251468Y65445D02*
X249219D01*
X249249Y65216D01*
X249530Y64537D01*
X249978Y63954D01*
X250561Y63507D01*
X251240Y63225D01*
X251468Y63195D01*
Y65445D01*
D02*
G37*
G36*
X94285Y63476D02*
X92035D01*
Y61227D01*
X92264Y61257D01*
X92943Y61538D01*
X93526Y61986D01*
X93974Y62569D01*
X94255Y63248D01*
X94285Y63476D01*
D02*
G37*
G36*
X91035D02*
X88786D01*
X88816Y63248D01*
X89097Y62569D01*
X89545Y61986D01*
X90128Y61538D01*
X90807Y61257D01*
X91035Y61227D01*
Y63476D01*
D02*
G37*
G36*
X254718Y65445D02*
X252468D01*
Y63195D01*
X252697Y63225D01*
X253376Y63507D01*
X253959Y63954D01*
X254407Y64537D01*
X254688Y65216D01*
X254718Y65445D01*
D02*
G37*
G36*
X261705Y65445D02*
X259455D01*
X259485Y65216D01*
X259767Y64537D01*
X260214Y63954D01*
X260797Y63507D01*
X261476Y63226D01*
X261705Y63195D01*
Y65445D01*
D02*
G37*
G36*
X223616D02*
X221366D01*
Y63195D01*
X221595Y63226D01*
X222274Y63507D01*
X222857Y63954D01*
X223304Y64537D01*
X223586Y65216D01*
X223616Y65445D01*
D02*
G37*
G36*
X220366D02*
X218117D01*
X218147Y65216D01*
X218428Y64537D01*
X218875Y63954D01*
X219459Y63507D01*
X220138Y63226D01*
X220366Y63195D01*
Y65445D01*
D02*
G37*
G36*
X112705Y62789D02*
Y60539D01*
X114954D01*
X114924Y60768D01*
X114643Y61447D01*
X114196Y62030D01*
X113612Y62478D01*
X112933Y62759D01*
X112705Y62789D01*
D02*
G37*
G36*
X114954Y59539D02*
X112705D01*
Y57290D01*
X112933Y57320D01*
X113612Y57601D01*
X114196Y58049D01*
X114643Y58632D01*
X114924Y59311D01*
X114954Y59539D01*
D02*
G37*
G36*
X111705D02*
X109455D01*
X109485Y59311D01*
X109766Y58632D01*
X110214Y58049D01*
X110797Y57601D01*
X111476Y57320D01*
X111705Y57290D01*
Y59539D01*
D02*
G37*
G36*
X32980Y55658D02*
Y45795D01*
X42843D01*
X42754Y46922D01*
X42373Y48510D01*
X41749Y50018D01*
X40896Y51410D01*
X39836Y52651D01*
X38594Y53711D01*
X37203Y54564D01*
X35695Y55188D01*
X34108Y55569D01*
X32980Y55658D01*
D02*
G37*
G36*
X175197Y66785D02*
X174215Y66655D01*
X173301Y66276D01*
X172515Y65674D01*
X171913Y64888D01*
X171534Y63974D01*
X171405Y62992D01*
X171534Y62011D01*
X171913Y61096D01*
X172515Y60311D01*
X173301Y59708D01*
X174215Y59329D01*
X175197Y59200D01*
X176178Y59329D01*
X177093Y59708D01*
X177878Y60311D01*
X178481Y61096D01*
X178860Y62011D01*
X178989Y62992D01*
X178860Y63974D01*
X178481Y64888D01*
X177878Y65674D01*
X177093Y66276D01*
X176178Y66655D01*
X175197Y66785D01*
D02*
G37*
G36*
X111705Y62789D02*
X111476Y62759D01*
X110797Y62478D01*
X110214Y62030D01*
X109766Y61447D01*
X109485Y60768D01*
X109455Y60539D01*
X111705D01*
Y62789D01*
D02*
G37*
G36*
X160230Y62492D02*
X157980D01*
Y60243D01*
X158209Y60273D01*
X158888Y60554D01*
X159471Y61001D01*
X159919Y61585D01*
X160200Y62264D01*
X160230Y62492D01*
D02*
G37*
G36*
X156980D02*
X154731D01*
X154761Y62264D01*
X155042Y61585D01*
X155490Y61001D01*
X156073Y60554D01*
X156752Y60273D01*
X156980Y60243D01*
Y62492D01*
D02*
G37*
G36*
X196647Y109736D02*
X194398D01*
Y107487D01*
X194626Y107517D01*
X195305Y107798D01*
X195888Y108246D01*
X196336Y108829D01*
X196617Y109508D01*
X196647Y109736D01*
D02*
G37*
G36*
X193398D02*
X191148D01*
X191178Y109508D01*
X191459Y108829D01*
X191907Y108246D01*
X192490Y107798D01*
X193169Y107517D01*
X193398Y107487D01*
Y109736D01*
D02*
G37*
G36*
X161214D02*
X158965D01*
Y107487D01*
X159193Y107517D01*
X159872Y107798D01*
X160455Y108246D01*
X160903Y108829D01*
X161184Y109508D01*
X161214Y109736D01*
D02*
G37*
G36*
X223909Y110721D02*
X221660D01*
X221690Y110492D01*
X221971Y109813D01*
X222419Y109230D01*
X223002Y108782D01*
X223681Y108501D01*
X223909Y108471D01*
Y110721D01*
D02*
G37*
G36*
X253931D02*
X251681D01*
Y108471D01*
X251910Y108501D01*
X252589Y108782D01*
X253172Y109230D01*
X253619Y109813D01*
X253901Y110492D01*
X253931Y110721D01*
D02*
G37*
G36*
X250681D02*
X248431D01*
X248462Y110492D01*
X248743Y109813D01*
X249190Y109230D01*
X249773Y108782D01*
X250452Y108501D01*
X250681Y108471D01*
Y110721D01*
D02*
G37*
G36*
X227159D02*
X224909D01*
Y108471D01*
X225138Y108501D01*
X225817Y108782D01*
X226400Y109230D01*
X226848Y109813D01*
X227129Y110492D01*
X227159Y110721D01*
D02*
G37*
G36*
X157965Y109736D02*
X155715D01*
X155745Y109508D01*
X156026Y108829D01*
X156474Y108246D01*
X157057Y107798D01*
X157736Y107517D01*
X157965Y107487D01*
Y109736D01*
D02*
G37*
G36*
X233752Y105112D02*
X233523Y105082D01*
X232844Y104800D01*
X232261Y104353D01*
X231814Y103770D01*
X231533Y103091D01*
X231502Y102862D01*
X233752D01*
Y105112D01*
D02*
G37*
G36*
X145579Y104521D02*
Y102272D01*
X147828D01*
X147798Y102500D01*
X147517Y103179D01*
X147070Y103762D01*
X146486Y104210D01*
X145808Y104491D01*
X145579Y104521D01*
D02*
G37*
G36*
X144579D02*
X144350Y104491D01*
X143671Y104210D01*
X143088Y103762D01*
X142641Y103179D01*
X142359Y102500D01*
X142329Y102272D01*
X144579D01*
Y104521D01*
D02*
G37*
G36*
X234752Y105112D02*
Y102862D01*
X237002D01*
X236971Y103091D01*
X236690Y103770D01*
X236243Y104353D01*
X235660Y104800D01*
X234981Y105082D01*
X234752Y105112D01*
D02*
G37*
G36*
X206784Y108358D02*
X204534D01*
X204564Y108130D01*
X204845Y107451D01*
X205293Y106868D01*
X205876Y106420D01*
X206555Y106139D01*
X206784Y106109D01*
Y108358D01*
D02*
G37*
G36*
X38571Y109692D02*
Y105894D01*
X42369D01*
X42286Y106523D01*
X41850Y107576D01*
X41157Y108480D01*
X40253Y109173D01*
X39200Y109609D01*
X38571Y109692D01*
D02*
G37*
G36*
X37571D02*
X36941Y109609D01*
X35889Y109173D01*
X34985Y108480D01*
X34291Y107576D01*
X33856Y106523D01*
X33773Y105894D01*
X37571D01*
Y109692D01*
D02*
G37*
G36*
Y115799D02*
X33773D01*
X33856Y115170D01*
X34291Y114117D01*
X34985Y113213D01*
X35889Y112520D01*
X36941Y112084D01*
X37571Y112001D01*
Y115799D01*
D02*
G37*
G36*
X251681Y113970D02*
Y111721D01*
X253931D01*
X253901Y111949D01*
X253619Y112628D01*
X253172Y113211D01*
X252589Y113659D01*
X251910Y113940D01*
X251681Y113970D01*
D02*
G37*
G36*
X250681D02*
X250452Y113940D01*
X249773Y113659D01*
X249190Y113211D01*
X248743Y112628D01*
X248462Y111949D01*
X248431Y111721D01*
X250681D01*
Y113970D01*
D02*
G37*
G36*
X42369Y115799D02*
X38571D01*
Y112001D01*
X39200Y112084D01*
X40253Y112520D01*
X41157Y113213D01*
X41850Y114117D01*
X42286Y115170D01*
X42369Y115799D01*
D02*
G37*
G36*
X231299Y124855D02*
X230318Y124726D01*
X229403Y124347D01*
X228618Y123745D01*
X228015Y122959D01*
X227636Y122045D01*
X227507Y121063D01*
X227636Y120081D01*
X228015Y119167D01*
X228618Y118382D01*
X229403Y117779D01*
X230318Y117400D01*
X231299Y117271D01*
X232281Y117400D01*
X233195Y117779D01*
X233981Y118382D01*
X234583Y119167D01*
X234962Y120081D01*
X235091Y121063D01*
X234962Y122045D01*
X234583Y122959D01*
X233981Y123745D01*
X233195Y124347D01*
X232281Y124726D01*
X231299Y124855D01*
D02*
G37*
G36*
X38571Y120598D02*
Y116799D01*
X42369D01*
X42286Y117429D01*
X41850Y118481D01*
X41157Y119385D01*
X40253Y120079D01*
X39200Y120515D01*
X38571Y120598D01*
D02*
G37*
G36*
X37571D02*
X36941Y120515D01*
X35889Y120079D01*
X34985Y119385D01*
X34291Y118481D01*
X33856Y117429D01*
X33773Y116799D01*
X37571D01*
Y120598D01*
D02*
G37*
G36*
X224909Y113970D02*
Y111721D01*
X227159D01*
X227129Y111949D01*
X226848Y112628D01*
X226400Y113211D01*
X225817Y113659D01*
X225138Y113940D01*
X224909Y113970D01*
D02*
G37*
G36*
X158965Y112986D02*
Y110736D01*
X161214D01*
X161184Y110965D01*
X160903Y111644D01*
X160455Y112227D01*
X159872Y112674D01*
X159193Y112956D01*
X158965Y112986D01*
D02*
G37*
G36*
X157965D02*
X157736Y112956D01*
X157057Y112674D01*
X156474Y112227D01*
X156026Y111644D01*
X155745Y110965D01*
X155715Y110736D01*
X157965D01*
Y112986D01*
D02*
G37*
G36*
X206784Y111608D02*
X206555Y111578D01*
X205876Y111297D01*
X205293Y110849D01*
X204845Y110266D01*
X204564Y109587D01*
X204534Y109358D01*
X206784D01*
Y111608D01*
D02*
G37*
G36*
X193398Y112986D02*
X193169Y112956D01*
X192490Y112674D01*
X191907Y112227D01*
X191459Y111644D01*
X191178Y110965D01*
X191148Y110736D01*
X193398D01*
Y112986D01*
D02*
G37*
G36*
X223909Y113970D02*
X223681Y113940D01*
X223002Y113659D01*
X222419Y113211D01*
X221971Y112628D01*
X221690Y111949D01*
X221660Y111721D01*
X223909D01*
Y113970D01*
D02*
G37*
G36*
X213583Y114029D02*
X212601Y113899D01*
X211687Y113521D01*
X210901Y112918D01*
X210298Y112132D01*
X209920Y111218D01*
X209876Y110886D01*
X209353Y110746D01*
X209274Y110849D01*
X208691Y111297D01*
X208012Y111578D01*
X207784Y111608D01*
Y108858D01*
Y106109D01*
X208012Y106139D01*
X208691Y106420D01*
X209274Y106868D01*
X209722Y107451D01*
X209942Y107983D01*
X210351Y108093D01*
X210500Y108077D01*
X210901Y107555D01*
X211687Y106952D01*
X212601Y106573D01*
X213583Y106444D01*
X214564Y106573D01*
X215479Y106952D01*
X216264Y107555D01*
X216867Y108340D01*
X217246Y109255D01*
X217375Y110236D01*
X217246Y111218D01*
X216867Y112132D01*
X216264Y112918D01*
X215479Y113521D01*
X214564Y113899D01*
X213583Y114029D01*
D02*
G37*
G36*
X194398Y112986D02*
Y110736D01*
X196647D01*
X196617Y110965D01*
X196336Y111644D01*
X195888Y112227D01*
X195305Y112674D01*
X194626Y112956D01*
X194398Y112986D01*
D02*
G37*
G36*
X37571Y98786D02*
X36941Y98704D01*
X35889Y98268D01*
X34985Y97574D01*
X34291Y96670D01*
X33856Y95618D01*
X33773Y94988D01*
X37571D01*
Y98786D01*
D02*
G37*
G36*
X131405Y95269D02*
Y93020D01*
X133655D01*
X133625Y93248D01*
X133344Y93927D01*
X132896Y94511D01*
X132313Y94958D01*
X131634Y95239D01*
X131405Y95269D01*
D02*
G37*
G36*
X130405D02*
X130177Y95239D01*
X129498Y94958D01*
X128915Y94511D01*
X128467Y93927D01*
X128186Y93248D01*
X128156Y93020D01*
X130405D01*
Y95269D01*
D02*
G37*
G36*
X38571Y98786D02*
Y94988D01*
X42369D01*
X42286Y95618D01*
X41850Y96670D01*
X41157Y97574D01*
X40253Y98268D01*
X39200Y98704D01*
X38571Y98786D01*
D02*
G37*
G36*
X157965Y99894D02*
X155715D01*
X155745Y99665D01*
X156026Y98986D01*
X156474Y98403D01*
X157057Y97956D01*
X157736Y97674D01*
X157965Y97644D01*
Y99894D01*
D02*
G37*
G36*
X114561Y97335D02*
X112311D01*
Y95085D01*
X112540Y95115D01*
X113219Y95397D01*
X113802Y95844D01*
X114249Y96427D01*
X114531Y97106D01*
X114561Y97335D01*
D02*
G37*
G36*
X111311D02*
X109061D01*
X109092Y97106D01*
X109373Y96427D01*
X109820Y95844D01*
X110403Y95397D01*
X111082Y95115D01*
X111311Y95085D01*
Y97335D01*
D02*
G37*
G36*
X112311Y92710D02*
Y90461D01*
X114561D01*
X114531Y90689D01*
X114249Y91368D01*
X113802Y91952D01*
X113219Y92399D01*
X112540Y92680D01*
X112311Y92710D01*
D02*
G37*
G36*
X130405Y92020D02*
X128156D01*
X128186Y91791D01*
X128467Y91112D01*
X128915Y90529D01*
X129498Y90082D01*
X130177Y89800D01*
X130405Y89770D01*
Y92020D01*
D02*
G37*
G36*
X38571Y87881D02*
Y84083D01*
X42369D01*
X42286Y84712D01*
X41850Y85765D01*
X41157Y86669D01*
X40253Y87362D01*
X39200Y87798D01*
X38571Y87881D01*
D02*
G37*
G36*
X37571D02*
X36941Y87798D01*
X35889Y87362D01*
X34985Y86669D01*
X34291Y85765D01*
X33856Y84712D01*
X33773Y84083D01*
X37571D01*
Y87881D01*
D02*
G37*
G36*
X133655Y92020D02*
X131405D01*
Y89770D01*
X131634Y89800D01*
X132313Y90082D01*
X132896Y90529D01*
X133344Y91112D01*
X133625Y91791D01*
X133655Y92020D01*
D02*
G37*
G36*
X111311Y92710D02*
X111082Y92680D01*
X110403Y92399D01*
X109820Y91952D01*
X109373Y91368D01*
X109092Y90689D01*
X109061Y90461D01*
X111311D01*
Y92710D01*
D02*
G37*
G36*
X42369Y93988D02*
X38571D01*
Y90190D01*
X39200Y90273D01*
X40253Y90709D01*
X41157Y91402D01*
X41850Y92306D01*
X42286Y93359D01*
X42369Y93988D01*
D02*
G37*
G36*
X37571D02*
X33773D01*
X33856Y93359D01*
X34291Y92306D01*
X34985Y91402D01*
X35889Y90709D01*
X36941Y90273D01*
X37571Y90190D01*
Y93988D01*
D02*
G37*
G36*
X158965Y103143D02*
Y100894D01*
X161214D01*
X161184Y101122D01*
X160903Y101802D01*
X160455Y102385D01*
X159872Y102832D01*
X159193Y103113D01*
X158965Y103143D01*
D02*
G37*
G36*
X157965D02*
X157736Y103113D01*
X157057Y102832D01*
X156474Y102385D01*
X156026Y101802D01*
X155745Y101122D01*
X155715Y100894D01*
X157965D01*
Y103143D01*
D02*
G37*
G36*
X237002Y101862D02*
X234752D01*
Y99613D01*
X234981Y99643D01*
X235660Y99924D01*
X236243Y100371D01*
X236690Y100954D01*
X236971Y101634D01*
X237002Y101862D01*
D02*
G37*
G36*
X193398Y103143D02*
X193169Y103113D01*
X192490Y102832D01*
X191907Y102385D01*
X191459Y101802D01*
X191178Y101122D01*
X191148Y100894D01*
X193398D01*
Y103143D01*
D02*
G37*
G36*
X42369Y104894D02*
X38571D01*
Y101095D01*
X39200Y101178D01*
X40253Y101614D01*
X41157Y102308D01*
X41850Y103212D01*
X42286Y104264D01*
X42369Y104894D01*
D02*
G37*
G36*
X37571D02*
X33773D01*
X33856Y104264D01*
X34291Y103212D01*
X34985Y102308D01*
X35889Y101614D01*
X36941Y101178D01*
X37571Y101095D01*
Y104894D01*
D02*
G37*
G36*
X194398Y103143D02*
Y100894D01*
X196647D01*
X196617Y101122D01*
X196336Y101802D01*
X195888Y102385D01*
X195305Y102832D01*
X194626Y103113D01*
X194398Y103143D01*
D02*
G37*
G36*
X233752Y101862D02*
X231502D01*
X231533Y101634D01*
X231814Y100954D01*
X232261Y100371D01*
X232844Y99924D01*
X233523Y99643D01*
X233752Y99613D01*
Y101862D01*
D02*
G37*
G36*
X196647Y99894D02*
X194398D01*
Y97644D01*
X194626Y97674D01*
X195305Y97956D01*
X195888Y98403D01*
X196336Y98986D01*
X196617Y99665D01*
X196647Y99894D01*
D02*
G37*
G36*
X193398D02*
X191148D01*
X191178Y99665D01*
X191459Y98986D01*
X191907Y98403D01*
X192490Y97956D01*
X193169Y97674D01*
X193398Y97644D01*
Y99894D01*
D02*
G37*
G36*
X161214D02*
X158965D01*
Y97644D01*
X159193Y97674D01*
X159872Y97956D01*
X160455Y98403D01*
X160903Y98986D01*
X161184Y99665D01*
X161214Y99894D01*
D02*
G37*
G36*
X111311Y100584D02*
X111082Y100554D01*
X110403Y100273D01*
X109820Y99826D01*
X109373Y99242D01*
X109092Y98563D01*
X109061Y98335D01*
X111311D01*
Y100584D01*
D02*
G37*
G36*
X147828Y101272D02*
X145579D01*
Y99022D01*
X145808Y99052D01*
X146486Y99334D01*
X147070Y99781D01*
X147517Y100364D01*
X147798Y101043D01*
X147828Y101272D01*
D02*
G37*
G36*
X144579D02*
X142329D01*
X142359Y101043D01*
X142641Y100364D01*
X143088Y99781D01*
X143671Y99334D01*
X144350Y99052D01*
X144579Y99022D01*
Y101272D01*
D02*
G37*
G36*
X112311Y100584D02*
Y98335D01*
X114561D01*
X114531Y98563D01*
X114249Y99242D01*
X113802Y99826D01*
X113219Y100273D01*
X112540Y100554D01*
X112311Y100584D01*
D02*
G37*
G36*
X273138Y269482D02*
Y267232D01*
X275388D01*
X275357Y267461D01*
X275076Y268140D01*
X274629Y268723D01*
X274046Y269171D01*
X273366Y269452D01*
X273138Y269482D01*
D02*
G37*
G36*
X272138D02*
X271909Y269452D01*
X271230Y269171D01*
X270647Y268723D01*
X270200Y268140D01*
X269918Y267461D01*
X269888Y267232D01*
X272138D01*
Y269482D01*
D02*
G37*
G36*
X265264D02*
Y267232D01*
X267513D01*
X267483Y267461D01*
X267202Y268140D01*
X266755Y268723D01*
X266172Y269171D01*
X265493Y269452D01*
X265264Y269482D01*
D02*
G37*
G36*
X309697Y271154D02*
X306276D01*
X306346Y270622D01*
X306744Y269660D01*
X307378Y268834D01*
X308204Y268201D01*
X309165Y267803D01*
X309697Y267733D01*
Y271154D01*
D02*
G37*
G36*
X228143Y271154D02*
X225894D01*
Y268904D01*
X226122Y268934D01*
X226801Y269215D01*
X227385Y269663D01*
X227832Y270246D01*
X228113Y270925D01*
X228143Y271154D01*
D02*
G37*
G36*
X224894D02*
X222644D01*
X222674Y270925D01*
X222955Y270246D01*
X223403Y269663D01*
X223986Y269215D01*
X224665Y268934D01*
X224894Y268904D01*
Y271154D01*
D02*
G37*
G36*
X314118Y271154D02*
X310697D01*
Y267733D01*
X311229Y267803D01*
X312190Y268201D01*
X313016Y268834D01*
X313650Y269660D01*
X314048Y270622D01*
X314118Y271154D01*
D02*
G37*
G36*
X264264Y269482D02*
X264035Y269452D01*
X263356Y269171D01*
X262773Y268723D01*
X262326Y268140D01*
X262044Y267461D01*
X262014Y267232D01*
X264264D01*
Y269482D01*
D02*
G37*
G36*
X275388Y266232D02*
X273138D01*
Y263983D01*
X273366Y264013D01*
X274046Y264294D01*
X274629Y264741D01*
X275076Y265325D01*
X275357Y266004D01*
X275388Y266232D01*
D02*
G37*
G36*
X272138D02*
X269888D01*
X269918Y266004D01*
X270200Y265325D01*
X270647Y264741D01*
X271230Y264294D01*
X271909Y264013D01*
X272138Y263983D01*
Y266232D01*
D02*
G37*
G36*
X267513D02*
X265264D01*
Y263983D01*
X265493Y264013D01*
X266172Y264294D01*
X266755Y264741D01*
X267202Y265325D01*
X267483Y266004D01*
X267513Y266232D01*
D02*
G37*
G36*
X206193Y268498D02*
X205964Y268468D01*
X205285Y268186D01*
X204702Y267739D01*
X204255Y267156D01*
X203974Y266477D01*
X203943Y266248D01*
X206193D01*
Y268498D01*
D02*
G37*
G36*
X215067D02*
Y266248D01*
X217317D01*
X217286Y266477D01*
X217005Y267156D01*
X216558Y267739D01*
X215975Y268186D01*
X215296Y268468D01*
X215067Y268498D01*
D02*
G37*
G36*
X214067D02*
X213838Y268468D01*
X213159Y268186D01*
X212576Y267739D01*
X212129Y267156D01*
X211847Y266477D01*
X211817Y266248D01*
X214067D01*
Y268498D01*
D02*
G37*
G36*
X207193D02*
Y266248D01*
X209443D01*
X209413Y266477D01*
X209131Y267156D01*
X208684Y267739D01*
X208101Y268186D01*
X207422Y268468D01*
X207193Y268498D01*
D02*
G37*
G36*
X232768Y274403D02*
X232539Y274373D01*
X231860Y274092D01*
X231277Y273644D01*
X230830Y273061D01*
X230548Y272382D01*
X230518Y272154D01*
X232768D01*
Y274403D01*
D02*
G37*
G36*
X225894D02*
Y272154D01*
X228143D01*
X228113Y272382D01*
X227832Y273061D01*
X227385Y273644D01*
X226801Y274092D01*
X226122Y274373D01*
X225894Y274403D01*
D02*
G37*
G36*
X224894D02*
X224665Y274373D01*
X223986Y274092D01*
X223403Y273644D01*
X222955Y273061D01*
X222674Y272382D01*
X222644Y272154D01*
X224894D01*
Y274403D01*
D02*
G37*
G36*
X233768D02*
Y272154D01*
X236017D01*
X235987Y272382D01*
X235706Y273061D01*
X235259Y273644D01*
X234676Y274092D01*
X233997Y274373D01*
X233768Y274403D01*
D02*
G37*
G36*
X101862Y276962D02*
X101634Y276932D01*
X100954Y276651D01*
X100371Y276203D01*
X99924Y275620D01*
X99643Y274941D01*
X99613Y274713D01*
X101862D01*
Y276962D01*
D02*
G37*
G36*
X140264Y274994D02*
Y272744D01*
X142513D01*
X142483Y272973D01*
X142202Y273652D01*
X141755Y274235D01*
X141172Y274682D01*
X140492Y274964D01*
X140264Y274994D01*
D02*
G37*
G36*
X139264D02*
X139035Y274964D01*
X138356Y274682D01*
X137773Y274235D01*
X137326Y273652D01*
X137044Y272973D01*
X137014Y272744D01*
X139264D01*
Y274994D01*
D02*
G37*
G36*
X310697Y275575D02*
Y272154D01*
X314118D01*
X314048Y272686D01*
X313650Y273647D01*
X313016Y274473D01*
X312190Y275106D01*
X311229Y275505D01*
X310697Y275575D01*
D02*
G37*
G36*
X139264Y271744D02*
X137014D01*
X137044Y271515D01*
X137326Y270836D01*
X137773Y270253D01*
X138356Y269806D01*
X139035Y269525D01*
X139264Y269495D01*
Y271744D01*
D02*
G37*
G36*
X236017Y271154D02*
X233768D01*
Y268904D01*
X233997Y268934D01*
X234676Y269215D01*
X235259Y269663D01*
X235706Y270246D01*
X235987Y270925D01*
X236017Y271154D01*
D02*
G37*
G36*
X232768D02*
X230518D01*
X230548Y270925D01*
X230830Y270246D01*
X231277Y269663D01*
X231860Y269215D01*
X232539Y268934D01*
X232768Y268904D01*
Y271154D01*
D02*
G37*
G36*
X142513Y271744D02*
X140264D01*
Y269495D01*
X140492Y269525D01*
X141172Y269806D01*
X141755Y270253D01*
X142202Y270836D01*
X142483Y271515D01*
X142513Y271744D01*
D02*
G37*
G36*
X309697Y275575D02*
X309165Y275505D01*
X308204Y275106D01*
X307378Y274473D01*
X306744Y273647D01*
X306346Y272686D01*
X306276Y272154D01*
X309697D01*
Y275575D01*
D02*
G37*
G36*
X105112Y273713D02*
X102862D01*
Y271463D01*
X103091Y271493D01*
X103770Y271774D01*
X104353Y272222D01*
X104800Y272805D01*
X105082Y273484D01*
X105112Y273713D01*
D02*
G37*
G36*
X101862D02*
X99613D01*
X99643Y273484D01*
X99924Y272805D01*
X100371Y272222D01*
X100954Y271774D01*
X101634Y271493D01*
X101862Y271463D01*
Y273713D01*
D02*
G37*
G36*
X37571Y261469D02*
X33773D01*
X33856Y260839D01*
X34291Y259786D01*
X34985Y258883D01*
X35889Y258189D01*
X36941Y257753D01*
X37571Y257670D01*
Y261469D01*
D02*
G37*
G36*
X96457Y265210D02*
X95475Y265080D01*
X94561Y264702D01*
X93775Y264099D01*
X93173Y263314D01*
X92794Y262399D01*
X92664Y261417D01*
X92794Y260436D01*
X93173Y259521D01*
X93775Y258736D01*
X94561Y258133D01*
X95475Y257754D01*
X96457Y257625D01*
X97438Y257754D01*
X98353Y258133D01*
X99138Y258736D01*
X99741Y259521D01*
X100120Y260436D01*
X100249Y261417D01*
X100120Y262399D01*
X99741Y263314D01*
X99138Y264099D01*
X98353Y264702D01*
X97438Y265080D01*
X96457Y265210D01*
D02*
G37*
G36*
X149606Y263635D02*
X148625Y263506D01*
X147710Y263127D01*
X146925Y262524D01*
X146322Y261739D01*
X145943Y260824D01*
X145814Y259843D01*
X145943Y258861D01*
X146322Y257946D01*
X146925Y257161D01*
X147710Y256558D01*
X148625Y256179D01*
X149606Y256050D01*
X150588Y256179D01*
X151503Y256558D01*
X152288Y257161D01*
X152891Y257946D01*
X153269Y258861D01*
X153399Y259843D01*
X153269Y260824D01*
X152891Y261739D01*
X152288Y262524D01*
X151503Y263127D01*
X150588Y263506D01*
X149606Y263635D01*
D02*
G37*
G36*
X42369Y261469D02*
X38571D01*
Y257670D01*
X39200Y257753D01*
X40253Y258189D01*
X41157Y258883D01*
X41850Y259786D01*
X42286Y260839D01*
X42369Y261469D01*
D02*
G37*
G36*
X121063Y266194D02*
X120081Y266065D01*
X119167Y265686D01*
X118382Y265083D01*
X117779Y264298D01*
X117400Y263383D01*
X117271Y262402D01*
X117400Y261420D01*
X117779Y260506D01*
X118382Y259720D01*
X119167Y259117D01*
X120081Y258739D01*
X121063Y258609D01*
X122045Y258739D01*
X122959Y259117D01*
X123745Y259720D01*
X124347Y260506D01*
X124726Y261420D01*
X124855Y262402D01*
X124726Y263383D01*
X124347Y264298D01*
X123745Y265083D01*
X122959Y265686D01*
X122045Y266065D01*
X121063Y266194D01*
D02*
G37*
G36*
X314118Y261154D02*
X310697D01*
Y257733D01*
X311229Y257803D01*
X312190Y258201D01*
X313016Y258835D01*
X313650Y259660D01*
X314048Y260622D01*
X314118Y261154D01*
D02*
G37*
G36*
X309697D02*
X306276D01*
X306346Y260622D01*
X306744Y259660D01*
X307378Y258835D01*
X308204Y258201D01*
X309165Y257803D01*
X309697Y257733D01*
Y261154D01*
D02*
G37*
G36*
X248532Y257671D02*
Y255421D01*
X250781D01*
X250751Y255650D01*
X250470Y256329D01*
X250022Y256912D01*
X249439Y257360D01*
X248760Y257641D01*
X248532Y257671D01*
D02*
G37*
G36*
X309697Y255575D02*
X309165Y255505D01*
X308204Y255106D01*
X307378Y254473D01*
X306744Y253647D01*
X306346Y252685D01*
X306276Y252154D01*
X309697D01*
Y255575D01*
D02*
G37*
G36*
X38571Y255361D02*
Y251563D01*
X42369D01*
X42286Y252192D01*
X41850Y253245D01*
X41157Y254149D01*
X40253Y254842D01*
X39200Y255278D01*
X38571Y255361D01*
D02*
G37*
G36*
X37571D02*
X36941Y255278D01*
X35889Y254842D01*
X34985Y254149D01*
X34291Y253245D01*
X33856Y252192D01*
X33773Y251563D01*
X37571D01*
Y255361D01*
D02*
G37*
G36*
X310697Y255575D02*
Y252154D01*
X314118D01*
X314048Y252685D01*
X313650Y253647D01*
X313016Y254473D01*
X312190Y255106D01*
X311229Y255505D01*
X310697Y255575D01*
D02*
G37*
G36*
X247532Y257671D02*
X247303Y257641D01*
X246624Y257360D01*
X246041Y256912D01*
X245593Y256329D01*
X245312Y255650D01*
X245282Y255421D01*
X247532D01*
Y257671D01*
D02*
G37*
G36*
X250781Y254421D02*
X248532D01*
Y252172D01*
X248760Y252202D01*
X249439Y252483D01*
X250022Y252930D01*
X250470Y253514D01*
X250751Y254193D01*
X250781Y254421D01*
D02*
G37*
G36*
X247532D02*
X245282D01*
X245312Y254193D01*
X245593Y253514D01*
X246041Y252930D01*
X246624Y252483D01*
X247303Y252202D01*
X247532Y252172D01*
Y254421D01*
D02*
G37*
G36*
X206193Y265248D02*
X203943D01*
X203974Y265019D01*
X204255Y264340D01*
X204702Y263757D01*
X205285Y263310D01*
X205964Y263029D01*
X206193Y262999D01*
Y265248D01*
D02*
G37*
G36*
X138295Y265151D02*
Y262902D01*
X140545D01*
X140515Y263130D01*
X140234Y263809D01*
X139786Y264392D01*
X139203Y264840D01*
X138524Y265121D01*
X138295Y265151D01*
D02*
G37*
G36*
X137295D02*
X137067Y265121D01*
X136388Y264840D01*
X135804Y264392D01*
X135357Y263809D01*
X135076Y263130D01*
X135046Y262902D01*
X137295D01*
Y265151D01*
D02*
G37*
G36*
X209443Y265248D02*
X207193D01*
Y262999D01*
X207422Y263029D01*
X208101Y263310D01*
X208684Y263757D01*
X209131Y264340D01*
X209413Y265019D01*
X209443Y265248D01*
D02*
G37*
G36*
X264264Y266232D02*
X262014D01*
X262044Y266004D01*
X262326Y265325D01*
X262773Y264741D01*
X263356Y264294D01*
X264035Y264013D01*
X264264Y263983D01*
Y266232D01*
D02*
G37*
G36*
X217317Y265248D02*
X215067D01*
Y262999D01*
X215296Y263029D01*
X215975Y263310D01*
X216558Y263757D01*
X217005Y264340D01*
X217286Y265019D01*
X217317Y265248D01*
D02*
G37*
G36*
X214067D02*
X211817D01*
X211847Y265019D01*
X212129Y264340D01*
X212576Y263757D01*
X213159Y263310D01*
X213838Y263029D01*
X214067Y262999D01*
Y265248D01*
D02*
G37*
G36*
X38571Y266267D02*
Y262469D01*
X42369D01*
X42286Y263098D01*
X41850Y264151D01*
X41157Y265054D01*
X40253Y265748D01*
X39200Y266184D01*
X38571Y266267D01*
D02*
G37*
G36*
X86614Y280512D02*
X76772D01*
Y270669D01*
X79788D01*
X79887Y270169D01*
X79211Y269889D01*
X78183Y269100D01*
X77394Y268073D01*
X76898Y266875D01*
X76729Y265591D01*
X76898Y264306D01*
X77394Y263109D01*
X78183Y262081D01*
X79211Y261292D01*
X80408Y260796D01*
X81693Y260627D01*
X82978Y260796D01*
X84175Y261292D01*
X85203Y262081D01*
X85992Y263109D01*
X86488Y264306D01*
X86657Y265591D01*
X86488Y266875D01*
X85992Y268073D01*
X85203Y269100D01*
X84175Y269889D01*
X83499Y270169D01*
X83598Y270669D01*
X86614D01*
Y280512D01*
D02*
G37*
G36*
X140545Y261902D02*
X138295D01*
Y259652D01*
X138524Y259682D01*
X139203Y259963D01*
X139786Y260411D01*
X140234Y260994D01*
X140515Y261673D01*
X140545Y261902D01*
D02*
G37*
G36*
X137295D02*
X135046D01*
X135076Y261673D01*
X135357Y260994D01*
X135804Y260411D01*
X136388Y259963D01*
X137067Y259682D01*
X137295Y259652D01*
Y261902D01*
D02*
G37*
G36*
X65945Y280669D02*
X56102D01*
Y270827D01*
X59118D01*
X59218Y270327D01*
X58542Y270047D01*
X57514Y269258D01*
X56725Y268230D01*
X56229Y267033D01*
X56060Y265748D01*
X56229Y264463D01*
X56725Y263266D01*
X57514Y262238D01*
X58542Y261449D01*
X59739Y260953D01*
X61024Y260784D01*
X62308Y260953D01*
X63506Y261449D01*
X64534Y262238D01*
X65322Y263266D01*
X65818Y264463D01*
X65987Y265748D01*
X65818Y267033D01*
X65322Y268230D01*
X64534Y269258D01*
X63506Y270047D01*
X62830Y270327D01*
X62929Y270827D01*
X65945D01*
Y280669D01*
D02*
G37*
G36*
X37571Y266267D02*
X36941Y266184D01*
X35889Y265748D01*
X34985Y265054D01*
X34291Y264151D01*
X33856Y263098D01*
X33773Y262469D01*
X37571D01*
Y266267D01*
D02*
G37*
G36*
X310697Y265575D02*
Y262154D01*
X314118D01*
X314048Y262685D01*
X313650Y263647D01*
X313016Y264473D01*
X312190Y265106D01*
X311229Y265505D01*
X310697Y265575D01*
D02*
G37*
G36*
X309697D02*
X309165Y265505D01*
X308204Y265106D01*
X307378Y264473D01*
X306744Y263647D01*
X306346Y262685D01*
X306276Y262154D01*
X309697D01*
Y265575D01*
D02*
G37*
G36*
X196351Y314757D02*
X196122Y314727D01*
X195443Y314446D01*
X194860Y313999D01*
X194412Y313416D01*
X194131Y312737D01*
X194101Y312508D01*
X196351D01*
Y314757D01*
D02*
G37*
G36*
X189476D02*
Y312508D01*
X191726D01*
X191696Y312737D01*
X191415Y313416D01*
X190967Y313999D01*
X190384Y314446D01*
X189705Y314727D01*
X189476Y314757D01*
D02*
G37*
G36*
X188476D02*
X188248Y314727D01*
X187569Y314446D01*
X186986Y313999D01*
X186538Y313416D01*
X186257Y312737D01*
X186227Y312508D01*
X188476D01*
Y314757D01*
D02*
G37*
G36*
X197351D02*
Y312508D01*
X199600D01*
X199570Y312737D01*
X199289Y313416D01*
X198841Y313999D01*
X198258Y314446D01*
X197579Y314727D01*
X197351Y314757D01*
D02*
G37*
G36*
X118595Y314758D02*
X118366Y314727D01*
X117687Y314446D01*
X117104Y313999D01*
X116656Y313416D01*
X116375Y312737D01*
X116345Y312508D01*
X118595D01*
Y314758D01*
D02*
G37*
G36*
X68413D02*
Y312508D01*
X70663D01*
X70633Y312737D01*
X70352Y313416D01*
X69904Y313999D01*
X69321Y314446D01*
X68642Y314727D01*
X68413Y314758D01*
D02*
G37*
G36*
X67413D02*
X67185Y314727D01*
X66506Y314446D01*
X65923Y313999D01*
X65475Y313416D01*
X65194Y312737D01*
X65164Y312508D01*
X67413D01*
Y314758D01*
D02*
G37*
G36*
X161214Y311902D02*
X158965D01*
Y309652D01*
X159193Y309682D01*
X159872Y309963D01*
X160455Y310411D01*
X160903Y310994D01*
X161184Y311673D01*
X161214Y311902D01*
D02*
G37*
G36*
X118595Y311508D02*
X116345D01*
X116375Y311279D01*
X116656Y310600D01*
X117104Y310017D01*
X117687Y309570D01*
X118366Y309289D01*
X118595Y309258D01*
Y311508D01*
D02*
G37*
G36*
X70663D02*
X68413D01*
Y309258D01*
X68642Y309289D01*
X69321Y309570D01*
X69904Y310017D01*
X70352Y310600D01*
X70633Y311279D01*
X70663Y311508D01*
D02*
G37*
G36*
X67413D02*
X65164D01*
X65194Y311279D01*
X65475Y310600D01*
X65923Y310017D01*
X66506Y309570D01*
X67185Y309289D01*
X67413Y309258D01*
Y311508D01*
D02*
G37*
G36*
X121844D02*
X119595D01*
Y309258D01*
X119823Y309289D01*
X120502Y309570D01*
X121085Y310017D01*
X121533Y310600D01*
X121814Y311279D01*
X121844Y311508D01*
D02*
G37*
G36*
X157965Y311902D02*
X155715D01*
X155745Y311673D01*
X156026Y310994D01*
X156474Y310411D01*
X157057Y309963D01*
X157736Y309682D01*
X157965Y309652D01*
Y311902D01*
D02*
G37*
G36*
X153340D02*
X151091D01*
Y309652D01*
X151319Y309682D01*
X151998Y309963D01*
X152581Y310411D01*
X153029Y310994D01*
X153310Y311673D01*
X153340Y311902D01*
D02*
G37*
G36*
X150091D02*
X147841D01*
X147871Y311673D01*
X148152Y310994D01*
X148600Y310411D01*
X149183Y309963D01*
X149862Y309682D01*
X150091Y309652D01*
Y311902D01*
D02*
G37*
G36*
X82193Y318695D02*
Y316445D01*
X84443D01*
X84412Y316674D01*
X84131Y317353D01*
X83684Y317936D01*
X83101Y318383D01*
X82422Y318665D01*
X82193Y318695D01*
D02*
G37*
G36*
X75287D02*
X75059Y318665D01*
X74380Y318383D01*
X73797Y317936D01*
X73349Y317353D01*
X73068Y316674D01*
X73038Y316445D01*
X75287D01*
Y318695D01*
D02*
G37*
G36*
X113970Y315445D02*
X111721D01*
Y313195D01*
X111949Y313226D01*
X112628Y313507D01*
X113211Y313954D01*
X113659Y314537D01*
X113940Y315216D01*
X113970Y315445D01*
D02*
G37*
G36*
X104815Y318695D02*
X104586Y318665D01*
X103907Y318383D01*
X103324Y317936D01*
X102877Y317353D01*
X102595Y316674D01*
X102565Y316445D01*
X104815D01*
Y318695D01*
D02*
G37*
G36*
X110721D02*
X110492Y318665D01*
X109813Y318383D01*
X109230Y317936D01*
X108782Y317353D01*
X108529Y316741D01*
X108268Y316687D01*
X108007Y316741D01*
X107753Y317353D01*
X107306Y317936D01*
X106723Y318383D01*
X106044Y318665D01*
X105815Y318695D01*
Y315945D01*
Y313195D01*
X106044Y313226D01*
X106723Y313507D01*
X107306Y313954D01*
X107753Y314537D01*
X108007Y315149D01*
X108268Y315203D01*
X108529Y315149D01*
X108782Y314537D01*
X109230Y313954D01*
X109813Y313507D01*
X110492Y313226D01*
X110721Y313195D01*
Y315945D01*
Y318695D01*
D02*
G37*
G36*
X81193D02*
X80964Y318665D01*
X80285Y318383D01*
X79702Y317936D01*
X79255Y317353D01*
X79001Y316741D01*
X78740Y316687D01*
X78479Y316741D01*
X78226Y317353D01*
X77778Y317936D01*
X77195Y318383D01*
X76516Y318665D01*
X76288Y318695D01*
Y315945D01*
Y313195D01*
X76516Y313226D01*
X77195Y313507D01*
X77778Y313954D01*
X78226Y314537D01*
X78479Y315149D01*
X78740Y315203D01*
X79001Y315149D01*
X79255Y314537D01*
X79702Y313954D01*
X80285Y313507D01*
X80964Y313226D01*
X81193Y313195D01*
Y315945D01*
Y318695D01*
D02*
G37*
G36*
X111721D02*
Y316445D01*
X113970D01*
X113940Y316674D01*
X113659Y317353D01*
X113211Y317936D01*
X112628Y318383D01*
X111949Y318665D01*
X111721Y318695D01*
D02*
G37*
G36*
X104815Y315445D02*
X102565D01*
X102595Y315216D01*
X102877Y314537D01*
X103324Y313954D01*
X103907Y313507D01*
X104586Y313226D01*
X104815Y313195D01*
Y315445D01*
D02*
G37*
G36*
X151091Y315151D02*
Y312902D01*
X153340D01*
X153310Y313130D01*
X153029Y313809D01*
X152581Y314392D01*
X151998Y314840D01*
X151319Y315121D01*
X151091Y315151D01*
D02*
G37*
G36*
X150091D02*
X149862Y315121D01*
X149183Y314840D01*
X148600Y314392D01*
X148152Y313809D01*
X147871Y313130D01*
X147841Y312902D01*
X150091D01*
Y315151D01*
D02*
G37*
G36*
X119595Y314758D02*
Y312508D01*
X121844D01*
X121814Y312737D01*
X121533Y313416D01*
X121085Y313999D01*
X120502Y314446D01*
X119823Y314727D01*
X119595Y314758D01*
D02*
G37*
G36*
X157965Y315151D02*
X157736Y315121D01*
X157057Y314840D01*
X156474Y314392D01*
X156026Y313809D01*
X155745Y313130D01*
X155715Y312902D01*
X157965D01*
Y315151D01*
D02*
G37*
G36*
X84443Y315445D02*
X82193D01*
Y313195D01*
X82422Y313226D01*
X83101Y313507D01*
X83684Y313954D01*
X84131Y314537D01*
X84412Y315216D01*
X84443Y315445D01*
D02*
G37*
G36*
X75287D02*
X73038D01*
X73068Y315216D01*
X73349Y314537D01*
X73797Y313954D01*
X74380Y313507D01*
X75059Y313226D01*
X75287Y313195D01*
Y315445D01*
D02*
G37*
G36*
X158965Y315151D02*
Y312902D01*
X161214D01*
X161184Y313130D01*
X160903Y313809D01*
X160455Y314392D01*
X159872Y314840D01*
X159193Y315121D01*
X158965Y315151D01*
D02*
G37*
G36*
X177650Y281293D02*
X177421Y281263D01*
X176742Y280982D01*
X176159Y280534D01*
X175711Y279951D01*
X175430Y279272D01*
X175400Y279043D01*
X177650D01*
Y281293D01*
D02*
G37*
G36*
X42843Y288850D02*
X32980D01*
Y278988D01*
X34108Y279076D01*
X35695Y279457D01*
X37203Y280082D01*
X38594Y280935D01*
X39836Y281995D01*
X40896Y283236D01*
X41749Y284628D01*
X42373Y286136D01*
X42754Y287723D01*
X42843Y288850D01*
D02*
G37*
G36*
X31980D02*
X22118D01*
X22206Y287723D01*
X22587Y286136D01*
X23212Y284628D01*
X24065Y283236D01*
X25125Y281995D01*
X26366Y280935D01*
X27758Y280082D01*
X29266Y279457D01*
X30853Y279076D01*
X31980Y278988D01*
Y288850D01*
D02*
G37*
G36*
X178650Y281293D02*
Y279043D01*
X180899D01*
X180869Y279272D01*
X180588Y279951D01*
X180140Y280534D01*
X179557Y280982D01*
X178878Y281263D01*
X178650Y281293D01*
D02*
G37*
G36*
X32980Y299713D02*
Y289850D01*
X42843D01*
X42754Y290978D01*
X42373Y292565D01*
X41749Y294073D01*
X40896Y295465D01*
X39836Y296706D01*
X38594Y297766D01*
X37203Y298619D01*
X35695Y299243D01*
X34108Y299624D01*
X32980Y299713D01*
D02*
G37*
G36*
X31980D02*
X30853Y299624D01*
X29266Y299243D01*
X27758Y298619D01*
X26366Y297766D01*
X25125Y296706D01*
X24065Y295465D01*
X23212Y294073D01*
X22587Y292565D01*
X22206Y290978D01*
X22118Y289850D01*
X31980D01*
Y299713D01*
D02*
G37*
G36*
X291339Y290210D02*
X290357Y290080D01*
X289442Y289702D01*
X288878Y289268D01*
X288314Y289702D01*
X287399Y290080D01*
X286417Y290210D01*
X285436Y290080D01*
X284521Y289702D01*
X283957Y289268D01*
X283392Y289702D01*
X282478Y290080D01*
X281496Y290210D01*
X280515Y290080D01*
X279600Y289702D01*
X278815Y289099D01*
X278212Y288314D01*
X277833Y287399D01*
X277704Y286417D01*
X277833Y285436D01*
X278212Y284521D01*
X278815Y283736D01*
X279600Y283133D01*
X280515Y282754D01*
X281496Y282625D01*
X282478Y282754D01*
X283392Y283133D01*
X283957Y283566D01*
X284521Y283133D01*
X285436Y282754D01*
X286417Y282625D01*
X287399Y282754D01*
X288314Y283133D01*
X288878Y283566D01*
X289442Y283133D01*
X290357Y282754D01*
X291339Y282625D01*
X292320Y282754D01*
X293235Y283133D01*
X294020Y283736D01*
X294623Y284521D01*
X295002Y285436D01*
X295131Y286417D01*
X295002Y287399D01*
X294623Y288314D01*
X294020Y289099D01*
X293235Y289702D01*
X292320Y290080D01*
X291339Y290210D01*
D02*
G37*
G36*
X126969Y281942D02*
X125987Y281813D01*
X125072Y281434D01*
X124287Y280831D01*
X123684Y280046D01*
X123305Y279131D01*
X123284Y278966D01*
X122779D01*
X122758Y279131D01*
X122379Y280046D01*
X121776Y280831D01*
X120991Y281434D01*
X120076Y281813D01*
X119095Y281942D01*
X118113Y281813D01*
X117198Y281434D01*
X116413Y280831D01*
X115810Y280046D01*
X115431Y279131D01*
X115302Y278150D01*
X115431Y277168D01*
X115810Y276254D01*
X116413Y275468D01*
X117198Y274866D01*
X118113Y274487D01*
X119095Y274357D01*
X120076Y274487D01*
X120991Y274866D01*
X121776Y275468D01*
X122379Y276254D01*
X122758Y277168D01*
X122779Y277334D01*
X123284D01*
X123305Y277168D01*
X123684Y276254D01*
X124287Y275468D01*
X125072Y274866D01*
X125987Y274487D01*
X126969Y274357D01*
X127950Y274487D01*
X128865Y274866D01*
X129650Y275468D01*
X130253Y276254D01*
X130632Y277168D01*
X130761Y278150D01*
X130632Y279131D01*
X130253Y280046D01*
X129650Y280831D01*
X128865Y281434D01*
X127950Y281813D01*
X126969Y281942D01*
D02*
G37*
G36*
X113970Y277650D02*
X111721D01*
Y275400D01*
X111949Y275430D01*
X112628Y275711D01*
X113211Y276159D01*
X113659Y276742D01*
X113940Y277421D01*
X113970Y277650D01*
D02*
G37*
G36*
X110721D02*
X108471D01*
X108501Y277421D01*
X108782Y276742D01*
X109230Y276159D01*
X109813Y275711D01*
X110492Y275430D01*
X110721Y275400D01*
Y277650D01*
D02*
G37*
G36*
X102862Y276962D02*
Y274713D01*
X105112D01*
X105082Y274941D01*
X104800Y275620D01*
X104353Y276203D01*
X103770Y276651D01*
X103091Y276932D01*
X102862Y276962D01*
D02*
G37*
G36*
X177650Y278043D02*
X175400D01*
X175430Y277815D01*
X175711Y277136D01*
X176159Y276553D01*
X176742Y276105D01*
X177421Y275824D01*
X177650Y275794D01*
Y278043D01*
D02*
G37*
G36*
X111721Y280899D02*
Y278650D01*
X113970D01*
X113940Y278878D01*
X113659Y279557D01*
X113211Y280140D01*
X112628Y280588D01*
X111949Y280869D01*
X111721Y280899D01*
D02*
G37*
G36*
X110721D02*
X110492Y280869D01*
X109813Y280588D01*
X109230Y280140D01*
X108782Y279557D01*
X108501Y278878D01*
X108471Y278650D01*
X110721D01*
Y280899D01*
D02*
G37*
G36*
X180899Y278043D02*
X178650D01*
Y275794D01*
X178878Y275824D01*
X179557Y276105D01*
X180140Y276553D01*
X180588Y277136D01*
X180869Y277815D01*
X180899Y278043D01*
D02*
G37*
G36*
X259331Y306145D02*
X258046Y305976D01*
X256849Y305480D01*
X255821Y304691D01*
X255032Y303663D01*
X254587Y302590D01*
X254587Y302589D01*
X254075D01*
X254074Y302590D01*
X253629Y303663D01*
X252841Y304691D01*
X251813Y305480D01*
X250616Y305976D01*
X249331Y306145D01*
X248046Y305976D01*
X246849Y305480D01*
X245821Y304691D01*
X245032Y303663D01*
X244587Y302590D01*
X244587Y302589D01*
X244075D01*
X244074Y302590D01*
X243630Y303663D01*
X242841Y304691D01*
X241813Y305480D01*
X240616Y305976D01*
X239331Y306145D01*
X238046Y305976D01*
X236849Y305480D01*
X235821Y304691D01*
X235032Y303663D01*
X234752Y302987D01*
X234252Y303086D01*
Y306102D01*
X224410D01*
Y296260D01*
X234252D01*
Y299276D01*
X234752Y299375D01*
X235032Y298699D01*
X235821Y297671D01*
X236849Y296883D01*
X238046Y296387D01*
X239331Y296217D01*
X240616Y296387D01*
X241813Y296883D01*
X242841Y297671D01*
X243630Y298699D01*
X244074Y299773D01*
X244075Y299773D01*
X244587D01*
X244587Y299773D01*
X245032Y298699D01*
X245821Y297671D01*
X246849Y296883D01*
X248046Y296387D01*
X249331Y296217D01*
X250616Y296387D01*
X251813Y296883D01*
X252841Y297671D01*
X253629Y298699D01*
X254074Y299773D01*
X254075Y299773D01*
X254587D01*
X254587Y299773D01*
X255032Y298699D01*
X255821Y297671D01*
X256849Y296883D01*
X258046Y296387D01*
X259331Y296217D01*
X260615Y296387D01*
X261813Y296883D01*
X262841Y297671D01*
X263630Y298699D01*
X264125Y299897D01*
X264295Y301181D01*
X264125Y302466D01*
X263630Y303663D01*
X262841Y304691D01*
X261813Y305480D01*
X260615Y305976D01*
X259331Y306145D01*
D02*
G37*
G36*
X269831Y305102D02*
Y301681D01*
X273252D01*
X273182Y302213D01*
X272783Y303175D01*
X272150Y304000D01*
X271324Y304634D01*
X270363Y305032D01*
X269831Y305102D01*
D02*
G37*
G36*
X268831D02*
X268299Y305032D01*
X267337Y304634D01*
X266512Y304000D01*
X265878Y303175D01*
X265480Y302213D01*
X265410Y301681D01*
X268831D01*
Y305102D01*
D02*
G37*
G36*
X188476Y311508D02*
X186227D01*
X186257Y311279D01*
X186538Y310600D01*
X186986Y310017D01*
X187569Y309570D01*
X188248Y309288D01*
X188476Y309258D01*
Y311508D01*
D02*
G37*
G36*
X199600D02*
X197351D01*
Y309258D01*
X197579Y309288D01*
X198258Y309570D01*
X198841Y310017D01*
X199289Y310600D01*
X199570Y311279D01*
X199600Y311508D01*
D02*
G37*
G36*
X196351D02*
X194101D01*
X194131Y311279D01*
X194412Y310600D01*
X194860Y310017D01*
X195443Y309570D01*
X196122Y309288D01*
X196351Y309258D01*
Y311508D01*
D02*
G37*
G36*
X191726D02*
X189476D01*
Y309258D01*
X189705Y309288D01*
X190384Y309570D01*
X190967Y310017D01*
X191415Y310600D01*
X191696Y311279D01*
X191726Y311508D01*
D02*
G37*
G36*
X273252Y300681D02*
X269831D01*
Y297260D01*
X270363Y297330D01*
X271324Y297728D01*
X272150Y298362D01*
X272783Y299188D01*
X273182Y300149D01*
X273252Y300681D01*
D02*
G37*
G36*
X119095Y298084D02*
X118113Y297955D01*
X117198Y297576D01*
X116413Y296973D01*
X115810Y296188D01*
X115431Y295273D01*
X115302Y294291D01*
X115431Y293310D01*
X115810Y292395D01*
X116413Y291610D01*
X117198Y291007D01*
X118113Y290628D01*
X119095Y290499D01*
X120076Y290628D01*
X120991Y291007D01*
X121776Y291610D01*
X122379Y292395D01*
X122758Y293310D01*
X122887Y294291D01*
X122758Y295273D01*
X122379Y296188D01*
X121776Y296973D01*
X120991Y297576D01*
X120076Y297955D01*
X119095Y298084D01*
D02*
G37*
G36*
X67913D02*
X66932Y297955D01*
X66017Y297576D01*
X65232Y296973D01*
X64629Y296188D01*
X64250Y295273D01*
X64121Y294291D01*
X64250Y293310D01*
X64629Y292395D01*
X65232Y291610D01*
X66017Y291007D01*
X66932Y290628D01*
X67913Y290499D01*
X68895Y290628D01*
X69810Y291007D01*
X70595Y291610D01*
X71198Y292395D01*
X71576Y293310D01*
X71706Y294291D01*
X71576Y295273D01*
X71198Y296188D01*
X70595Y296973D01*
X69810Y297576D01*
X68895Y297955D01*
X67913Y298084D01*
D02*
G37*
G36*
X150591Y298084D02*
X149609Y297955D01*
X148695Y297576D01*
X147909Y296973D01*
X147306Y296188D01*
X146927Y295273D01*
X146798Y294291D01*
X146927Y293310D01*
X147306Y292395D01*
X147909Y291610D01*
X148695Y291007D01*
X149609Y290628D01*
X150591Y290499D01*
X151572Y290628D01*
X152487Y291007D01*
X153272Y291610D01*
X153875Y292395D01*
X154254Y293310D01*
X154276Y293475D01*
X154780D01*
X154802Y293310D01*
X155180Y292395D01*
X155783Y291610D01*
X156569Y291007D01*
X157483Y290628D01*
X158465Y290499D01*
X159446Y290628D01*
X160361Y291007D01*
X161146Y291610D01*
X161749Y292395D01*
X162128Y293310D01*
X162257Y294291D01*
X162128Y295273D01*
X161749Y296187D01*
X161146Y296973D01*
X160361Y297576D01*
X159446Y297954D01*
X158465Y298084D01*
X157483Y297954D01*
X156569Y297576D01*
X155783Y296973D01*
X155180Y296187D01*
X154802Y295273D01*
X154780Y295107D01*
X154276D01*
X154254Y295273D01*
X153875Y296188D01*
X153272Y296973D01*
X152487Y297576D01*
X151572Y297955D01*
X150591Y298084D01*
D02*
G37*
G36*
X81693Y294147D02*
X80712Y294017D01*
X79797Y293639D01*
X79067Y293078D01*
X78862Y293008D01*
X78618D01*
X78414Y293078D01*
X77684Y293639D01*
X76769Y294017D01*
X75788Y294147D01*
X74806Y294017D01*
X73891Y293639D01*
X73106Y293036D01*
X72503Y292250D01*
X72124Y291336D01*
X71995Y290354D01*
X72124Y289373D01*
X72503Y288458D01*
X73106Y287673D01*
X73891Y287070D01*
X74806Y286691D01*
X75788Y286562D01*
X76769Y286691D01*
X77684Y287070D01*
X78414Y287630D01*
X78618Y287701D01*
X78862D01*
X79067Y287630D01*
X79797Y287070D01*
X80712Y286691D01*
X81693Y286562D01*
X82674Y286691D01*
X83589Y287070D01*
X84374Y287673D01*
X84977Y288458D01*
X85356Y289373D01*
X85485Y290354D01*
X85356Y291336D01*
X84977Y292250D01*
X84374Y293036D01*
X83589Y293639D01*
X82674Y294017D01*
X81693Y294147D01*
D02*
G37*
G36*
X268831Y300681D02*
X265410D01*
X265480Y300149D01*
X265878Y299188D01*
X266512Y298362D01*
X267337Y297728D01*
X268299Y297330D01*
X268831Y297260D01*
Y300681D01*
D02*
G37*
G36*
X196850Y298084D02*
X195869Y297954D01*
X194954Y297576D01*
X194169Y296973D01*
X193566Y296187D01*
X193187Y295273D01*
X193166Y295107D01*
X192661D01*
X192640Y295273D01*
X192261Y296187D01*
X191658Y296973D01*
X190873Y297576D01*
X189958Y297954D01*
X188976Y298084D01*
X187995Y297954D01*
X187080Y297576D01*
X186295Y296973D01*
X185692Y296187D01*
X185313Y295273D01*
X185184Y294291D01*
X185313Y293310D01*
X185692Y292395D01*
X186295Y291610D01*
X187080Y291007D01*
X187995Y290628D01*
X188976Y290499D01*
X189958Y290628D01*
X190873Y291007D01*
X191658Y291610D01*
X192261Y292395D01*
X192640Y293310D01*
X192661Y293475D01*
X193166D01*
X193187Y293310D01*
X193566Y292395D01*
X194169Y291610D01*
X194954Y291007D01*
X195869Y290628D01*
X196850Y290499D01*
X197832Y290628D01*
X198747Y291007D01*
X199532Y291610D01*
X200135Y292395D01*
X200514Y293310D01*
X200643Y294291D01*
X200514Y295273D01*
X200135Y296187D01*
X199532Y296973D01*
X198747Y297576D01*
X197832Y297954D01*
X196850Y298084D01*
D02*
G37*
G36*
X111221Y294147D02*
X110239Y294018D01*
X109324Y293639D01*
X108539Y293036D01*
X108518Y293008D01*
X108146D01*
X107941Y293078D01*
X107211Y293639D01*
X106297Y294017D01*
X105315Y294147D01*
X104333Y294017D01*
X103419Y293639D01*
X102634Y293036D01*
X102031Y292250D01*
X101652Y291336D01*
X101523Y290354D01*
X101652Y289373D01*
X102031Y288458D01*
X102634Y287673D01*
X103419Y287070D01*
X104333Y286691D01*
X105315Y286562D01*
X106297Y286691D01*
X107211Y287070D01*
X107941Y287630D01*
X108146Y287701D01*
X108518D01*
X108539Y287673D01*
X109324Y287070D01*
X110239Y286691D01*
X111221Y286562D01*
X112202Y286691D01*
X113117Y287070D01*
X113902Y287673D01*
X114505Y288458D01*
X114884Y289373D01*
X115013Y290354D01*
X114884Y291336D01*
X114505Y292251D01*
X113902Y293036D01*
X113117Y293639D01*
X112202Y294018D01*
X111221Y294147D01*
D02*
G37*
G36*
X278543Y257729D02*
X277562Y257600D01*
X276647Y257221D01*
X275862Y256619D01*
X275259Y255833D01*
X274880Y254919D01*
X274751Y253937D01*
X274880Y252956D01*
X275259Y252041D01*
X275862Y251255D01*
X276647Y250653D01*
X277562Y250274D01*
X278543Y250145D01*
X279525Y250274D01*
X280439Y250653D01*
X281225Y251255D01*
X281828Y252041D01*
X282206Y252956D01*
X282336Y253937D01*
X282206Y254919D01*
X281828Y255833D01*
X281225Y256619D01*
X280439Y257221D01*
X279525Y257600D01*
X278543Y257729D01*
D02*
G37*
G36*
X309697Y221154D02*
X306276D01*
X306346Y220622D01*
X306744Y219660D01*
X307378Y218834D01*
X308204Y218201D01*
X309165Y217803D01*
X309697Y217733D01*
Y221154D01*
D02*
G37*
G36*
X121063Y224855D02*
X120081Y224726D01*
X119167Y224347D01*
X118382Y223745D01*
X117779Y222959D01*
X117400Y222045D01*
X117271Y221063D01*
X117400Y220082D01*
X117779Y219167D01*
X118382Y218382D01*
X119167Y217779D01*
X120081Y217400D01*
X121063Y217271D01*
X122045Y217400D01*
X122959Y217779D01*
X123745Y218382D01*
X124347Y219167D01*
X124726Y220082D01*
X124855Y221063D01*
X124726Y222045D01*
X124347Y222959D01*
X123745Y223745D01*
X122959Y224347D01*
X122045Y224726D01*
X121063Y224855D01*
D02*
G37*
G36*
X96457Y224855D02*
X95475Y224726D01*
X94561Y224347D01*
X93775Y223745D01*
X93173Y222959D01*
X92794Y222045D01*
X92664Y221063D01*
X92794Y220081D01*
X93173Y219167D01*
X93775Y218382D01*
X94561Y217779D01*
X95475Y217400D01*
X96457Y217271D01*
X97438Y217400D01*
X98353Y217779D01*
X99138Y218382D01*
X99741Y219167D01*
X100120Y220081D01*
X100249Y221063D01*
X100120Y222045D01*
X99741Y222959D01*
X99138Y223745D01*
X98353Y224347D01*
X97438Y224726D01*
X96457Y224855D01*
D02*
G37*
G36*
X314118Y221154D02*
X310697D01*
Y217733D01*
X311229Y217803D01*
X312190Y218201D01*
X313016Y218834D01*
X313650Y219660D01*
X314048Y220622D01*
X314118Y221154D01*
D02*
G37*
G36*
X141529Y220957D02*
X139280D01*
Y218707D01*
X139508Y218737D01*
X140187Y219019D01*
X140770Y219466D01*
X141218Y220049D01*
X141499Y220728D01*
X141529Y220957D01*
D02*
G37*
G36*
X138280D02*
X136030D01*
X136060Y220728D01*
X136341Y220049D01*
X136789Y219466D01*
X137372Y219019D01*
X138051Y218737D01*
X138280Y218707D01*
Y220957D01*
D02*
G37*
G36*
X26890Y261857D02*
X25507Y261675D01*
X24219Y261141D01*
X23113Y260292D01*
X22264Y259186D01*
X21731Y257898D01*
X21549Y256516D01*
X21731Y255133D01*
X22264Y253845D01*
X23113Y252739D01*
X24219Y251890D01*
X25507Y251357D01*
X25824Y251315D01*
Y250811D01*
X25507Y250769D01*
X24219Y250236D01*
X23113Y249387D01*
X22264Y248281D01*
X21731Y246993D01*
X21549Y245610D01*
X21731Y244228D01*
X22264Y242940D01*
X23113Y241834D01*
X24219Y240985D01*
X25507Y240451D01*
X25824Y240410D01*
Y239905D01*
X25507Y239864D01*
X24219Y239330D01*
X23113Y238481D01*
X22264Y237375D01*
X21731Y236087D01*
X21549Y234705D01*
X21731Y233322D01*
X22264Y232034D01*
X23113Y230928D01*
X24219Y230079D01*
X25507Y229546D01*
X25824Y229504D01*
Y229000D01*
X25507Y228958D01*
X24219Y228425D01*
X23113Y227576D01*
X22264Y226470D01*
X21731Y225182D01*
X21549Y223799D01*
X21731Y222417D01*
X22264Y221129D01*
X23113Y220023D01*
X24219Y219174D01*
X25507Y218640D01*
X26890Y218458D01*
X28272Y218640D01*
X29560Y219174D01*
X30666Y220023D01*
X31515Y221129D01*
X32049Y222417D01*
X32231Y223799D01*
X32049Y225182D01*
X31515Y226470D01*
X30666Y227576D01*
X29560Y228425D01*
X28272Y228958D01*
X27956Y229000D01*
Y229504D01*
X28272Y229546D01*
X29560Y230079D01*
X30666Y230928D01*
X31515Y232034D01*
X32049Y233322D01*
X32231Y234705D01*
X32049Y236087D01*
X31515Y237375D01*
X30666Y238481D01*
X29560Y239330D01*
X28272Y239864D01*
X27956Y239905D01*
Y240410D01*
X28272Y240451D01*
X29560Y240985D01*
X30666Y241834D01*
X31515Y242940D01*
X32049Y244228D01*
X32231Y245610D01*
X32049Y246993D01*
X31515Y248281D01*
X30666Y249387D01*
X29560Y250236D01*
X28272Y250769D01*
X27956Y250811D01*
Y251315D01*
X28272Y251357D01*
X29560Y251890D01*
X30666Y252739D01*
X31515Y253845D01*
X32049Y255133D01*
X32231Y256516D01*
X32049Y257898D01*
X31515Y259186D01*
X30666Y260292D01*
X29560Y261141D01*
X28272Y261675D01*
X26890Y261857D01*
D02*
G37*
G36*
X213099Y219285D02*
Y217036D01*
X215348D01*
X215318Y217264D01*
X215037Y217943D01*
X214589Y218526D01*
X214006Y218974D01*
X213327Y219255D01*
X213099Y219285D01*
D02*
G37*
G36*
X310697Y215575D02*
Y212154D01*
X314118D01*
X314048Y212685D01*
X313650Y213647D01*
X313016Y214473D01*
X312190Y215106D01*
X311229Y215505D01*
X310697Y215575D01*
D02*
G37*
G36*
X309697D02*
X309165Y215505D01*
X308204Y215106D01*
X307378Y214473D01*
X306744Y213647D01*
X306346Y212685D01*
X306276Y212154D01*
X309697D01*
Y215575D01*
D02*
G37*
G36*
X206209Y213380D02*
Y211130D01*
X208458D01*
X208428Y211359D01*
X208147Y212038D01*
X207699Y212621D01*
X207116Y213068D01*
X206437Y213350D01*
X206209Y213380D01*
D02*
G37*
G36*
X43366Y223642D02*
X32776D01*
Y213051D01*
X43366D01*
Y223642D01*
D02*
G37*
G36*
X212099Y219285D02*
X211870Y219255D01*
X211191Y218974D01*
X210608Y218526D01*
X210160Y217943D01*
X209879Y217264D01*
X209849Y217036D01*
X212099D01*
Y219285D01*
D02*
G37*
G36*
X215348Y216036D02*
X213099D01*
Y213786D01*
X213327Y213816D01*
X214006Y214097D01*
X214589Y214545D01*
X215037Y215128D01*
X215318Y215807D01*
X215348Y216036D01*
D02*
G37*
G36*
X212099D02*
X209849D01*
X209879Y215807D01*
X210160Y215128D01*
X210608Y214545D01*
X211191Y214097D01*
X211870Y213816D01*
X212099Y213786D01*
Y216036D01*
D02*
G37*
G36*
X82193Y227159D02*
Y224909D01*
X84443D01*
X84412Y225138D01*
X84131Y225817D01*
X83684Y226400D01*
X83101Y226848D01*
X82422Y227129D01*
X82193Y227159D01*
D02*
G37*
G36*
X81193D02*
X80964Y227129D01*
X80285Y226848D01*
X79702Y226400D01*
X79255Y225817D01*
X78974Y225138D01*
X78943Y224909D01*
X81193D01*
Y227159D01*
D02*
G37*
G36*
X241923Y224894D02*
X239673D01*
Y222644D01*
X239902Y222674D01*
X240581Y222955D01*
X241164Y223403D01*
X241612Y223986D01*
X241893Y224665D01*
X241923Y224894D01*
D02*
G37*
G36*
X37571Y228752D02*
X33773D01*
X33856Y228122D01*
X34291Y227070D01*
X34985Y226166D01*
X35889Y225472D01*
X36941Y225037D01*
X37571Y224954D01*
Y228752D01*
D02*
G37*
G36*
X238673Y228143D02*
X238445Y228113D01*
X237766Y227832D01*
X237182Y227385D01*
X236735Y226801D01*
X236454Y226122D01*
X236424Y225894D01*
X238673D01*
Y228143D01*
D02*
G37*
G36*
X200787Y233123D02*
X199806Y232994D01*
X198891Y232615D01*
X198106Y232012D01*
X197503Y231227D01*
X197124Y230312D01*
X196995Y229331D01*
X197124Y228349D01*
X197503Y227435D01*
X198106Y226649D01*
X198891Y226047D01*
X199806Y225668D01*
X200787Y225538D01*
X201769Y225668D01*
X202684Y226047D01*
X203469Y226649D01*
X204072Y227435D01*
X204450Y228349D01*
X204580Y229331D01*
X204450Y230312D01*
X204072Y231227D01*
X203469Y232012D01*
X202684Y232615D01*
X201769Y232994D01*
X200787Y233123D01*
D02*
G37*
G36*
X42369Y228752D02*
X38571D01*
Y224954D01*
X39200Y225037D01*
X40253Y225472D01*
X41157Y226166D01*
X41850Y227070D01*
X42286Y228122D01*
X42369Y228752D01*
D02*
G37*
G36*
X238673Y224894D02*
X236424D01*
X236454Y224665D01*
X236735Y223986D01*
X237182Y223403D01*
X237766Y222955D01*
X238445Y222674D01*
X238673Y222644D01*
Y224894D01*
D02*
G37*
G36*
X84443Y223909D02*
X82193D01*
Y221660D01*
X82422Y221690D01*
X83101Y221971D01*
X83684Y222419D01*
X84131Y223002D01*
X84412Y223681D01*
X84443Y223909D01*
D02*
G37*
G36*
X81193D02*
X78943D01*
X78974Y223681D01*
X79255Y223002D01*
X79702Y222419D01*
X80285Y221971D01*
X80964Y221690D01*
X81193Y221660D01*
Y223909D01*
D02*
G37*
G36*
X63976Y228202D02*
X62995Y228073D01*
X62080Y227694D01*
X61295Y227091D01*
X60692Y226306D01*
X60313Y225391D01*
X60184Y224410D01*
X60313Y223428D01*
X60692Y222513D01*
X61295Y221728D01*
X62080Y221125D01*
X62995Y220746D01*
X63976Y220617D01*
X64958Y220746D01*
X65873Y221125D01*
X66658Y221728D01*
X67261Y222513D01*
X67639Y223428D01*
X67769Y224410D01*
X67639Y225391D01*
X67261Y226306D01*
X66658Y227091D01*
X65873Y227694D01*
X64958Y228073D01*
X63976Y228202D01*
D02*
G37*
G36*
X138280Y224206D02*
X138051Y224176D01*
X137372Y223895D01*
X136789Y223448D01*
X136341Y222865D01*
X136060Y222185D01*
X136030Y221957D01*
X138280D01*
Y224206D01*
D02*
G37*
G36*
X310697Y225575D02*
Y222154D01*
X314118D01*
X314048Y222686D01*
X313650Y223647D01*
X313016Y224473D01*
X312190Y225106D01*
X311229Y225505D01*
X310697Y225575D01*
D02*
G37*
G36*
X309697D02*
X309165Y225505D01*
X308204Y225106D01*
X307378Y224473D01*
X306744Y223647D01*
X306346Y222686D01*
X306276Y222154D01*
X309697D01*
Y225575D01*
D02*
G37*
G36*
X139280Y224206D02*
Y221957D01*
X141529D01*
X141499Y222185D01*
X141218Y222865D01*
X140770Y223448D01*
X140187Y223895D01*
X139508Y224176D01*
X139280Y224206D01*
D02*
G37*
G36*
X251765Y194382D02*
X249516D01*
Y192132D01*
X249745Y192162D01*
X250424Y192444D01*
X251007Y192891D01*
X251454Y193474D01*
X251735Y194153D01*
X251765Y194382D01*
D02*
G37*
G36*
X248516D02*
X246266D01*
X246296Y194153D01*
X246578Y193474D01*
X247025Y192891D01*
X247608Y192444D01*
X248287Y192162D01*
X248516Y192132D01*
Y194382D01*
D02*
G37*
G36*
X223252Y195366D02*
X219831D01*
Y191945D01*
X220363Y192015D01*
X221324Y192413D01*
X222150Y193047D01*
X222783Y193873D01*
X223182Y194834D01*
X223252Y195366D01*
D02*
G37*
G36*
X309697Y195575D02*
X309165Y195505D01*
X308204Y195106D01*
X307378Y194473D01*
X306744Y193647D01*
X306346Y192685D01*
X306276Y192154D01*
X309697D01*
Y195575D01*
D02*
G37*
G36*
X249516Y197632D02*
Y195382D01*
X251765D01*
X251735Y195611D01*
X251454Y196290D01*
X251007Y196873D01*
X250424Y197320D01*
X249745Y197601D01*
X249516Y197632D01*
D02*
G37*
G36*
X248516D02*
X248287Y197601D01*
X247608Y197320D01*
X247025Y196873D01*
X246578Y196290D01*
X246296Y195611D01*
X246266Y195382D01*
X248516D01*
Y197632D01*
D02*
G37*
G36*
X310697Y195575D02*
Y192154D01*
X314118D01*
X314048Y192685D01*
X313650Y193647D01*
X313016Y194473D01*
X312190Y195106D01*
X311229Y195505D01*
X310697Y195575D01*
D02*
G37*
G36*
X218831Y195366D02*
X215410D01*
X215480Y194834D01*
X215878Y193873D01*
X216512Y193047D01*
X217337Y192413D01*
X218299Y192015D01*
X218831Y191945D01*
Y195366D01*
D02*
G37*
G36*
X314118Y191154D02*
X310697D01*
Y187733D01*
X311229Y187803D01*
X312190Y188201D01*
X313016Y188835D01*
X313650Y189660D01*
X314048Y190622D01*
X314118Y191154D01*
D02*
G37*
G36*
X309697D02*
X306276D01*
X306346Y190622D01*
X306744Y189660D01*
X307378Y188835D01*
X308204Y188201D01*
X309165Y187803D01*
X309697Y187733D01*
Y191154D01*
D02*
G37*
G36*
X113689Y187198D02*
Y184949D01*
X115939D01*
X115909Y185178D01*
X115627Y185857D01*
X115180Y186440D01*
X114597Y186887D01*
X113918Y187168D01*
X113689Y187198D01*
D02*
G37*
G36*
X234252Y200787D02*
X224410D01*
Y190945D01*
X234252D01*
Y200787D01*
D02*
G37*
G36*
X32980Y201327D02*
Y191465D01*
X42843D01*
X42754Y192592D01*
X42373Y194179D01*
X41749Y195687D01*
X40896Y197079D01*
X39836Y198320D01*
X38594Y199380D01*
X37203Y200233D01*
X35695Y200858D01*
X34108Y201239D01*
X32980Y201327D01*
D02*
G37*
G36*
X31980D02*
X30853Y201239D01*
X29266Y200858D01*
X27758Y200233D01*
X26366Y199380D01*
X25125Y198320D01*
X24065Y197079D01*
X23212Y195687D01*
X22587Y194179D01*
X22206Y192592D01*
X22118Y191465D01*
X31980D01*
Y201327D01*
D02*
G37*
G36*
X266732Y198674D02*
X265751Y198545D01*
X264836Y198166D01*
X264051Y197564D01*
X263448Y196778D01*
X263069Y195863D01*
X262940Y194882D01*
X263069Y193900D01*
X263448Y192986D01*
X264051Y192200D01*
X264836Y191598D01*
X265751Y191219D01*
X266732Y191090D01*
X267714Y191219D01*
X268629Y191598D01*
X269414Y192200D01*
X270017Y192986D01*
X270395Y193900D01*
X270525Y194882D01*
X270395Y195863D01*
X270017Y196778D01*
X269414Y197564D01*
X268629Y198166D01*
X267714Y198545D01*
X266732Y198674D01*
D02*
G37*
G36*
X205209Y210130D02*
X202959D01*
X202989Y209901D01*
X203271Y209222D01*
X203718Y208639D01*
X204301Y208192D01*
X204980Y207910D01*
X205209Y207880D01*
Y210130D01*
D02*
G37*
G36*
X314118Y211154D02*
X310697D01*
Y207733D01*
X311229Y207803D01*
X312190Y208201D01*
X313016Y208835D01*
X313650Y209660D01*
X314048Y210622D01*
X314118Y211154D01*
D02*
G37*
G36*
X309697D02*
X306276D01*
X306346Y210622D01*
X306744Y209660D01*
X307378Y208835D01*
X308204Y208201D01*
X309165Y207803D01*
X309697Y207733D01*
Y211154D01*
D02*
G37*
G36*
X208458Y210130D02*
X206209D01*
Y207880D01*
X206437Y207910D01*
X207116Y208192D01*
X207699Y208639D01*
X208147Y209222D01*
X208428Y209901D01*
X208458Y210130D01*
D02*
G37*
G36*
X205209Y213380D02*
X204980Y213350D01*
X204301Y213068D01*
X203718Y212621D01*
X203271Y212038D01*
X202989Y211359D01*
X202959Y211130D01*
X205209D01*
Y213380D01*
D02*
G37*
G36*
X178650Y212395D02*
Y210146D01*
X180899D01*
X180869Y210374D01*
X180588Y211053D01*
X180140Y211636D01*
X179557Y212084D01*
X178878Y212365D01*
X178650Y212395D01*
D02*
G37*
G36*
X177650D02*
X177421Y212365D01*
X176742Y212084D01*
X176159Y211636D01*
X175711Y211053D01*
X175430Y210374D01*
X175400Y210146D01*
X177650D01*
Y212395D01*
D02*
G37*
G36*
X180899Y209146D02*
X178650D01*
Y206896D01*
X178878Y206926D01*
X179557Y207207D01*
X180140Y207655D01*
X180588Y208238D01*
X180869Y208917D01*
X180899Y209146D01*
D02*
G37*
G36*
X309697Y201154D02*
X306276D01*
X306346Y200622D01*
X306744Y199660D01*
X307378Y198835D01*
X308204Y198201D01*
X309165Y197803D01*
X309697Y197733D01*
Y201154D01*
D02*
G37*
G36*
X219831Y199787D02*
Y196366D01*
X223252D01*
X223182Y196898D01*
X222783Y197860D01*
X222150Y198685D01*
X221324Y199319D01*
X220363Y199717D01*
X219831Y199787D01*
D02*
G37*
G36*
X218831D02*
X218299Y199717D01*
X217337Y199319D01*
X216512Y198685D01*
X215878Y197860D01*
X215480Y196898D01*
X215410Y196366D01*
X218831D01*
Y199787D01*
D02*
G37*
G36*
X314118Y201154D02*
X310697D01*
Y197733D01*
X311229Y197803D01*
X312190Y198201D01*
X313016Y198835D01*
X313650Y199660D01*
X314048Y200622D01*
X314118Y201154D01*
D02*
G37*
G36*
X177650Y209146D02*
X175400D01*
X175430Y208917D01*
X175711Y208238D01*
X176159Y207655D01*
X176742Y207207D01*
X177421Y206926D01*
X177650Y206896D01*
Y209146D01*
D02*
G37*
G36*
X310697Y205575D02*
Y202154D01*
X314118D01*
X314048Y202685D01*
X313650Y203647D01*
X313016Y204473D01*
X312190Y205106D01*
X311229Y205505D01*
X310697Y205575D01*
D02*
G37*
G36*
X309697D02*
X309165Y205505D01*
X308204Y205106D01*
X307378Y204473D01*
X306744Y203647D01*
X306346Y202685D01*
X306276Y202154D01*
X309697D01*
Y205575D01*
D02*
G37*
G36*
X161606Y242118D02*
X159357D01*
X159387Y241889D01*
X159668Y241210D01*
X160116Y240627D01*
X160699Y240180D01*
X161378Y239899D01*
X161606Y239868D01*
Y242118D01*
D02*
G37*
G36*
X200303Y241923D02*
Y239673D01*
X202553D01*
X202523Y239902D01*
X202241Y240581D01*
X201794Y241164D01*
X201211Y241612D01*
X200532Y241893D01*
X200303Y241923D01*
D02*
G37*
G36*
X199303D02*
X199074Y241893D01*
X198396Y241612D01*
X197812Y241164D01*
X197365Y240581D01*
X197084Y239902D01*
X197054Y239673D01*
X199303D01*
Y241923D01*
D02*
G37*
G36*
X164856Y242118D02*
X162606D01*
Y239868D01*
X162835Y239899D01*
X163514Y240180D01*
X164097Y240627D01*
X164545Y241210D01*
X164826Y241889D01*
X164856Y242118D01*
D02*
G37*
G36*
X240939Y245563D02*
X235439D01*
X235470Y245334D01*
X235751Y244655D01*
X236198Y244072D01*
X236781Y243625D01*
X237393Y243371D01*
X237447Y243110D01*
X237393Y242849D01*
X236781Y242596D01*
X236198Y242148D01*
X235751Y241565D01*
X235470Y240886D01*
X235439Y240657D01*
X240939D01*
X240909Y240886D01*
X240627Y241565D01*
X240180Y242148D01*
X239597Y242596D01*
X238985Y242849D01*
X238931Y243110D01*
X238985Y243371D01*
X239597Y243625D01*
X240180Y244072D01*
X240627Y244655D01*
X240909Y245334D01*
X240939Y245563D01*
D02*
G37*
G36*
X38571Y244456D02*
Y240657D01*
X42369D01*
X42286Y241287D01*
X41850Y242339D01*
X41157Y243243D01*
X40253Y243937D01*
X39200Y244373D01*
X38571Y244456D01*
D02*
G37*
G36*
X37571D02*
X36941Y244373D01*
X35889Y243937D01*
X34985Y243243D01*
X34291Y242339D01*
X33856Y241287D01*
X33773Y240657D01*
X37571D01*
Y244456D01*
D02*
G37*
G36*
X69882Y246903D02*
X68900Y246773D01*
X67986Y246394D01*
X67200Y245792D01*
X66598Y245006D01*
X66219Y244092D01*
X66090Y243110D01*
X66219Y242129D01*
X66598Y241214D01*
X67200Y240429D01*
X67986Y239826D01*
X68900Y239447D01*
X69882Y239318D01*
X70863Y239447D01*
X71778Y239826D01*
X72563Y240429D01*
X73166Y241214D01*
X73545Y242129D01*
X73674Y243110D01*
X73545Y244092D01*
X73166Y245006D01*
X72563Y245792D01*
X71778Y246394D01*
X70863Y246773D01*
X69882Y246903D01*
D02*
G37*
G36*
X309697Y241154D02*
X306276D01*
X306346Y240622D01*
X306744Y239660D01*
X307378Y238835D01*
X308204Y238201D01*
X309165Y237803D01*
X309697Y237733D01*
Y241154D01*
D02*
G37*
G36*
X240939Y239657D02*
X238689D01*
Y237408D01*
X238918Y237438D01*
X239597Y237719D01*
X240180Y238167D01*
X240627Y238750D01*
X240909Y239429D01*
X240939Y239657D01*
D02*
G37*
G36*
X237689D02*
X235439D01*
X235470Y239429D01*
X235751Y238750D01*
X236198Y238167D01*
X236781Y237719D01*
X237460Y237438D01*
X237689Y237408D01*
Y239657D01*
D02*
G37*
G36*
X314118Y241154D02*
X310697D01*
Y237733D01*
X311229Y237803D01*
X312190Y238201D01*
X313016Y238835D01*
X313650Y239660D01*
X314048Y240622D01*
X314118Y241154D01*
D02*
G37*
G36*
X126969Y241588D02*
X125987Y241458D01*
X125072Y241080D01*
X124287Y240477D01*
X123684Y239691D01*
X123305Y238777D01*
X123284Y238611D01*
X122779D01*
X122758Y238777D01*
X122379Y239691D01*
X121776Y240477D01*
X120991Y241080D01*
X120076Y241458D01*
X119095Y241588D01*
X118113Y241458D01*
X117198Y241080D01*
X116413Y240477D01*
X115810Y239691D01*
X115431Y238777D01*
X115302Y237795D01*
X115431Y236814D01*
X115810Y235899D01*
X116413Y235114D01*
X117198Y234511D01*
X118113Y234132D01*
X119095Y234003D01*
X120076Y234132D01*
X120991Y234511D01*
X121776Y235114D01*
X122379Y235899D01*
X122758Y236814D01*
X122779Y236979D01*
X123284D01*
X123305Y236814D01*
X123684Y235899D01*
X124287Y235114D01*
X125072Y234511D01*
X125987Y234132D01*
X126969Y234003D01*
X127950Y234132D01*
X128865Y234511D01*
X129650Y235114D01*
X130253Y235899D01*
X130632Y236814D01*
X130761Y237795D01*
X130632Y238777D01*
X130253Y239691D01*
X129650Y240477D01*
X128865Y241080D01*
X127950Y241458D01*
X126969Y241588D01*
D02*
G37*
G36*
X111721Y240545D02*
Y238295D01*
X113970D01*
X113940Y238524D01*
X113659Y239203D01*
X113211Y239786D01*
X112628Y240234D01*
X111949Y240515D01*
X111721Y240545D01*
D02*
G37*
G36*
X110721D02*
X110492Y240515D01*
X109813Y240234D01*
X109230Y239786D01*
X108782Y239203D01*
X108501Y238524D01*
X108471Y238295D01*
X110721D01*
Y240545D01*
D02*
G37*
G36*
X42369Y250563D02*
X38571D01*
Y246765D01*
X39200Y246848D01*
X40253Y247284D01*
X41157Y247977D01*
X41850Y248881D01*
X42286Y249934D01*
X42369Y250563D01*
D02*
G37*
G36*
X37571D02*
X33773D01*
X33856Y249934D01*
X34291Y248881D01*
X34985Y247977D01*
X35889Y247284D01*
X36941Y246848D01*
X37571Y246765D01*
Y250563D01*
D02*
G37*
G36*
X238689Y248813D02*
Y246563D01*
X240939D01*
X240909Y246792D01*
X240627Y247471D01*
X240180Y248054D01*
X239597Y248501D01*
X238918Y248782D01*
X238689Y248813D01*
D02*
G37*
G36*
X101862Y249797D02*
X101634Y249767D01*
X100954Y249485D01*
X100371Y249038D01*
X99924Y248455D01*
X99643Y247776D01*
X99613Y247547D01*
X101862D01*
Y249797D01*
D02*
G37*
G36*
X314118Y251154D02*
X310697D01*
Y247733D01*
X311229Y247803D01*
X312190Y248201D01*
X313016Y248834D01*
X313650Y249660D01*
X314048Y250622D01*
X314118Y251154D01*
D02*
G37*
G36*
X309697D02*
X306276D01*
X306346Y250622D01*
X306744Y249660D01*
X307378Y248834D01*
X308204Y248201D01*
X309165Y247803D01*
X309697Y247733D01*
Y251154D01*
D02*
G37*
G36*
X102862Y249797D02*
Y247547D01*
X105112D01*
X105082Y247776D01*
X104800Y248455D01*
X104353Y249038D01*
X103770Y249485D01*
X103091Y249767D01*
X102862Y249797D01*
D02*
G37*
G36*
X237689Y248813D02*
X237460Y248782D01*
X236781Y248501D01*
X236198Y248054D01*
X235751Y247471D01*
X235470Y246792D01*
X235439Y246563D01*
X237689D01*
Y248813D01*
D02*
G37*
G36*
X161606Y245368D02*
X161378Y245338D01*
X160699Y245056D01*
X160116Y244609D01*
X159668Y244026D01*
X159387Y243347D01*
X159357Y243118D01*
X161606D01*
Y245368D01*
D02*
G37*
G36*
X310697Y245575D02*
Y242154D01*
X314118D01*
X314048Y242686D01*
X313650Y243647D01*
X313016Y244473D01*
X312190Y245106D01*
X311229Y245505D01*
X310697Y245575D01*
D02*
G37*
G36*
X309697D02*
X309165Y245505D01*
X308204Y245106D01*
X307378Y244473D01*
X306744Y243647D01*
X306346Y242686D01*
X306276Y242154D01*
X309697D01*
Y245575D01*
D02*
G37*
G36*
X162606Y245368D02*
Y243118D01*
X164856D01*
X164826Y243347D01*
X164545Y244026D01*
X164097Y244609D01*
X163514Y245056D01*
X162835Y245338D01*
X162606Y245368D01*
D02*
G37*
G36*
X51181Y253792D02*
X50200Y253663D01*
X49285Y253284D01*
X48500Y252682D01*
X47897Y251896D01*
X47518Y250982D01*
X47389Y250000D01*
X47518Y249019D01*
X47897Y248104D01*
X48500Y247319D01*
X49285Y246716D01*
X50200Y246337D01*
X51181Y246208D01*
X52163Y246337D01*
X53077Y246716D01*
X53863Y247319D01*
X54465Y248104D01*
X54844Y249019D01*
X54973Y250000D01*
X54844Y250982D01*
X54465Y251896D01*
X53863Y252682D01*
X53077Y253284D01*
X52163Y253663D01*
X51181Y253792D01*
D02*
G37*
G36*
X105112Y246547D02*
X102862D01*
Y244298D01*
X103091Y244328D01*
X103770Y244609D01*
X104353Y245057D01*
X104800Y245640D01*
X105082Y246319D01*
X105112Y246547D01*
D02*
G37*
G36*
X101862D02*
X99613D01*
X99643Y246319D01*
X99924Y245640D01*
X100371Y245057D01*
X100954Y244609D01*
X101634Y244328D01*
X101862Y244298D01*
Y246547D01*
D02*
G37*
G36*
X149106Y233752D02*
X146857D01*
X146887Y233523D01*
X147168Y232844D01*
X147616Y232261D01*
X148199Y231814D01*
X148878Y231533D01*
X149106Y231502D01*
Y233752D01*
D02*
G37*
G36*
X105112Y233358D02*
X102862D01*
Y231109D01*
X103091Y231139D01*
X103770Y231420D01*
X104353Y231868D01*
X104800Y232451D01*
X105082Y233130D01*
X105112Y233358D01*
D02*
G37*
G36*
X101862D02*
X99613D01*
X99643Y233130D01*
X99924Y232451D01*
X100371Y231868D01*
X100954Y231420D01*
X101634Y231139D01*
X101862Y231109D01*
Y233358D01*
D02*
G37*
G36*
X152356Y233752D02*
X150106D01*
Y231502D01*
X150335Y231533D01*
X151014Y231814D01*
X151597Y232261D01*
X152045Y232844D01*
X152326Y233523D01*
X152356Y233752D01*
D02*
G37*
G36*
X139264Y234639D02*
X139035Y234609D01*
X138356Y234328D01*
X137773Y233881D01*
X137326Y233297D01*
X137044Y232618D01*
X137014Y232390D01*
X139264D01*
Y234639D01*
D02*
G37*
G36*
X310697Y235575D02*
Y232154D01*
X314118D01*
X314048Y232685D01*
X313650Y233647D01*
X313016Y234473D01*
X312190Y235106D01*
X311229Y235505D01*
X310697Y235575D01*
D02*
G37*
G36*
X309697D02*
X309165Y235505D01*
X308204Y235106D01*
X307378Y234473D01*
X306744Y233647D01*
X306346Y232685D01*
X306276Y232154D01*
X309697D01*
Y235575D01*
D02*
G37*
G36*
X89567Y244934D02*
X88586Y244805D01*
X87671Y244426D01*
X86885Y243823D01*
X86283Y243038D01*
X85904Y242123D01*
X85775Y241142D01*
X85904Y240160D01*
X86283Y239246D01*
X86885Y238460D01*
X87485Y238000D01*
X87519Y237914D01*
Y237480D01*
X87485Y237393D01*
X86885Y236934D01*
X86283Y236148D01*
X85904Y235233D01*
X85775Y234252D01*
X85904Y233271D01*
X86283Y232356D01*
X86885Y231571D01*
X87671Y230968D01*
X88586Y230589D01*
X89567Y230460D01*
X90548Y230589D01*
X91463Y230968D01*
X92248Y231571D01*
X92851Y232356D01*
X93230Y233271D01*
X93359Y234252D01*
X93230Y235233D01*
X92851Y236148D01*
X92248Y236934D01*
X91649Y237393D01*
X91615Y237480D01*
Y237914D01*
X91649Y238000D01*
X92248Y238460D01*
X92851Y239246D01*
X93230Y240160D01*
X93359Y241142D01*
X93230Y242123D01*
X92851Y243038D01*
X92248Y243823D01*
X91463Y244426D01*
X90548Y244805D01*
X89567Y244934D01*
D02*
G37*
G36*
X314118Y231154D02*
X310697D01*
Y227733D01*
X311229Y227803D01*
X312190Y228201D01*
X313016Y228835D01*
X313650Y229660D01*
X314048Y230622D01*
X314118Y231154D01*
D02*
G37*
G36*
X309697D02*
X306276D01*
X306346Y230622D01*
X306744Y229660D01*
X307378Y228835D01*
X308204Y228201D01*
X309165Y227803D01*
X309697Y227733D01*
Y231154D01*
D02*
G37*
G36*
X239673Y228143D02*
Y225894D01*
X241923D01*
X241893Y226122D01*
X241612Y226801D01*
X241164Y227385D01*
X240581Y227832D01*
X239902Y228113D01*
X239673Y228143D01*
D02*
G37*
G36*
X139264Y231390D02*
X137014D01*
X137044Y231161D01*
X137326Y230482D01*
X137773Y229899D01*
X138356Y229452D01*
X139035Y229170D01*
X139264Y229140D01*
Y231390D01*
D02*
G37*
G36*
X38571Y233550D02*
Y229752D01*
X42369D01*
X42286Y230381D01*
X41850Y231434D01*
X41157Y232338D01*
X40253Y233031D01*
X39200Y233467D01*
X38571Y233550D01*
D02*
G37*
G36*
X37571D02*
X36941Y233467D01*
X35889Y233031D01*
X34985Y232338D01*
X34291Y231434D01*
X33856Y230381D01*
X33773Y229752D01*
X37571D01*
Y233550D01*
D02*
G37*
G36*
X142513Y231390D02*
X140264D01*
Y229140D01*
X140492Y229170D01*
X141172Y229452D01*
X141755Y229899D01*
X142202Y230482D01*
X142483Y231161D01*
X142513Y231390D01*
D02*
G37*
G36*
X42369Y239657D02*
X38571D01*
Y235859D01*
X39200Y235942D01*
X40253Y236378D01*
X41157Y237072D01*
X41850Y237975D01*
X42286Y239028D01*
X42369Y239657D01*
D02*
G37*
G36*
X37571D02*
X33773D01*
X33856Y239028D01*
X34291Y237975D01*
X34985Y237072D01*
X35889Y236378D01*
X36941Y235942D01*
X37571Y235859D01*
Y239657D01*
D02*
G37*
G36*
X113970Y237295D02*
X111721D01*
Y235046D01*
X111949Y235076D01*
X112628Y235357D01*
X113211Y235805D01*
X113659Y236388D01*
X113940Y237067D01*
X113970Y237295D01*
D02*
G37*
G36*
X199303Y238673D02*
X197054D01*
X197084Y238445D01*
X197365Y237766D01*
X197812Y237182D01*
X198396Y236735D01*
X199074Y236454D01*
X199303Y236424D01*
Y238673D01*
D02*
G37*
G36*
X258374Y238970D02*
Y236720D01*
X260624D01*
X260594Y236949D01*
X260312Y237628D01*
X259865Y238211D01*
X259282Y238659D01*
X258603Y238940D01*
X258374Y238970D01*
D02*
G37*
G36*
X257374D02*
X257145Y238940D01*
X256466Y238659D01*
X255883Y238211D01*
X255436Y237628D01*
X255154Y236949D01*
X255124Y236720D01*
X257374D01*
Y238970D01*
D02*
G37*
G36*
X202553Y238673D02*
X200303D01*
Y236424D01*
X200532Y236454D01*
X201211Y236735D01*
X201794Y237182D01*
X202241Y237766D01*
X202523Y238445D01*
X202553Y238673D01*
D02*
G37*
G36*
X110721Y237295D02*
X108471D01*
X108501Y237067D01*
X108782Y236388D01*
X109230Y235805D01*
X109813Y235357D01*
X110492Y235076D01*
X110721Y235046D01*
Y237295D01*
D02*
G37*
G36*
X260624Y235720D02*
X258374D01*
Y233471D01*
X258603Y233501D01*
X259282Y233782D01*
X259865Y234230D01*
X260312Y234813D01*
X260594Y235492D01*
X260624Y235720D01*
D02*
G37*
G36*
X257374D02*
X255124D01*
X255154Y235492D01*
X255436Y234813D01*
X255883Y234230D01*
X256466Y233782D01*
X257145Y233501D01*
X257374Y233471D01*
Y235720D01*
D02*
G37*
G36*
X140264Y234639D02*
Y232390D01*
X142513D01*
X142483Y232618D01*
X142202Y233297D01*
X141755Y233881D01*
X141172Y234328D01*
X140492Y234609D01*
X140264Y234639D01*
D02*
G37*
G36*
X101862Y236608D02*
X101634Y236578D01*
X100954Y236297D01*
X100371Y235849D01*
X99924Y235266D01*
X99643Y234587D01*
X99613Y234358D01*
X101862D01*
Y236608D01*
D02*
G37*
G36*
X150106Y237002D02*
Y234752D01*
X152356D01*
X152326Y234981D01*
X152045Y235660D01*
X151597Y236243D01*
X151014Y236690D01*
X150335Y236971D01*
X150106Y237002D01*
D02*
G37*
G36*
X149106D02*
X148878Y236971D01*
X148199Y236690D01*
X147616Y236243D01*
X147168Y235660D01*
X146887Y234981D01*
X146857Y234752D01*
X149106D01*
Y237002D01*
D02*
G37*
G36*
X102862Y236608D02*
Y234358D01*
X105112D01*
X105082Y234587D01*
X104800Y235266D01*
X104353Y235849D01*
X103770Y236297D01*
X103091Y236578D01*
X102862Y236608D01*
D02*
G37*
%LPD*%
D30*
X310197Y271654D02*
D03*
Y261654D02*
D03*
Y251654D02*
D03*
Y241654D02*
D03*
Y231654D02*
D03*
Y221654D02*
D03*
Y211654D02*
D03*
Y201654D02*
D03*
Y191654D02*
D03*
Y181654D02*
D03*
Y171654D02*
D03*
Y161654D02*
D03*
Y151654D02*
D03*
X219331Y195866D02*
D03*
X269331Y301181D02*
D03*
D33*
X38071Y261968D02*
D03*
Y251063D02*
D03*
Y240158D02*
D03*
Y229252D02*
D03*
Y83583D02*
D03*
Y94488D02*
D03*
Y105394D02*
D03*
Y116299D02*
D03*
D34*
Y72677D02*
D03*
D35*
X32480Y190965D02*
D03*
Y289350D02*
D03*
Y143681D02*
D03*
Y45295D02*
D03*
D36*
X241142Y182087D02*
D03*
X238189Y240158D02*
D03*
Y246063D02*
D03*
X91535Y63976D02*
D03*
X112205Y60039D02*
D03*
X92520Y149606D02*
D03*
X113189Y146653D02*
D03*
X138780Y221457D02*
D03*
X248031Y254921D02*
D03*
X218504Y150591D02*
D03*
X282480Y132874D02*
D03*
X249016Y194882D02*
D03*
X102362Y247047D02*
D03*
X81693Y224410D02*
D03*
X275591Y164370D02*
D03*
X266732Y171260D02*
D03*
X188976Y312008D02*
D03*
X196851D02*
D03*
X157480Y62992D02*
D03*
X81693Y315945D02*
D03*
X111221D02*
D03*
X75788D02*
D03*
X67913Y312008D02*
D03*
X119095D02*
D03*
X105315Y315945D02*
D03*
X239173Y225394D02*
D03*
X257874Y236221D02*
D03*
X264764Y266732D02*
D03*
X233268Y271654D02*
D03*
X225394D02*
D03*
X214567Y265748D02*
D03*
X224410Y111221D02*
D03*
X251181D02*
D03*
Y154528D02*
D03*
X163386Y30512D02*
D03*
X273622Y68898D02*
D03*
X251969Y65945D02*
D03*
X130905Y173228D02*
D03*
X234252Y163386D02*
D03*
Y102362D02*
D03*
X130905Y92520D02*
D03*
X145079Y163976D02*
D03*
X207283Y156890D02*
D03*
X158465Y155512D02*
D03*
Y165354D02*
D03*
X193898Y155512D02*
D03*
Y165354D02*
D03*
X207283Y108858D02*
D03*
X207087Y129331D02*
D03*
X145079Y101772D02*
D03*
X193898Y100394D02*
D03*
Y110236D02*
D03*
X158465Y100394D02*
D03*
Y110236D02*
D03*
X220866Y65945D02*
D03*
X262205D02*
D03*
X66929Y68898D02*
D03*
X67913Y155512D02*
D03*
X113189Y184449D02*
D03*
Y176575D02*
D03*
X111811Y97835D02*
D03*
Y89961D02*
D03*
X206693Y265748D02*
D03*
X272638Y266732D02*
D03*
X243701Y136811D02*
D03*
X260433Y140748D02*
D03*
X162106Y242618D02*
D03*
X212598Y216535D02*
D03*
X193898Y37402D02*
D03*
X199803D02*
D03*
X199803Y239173D02*
D03*
X178150Y209646D02*
D03*
Y278543D02*
D03*
X149606Y234252D02*
D03*
X205709Y210630D02*
D03*
X139764Y272244D02*
D03*
X137795Y262402D02*
D03*
X102362Y274213D02*
D03*
X111221Y278150D02*
D03*
Y237795D02*
D03*
X139764Y231890D02*
D03*
X102362Y233858D02*
D03*
X158465Y312402D02*
D03*
X150591D02*
D03*
M02*
