%FSLAX25Y25*%
%MOIN*%
G70*
G01*
G75*
G04 Layer_Color=2752767*
%ADD10O,0.07874X0.01201*%
%ADD11R,0.05512X0.04724*%
%ADD12R,0.04724X0.05512*%
%ADD13O,0.08661X0.02362*%
%ADD14O,0.07087X0.01772*%
%ADD15R,0.08661X0.07874*%
%ADD16R,0.07874X0.08661*%
%ADD17O,0.09843X0.02756*%
%ADD18O,0.02756X0.09843*%
%ADD19O,0.02362X0.08661*%
%ADD20R,0.06693X0.04331*%
%ADD21R,0.09449X0.10236*%
%ADD22R,0.10236X0.04331*%
%ADD23C,0.01575*%
%ADD24C,0.00787*%
%ADD25C,0.04724*%
%ADD26C,0.02362*%
%ADD27C,0.02756*%
%ADD28C,0.03937*%
%ADD29R,0.05906X0.05906*%
%ADD30C,0.05906*%
%ADD31R,0.27559X0.27559*%
%ADD32R,0.05906X0.05906*%
%ADD33C,0.06654*%
%ADD34R,0.06654X0.06654*%
%ADD35C,0.18740*%
%ADD36C,0.03583*%
%ADD37C,0.05906*%
%ADD38C,0.00984*%
%ADD39C,0.00800*%
%ADD40C,0.01181*%
%ADD41C,0.00591*%
%ADD42O,0.08677X0.02004*%
%ADD43R,0.06315X0.05528*%
%ADD44R,0.05528X0.06315*%
%ADD45O,0.09465X0.03165*%
%ADD46O,0.07890X0.02575*%
%ADD47R,0.09465X0.08677*%
%ADD48R,0.08677X0.09465*%
%ADD49O,0.10646X0.03559*%
%ADD50O,0.03559X0.10646*%
%ADD51O,0.03165X0.09465*%
%ADD52R,0.07496X0.05134*%
%ADD53R,0.10252X0.11039*%
%ADD54R,0.11039X0.05134*%
%ADD55R,0.06709X0.06709*%
%ADD56C,0.06709*%
%ADD57R,0.28362X0.28362*%
%ADD58R,0.06709X0.06709*%
%ADD59C,0.07457*%
%ADD60R,0.07457X0.07457*%
%ADD61C,0.19543*%
%ADD62C,0.04386*%
%ADD63C,0.01000*%
%ADD64C,0.00500*%
%ADD65C,0.00667*%
D64*
X298197Y269654D02*
Y273654D01*
X302197D01*
Y269654D01*
X298197D01*
X308197D02*
Y273654D01*
X312197D01*
Y269654D01*
X308197D01*
X298197Y259654D02*
Y263654D01*
X302197D01*
Y259654D01*
X298197D01*
X308197D02*
Y263654D01*
X312197D01*
Y259654D01*
X308197D01*
X298197Y249654D02*
Y253654D01*
X302197D01*
Y249654D01*
X298197D01*
X308197D02*
Y253654D01*
X312197D01*
Y249654D01*
X308197D01*
X298197Y239654D02*
Y243654D01*
X302197D01*
Y239654D01*
X298197D01*
X308197D02*
Y243654D01*
X312197D01*
Y239654D01*
X308197D01*
X298197Y229654D02*
Y233654D01*
X302197D01*
Y229654D01*
X298197D01*
X308197D02*
Y233654D01*
X312197D01*
Y229654D01*
X308197D01*
X298197Y219654D02*
Y223654D01*
X302197D01*
Y219654D01*
X298197D01*
X308197D02*
Y223654D01*
X312197D01*
Y219654D01*
X308197D01*
X298197Y209654D02*
Y213654D01*
X302197D01*
Y209654D01*
X298197D01*
X308197D02*
Y213654D01*
X312197D01*
Y209654D01*
X308197D01*
X298197Y199654D02*
Y203654D01*
X302197D01*
Y199654D01*
X298197D01*
X308197D02*
Y203654D01*
X312197D01*
Y199654D01*
X308197D01*
X298197Y189654D02*
Y193654D01*
X302197D01*
Y189654D01*
X298197D01*
X308197D02*
Y193654D01*
X312197D01*
Y189654D01*
X308197D01*
X298197Y179654D02*
Y183654D01*
X302197D01*
Y179654D01*
X298197D01*
X308197D02*
Y183654D01*
X312197D01*
Y179654D01*
X308197D01*
X298197Y169654D02*
Y173654D01*
X302197D01*
Y169654D01*
X298197D01*
X308197D02*
Y173654D01*
X312197D01*
Y169654D01*
X308197D01*
X298197Y159654D02*
Y163654D01*
X302197D01*
Y159654D01*
X298197D01*
X308197D02*
Y163654D01*
X312197D01*
Y159654D01*
X308197D01*
X298197Y149654D02*
Y153654D01*
X302197D01*
Y149654D01*
X298197D01*
X308197D02*
Y153654D01*
X312197D01*
Y149654D01*
X308197D01*
X217331Y193866D02*
Y197866D01*
X221331D01*
Y193866D01*
X217331D01*
X227331D02*
Y197866D01*
X231331D01*
Y193866D01*
X227331D01*
X59024Y263748D02*
Y267748D01*
X63024D01*
Y263748D01*
X59024D01*
Y273748D02*
Y277748D01*
X63024D01*
Y273748D01*
X59024D01*
X79693Y263591D02*
Y267591D01*
X83693D01*
Y263591D01*
X79693D01*
Y273591D02*
Y277591D01*
X83693D01*
Y273591D01*
X79693D01*
X267331Y299181D02*
Y303181D01*
X271331D01*
Y299181D01*
X267331D01*
X257331D02*
Y303181D01*
X261331D01*
Y299181D01*
X257331D01*
X247331D02*
Y303181D01*
X251331D01*
Y299181D01*
X247331D01*
X237331D02*
Y303181D01*
X241331D01*
Y299181D01*
X237331D01*
X227331D02*
Y303181D01*
X231331D01*
Y299181D01*
X227331D01*
X38071Y259968D02*
X36071Y263968D01*
X40071D01*
X38071Y259968D01*
X26890Y254516D02*
X24890Y258516D01*
X28890D01*
X26890Y254516D01*
X38071Y249063D02*
X36071Y253063D01*
X40071D01*
X38071Y249063D01*
X26890Y243610D02*
X24890Y247610D01*
X28890D01*
X26890Y243610D01*
X38071Y238158D02*
X36071Y242158D01*
X40071D01*
X38071Y238158D01*
X26890Y232705D02*
X24890Y236705D01*
X28890D01*
X26890Y232705D01*
X38071Y227252D02*
X36071Y231252D01*
X40071D01*
X38071Y227252D01*
X26890Y221799D02*
X24890Y225799D01*
X28890D01*
X26890Y221799D01*
X38071Y216347D02*
X36071Y220346D01*
X40071D01*
X38071Y216347D01*
X32480Y188965D02*
X33480Y189965D01*
X34480D01*
X33480Y190965D01*
X34480Y191965D01*
X33480D01*
X32480Y192965D01*
X31480Y191965D01*
X30480D01*
X31480Y190965D01*
X30480Y189965D01*
X31480D01*
X32480Y188965D01*
Y287350D02*
X33480Y288350D01*
X34480D01*
X33480Y289350D01*
X34480Y290350D01*
X33480D01*
X32480Y291350D01*
X31480Y290350D01*
X30480D01*
X31480Y289350D01*
X30480Y288350D01*
X31480D01*
X32480Y287350D01*
Y141681D02*
X33480Y142681D01*
X34480D01*
X33480Y143681D01*
X34480Y144681D01*
X33480D01*
X32480Y145681D01*
X31480Y144681D01*
X30480D01*
X31480Y143681D01*
X30480Y142681D01*
X31480D01*
X32480Y141681D01*
Y43295D02*
X33480Y44295D01*
X34480D01*
X33480Y45295D01*
X34480Y46295D01*
X33480D01*
X32480Y47295D01*
X31480Y46295D01*
X30480D01*
X31480Y45295D01*
X30480Y44295D01*
X31480D01*
X32480Y43295D01*
X38071Y70677D02*
X36071Y74677D01*
X40071D01*
X38071Y70677D01*
X26890Y76130D02*
X24890Y80130D01*
X28890D01*
X26890Y76130D01*
X38071Y81583D02*
X36071Y85583D01*
X40071D01*
X38071Y81583D01*
X26890Y87035D02*
X24890Y91035D01*
X28890D01*
X26890Y87035D01*
X38071Y92488D02*
X36071Y96488D01*
X40071D01*
X38071Y92488D01*
X26890Y97941D02*
X24890Y101941D01*
X28890D01*
X26890Y97941D01*
X38071Y103394D02*
X36071Y107394D01*
X40071D01*
X38071Y103394D01*
X26890Y108846D02*
X24890Y112847D01*
X28890D01*
X26890Y108846D01*
X38071Y114299D02*
X36071Y118299D01*
X40071D01*
X38071Y114299D01*
X239142Y180087D02*
X240142Y182087D01*
X239142Y184087D01*
X241142Y183087D01*
X243142Y184087D01*
X242142Y182087D01*
X243142Y180087D01*
X241142Y181087D01*
X239142Y180087D01*
X236189Y238158D02*
X237189Y240158D01*
X236189Y242158D01*
X238189Y241158D01*
X240189Y242158D01*
X239189Y240158D01*
X240189Y238158D01*
X238189Y239158D01*
X236189Y238158D01*
Y244063D02*
X237189Y246063D01*
X236189Y248063D01*
X238189Y247063D01*
X240189Y248063D01*
X239189Y246063D01*
X240189Y244063D01*
X238189Y245063D01*
X236189Y244063D01*
X89535Y61976D02*
X90535Y63976D01*
X89535Y65976D01*
X91535Y64976D01*
X93535Y65976D01*
X92535Y63976D01*
X93535Y61976D01*
X91535Y62976D01*
X89535Y61976D01*
X110205Y58039D02*
X111205Y60039D01*
X110205Y62039D01*
X112205Y61039D01*
X114205Y62039D01*
X113205Y60039D01*
X114205Y58039D01*
X112205Y59039D01*
X110205Y58039D01*
X90520Y147606D02*
X91520Y149606D01*
X90520Y151606D01*
X92520Y150606D01*
X94520Y151606D01*
X93520Y149606D01*
X94520Y147606D01*
X92520Y148606D01*
X90520Y147606D01*
X111189Y144653D02*
X112189Y146653D01*
X111189Y148653D01*
X113189Y147653D01*
X115189Y148653D01*
X114189Y146653D01*
X115189Y144653D01*
X113189Y145653D01*
X111189Y144653D01*
X136780Y219457D02*
X137780Y221457D01*
X136780Y223457D01*
X138780Y222457D01*
X140780Y223457D01*
X139780Y221457D01*
X140780Y219457D01*
X138780Y220457D01*
X136780Y219457D01*
X67882Y241110D02*
X68882Y243110D01*
X67882Y245110D01*
X69882Y244110D01*
X71882Y245110D01*
X70882Y243110D01*
X71882Y241110D01*
X69882Y242110D01*
X67882Y241110D01*
X246031Y252921D02*
X247031Y254921D01*
X246031Y256921D01*
X248031Y255921D01*
X250031Y256921D01*
X249031Y254921D01*
X250031Y252921D01*
X248031Y253921D01*
X246031Y252921D01*
X49181Y248000D02*
X50181Y250000D01*
X49181Y252000D01*
X51181Y251000D01*
X53181Y252000D01*
X52181Y250000D01*
X53181Y248000D01*
X51181Y249000D01*
X49181Y248000D01*
X216504Y148591D02*
X217504Y150591D01*
X216504Y152591D01*
X218504Y151591D01*
X220504Y152591D01*
X219504Y150591D01*
X220504Y148591D01*
X218504Y149591D01*
X216504Y148591D01*
X87567Y232252D02*
X88567Y234252D01*
X87567Y236252D01*
X89567Y235252D01*
X91567Y236252D01*
X90567Y234252D01*
X91567Y232252D01*
X89567Y233252D01*
X87567Y232252D01*
X280480Y130874D02*
X281480Y132874D01*
X280480Y134874D01*
X282480Y133874D01*
X284480Y134874D01*
X283480Y132874D01*
X284480Y130874D01*
X282480Y131874D01*
X280480Y130874D01*
X266701Y143669D02*
X267701Y145669D01*
X266701Y147669D01*
X268701Y146669D01*
X270701Y147669D01*
X269701Y145669D01*
X270701Y143669D01*
X268701Y144669D01*
X266701Y143669D01*
X280480Y137764D02*
X281480Y139764D01*
X280480Y141764D01*
X282480Y140764D01*
X284480Y141764D01*
X283480Y139764D01*
X284480Y137764D01*
X282480Y138764D01*
X280480Y137764D01*
X247016Y192882D02*
X248016Y194882D01*
X247016Y196882D01*
X249016Y195882D01*
X251016Y196882D01*
X250016Y194882D01*
X251016Y192882D01*
X249016Y193882D01*
X247016Y192882D01*
X279496Y284417D02*
X280496Y286417D01*
X279496Y288417D01*
X281496Y287417D01*
X283496Y288417D01*
X282496Y286417D01*
X283496Y284417D01*
X281496Y285417D01*
X279496Y284417D01*
X284417D02*
X285417Y286417D01*
X284417Y288417D01*
X286417Y287417D01*
X288417Y288417D01*
X287417Y286417D01*
X288417Y284417D01*
X286417Y285417D01*
X284417Y284417D01*
X289339D02*
X290339Y286417D01*
X289339Y288417D01*
X291339Y287417D01*
X293339Y288417D01*
X292339Y286417D01*
X293339Y284417D01*
X291339Y285417D01*
X289339Y284417D01*
X186976Y292291D02*
X187976Y294291D01*
X186976Y296291D01*
X188976Y295291D01*
X190976Y296291D01*
X189976Y294291D01*
X190976Y292291D01*
X188976Y293291D01*
X186976Y292291D01*
X276543Y251937D02*
X277543Y253937D01*
X276543Y255937D01*
X278543Y254937D01*
X280543Y255937D01*
X279543Y253937D01*
X280543Y251937D01*
X278543Y252937D01*
X276543Y251937D01*
X242094Y119063D02*
X243094Y121063D01*
X242094Y123063D01*
X244094Y122063D01*
X246094Y123063D01*
X245094Y121063D01*
X246094Y119063D01*
X244094Y120063D01*
X242094Y119063D01*
X229299D02*
X230299Y121063D01*
X229299Y123063D01*
X231299Y122063D01*
X233299Y123063D01*
X232299Y121063D01*
X233299Y119063D01*
X231299Y120063D01*
X229299Y119063D01*
X87567Y239142D02*
X88567Y241142D01*
X87567Y243142D01*
X89567Y242142D01*
X91567Y243142D01*
X90567Y241142D01*
X91567Y239142D01*
X89567Y240142D01*
X87567Y239142D01*
X100362Y245047D02*
X101362Y247047D01*
X100362Y249047D01*
X102362Y248047D01*
X104362Y249047D01*
X103362Y247047D01*
X104362Y245047D01*
X102362Y246047D01*
X100362Y245047D01*
X61976Y222410D02*
X62976Y224410D01*
X61976Y226410D01*
X63976Y225410D01*
X65976Y226410D01*
X64976Y224410D01*
X65976Y222410D01*
X63976Y223410D01*
X61976Y222410D01*
X79693D02*
X80693Y224410D01*
X79693Y226410D01*
X81693Y225410D01*
X83693Y226410D01*
X82693Y224410D01*
X83693Y222410D01*
X81693Y223410D01*
X79693Y222410D01*
X279496Y174181D02*
X280496Y176181D01*
X279496Y178181D01*
X281496Y177181D01*
X283496Y178181D01*
X282496Y176181D01*
X283496Y174181D01*
X281496Y175181D01*
X279496Y174181D01*
X273591Y162370D02*
X274591Y164370D01*
X273591Y166370D01*
X275591Y165370D01*
X277591Y166370D01*
X276591Y164370D01*
X277591Y162370D01*
X275591Y163370D01*
X273591Y162370D01*
X264732Y169260D02*
X265732Y171260D01*
X264732Y173260D01*
X266732Y172260D01*
X268732Y173260D01*
X267732Y171260D01*
X268732Y169260D01*
X266732Y170260D01*
X264732Y169260D01*
X247016Y170244D02*
X248016Y172244D01*
X247016Y174244D01*
X249016Y173244D01*
X251016Y174244D01*
X250016Y172244D01*
X251016Y170244D01*
X249016Y171244D01*
X247016Y170244D01*
X264732Y192882D02*
X265732Y194882D01*
X264732Y196882D01*
X266732Y195882D01*
X268732Y196882D01*
X267732Y194882D01*
X268732Y192882D01*
X266732Y193882D01*
X264732Y192882D01*
X186976Y310008D02*
X187976Y312008D01*
X186976Y314008D01*
X188976Y313008D01*
X190976Y314008D01*
X189976Y312008D01*
X190976Y310008D01*
X188976Y311008D01*
X186976Y310008D01*
X194851D02*
X195851Y312008D01*
X194851Y314008D01*
X196851Y313008D01*
X198851Y314008D01*
X197851Y312008D01*
X198851Y310008D01*
X196851Y311008D01*
X194851Y310008D01*
X148591Y292291D02*
X149591Y294291D01*
X148591Y296291D01*
X150591Y295291D01*
X152591Y296291D01*
X151591Y294291D01*
X152591Y292291D01*
X150591Y293291D01*
X148591Y292291D01*
X70835Y79693D02*
X71835Y81693D01*
X70835Y83693D01*
X72835Y82693D01*
X74835Y83693D01*
X73835Y81693D01*
X74835Y79693D01*
X72835Y80693D01*
X70835Y79693D01*
X71819Y166307D02*
X72819Y168307D01*
X71819Y170307D01*
X73819Y169307D01*
X75819Y170307D01*
X74819Y168307D01*
X75819Y166307D01*
X73819Y167307D01*
X71819Y166307D01*
X271622Y41307D02*
X272622Y43307D01*
X271622Y45307D01*
X273622Y44307D01*
X275622Y45307D01*
X274622Y43307D01*
X275622Y41307D01*
X273622Y42307D01*
X271622Y41307D01*
X142685Y28512D02*
X143685Y30512D01*
X142685Y32512D01*
X144685Y31512D01*
X146685Y32512D01*
X145685Y30512D01*
X146685Y28512D01*
X144685Y29512D01*
X142685Y28512D01*
X155480Y60992D02*
X156480Y62992D01*
X155480Y64992D01*
X157480Y63992D01*
X159480Y64992D01*
X158480Y62992D01*
X159480Y60992D01*
X157480Y61992D01*
X155480Y60992D01*
X128906Y116110D02*
X129906Y118110D01*
X128906Y120110D01*
X130906Y119110D01*
X132906Y120110D01*
X131906Y118110D01*
X132906Y116110D01*
X130906Y117110D01*
X128906Y116110D01*
Y145638D02*
X129906Y147638D01*
X128906Y149638D01*
X130906Y148638D01*
X132906Y149638D01*
X131906Y147638D01*
X132906Y145638D01*
X130906Y146638D01*
X128906Y145638D01*
X109221Y288354D02*
X110221Y290354D01*
X109221Y292354D01*
X111221Y291354D01*
X113221Y292354D01*
X112221Y290354D01*
X113221Y288354D01*
X111221Y289354D01*
X109221Y288354D01*
X79693Y313945D02*
X80693Y315945D01*
X79693Y317945D01*
X81693Y316945D01*
X83693Y317945D01*
X82693Y315945D01*
X83693Y313945D01*
X81693Y314945D01*
X79693Y313945D01*
X109221D02*
X110221Y315945D01*
X109221Y317945D01*
X111221Y316945D01*
X113221Y317945D01*
X112221Y315945D01*
X113221Y313945D01*
X111221Y314945D01*
X109221Y313945D01*
X117095Y292291D02*
X118095Y294291D01*
X117095Y296291D01*
X119095Y295291D01*
X121095Y296291D01*
X120095Y294291D01*
X121095Y292291D01*
X119095Y293291D01*
X117095Y292291D01*
X65913D02*
X66913Y294291D01*
X65913Y296291D01*
X67913Y295291D01*
X69913Y296291D01*
X68913Y294291D01*
X69913Y292291D01*
X67913Y293291D01*
X65913Y292291D01*
X73787Y313945D02*
X74787Y315945D01*
X73787Y317945D01*
X75788Y316945D01*
X77788Y317945D01*
X76788Y315945D01*
X77788Y313945D01*
X75788Y314945D01*
X73787Y313945D01*
X65913Y310008D02*
X66913Y312008D01*
X65913Y314008D01*
X67913Y313008D01*
X69913Y314008D01*
X68913Y312008D01*
X69913Y310008D01*
X67913Y311008D01*
X65913Y310008D01*
X117095D02*
X118095Y312008D01*
X117095Y314008D01*
X119095Y313008D01*
X121095Y314008D01*
X120095Y312008D01*
X121095Y310008D01*
X119095Y311008D01*
X117095Y310008D01*
X103315Y313945D02*
X104315Y315945D01*
X103315Y317945D01*
X105315Y316945D01*
X107315Y317945D01*
X106315Y315945D01*
X107315Y313945D01*
X105315Y314945D01*
X103315Y313945D01*
X237173Y223394D02*
X238173Y225394D01*
X237173Y227394D01*
X239173Y226394D01*
X241173Y227394D01*
X240173Y225394D01*
X241173Y223394D01*
X239173Y224394D01*
X237173Y223394D01*
X255874Y234221D02*
X256874Y236221D01*
X255874Y238221D01*
X257874Y237221D01*
X259874Y238221D01*
X258874Y236221D01*
X259874Y234221D01*
X257874Y235221D01*
X255874Y234221D01*
X262764Y264732D02*
X263764Y266732D01*
X262764Y268732D01*
X264764Y267732D01*
X266764Y268732D01*
X265764Y266732D01*
X266764Y264732D01*
X264764Y265732D01*
X262764Y264732D01*
X231268Y269654D02*
X232268Y271654D01*
X231268Y273654D01*
X233268Y272654D01*
X235268Y273654D01*
X234268Y271654D01*
X235268Y269654D01*
X233268Y270654D01*
X231268Y269654D01*
X223394D02*
X224394Y271654D01*
X223394Y273654D01*
X225394Y272654D01*
X227394Y273654D01*
X226394Y271654D01*
X227394Y269654D01*
X225394Y270654D01*
X223394Y269654D01*
X212567Y263748D02*
X213567Y265748D01*
X212567Y267748D01*
X214567Y266748D01*
X216567Y267748D01*
X215567Y265748D01*
X216567Y263748D01*
X214567Y264748D01*
X212567Y263748D01*
X222410Y109221D02*
X223410Y111221D01*
X222410Y113221D01*
X224410Y112221D01*
X226410Y113221D01*
X225410Y111221D01*
X226410Y109221D01*
X224410Y110221D01*
X222410Y109221D01*
X249181D02*
X250181Y111221D01*
X249181Y113221D01*
X251181Y112221D01*
X253181Y113221D01*
X252181Y111221D01*
X253181Y109221D01*
X251181Y110221D01*
X249181Y109221D01*
Y152528D02*
X250181Y154528D01*
X249181Y156528D01*
X251181Y155528D01*
X253181Y156528D01*
X252181Y154528D01*
X253181Y152528D01*
X251181Y153528D01*
X249181Y152528D01*
X237173Y125953D02*
X238173Y127953D01*
X237173Y129953D01*
X239173Y128953D01*
X241173Y129953D01*
X240173Y127953D01*
X241173Y125953D01*
X239173Y126953D01*
X237173Y125953D01*
X233236Y128906D02*
X234236Y130906D01*
X233236Y132906D01*
X235236Y131906D01*
X237236Y132906D01*
X236236Y130906D01*
X237236Y128906D01*
X235236Y129906D01*
X233236Y128906D01*
X230283Y132843D02*
X231283Y134843D01*
X230283Y136843D01*
X232283Y135843D01*
X234283Y136843D01*
X233283Y134843D01*
X234283Y132843D01*
X232283Y133843D01*
X230283Y132843D01*
X122016Y145638D02*
X123016Y147638D01*
X122016Y149638D01*
X124016Y148638D01*
X126016Y149638D01*
X125016Y147638D01*
X126016Y145638D01*
X124016Y146638D01*
X122016Y145638D01*
X138748Y46228D02*
X139748Y48228D01*
X138748Y50228D01*
X140748Y49228D01*
X142748Y50228D01*
X141748Y48228D01*
X142748Y46228D01*
X140748Y47228D01*
X138748Y46228D01*
Y41307D02*
X139748Y43307D01*
X138748Y45307D01*
X140748Y44307D01*
X142748Y45307D01*
X141748Y43307D01*
X142748Y41307D01*
X140748Y42307D01*
X138748Y41307D01*
X176150Y42291D02*
X177150Y44291D01*
X176150Y46291D01*
X178150Y45291D01*
X180150Y46291D01*
X179150Y44291D01*
X180150Y42291D01*
X178150Y43291D01*
X176150Y42291D01*
Y36386D02*
X177150Y38386D01*
X176150Y40386D01*
X178150Y39386D01*
X180150Y40386D01*
X179150Y38386D01*
X180150Y36386D01*
X178150Y37386D01*
X176150Y36386D01*
X161386Y28512D02*
X162386Y30512D01*
X161386Y32512D01*
X163386Y31512D01*
X165386Y32512D01*
X164386Y30512D01*
X165386Y28512D01*
X163386Y29512D01*
X161386Y28512D01*
X173197Y60992D02*
X174197Y62992D01*
X173197Y64992D01*
X175197Y63992D01*
X177197Y64992D01*
X176197Y62992D01*
X177197Y60992D01*
X175197Y61992D01*
X173197Y60992D01*
X104299Y45244D02*
X105299Y47244D01*
X104299Y49244D01*
X106299Y48244D01*
X108299Y49244D01*
X107299Y47244D01*
X108299Y45244D01*
X106299Y46244D01*
X104299Y45244D01*
X105283Y131858D02*
X106283Y133858D01*
X105283Y135858D01*
X107283Y134858D01*
X109283Y135858D01*
X108283Y133858D01*
X109283Y131858D01*
X107283Y132858D01*
X105283Y131858D01*
X123000Y81661D02*
X124000Y83662D01*
X123000Y85662D01*
X125000Y84662D01*
X127000Y85662D01*
X126000Y83662D01*
X127000Y81661D01*
X125000Y82661D01*
X123000Y81661D01*
X122016Y119063D02*
X123016Y121063D01*
X122016Y123063D01*
X124016Y122063D01*
X126016Y123063D01*
X125016Y121063D01*
X126016Y119063D01*
X124016Y120063D01*
X122016Y119063D01*
X114142D02*
X115142Y121063D01*
X114142Y123063D01*
X116142Y122063D01*
X118142Y123063D01*
X117142Y121063D01*
X118142Y119063D01*
X116142Y120063D01*
X114142Y119063D01*
X112173Y81661D02*
X113173Y83662D01*
X112173Y85662D01*
X114173Y84662D01*
X116173Y85662D01*
X115173Y83662D01*
X116173Y81661D01*
X114173Y82661D01*
X112173Y81661D01*
X271622Y66898D02*
X272622Y68898D01*
X271622Y70898D01*
X273622Y69898D01*
X275622Y70898D01*
X274622Y68898D01*
X275622Y66898D01*
X273622Y67898D01*
X271622Y66898D01*
X249969Y63945D02*
X250969Y65945D01*
X249969Y67945D01*
X251969Y66945D01*
X253969Y67945D01*
X252969Y65945D01*
X253969Y63945D01*
X251969Y64945D01*
X249969Y63945D01*
X128905Y171228D02*
X129905Y173228D01*
X128905Y175228D01*
X130905Y174228D01*
X132905Y175228D01*
X131905Y173228D01*
X132905Y171228D01*
X130905Y172228D01*
X128905Y171228D01*
X211583Y153512D02*
X212583Y155512D01*
X211583Y157512D01*
X213583Y156512D01*
X215583Y157512D01*
X214583Y155512D01*
X215583Y153512D01*
X213583Y154512D01*
X211583Y153512D01*
X232252Y161386D02*
X233252Y163386D01*
X232252Y165386D01*
X234252Y164386D01*
X236252Y165386D01*
X235252Y163386D01*
X236252Y161386D01*
X234252Y162386D01*
X232252Y161386D01*
Y100362D02*
X233252Y102362D01*
X232252Y104362D01*
X234252Y103362D01*
X236252Y104362D01*
X235252Y102362D01*
X236252Y100362D01*
X234252Y101362D01*
X232252Y100362D01*
X211583Y108236D02*
X212583Y110236D01*
X211583Y112236D01*
X213583Y111236D01*
X215583Y112236D01*
X214583Y110236D01*
X215583Y108236D01*
X213583Y109236D01*
X211583Y108236D01*
X128905Y90520D02*
X129905Y92520D01*
X128905Y94520D01*
X130905Y93520D01*
X132905Y94520D01*
X131905Y92520D01*
X132905Y90520D01*
X130905Y91520D01*
X128905Y90520D01*
X157449Y182055D02*
X158449Y184055D01*
X157449Y186055D01*
X159449Y185055D01*
X161449Y186055D01*
X160449Y184055D01*
X161449Y182055D01*
X159449Y183055D01*
X157449Y182055D01*
Y134811D02*
X158449Y136811D01*
X157449Y138811D01*
X159449Y137811D01*
X161449Y138811D01*
X160449Y136811D01*
X161449Y134811D01*
X159449Y135811D01*
X157449Y134811D01*
X143079Y161976D02*
X144079Y163976D01*
X143079Y165976D01*
X145079Y164976D01*
X147079Y165976D01*
X146079Y163976D01*
X147079Y161976D01*
X145079Y162976D01*
X143079Y161976D01*
X205283Y154890D02*
X206283Y156890D01*
X205283Y158890D01*
X207283Y157890D01*
X209283Y158890D01*
X208283Y156890D01*
X209283Y154890D01*
X207283Y155890D01*
X205283Y154890D01*
X156465Y153512D02*
X157465Y155512D01*
X156465Y157512D01*
X158465Y156512D01*
X160465Y157512D01*
X159465Y155512D01*
X160465Y153512D01*
X158465Y154512D01*
X156465Y153512D01*
Y163354D02*
X157465Y165354D01*
X156465Y167354D01*
X158465Y166354D01*
X160465Y167354D01*
X159465Y165354D01*
X160465Y163354D01*
X158465Y164354D01*
X156465Y163354D01*
X191898Y153512D02*
X192898Y155512D01*
X191898Y157512D01*
X193898Y156512D01*
X195898Y157512D01*
X194898Y155512D01*
X195898Y153512D01*
X193898Y154512D01*
X191898Y153512D01*
Y163354D02*
X192898Y165354D01*
X191898Y167354D01*
X193898Y166354D01*
X195898Y167354D01*
X194898Y165354D01*
X195898Y163354D01*
X193898Y164354D01*
X191898Y163354D01*
X229299Y142685D02*
X230299Y144685D01*
X229299Y146685D01*
X231299Y145685D01*
X233299Y146685D01*
X232299Y144685D01*
X233299Y142685D01*
X231299Y143685D01*
X229299Y142685D01*
X205283Y106858D02*
X206283Y108858D01*
X205283Y110858D01*
X207283Y109858D01*
X209283Y110858D01*
X208283Y108858D01*
X209283Y106858D01*
X207283Y107858D01*
X205283Y106858D01*
X205087Y127331D02*
X206087Y129331D01*
X205087Y131331D01*
X207087Y130331D01*
X209087Y131331D01*
X208087Y129331D01*
X209087Y127331D01*
X207087Y128331D01*
X205087Y127331D01*
Y134417D02*
X206087Y136417D01*
X205087Y138417D01*
X207087Y137417D01*
X209087Y138417D01*
X208087Y136417D01*
X209087Y134417D01*
X207087Y135417D01*
X205087Y134417D01*
X157449Y79693D02*
X158449Y81693D01*
X157449Y83693D01*
X159449Y82693D01*
X161449Y83693D01*
X160449Y81693D01*
X161449Y79693D01*
X159449Y80693D01*
X157449Y79693D01*
Y126937D02*
X158449Y128937D01*
X157449Y130937D01*
X159449Y129937D01*
X161449Y130937D01*
X160449Y128937D01*
X161449Y126937D01*
X159449Y127937D01*
X157449Y126937D01*
X143079Y99772D02*
X144079Y101772D01*
X143079Y103772D01*
X145079Y102772D01*
X147079Y103772D01*
X146079Y101772D01*
X147079Y99772D01*
X145079Y100772D01*
X143079Y99772D01*
X191898Y98394D02*
X192898Y100394D01*
X191898Y102394D01*
X193898Y101394D01*
X195898Y102394D01*
X194898Y100394D01*
X195898Y98394D01*
X193898Y99394D01*
X191898Y98394D01*
Y108236D02*
X192898Y110236D01*
X191898Y112236D01*
X193898Y111236D01*
X195898Y112236D01*
X194898Y110236D01*
X195898Y108236D01*
X193898Y109236D01*
X191898Y108236D01*
X156465Y98394D02*
X157465Y100394D01*
X156465Y102394D01*
X158465Y101394D01*
X160465Y102394D01*
X159465Y100394D01*
X160465Y98394D01*
X158465Y99394D01*
X156465Y98394D01*
Y108236D02*
X157465Y110236D01*
X156465Y112236D01*
X158465Y111236D01*
X160465Y112236D01*
X159465Y110236D01*
X160465Y108236D01*
X158465Y109236D01*
X156465Y108236D01*
X218866Y63945D02*
X219866Y65945D01*
X218866Y67945D01*
X220866Y66945D01*
X222866Y67945D01*
X221866Y65945D01*
X222866Y63945D01*
X220866Y64945D01*
X218866Y63945D01*
X260205D02*
X261205Y65945D01*
X260205Y67945D01*
X262205Y66945D01*
X264205Y67945D01*
X263205Y65945D01*
X264205Y63945D01*
X262205Y64945D01*
X260205Y63945D01*
X64929Y66898D02*
X65929Y68898D01*
X64929Y70898D01*
X66929Y69898D01*
X68929Y70898D01*
X67929Y68898D01*
X68929Y66898D01*
X66929Y67898D01*
X64929Y66898D01*
X65913Y153512D02*
X66913Y155512D01*
X65913Y157512D01*
X67913Y156512D01*
X69913Y157512D01*
X68913Y155512D01*
X69913Y153512D01*
X67913Y154512D01*
X65913Y153512D01*
X111189Y182449D02*
X112189Y184449D01*
X111189Y186449D01*
X113189Y185449D01*
X115189Y186449D01*
X114189Y184449D01*
X115189Y182449D01*
X113189Y183449D01*
X111189Y182449D01*
Y174575D02*
X112189Y176575D01*
X111189Y178575D01*
X113189Y177575D01*
X115189Y178575D01*
X114189Y176575D01*
X115189Y174575D01*
X113189Y175575D01*
X111189Y174575D01*
X109811Y95835D02*
X110811Y97835D01*
X109811Y99835D01*
X111811Y98835D01*
X113811Y99835D01*
X112811Y97835D01*
X113811Y95835D01*
X111811Y96835D01*
X109811Y95835D01*
Y87961D02*
X110811Y89961D01*
X109811Y91961D01*
X111811Y90961D01*
X113811Y91961D01*
X112811Y89961D01*
X113811Y87961D01*
X111811Y88961D01*
X109811Y87961D01*
X204693Y263748D02*
X205693Y265748D01*
X204693Y267748D01*
X206693Y266748D01*
X208693Y267748D01*
X207693Y265748D01*
X208693Y263748D01*
X206693Y264748D01*
X204693Y263748D01*
X270638Y264732D02*
X271638Y266732D01*
X270638Y268732D01*
X272638Y267732D01*
X274638Y268732D01*
X273638Y266732D01*
X274638Y264732D01*
X272638Y265732D01*
X270638Y264732D01*
X241701Y134811D02*
X242701Y136811D01*
X241701Y138811D01*
X243701Y137811D01*
X245701Y138811D01*
X244701Y136811D01*
X245701Y134811D01*
X243701Y135811D01*
X241701Y134811D01*
X258433Y138748D02*
X259433Y140748D01*
X258433Y142748D01*
X260433Y141748D01*
X262433Y142748D01*
X261433Y140748D01*
X262433Y138748D01*
X260433Y139748D01*
X258433Y138748D01*
X160106Y240618D02*
X161106Y242618D01*
X160106Y244618D01*
X162106Y243618D01*
X164106Y244618D01*
X163106Y242618D01*
X164106Y240618D01*
X162106Y241618D01*
X160106Y240618D01*
X210598Y214535D02*
X211598Y216535D01*
X210598Y218535D01*
X212598Y217535D01*
X214598Y218535D01*
X213598Y216535D01*
X214598Y214535D01*
X212598Y215535D01*
X210598Y214535D01*
X242094Y142685D02*
X243094Y144685D01*
X242094Y146685D01*
X244094Y145685D01*
X246094Y146685D01*
X245094Y144685D01*
X246094Y142685D01*
X244094Y143685D01*
X242094Y142685D01*
X191898Y35402D02*
X192898Y37402D01*
X191898Y39402D01*
X193898Y38402D01*
X195898Y39402D01*
X194898Y37402D01*
X195898Y35402D01*
X193898Y36402D01*
X191898Y35402D01*
X197803D02*
X198803Y37402D01*
X197803Y39402D01*
X199803Y38402D01*
X201803Y39402D01*
X200803Y37402D01*
X201803Y35402D01*
X199803Y36402D01*
X197803Y35402D01*
X197803Y237173D02*
X198803Y239173D01*
X197803Y241173D01*
X199803Y240173D01*
X201803Y241173D01*
X200803Y239173D01*
X201803Y237173D01*
X199803Y238173D01*
X197803Y237173D01*
X176150Y207646D02*
X177150Y209646D01*
X176150Y211646D01*
X178150Y210646D01*
X180150Y211646D01*
X179150Y209646D01*
X180150Y207646D01*
X178150Y208646D01*
X176150Y207646D01*
Y276543D02*
X177150Y278543D01*
X176150Y280543D01*
X178150Y279543D01*
X180150Y280543D01*
X179150Y278543D01*
X180150Y276543D01*
X178150Y277543D01*
X176150Y276543D01*
X147606Y232252D02*
X148606Y234252D01*
X147606Y236252D01*
X149606Y235252D01*
X151606Y236252D01*
X150606Y234252D01*
X151606Y232252D01*
X149606Y233252D01*
X147606Y232252D01*
X198787Y227331D02*
X199787Y229331D01*
X198787Y231331D01*
X200787Y230331D01*
X202787Y231331D01*
X201787Y229331D01*
X202787Y227331D01*
X200787Y228331D01*
X198787Y227331D01*
X203709Y208630D02*
X204709Y210630D01*
X203709Y212630D01*
X205709Y211630D01*
X207709Y212630D01*
X206709Y210630D01*
X207709Y208630D01*
X205709Y209630D01*
X203709Y208630D01*
X137764Y270244D02*
X138764Y272244D01*
X137764Y274244D01*
X139764Y273244D01*
X141764Y274244D01*
X140764Y272244D01*
X141764Y270244D01*
X139764Y271244D01*
X137764Y270244D01*
X135795Y260402D02*
X136795Y262402D01*
X135795Y264402D01*
X137795Y263402D01*
X139795Y264402D01*
X138795Y262402D01*
X139795Y260402D01*
X137795Y261402D01*
X135795Y260402D01*
X100362Y272213D02*
X101362Y274213D01*
X100362Y276213D01*
X102362Y275213D01*
X104362Y276213D01*
X103362Y274213D01*
X104362Y272213D01*
X102362Y273213D01*
X100362Y272213D01*
X109221Y276150D02*
X110221Y278150D01*
X109221Y280150D01*
X111221Y279150D01*
X113221Y280150D01*
X112221Y278150D01*
X113221Y276150D01*
X111221Y277150D01*
X109221Y276150D01*
Y235795D02*
X110221Y237795D01*
X109221Y239795D01*
X111221Y238795D01*
X113221Y239795D01*
X112221Y237795D01*
X113221Y235795D01*
X111221Y236795D01*
X109221Y235795D01*
X137764Y229890D02*
X138764Y231890D01*
X137764Y233890D01*
X139764Y232890D01*
X141764Y233890D01*
X140764Y231890D01*
X141764Y229890D01*
X139764Y230890D01*
X137764Y229890D01*
X100362Y231858D02*
X101362Y233858D01*
X100362Y235858D01*
X102362Y234858D01*
X104362Y235858D01*
X103362Y233858D01*
X104362Y231858D01*
X102362Y232858D01*
X100362Y231858D01*
X124969Y235795D02*
X125969Y237795D01*
X124969Y239795D01*
X126969Y238795D01*
X128969Y239795D01*
X127969Y237795D01*
X128969Y235795D01*
X126969Y236795D01*
X124969Y235795D01*
X117095D02*
X118095Y237795D01*
X117095Y239795D01*
X119095Y238795D01*
X121095Y239795D01*
X120095Y237795D01*
X121095Y235795D01*
X119095Y236795D01*
X117095Y235795D01*
X94457Y219063D02*
X95457Y221063D01*
X94457Y223063D01*
X96457Y222063D01*
X98457Y223063D01*
X97457Y221063D01*
X98457Y219063D01*
X96457Y220063D01*
X94457Y219063D01*
X117095Y276150D02*
X118095Y278150D01*
X117095Y280150D01*
X119095Y279150D01*
X121095Y280150D01*
X120095Y278150D01*
X121095Y276150D01*
X119095Y277150D01*
X117095Y276150D01*
X124969D02*
X125969Y278150D01*
X124969Y280150D01*
X126969Y279150D01*
X128969Y280150D01*
X127969Y278150D01*
X128969Y276150D01*
X126969Y277150D01*
X124969Y276150D01*
X94457Y259417D02*
X95457Y261417D01*
X94457Y263417D01*
X96457Y262417D01*
X98457Y263417D01*
X97457Y261417D01*
X98457Y259417D01*
X96457Y260417D01*
X94457Y259417D01*
X147606Y257843D02*
X148606Y259843D01*
X147606Y261843D01*
X149606Y260843D01*
X151606Y261843D01*
X150606Y259843D01*
X151606Y257843D01*
X149606Y258843D01*
X147606Y257843D01*
X119063Y260402D02*
X120063Y262402D01*
X119063Y264402D01*
X121063Y263402D01*
X123063Y264402D01*
X122063Y262402D01*
X123063Y260402D01*
X121063Y261402D01*
X119063Y260402D01*
Y219063D02*
X120063Y221063D01*
X119063Y223063D01*
X121063Y222063D01*
X123063Y223063D01*
X122063Y221063D01*
X123063Y219063D01*
X121063Y220063D01*
X119063Y219063D01*
X156465Y310402D02*
X157465Y312402D01*
X156465Y314402D01*
X158465Y313402D01*
X160465Y314402D01*
X159465Y312402D01*
X160465Y310402D01*
X158465Y311402D01*
X156465Y310402D01*
X148591D02*
X149591Y312402D01*
X148591Y314402D01*
X150591Y313402D01*
X152591Y314402D01*
X151591Y312402D01*
X152591Y310402D01*
X150591Y311402D01*
X148591Y310402D01*
X103315Y288354D02*
X104315Y290354D01*
X103315Y292354D01*
X105315Y291354D01*
X107315Y292354D01*
X106315Y290354D01*
X107315Y288354D01*
X105315Y289354D01*
X103315Y288354D01*
X73787D02*
X74787Y290354D01*
X73787Y292354D01*
X75788Y291354D01*
X77788Y292354D01*
X76788Y290354D01*
X77788Y288354D01*
X75788Y289354D01*
X73787Y288354D01*
X79693D02*
X80693Y290354D01*
X79693Y292354D01*
X81693Y291354D01*
X83693Y292354D01*
X82693Y290354D01*
X83693Y288354D01*
X81693Y289354D01*
X79693Y288354D01*
X194850Y292291D02*
X195850Y294291D01*
X194850Y296291D01*
X196850Y295291D01*
X198850Y296291D01*
X197850Y294291D01*
X198850Y292291D01*
X196850Y293291D01*
X194850Y292291D01*
X156465D02*
X157465Y294291D01*
X156465Y296291D01*
X158465Y295291D01*
X160465Y296291D01*
X159465Y294291D01*
X160465Y292291D01*
X158465Y293291D01*
X156465Y292291D01*
D65*
X313024Y14764D02*
G03*
X313024Y14764I-2000J0D01*
G01*
X313024Y325787D02*
G03*
X313024Y325787I-2000J0D01*
G01*
X37433D02*
G03*
X37433Y325787I-2000J0D01*
G01*
X37433Y14764D02*
G03*
X37433Y14764I-2000J0D01*
G01*
M02*
