%FSLAX25Y25*%
%MOIN*%
G70*
G01*
G75*
G04 Layer_Physical_Order=1*
G04 Layer_Color=255*
%ADD10O,0.07874X0.01201*%
%ADD11R,0.05512X0.04724*%
%ADD12R,0.04724X0.05512*%
%ADD13O,0.08661X0.02362*%
%ADD14O,0.07087X0.01772*%
%ADD15R,0.08661X0.07874*%
%ADD16R,0.07874X0.08661*%
%ADD17O,0.09843X0.02756*%
%ADD18O,0.02756X0.09843*%
%ADD19O,0.02362X0.08661*%
%ADD20R,0.06693X0.04331*%
%ADD21R,0.09449X0.10236*%
%ADD22R,0.10236X0.04331*%
%ADD23C,0.01575*%
%ADD24C,0.00787*%
%ADD25C,0.04724*%
%ADD26C,0.02362*%
%ADD27C,0.02756*%
%ADD28C,0.03937*%
%ADD29R,0.05906X0.05906*%
%ADD30C,0.05906*%
%ADD31R,0.27559X0.27559*%
%ADD32R,0.05906X0.05906*%
%ADD33C,0.06654*%
%ADD34R,0.06654X0.06654*%
%ADD35C,0.18740*%
%ADD36C,0.03583*%
G36*
X281686Y131269D02*
X280261Y131496D01*
X279625Y133071D01*
X280859Y133636D01*
X281686Y131269D01*
D02*
G37*
G36*
X234888Y129148D02*
X233644Y128757D01*
X233088Y129314D01*
X233479Y130557D01*
X234888Y129148D01*
D02*
G37*
G36*
X209770Y130118D02*
Y128543D01*
X208366Y128077D01*
Y130585D01*
X209770Y130118D01*
D02*
G37*
G36*
X232266Y133051D02*
X230566Y132569D01*
X230009Y133125D01*
X230492Y134825D01*
X232266Y133051D01*
D02*
G37*
G36*
X108537Y135138D02*
X106029Y135138D01*
X106496Y136542D01*
X108071D01*
X108537Y135138D01*
D02*
G37*
G36*
X245975Y135094D02*
X245418Y134537D01*
X243719Y135020D01*
X245492Y136793D01*
X245975Y135094D01*
D02*
G37*
G36*
X220473Y134941D02*
X218504Y133366D01*
X216535Y134941D01*
X218110Y135728D01*
X218898D01*
X220473Y134941D01*
D02*
G37*
G36*
X121260Y125394D02*
Y123031D01*
X118898Y121850D01*
X116535Y124213D01*
Y126575D01*
X118898Y128937D01*
X121260Y125394D01*
D02*
G37*
G36*
X252435Y112500D02*
X249927D01*
X250394Y113904D01*
X251969D01*
X252435Y112500D01*
D02*
G37*
G36*
X225663D02*
X223155D01*
X223622Y113904D01*
X225197D01*
X225663Y112500D01*
D02*
G37*
G36*
X192564Y109040D02*
X191178Y109528D01*
X191255Y111102D01*
X192675Y111545D01*
X192564Y109040D01*
D02*
G37*
G36*
X132159Y116831D02*
X131693Y115427D01*
X130118D01*
X129652Y116831D01*
X132159Y116831D01*
D02*
G37*
G36*
X246597Y122146D02*
X246892Y120571D01*
X245563Y120037D01*
X245150Y122511D01*
X246597Y122146D01*
D02*
G37*
G36*
X229831Y120037D02*
X228502Y120571D01*
X228797Y122146D01*
X230244Y122511D01*
X229831Y120037D01*
D02*
G37*
G36*
X114863Y119809D02*
X113458Y120276D01*
Y121851D01*
X114863Y122317D01*
Y119809D01*
D02*
G37*
G36*
X209770Y137205D02*
Y135630D01*
X208366Y135163D01*
Y137671D01*
X209770Y137205D01*
D02*
G37*
G36*
X132159Y148917D02*
X129652D01*
X130118Y150322D01*
X131693D01*
X132159Y148917D01*
D02*
G37*
G36*
X125270Y148917D02*
X122762D01*
X123228Y150322D01*
X124803D01*
X125270Y148917D01*
D02*
G37*
G36*
X221346Y150295D02*
X221006Y148721D01*
X218927Y148850D01*
X220281Y150816D01*
X221346Y150295D01*
D02*
G37*
G36*
X251969Y151844D02*
X250394D01*
X249927Y153248D01*
X252435D01*
X251969Y151844D01*
D02*
G37*
G36*
X70597Y156299D02*
Y154725D01*
X69193Y154258D01*
Y156766D01*
X70597Y156299D01*
D02*
G37*
G36*
X192675Y154203D02*
X191255Y154646D01*
X191178Y156220D01*
X192564Y156708D01*
X192675Y154203D01*
D02*
G37*
G36*
X161185Y156220D02*
X161107Y154646D01*
X159687Y154203D01*
X159798Y156708D01*
X161185Y156220D01*
D02*
G37*
G36*
X93839Y147319D02*
X92264Y146758D01*
X91702Y148013D01*
X94097Y148757D01*
X93839Y147319D01*
D02*
G37*
G36*
X123622Y143307D02*
X123622Y140945D01*
X121260Y138583D01*
X118898Y139764D01*
X118898Y144488D01*
X121260Y145669D01*
X123622Y143307D01*
D02*
G37*
G36*
X260415Y138957D02*
X258716Y138474D01*
X258159Y139031D01*
X258642Y140730D01*
X260415Y138957D01*
D02*
G37*
G36*
X281508Y138259D02*
X280059Y138583D01*
X279658Y140157D01*
X280957Y140706D01*
X281508Y138259D01*
D02*
G37*
G36*
X269094Y142847D02*
X268307Y142847D01*
X267447Y144390D01*
X269955Y144390D01*
X269094Y142847D01*
D02*
G37*
G36*
X111910Y145400D02*
X110505Y145866D01*
Y147441D01*
X111910Y147907D01*
Y145400D01*
D02*
G37*
G36*
X246892Y145177D02*
X246597Y143602D01*
X245150Y143237D01*
X245563Y145711D01*
X246892Y145177D01*
D02*
G37*
G36*
X230244Y143237D02*
X228797Y143602D01*
X228502Y145177D01*
X229831Y145711D01*
X230244Y143237D01*
D02*
G37*
G36*
X160164Y63780D02*
Y62205D01*
X158760Y61738D01*
Y64246D01*
X160164Y63780D01*
D02*
G37*
G36*
X92854Y61689D02*
X91280Y61129D01*
X90718Y62383D01*
X93112Y63127D01*
X92854Y61689D01*
D02*
G37*
G36*
X110925Y58785D02*
X109521Y59252D01*
Y60827D01*
X110925Y61293D01*
Y58785D01*
D02*
G37*
G36*
X173918Y61738D02*
X172513Y62205D01*
Y63780D01*
X173918Y64246D01*
X173918Y61738D01*
D02*
G37*
G36*
X262992Y63261D02*
X261417D01*
X260951Y64666D01*
X263459D01*
X262992Y63261D01*
D02*
G37*
G36*
X221654D02*
X220079D01*
X219612Y64666D01*
X222120D01*
X221654Y63261D01*
D02*
G37*
G36*
X252756Y63261D02*
X251181Y63261D01*
X250715Y64666D01*
X253222Y64666D01*
X252756Y63261D01*
D02*
G37*
G36*
X107553Y48523D02*
X105045D01*
X105512Y49928D01*
X107087D01*
X107553Y48523D01*
D02*
G37*
G36*
X176637Y37427D02*
X175332Y37973D01*
X175711Y39547D01*
X177160Y39879D01*
X176637Y37427D01*
D02*
G37*
G36*
X147369Y31299D02*
Y29724D01*
X145964Y29258D01*
Y31766D01*
X147369Y31299D01*
D02*
G37*
G36*
X162107Y29258D02*
X160702Y29724D01*
Y31299D01*
X162107Y31766D01*
Y29258D01*
D02*
G37*
G36*
X143115Y44547D02*
X143583Y42972D01*
X142303Y42417D01*
X141669Y44844D01*
X143115Y44547D01*
D02*
G37*
G36*
X143035Y49547D02*
X143596Y47973D01*
X142342Y47411D01*
X141598Y49806D01*
X143035Y49547D01*
D02*
G37*
G36*
X274876Y44586D02*
X272368Y44586D01*
X272835Y45991D01*
X274410D01*
X274876Y44586D01*
D02*
G37*
G36*
X177300Y42714D02*
X175863Y42972D01*
X175302Y44547D01*
X176556Y45109D01*
X177300Y42714D01*
D02*
G37*
G36*
X274410Y66214D02*
X272835D01*
X272368Y67618D01*
X274876D01*
X274410Y66214D01*
D02*
G37*
G36*
X147763Y102559D02*
Y100984D01*
X146358Y100518D01*
Y103026D01*
X147763Y102559D01*
D02*
G37*
G36*
X192675Y99085D02*
X191255Y99528D01*
X191178Y101102D01*
X192564Y101590D01*
X192675Y99085D01*
D02*
G37*
G36*
X161185Y101102D02*
X161107Y99528D01*
X159687Y99085D01*
X159798Y101590D01*
X161185Y101102D01*
D02*
G37*
G36*
X232973Y101108D02*
X231568Y101575D01*
Y103150D01*
X232973Y103616D01*
Y101108D01*
D02*
G37*
G36*
X161107Y111102D02*
X161185Y109528D01*
X159798Y109040D01*
X159687Y111545D01*
X161107Y111102D01*
D02*
G37*
G36*
X206004Y107604D02*
X204600Y108071D01*
Y109646D01*
X206004Y110112D01*
Y107604D01*
D02*
G37*
G36*
X214370Y107553D02*
X212795D01*
X212329Y108957D01*
X214837D01*
X214370Y107553D01*
D02*
G37*
G36*
X132159Y93799D02*
X129652D01*
X130118Y95204D01*
X131693D01*
X132159Y93799D01*
D02*
G37*
G36*
X129494Y79168D02*
X128380Y78054D01*
X126710Y78611D01*
Y80838D01*
X127823Y81952D01*
X130051D01*
X129494Y79168D01*
D02*
G37*
G36*
X69351Y70079D02*
X69752Y68504D01*
X68453Y67956D01*
X67902Y70402D01*
X69351Y70079D01*
D02*
G37*
G36*
X121260Y70276D02*
X118898Y66732D01*
X116535Y69095D01*
Y71457D01*
X118898Y73819D01*
X121260Y70276D01*
D02*
G37*
G36*
X74089Y80414D02*
X73622Y79009D01*
X72047Y79009D01*
X71581Y80414D01*
X74089Y80414D01*
D02*
G37*
G36*
X101310Y83268D02*
X100523Y81828D01*
X98296D01*
X97509Y83268D01*
X98622Y85956D01*
X100197D01*
X101310Y83268D01*
D02*
G37*
G36*
X127455Y82320D02*
X126341Y81207D01*
X125018Y81870D01*
X126791Y83644D01*
X127455Y82320D01*
D02*
G37*
G36*
X114961Y80978D02*
X113386D01*
X112919Y82382D01*
X115427D01*
X114961Y80978D01*
D02*
G37*
G36*
X206004Y155636D02*
X204600Y156102D01*
Y157677D01*
X206004Y158144D01*
Y155636D01*
D02*
G37*
G36*
X53731Y249174D02*
X52931Y247747D01*
X51630Y248266D01*
X52924Y250414D01*
X53731Y249174D01*
D02*
G37*
G36*
X101083Y245793D02*
X99678Y246260D01*
Y247835D01*
X101083Y248301D01*
X101083Y245793D01*
D02*
G37*
G36*
X236910Y244809D02*
X235367Y245669D01*
X235367Y246457D01*
X236910Y247317D01*
X236910Y244809D01*
D02*
G37*
G36*
X248974Y253398D02*
X248032Y252055D01*
X247244Y252237D01*
X246527Y253949D01*
X248974Y253398D01*
D02*
G37*
G36*
X98878Y262598D02*
X99279Y261024D01*
X97980Y260475D01*
X97429Y262922D01*
X98878Y262598D01*
D02*
G37*
G36*
X150394Y257159D02*
X148819D01*
X148352Y258563D01*
X150860D01*
X150394Y257159D01*
D02*
G37*
G36*
X277749Y252331D02*
X276324Y252559D01*
X275688Y254134D01*
X276922Y254699D01*
X277749Y252331D01*
D02*
G37*
G36*
X163360Y243897D02*
X160852D01*
X161319Y245302D01*
X162894D01*
X163360Y243897D01*
D02*
G37*
G36*
X257600Y237991D02*
X256099Y235982D01*
X255474Y237701D01*
X255948Y238340D01*
X257600Y237991D01*
D02*
G37*
G36*
X150860Y235531D02*
X148352D01*
X148819Y236936D01*
X150394D01*
X150860Y235531D01*
D02*
G37*
G36*
X128150Y235374D02*
X126575Y234973D01*
X126026Y236272D01*
X128473Y236823D01*
X128150Y235374D01*
D02*
G37*
G36*
X198524Y237919D02*
X197119Y238386D01*
Y239961D01*
X198524Y240427D01*
Y237919D01*
D02*
G37*
G36*
X90821Y242421D02*
X88313D01*
X88780Y243826D01*
X90354D01*
X90821Y242421D01*
D02*
G37*
G36*
X72716Y243445D02*
X72249Y241870D01*
X70803Y241574D01*
X71437Y244000D01*
X72716Y243445D01*
D02*
G37*
G36*
X236910Y238904D02*
X235367Y239764D01*
X235367Y240551D01*
X236910Y241411D01*
X236910Y238904D01*
D02*
G37*
G36*
X120008Y260954D02*
X118561Y261319D01*
X118266Y262894D01*
X119595Y263428D01*
X120008Y260954D01*
D02*
G37*
G36*
X120037Y276626D02*
X119488Y275327D01*
X117913Y275728D01*
X117590Y277177D01*
X120037Y276626D01*
D02*
G37*
G36*
X112402Y275728D02*
X110827Y275327D01*
X110278Y276626D01*
X112725Y277177D01*
X112402Y275728D01*
D02*
G37*
G36*
X103616Y272933D02*
X103150Y271529D01*
X101575D01*
X101108Y272933D01*
X103616Y272933D01*
D02*
G37*
G36*
X128150Y275728D02*
X126575Y275327D01*
X126026Y276626D01*
X128473Y277177D01*
X128150Y275728D01*
D02*
G37*
G36*
X68701Y309324D02*
X67126D01*
X66659Y310729D01*
X69167D01*
X68701Y309324D01*
D02*
G37*
G36*
X201969Y284055D02*
X197244Y279331D01*
X192520D01*
X187795Y284055D01*
X194882Y288780D01*
X201969Y284055D01*
D02*
G37*
G36*
X179404Y277264D02*
X178937Y275860D01*
X177362D01*
X176896Y277264D01*
X179404Y277264D01*
D02*
G37*
G36*
X138485Y270990D02*
X137080Y271457D01*
Y273031D01*
X138485Y273498D01*
X138485Y270990D01*
D02*
G37*
G36*
X215354Y263064D02*
X213780D01*
X213313Y264469D01*
X215821Y264469D01*
X215354Y263064D01*
D02*
G37*
G36*
X207480D02*
X205906D01*
X205439Y264469D01*
X207947Y264469D01*
X207480Y263064D01*
D02*
G37*
G36*
X136740Y260954D02*
X135293Y261319D01*
X134998Y262894D01*
X136327Y263428D01*
X136740Y260954D01*
D02*
G37*
G36*
X265551Y264049D02*
X263976D01*
X263510Y265453D01*
X266018Y265453D01*
X265551Y264049D01*
D02*
G37*
G36*
X234055Y268970D02*
X232480D01*
X232014Y270374D01*
X234522Y270374D01*
X234055Y268970D01*
D02*
G37*
G36*
X226181D02*
X224606D01*
X224140Y270374D01*
X226648Y270374D01*
X226181Y268970D01*
D02*
G37*
G36*
X273425Y264049D02*
X271850D01*
X271384Y265453D01*
X273892Y265453D01*
X273425Y264049D01*
D02*
G37*
G36*
X251838Y172638D02*
X251838Y171063D01*
X249988Y170740D01*
X250539Y173186D01*
X251838Y172638D01*
D02*
G37*
G36*
X131693Y170545D02*
X130118D01*
X129652Y171949D01*
X132159D01*
X131693Y170545D01*
D02*
G37*
G36*
X265453Y170006D02*
X264049Y170473D01*
Y172047D01*
X265453Y172514D01*
X265453Y170006D01*
D02*
G37*
G36*
X280217Y174927D02*
X278812Y175394D01*
Y176969D01*
X280217Y177435D01*
Y174927D01*
D02*
G37*
G36*
X265453Y193628D02*
X264049Y194095D01*
Y195669D01*
X265453Y196136D01*
X265453Y193628D01*
D02*
G37*
G36*
X111910Y183195D02*
X110505Y183661D01*
Y185236D01*
X111910Y185703D01*
X111910Y183195D01*
D02*
G37*
G36*
Y175321D02*
X110505Y175787D01*
Y177362D01*
X111910Y177829D01*
X111910Y175321D01*
D02*
G37*
G36*
X101704Y170866D02*
X100917Y169427D01*
X98690D01*
X97902Y170866D01*
X99016Y173555D01*
X100591D01*
X101704Y170866D01*
D02*
G37*
G36*
X147763Y164764D02*
Y163189D01*
X146358Y162723D01*
Y165230D01*
X147763Y164764D01*
D02*
G37*
G36*
X232973Y162132D02*
X231568Y162599D01*
Y164173D01*
X232973Y164640D01*
Y162132D01*
D02*
G37*
G36*
X214837Y156791D02*
X212329D01*
X212795Y158196D01*
X214370D01*
X214837Y156791D01*
D02*
G37*
G36*
X161107Y166220D02*
X161185Y164646D01*
X159798Y164158D01*
X159687Y166663D01*
X161107Y166220D01*
D02*
G37*
G36*
X276845Y165649D02*
X274337Y165649D01*
X274803Y167054D01*
X276378D01*
X276845Y165649D01*
D02*
G37*
G36*
X75073Y167028D02*
X74606Y165623D01*
X73032D01*
X72565Y167028D01*
X75073Y167028D01*
D02*
G37*
G36*
X192564Y164158D02*
X191178Y164646D01*
X191255Y166220D01*
X192675Y166663D01*
X192564Y164158D01*
D02*
G37*
G36*
X251700Y195669D02*
Y194095D01*
X250295Y193628D01*
Y196136D01*
X251700Y195669D01*
D02*
G37*
G36*
X138485Y230636D02*
X137080Y231102D01*
Y232677D01*
X138485Y233144D01*
X138485Y230636D01*
D02*
G37*
G36*
X201575Y226647D02*
X200000D01*
X199533Y228051D01*
X202041D01*
X201575Y226647D01*
D02*
G37*
G36*
X237894Y224140D02*
X236490Y224606D01*
Y226181D01*
X237894Y226648D01*
X237894Y224140D01*
D02*
G37*
G36*
X103616Y232579D02*
X103150Y231174D01*
X101575D01*
X101108Y232579D01*
X103616Y232579D01*
D02*
G37*
G36*
X120037Y236272D02*
X119488Y234973D01*
X117913Y235374D01*
X117590Y236823D01*
X120037Y236272D01*
D02*
G37*
G36*
X112402Y235374D02*
X110827Y234973D01*
X110278Y236272D01*
X112725Y236823D01*
X112402Y235374D01*
D02*
G37*
G36*
X90354Y231568D02*
X88780D01*
X88313Y232973D01*
X90821D01*
X90354Y231568D01*
D02*
G37*
G36*
X66660Y225197D02*
Y223622D01*
X65256Y223156D01*
X65256Y225663D01*
X66660Y225197D01*
D02*
G37*
G36*
X213852Y217815D02*
X211345Y217815D01*
X211811Y219219D01*
X213386D01*
X213852Y217815D01*
D02*
G37*
G36*
X179404Y210925D02*
X176896Y210925D01*
X177362Y212330D01*
X178937D01*
X179404Y210925D01*
D02*
G37*
G36*
X204429Y209376D02*
X203025Y209843D01*
Y211417D01*
X204429Y211884D01*
Y209376D01*
D02*
G37*
G36*
X98878Y222244D02*
X99279Y220669D01*
X97980Y220121D01*
X97429Y222568D01*
X98878Y222244D01*
D02*
G37*
G36*
X80414Y223156D02*
X79009Y223622D01*
Y225197D01*
X80414Y225663D01*
Y223156D01*
D02*
G37*
G36*
X137311Y220431D02*
X135982Y220965D01*
X136278Y222539D01*
X137724Y222904D01*
X137311Y220431D01*
D02*
G37*
G36*
X119400Y220398D02*
X118221Y221358D01*
X118561Y222146D01*
X120364Y222713D01*
X119400Y220398D01*
D02*
G37*
D10*
X230709Y250000D02*
D03*
Y248032D02*
D03*
Y244094D02*
D03*
Y246063D02*
D03*
Y238189D02*
D03*
Y236221D02*
D03*
Y240158D02*
D03*
Y242126D02*
D03*
X247638D02*
D03*
Y240158D02*
D03*
Y236221D02*
D03*
Y238189D02*
D03*
Y246063D02*
D03*
Y244094D02*
D03*
Y248032D02*
D03*
Y250000D02*
D03*
D11*
X193898Y239764D02*
D03*
Y232677D02*
D03*
X276575Y139370D02*
D03*
Y132283D02*
D03*
X268701Y132283D02*
D03*
Y139370D02*
D03*
X275591Y176772D02*
D03*
Y169685D02*
D03*
X204725Y299606D02*
D03*
Y306693D02*
D03*
X158465Y306693D02*
D03*
Y299606D02*
D03*
X150591Y299606D02*
D03*
Y306693D02*
D03*
X225394Y266339D02*
D03*
Y259252D02*
D03*
X272638Y261417D02*
D03*
Y254331D02*
D03*
X206693Y260433D02*
D03*
Y253346D02*
D03*
X201772Y149213D02*
D03*
Y142126D02*
D03*
X201772Y171654D02*
D03*
Y178740D02*
D03*
X201772Y94095D02*
D03*
Y87008D02*
D03*
X201772Y116535D02*
D03*
Y123622D02*
D03*
X150591Y149213D02*
D03*
Y142126D02*
D03*
X73819Y184055D02*
D03*
Y176969D02*
D03*
X72835Y97047D02*
D03*
Y89961D02*
D03*
X73819Y145276D02*
D03*
Y138189D02*
D03*
X72835Y51575D02*
D03*
Y58662D02*
D03*
X142717Y171654D02*
D03*
Y178740D02*
D03*
X142717Y94095D02*
D03*
Y87008D02*
D03*
X211614Y56693D02*
D03*
Y49606D02*
D03*
X142717Y116535D02*
D03*
Y123622D02*
D03*
X142717Y149213D02*
D03*
Y142126D02*
D03*
X162402Y222047D02*
D03*
Y214961D02*
D03*
X162402Y266142D02*
D03*
Y273228D02*
D03*
X107283Y139173D02*
D03*
Y146260D02*
D03*
X106299Y52559D02*
D03*
Y59646D02*
D03*
X73819Y155906D02*
D03*
Y162992D02*
D03*
X72835Y69291D02*
D03*
Y76378D02*
D03*
X201772Y101772D02*
D03*
Y108858D02*
D03*
X201772Y163976D02*
D03*
Y156890D02*
D03*
X212598Y129331D02*
D03*
Y136417D02*
D03*
X262205Y52559D02*
D03*
Y59646D02*
D03*
X150591Y101772D02*
D03*
Y108858D02*
D03*
X150591Y163976D02*
D03*
Y156890D02*
D03*
X150591Y171654D02*
D03*
Y178740D02*
D03*
X150591Y94095D02*
D03*
Y87008D02*
D03*
X150591Y116535D02*
D03*
Y123622D02*
D03*
X102362Y221457D02*
D03*
Y228543D02*
D03*
X102362Y262205D02*
D03*
Y269291D02*
D03*
X162106Y255020D02*
D03*
Y247933D02*
D03*
X264764Y261417D02*
D03*
Y254331D02*
D03*
X214567Y260433D02*
D03*
Y253346D02*
D03*
X186024Y222047D02*
D03*
Y214961D02*
D03*
X233268Y266339D02*
D03*
Y259252D02*
D03*
X186024Y266142D02*
D03*
Y273228D02*
D03*
X178150D02*
D03*
Y266142D02*
D03*
X178150Y214961D02*
D03*
Y222047D02*
D03*
X170276Y266142D02*
D03*
Y273228D02*
D03*
X170276Y222047D02*
D03*
Y214961D02*
D03*
X196851Y299606D02*
D03*
Y306693D02*
D03*
X188976Y306693D02*
D03*
Y299606D02*
D03*
X119095Y306693D02*
D03*
Y299606D02*
D03*
X67913D02*
D03*
Y306693D02*
D03*
X166339D02*
D03*
Y299606D02*
D03*
X97441Y306693D02*
D03*
Y299606D02*
D03*
X89567Y306693D02*
D03*
Y299606D02*
D03*
X138780Y299606D02*
D03*
Y306693D02*
D03*
X130906Y299606D02*
D03*
Y306693D02*
D03*
D12*
X253543Y262795D02*
D03*
X246457D02*
D03*
X273228Y247047D02*
D03*
X266142D02*
D03*
X89961D02*
D03*
X97047D02*
D03*
X76378Y224410D02*
D03*
X69291D02*
D03*
X119488Y207677D02*
D03*
X126575D02*
D03*
X119488Y249016D02*
D03*
X126575D02*
D03*
X254331Y194882D02*
D03*
X261417D02*
D03*
X254331Y171260D02*
D03*
X261417D02*
D03*
X106890Y184055D02*
D03*
X99803D02*
D03*
X105905Y97441D02*
D03*
X98819D02*
D03*
X113779Y164764D02*
D03*
X106693D02*
D03*
X112795Y77756D02*
D03*
X105709D02*
D03*
X113779Y156890D02*
D03*
X106693D02*
D03*
X112795Y69882D02*
D03*
X105709D02*
D03*
X91142Y184055D02*
D03*
X84055D02*
D03*
X90158Y97441D02*
D03*
X83071D02*
D03*
X102953Y117126D02*
D03*
X95866D02*
D03*
X100984Y30512D02*
D03*
X93898D02*
D03*
X102953Y125000D02*
D03*
X95866D02*
D03*
X100984Y38386D02*
D03*
X93898D02*
D03*
X80118Y117126D02*
D03*
X87205D02*
D03*
X85236Y30512D02*
D03*
X78150D02*
D03*
X187599Y184055D02*
D03*
X180512D02*
D03*
X164764Y184055D02*
D03*
X171850D02*
D03*
X180512Y191929D02*
D03*
X187599D02*
D03*
X187599Y81693D02*
D03*
X180512D02*
D03*
X164764Y81693D02*
D03*
X171850D02*
D03*
X187599Y128937D02*
D03*
X180512D02*
D03*
X164764Y128937D02*
D03*
X171850D02*
D03*
X187599Y136811D02*
D03*
X180512D02*
D03*
X164764Y136811D02*
D03*
X171850D02*
D03*
X106890Y176181D02*
D03*
X99803D02*
D03*
X105905Y89567D02*
D03*
X98819D02*
D03*
X84055Y176181D02*
D03*
X91142D02*
D03*
X90158Y89567D02*
D03*
X83071D02*
D03*
X80118Y125000D02*
D03*
X87205D02*
D03*
X85236Y38386D02*
D03*
X78150D02*
D03*
X170276Y62992D02*
D03*
X163189D02*
D03*
X157480Y30512D02*
D03*
X150394D02*
D03*
X111614Y272638D02*
D03*
X118701D02*
D03*
X111614Y232283D02*
D03*
X118701D02*
D03*
X134449Y272638D02*
D03*
X127362D02*
D03*
X134449Y232283D02*
D03*
X127362D02*
D03*
X233858Y225394D02*
D03*
X226772D02*
D03*
D13*
X59449Y247657D02*
D03*
Y242657D02*
D03*
Y237657D02*
D03*
Y232658D02*
D03*
X78347Y247657D02*
D03*
Y242657D02*
D03*
Y237657D02*
D03*
Y232658D02*
D03*
X233071Y61634D02*
D03*
Y56634D02*
D03*
Y51634D02*
D03*
Y46634D02*
D03*
X251969Y61634D02*
D03*
Y56634D02*
D03*
Y51634D02*
D03*
Y46634D02*
D03*
D14*
X249705Y186909D02*
D03*
Y184350D02*
D03*
Y181791D02*
D03*
Y179232D02*
D03*
X266043Y186909D02*
D03*
Y184350D02*
D03*
Y181791D02*
D03*
Y179232D02*
D03*
X224410Y149508D02*
D03*
Y146949D02*
D03*
Y144390D02*
D03*
Y141831D02*
D03*
Y139272D02*
D03*
Y136713D02*
D03*
Y134154D02*
D03*
Y131595D02*
D03*
Y129035D02*
D03*
Y126476D02*
D03*
Y123917D02*
D03*
Y121358D02*
D03*
Y118799D02*
D03*
Y116240D02*
D03*
X251181Y149508D02*
D03*
Y146949D02*
D03*
Y144390D02*
D03*
Y141831D02*
D03*
Y139272D02*
D03*
Y136713D02*
D03*
Y134154D02*
D03*
Y131595D02*
D03*
Y129035D02*
D03*
Y126476D02*
D03*
Y123917D02*
D03*
Y121358D02*
D03*
Y118799D02*
D03*
Y116240D02*
D03*
X114862Y224311D02*
D03*
Y221752D02*
D03*
Y219193D02*
D03*
Y216634D02*
D03*
X131201Y224311D02*
D03*
Y221752D02*
D03*
Y219193D02*
D03*
Y216634D02*
D03*
X114862Y264665D02*
D03*
Y262106D02*
D03*
Y259547D02*
D03*
Y256988D02*
D03*
X131201Y264665D02*
D03*
Y262106D02*
D03*
Y259547D02*
D03*
Y256988D02*
D03*
D15*
X130906Y166339D02*
D03*
Y154528D02*
D03*
X149606Y252953D02*
D03*
Y241142D02*
D03*
X197835Y210236D02*
D03*
Y222047D02*
D03*
X130905Y99410D02*
D03*
Y111221D02*
D03*
X273622Y62008D02*
D03*
Y50197D02*
D03*
X108268Y297244D02*
D03*
Y309055D02*
D03*
X78740D02*
D03*
Y297244D02*
D03*
D16*
X215551Y163386D02*
D03*
X227362D02*
D03*
X215551Y102362D02*
D03*
X227362D02*
D03*
D17*
X185827Y145433D02*
D03*
Y150433D02*
D03*
Y155433D02*
D03*
Y160433D02*
D03*
Y165433D02*
D03*
Y170433D02*
D03*
Y175433D02*
D03*
X166535Y145433D02*
D03*
Y150433D02*
D03*
Y155433D02*
D03*
Y160433D02*
D03*
Y165433D02*
D03*
Y170433D02*
D03*
Y175433D02*
D03*
X169488Y38760D02*
D03*
Y43760D02*
D03*
Y48760D02*
D03*
Y53760D02*
D03*
X150197Y38760D02*
D03*
Y43760D02*
D03*
Y48760D02*
D03*
Y53760D02*
D03*
X185827Y90315D02*
D03*
Y95315D02*
D03*
Y100315D02*
D03*
Y105315D02*
D03*
Y110315D02*
D03*
Y115315D02*
D03*
Y120315D02*
D03*
X166535Y90315D02*
D03*
Y95315D02*
D03*
Y100315D02*
D03*
Y105315D02*
D03*
Y110315D02*
D03*
Y115315D02*
D03*
Y120315D02*
D03*
D18*
X83051Y140945D02*
D03*
X88051D02*
D03*
X93051D02*
D03*
X98051D02*
D03*
X83051Y160236D02*
D03*
X88051D02*
D03*
X93051D02*
D03*
X98051D02*
D03*
X82067Y54331D02*
D03*
X87067D02*
D03*
X92067D02*
D03*
X97067D02*
D03*
X82067Y73622D02*
D03*
X87067D02*
D03*
X92067D02*
D03*
X97067D02*
D03*
D19*
X185650Y253543D02*
D03*
X180650D02*
D03*
X175650D02*
D03*
X170650D02*
D03*
X185650Y234646D02*
D03*
X180650D02*
D03*
X175650D02*
D03*
X170650D02*
D03*
D20*
X220866Y59449D02*
D03*
Y48819D02*
D03*
D21*
X196850Y27756D02*
D03*
Y52953D02*
D03*
D22*
X212598Y232677D02*
D03*
Y222047D02*
D03*
D23*
X241142Y182087D02*
X241437Y181791D01*
X249705D01*
X243406Y184350D02*
X249705D01*
X242126Y183071D02*
X243406Y184350D01*
X174213Y282480D02*
X182087D01*
X170276Y278543D02*
X174213Y282480D01*
X170276Y273228D02*
Y278543D01*
X186024Y209646D02*
Y214961D01*
X182087Y205709D02*
X186024Y209646D01*
X174213Y205709D02*
X182087D01*
X186024Y222047D02*
Y226378D01*
X184055Y228346D02*
X186024Y226378D01*
X180650Y228346D02*
X184055D01*
X175650D02*
X180650D01*
Y234646D01*
X175650Y228346D02*
Y234646D01*
X185650Y260827D02*
Y265768D01*
Y253543D02*
Y260827D01*
X180650D02*
X185650D01*
X180650Y253543D02*
Y260827D01*
X93504Y257874D02*
X105592D01*
X89567Y261811D02*
X93504Y257874D01*
X89567Y261811D02*
Y267717D01*
X105592Y257874D02*
X106477Y256988D01*
X105315Y254921D02*
X110728Y249508D01*
X43307Y254921D02*
X105315D01*
X73819Y207677D02*
X86614D01*
X50197Y231299D02*
X73819Y207677D01*
X50197Y231299D02*
Y236221D01*
X122638Y198819D02*
X142717Y178740D01*
X69882Y198819D02*
X122638D01*
X46260Y222441D02*
X69882Y198819D01*
X212598Y232677D02*
Y235236D01*
X215551Y238189D01*
X226772Y225394D02*
Y229725D01*
X230709Y233662D01*
X263189Y253346D02*
X277953D01*
X257874Y248032D02*
X263189Y253346D01*
X214567Y253346D02*
X219882Y248032D01*
X204706Y244390D02*
X223425D01*
X202717Y246378D02*
X204706Y244390D01*
X45276Y78740D02*
X65354Y58662D01*
X27874Y78740D02*
X45276D01*
X26890Y77756D02*
X27874Y78740D01*
X26575Y88583D02*
X71457D01*
X25591Y87599D02*
X26575Y88583D01*
X71457D02*
X72835Y89961D01*
X43307Y100394D02*
X60039Y117126D01*
X27874Y100394D02*
X43307D01*
X26890Y99410D02*
X27874Y100394D01*
X44291Y111221D02*
X55118Y122047D01*
X28858Y111221D02*
X44291D01*
X26890Y109252D02*
X28858Y111221D01*
X41339Y256890D02*
X43307Y254921D01*
X29232Y256890D02*
X41339D01*
X96850Y261811D02*
X104884D01*
X107148Y259547D01*
X114862D01*
X106477Y256988D02*
X114862D01*
X26890Y254547D02*
X29232Y256890D01*
X41339Y245079D02*
X50197Y236221D01*
X28327Y245079D02*
X41339D01*
X26890Y243642D02*
X28327Y245079D01*
X41339Y234252D02*
X46260Y229331D01*
Y222441D02*
Y229331D01*
X28405Y234252D02*
X41339D01*
X26890Y232736D02*
X28405Y234252D01*
X92067Y54331D02*
Y63445D01*
X106693Y60039D02*
X112205D01*
X106299Y59646D02*
X106693Y60039D01*
X92520Y149606D02*
X93051Y149075D01*
Y141339D02*
Y149075D01*
X106693Y146653D02*
X113189D01*
X106299Y146260D02*
X106693Y146653D01*
X106299Y146260D02*
X107283D01*
X187677Y246378D02*
X202717D01*
X185650Y248406D02*
X187677Y246378D01*
X150000Y266142D02*
X162402D01*
X140847Y256988D02*
X150000Y266142D01*
X128051Y256988D02*
X140847D01*
X151181Y222047D02*
X162402D01*
X145768Y216634D02*
X151181Y222047D01*
X131201Y221752D02*
X138484D01*
X138780Y221457D01*
X70335Y242657D02*
X78347D01*
X69882Y243110D02*
X70335Y242657D01*
X51791Y250000D02*
X54931Y246860D01*
X51181Y250000D02*
X51791D01*
X219587Y149508D02*
X224410D01*
X218504Y150591D02*
X219587Y149508D01*
X208366Y146949D02*
X224410D01*
X206102Y149213D02*
X208366Y146949D01*
X89567Y221457D02*
Y234252D01*
Y221457D02*
X94390Y216634D01*
X114862D01*
X81693Y275591D02*
X89567Y267717D01*
X54931Y246860D02*
X55728Y247657D01*
X59449D01*
X54134Y246063D02*
X54931Y246860D01*
X54134Y244094D02*
Y246063D01*
X268701Y200787D02*
X272638Y196850D01*
X234252Y200787D02*
X268701D01*
X229331Y195866D02*
X234252Y200787D01*
X229331Y194882D02*
Y195866D01*
X266043Y186909D02*
X270571D01*
X272638Y188976D01*
Y196850D01*
X276575Y132283D02*
X281890D01*
X282087Y139370D02*
X282480Y139764D01*
X276575Y139370D02*
X282087D01*
X250394Y171850D02*
X254921D01*
X249016Y194882D02*
X254331D01*
X277953Y253346D02*
X278543Y253937D01*
X202165Y101378D02*
X215551D01*
X201772Y163976D02*
X216535D01*
X127362Y228150D02*
Y237205D01*
X86614Y207677D02*
X119488D01*
X86614D02*
Y229331D01*
X83288Y232658D02*
X86614Y229331D01*
X78347Y232658D02*
X83288D01*
X46260Y246063D02*
Y254547D01*
Y246063D02*
X54665Y237657D01*
X59449D01*
X54134Y244094D02*
X55571Y242657D01*
X59449D01*
X78347D02*
X83130D01*
X84646Y241142D01*
Y239173D02*
Y241142D01*
X83130Y237657D02*
X84646Y239173D01*
X78347Y237657D02*
X83130D01*
X63976Y224410D02*
X69291D01*
X76378Y224410D02*
X81693D01*
X97047Y247047D02*
X102362D01*
X78347Y247657D02*
X88563D01*
X89567Y241142D02*
Y246654D01*
X69291Y224410D02*
Y228937D01*
X65571Y232658D02*
X69291Y228937D01*
X59449Y232658D02*
X65571D01*
X110728Y249508D02*
X118996D01*
X119488Y250000D01*
Y253346D01*
X125689Y259547D01*
X131201D01*
X128051Y216634D02*
X131201D01*
X125984Y214567D02*
X128051Y216634D01*
X125984Y208268D02*
Y214567D01*
X119488Y212992D02*
X125689Y219193D01*
X119488Y207677D02*
Y212992D01*
X125689Y219193D02*
X131201D01*
X102362Y221457D02*
X104626Y219193D01*
X114862D01*
X131201Y216634D02*
X145768D01*
X127362Y228150D02*
X131201Y224311D01*
X114862D02*
X118701Y228150D01*
X126575Y249016D02*
Y255512D01*
X128051Y256988D01*
X217618Y186909D02*
X249705D01*
X212598Y191929D02*
X217618Y186909D01*
X187599Y191929D02*
X212598D01*
X172599Y184055D02*
X180512D01*
Y191929D01*
X273130Y179232D02*
X275591Y176772D01*
X266043Y179232D02*
X273130D01*
X276181Y176181D02*
X281496D01*
X275591Y165354D02*
Y169685D01*
X261417Y171260D02*
X265748D01*
X254921Y171850D02*
Y177165D01*
X252953Y179134D02*
X254921Y177165D01*
X249803Y179134D02*
X252953D01*
X249705Y179232D02*
X249803Y179134D01*
X261417Y194882D02*
X265748D01*
X259843Y193307D02*
X261417Y194882D01*
X259843Y186024D02*
Y193307D01*
Y186024D02*
X261516Y184350D01*
X266043D01*
X65354Y58662D02*
X72835D01*
X60039Y117126D02*
Y124409D01*
X55118Y122047D02*
Y158268D01*
X67323Y69291D02*
X72835D01*
X66929Y68898D02*
X67323Y69291D01*
X72835Y76378D02*
Y81693D01*
Y76378D02*
X75591Y73622D01*
X82067D01*
X76575Y160236D02*
X83051D01*
X73819Y162992D02*
X76575Y160236D01*
X105512Y140945D02*
X107283Y139173D01*
X98051Y140945D02*
X105512D01*
X73819Y162992D02*
Y167323D01*
X67913Y155512D02*
X73425D01*
X251969Y51634D02*
X272185D01*
X273622Y43307D02*
Y50197D01*
X144685Y30512D02*
X150000D01*
X157480Y62992D02*
X163189D01*
X150197Y30709D02*
Y38760D01*
X169488Y53760D02*
Y62205D01*
X130905Y111221D02*
Y118110D01*
X133268Y108858D02*
X150591D01*
X153937D01*
X157480Y105315D01*
X166535D01*
X130906Y147638D02*
Y154528D01*
X133268Y156890D01*
X150591D01*
X153937D01*
X157480Y160433D01*
X166535D01*
X55118Y158268D02*
X73819Y176969D01*
X60039Y124409D02*
X73819Y138189D01*
Y145276D02*
X78720D01*
X83051Y140945D01*
X212598Y216535D02*
Y222047D01*
X233858Y225394D02*
X239173D01*
X264764Y261417D02*
Y266732D01*
X272638Y261417D02*
Y266732D01*
X213583Y136417D02*
X215846Y134154D01*
X218504D01*
X233268Y266339D02*
Y271654D01*
X225394Y266339D02*
Y271654D01*
Y259252D02*
X233268D01*
X206693Y253346D02*
X214567D01*
Y260433D02*
Y265748D01*
X206693Y260433D02*
Y265748D01*
X224410Y111221D02*
Y115846D01*
X251181Y149508D02*
Y154528D01*
X224409Y115846D02*
X224410Y115846D01*
X124016Y147638D02*
Y154528D01*
X141280Y48760D02*
X150197D01*
X141201Y43760D02*
X150197D01*
X169488Y38760D02*
X178150D01*
X169488Y43760D02*
X178150D01*
X159449Y47244D02*
X162933Y43760D01*
X169488D01*
X159449Y47244D02*
Y50197D01*
X157480Y30512D02*
X163386D01*
X150197Y53760D02*
X155886D01*
X159449Y50197D01*
X170276Y62992D02*
X175197D01*
X83051Y134232D02*
Y140945D01*
X80118Y131299D02*
X83051Y134232D01*
X80118Y125000D02*
Y131299D01*
Y117126D02*
Y125000D01*
X87205D02*
X95866D01*
X87205Y117126D02*
X95866D01*
X87205D02*
Y125000D01*
X88051Y125847D01*
Y140945D01*
X109646Y117520D02*
X113189Y121063D01*
X102559Y117520D02*
X109646D01*
X84055Y170866D02*
Y184055D01*
X73819D02*
X84055D01*
X93051Y160236D02*
Y167776D01*
X91142Y169685D02*
X93051Y167776D01*
X91142Y169685D02*
Y176575D01*
X90158Y82618D02*
Y89567D01*
Y82618D02*
X92067Y80709D01*
X91142Y176575D02*
Y184055D01*
X92067Y73622D02*
Y80709D01*
X90158Y89567D02*
Y97441D01*
X84055Y84252D02*
Y98228D01*
Y84252D02*
X87067Y81240D01*
X72441Y97441D02*
X82284D01*
X88051Y160236D02*
Y166870D01*
X84055Y170866D02*
X88051Y166870D01*
X99803Y171654D02*
X106693Y164764D01*
X98051Y169902D02*
X99803Y171654D01*
X98051Y160236D02*
Y169902D01*
X99803Y171654D02*
Y176575D01*
X106299Y47244D02*
Y52559D01*
X93051Y156358D02*
X96457Y152953D01*
X99803D01*
X91673Y69744D02*
X95079Y66339D01*
X97835D01*
X101772Y70276D01*
X105315D01*
X103740Y156890D02*
X106693D01*
X99803Y152953D02*
X103740Y156890D01*
X107283Y133858D02*
Y139173D01*
X124016Y46260D02*
Y74803D01*
X108661Y30906D02*
X124016Y46260D01*
X100591Y30906D02*
X108661D01*
X107283Y38780D02*
X111614D01*
X82067Y47618D02*
Y54331D01*
X78150Y43701D02*
X82067Y47618D01*
X78150Y38386D02*
Y43701D01*
X97067Y81713D02*
X99410Y84055D01*
X97067Y73622D02*
Y81713D01*
X99410Y84055D02*
Y89961D01*
X87067Y73622D02*
Y81240D01*
X104528Y54331D02*
X106299Y52559D01*
X97067Y54331D02*
X104528D01*
X72835Y51575D02*
X76181D01*
X78937Y54331D01*
X82067D01*
X78150Y30512D02*
Y38386D01*
X85236Y30512D02*
X93898D01*
X85236Y38386D02*
X93898D01*
X85236Y30512D02*
Y38386D01*
X87067Y40217D01*
Y54331D01*
X98425Y89961D02*
Y97835D01*
X99410Y84055D02*
X105315Y78150D01*
X128937Y79725D02*
X136221Y87008D01*
X124016Y74803D02*
X128937Y79725D01*
X125000Y83662D02*
X128937Y79725D01*
X136221Y87008D02*
X142717D01*
Y94095D02*
X150591D01*
X142717Y87008D02*
X150591D01*
X113779Y164764D02*
X124016Y154528D01*
Y121063D02*
X125984D01*
X128543Y123622D01*
X113189Y121063D02*
X116142D01*
X128543Y123622D02*
X142717D01*
X158307Y95315D02*
X166535D01*
X157087Y94095D02*
X158307Y95315D01*
X150591Y94095D02*
X157087D01*
X112598Y78150D02*
X114173Y79725D01*
Y83662D01*
X201772Y87008D02*
X235652D01*
X259842Y111198D01*
X273622Y62008D02*
Y68898D01*
X251969Y61634D02*
Y65945D01*
X130905Y166339D02*
Y172244D01*
X213583Y155512D02*
Y161417D01*
X227362Y163386D02*
X234252D01*
X227362Y102362D02*
X233268D01*
X213583Y104331D02*
Y110236D01*
Y104331D02*
X215551Y102362D01*
X201772Y101772D02*
X202165Y101378D01*
X130905Y93504D02*
Y99410D01*
X257874Y148622D02*
Y153267D01*
X239487Y171654D02*
X257874Y153267D01*
X201772Y171654D02*
X239487D01*
X260157Y145984D02*
Y154213D01*
X235630Y178740D02*
X260157Y154213D01*
X201772Y178740D02*
X235630D01*
X251181Y141831D02*
X256004D01*
X260157Y145984D01*
X256201Y146949D02*
X257874Y148622D01*
X251181Y146949D02*
X256201D01*
X195473Y178740D02*
X201772D01*
X192165Y175433D02*
X195473Y178740D01*
X185827Y175433D02*
X192165D01*
X194291Y171654D02*
X201772D01*
X193071Y170433D02*
X194291Y171654D01*
X185827Y170433D02*
X193071D01*
X142717Y142126D02*
X150591D01*
X142717Y149213D02*
X150591D01*
X142717Y171654D02*
X150591D01*
X142717Y178740D02*
X150591D01*
X173898Y172244D02*
Y184055D01*
X171851Y184055D02*
X172599D01*
X172598Y184055D02*
X172599Y184055D01*
X172087Y170433D02*
X173898Y172244D01*
X166535Y170433D02*
X172087D01*
X185827Y182283D02*
X187599Y184055D01*
X185827Y175433D02*
Y182283D01*
X174213Y136811D02*
X180512D01*
X174213D02*
Y148307D01*
X172087Y150433D02*
X174213Y148307D01*
X166535Y150433D02*
X172087D01*
X185827Y138583D02*
X187599Y136811D01*
X185827Y138583D02*
Y145433D01*
X150591Y178740D02*
X156890D01*
X160197Y175433D01*
X166535D01*
X150591Y171654D02*
X157087D01*
X158307Y170433D01*
X166535D01*
X158307Y150433D02*
X166535D01*
X157087Y149213D02*
X158307Y150433D01*
X150591Y149213D02*
X157087D01*
X150591Y142126D02*
X156890D01*
X160197Y145433D01*
X166535D01*
X145079Y163976D02*
X150591D01*
X201772Y156890D02*
X207283D01*
X158543Y155433D02*
X166535D01*
X159528Y165433D02*
X166535D01*
X185827Y155433D02*
X192835D01*
X185827Y165433D02*
X193819D01*
X198425Y163976D02*
X201772D01*
X194882Y160433D02*
X198425Y163976D01*
X185827Y160433D02*
X194882D01*
X202067Y141831D02*
X224410D01*
X201772Y149213D02*
X206102D01*
X195276D02*
X201772D01*
X194055Y150433D02*
X195276Y149213D01*
X185827Y150433D02*
X194055D01*
X195473Y142126D02*
X201772D01*
X192165Y145433D02*
X195473Y142126D01*
X185827Y145433D02*
X192165D01*
X201772Y94095D02*
X239510D01*
X257559Y112144D01*
X195276Y94095D02*
X201772D01*
X194055Y95315D02*
X195276Y94095D01*
X196457Y87008D02*
X201772D01*
X193150Y90315D02*
X196457Y87008D01*
X195276Y116535D02*
X200787D01*
X194055Y115315D02*
X195276Y116535D01*
X200787D02*
X201772Y117520D01*
X195473Y123622D02*
X200787D01*
X192165Y120315D02*
X195473Y123622D01*
X200787D02*
X201083Y123917D01*
X201772Y116535D02*
X206102D01*
X208366Y118799D01*
X198425Y101772D02*
X201772D01*
X194882Y105315D02*
X198425Y101772D01*
X185827Y105315D02*
X194882D01*
X201772Y108858D02*
X207283D01*
X207087Y129331D02*
X212598D01*
X208366Y118799D02*
X224410D01*
X201083Y123917D02*
X224410D01*
X207087Y136417D02*
X212598D01*
X224409Y115846D02*
X224410Y115847D01*
X185827Y83465D02*
X187599Y81693D01*
X185827Y83465D02*
Y90315D01*
X174213Y81693D02*
X180512D01*
X174213D02*
Y93504D01*
X150591Y87008D02*
X156890D01*
X160197Y90315D01*
X166535D01*
X185827D02*
X193150D01*
X186260Y95473D02*
X186417Y95315D01*
X194055D01*
X185827D02*
X186417D01*
X174213Y128937D02*
X180512D01*
X174213Y117126D02*
Y128937D01*
X172402Y115315D02*
X174213Y117126D01*
X166535Y115315D02*
X172402D01*
X142717Y116535D02*
X150591D01*
X142717Y123622D02*
X150591D01*
Y116535D02*
X157087D01*
X160197Y120315D02*
X166535D01*
X156890Y123622D02*
X160197Y120315D01*
X150591Y123622D02*
X156890D01*
X185827Y127165D02*
X187599Y128937D01*
X185827Y120315D02*
Y127165D01*
Y115315D02*
X194055D01*
X185827Y120315D02*
X192165D01*
X145079Y101772D02*
X150591D01*
X158543Y100315D02*
X166535D01*
X158543Y110315D02*
X166535D01*
X185827D02*
X193819D01*
X185827Y100315D02*
X193819D01*
X218504Y134154D02*
X224410D01*
X222146Y116240D02*
X224410D01*
X106890Y184449D02*
X113189D01*
X106890Y176575D02*
X113189D01*
X99803D02*
Y184449D01*
X105512Y97835D02*
X109843D01*
X105512Y89961D02*
X109843D01*
X224016Y116240D02*
X224410D01*
X162106Y242618D02*
Y247933D01*
X227736Y46634D02*
X233071D01*
X225551Y48819D02*
X227736Y46634D01*
X220866Y48819D02*
X225551D01*
X262205Y59646D02*
Y65945D01*
X220866Y59449D02*
Y65945D01*
X251181Y123917D02*
X255989D01*
X224016Y116240D02*
X224410Y115847D01*
X251181Y111221D02*
Y116240D01*
Y118799D02*
X256201D01*
X259842Y111198D02*
Y120063D01*
X255989Y123917D02*
X259842Y120063D01*
X257559Y112144D02*
Y117441D01*
X256201Y118799D02*
X257559Y117441D01*
X227894Y56634D02*
X233071D01*
X225394Y54134D02*
X227894Y56634D01*
X215551Y54134D02*
X225394D01*
X214567Y55118D02*
X215551Y54134D01*
X213189Y55118D02*
X214567D01*
X167520Y48957D02*
X198819D01*
X224410Y121358D02*
X231004D01*
X244390D02*
X251181D01*
X244390Y144390D02*
X251181D01*
X224410D02*
X231004D01*
X167520Y95315D02*
X172402D01*
X174213Y93504D01*
X200197Y49606D02*
X211614D01*
X193898Y239764D02*
X194488Y239173D01*
X199803D01*
X204035Y241831D02*
X223425D01*
X201772Y244094D02*
X204035Y241831D01*
X180650Y234646D02*
Y239705D01*
X185039Y244094D01*
X201772D01*
X185650Y234646D02*
X191929D01*
X193898Y232677D01*
X170650Y222421D02*
Y234646D01*
X171024Y222047D02*
X178150D01*
X170650Y222421D02*
X171024Y222047D01*
X178150Y209646D02*
Y214961D01*
X170276Y209646D02*
X174213Y205709D01*
X170276Y209646D02*
Y214961D01*
X162402D02*
X170276D01*
X162402Y214961D02*
X162402Y214961D01*
X185650Y248406D02*
Y253543D01*
X163583D02*
X170650D01*
X178150Y273228D02*
Y278543D01*
X162402Y273228D02*
X170276D01*
X170276Y266142D02*
X178150D01*
X175650Y253543D02*
Y261280D01*
X176181Y261811D01*
Y264173D01*
X178150Y266142D01*
X197835Y210630D02*
X205709D01*
X193898Y226378D02*
Y232677D01*
Y226378D02*
X197835Y222441D01*
X151673Y255020D02*
X162106D01*
X149606Y234252D02*
Y238189D01*
X151083Y239665D01*
X149606Y241142D02*
X151083Y239665D01*
X197835Y222441D02*
X200787Y225394D01*
Y229331D01*
X186024Y273228D02*
Y278543D01*
X182087Y282480D02*
X186024Y278543D01*
X127362Y268504D02*
X131201Y264665D01*
X114862D02*
X118701Y268504D01*
X134449Y272244D02*
X138780D01*
X131201Y262106D02*
X137500D01*
X137795Y262402D01*
X102362Y268898D02*
Y274213D01*
X111614Y272244D02*
Y277559D01*
Y231890D02*
Y237205D01*
X134449Y231890D02*
X139764D01*
X102362Y228543D02*
Y233858D01*
X96850Y221457D02*
X102362D01*
X149606Y252953D02*
Y259843D01*
X114862Y262106D02*
X120768D01*
X121457Y221063D02*
X121752Y221358D01*
X121063Y221063D02*
X121457D01*
X67913Y306693D02*
Y312008D01*
X88563Y247657D02*
X89567Y246654D01*
X127362Y268504D02*
Y277756D01*
X118701Y228150D02*
Y237402D01*
X157087Y116535D02*
X158307Y115315D01*
X166535D01*
X119095Y299606D02*
X130905D01*
X130906Y306693D02*
X138780D01*
X143701Y301181D02*
X144685Y302165D01*
Y304134D01*
X147244Y306693D01*
X150591D01*
X143701Y301181D02*
Y301181D01*
X138780Y299606D02*
X142126D01*
X143701Y301181D01*
X118701Y268504D02*
Y277559D01*
D24*
X258465Y254331D02*
X264764D01*
X253543Y259252D02*
X258465Y254331D01*
X253543Y259252D02*
Y262795D01*
X273313Y242435D02*
X284095Y231654D01*
X271857Y240939D02*
X291142Y221654D01*
X256405Y239443D02*
X270400D01*
X298189Y211654D01*
X257024Y240939D02*
X271857D01*
X257644Y242435D02*
X273313D01*
X255984Y244094D02*
X257644Y242435D01*
X255837Y242126D02*
X257024Y240939D01*
X255690Y240158D02*
X256405Y239443D01*
X247638Y240158D02*
X255690D01*
X215551Y238189D02*
X230709D01*
Y233662D02*
Y236221D01*
X284095Y231654D02*
X300197D01*
X256675Y233327D02*
X273563D01*
X293307Y213583D01*
Y207677D02*
Y213583D01*
X253782Y236221D02*
X256675Y233327D01*
X247638Y236221D02*
X253782D01*
X257511Y236221D02*
X257874D01*
X255542Y238189D02*
X257511Y236221D01*
X247638Y238189D02*
X255542D01*
X247638Y242126D02*
X255837D01*
X247638Y244094D02*
X255984D01*
X247638Y246063D02*
X265158D01*
X266142Y247047D01*
X247638Y248032D02*
X257874D01*
X241142Y257480D02*
X246457Y262795D01*
X241142Y243110D02*
Y257480D01*
Y243110D02*
X242126Y242126D01*
X247638D01*
X219882Y248032D02*
X230709D01*
X247638Y250000D02*
Y254528D01*
X230709Y256693D02*
X233268Y259252D01*
X230709Y250000D02*
Y256693D01*
Y240158D02*
X239173D01*
X230709Y246063D02*
X239173D01*
X223425Y244390D02*
X223721Y244094D01*
X230709D01*
X223425Y241831D02*
X223721Y242126D01*
X230709D01*
X291142Y221654D02*
X300197D01*
X258465Y140748D02*
X260433D01*
X237697Y126476D02*
X239173Y127953D01*
X224410Y126476D02*
X237697D01*
X298189Y211654D02*
X300197D01*
X293307Y207677D02*
X299331Y201654D01*
X283465Y127953D02*
X300197Y144685D01*
X264764Y127953D02*
X283465D01*
X261122Y131595D02*
X264764Y127953D01*
X300197Y144685D02*
Y151654D01*
X269488Y132283D02*
X276575Y139370D01*
X268701Y132283D02*
X269488D01*
X268701Y139370D02*
Y145669D01*
X251181Y131595D02*
X261122D01*
X299331Y201654D02*
X300197D01*
X273228Y247047D02*
X278622Y241654D01*
X300197D01*
X266043Y181791D02*
X290335D01*
X300197Y191654D01*
X120374Y221752D02*
X121063Y221063D01*
X114862Y221752D02*
X120374D01*
X212598Y136417D02*
X213583D01*
X233366Y129035D02*
X235236Y130906D01*
X229035Y131595D02*
X232283Y134843D01*
X224410Y129035D02*
X233366D01*
X224410Y131595D02*
X229035D01*
X91142Y176575D02*
X92067Y175650D01*
X91673Y69744D02*
Y74016D01*
X82284Y97441D02*
X83071Y98228D01*
X93504Y30906D02*
X94488Y31890D01*
X185433Y169449D02*
X186260Y170276D01*
X185433Y96299D02*
X186260Y95473D01*
X218504Y134154D02*
Y138780D01*
X218750Y136713D02*
X224410D01*
X218504Y138780D02*
X218996Y139272D01*
X224410D01*
X251181D02*
X256988D01*
X258465Y140748D01*
X246358Y134154D02*
X251181D01*
X243701Y136811D02*
X246358Y134154D01*
X251181Y136713D02*
X256398D01*
X260433Y140748D01*
X222146Y149508D02*
X224410D01*
D25*
X229331Y296260D02*
Y301181D01*
Y296260D02*
X232283Y293307D01*
X296260D01*
X300197Y289370D01*
Y271654D02*
Y289370D01*
X194882Y259843D02*
X201378Y253346D01*
X194882Y259843D02*
Y286417D01*
X201378Y253346D02*
X206693D01*
X185039Y286417D02*
X292323D01*
X177165Y294291D02*
X185039Y286417D01*
X196850Y299606D02*
Y299606D01*
Y294291D02*
Y299606D01*
X196851D01*
X188976D02*
X196850D01*
X188976Y294291D02*
Y299606D01*
X196850D02*
X204725D01*
X158465Y294291D02*
X177165D01*
X158465Y299606D02*
X166339D01*
X89567Y316929D02*
X102362Y329725D01*
X235236D01*
X97441Y315945D02*
X105315Y323819D01*
X231299D01*
X249331Y305787D01*
X227520Y317914D02*
X239331Y306102D01*
X177559Y317914D02*
X227520D01*
X239331Y301181D02*
Y306102D01*
X259331Y301181D02*
Y305630D01*
X235236Y329725D02*
X259331Y305630D01*
X249331Y301181D02*
Y305787D01*
X223819Y306693D02*
X229331Y301181D01*
X204725Y306693D02*
X223819D01*
X89567Y306693D02*
Y316929D01*
X166339Y306693D02*
X177559Y317914D01*
X97441Y306693D02*
Y315945D01*
X188976Y306693D02*
Y312008D01*
X196851Y306693D02*
Y312008D01*
X150591Y299606D02*
X158465D01*
X150591Y299606D02*
X150591Y299606D01*
X150591Y294291D02*
Y299606D01*
X158465D02*
Y299606D01*
X119095Y306693D02*
Y312008D01*
X67913Y306693D02*
X67913Y306693D01*
X67913Y306693D02*
Y312008D01*
X158465Y307087D02*
Y312402D01*
X150591Y307087D02*
Y312402D01*
X67913Y294291D02*
Y299606D01*
X119095Y294291D02*
Y299606D01*
X67913Y299606D02*
X89567D01*
X97441D02*
X119095D01*
X158465Y294291D02*
Y299606D01*
X119095Y278150D02*
X130315Y289370D01*
X145669D01*
X150591Y294291D01*
Y294291D02*
X158465D01*
D26*
X114173Y156496D02*
X120079Y150591D01*
Y47244D02*
Y150591D01*
X111614Y38780D02*
X120079Y47244D01*
X102559Y125394D02*
X120079D01*
X112402Y70276D02*
X120079D01*
X100591Y38780D02*
X110630D01*
X120079Y142126D02*
X142717D01*
D27*
X71850Y286417D02*
X75788Y290354D01*
X54134Y286417D02*
X71850D01*
X39370Y271654D02*
X54134Y286417D01*
X26575Y271654D02*
X39370D01*
X81693Y312008D02*
Y315945D01*
X75788Y312008D02*
Y315945D01*
X105315Y312008D02*
Y315945D01*
X111221Y312008D02*
Y315945D01*
Y290354D02*
Y294291D01*
X105315Y290354D02*
Y297244D01*
X81693Y290354D02*
Y297244D01*
X21280Y221831D02*
X26890D01*
X18701Y224410D02*
X21280Y221831D01*
X18701Y224410D02*
Y263780D01*
X26575Y271654D01*
X75788Y290354D02*
Y297244D01*
D28*
X140748Y43307D02*
Y48228D01*
X178150Y39370D02*
Y43760D01*
X113779Y156890D02*
X114173Y156496D01*
X159449Y184055D02*
X164764D01*
X159449Y136811D02*
X164764D01*
X159449Y81693D02*
X164764D01*
X159449Y128937D02*
X164764D01*
X193898Y30709D02*
Y37402D01*
X199803Y30709D02*
Y37402D01*
D29*
X300197Y271654D02*
D03*
X61024Y275748D02*
D03*
X81693Y275591D02*
D03*
D30*
X310197Y271654D02*
D03*
X300197Y261654D02*
D03*
X310197D02*
D03*
X300197Y251654D02*
D03*
X310197D02*
D03*
X300197Y241654D02*
D03*
X310197D02*
D03*
X300197Y231654D02*
D03*
X310197D02*
D03*
X300197Y221654D02*
D03*
X310197D02*
D03*
X300197Y211654D02*
D03*
X310197D02*
D03*
X300197Y201654D02*
D03*
X310197D02*
D03*
X300197Y191654D02*
D03*
X310197D02*
D03*
X300197Y181654D02*
D03*
X310197D02*
D03*
X300197Y171654D02*
D03*
X310197D02*
D03*
X300197Y161654D02*
D03*
X310197D02*
D03*
X300197Y151654D02*
D03*
X310197D02*
D03*
X219331Y195866D02*
D03*
X61024Y265748D02*
D03*
X81693Y265591D02*
D03*
X269331Y301181D02*
D03*
X259331D02*
D03*
X249331D02*
D03*
X239331D02*
D03*
D31*
X311024Y14764D02*
D03*
X311024Y325787D02*
D03*
X35433D02*
D03*
X35433Y14764D02*
D03*
D32*
X229331Y195866D02*
D03*
X229331Y301181D02*
D03*
D33*
X38071Y261968D02*
D03*
X26890Y256516D02*
D03*
X38071Y251063D02*
D03*
X26890Y245610D02*
D03*
X38071Y240158D02*
D03*
X26890Y234705D02*
D03*
X38071Y229252D02*
D03*
X26890Y223799D02*
D03*
Y78130D02*
D03*
X38071Y83583D02*
D03*
X26890Y89035D02*
D03*
X38071Y94488D02*
D03*
X26890Y99941D02*
D03*
X38071Y105394D02*
D03*
X26890Y110846D02*
D03*
X38071Y116299D02*
D03*
D34*
Y218347D02*
D03*
Y72677D02*
D03*
D35*
X32480Y190965D02*
D03*
Y289350D02*
D03*
Y143681D02*
D03*
Y45295D02*
D03*
D36*
X241142Y182087D02*
D03*
X238189Y240158D02*
D03*
Y246063D02*
D03*
X91535Y63976D02*
D03*
X112205Y60039D02*
D03*
X92520Y149606D02*
D03*
X113189Y146653D02*
D03*
X138780Y221457D02*
D03*
X69882Y243110D02*
D03*
X248031Y254921D02*
D03*
X51181Y250000D02*
D03*
X218504Y150591D02*
D03*
X89567Y234252D02*
D03*
X282480Y132874D02*
D03*
X268701Y145669D02*
D03*
X282480Y139764D02*
D03*
X249016Y194882D02*
D03*
X281496Y286417D02*
D03*
X286417D02*
D03*
X291339D02*
D03*
X188976Y294291D02*
D03*
X278543Y253937D02*
D03*
X244094Y121063D02*
D03*
X231299D02*
D03*
X89567Y241142D02*
D03*
X102362Y247047D02*
D03*
X63976Y224410D02*
D03*
X81693D02*
D03*
X281496Y176181D02*
D03*
X275591Y164370D02*
D03*
X266732Y171260D02*
D03*
X249016Y172244D02*
D03*
X266732Y194882D02*
D03*
X188976Y312008D02*
D03*
X196851D02*
D03*
X150591Y294291D02*
D03*
X72835Y81693D02*
D03*
X73819Y168307D02*
D03*
X273622Y43307D02*
D03*
X144685Y30512D02*
D03*
X157480Y62992D02*
D03*
X130906Y118110D02*
D03*
Y147638D02*
D03*
X111221Y290354D02*
D03*
X81693Y315945D02*
D03*
X111221D02*
D03*
X119095Y294291D02*
D03*
X67913D02*
D03*
X75788Y315945D02*
D03*
X67913Y312008D02*
D03*
X119095D02*
D03*
X105315Y315945D02*
D03*
X239173Y225394D02*
D03*
X257874Y236221D02*
D03*
X264764Y266732D02*
D03*
X233268Y271654D02*
D03*
X225394D02*
D03*
X214567Y265748D02*
D03*
X224410Y111221D02*
D03*
X251181D02*
D03*
Y154528D02*
D03*
X239173Y127953D02*
D03*
X235236Y130906D02*
D03*
X232283Y134843D02*
D03*
X124016Y147638D02*
D03*
X140748Y48228D02*
D03*
Y43307D02*
D03*
X178150Y44291D02*
D03*
Y38386D02*
D03*
X163386Y30512D02*
D03*
X175197Y62992D02*
D03*
X106299Y47244D02*
D03*
X107283Y133858D02*
D03*
X125000Y83662D02*
D03*
X124016Y121063D02*
D03*
X116142D02*
D03*
X114173Y83662D02*
D03*
X273622Y68898D02*
D03*
X251969Y65945D02*
D03*
X130905Y173228D02*
D03*
X213583Y155512D02*
D03*
X234252Y163386D02*
D03*
Y102362D02*
D03*
X213583Y110236D02*
D03*
X130905Y92520D02*
D03*
X159449Y184055D02*
D03*
Y136811D02*
D03*
X145079Y163976D02*
D03*
X207283Y156890D02*
D03*
X158465Y155512D02*
D03*
Y165354D02*
D03*
X193898Y155512D02*
D03*
Y165354D02*
D03*
X231299Y144685D02*
D03*
X207283Y108858D02*
D03*
X207087Y129331D02*
D03*
Y136417D02*
D03*
X159449Y81693D02*
D03*
Y128937D02*
D03*
X145079Y101772D02*
D03*
X193898Y100394D02*
D03*
Y110236D02*
D03*
X158465Y100394D02*
D03*
Y110236D02*
D03*
X220866Y65945D02*
D03*
X262205D02*
D03*
X66929Y68898D02*
D03*
X67913Y155512D02*
D03*
X113189Y184449D02*
D03*
Y176575D02*
D03*
X111811Y97835D02*
D03*
Y89961D02*
D03*
X206693Y265748D02*
D03*
X272638Y266732D02*
D03*
X243701Y136811D02*
D03*
X260433Y140748D02*
D03*
X162106Y242618D02*
D03*
X212598Y216535D02*
D03*
X244094Y144685D02*
D03*
X193898Y37402D02*
D03*
X199803D02*
D03*
X199803Y239173D02*
D03*
X178150Y209646D02*
D03*
Y278543D02*
D03*
X149606Y234252D02*
D03*
X200787Y229331D02*
D03*
X205709Y210630D02*
D03*
X139764Y272244D02*
D03*
X137795Y262402D02*
D03*
X102362Y274213D02*
D03*
X111221Y278150D02*
D03*
Y237795D02*
D03*
X139764Y231890D02*
D03*
X102362Y233858D02*
D03*
X126969Y237795D02*
D03*
X119095D02*
D03*
X96457Y221063D02*
D03*
X119095Y278150D02*
D03*
X126969D02*
D03*
X96457Y261417D02*
D03*
X149606Y259843D02*
D03*
X121063Y262402D02*
D03*
Y221063D02*
D03*
X158465Y312402D02*
D03*
X150591D02*
D03*
X105315Y290354D02*
D03*
X75788D02*
D03*
X81693D02*
D03*
X196850Y294291D02*
D03*
X158465D02*
D03*
M02*
