%FSLAX25Y25*%
%MOIN*%
G70*
G01*
G75*
G04 Layer_Color=16711935*
%ADD10O,0.07874X0.01201*%
%ADD11R,0.05512X0.04724*%
%ADD12R,0.04724X0.05512*%
%ADD13O,0.08661X0.02362*%
%ADD14O,0.07087X0.01772*%
%ADD15R,0.08661X0.07874*%
%ADD16R,0.07874X0.08661*%
%ADD17O,0.09843X0.02756*%
%ADD18O,0.02756X0.09843*%
%ADD19O,0.02362X0.08661*%
%ADD20R,0.06693X0.04331*%
%ADD21R,0.09449X0.10236*%
%ADD22R,0.10236X0.04331*%
%ADD23C,0.01575*%
%ADD24C,0.00787*%
%ADD25C,0.04724*%
%ADD26C,0.02362*%
%ADD27C,0.02756*%
%ADD28C,0.03937*%
%ADD29R,0.05906X0.05906*%
%ADD30C,0.05906*%
%ADD31R,0.27559X0.27559*%
%ADD32R,0.05906X0.05906*%
%ADD33C,0.06654*%
%ADD34R,0.06654X0.06654*%
%ADD35C,0.18740*%
%ADD36C,0.03583*%
%ADD37C,0.05906*%
%ADD38C,0.00984*%
%ADD39C,0.00800*%
%ADD40C,0.01181*%
%ADD41C,0.00591*%
%ADD42O,0.08677X0.02004*%
%ADD43R,0.06315X0.05528*%
%ADD44R,0.05528X0.06315*%
%ADD45O,0.09465X0.03165*%
%ADD46O,0.07890X0.02575*%
%ADD47R,0.09465X0.08677*%
%ADD48R,0.08677X0.09465*%
%ADD49O,0.10646X0.03559*%
%ADD50O,0.03559X0.10646*%
%ADD51O,0.03165X0.09465*%
%ADD52R,0.07496X0.05134*%
%ADD53R,0.10252X0.11039*%
%ADD54R,0.11039X0.05134*%
%ADD55R,0.06709X0.06709*%
%ADD56C,0.06709*%
%ADD57R,0.28362X0.28362*%
%ADD58R,0.06709X0.06709*%
%ADD59C,0.07457*%
%ADD60R,0.07457X0.07457*%
%ADD61C,0.19543*%
%ADD62C,0.04386*%
D55*
X300197Y271654D02*
D03*
X61024Y275748D02*
D03*
X81693Y275591D02*
D03*
D56*
X310197Y271654D02*
D03*
X300197Y261654D02*
D03*
X310197D02*
D03*
X300197Y251654D02*
D03*
X310197D02*
D03*
X300197Y241654D02*
D03*
X310197D02*
D03*
X300197Y231654D02*
D03*
X310197D02*
D03*
X300197Y221654D02*
D03*
X310197D02*
D03*
X300197Y211654D02*
D03*
X310197D02*
D03*
X300197Y201654D02*
D03*
X310197D02*
D03*
X300197Y191654D02*
D03*
X310197D02*
D03*
X300197Y181654D02*
D03*
X310197D02*
D03*
X300197Y171654D02*
D03*
X310197D02*
D03*
X300197Y161654D02*
D03*
X310197D02*
D03*
X300197Y151654D02*
D03*
X310197D02*
D03*
X219331Y195866D02*
D03*
X61024Y265748D02*
D03*
X81693Y265591D02*
D03*
X269331Y301181D02*
D03*
X259331D02*
D03*
X249331D02*
D03*
X239331D02*
D03*
D57*
X311024Y14764D02*
D03*
X311024Y325787D02*
D03*
X35433D02*
D03*
X35433Y14764D02*
D03*
D58*
X229331Y195866D02*
D03*
X229331Y301181D02*
D03*
D59*
X38071Y261968D02*
D03*
X26890Y256516D02*
D03*
X38071Y251063D02*
D03*
X26890Y245610D02*
D03*
X38071Y240158D02*
D03*
X26890Y234705D02*
D03*
X38071Y229252D02*
D03*
X26890Y223799D02*
D03*
Y78130D02*
D03*
X38071Y83583D02*
D03*
X26890Y89035D02*
D03*
X38071Y94488D02*
D03*
X26890Y99941D02*
D03*
X38071Y105394D02*
D03*
X26890Y110846D02*
D03*
X38071Y116299D02*
D03*
D60*
Y218347D02*
D03*
Y72677D02*
D03*
D61*
X32480Y190965D02*
D03*
Y289350D02*
D03*
Y143681D02*
D03*
Y45295D02*
D03*
D62*
X241142Y182087D02*
D03*
X238189Y240158D02*
D03*
Y246063D02*
D03*
X91535Y63976D02*
D03*
X112205Y60039D02*
D03*
X92520Y149606D02*
D03*
X113189Y146653D02*
D03*
X138780Y221457D02*
D03*
X69882Y243110D02*
D03*
X248031Y254921D02*
D03*
X51181Y250000D02*
D03*
X218504Y150591D02*
D03*
X89567Y234252D02*
D03*
X282480Y132874D02*
D03*
X268701Y145669D02*
D03*
X282480Y139764D02*
D03*
X249016Y194882D02*
D03*
X281496Y286417D02*
D03*
X286417D02*
D03*
X291339D02*
D03*
X188976Y294291D02*
D03*
X278543Y253937D02*
D03*
X244094Y121063D02*
D03*
X231299D02*
D03*
X89567Y241142D02*
D03*
X102362Y247047D02*
D03*
X63976Y224410D02*
D03*
X81693D02*
D03*
X281496Y176181D02*
D03*
X275591Y164370D02*
D03*
X266732Y171260D02*
D03*
X249016Y172244D02*
D03*
X266732Y194882D02*
D03*
X188976Y312008D02*
D03*
X196851D02*
D03*
X150591Y294291D02*
D03*
X72835Y81693D02*
D03*
X73819Y168307D02*
D03*
X273622Y43307D02*
D03*
X144685Y30512D02*
D03*
X157480Y62992D02*
D03*
X130906Y118110D02*
D03*
Y147638D02*
D03*
X111221Y290354D02*
D03*
X81693Y315945D02*
D03*
X111221D02*
D03*
X119095Y294291D02*
D03*
X67913D02*
D03*
X75788Y315945D02*
D03*
X67913Y312008D02*
D03*
X119095D02*
D03*
X105315Y315945D02*
D03*
X239173Y225394D02*
D03*
X257874Y236221D02*
D03*
X264764Y266732D02*
D03*
X233268Y271654D02*
D03*
X225394D02*
D03*
X214567Y265748D02*
D03*
X224410Y111221D02*
D03*
X251181D02*
D03*
Y154528D02*
D03*
X239173Y127953D02*
D03*
X235236Y130906D02*
D03*
X232283Y134843D02*
D03*
X124016Y147638D02*
D03*
X140748Y48228D02*
D03*
Y43307D02*
D03*
X178150Y44291D02*
D03*
Y38386D02*
D03*
X163386Y30512D02*
D03*
X175197Y62992D02*
D03*
X106299Y47244D02*
D03*
X107283Y133858D02*
D03*
X125000Y83662D02*
D03*
X124016Y121063D02*
D03*
X116142D02*
D03*
X114173Y83662D02*
D03*
X273622Y68898D02*
D03*
X251969Y65945D02*
D03*
X130905Y173228D02*
D03*
X213583Y155512D02*
D03*
X234252Y163386D02*
D03*
Y102362D02*
D03*
X213583Y110236D02*
D03*
X130905Y92520D02*
D03*
X159449Y184055D02*
D03*
Y136811D02*
D03*
X145079Y163976D02*
D03*
X207283Y156890D02*
D03*
X158465Y155512D02*
D03*
Y165354D02*
D03*
X193898Y155512D02*
D03*
Y165354D02*
D03*
X231299Y144685D02*
D03*
X207283Y108858D02*
D03*
X207087Y129331D02*
D03*
Y136417D02*
D03*
X159449Y81693D02*
D03*
Y128937D02*
D03*
X145079Y101772D02*
D03*
X193898Y100394D02*
D03*
Y110236D02*
D03*
X158465Y100394D02*
D03*
Y110236D02*
D03*
X220866Y65945D02*
D03*
X262205D02*
D03*
X66929Y68898D02*
D03*
X67913Y155512D02*
D03*
X113189Y184449D02*
D03*
Y176575D02*
D03*
X111811Y97835D02*
D03*
Y89961D02*
D03*
X206693Y265748D02*
D03*
X272638Y266732D02*
D03*
X243701Y136811D02*
D03*
X260433Y140748D02*
D03*
X162106Y242618D02*
D03*
X212598Y216535D02*
D03*
X244094Y144685D02*
D03*
X193898Y37402D02*
D03*
X199803D02*
D03*
X199803Y239173D02*
D03*
X178150Y209646D02*
D03*
Y278543D02*
D03*
X149606Y234252D02*
D03*
X200787Y229331D02*
D03*
X205709Y210630D02*
D03*
X139764Y272244D02*
D03*
X137795Y262402D02*
D03*
X102362Y274213D02*
D03*
X111221Y278150D02*
D03*
Y237795D02*
D03*
X139764Y231890D02*
D03*
X102362Y233858D02*
D03*
X126969Y237795D02*
D03*
X119095D02*
D03*
X96457Y221063D02*
D03*
X119095Y278150D02*
D03*
X126969D02*
D03*
X96457Y261417D02*
D03*
X149606Y259843D02*
D03*
X121063Y262402D02*
D03*
Y221063D02*
D03*
X158465Y312402D02*
D03*
X150591D02*
D03*
X105315Y290354D02*
D03*
X75788D02*
D03*
X81693D02*
D03*
X196850Y294291D02*
D03*
X158465D02*
D03*
M02*
