M48
; DRILL file {KiCad 9.0.0} date 2025-03-31T11:54:51-0500
; FORMAT={-:-/ absolute / metric / decimal}
; #@! TF.CreationDate,2025-03-31T11:54:51-05:00
; #@! TF.GenerationSoftware,Kicad,Pcbnew,9.0.0
; #@! TF.FileFunction,MixedPlating,1,4
FMAT,2
METRIC
; #@! TA.AperFunction,Plated,PTH,ViaDrill
T1C0.300
; #@! TA.AperFunction,Plated,PTH,ViaDrill
T2C0.400
; #@! TA.AperFunction,Plated,PTH,ComponentDrill
T3C0.700
; #@! TA.AperFunction,Plated,PTH,ComponentDrill
T4C0.750
; #@! TA.AperFunction,Plated,PTH,ComponentDrill
T5C0.800
; #@! TA.AperFunction,Plated,PTH,ComponentDrill
T6C0.940
; #@! TA.AperFunction,Plated,PTH,ComponentDrill
T7C1.000
; #@! TA.AperFunction,Plated,PTH,ComponentDrill
T8C1.041
; #@! TA.AperFunction,Plated,PTH,ComponentDrill
T9C1.092
; #@! TA.AperFunction,Plated,PTH,ComponentDrill
T10C1.100
; #@! TA.AperFunction,Plated,PTH,ComponentDrill
T11C1.200
; #@! TA.AperFunction,Plated,PTH,ComponentDrill
T12C1.300
; #@! TA.AperFunction,Plated,PTH,ComponentDrill
T13C1.320
; #@! TA.AperFunction,Plated,PTH,ComponentDrill
T14C1.500
; #@! TA.AperFunction,Plated,PTH,ComponentDrill
T15C3.048
; #@! TA.AperFunction,Plated,PTH,ComponentDrill
T16C3.550
%
G90
G05
T1
X66.09Y-53.44
X66.09Y-56.29
X67.265Y-54.89
X68.215Y-53.365
X68.24Y-54.89
X68.24Y-56.29
X69.115Y-54.865
X70.24Y-53.49
X70.24Y-56.265
X75.34Y-49.89
X75.54Y-51.19
X76.79Y-49.79
X76.94Y-48.09
X77.64Y-49.79
X77.665Y-51.29
X78.44Y-48.09
X78.54Y-49.79
X79.865Y-48.065
X79.94Y-49.69
X79.94Y-51.09
X126.412Y-40.043
X126.415Y-38.315
X126.44Y-43.89
X126.46Y-36.437
X126.54Y-47.49
X127.715Y-45.115
X127.74Y-46.265
X127.84Y-37.69
X127.84Y-38.89
X128.54Y-36.44
X128.54Y-38.315
X128.54Y-40.09
X128.54Y-45.677
X128.54Y-47.49
X128.571Y-43.89
X129.29Y-45.09
X129.29Y-46.265
X129.34Y-37.69
X129.34Y-38.89
X130.54Y-43.89
X130.54Y-47.49
X130.887Y-40.014
X130.915Y-38.315
X131.44Y-45.59
X131.465Y-36.265
X131.465Y-46.34
X132.64Y-34.715
X132.64Y-36.265
X132.64Y-37.315
X132.99Y-46.515
X132.99Y-48.065
X133.765Y-36.265
X134.165Y-45.565
X134.409Y-50.24
X134.515Y-39.99
X134.565Y-38.74
X134.615Y-41.49
X134.84Y-33.64
X135.79Y-40.015
X136.54Y-48.74
X136.54Y-50.54
X136.79Y-46.34
X136.84Y-31.89
X136.84Y-34.09
X137.44Y-49.59
X137.89Y-32.99
X138.09Y-46.34
X138.24Y-48.74
X138.24Y-50.54
X138.99Y-31.89
X138.99Y-34.09
X139.215Y-39.94
X139.39Y-37.465
X139.415Y-38.49
X139.79Y-51.94
X139.84Y-35.34
X140.229Y-52.617
X140.34Y-39.99
X140.64Y-36.04
X140.64Y-37.49
X140.64Y-51.94
X140.665Y-38.465
X140.99Y-47.84
X140.99Y-48.64
X141.2Y-52.65
X141.29Y-50.04
X141.31Y-51.07
X141.52Y-51.93
X141.59Y-32.99
X141.84Y-47.84
X141.84Y-48.64
X142.82Y-33.01
X143.93Y-33.02
X144.93Y-42.42
X145.54Y-31.74
X145.54Y-33.04
X145.54Y-37.94
X145.54Y-39.29
X145.69Y-45.64
X145.69Y-46.99
X145.71Y-41.59
X145.72Y-43.25
X145.765Y-51.99
X145.765Y-53.14
X146.44Y-32.377
X146.44Y-38.602
X146.505Y-42.42
X146.59Y-46.328
X146.59Y-52.552
X147.29Y-31.74
X147.29Y-37.99
X147.29Y-39.29
X147.33Y-41.58
X147.34Y-33.04
X147.34Y-43.24
X147.39Y-51.965
X147.39Y-53.165
X147.49Y-45.64
X147.49Y-46.99
X148.18Y-42.42
X159.84Y-111.89
X160.44Y-112.69
X160.74Y-108.99
X160.74Y-110.59
X161.14Y-109.79
X161.14Y-111.89
X161.54Y-108.99
X161.54Y-110.59
X161.84Y-112.69
X162.44Y-111.89
X186.49Y-49.615
X186.627Y-34.127
X186.865Y-39.515
X190.19Y-110.64
X190.202Y-109.59
X190.215Y-108.54
X193.04Y-94.59
X193.29Y-93.69
X193.74Y-91.44
X193.915Y-81.74
X194.24Y-93.64
X194.24Y-94.64
X195.19Y-80.79
X195.19Y-81.739
X195.19Y-82.74
X195.19Y-90.49
X195.19Y-91.441
X195.19Y-92.39
X195.24Y-104.59
X196.44Y-81.74
X196.59Y-91.44
X199.115Y-80.14
X199.14Y-81.54
X200.24Y-93.84
X200.24Y-95.04
X200.315Y-96.615
X200.34Y-97.715
X200.49Y-80.64
X201.44Y-95.065
X201.44Y-96.615
X201.465Y-97.815
X201.49Y-93.815
X202.2Y-79.52
X202.89Y-73.09
X202.89Y-73.94
X203.15Y-79.53
X203.34Y-97.64
X203.365Y-98.84
X203.415Y-99.965
X203.49Y-82.69
X203.49Y-83.69
X203.49Y-84.79
X203.49Y-96.14
X203.54Y-94.64
X203.74Y-73.09
X203.765Y-76.615
X203.79Y-77.94
X204.077Y-95.34
X204.1Y-79.51
X204.49Y-77.34
X204.59Y-94.64
X204.59Y-96.14
X204.64Y-75.29
X204.665Y-74.09
X204.915Y-100.14
X204.94Y-97.615
X204.94Y-98.915
X206.19Y-75.415
X206.215Y-73.065
X206.215Y-74.09
X206.49Y-98.915
X207.09Y-77.39
X207.69Y-97.465
X207.915Y-98.715
X207.915Y-99.69
X208.265Y-72.665
X208.415Y-74.09
X208.865Y-97.465
X209.115Y-72.665
X209.165Y-98.715
X209.39Y-77.34
X209.74Y-94.54
X209.765Y-79.265
X209.79Y-96.14
X209.965Y-74.09
X209.965Y-75.34
X210.115Y-97.465
X210.302Y-95.34
X210.89Y-96.14
X210.94Y-94.54
X211.165Y-97.465
X211.59Y-74.115
X211.615Y-73.115
X211.74Y-77.34
X211.765Y-79.24
T2
X172.775Y-57.13
X186.465Y-64.89
X192.352Y-31.24
X192.44Y-41.415
X192.44Y-46.49
X192.94Y-56.765
T3
X179.04Y-115.7
X179.04Y-120.78
X179.04Y-124.85
X179.04Y-129.93
T4
X200.27Y-108.93
X201.54Y-108.93
X202.81Y-108.93
T5
X144.39Y-97.42
X144.39Y-112.66
X153.69Y-97.47
X153.69Y-112.71
X176.39Y-97.715
X176.39Y-102.715
X200.44Y-102.59
X202.44Y-102.59
T6
X205.44Y-83.861
X205.44Y-86.401
X205.44Y-88.941
T7
X187.84Y-71.89
X187.84Y-74.43
X187.84Y-76.97
X192.64Y-71.89
X192.64Y-74.43
X192.64Y-76.97
X197.24Y-71.865
X197.24Y-74.405
X197.24Y-76.945
X201.44Y-31.52
X201.44Y-36.6
X201.44Y-41.68
X201.44Y-46.76
X201.44Y-51.84
X201.44Y-56.92
X201.447Y-61.903
X201.447Y-66.903
T8
X211.095Y-39.026
X211.095Y-41.769
X211.095Y-44.512
X211.095Y-47.256
X211.095Y-49.999
X211.095Y-52.742
X211.095Y-55.485
X211.095Y-58.228
X213.94Y-40.398
X213.94Y-43.141
X213.94Y-45.884
X213.94Y-48.627
X213.94Y-51.37
X213.94Y-54.114
X213.94Y-56.857
T9
X144.44Y-118.596
X144.44Y-141.096
X155.59Y-118.596
X155.59Y-141.096
T10
X185.185Y-101.34
X185.26Y-97.84
X195.345Y-101.34
X195.42Y-97.84
T11
X87.94Y-32.09
X87.94Y-37.09
X87.94Y-47.09
X87.94Y-52.09
X102.94Y-32.09
X102.94Y-37.09
X102.94Y-47.09
X102.94Y-52.09
X117.94Y-32.09
X117.94Y-37.09
X117.94Y-47.09
X117.94Y-52.09
T12
X185.44Y-121.59
X187.44Y-115.59
X187.44Y-127.59
X199.64Y-115.59
X199.64Y-127.59
T13
X208.54Y-127.74
X208.55Y-117.94
X208.56Y-138.09
X213.62Y-127.74
X213.63Y-117.94
X213.64Y-138.09
T14
X143.282Y-79.59
X143.282Y-90.34
X168.64Y-118.39
X168.64Y-140.99
X180.94Y-138.09
X181.782Y-82.34
X181.782Y-90.34
X203.54Y-138.09
T15
X212.517Y-31.965
X212.517Y-65.29
T16
X70.44Y-64.09
X70.44Y-139.09
X130.44Y-64.09
X130.44Y-139.09
T7
X71.565Y-74.84G85X72.315Y-74.84
G05
X71.565Y-128.34G85X72.315Y-128.34
G05
X81.565Y-74.84G85X82.315Y-74.84
G05
X86.565Y-128.34G85X87.315Y-128.34
G05
X113.565Y-128.34G85X114.315Y-128.34
G05
X118.565Y-74.84G85X119.315Y-74.84
G05
X128.565Y-74.84G85X129.315Y-74.84
G05
X128.565Y-128.34G85X129.315Y-128.34
G05
M30
