G04 #@! TF.GenerationSoftware,KiCad,Pcbnew,9.0.0*
G04 #@! TF.CreationDate,2025-03-31T11:54:41-05:00*
G04 #@! TF.ProjectId,Power_Supply,506f7765-725f-4537-9570-706c792e6b69,rev?*
G04 #@! TF.SameCoordinates,Original*
G04 #@! TF.FileFunction,Paste,Top*
G04 #@! TF.FilePolarity,Positive*
%FSLAX46Y46*%
G04 Gerber Fmt 4.6, Leading zero omitted, Abs format (unit mm)*
G04 Created by KiCad (PCBNEW 9.0.0) date 2025-03-31 11:54:41*
%MOMM*%
%LPD*%
G01*
G04 APERTURE LIST*
G04 Aperture macros list*
%AMRoundRect*
0 Rectangle with rounded corners*
0 $1 Rounding radius*
0 $2 $3 $4 $5 $6 $7 $8 $9 X,Y pos of 4 corners*
0 Add a 4 corners polygon primitive as box body*
4,1,4,$2,$3,$4,$5,$6,$7,$8,$9,$2,$3,0*
0 Add four circle primitives for the rounded corners*
1,1,$1+$1,$2,$3*
1,1,$1+$1,$4,$5*
1,1,$1+$1,$6,$7*
1,1,$1+$1,$8,$9*
0 Add four rect primitives between the rounded corners*
20,1,$1+$1,$2,$3,$4,$5,0*
20,1,$1+$1,$4,$5,$6,$7,0*
20,1,$1+$1,$6,$7,$8,$9,0*
20,1,$1+$1,$8,$9,$2,$3,0*%
G04 Aperture macros list end*
%ADD10R,0.820000X0.460000*%
%ADD11RoundRect,0.375000X-0.375000X0.975000X-0.375000X-0.975000X0.375000X-0.975000X0.375000X0.975000X0*%
%ADD12RoundRect,0.250000X-0.787500X-1.025000X0.787500X-1.025000X0.787500X1.025000X-0.787500X1.025000X0*%
%ADD13RoundRect,0.225000X0.250000X-0.225000X0.250000X0.225000X-0.250000X0.225000X-0.250000X-0.225000X0*%
%ADD14RoundRect,0.218750X0.218750X0.256250X-0.218750X0.256250X-0.218750X-0.256250X0.218750X-0.256250X0*%
%ADD15RoundRect,0.225000X-0.225000X-0.375000X0.225000X-0.375000X0.225000X0.375000X-0.225000X0.375000X0*%
%ADD16RoundRect,0.250000X0.450000X-0.262500X0.450000X0.262500X-0.450000X0.262500X-0.450000X-0.262500X0*%
%ADD17RoundRect,0.250000X1.025000X-0.787500X1.025000X0.787500X-1.025000X0.787500X-1.025000X-0.787500X0*%
%ADD18RoundRect,0.225000X-0.225000X-0.250000X0.225000X-0.250000X0.225000X0.250000X-0.225000X0.250000X0*%
%ADD19RoundRect,0.150000X0.825000X0.150000X-0.825000X0.150000X-0.825000X-0.150000X0.825000X-0.150000X0*%
%ADD20RoundRect,0.225000X0.375000X-0.225000X0.375000X0.225000X-0.375000X0.225000X-0.375000X-0.225000X0*%
%ADD21RoundRect,0.250000X-0.312500X-0.625000X0.312500X-0.625000X0.312500X0.625000X-0.312500X0.625000X0*%
%ADD22RoundRect,0.250000X0.262500X0.450000X-0.262500X0.450000X-0.262500X-0.450000X0.262500X-0.450000X0*%
%ADD23R,1.050000X0.350000*%
%ADD24R,0.350000X1.050000*%
%ADD25R,3.250000X3.250000*%
%ADD26R,5.410200X2.895600*%
%ADD27RoundRect,0.250000X-0.262500X-0.450000X0.262500X-0.450000X0.262500X0.450000X-0.262500X0.450000X0*%
%ADD28RoundRect,0.225000X-0.250000X0.225000X-0.250000X-0.225000X0.250000X-0.225000X0.250000X0.225000X0*%
%ADD29RoundRect,0.218750X-0.218750X-0.256250X0.218750X-0.256250X0.218750X0.256250X-0.218750X0.256250X0*%
%ADD30RoundRect,0.250000X0.362500X1.425000X-0.362500X1.425000X-0.362500X-1.425000X0.362500X-1.425000X0*%
%ADD31RoundRect,0.375000X-0.975000X-0.375000X0.975000X-0.375000X0.975000X0.375000X-0.975000X0.375000X0*%
G04 APERTURE END LIST*
D10*
X194240000Y-94640000D03*
X196540000Y-94640000D03*
D11*
X166240000Y-100390000D03*
X161140000Y-100390000D03*
X161140000Y-109790000D03*
X166240000Y-109790000D03*
D12*
X203827500Y-77340000D03*
X210052500Y-77340000D03*
D13*
X142514999Y-64939999D03*
X142514999Y-63389999D03*
D14*
X188202500Y-31265000D03*
X186627500Y-31265000D03*
D15*
X191940000Y-104590000D03*
X195240000Y-104590000D03*
D16*
X144944999Y-64897499D03*
X144944999Y-63072499D03*
D17*
X128540000Y-38315000D03*
X128540000Y-32090000D03*
D18*
X204940000Y-98915000D03*
X206490000Y-98915000D03*
D19*
X147209999Y-60939999D03*
X147209999Y-59669999D03*
X147209999Y-58399999D03*
X147209999Y-57129999D03*
X142259999Y-57129999D03*
X142259999Y-58399999D03*
X142259999Y-59669999D03*
X142259999Y-60939999D03*
D20*
X206740000Y-110940000D03*
X206740000Y-107640000D03*
D21*
X108977500Y-43590000D03*
X111902500Y-43590000D03*
D22*
X189352500Y-104590000D03*
X187527500Y-104590000D03*
D18*
X204665000Y-74090000D03*
X206215000Y-74090000D03*
D22*
X192440000Y-41415000D03*
X190615000Y-41415000D03*
D18*
X140640000Y-37490000D03*
X142190000Y-37490000D03*
D17*
X146440000Y-38602500D03*
X146440000Y-32377500D03*
D23*
X140240000Y-34290000D03*
X140240000Y-33640000D03*
X140240000Y-32990000D03*
X140240000Y-32340000D03*
X140240000Y-31690000D03*
D24*
X139190000Y-30640000D03*
X138540000Y-30640000D03*
X137890000Y-30640000D03*
X137240000Y-30640000D03*
X136590000Y-30640000D03*
D23*
X135540000Y-31690000D03*
X135540000Y-32340000D03*
X135540000Y-32990000D03*
X135540000Y-33640000D03*
X135540000Y-34290000D03*
D24*
X136590000Y-35340000D03*
X137240000Y-35340000D03*
X137890000Y-35340000D03*
X138540000Y-35340000D03*
X139190000Y-35340000D03*
D25*
X137890000Y-32990000D03*
D26*
X195190000Y-81738600D03*
X195190000Y-91441400D03*
D27*
X190527500Y-31240000D03*
X192352500Y-31240000D03*
D16*
X147504999Y-64887499D03*
X147504999Y-63062499D03*
D28*
X132640000Y-34715000D03*
X132640000Y-36265000D03*
D22*
X192440000Y-46490000D03*
X190615000Y-46490000D03*
D17*
X128540000Y-51902500D03*
X128540000Y-45677500D03*
D29*
X186865000Y-41440000D03*
X188440000Y-41440000D03*
D28*
X201440000Y-95065000D03*
X201440000Y-96615000D03*
D30*
X190202500Y-109590000D03*
X184277500Y-109590000D03*
D29*
X187190000Y-56765000D03*
X188765000Y-56765000D03*
D17*
X146590000Y-52552500D03*
X146590000Y-46327500D03*
D22*
X142152500Y-39965000D03*
X140327500Y-39965000D03*
D21*
X108977500Y-40090000D03*
X111902500Y-40090000D03*
D27*
X135777500Y-40015000D03*
X137602500Y-40015000D03*
D31*
X68240000Y-49790000D03*
X68240000Y-54890000D03*
X77640000Y-54890000D03*
X77640000Y-49790000D03*
D29*
X186865000Y-46490000D03*
X188440000Y-46490000D03*
D23*
X139790000Y-50890000D03*
X139790000Y-50240000D03*
X139790000Y-49590000D03*
X139790000Y-48940000D03*
X139790000Y-48290000D03*
D24*
X138740000Y-47240000D03*
X138090000Y-47240000D03*
X137440000Y-47240000D03*
X136790000Y-47240000D03*
X136140000Y-47240000D03*
D23*
X135090000Y-48290000D03*
X135090000Y-48940000D03*
X135090000Y-49590000D03*
X135090000Y-50240000D03*
X135090000Y-50890000D03*
D24*
X136140000Y-51940000D03*
X136790000Y-51940000D03*
X137440000Y-51940000D03*
X138090000Y-51940000D03*
X138740000Y-51940000D03*
D25*
X137440000Y-49590000D03*
D18*
X208415000Y-74090000D03*
X209965000Y-74090000D03*
D22*
X192940000Y-56765000D03*
X191115000Y-56765000D03*
D13*
X132990000Y-48065000D03*
X132990000Y-46515000D03*
D12*
X204077500Y-95340000D03*
X210302500Y-95340000D03*
M02*
