G04 #@! TF.GenerationSoftware,KiCad,Pcbnew,9.0.0*
G04 #@! TF.CreationDate,2025-03-31T11:54:40-05:00*
G04 #@! TF.ProjectId,Power_Supply,506f7765-725f-4537-9570-706c792e6b69,rev?*
G04 #@! TF.SameCoordinates,Original*
G04 #@! TF.FileFunction,Copper,L1,Top*
G04 #@! TF.FilePolarity,Positive*
%FSLAX46Y46*%
G04 Gerber Fmt 4.6, Leading zero omitted, Abs format (unit mm)*
G04 Created by KiCad (PCBNEW 9.0.0) date 2025-03-31 11:54:40*
%MOMM*%
%LPD*%
G01*
G04 APERTURE LIST*
G04 Aperture macros list*
%AMRoundRect*
0 Rectangle with rounded corners*
0 $1 Rounding radius*
0 $2 $3 $4 $5 $6 $7 $8 $9 X,Y pos of 4 corners*
0 Add a 4 corners polygon primitive as box body*
4,1,4,$2,$3,$4,$5,$6,$7,$8,$9,$2,$3,0*
0 Add four circle primitives for the rounded corners*
1,1,$1+$1,$2,$3*
1,1,$1+$1,$4,$5*
1,1,$1+$1,$6,$7*
1,1,$1+$1,$8,$9*
0 Add four rect primitives between the rounded corners*
20,1,$1+$1,$2,$3,$4,$5,0*
20,1,$1+$1,$4,$5,$6,$7,0*
20,1,$1+$1,$6,$7,$8,$9,0*
20,1,$1+$1,$8,$9,$2,$3,0*%
G04 Aperture macros list end*
G04 #@! TA.AperFunction,ComponentPad*
%ADD10C,2.000000*%
G04 #@! TD*
G04 #@! TA.AperFunction,SMDPad,CuDef*
%ADD11R,0.820000X0.460000*%
G04 #@! TD*
G04 #@! TA.AperFunction,ComponentPad*
%ADD12C,2.250000*%
G04 #@! TD*
G04 #@! TA.AperFunction,SMDPad,CuDef*
%ADD13RoundRect,0.375000X-0.375000X0.975000X-0.375000X-0.975000X0.375000X-0.975000X0.375000X0.975000X0*%
G04 #@! TD*
G04 #@! TA.AperFunction,SMDPad,CuDef*
%ADD14RoundRect,0.250000X-0.787500X-1.025000X0.787500X-1.025000X0.787500X1.025000X-0.787500X1.025000X0*%
G04 #@! TD*
G04 #@! TA.AperFunction,SMDPad,CuDef*
%ADD15RoundRect,0.225000X0.250000X-0.225000X0.250000X0.225000X-0.250000X0.225000X-0.250000X-0.225000X0*%
G04 #@! TD*
G04 #@! TA.AperFunction,SMDPad,CuDef*
%ADD16RoundRect,0.218750X0.218750X0.256250X-0.218750X0.256250X-0.218750X-0.256250X0.218750X-0.256250X0*%
G04 #@! TD*
G04 #@! TA.AperFunction,SMDPad,CuDef*
%ADD17RoundRect,0.225000X-0.225000X-0.375000X0.225000X-0.375000X0.225000X0.375000X-0.225000X0.375000X0*%
G04 #@! TD*
G04 #@! TA.AperFunction,SMDPad,CuDef*
%ADD18RoundRect,0.250000X0.450000X-0.262500X0.450000X0.262500X-0.450000X0.262500X-0.450000X-0.262500X0*%
G04 #@! TD*
G04 #@! TA.AperFunction,SMDPad,CuDef*
%ADD19RoundRect,0.250000X1.025000X-0.787500X1.025000X0.787500X-1.025000X0.787500X-1.025000X-0.787500X0*%
G04 #@! TD*
G04 #@! TA.AperFunction,SMDPad,CuDef*
%ADD20RoundRect,0.225000X-0.225000X-0.250000X0.225000X-0.250000X0.225000X0.250000X-0.225000X0.250000X0*%
G04 #@! TD*
G04 #@! TA.AperFunction,SMDPad,CuDef*
%ADD21RoundRect,0.150000X0.825000X0.150000X-0.825000X0.150000X-0.825000X-0.150000X0.825000X-0.150000X0*%
G04 #@! TD*
G04 #@! TA.AperFunction,SMDPad,CuDef*
%ADD22RoundRect,0.225000X0.375000X-0.225000X0.375000X0.225000X-0.375000X0.225000X-0.375000X-0.225000X0*%
G04 #@! TD*
G04 #@! TA.AperFunction,ComponentPad*
%ADD23R,1.561000X1.561000*%
G04 #@! TD*
G04 #@! TA.AperFunction,ComponentPad*
%ADD24C,1.561000*%
G04 #@! TD*
G04 #@! TA.AperFunction,ComponentPad*
%ADD25C,4.572000*%
G04 #@! TD*
G04 #@! TA.AperFunction,SMDPad,CuDef*
%ADD26RoundRect,0.250000X-0.312500X-0.625000X0.312500X-0.625000X0.312500X0.625000X-0.312500X0.625000X0*%
G04 #@! TD*
G04 #@! TA.AperFunction,ComponentPad*
%ADD27C,1.600000*%
G04 #@! TD*
G04 #@! TA.AperFunction,SMDPad,CuDef*
%ADD28RoundRect,0.250000X0.262500X0.450000X-0.262500X0.450000X-0.262500X-0.450000X0.262500X-0.450000X0*%
G04 #@! TD*
G04 #@! TA.AperFunction,ComponentPad*
%ADD29C,1.980000*%
G04 #@! TD*
G04 #@! TA.AperFunction,ComponentPad*
%ADD30R,1.700000X1.700000*%
G04 #@! TD*
G04 #@! TA.AperFunction,ComponentPad*
%ADD31O,1.700000X1.700000*%
G04 #@! TD*
G04 #@! TA.AperFunction,ComponentPad*
%ADD32R,2.400000X2.400000*%
G04 #@! TD*
G04 #@! TA.AperFunction,ComponentPad*
%ADD33C,2.400000*%
G04 #@! TD*
G04 #@! TA.AperFunction,ComponentPad*
%ADD34R,2.200000X2.200000*%
G04 #@! TD*
G04 #@! TA.AperFunction,ComponentPad*
%ADD35O,2.200000X2.200000*%
G04 #@! TD*
G04 #@! TA.AperFunction,ComponentPad*
%ADD36R,3.000000X3.000000*%
G04 #@! TD*
G04 #@! TA.AperFunction,ComponentPad*
%ADD37C,3.000000*%
G04 #@! TD*
G04 #@! TA.AperFunction,ComponentPad*
%ADD38C,1.400000*%
G04 #@! TD*
G04 #@! TA.AperFunction,ComponentPad*
%ADD39O,1.400000X1.400000*%
G04 #@! TD*
G04 #@! TA.AperFunction,SMDPad,CuDef*
%ADD40R,1.050000X0.350000*%
G04 #@! TD*
G04 #@! TA.AperFunction,SMDPad,CuDef*
%ADD41R,0.350000X1.050000*%
G04 #@! TD*
G04 #@! TA.AperFunction,SMDPad,CuDef*
%ADD42R,3.250000X3.250000*%
G04 #@! TD*
G04 #@! TA.AperFunction,SMDPad,CuDef*
%ADD43R,5.410200X2.895600*%
G04 #@! TD*
G04 #@! TA.AperFunction,SMDPad,CuDef*
%ADD44RoundRect,0.250000X-0.262500X-0.450000X0.262500X-0.450000X0.262500X0.450000X-0.262500X0.450000X0*%
G04 #@! TD*
G04 #@! TA.AperFunction,ComponentPad*
%ADD45R,1.050000X1.500000*%
G04 #@! TD*
G04 #@! TA.AperFunction,ComponentPad*
%ADD46O,1.050000X1.500000*%
G04 #@! TD*
G04 #@! TA.AperFunction,SMDPad,CuDef*
%ADD47RoundRect,0.225000X-0.250000X0.225000X-0.250000X-0.225000X0.250000X-0.225000X0.250000X0.225000X0*%
G04 #@! TD*
G04 #@! TA.AperFunction,ComponentPad*
%ADD48R,1.600000X1.600000*%
G04 #@! TD*
G04 #@! TA.AperFunction,ComponentPad*
%ADD49O,1.600000X1.600000*%
G04 #@! TD*
G04 #@! TA.AperFunction,SMDPad,CuDef*
%ADD50RoundRect,0.218750X-0.218750X-0.256250X0.218750X-0.256250X0.218750X0.256250X-0.218750X0.256250X0*%
G04 #@! TD*
G04 #@! TA.AperFunction,SMDPad,CuDef*
%ADD51RoundRect,0.250000X0.362500X1.425000X-0.362500X1.425000X-0.362500X-1.425000X0.362500X-1.425000X0*%
G04 #@! TD*
G04 #@! TA.AperFunction,ComponentPad*
%ADD52C,1.440000*%
G04 #@! TD*
G04 #@! TA.AperFunction,ComponentPad*
%ADD53R,1.600200X1.600200*%
G04 #@! TD*
G04 #@! TA.AperFunction,ComponentPad*
%ADD54C,1.600200*%
G04 #@! TD*
G04 #@! TA.AperFunction,ComponentPad*
%ADD55R,2.500000X2.500000*%
G04 #@! TD*
G04 #@! TA.AperFunction,ComponentPad*
%ADD56O,2.500000X2.500000*%
G04 #@! TD*
G04 #@! TA.AperFunction,SMDPad,CuDef*
%ADD57RoundRect,0.375000X-0.975000X-0.375000X0.975000X-0.375000X0.975000X0.375000X-0.975000X0.375000X0*%
G04 #@! TD*
G04 #@! TA.AperFunction,ComponentPad*
%ADD58O,2.750000X1.571429*%
G04 #@! TD*
G04 #@! TA.AperFunction,ComponentPad*
%ADD59C,5.610000*%
G04 #@! TD*
G04 #@! TA.AperFunction,ViaPad*
%ADD60C,0.600000*%
G04 #@! TD*
G04 #@! TA.AperFunction,ViaPad*
%ADD61C,0.800000*%
G04 #@! TD*
G04 #@! TA.AperFunction,Conductor*
%ADD62C,1.000000*%
G04 #@! TD*
G04 #@! TA.AperFunction,Conductor*
%ADD63C,0.600000*%
G04 #@! TD*
G04 #@! TA.AperFunction,Conductor*
%ADD64C,0.300000*%
G04 #@! TD*
G04 APERTURE END LIST*
D10*
X201440000Y-31520000D03*
D11*
X194240000Y-94640000D03*
X196540000Y-94640000D03*
D12*
X203540000Y-138090000D03*
X180940000Y-138090000D03*
D13*
X166240000Y-100390000D03*
X161140000Y-100390000D03*
X161140000Y-109790000D03*
X166240000Y-109790000D03*
D14*
X203827500Y-77340000D03*
X210052500Y-77340000D03*
D15*
X142514999Y-64939999D03*
X142514999Y-63389999D03*
D10*
X201440000Y-36600000D03*
D16*
X188202500Y-31265000D03*
X186627500Y-31265000D03*
D17*
X191940000Y-104590000D03*
X195240000Y-104590000D03*
D18*
X144944999Y-64897499D03*
X144944999Y-63072499D03*
D19*
X128540000Y-38315000D03*
X128540000Y-32090000D03*
D20*
X204940000Y-98915000D03*
X206490000Y-98915000D03*
D21*
X147209999Y-60939999D03*
X147209999Y-59669999D03*
X147209999Y-58399999D03*
X147209999Y-57129999D03*
X142259999Y-57129999D03*
X142259999Y-58399999D03*
X142259999Y-59669999D03*
X142259999Y-60939999D03*
D10*
X201440000Y-51840000D03*
D22*
X206740000Y-110940000D03*
X206740000Y-107640000D03*
D23*
X211095000Y-39026000D03*
D24*
X211095000Y-41769000D03*
X211095000Y-44512000D03*
X211095000Y-47256000D03*
X211095000Y-49999000D03*
X211095000Y-52742000D03*
X211095000Y-55485000D03*
X211095000Y-58228000D03*
X213940000Y-40398000D03*
X213940000Y-43141000D03*
X213940000Y-45884000D03*
X213940000Y-48627000D03*
X213940000Y-51370000D03*
X213940000Y-54114000D03*
X213940000Y-56857000D03*
D25*
X212517000Y-31965000D03*
X212517000Y-65290000D03*
D26*
X108977500Y-43590000D03*
X111902500Y-43590000D03*
D27*
X176390000Y-102715000D03*
X176390000Y-97715000D03*
D28*
X189352500Y-104590000D03*
X187527500Y-104590000D03*
D20*
X204665000Y-74090000D03*
X206215000Y-74090000D03*
D28*
X192440000Y-41415000D03*
X190615000Y-41415000D03*
D29*
X213620000Y-127740000D03*
X208540000Y-127740000D03*
X208550000Y-117940000D03*
X213630000Y-117940000D03*
D20*
X140640000Y-37490000D03*
X142190000Y-37490000D03*
D19*
X146440000Y-38602500D03*
X146440000Y-32377500D03*
D30*
X192640000Y-71890000D03*
D31*
X192640000Y-74430000D03*
X192640000Y-76970000D03*
D32*
X117940000Y-52090000D03*
D33*
X117940000Y-47090000D03*
D34*
X185260000Y-97840000D03*
D35*
X195420000Y-97840000D03*
D36*
X143282500Y-79590000D03*
D37*
X143282500Y-90340000D03*
X181782500Y-90340000D03*
X181782500Y-82340000D03*
D38*
X179040000Y-129930000D03*
D39*
X179040000Y-124850000D03*
D40*
X140240000Y-34290000D03*
X140240000Y-33640000D03*
X140240000Y-32990000D03*
X140240000Y-32340000D03*
X140240000Y-31690000D03*
D41*
X139190000Y-30640000D03*
X138540000Y-30640000D03*
X137890000Y-30640000D03*
X137240000Y-30640000D03*
X136590000Y-30640000D03*
D40*
X135540000Y-31690000D03*
X135540000Y-32340000D03*
X135540000Y-32990000D03*
X135540000Y-33640000D03*
X135540000Y-34290000D03*
D41*
X136590000Y-35340000D03*
X137240000Y-35340000D03*
X137890000Y-35340000D03*
X138540000Y-35340000D03*
X139190000Y-35340000D03*
D42*
X137890000Y-32990000D03*
D43*
X195190000Y-81738600D03*
X195190000Y-91441400D03*
D10*
X201440000Y-56920000D03*
D32*
X87940000Y-37090000D03*
D33*
X87940000Y-32090000D03*
D44*
X190527500Y-31240000D03*
X192352500Y-31240000D03*
D18*
X147504999Y-64887499D03*
X147504999Y-63062499D03*
D45*
X202810000Y-108930000D03*
D46*
X201540000Y-108930000D03*
X200270000Y-108930000D03*
D47*
X132640000Y-34715000D03*
X132640000Y-36265000D03*
D10*
X201440000Y-41680000D03*
D32*
X117940000Y-37090000D03*
D33*
X117940000Y-32090000D03*
D48*
X200440000Y-102590000D03*
D27*
X202440000Y-102590000D03*
X144390000Y-112660000D03*
D49*
X144390000Y-97420000D03*
D28*
X192440000Y-46490000D03*
X190615000Y-46490000D03*
D19*
X128540000Y-51902500D03*
X128540000Y-45677500D03*
D50*
X186865000Y-41440000D03*
X188440000Y-41440000D03*
D47*
X201440000Y-95065000D03*
X201440000Y-96615000D03*
D51*
X190202500Y-109590000D03*
X184277500Y-109590000D03*
D32*
X102940000Y-37090000D03*
D33*
X102940000Y-32090000D03*
D52*
X205440000Y-83861500D03*
X205440000Y-86401500D03*
X205440000Y-88941500D03*
D27*
X153690000Y-112710000D03*
D49*
X153690000Y-97470000D03*
D50*
X187190000Y-56765000D03*
X188765000Y-56765000D03*
D19*
X146590000Y-52552500D03*
X146590000Y-46327500D03*
D28*
X142152500Y-39965000D03*
X140327500Y-39965000D03*
D30*
X197240000Y-71865000D03*
D31*
X197240000Y-74405000D03*
X197240000Y-76945000D03*
D32*
X102940000Y-52090000D03*
D33*
X102940000Y-47090000D03*
D26*
X108977500Y-40090000D03*
X111902500Y-40090000D03*
D44*
X135777500Y-40015000D03*
X137602500Y-40015000D03*
D53*
X155590000Y-118595600D03*
D54*
X155590000Y-141095600D03*
D55*
X185440000Y-121590000D03*
D56*
X187440000Y-127590000D03*
X199640000Y-127590000D03*
X199640000Y-115590000D03*
X187440000Y-115590000D03*
D32*
X87940000Y-52090000D03*
D33*
X87940000Y-47090000D03*
D10*
X201447000Y-61903000D03*
X201447000Y-66903000D03*
D38*
X179040000Y-120780000D03*
D39*
X179040000Y-115700000D03*
D53*
X144440000Y-118595600D03*
D54*
X144440000Y-141095600D03*
D57*
X68240000Y-49790000D03*
X68240000Y-54890000D03*
X77640000Y-54890000D03*
X77640000Y-49790000D03*
D50*
X186865000Y-46490000D03*
X188440000Y-46490000D03*
D58*
X71940000Y-128340000D03*
X86940000Y-128340000D03*
X113940000Y-128340000D03*
X128940000Y-128340000D03*
X128940000Y-74840000D03*
X118940000Y-74840000D03*
X81940000Y-74840000D03*
X71940000Y-74840000D03*
D59*
X130440000Y-64090000D03*
X70440000Y-64090000D03*
X70440000Y-139090000D03*
X130440000Y-139090000D03*
D12*
X168640000Y-118390000D03*
X168640000Y-140990000D03*
D10*
X201440000Y-46760000D03*
D30*
X187840000Y-71890000D03*
D31*
X187840000Y-74430000D03*
X187840000Y-76970000D03*
D40*
X139790000Y-50890000D03*
X139790000Y-50240000D03*
X139790000Y-49590000D03*
X139790000Y-48940000D03*
X139790000Y-48290000D03*
D41*
X138740000Y-47240000D03*
X138090000Y-47240000D03*
X137440000Y-47240000D03*
X136790000Y-47240000D03*
X136140000Y-47240000D03*
D40*
X135090000Y-48290000D03*
X135090000Y-48940000D03*
X135090000Y-49590000D03*
X135090000Y-50240000D03*
X135090000Y-50890000D03*
D41*
X136140000Y-51940000D03*
X136790000Y-51940000D03*
X137440000Y-51940000D03*
X138090000Y-51940000D03*
X138740000Y-51940000D03*
D42*
X137440000Y-49590000D03*
D20*
X208415000Y-74090000D03*
X209965000Y-74090000D03*
D28*
X192940000Y-56765000D03*
X191115000Y-56765000D03*
D34*
X185185000Y-101340000D03*
D35*
X195345000Y-101340000D03*
D15*
X132990000Y-48065000D03*
X132990000Y-46515000D03*
D14*
X204077500Y-95340000D03*
X210302500Y-95340000D03*
D29*
X208560000Y-138090000D03*
X213640000Y-138090000D03*
D60*
X209115000Y-72665000D03*
X204640000Y-75290000D03*
X202890000Y-73090000D03*
X193915000Y-81740000D03*
X196440000Y-81740000D03*
X203765000Y-76615000D03*
X204490000Y-77340000D03*
X202890000Y-73940000D03*
X199115000Y-80140000D03*
X199140000Y-81540000D03*
X195190000Y-81738600D03*
X203150000Y-79530000D03*
X204100000Y-79510000D03*
X202200000Y-79520000D03*
X203740000Y-73090000D03*
X195190000Y-82740000D03*
X195190000Y-80790000D03*
X203790000Y-77940000D03*
D61*
X192940000Y-56765000D03*
D60*
X204665000Y-74090000D03*
X208265000Y-72665000D03*
X208415000Y-74090000D03*
X200490000Y-80640000D03*
X210890000Y-96140000D03*
X209790000Y-96140000D03*
X206215000Y-74090000D03*
X211165000Y-97465000D03*
X210940000Y-94540000D03*
X206215000Y-73065000D03*
D61*
X172775001Y-57129999D03*
D60*
X211590000Y-74115000D03*
X206190000Y-75415000D03*
X209965000Y-75340000D03*
X211740000Y-77340000D03*
X207915000Y-99690000D03*
X210302500Y-95340000D03*
X200340000Y-97715000D03*
X210115000Y-97465000D03*
X211615000Y-73115000D03*
X208865000Y-97465000D03*
X206490000Y-98915000D03*
X186490000Y-49615000D03*
X209740000Y-94540000D03*
X200315000Y-96615000D03*
X207915000Y-98715000D03*
X211765000Y-79240000D03*
X201465000Y-97815000D03*
X209765000Y-79265000D03*
X207090000Y-77390000D03*
X201440000Y-96615000D03*
X207690000Y-97465000D03*
X209390000Y-77340000D03*
X209965000Y-74090000D03*
X209165000Y-98715000D03*
X137440000Y-49590000D03*
X138240000Y-50540000D03*
X129290000Y-45090000D03*
X128570772Y-43890000D03*
X186865000Y-39515000D03*
X140990000Y-47840000D03*
X134515000Y-39990000D03*
X135790000Y-40015000D03*
X128540000Y-47490000D03*
X147490000Y-46990000D03*
X136840000Y-31890000D03*
X147490000Y-45640000D03*
X138990000Y-34090000D03*
X146440000Y-38602500D03*
X126440000Y-43890000D03*
X134165000Y-45565000D03*
X138090000Y-46340000D03*
X134615000Y-41490000D03*
X126411511Y-40042960D03*
X127715000Y-45115000D03*
X127840000Y-37690000D03*
X147290000Y-39290000D03*
X136540000Y-50540000D03*
X136790000Y-46340000D03*
X133765000Y-36265000D03*
X128540000Y-38315000D03*
X138240000Y-48740000D03*
X137890000Y-32990000D03*
X132640000Y-37315000D03*
X131465000Y-36265000D03*
X130540000Y-47490000D03*
X129290000Y-46265000D03*
X129340000Y-38890000D03*
X141840000Y-48640000D03*
X136840000Y-34090000D03*
X145540000Y-37940000D03*
X144930000Y-42420000D03*
X128540000Y-45677500D03*
X138990000Y-31890000D03*
X147290000Y-37990000D03*
X145540000Y-39290000D03*
X145690000Y-45640000D03*
X126460185Y-36437164D03*
X146590000Y-46327500D03*
X146505000Y-42420000D03*
X130540000Y-43890000D03*
X145690000Y-46990000D03*
X145710000Y-41590000D03*
X132640000Y-36265000D03*
X140990000Y-48640000D03*
X134565000Y-38740000D03*
X126540000Y-47490000D03*
X131440000Y-45590000D03*
X147330000Y-41580000D03*
X136540000Y-48740000D03*
X186627500Y-34127500D03*
X126415000Y-38315000D03*
X130887157Y-40014208D03*
X128540000Y-40090000D03*
X127740000Y-46265000D03*
X130915000Y-38315000D03*
X145720000Y-43250000D03*
X132990000Y-46515000D03*
X127840000Y-38890000D03*
X141840000Y-47840000D03*
X148180000Y-42420000D03*
X128540000Y-36440000D03*
X131465000Y-46340000D03*
X147340000Y-43240000D03*
X129340000Y-37690000D03*
X68240000Y-56290000D03*
X68240000Y-54890000D03*
X70240000Y-53490000D03*
X66090000Y-56290000D03*
X69115000Y-54865000D03*
X66090000Y-53440000D03*
X68215000Y-53365000D03*
X70240000Y-56265000D03*
X67265000Y-54890000D03*
X160440000Y-112690000D03*
X161840000Y-112690000D03*
X161540000Y-110590000D03*
X161540000Y-108990000D03*
X161140000Y-109790000D03*
X160740000Y-108990000D03*
X161140000Y-111890000D03*
X159840000Y-111890000D03*
X162440000Y-111890000D03*
X160740000Y-110590000D03*
X195240000Y-104590000D03*
D61*
X186465000Y-64890000D03*
D60*
X203340000Y-97640000D03*
X204915000Y-100140000D03*
X203365000Y-98840000D03*
X204590000Y-94640000D03*
X204940000Y-98915000D03*
X203490000Y-96140000D03*
X204940000Y-97615000D03*
X204590000Y-96140000D03*
X204077500Y-95340000D03*
D61*
X192440000Y-46490000D03*
D60*
X203540000Y-94640000D03*
X203415000Y-99965000D03*
X145765000Y-51990000D03*
X141520000Y-51930000D03*
X147390000Y-53165000D03*
X145765000Y-53140000D03*
X141310000Y-51070000D03*
X140229079Y-52616887D03*
X141290000Y-50040000D03*
X140640000Y-51940000D03*
X147390000Y-51965000D03*
X146590000Y-52552500D03*
D61*
X192440000Y-41415000D03*
D60*
X139790000Y-51940000D03*
X141200000Y-52650000D03*
X132640000Y-34715000D03*
X134840000Y-33640000D03*
X139415000Y-38490000D03*
X146440000Y-32377500D03*
X145540000Y-31740000D03*
X139840000Y-35340000D03*
X140640000Y-37490000D03*
D61*
X192352500Y-31240000D03*
D60*
X140340000Y-39990000D03*
X139215000Y-39940000D03*
X143930000Y-33020000D03*
X145540000Y-33040000D03*
X140665000Y-38465000D03*
X147290000Y-31740000D03*
X147340000Y-33040000D03*
X139390000Y-37465000D03*
X142820000Y-33010000D03*
X141590000Y-32990000D03*
X140640000Y-36040000D03*
X77665000Y-51290000D03*
X79940000Y-51090000D03*
X79940000Y-49690000D03*
X76790000Y-49790000D03*
X78440000Y-48090000D03*
X76940000Y-48090000D03*
X75340000Y-49890000D03*
X77640000Y-49790000D03*
X78540000Y-49790000D03*
X79865000Y-48065000D03*
X75540000Y-51190000D03*
X190202500Y-109590000D03*
X190190000Y-110640000D03*
X190215000Y-108540000D03*
X132990000Y-48065000D03*
X134408874Y-50239999D03*
X194240000Y-94640000D03*
X193290000Y-93690000D03*
X203490000Y-84790000D03*
X195190000Y-92390000D03*
X193040000Y-94590000D03*
X194240000Y-93640000D03*
X195190000Y-91441400D03*
X193740000Y-91440000D03*
X201490000Y-93815000D03*
X200240000Y-93840000D03*
X196590000Y-91440000D03*
X200240000Y-95040000D03*
X203490000Y-82690000D03*
X203490000Y-83690000D03*
X195190000Y-90490000D03*
X201440000Y-95065000D03*
D62*
X182382500Y-81740000D02*
X195188600Y-81740000D01*
X181782500Y-82340000D02*
X182382500Y-81740000D01*
X195188600Y-81740000D02*
X195190000Y-81738600D01*
D63*
X142259999Y-57129999D02*
X142259999Y-59669999D01*
X143785999Y-62118999D02*
X143785999Y-60495477D01*
D64*
X172785002Y-57140000D02*
X186815000Y-57140000D01*
D63*
X172775001Y-57129999D02*
X147209999Y-57129999D01*
X147209999Y-57129999D02*
X142259999Y-57129999D01*
X142960521Y-59669999D02*
X142259999Y-59669999D01*
D64*
X186865000Y-49240000D02*
X186865000Y-46490000D01*
D63*
X143785999Y-60495477D02*
X142960521Y-59669999D01*
D64*
X172775001Y-57129999D02*
X172785002Y-57140000D01*
D63*
X142514999Y-63389999D02*
X143785999Y-62118999D01*
D64*
X186490000Y-49615000D02*
X186865000Y-49240000D01*
X186815000Y-57140000D02*
X187190000Y-56765000D01*
D62*
X108977500Y-46052500D02*
X102940000Y-52090000D01*
X108977500Y-43590000D02*
X108977500Y-46052500D01*
D64*
X138540000Y-32340000D02*
X137890000Y-32990000D01*
X138540000Y-30640000D02*
X138540000Y-32340000D01*
X138090000Y-48940000D02*
X137440000Y-49590000D01*
X139790000Y-48940000D02*
X140690000Y-48940000D01*
X136790000Y-47240000D02*
X136790000Y-46340000D01*
X138090000Y-47240000D02*
X138090000Y-46340000D01*
X140640000Y-48290000D02*
X140990000Y-48640000D01*
X139790000Y-48290000D02*
X140640000Y-48290000D01*
X140690000Y-48940000D02*
X140990000Y-48640000D01*
X186865000Y-39515000D02*
X186865000Y-41440000D01*
X186627500Y-34127500D02*
X186627500Y-31265000D01*
X137440000Y-49590000D02*
X136790000Y-48940000D01*
D62*
X117940000Y-52090000D02*
X111902500Y-46052500D01*
D64*
X135090000Y-50890000D02*
X135040000Y-50940000D01*
X135090000Y-49590000D02*
X133490000Y-49590000D01*
X135290000Y-51940000D02*
X136140000Y-51940000D01*
X135040000Y-50940000D02*
X135040000Y-51290000D01*
D62*
X111902500Y-46052500D02*
X111902500Y-43590000D01*
D64*
X133490000Y-49590000D02*
X133140000Y-49940000D01*
D62*
X108977500Y-38127500D02*
X102940000Y-32090000D01*
X108977500Y-40090000D02*
X108977500Y-38127500D01*
X111902500Y-40090000D02*
X111902500Y-38127500D01*
D64*
X135340000Y-35340000D02*
X134165000Y-34165000D01*
X136590000Y-35340000D02*
X135340000Y-35340000D01*
D62*
X111902500Y-38127500D02*
X117940000Y-32090000D01*
D64*
X133540000Y-32990000D02*
X135540000Y-32990000D01*
X134290000Y-34290000D02*
X134165000Y-34165000D01*
X133265000Y-33265000D02*
X133540000Y-32990000D01*
X135540000Y-34290000D02*
X134290000Y-34290000D01*
X134165000Y-34165000D02*
X133265000Y-33265000D01*
D63*
X153690000Y-102340000D02*
X153690000Y-97470000D01*
X161140000Y-109790000D02*
X153690000Y-102340000D01*
X168565000Y-102715000D02*
X166240000Y-100390000D01*
X185185000Y-97915000D02*
X185260000Y-97840000D01*
X187440000Y-115590000D02*
X185840000Y-113990000D01*
X188728500Y-105791000D02*
X190739000Y-105791000D01*
X187527500Y-104590000D02*
X188728500Y-105791000D01*
X185185000Y-101340000D02*
X185185000Y-97915000D01*
X187527500Y-104590000D02*
X187527500Y-103682500D01*
X187527500Y-103682500D02*
X185185000Y-101340000D01*
X176390000Y-102715000D02*
X168565000Y-102715000D01*
X190739000Y-105791000D02*
X191940000Y-104590000D01*
X185840000Y-113990000D02*
X185840000Y-108297785D01*
X185840000Y-108297785D02*
X180257215Y-102715000D01*
X180257215Y-102715000D02*
X176390000Y-102715000D01*
X206740000Y-107640000D02*
X204100000Y-107640000D01*
X202440000Y-102590000D02*
X202810000Y-102960000D01*
X202810000Y-102960000D02*
X202810000Y-108930000D01*
X204100000Y-107640000D02*
X202810000Y-108930000D01*
X176390000Y-97715000D02*
X163815000Y-97715000D01*
X163815000Y-97715000D02*
X161140000Y-100390000D01*
X189352500Y-103907500D02*
X195420000Y-97840000D01*
X201540000Y-109937000D02*
X202543000Y-110940000D01*
X200170000Y-102590000D02*
X195420000Y-97840000D01*
X201540000Y-108930000D02*
X201540000Y-109937000D01*
X189352500Y-104590000D02*
X189352500Y-103907500D01*
X201540000Y-103690000D02*
X200440000Y-102590000D01*
X202543000Y-110940000D02*
X206740000Y-110940000D01*
X201540000Y-108930000D02*
X201540000Y-103690000D01*
X200440000Y-102590000D02*
X200170000Y-102590000D01*
X185692501Y-64887499D02*
X147504999Y-64887499D01*
X199666000Y-92964000D02*
X202976500Y-92964000D01*
X185695002Y-64890000D02*
X185692501Y-64887499D01*
X141488999Y-61710999D02*
X142259999Y-60939999D01*
X186465000Y-64890000D02*
X185695002Y-64890000D01*
X142514999Y-64939999D02*
X142486335Y-64939999D01*
X204077500Y-94065000D02*
X204077500Y-95340000D01*
D64*
X186465000Y-64890000D02*
X186315000Y-64740000D01*
D63*
X144944999Y-64897499D02*
X147494999Y-64897499D01*
X141488999Y-63942663D02*
X141488999Y-61710999D01*
X197990000Y-94640000D02*
X199666000Y-92964000D01*
X147494999Y-64897499D02*
X147504999Y-64887499D01*
X142486335Y-64939999D02*
X141488999Y-63942663D01*
X144902499Y-64939999D02*
X144944999Y-64897499D01*
X202976500Y-92964000D02*
X204077500Y-94065000D01*
X196540000Y-94640000D02*
X197990000Y-94640000D01*
X142514999Y-64939999D02*
X144902499Y-64939999D01*
D64*
X142190000Y-35190000D02*
X141290000Y-34290000D01*
X139115000Y-42540000D02*
X141215000Y-42540000D01*
X137602500Y-40015000D02*
X137602500Y-41027500D01*
X142190000Y-39927500D02*
X142152500Y-39965000D01*
X142152500Y-41602500D02*
X142152500Y-39965000D01*
X142190000Y-37490000D02*
X142190000Y-35190000D01*
X137602500Y-41027500D02*
X139115000Y-42540000D01*
X141215000Y-42540000D02*
X142152500Y-41602500D01*
X142190000Y-37490000D02*
X142190000Y-39927500D01*
X141290000Y-34290000D02*
X140240000Y-34290000D01*
X138740000Y-51940000D02*
X139790000Y-51940000D01*
X140840000Y-49590000D02*
X139790000Y-49590000D01*
X141290000Y-50040000D02*
X140840000Y-49590000D01*
X139790000Y-50890000D02*
X139790000Y-51940000D01*
X135540000Y-33640000D02*
X134840000Y-33640000D01*
X139840000Y-35340000D02*
X139190000Y-35340000D01*
X141590000Y-32990000D02*
X140240000Y-32990000D01*
D62*
X188765000Y-56765000D02*
X191115000Y-56765000D01*
X190615000Y-46490000D02*
X188440000Y-46490000D01*
D63*
X200270000Y-106265000D02*
X195345000Y-101340000D01*
X189540000Y-119660000D02*
X200270000Y-108930000D01*
X187440000Y-127590000D02*
X189540000Y-125490000D01*
X189540000Y-125490000D02*
X189540000Y-119660000D01*
X200270000Y-108930000D02*
X200270000Y-106265000D01*
X184077500Y-109790000D02*
X184277500Y-109590000D01*
X166240000Y-109790000D02*
X184077500Y-109790000D01*
X144390000Y-103410000D02*
X153690000Y-112710000D01*
X144390000Y-97420000D02*
X144390000Y-103410000D01*
X179040000Y-120780000D02*
X179040000Y-124850000D01*
X202420000Y-66903000D02*
X201447000Y-66903000D01*
X211095000Y-58228000D02*
X202420000Y-66903000D01*
X195483999Y-60939999D02*
X201447000Y-66903000D01*
X147504999Y-61234999D02*
X147209999Y-60939999D01*
X147209999Y-60939999D02*
X195483999Y-60939999D01*
X147504999Y-63062499D02*
X147504999Y-61234999D01*
X199213999Y-59669999D02*
X201447000Y-61903000D01*
X144944999Y-60960000D02*
X146235000Y-59669999D01*
X147209999Y-59669999D02*
X199213999Y-59669999D01*
X207865000Y-55485000D02*
X211095000Y-55485000D01*
X201447000Y-61903000D02*
X207865000Y-55485000D01*
X144944999Y-63072499D02*
X144944999Y-60960000D01*
X146235000Y-59669999D02*
X147209999Y-59669999D01*
D64*
X135090000Y-50240000D02*
X134408875Y-50240000D01*
X134408875Y-50240000D02*
X134408874Y-50239999D01*
D62*
X188465000Y-41415000D02*
X188440000Y-41440000D01*
X190615000Y-41415000D02*
X188465000Y-41415000D01*
X188227500Y-31240000D02*
X188202500Y-31265000D01*
X190527500Y-31240000D02*
X188227500Y-31240000D01*
G04 #@! TA.AperFunction,Conductor*
G36*
X212290000Y-97390000D02*
G01*
X212290000Y-97443805D01*
X212282021Y-97464960D01*
X212239944Y-97520739D01*
X212235101Y-97524160D01*
X207996973Y-100368541D01*
X207930339Y-100389555D01*
X207926494Y-100389572D01*
X206412622Y-100372751D01*
X206345806Y-100352323D01*
X206300640Y-100299014D01*
X206290000Y-100248759D01*
X206290000Y-100020000D01*
X206290000Y-99889999D01*
X206740000Y-99889999D01*
X206763308Y-99889999D01*
X206763322Y-99889998D01*
X206862607Y-99879855D01*
X207023481Y-99826547D01*
X207023492Y-99826542D01*
X207167728Y-99737575D01*
X207167732Y-99737572D01*
X207287572Y-99617732D01*
X207287575Y-99617728D01*
X207376542Y-99473492D01*
X207376547Y-99473481D01*
X207429855Y-99312606D01*
X207439999Y-99213322D01*
X207440000Y-99213309D01*
X207440000Y-99165000D01*
X206740000Y-99165000D01*
X206740000Y-99889999D01*
X206290000Y-99889999D01*
X206290000Y-98665000D01*
X206740000Y-98665000D01*
X207439999Y-98665000D01*
X207439999Y-98616692D01*
X207439998Y-98616677D01*
X207429855Y-98517392D01*
X207376547Y-98356518D01*
X207376542Y-98356507D01*
X207287575Y-98212271D01*
X207287572Y-98212267D01*
X207167732Y-98092427D01*
X207167728Y-98092424D01*
X207023492Y-98003457D01*
X207023481Y-98003452D01*
X206862606Y-97950144D01*
X206763322Y-97940000D01*
X206740000Y-97940000D01*
X206740000Y-98665000D01*
X206290000Y-98665000D01*
X206290000Y-97843503D01*
X206299105Y-97835934D01*
X206918221Y-97455777D01*
X207004449Y-97389029D01*
X207042748Y-97352128D01*
X207112651Y-97268446D01*
X207174594Y-97138582D01*
X207189606Y-97090438D01*
X207205104Y-97067183D01*
X207217778Y-97042269D01*
X207226140Y-97035619D01*
X207228353Y-97032299D01*
X207245390Y-97020309D01*
X207311994Y-96981372D01*
X207372433Y-96964440D01*
X212290000Y-96879655D01*
X212290000Y-97390000D01*
G37*
G04 #@! TD.AperFunction*
G04 #@! TA.AperFunction,Conductor*
G36*
X141758039Y-49609685D02*
G01*
X141803794Y-49662489D01*
X141815000Y-49714000D01*
X141815000Y-50590000D01*
X140815000Y-50590000D01*
X140815000Y-50474174D01*
X140815427Y-50466203D01*
X140815322Y-50466198D01*
X140815497Y-50462892D01*
X140815500Y-50462873D01*
X140815499Y-50017128D01*
X140809091Y-49957517D01*
X140758796Y-49822669D01*
X140733075Y-49788311D01*
X140708658Y-49722848D01*
X140723509Y-49654575D01*
X140772914Y-49605169D01*
X140832342Y-49590000D01*
X141691000Y-49590000D01*
X141758039Y-49609685D01*
G37*
G04 #@! TD.AperFunction*
G04 #@! TA.AperFunction,Conductor*
G36*
X206717621Y-93109685D02*
G01*
X206763376Y-93162489D01*
X206774565Y-93216066D01*
X206712810Y-96921401D01*
X206692011Y-96988103D01*
X206653712Y-97025004D01*
X205289156Y-97862889D01*
X205281350Y-97876773D01*
X205231335Y-97925561D01*
X205195538Y-97934461D01*
X205190000Y-97940000D01*
X205190000Y-99889999D01*
X205204138Y-99904137D01*
X205223027Y-99909684D01*
X205268782Y-99962488D01*
X205279987Y-100014528D01*
X205278688Y-100319256D01*
X205258718Y-100386211D01*
X205205719Y-100431740D01*
X205157458Y-100442696D01*
X202792119Y-100495537D01*
X202724657Y-100477355D01*
X202677734Y-100425586D01*
X202665350Y-100371536D01*
X202665457Y-99962488D01*
X202665652Y-99213322D01*
X203990001Y-99213322D01*
X204000144Y-99312607D01*
X204053452Y-99473481D01*
X204053457Y-99473492D01*
X204142424Y-99617728D01*
X204142427Y-99617732D01*
X204262267Y-99737572D01*
X204262271Y-99737575D01*
X204406507Y-99826542D01*
X204406518Y-99826547D01*
X204567393Y-99879855D01*
X204666683Y-99889999D01*
X204690000Y-99889998D01*
X204690000Y-99165000D01*
X203990001Y-99165000D01*
X203990001Y-99213322D01*
X202665652Y-99213322D01*
X202665808Y-98616677D01*
X203990000Y-98616677D01*
X203990000Y-98665000D01*
X204690000Y-98665000D01*
X204690000Y-97939999D01*
X204666693Y-97940000D01*
X204666674Y-97940001D01*
X204567392Y-97950144D01*
X204406518Y-98003452D01*
X204406507Y-98003457D01*
X204262271Y-98092424D01*
X204262267Y-98092427D01*
X204142427Y-98212267D01*
X204142424Y-98212271D01*
X204053457Y-98356507D01*
X204053452Y-98356518D01*
X204000144Y-98517393D01*
X203990000Y-98616677D01*
X202665808Y-98616677D01*
X202666208Y-97083574D01*
X202685910Y-97016543D01*
X202738726Y-96970802D01*
X202807887Y-96960877D01*
X202855305Y-96978072D01*
X202970869Y-97049353D01*
X202970880Y-97049358D01*
X203137302Y-97104505D01*
X203137309Y-97104506D01*
X203240019Y-97114999D01*
X203827499Y-97114999D01*
X204327500Y-97114999D01*
X204914972Y-97114999D01*
X204914986Y-97114998D01*
X205017697Y-97104505D01*
X205184119Y-97049358D01*
X205184124Y-97049356D01*
X205333345Y-96957315D01*
X205457315Y-96833345D01*
X205549356Y-96684124D01*
X205549358Y-96684119D01*
X205604505Y-96517697D01*
X205604506Y-96517690D01*
X205614999Y-96414986D01*
X205615000Y-96414973D01*
X205615000Y-95590000D01*
X204327500Y-95590000D01*
X204327500Y-97114999D01*
X203827499Y-97114999D01*
X203827500Y-97114998D01*
X203827500Y-95090000D01*
X204327500Y-95090000D01*
X205614999Y-95090000D01*
X205614999Y-94265028D01*
X205614998Y-94265013D01*
X205604505Y-94162302D01*
X205549358Y-93995880D01*
X205549356Y-93995875D01*
X205457315Y-93846654D01*
X205333345Y-93722684D01*
X205184124Y-93630643D01*
X205184119Y-93630641D01*
X205017697Y-93575494D01*
X205017690Y-93575493D01*
X204914986Y-93565000D01*
X204327500Y-93565000D01*
X204327500Y-95090000D01*
X203827500Y-95090000D01*
X203827500Y-93565000D01*
X203240028Y-93565000D01*
X203240012Y-93565001D01*
X203137302Y-93575494D01*
X202970880Y-93630641D01*
X202970871Y-93630645D01*
X202856215Y-93701366D01*
X202788823Y-93719806D01*
X202722159Y-93698883D01*
X202677390Y-93645241D01*
X202667119Y-93595798D01*
X202667220Y-93213967D01*
X202686922Y-93146933D01*
X202739738Y-93101192D01*
X202791220Y-93090000D01*
X206650582Y-93090000D01*
X206717621Y-93109685D01*
G37*
G04 #@! TD.AperFunction*
G04 #@! TA.AperFunction,Conductor*
G36*
X133733039Y-27615185D02*
G01*
X133778794Y-27667989D01*
X133790000Y-27719500D01*
X133790000Y-33966000D01*
X133787449Y-33974685D01*
X133788738Y-33983647D01*
X133777759Y-34007687D01*
X133770315Y-34033039D01*
X133763474Y-34038966D01*
X133759713Y-34047203D01*
X133737478Y-34061492D01*
X133717511Y-34078794D01*
X133706996Y-34081081D01*
X133700935Y-34084977D01*
X133666000Y-34090000D01*
X133564893Y-34090000D01*
X133497854Y-34070315D01*
X133469247Y-34041200D01*
X133467449Y-34042623D01*
X133462967Y-34036955D01*
X133343044Y-33917032D01*
X133343040Y-33917029D01*
X133198705Y-33828001D01*
X133198699Y-33827998D01*
X133198697Y-33827997D01*
X133084029Y-33790000D01*
X133037709Y-33774651D01*
X132938346Y-33764500D01*
X132341662Y-33764500D01*
X132341644Y-33764501D01*
X132242292Y-33774650D01*
X132242289Y-33774651D01*
X132081305Y-33827996D01*
X132081294Y-33828001D01*
X131936959Y-33917029D01*
X131936955Y-33917032D01*
X131817032Y-34036955D01*
X131812551Y-34042623D01*
X131810054Y-34040648D01*
X131768597Y-34077870D01*
X131715107Y-34090000D01*
X115440000Y-34090000D01*
X115440000Y-40966000D01*
X115420315Y-41033039D01*
X115367511Y-41078794D01*
X115316000Y-41090000D01*
X113052562Y-41090000D01*
X112985523Y-41070315D01*
X112939768Y-41017511D01*
X112929824Y-40948353D01*
X112934856Y-40926997D01*
X112954504Y-40867700D01*
X112954506Y-40867690D01*
X112964999Y-40764986D01*
X112965000Y-40764973D01*
X112965000Y-40340000D01*
X110840001Y-40340000D01*
X110840001Y-40764986D01*
X110850494Y-40867697D01*
X110870144Y-40926996D01*
X110872546Y-40996824D01*
X110836814Y-41056866D01*
X110774294Y-41088059D01*
X110752438Y-41090000D01*
X110564000Y-41090000D01*
X110496961Y-41070315D01*
X110451206Y-41017511D01*
X110440000Y-40966000D01*
X110440000Y-39415013D01*
X110840000Y-39415013D01*
X110840000Y-39840000D01*
X111652500Y-39840000D01*
X112152500Y-39840000D01*
X112964999Y-39840000D01*
X112964999Y-39415028D01*
X112964998Y-39415013D01*
X112954505Y-39312302D01*
X112899358Y-39145880D01*
X112899356Y-39145875D01*
X112807315Y-38996654D01*
X112683345Y-38872684D01*
X112534124Y-38780643D01*
X112534119Y-38780641D01*
X112367697Y-38725494D01*
X112367690Y-38725493D01*
X112264986Y-38715000D01*
X112152500Y-38715000D01*
X112152500Y-39840000D01*
X111652500Y-39840000D01*
X111652500Y-38715000D01*
X111540027Y-38715000D01*
X111540012Y-38715001D01*
X111437302Y-38725494D01*
X111270880Y-38780641D01*
X111270875Y-38780643D01*
X111121654Y-38872684D01*
X110997684Y-38996654D01*
X110905643Y-39145875D01*
X110905641Y-39145880D01*
X110850494Y-39312302D01*
X110850493Y-39312309D01*
X110840000Y-39415013D01*
X110440000Y-39415013D01*
X110440000Y-31978575D01*
X116240000Y-31978575D01*
X116240000Y-32201424D01*
X116269085Y-32422354D01*
X116269088Y-32422367D01*
X116326763Y-32637618D01*
X116412045Y-32843502D01*
X116412054Y-32843520D01*
X116523464Y-33036491D01*
X116523473Y-33036504D01*
X116574040Y-33102403D01*
X116574043Y-33102403D01*
X117375387Y-32301059D01*
X117380889Y-32321591D01*
X117459881Y-32458408D01*
X117571592Y-32570119D01*
X117708409Y-32649111D01*
X117728940Y-32654612D01*
X116927595Y-33455955D01*
X116927595Y-33455956D01*
X116993507Y-33506533D01*
X117186485Y-33617949D01*
X117186497Y-33617954D01*
X117392381Y-33703236D01*
X117607632Y-33760911D01*
X117607645Y-33760914D01*
X117828575Y-33790000D01*
X118051425Y-33790000D01*
X118272354Y-33760914D01*
X118272367Y-33760911D01*
X118487618Y-33703236D01*
X118693502Y-33617954D01*
X118693514Y-33617949D01*
X118886498Y-33506530D01*
X118952403Y-33455957D01*
X118952404Y-33455956D01*
X118151059Y-32654612D01*
X118171591Y-32649111D01*
X118308408Y-32570119D01*
X118420119Y-32458408D01*
X118499111Y-32321591D01*
X118504612Y-32301059D01*
X119305956Y-33102404D01*
X119305957Y-33102403D01*
X119356530Y-33036498D01*
X119419468Y-32927486D01*
X126765001Y-32927486D01*
X126775494Y-33030197D01*
X126830641Y-33196619D01*
X126830643Y-33196624D01*
X126922684Y-33345845D01*
X127046654Y-33469815D01*
X127195875Y-33561856D01*
X127195880Y-33561858D01*
X127362302Y-33617005D01*
X127362309Y-33617006D01*
X127465019Y-33627499D01*
X128289999Y-33627499D01*
X128790000Y-33627499D01*
X129614972Y-33627499D01*
X129614986Y-33627498D01*
X129717697Y-33617005D01*
X129884119Y-33561858D01*
X129884124Y-33561856D01*
X130033345Y-33469815D01*
X130157315Y-33345845D01*
X130249356Y-33196624D01*
X130249358Y-33196619D01*
X130304505Y-33030197D01*
X130304506Y-33030190D01*
X130314999Y-32927486D01*
X130315000Y-32927473D01*
X130315000Y-32340000D01*
X128790000Y-32340000D01*
X128790000Y-33627499D01*
X128289999Y-33627499D01*
X128290000Y-33627498D01*
X128290000Y-32340000D01*
X126765001Y-32340000D01*
X126765001Y-32927486D01*
X119419468Y-32927486D01*
X119467949Y-32843514D01*
X119467954Y-32843502D01*
X119553236Y-32637618D01*
X119610911Y-32422367D01*
X119610914Y-32422354D01*
X119630649Y-32272453D01*
X119640000Y-32201424D01*
X119640000Y-31978575D01*
X119610914Y-31757645D01*
X119610911Y-31757632D01*
X119553236Y-31542381D01*
X119467954Y-31336497D01*
X119467949Y-31336486D01*
X119453445Y-31311364D01*
X119419467Y-31252513D01*
X126765000Y-31252513D01*
X126765000Y-31840000D01*
X128290000Y-31840000D01*
X128790000Y-31840000D01*
X130314999Y-31840000D01*
X130314999Y-31252528D01*
X130314998Y-31252513D01*
X130304505Y-31149802D01*
X130249358Y-30983380D01*
X130249356Y-30983375D01*
X130157315Y-30834154D01*
X130033345Y-30710184D01*
X129884124Y-30618143D01*
X129884119Y-30618141D01*
X129717697Y-30562994D01*
X129717690Y-30562993D01*
X129614986Y-30552500D01*
X128790000Y-30552500D01*
X128790000Y-31840000D01*
X128290000Y-31840000D01*
X128290000Y-30552500D01*
X127465028Y-30552500D01*
X127465012Y-30552501D01*
X127362302Y-30562994D01*
X127195880Y-30618141D01*
X127195875Y-30618143D01*
X127046654Y-30710184D01*
X126922684Y-30834154D01*
X126830643Y-30983375D01*
X126830641Y-30983380D01*
X126775494Y-31149802D01*
X126775493Y-31149809D01*
X126765000Y-31252513D01*
X119419467Y-31252513D01*
X119356533Y-31143507D01*
X119305956Y-31077595D01*
X119305955Y-31077595D01*
X118504612Y-31878939D01*
X118499111Y-31858409D01*
X118420119Y-31721592D01*
X118308408Y-31609881D01*
X118171591Y-31530889D01*
X118151058Y-31525387D01*
X118952403Y-30724043D01*
X118952403Y-30724040D01*
X118886504Y-30673473D01*
X118886491Y-30673464D01*
X118693520Y-30562054D01*
X118693502Y-30562045D01*
X118487618Y-30476763D01*
X118272367Y-30419088D01*
X118272354Y-30419085D01*
X118051425Y-30390000D01*
X117828575Y-30390000D01*
X117607645Y-30419085D01*
X117607632Y-30419088D01*
X117392381Y-30476763D01*
X117186497Y-30562045D01*
X117186479Y-30562054D01*
X116993511Y-30673462D01*
X116927595Y-30724042D01*
X117728941Y-31525387D01*
X117708409Y-31530889D01*
X117571592Y-31609881D01*
X117459881Y-31721592D01*
X117380889Y-31858409D01*
X117375387Y-31878940D01*
X116574042Y-31077595D01*
X116523462Y-31143511D01*
X116412054Y-31336479D01*
X116412045Y-31336497D01*
X116326763Y-31542381D01*
X116269088Y-31757632D01*
X116269085Y-31757645D01*
X116240000Y-31978575D01*
X110440000Y-31978575D01*
X110440000Y-27719500D01*
X110459685Y-27652461D01*
X110512489Y-27606706D01*
X110564000Y-27595500D01*
X133666000Y-27595500D01*
X133733039Y-27615185D01*
G37*
G04 #@! TD.AperFunction*
G04 #@! TA.AperFunction,Conductor*
G36*
X83992018Y-41289565D02*
G01*
X84058968Y-41309547D01*
X84104489Y-41362553D01*
X84112233Y-41385427D01*
X86064410Y-49764410D01*
X86140000Y-49990000D01*
X86140000Y-50415000D01*
X84203367Y-55791743D01*
X84172727Y-55756365D01*
X84165636Y-55736513D01*
X81990584Y-47492214D01*
X81989489Y-47487722D01*
X81340000Y-44590000D01*
X81339999Y-44589999D01*
X75916594Y-44633907D01*
X70540000Y-50690000D01*
X70540000Y-51366637D01*
X70520315Y-51433676D01*
X70467511Y-51479431D01*
X70416639Y-51490635D01*
X65814639Y-51514357D01*
X65747499Y-51495019D01*
X65701473Y-51442451D01*
X65690000Y-51390359D01*
X65690000Y-50241096D01*
X66390000Y-50241096D01*
X66392897Y-50283824D01*
X66438831Y-50468523D01*
X66523390Y-50639022D01*
X66523392Y-50639025D01*
X66642632Y-50787366D01*
X66642633Y-50787367D01*
X66790974Y-50906607D01*
X66790977Y-50906609D01*
X66961476Y-50991168D01*
X67146175Y-51037102D01*
X67188903Y-51040000D01*
X67990000Y-51040000D01*
X68490000Y-51040000D01*
X69291097Y-51040000D01*
X69333824Y-51037102D01*
X69518523Y-50991168D01*
X69689022Y-50906609D01*
X69689025Y-50906607D01*
X69837366Y-50787367D01*
X69837367Y-50787366D01*
X69956607Y-50639025D01*
X69956609Y-50639022D01*
X70041168Y-50468523D01*
X70087102Y-50283824D01*
X70090000Y-50241096D01*
X70090000Y-50040000D01*
X68490000Y-50040000D01*
X68490000Y-51040000D01*
X67990000Y-51040000D01*
X67990000Y-50040000D01*
X66390000Y-50040000D01*
X66390000Y-50241096D01*
X65690000Y-50241096D01*
X65690000Y-49338903D01*
X66390000Y-49338903D01*
X66390000Y-49540000D01*
X67990000Y-49540000D01*
X68490000Y-49540000D01*
X70090000Y-49540000D01*
X70090000Y-49338903D01*
X70087102Y-49296175D01*
X70041168Y-49111476D01*
X69956609Y-48940977D01*
X69956607Y-48940974D01*
X69837367Y-48792633D01*
X69837366Y-48792632D01*
X69689025Y-48673392D01*
X69689022Y-48673390D01*
X69518523Y-48588831D01*
X69333824Y-48542897D01*
X69291097Y-48540000D01*
X68490000Y-48540000D01*
X68490000Y-49540000D01*
X67990000Y-49540000D01*
X67990000Y-48540000D01*
X67188903Y-48540000D01*
X67146175Y-48542897D01*
X66961476Y-48588831D01*
X66790977Y-48673390D01*
X66790974Y-48673392D01*
X66642633Y-48792632D01*
X66642632Y-48792633D01*
X66523392Y-48940974D01*
X66523390Y-48940977D01*
X66438831Y-49111476D01*
X66392897Y-49296175D01*
X66390000Y-49338903D01*
X65690000Y-49338903D01*
X65690000Y-48864153D01*
X65709685Y-48797114D01*
X65723677Y-48779196D01*
X65823196Y-48673392D01*
X72778053Y-41279280D01*
X72838322Y-41243935D01*
X72868923Y-41240239D01*
X83992018Y-41289565D01*
G37*
G04 #@! TD.AperFunction*
G04 #@! TA.AperFunction,Conductor*
G36*
X133969176Y-49097016D02*
G01*
X133993910Y-49099933D01*
X134002120Y-49106689D01*
X134012321Y-49109685D01*
X134028625Y-49128501D01*
X134047860Y-49144330D01*
X134054967Y-49158901D01*
X134058076Y-49162489D01*
X134059822Y-49168855D01*
X134063333Y-49176052D01*
X134067216Y-49188132D01*
X134070909Y-49222483D01*
X134121204Y-49357331D01*
X134121908Y-49358272D01*
X134124992Y-49367864D01*
X134125810Y-49400061D01*
X134128107Y-49432171D01*
X134126692Y-49434760D01*
X134126768Y-49437711D01*
X134110049Y-49465239D01*
X134094621Y-49493494D01*
X134092031Y-49494907D01*
X134090500Y-49497430D01*
X134054397Y-49520372D01*
X134029697Y-49530603D01*
X134029688Y-49530608D01*
X133898585Y-49618209D01*
X133898581Y-49618212D01*
X133863115Y-49653680D01*
X133801793Y-49687166D01*
X133775433Y-49690000D01*
X132765000Y-49690000D01*
X132765000Y-49090000D01*
X133945282Y-49090000D01*
X133969176Y-49097016D01*
G37*
G04 #@! TD.AperFunction*
G04 #@! TA.AperFunction,Conductor*
G36*
X162783039Y-107709685D02*
G01*
X162828794Y-107762489D01*
X162840000Y-107814000D01*
X162840000Y-113066000D01*
X162820315Y-113133039D01*
X162767511Y-113178794D01*
X162716000Y-113190000D01*
X159564000Y-113190000D01*
X159496961Y-113170315D01*
X159451206Y-113117511D01*
X159440000Y-113066000D01*
X159440000Y-110841096D01*
X159890000Y-110841096D01*
X159892897Y-110883824D01*
X159938831Y-111068523D01*
X160023390Y-111239022D01*
X160023392Y-111239025D01*
X160142632Y-111387366D01*
X160142633Y-111387367D01*
X160290974Y-111506607D01*
X160290977Y-111506609D01*
X160461476Y-111591168D01*
X160646175Y-111637102D01*
X160688903Y-111640000D01*
X160890000Y-111640000D01*
X161390000Y-111640000D01*
X161591097Y-111640000D01*
X161633824Y-111637102D01*
X161818523Y-111591168D01*
X161989022Y-111506609D01*
X161989025Y-111506607D01*
X162137366Y-111387367D01*
X162137367Y-111387366D01*
X162256607Y-111239025D01*
X162256609Y-111239022D01*
X162341168Y-111068523D01*
X162387102Y-110883824D01*
X162390000Y-110841096D01*
X162390000Y-110040000D01*
X161390000Y-110040000D01*
X161390000Y-111640000D01*
X160890000Y-111640000D01*
X160890000Y-110040000D01*
X159890000Y-110040000D01*
X159890000Y-110841096D01*
X159440000Y-110841096D01*
X159440000Y-108738903D01*
X159890000Y-108738903D01*
X159890000Y-109540000D01*
X160890000Y-109540000D01*
X161390000Y-109540000D01*
X162390000Y-109540000D01*
X162390000Y-108738903D01*
X162387102Y-108696175D01*
X162341168Y-108511476D01*
X162256609Y-108340977D01*
X162256607Y-108340974D01*
X162137367Y-108192633D01*
X162137366Y-108192632D01*
X161989025Y-108073392D01*
X161989022Y-108073390D01*
X161818523Y-107988831D01*
X161633824Y-107942897D01*
X161591097Y-107940000D01*
X161390000Y-107940000D01*
X161390000Y-109540000D01*
X160890000Y-109540000D01*
X160890000Y-107940000D01*
X160688903Y-107940000D01*
X160646175Y-107942897D01*
X160461476Y-107988831D01*
X160290977Y-108073390D01*
X160290974Y-108073392D01*
X160142633Y-108192632D01*
X160142632Y-108192633D01*
X160023392Y-108340974D01*
X160023390Y-108340977D01*
X159938831Y-108511476D01*
X159892897Y-108696175D01*
X159890000Y-108738903D01*
X159440000Y-108738903D01*
X159440000Y-107814000D01*
X159459685Y-107746961D01*
X159512489Y-107701206D01*
X159564000Y-107690000D01*
X162716000Y-107690000D01*
X162783039Y-107709685D01*
G37*
G04 #@! TD.AperFunction*
G04 #@! TA.AperFunction,Conductor*
G36*
X144665000Y-33665000D02*
G01*
X141494477Y-33665000D01*
X141470284Y-33662617D01*
X141365306Y-33641734D01*
X141303395Y-33609348D01*
X141268822Y-33548632D01*
X141265499Y-33520117D01*
X141265499Y-33417129D01*
X141265498Y-33417123D01*
X141259091Y-33357516D01*
X141208797Y-33222672D01*
X141208796Y-33222669D01*
X141208793Y-33222665D01*
X141205168Y-33216026D01*
X141190000Y-33156598D01*
X141190000Y-32823402D01*
X141197664Y-32780483D01*
X141203687Y-32764154D01*
X141208796Y-32757331D01*
X141259091Y-32622483D01*
X141260381Y-32610481D01*
X141265694Y-32596081D01*
X141277750Y-32579855D01*
X141285487Y-32561184D01*
X141298162Y-32552385D01*
X141307366Y-32539999D01*
X141326279Y-32532867D01*
X141342883Y-32521342D01*
X141367365Y-32517375D01*
X141372743Y-32515348D01*
X141375820Y-32516005D01*
X141382030Y-32515000D01*
X144265000Y-32515000D01*
X144665000Y-32515000D01*
X144665000Y-33665000D01*
G37*
G04 #@! TD.AperFunction*
G04 #@! TA.AperFunction,Conductor*
G36*
X206935158Y-82209685D02*
G01*
X206980913Y-82262489D01*
X206992101Y-82311862D01*
X207038687Y-85013862D01*
X207020161Y-85081231D01*
X206968153Y-85127890D01*
X206914705Y-85140000D01*
X206134579Y-85140000D01*
X206067540Y-85120315D01*
X206021785Y-85067511D01*
X206011841Y-84998353D01*
X206040866Y-84934797D01*
X206075427Y-84907751D01*
X206075263Y-84907484D01*
X206077598Y-84906052D01*
X206078287Y-84905514D01*
X206079417Y-84904938D01*
X206108646Y-84883701D01*
X206108646Y-84883700D01*
X205544915Y-84319968D01*
X205621413Y-84299471D01*
X205728587Y-84237594D01*
X205816094Y-84150087D01*
X205877971Y-84042913D01*
X205898468Y-83966414D01*
X206462200Y-84530146D01*
X206462201Y-84530146D01*
X206483436Y-84500919D01*
X206570616Y-84329821D01*
X206629959Y-84147184D01*
X206660000Y-83957515D01*
X206660000Y-83765484D01*
X206629959Y-83575815D01*
X206570616Y-83393178D01*
X206483434Y-83222077D01*
X206462201Y-83192852D01*
X206462200Y-83192851D01*
X205898468Y-83756584D01*
X205877971Y-83680087D01*
X205816094Y-83572913D01*
X205728587Y-83485406D01*
X205621413Y-83423529D01*
X205544914Y-83403031D01*
X206108646Y-82839298D01*
X206079415Y-82818061D01*
X205908321Y-82730883D01*
X205725684Y-82671540D01*
X205536015Y-82641500D01*
X205343985Y-82641500D01*
X205154315Y-82671540D01*
X204971678Y-82730883D01*
X204800578Y-82818064D01*
X204771352Y-82839298D01*
X204771351Y-82839298D01*
X205335085Y-83403031D01*
X205258587Y-83423529D01*
X205151413Y-83485406D01*
X205063906Y-83572913D01*
X205002029Y-83680087D01*
X204981531Y-83756584D01*
X204417798Y-83192851D01*
X204417798Y-83192852D01*
X204396564Y-83222078D01*
X204309383Y-83393178D01*
X204250040Y-83575815D01*
X204220000Y-83765484D01*
X204220000Y-83957515D01*
X204250040Y-84147184D01*
X204309383Y-84329821D01*
X204396561Y-84500915D01*
X204417798Y-84530146D01*
X204981531Y-83966414D01*
X205002029Y-84042913D01*
X205063906Y-84150087D01*
X205151413Y-84237594D01*
X205258587Y-84299471D01*
X205335085Y-84319968D01*
X204771351Y-84883700D01*
X204771352Y-84883701D01*
X204800578Y-84904936D01*
X204801713Y-84905514D01*
X204802067Y-84905848D01*
X204804733Y-84907482D01*
X204804389Y-84908042D01*
X204852510Y-84953487D01*
X204869307Y-85021308D01*
X204846771Y-85087443D01*
X204792057Y-85130896D01*
X204745421Y-85140000D01*
X203064000Y-85140000D01*
X202996961Y-85120315D01*
X202951206Y-85067511D01*
X202940000Y-85016000D01*
X202940000Y-82314000D01*
X202959685Y-82246961D01*
X203012489Y-82201206D01*
X203064000Y-82190000D01*
X206868119Y-82190000D01*
X206935158Y-82209685D01*
G37*
G04 #@! TD.AperFunction*
G04 #@! TA.AperFunction,Conductor*
G36*
X130833039Y-43459685D02*
G01*
X130878794Y-43512489D01*
X130890000Y-43564000D01*
X130890000Y-46715000D01*
X130890000Y-47791000D01*
X130870315Y-47858039D01*
X130817511Y-47903794D01*
X130766000Y-47915000D01*
X126164000Y-47915000D01*
X126096961Y-47895315D01*
X126051206Y-47842511D01*
X126040000Y-47791000D01*
X126040000Y-46514986D01*
X126765001Y-46514986D01*
X126775494Y-46617697D01*
X126830641Y-46784119D01*
X126830643Y-46784124D01*
X126922684Y-46933345D01*
X127046654Y-47057315D01*
X127195875Y-47149356D01*
X127195880Y-47149358D01*
X127362302Y-47204505D01*
X127362309Y-47204506D01*
X127465019Y-47214999D01*
X128289999Y-47214999D01*
X128790000Y-47214999D01*
X129614972Y-47214999D01*
X129614986Y-47214998D01*
X129717697Y-47204505D01*
X129884119Y-47149358D01*
X129884124Y-47149356D01*
X130033345Y-47057315D01*
X130157315Y-46933345D01*
X130249356Y-46784124D01*
X130249358Y-46784119D01*
X130304505Y-46617697D01*
X130304506Y-46617690D01*
X130314999Y-46514986D01*
X130315000Y-46514973D01*
X130315000Y-45927500D01*
X128790000Y-45927500D01*
X128790000Y-47214999D01*
X128289999Y-47214999D01*
X128290000Y-47214998D01*
X128290000Y-45927500D01*
X126765001Y-45927500D01*
X126765001Y-46514986D01*
X126040000Y-46514986D01*
X126040000Y-44840013D01*
X126765000Y-44840013D01*
X126765000Y-45427500D01*
X128290000Y-45427500D01*
X128790000Y-45427500D01*
X130314999Y-45427500D01*
X130314999Y-44840028D01*
X130314998Y-44840013D01*
X130304505Y-44737302D01*
X130249358Y-44570880D01*
X130249356Y-44570875D01*
X130157315Y-44421654D01*
X130033345Y-44297684D01*
X129884124Y-44205643D01*
X129884119Y-44205641D01*
X129717697Y-44150494D01*
X129717690Y-44150493D01*
X129614986Y-44140000D01*
X128790000Y-44140000D01*
X128790000Y-45427500D01*
X128290000Y-45427500D01*
X128290000Y-44140000D01*
X127465028Y-44140000D01*
X127465012Y-44140001D01*
X127362302Y-44150494D01*
X127195880Y-44205641D01*
X127195875Y-44205643D01*
X127046654Y-44297684D01*
X126922684Y-44421654D01*
X126830643Y-44570875D01*
X126830641Y-44570880D01*
X126775494Y-44737302D01*
X126775493Y-44737309D01*
X126765000Y-44840013D01*
X126040000Y-44840013D01*
X126040000Y-43564000D01*
X126059685Y-43496961D01*
X126112489Y-43451206D01*
X126164000Y-43440000D01*
X130766000Y-43440000D01*
X130833039Y-43459685D01*
G37*
G04 #@! TD.AperFunction*
G04 #@! TA.AperFunction,Conductor*
G36*
X204773039Y-72734685D02*
G01*
X204818794Y-72787489D01*
X204830000Y-72839000D01*
X204830000Y-75195000D01*
X204830000Y-75444545D01*
X204810315Y-75511584D01*
X204757511Y-75557339D01*
X204693398Y-75567903D01*
X204664988Y-75565000D01*
X204077500Y-75565000D01*
X204077500Y-78784146D01*
X203577500Y-78786900D01*
X203577500Y-77590000D01*
X203015000Y-77590000D01*
X203015000Y-77340000D01*
X202365000Y-77340000D01*
X201590000Y-78365000D01*
X201590000Y-76265013D01*
X202290000Y-76265013D01*
X202290000Y-77090000D01*
X203577500Y-77090000D01*
X203577500Y-75565000D01*
X202990028Y-75565000D01*
X202990012Y-75565001D01*
X202887302Y-75575494D01*
X202720880Y-75630641D01*
X202720875Y-75630643D01*
X202571654Y-75722684D01*
X202447684Y-75846654D01*
X202355643Y-75995875D01*
X202355641Y-75995880D01*
X202300494Y-76162302D01*
X202300493Y-76162309D01*
X202290000Y-76265013D01*
X201590000Y-76265013D01*
X201590000Y-74388322D01*
X203715001Y-74388322D01*
X203725144Y-74487607D01*
X203778452Y-74648481D01*
X203778457Y-74648492D01*
X203867424Y-74792728D01*
X203867427Y-74792732D01*
X203987267Y-74912572D01*
X203987271Y-74912575D01*
X204131507Y-75001542D01*
X204131518Y-75001547D01*
X204292393Y-75054855D01*
X204391683Y-75064999D01*
X204415000Y-75064998D01*
X204415000Y-74340000D01*
X203715001Y-74340000D01*
X203715001Y-74388322D01*
X201590000Y-74388322D01*
X201590000Y-73791677D01*
X203715000Y-73791677D01*
X203715000Y-73840000D01*
X204415000Y-73840000D01*
X204415000Y-73114999D01*
X204391693Y-73115000D01*
X204391674Y-73115001D01*
X204292392Y-73125144D01*
X204131518Y-73178452D01*
X204131507Y-73178457D01*
X203987271Y-73267424D01*
X203987267Y-73267427D01*
X203867427Y-73387267D01*
X203867424Y-73387271D01*
X203778457Y-73531507D01*
X203778452Y-73531518D01*
X203725144Y-73692393D01*
X203715000Y-73791677D01*
X201590000Y-73791677D01*
X201590000Y-72839000D01*
X201609685Y-72771961D01*
X201662489Y-72726206D01*
X201714000Y-72715000D01*
X204706000Y-72715000D01*
X204773039Y-72734685D01*
G37*
G04 #@! TD.AperFunction*
G04 #@! TA.AperFunction,Conductor*
G36*
X141036231Y-34960185D02*
G01*
X141056873Y-34976819D01*
X141503181Y-35423126D01*
X141536666Y-35484449D01*
X141539500Y-35510807D01*
X141539500Y-36588125D01*
X141530855Y-36617565D01*
X141524332Y-36647552D01*
X141520577Y-36652567D01*
X141519815Y-36655164D01*
X141503181Y-36675806D01*
X141502327Y-36676660D01*
X141441004Y-36710145D01*
X141371312Y-36705161D01*
X141326965Y-36676660D01*
X141317732Y-36667427D01*
X141317728Y-36667424D01*
X141173492Y-36578457D01*
X141173481Y-36578452D01*
X141012606Y-36525144D01*
X140913322Y-36515000D01*
X140890000Y-36515000D01*
X140890000Y-38464999D01*
X140895181Y-38470180D01*
X140928666Y-38531503D01*
X140931398Y-38562894D01*
X140929735Y-38603834D01*
X140919309Y-38634652D01*
X140910152Y-38665840D01*
X140907752Y-38668817D01*
X140907346Y-38670019D01*
X140905773Y-38671273D01*
X140893517Y-38686483D01*
X140840441Y-38739558D01*
X140779118Y-38773042D01*
X140740159Y-38775234D01*
X140639988Y-38765000D01*
X140577500Y-38765000D01*
X140577500Y-41164999D01*
X140639972Y-41164999D01*
X140639986Y-41164998D01*
X140703398Y-41158520D01*
X140772090Y-41171289D01*
X140822975Y-41219170D01*
X140840000Y-41281878D01*
X140840000Y-41441000D01*
X140820315Y-41508039D01*
X140767511Y-41553794D01*
X140716000Y-41565000D01*
X139114000Y-41565000D01*
X139046961Y-41545315D01*
X139001206Y-41492511D01*
X138990000Y-41441000D01*
X138990000Y-40464986D01*
X139315001Y-40464986D01*
X139325494Y-40567697D01*
X139380641Y-40734119D01*
X139380643Y-40734124D01*
X139472684Y-40883345D01*
X139596654Y-41007315D01*
X139745875Y-41099356D01*
X139745880Y-41099358D01*
X139912302Y-41154505D01*
X139912309Y-41154506D01*
X140015019Y-41164999D01*
X140077499Y-41164998D01*
X140077500Y-41164998D01*
X140077500Y-40215000D01*
X139315001Y-40215000D01*
X139315001Y-40464986D01*
X138990000Y-40464986D01*
X138990000Y-39465013D01*
X139315000Y-39465013D01*
X139315000Y-39715000D01*
X140077500Y-39715000D01*
X140077500Y-38765000D01*
X140077499Y-38764999D01*
X140015028Y-38765000D01*
X140015011Y-38765001D01*
X139912302Y-38775494D01*
X139745880Y-38830641D01*
X139745875Y-38830643D01*
X139596654Y-38922684D01*
X139472684Y-39046654D01*
X139380643Y-39195875D01*
X139380641Y-39195880D01*
X139325494Y-39362302D01*
X139325493Y-39362309D01*
X139315000Y-39465013D01*
X138990000Y-39465013D01*
X138990000Y-37788322D01*
X139690001Y-37788322D01*
X139700144Y-37887607D01*
X139753452Y-38048481D01*
X139753457Y-38048492D01*
X139842424Y-38192728D01*
X139842427Y-38192732D01*
X139962267Y-38312572D01*
X139962271Y-38312575D01*
X140106507Y-38401542D01*
X140106518Y-38401547D01*
X140267393Y-38454855D01*
X140366683Y-38464999D01*
X140390000Y-38464998D01*
X140390000Y-37740000D01*
X139690001Y-37740000D01*
X139690001Y-37788322D01*
X138990000Y-37788322D01*
X138990000Y-37191677D01*
X139690000Y-37191677D01*
X139690000Y-37240000D01*
X140390000Y-37240000D01*
X140390000Y-36514999D01*
X140366693Y-36515000D01*
X140366674Y-36515001D01*
X140267392Y-36525144D01*
X140106518Y-36578452D01*
X140106507Y-36578457D01*
X139962271Y-36667424D01*
X139962267Y-36667427D01*
X139842427Y-36787267D01*
X139842424Y-36787271D01*
X139753457Y-36931507D01*
X139753452Y-36931518D01*
X139700144Y-37092393D01*
X139690000Y-37191677D01*
X138990000Y-37191677D01*
X138990000Y-36441362D01*
X138992895Y-36414726D01*
X139017895Y-36301058D01*
X139028485Y-36281768D01*
X139034685Y-36260655D01*
X139047825Y-36246540D01*
X139051520Y-36239812D01*
X139056719Y-36236988D01*
X139064690Y-36228426D01*
X139072546Y-36222546D01*
X139141733Y-36130123D01*
X139197667Y-36088253D01*
X139267359Y-36083269D01*
X139328682Y-36116754D01*
X139362166Y-36178078D01*
X139365000Y-36204435D01*
X139365000Y-36365000D01*
X139412828Y-36365000D01*
X139412844Y-36364999D01*
X139472372Y-36358598D01*
X139472379Y-36358596D01*
X139607086Y-36308354D01*
X139607093Y-36308350D01*
X139722187Y-36222190D01*
X139722190Y-36222187D01*
X139808350Y-36107093D01*
X139808354Y-36107086D01*
X139858596Y-35972379D01*
X139858598Y-35972372D01*
X139864999Y-35912844D01*
X139865000Y-35912827D01*
X139865000Y-35515000D01*
X139339499Y-35515000D01*
X139330813Y-35512449D01*
X139321852Y-35513738D01*
X139297811Y-35502759D01*
X139272460Y-35495315D01*
X139266532Y-35488474D01*
X139258296Y-35484713D01*
X139244006Y-35462478D01*
X139226705Y-35442511D01*
X139224417Y-35431996D01*
X139220522Y-35425935D01*
X139215499Y-35391000D01*
X139215499Y-35289000D01*
X139235184Y-35221961D01*
X139287988Y-35176206D01*
X139339499Y-35165000D01*
X139865000Y-35165000D01*
X139865000Y-35089499D01*
X139884685Y-35022460D01*
X139937489Y-34976705D01*
X139989000Y-34965499D01*
X140812871Y-34965499D01*
X140812872Y-34965499D01*
X140872483Y-34959091D01*
X140901367Y-34948317D01*
X140944700Y-34940500D01*
X140969192Y-34940500D01*
X141036231Y-34960185D01*
G37*
G04 #@! TD.AperFunction*
G04 #@! TA.AperFunction,Conductor*
G36*
X148758039Y-50609685D02*
G01*
X148803794Y-50662489D01*
X148815000Y-50714000D01*
X148815000Y-54316000D01*
X148795315Y-54383039D01*
X148742511Y-54428794D01*
X148691000Y-54440000D01*
X144514000Y-54440000D01*
X144446961Y-54420315D01*
X144401206Y-54367511D01*
X144390000Y-54316000D01*
X144390000Y-53389986D01*
X144815001Y-53389986D01*
X144825494Y-53492697D01*
X144880641Y-53659119D01*
X144880643Y-53659124D01*
X144972684Y-53808345D01*
X145096654Y-53932315D01*
X145245875Y-54024356D01*
X145245880Y-54024358D01*
X145412302Y-54079505D01*
X145412309Y-54079506D01*
X145515019Y-54089999D01*
X146339999Y-54089999D01*
X146840000Y-54089999D01*
X147664972Y-54089999D01*
X147664986Y-54089998D01*
X147767697Y-54079505D01*
X147934119Y-54024358D01*
X147934124Y-54024356D01*
X148083345Y-53932315D01*
X148207315Y-53808345D01*
X148299356Y-53659124D01*
X148299358Y-53659119D01*
X148354505Y-53492697D01*
X148354506Y-53492690D01*
X148364999Y-53389986D01*
X148365000Y-53389973D01*
X148365000Y-52802500D01*
X146840000Y-52802500D01*
X146840000Y-54089999D01*
X146339999Y-54089999D01*
X146340000Y-54089998D01*
X146340000Y-52802500D01*
X144815001Y-52802500D01*
X144815001Y-53389986D01*
X144390000Y-53389986D01*
X144390000Y-53140000D01*
X144815000Y-53140000D01*
X144815000Y-52302500D01*
X146340000Y-52302500D01*
X146840000Y-52302500D01*
X148364999Y-52302500D01*
X148364999Y-51715028D01*
X148364998Y-51715013D01*
X148354505Y-51612302D01*
X148299358Y-51445880D01*
X148299356Y-51445875D01*
X148207315Y-51296654D01*
X148083345Y-51172684D01*
X147934124Y-51080643D01*
X147934119Y-51080641D01*
X147767697Y-51025494D01*
X147767690Y-51025493D01*
X147664986Y-51015000D01*
X146840000Y-51015000D01*
X146840000Y-52302500D01*
X146340000Y-52302500D01*
X146340000Y-51015000D01*
X145515028Y-51015000D01*
X145515012Y-51015001D01*
X145412302Y-51025494D01*
X145245880Y-51080641D01*
X145245875Y-51080643D01*
X145096654Y-51172684D01*
X144972684Y-51296654D01*
X144880643Y-51445875D01*
X144880641Y-51445880D01*
X144825494Y-51612302D01*
X144825493Y-51612309D01*
X144815000Y-51715013D01*
X144815000Y-50590000D01*
X148691000Y-50590000D01*
X148758039Y-50609685D01*
G37*
G04 #@! TD.AperFunction*
G04 #@! TA.AperFunction,Conductor*
G36*
X203015000Y-77590000D02*
G01*
X202290000Y-77590000D01*
X202290000Y-78414971D01*
X202290001Y-78414987D01*
X202300494Y-78517697D01*
X202355641Y-78684119D01*
X202355643Y-78684124D01*
X202447684Y-78833345D01*
X202571654Y-78957315D01*
X202720875Y-79049356D01*
X202720880Y-79049358D01*
X202887302Y-79104505D01*
X202887309Y-79104506D01*
X202990019Y-79114999D01*
X203577499Y-79114999D01*
X203577500Y-79114998D01*
X203577500Y-78786900D01*
X204077500Y-78784146D01*
X204077500Y-79114999D01*
X204664972Y-79114999D01*
X204664979Y-79114998D01*
X204693395Y-79112095D01*
X204762088Y-79124863D01*
X204812974Y-79172742D01*
X204830000Y-79235453D01*
X204830000Y-79608876D01*
X204810315Y-79675915D01*
X204757511Y-79721670D01*
X204755669Y-79722494D01*
X199358648Y-82081847D01*
X199355489Y-82082651D01*
X199354093Y-82083731D01*
X199319725Y-82091762D01*
X199284226Y-82094850D01*
X199273972Y-82095316D01*
X198519592Y-82098309D01*
X198452475Y-82078891D01*
X198406511Y-82026269D01*
X198399121Y-81992621D01*
X198395100Y-81988600D01*
X191984900Y-81988600D01*
X191984900Y-82000732D01*
X191965215Y-82067771D01*
X191912411Y-82113526D01*
X191861392Y-82124731D01*
X191597845Y-82125777D01*
X191530728Y-82106359D01*
X191484764Y-82053737D01*
X191473360Y-82000465D01*
X191490000Y-80429156D01*
X191490000Y-80242955D01*
X191984900Y-80242955D01*
X191984900Y-81488600D01*
X194940000Y-81488600D01*
X195440000Y-81488600D01*
X198395100Y-81488600D01*
X198395100Y-80242972D01*
X198395099Y-80242955D01*
X198388698Y-80183427D01*
X198388696Y-80183420D01*
X198338454Y-80048713D01*
X198338450Y-80048706D01*
X198252290Y-79933612D01*
X198252287Y-79933609D01*
X198137193Y-79847449D01*
X198137186Y-79847445D01*
X198002479Y-79797203D01*
X198002472Y-79797201D01*
X197942944Y-79790800D01*
X195440000Y-79790800D01*
X195440000Y-81488600D01*
X194940000Y-81488600D01*
X194940000Y-79790800D01*
X192437055Y-79790800D01*
X192377527Y-79797201D01*
X192377520Y-79797203D01*
X192242813Y-79847445D01*
X192242806Y-79847449D01*
X192127712Y-79933609D01*
X192127709Y-79933612D01*
X192041549Y-80048706D01*
X192041545Y-80048713D01*
X191991303Y-80183420D01*
X191991301Y-80183427D01*
X191984900Y-80242955D01*
X191490000Y-80242955D01*
X191490000Y-79552508D01*
X191509685Y-79485469D01*
X191562489Y-79439714D01*
X191613479Y-79428509D01*
X200815000Y-79390000D01*
X201590000Y-78365000D01*
X202365000Y-77340000D01*
X203015000Y-77340000D01*
X203015000Y-77590000D01*
G37*
G04 #@! TD.AperFunction*
G04 #@! TA.AperFunction,Conductor*
G36*
X80383039Y-53109685D02*
G01*
X80428794Y-53162489D01*
X80440000Y-53214000D01*
X80440000Y-59690000D01*
X81990000Y-62240000D01*
X109146924Y-62190040D01*
X109189581Y-62197525D01*
X131867851Y-70456722D01*
X131924106Y-70498159D01*
X131949029Y-70563432D01*
X131949416Y-70572820D01*
X131967880Y-76091566D01*
X131970554Y-76890585D01*
X131951094Y-76957690D01*
X131898444Y-77003621D01*
X131846555Y-77015000D01*
X126061933Y-77015000D01*
X125994894Y-76995315D01*
X125949139Y-76942511D01*
X125937951Y-76893084D01*
X125923867Y-76055071D01*
X125901745Y-74738806D01*
X127065000Y-74738806D01*
X127065000Y-74941193D01*
X127096657Y-75141072D01*
X127159197Y-75333547D01*
X127251075Y-75513864D01*
X127370020Y-75677581D01*
X127513130Y-75820691D01*
X127566777Y-75859667D01*
X127566779Y-75859667D01*
X128222170Y-75204276D01*
X128257993Y-75240099D01*
X128372007Y-75305925D01*
X128499174Y-75340000D01*
X128793552Y-75340000D01*
X128041984Y-76091566D01*
X128049640Y-76094054D01*
X128049654Y-76094058D01*
X128249521Y-76125714D01*
X129630479Y-76125714D01*
X129830351Y-76094057D01*
X129838014Y-76091566D01*
X129086448Y-75340000D01*
X129380826Y-75340000D01*
X129507993Y-75305925D01*
X129622007Y-75240099D01*
X129657829Y-75204277D01*
X130313219Y-75859667D01*
X130313220Y-75859667D01*
X130366873Y-75820687D01*
X130509980Y-75677579D01*
X130628924Y-75513864D01*
X130720802Y-75333547D01*
X130783342Y-75141072D01*
X130815000Y-74941193D01*
X130815000Y-74738806D01*
X130783342Y-74538927D01*
X130720802Y-74346452D01*
X130628924Y-74166135D01*
X130509979Y-74002418D01*
X130366873Y-73859312D01*
X130313220Y-73820331D01*
X130313219Y-73820331D01*
X129657828Y-74475722D01*
X129622007Y-74439901D01*
X129507993Y-74374075D01*
X129380826Y-74340000D01*
X129086449Y-74340000D01*
X129838015Y-73588432D01*
X129830352Y-73585943D01*
X129630479Y-73554286D01*
X128249521Y-73554286D01*
X128049649Y-73585942D01*
X128049637Y-73585945D01*
X128041983Y-73588432D01*
X128793552Y-74340000D01*
X128499174Y-74340000D01*
X128372007Y-74374075D01*
X128257993Y-74439901D01*
X128222171Y-74475722D01*
X127566780Y-73820331D01*
X127566778Y-73820330D01*
X127513133Y-73859307D01*
X127513124Y-73859314D01*
X127370020Y-74002418D01*
X127251075Y-74166135D01*
X127159197Y-74346452D01*
X127096657Y-74538927D01*
X127065000Y-74738806D01*
X125901745Y-74738806D01*
X125901698Y-74736024D01*
X125892120Y-74166135D01*
X125877903Y-73320215D01*
X107215000Y-67140000D01*
X107214998Y-67140000D01*
X107214993Y-67139999D01*
X78213798Y-67239746D01*
X78146692Y-67220292D01*
X78104584Y-67175255D01*
X75432460Y-62290278D01*
X75424726Y-62273181D01*
X75412649Y-62240000D01*
X75346312Y-62057739D01*
X75150519Y-61637859D01*
X75150515Y-61637852D01*
X74956613Y-61302002D01*
X74940000Y-61240002D01*
X74940000Y-55341096D01*
X75790000Y-55341096D01*
X75792897Y-55383824D01*
X75838831Y-55568523D01*
X75923390Y-55739022D01*
X75923392Y-55739025D01*
X76042632Y-55887366D01*
X76042633Y-55887367D01*
X76190974Y-56006607D01*
X76190977Y-56006609D01*
X76361476Y-56091168D01*
X76546175Y-56137102D01*
X76588903Y-56140000D01*
X77390000Y-56140000D01*
X77890000Y-56140000D01*
X78691097Y-56140000D01*
X78733824Y-56137102D01*
X78918523Y-56091168D01*
X79089022Y-56006609D01*
X79089025Y-56006607D01*
X79237366Y-55887367D01*
X79237367Y-55887366D01*
X79356607Y-55739025D01*
X79356609Y-55739022D01*
X79441168Y-55568523D01*
X79487102Y-55383824D01*
X79490000Y-55341096D01*
X79490000Y-55140000D01*
X77890000Y-55140000D01*
X77890000Y-56140000D01*
X77390000Y-56140000D01*
X77390000Y-55140000D01*
X75790000Y-55140000D01*
X75790000Y-55341096D01*
X74940000Y-55341096D01*
X74940000Y-54438903D01*
X75790000Y-54438903D01*
X75790000Y-54640000D01*
X77390000Y-54640000D01*
X77890000Y-54640000D01*
X79490000Y-54640000D01*
X79490000Y-54438903D01*
X79487102Y-54396175D01*
X79441168Y-54211476D01*
X79356609Y-54040977D01*
X79356607Y-54040974D01*
X79237367Y-53892633D01*
X79237366Y-53892632D01*
X79089025Y-53773392D01*
X79089022Y-53773390D01*
X78918523Y-53688831D01*
X78733824Y-53642897D01*
X78691097Y-53640000D01*
X77890000Y-53640000D01*
X77890000Y-54640000D01*
X77390000Y-54640000D01*
X77390000Y-53640000D01*
X76588903Y-53640000D01*
X76546175Y-53642897D01*
X76361476Y-53688831D01*
X76190977Y-53773390D01*
X76190974Y-53773392D01*
X76042633Y-53892632D01*
X76042632Y-53892633D01*
X75923392Y-54040974D01*
X75923390Y-54040977D01*
X75838831Y-54211476D01*
X75792897Y-54396175D01*
X75790000Y-54438903D01*
X74940000Y-54438903D01*
X74940000Y-53214000D01*
X74959685Y-53146961D01*
X75012489Y-53101206D01*
X75064000Y-53090000D01*
X80316000Y-53090000D01*
X80383039Y-53109685D01*
G37*
G04 #@! TD.AperFunction*
G04 #@! TA.AperFunction,Conductor*
G36*
X221692539Y-21410185D02*
G01*
X221738294Y-21462989D01*
X221749500Y-21514500D01*
X221749500Y-35666000D01*
X221729815Y-35733039D01*
X221677011Y-35778794D01*
X221625500Y-35790000D01*
X217500552Y-35790000D01*
X217494451Y-35789850D01*
X217440000Y-35787167D01*
X217440000Y-35780810D01*
X220939999Y-35780810D01*
X220939999Y-28280810D01*
X217440000Y-28280810D01*
X217440000Y-25090000D01*
X60440000Y-25090000D01*
X60440000Y-149090000D01*
X217440000Y-149090000D01*
X217440000Y-120190000D01*
X218940000Y-120190000D01*
X218940000Y-120090000D01*
X221749500Y-120090000D01*
X221749500Y-152665500D01*
X221729815Y-152732539D01*
X221677011Y-152778294D01*
X221625500Y-152789500D01*
X56794500Y-152789500D01*
X56727461Y-152769815D01*
X56681706Y-152717011D01*
X56670500Y-152665500D01*
X56670500Y-21514500D01*
X56690185Y-21447461D01*
X56742989Y-21401706D01*
X56794500Y-21390500D01*
X221625500Y-21390500D01*
X221692539Y-21410185D01*
G37*
G04 #@! TD.AperFunction*
G04 #@! TA.AperFunction,Conductor*
G36*
X221692539Y-61609685D02*
G01*
X221738294Y-61662489D01*
X221749500Y-61714000D01*
X221749500Y-113090000D01*
X217440000Y-113090000D01*
X217440000Y-69090000D01*
X220939999Y-69090000D01*
X220939999Y-61590000D01*
X221625500Y-61590000D01*
X221692539Y-61609685D01*
G37*
G04 #@! TD.AperFunction*
G04 #@! TA.AperFunction,Conductor*
G36*
X221749500Y-120090000D02*
G01*
X218940000Y-120090000D01*
X218940000Y-115490000D01*
X217440000Y-115490000D01*
X217440000Y-113090000D01*
X221749500Y-113090000D01*
X221749500Y-120090000D01*
G37*
G04 #@! TD.AperFunction*
G04 #@! TA.AperFunction,Conductor*
G36*
X106566034Y-28343558D02*
G01*
X106633067Y-28363259D01*
X106678809Y-28416074D01*
X106690002Y-28467558D01*
X106690002Y-34282170D01*
X106670317Y-34349209D01*
X106617513Y-34394964D01*
X106565767Y-34406170D01*
X85063767Y-34365394D01*
X84996765Y-34345582D01*
X84951110Y-34292691D01*
X84940002Y-34241394D01*
X84940002Y-31978575D01*
X86240000Y-31978575D01*
X86240000Y-32201424D01*
X86269085Y-32422354D01*
X86269088Y-32422367D01*
X86326763Y-32637618D01*
X86412045Y-32843502D01*
X86412054Y-32843520D01*
X86523464Y-33036491D01*
X86523473Y-33036504D01*
X86574040Y-33102403D01*
X86574043Y-33102403D01*
X87375387Y-32301059D01*
X87380889Y-32321591D01*
X87459881Y-32458408D01*
X87571592Y-32570119D01*
X87708409Y-32649111D01*
X87728940Y-32654612D01*
X86927595Y-33455955D01*
X86927595Y-33455956D01*
X86993507Y-33506533D01*
X87186485Y-33617949D01*
X87186497Y-33617954D01*
X87392381Y-33703236D01*
X87607632Y-33760911D01*
X87607645Y-33760914D01*
X87828575Y-33790000D01*
X88051425Y-33790000D01*
X88272354Y-33760914D01*
X88272367Y-33760911D01*
X88487618Y-33703236D01*
X88693502Y-33617954D01*
X88693514Y-33617949D01*
X88886498Y-33506530D01*
X88952403Y-33455957D01*
X88952404Y-33455956D01*
X88151059Y-32654612D01*
X88171591Y-32649111D01*
X88308408Y-32570119D01*
X88420119Y-32458408D01*
X88499111Y-32321591D01*
X88504612Y-32301059D01*
X89305956Y-33102404D01*
X89305957Y-33102403D01*
X89356530Y-33036498D01*
X89467949Y-32843514D01*
X89467954Y-32843502D01*
X89553236Y-32637618D01*
X89610911Y-32422367D01*
X89610914Y-32422354D01*
X89640000Y-32201424D01*
X89640000Y-31978575D01*
X101240000Y-31978575D01*
X101240000Y-32201424D01*
X101269085Y-32422354D01*
X101269088Y-32422367D01*
X101326763Y-32637618D01*
X101412045Y-32843502D01*
X101412054Y-32843520D01*
X101523464Y-33036491D01*
X101523473Y-33036504D01*
X101574040Y-33102403D01*
X101574043Y-33102403D01*
X102375387Y-32301059D01*
X102380889Y-32321591D01*
X102459881Y-32458408D01*
X102571592Y-32570119D01*
X102708409Y-32649111D01*
X102728940Y-32654612D01*
X101927595Y-33455955D01*
X101927595Y-33455956D01*
X101993507Y-33506533D01*
X102186485Y-33617949D01*
X102186497Y-33617954D01*
X102392381Y-33703236D01*
X102607632Y-33760911D01*
X102607645Y-33760914D01*
X102828575Y-33790000D01*
X103051425Y-33790000D01*
X103272354Y-33760914D01*
X103272367Y-33760911D01*
X103487618Y-33703236D01*
X103693502Y-33617954D01*
X103693514Y-33617949D01*
X103886498Y-33506530D01*
X103952403Y-33455957D01*
X103952404Y-33455956D01*
X103151059Y-32654612D01*
X103171591Y-32649111D01*
X103308408Y-32570119D01*
X103420119Y-32458408D01*
X103499111Y-32321591D01*
X103504612Y-32301059D01*
X104305956Y-33102404D01*
X104305957Y-33102403D01*
X104356530Y-33036498D01*
X104467949Y-32843514D01*
X104467954Y-32843502D01*
X104553236Y-32637618D01*
X104610911Y-32422367D01*
X104610914Y-32422354D01*
X104640000Y-32201424D01*
X104640000Y-31978575D01*
X104610914Y-31757645D01*
X104610911Y-31757632D01*
X104553236Y-31542381D01*
X104467954Y-31336497D01*
X104467949Y-31336485D01*
X104356533Y-31143507D01*
X104305956Y-31077595D01*
X104305955Y-31077595D01*
X103504612Y-31878939D01*
X103499111Y-31858409D01*
X103420119Y-31721592D01*
X103308408Y-31609881D01*
X103171591Y-31530889D01*
X103151058Y-31525387D01*
X103952403Y-30724043D01*
X103952403Y-30724040D01*
X103886504Y-30673473D01*
X103886491Y-30673464D01*
X103693520Y-30562054D01*
X103693502Y-30562045D01*
X103487618Y-30476763D01*
X103272367Y-30419088D01*
X103272354Y-30419085D01*
X103051425Y-30390000D01*
X102828575Y-30390000D01*
X102607645Y-30419085D01*
X102607632Y-30419088D01*
X102392381Y-30476763D01*
X102186497Y-30562045D01*
X102186479Y-30562054D01*
X101993511Y-30673462D01*
X101927595Y-30724042D01*
X102728941Y-31525387D01*
X102708409Y-31530889D01*
X102571592Y-31609881D01*
X102459881Y-31721592D01*
X102380889Y-31858409D01*
X102375387Y-31878940D01*
X101574042Y-31077595D01*
X101523462Y-31143511D01*
X101412054Y-31336479D01*
X101412045Y-31336497D01*
X101326763Y-31542381D01*
X101269088Y-31757632D01*
X101269085Y-31757645D01*
X101240000Y-31978575D01*
X89640000Y-31978575D01*
X89610914Y-31757645D01*
X89610911Y-31757632D01*
X89553236Y-31542381D01*
X89467954Y-31336497D01*
X89467949Y-31336485D01*
X89356533Y-31143507D01*
X89305956Y-31077595D01*
X89305955Y-31077595D01*
X88504612Y-31878939D01*
X88499111Y-31858409D01*
X88420119Y-31721592D01*
X88308408Y-31609881D01*
X88171591Y-31530889D01*
X88151058Y-31525387D01*
X88952403Y-30724043D01*
X88952403Y-30724041D01*
X88886504Y-30673473D01*
X88886491Y-30673464D01*
X88693520Y-30562054D01*
X88693502Y-30562045D01*
X88487618Y-30476763D01*
X88272367Y-30419088D01*
X88272354Y-30419085D01*
X88051425Y-30390000D01*
X87828575Y-30390000D01*
X87607645Y-30419085D01*
X87607632Y-30419088D01*
X87392381Y-30476763D01*
X87186497Y-30562045D01*
X87186479Y-30562054D01*
X86993511Y-30673462D01*
X86927595Y-30724042D01*
X87728941Y-31525387D01*
X87708409Y-31530889D01*
X87571592Y-31609881D01*
X87459881Y-31721592D01*
X87380889Y-31858409D01*
X87375387Y-31878940D01*
X86574042Y-31077595D01*
X86523462Y-31143511D01*
X86412054Y-31336479D01*
X86412045Y-31336497D01*
X86326763Y-31542381D01*
X86269088Y-31757632D01*
X86269085Y-31757645D01*
X86240000Y-31978575D01*
X84940002Y-31978575D01*
X84940002Y-28462235D01*
X84959687Y-28395196D01*
X85012491Y-28349441D01*
X85064029Y-28338235D01*
X106566034Y-28343558D01*
G37*
G04 #@! TD.AperFunction*
G04 #@! TA.AperFunction,Conductor*
G36*
X157078271Y-116010767D02*
G01*
X157094287Y-116022831D01*
X157133472Y-116057655D01*
X158398372Y-117181792D01*
X158435406Y-117241039D01*
X158440000Y-117274478D01*
X158440000Y-118440000D01*
X170101806Y-128439999D01*
X178439998Y-135589999D01*
X178439999Y-135589999D01*
X178440000Y-135590000D01*
X181899904Y-135590000D01*
X181966943Y-135609685D01*
X181972505Y-135613476D01*
X183688601Y-136852879D01*
X183731423Y-136908087D01*
X183740000Y-136953402D01*
X183740000Y-139533869D01*
X183720315Y-139600908D01*
X183697825Y-139627039D01*
X182180990Y-140959170D01*
X182117629Y-140988618D01*
X182099165Y-140990000D01*
X178691362Y-140990000D01*
X178624323Y-140970315D01*
X178603681Y-140953681D01*
X176639997Y-138989997D01*
X175508029Y-138052748D01*
X175398560Y-137962110D01*
X179315000Y-137962110D01*
X179315000Y-138217889D01*
X179355013Y-138470523D01*
X179434051Y-138713781D01*
X179434052Y-138713784D01*
X179550175Y-138941686D01*
X179627850Y-139048595D01*
X179627850Y-139048596D01*
X180262421Y-138414024D01*
X180275359Y-138445258D01*
X180357437Y-138568097D01*
X180461903Y-138672563D01*
X180584742Y-138754641D01*
X180615974Y-138767577D01*
X179981402Y-139402148D01*
X180088313Y-139479824D01*
X180316215Y-139595947D01*
X180316218Y-139595948D01*
X180559476Y-139674986D01*
X180812111Y-139715000D01*
X181067889Y-139715000D01*
X181320523Y-139674986D01*
X181563781Y-139595948D01*
X181563784Y-139595947D01*
X181791685Y-139479825D01*
X181898595Y-139402148D01*
X181898596Y-139402148D01*
X181264025Y-138767578D01*
X181295258Y-138754641D01*
X181418097Y-138672563D01*
X181522563Y-138568097D01*
X181604641Y-138445258D01*
X181617577Y-138414025D01*
X182252148Y-139048596D01*
X182252148Y-139048595D01*
X182329825Y-138941685D01*
X182445947Y-138713784D01*
X182445948Y-138713781D01*
X182524986Y-138470523D01*
X182565000Y-138217889D01*
X182565000Y-137962110D01*
X182524986Y-137709476D01*
X182445948Y-137466218D01*
X182445947Y-137466215D01*
X182329824Y-137238313D01*
X182252148Y-137131403D01*
X182252148Y-137131402D01*
X181617577Y-137765973D01*
X181604641Y-137734742D01*
X181522563Y-137611903D01*
X181418097Y-137507437D01*
X181295258Y-137425359D01*
X181264024Y-137412421D01*
X181898596Y-136777850D01*
X181791686Y-136700175D01*
X181563784Y-136584052D01*
X181563781Y-136584051D01*
X181320523Y-136505013D01*
X181067889Y-136465000D01*
X180812111Y-136465000D01*
X180559476Y-136505013D01*
X180316218Y-136584051D01*
X180316215Y-136584052D01*
X180088310Y-136700177D01*
X179981403Y-136777849D01*
X179981402Y-136777850D01*
X180615974Y-137412421D01*
X180584742Y-137425359D01*
X180461903Y-137507437D01*
X180357437Y-137611903D01*
X180275359Y-137734742D01*
X180262421Y-137765974D01*
X179627850Y-137131402D01*
X179627849Y-137131403D01*
X179550177Y-137238310D01*
X179434052Y-137466215D01*
X179434051Y-137466218D01*
X179355013Y-137709476D01*
X179315000Y-137962110D01*
X175398560Y-137962110D01*
X174140694Y-136920620D01*
X154840000Y-120939999D01*
X142887440Y-120989802D01*
X142820319Y-120970397D01*
X142804542Y-120958482D01*
X141981619Y-120226994D01*
X141944591Y-120167743D01*
X141940000Y-120134315D01*
X141940000Y-117590000D01*
X143182899Y-117590000D01*
X143146303Y-117688120D01*
X143146301Y-117688127D01*
X143139900Y-117747655D01*
X143139900Y-118345600D01*
X143953756Y-118345600D01*
X143931116Y-118384813D01*
X143893900Y-118523705D01*
X143893900Y-118667495D01*
X143931116Y-118806387D01*
X143953756Y-118845600D01*
X143139900Y-118845600D01*
X143139900Y-119443544D01*
X143146301Y-119503072D01*
X143146303Y-119503079D01*
X143196545Y-119637786D01*
X143196549Y-119637793D01*
X143282709Y-119752887D01*
X143282712Y-119752890D01*
X143397806Y-119839050D01*
X143397813Y-119839054D01*
X143532520Y-119889296D01*
X143532527Y-119889298D01*
X143592055Y-119895699D01*
X143592072Y-119895700D01*
X144190000Y-119895700D01*
X144190000Y-119081844D01*
X144229213Y-119104484D01*
X144368105Y-119141700D01*
X144511895Y-119141700D01*
X144650787Y-119104484D01*
X144690000Y-119081844D01*
X144690000Y-119895700D01*
X145287928Y-119895700D01*
X145287944Y-119895699D01*
X145347472Y-119889298D01*
X145347479Y-119889296D01*
X145482186Y-119839054D01*
X145482193Y-119839050D01*
X145597287Y-119752890D01*
X145597290Y-119752887D01*
X145683450Y-119637793D01*
X145683454Y-119637786D01*
X145733696Y-119503079D01*
X145733698Y-119503072D01*
X145740099Y-119443544D01*
X145740100Y-119443527D01*
X145740100Y-118845600D01*
X144926244Y-118845600D01*
X144948884Y-118806387D01*
X144986100Y-118667495D01*
X144986100Y-118523705D01*
X144948884Y-118384813D01*
X144926244Y-118345600D01*
X145740100Y-118345600D01*
X145740100Y-117747672D01*
X145740099Y-117747655D01*
X154289900Y-117747655D01*
X154289900Y-118345600D01*
X155103756Y-118345600D01*
X155081116Y-118384813D01*
X155043900Y-118523705D01*
X155043900Y-118667495D01*
X155081116Y-118806387D01*
X155103756Y-118845600D01*
X154289900Y-118845600D01*
X154289900Y-119443544D01*
X154296301Y-119503072D01*
X154296303Y-119503079D01*
X154346545Y-119637786D01*
X154346549Y-119637793D01*
X154432709Y-119752887D01*
X154432712Y-119752890D01*
X154547806Y-119839050D01*
X154547813Y-119839054D01*
X154682520Y-119889296D01*
X154682527Y-119889298D01*
X154742055Y-119895699D01*
X154742072Y-119895700D01*
X155340000Y-119895700D01*
X155340000Y-119081844D01*
X155379213Y-119104484D01*
X155518105Y-119141700D01*
X155661895Y-119141700D01*
X155800787Y-119104484D01*
X155840000Y-119081844D01*
X155840000Y-119895700D01*
X156437928Y-119895700D01*
X156437944Y-119895699D01*
X156497472Y-119889298D01*
X156497479Y-119889296D01*
X156632186Y-119839054D01*
X156632193Y-119839050D01*
X156747287Y-119752890D01*
X156747290Y-119752887D01*
X156833450Y-119637793D01*
X156833454Y-119637786D01*
X156883696Y-119503079D01*
X156883698Y-119503072D01*
X156890099Y-119443544D01*
X156890100Y-119443527D01*
X156890100Y-118845600D01*
X156076244Y-118845600D01*
X156098884Y-118806387D01*
X156136100Y-118667495D01*
X156136100Y-118523705D01*
X156098884Y-118384813D01*
X156076244Y-118345600D01*
X156890100Y-118345600D01*
X156890100Y-117747672D01*
X156890099Y-117747655D01*
X156883698Y-117688127D01*
X156883696Y-117688120D01*
X156833454Y-117553413D01*
X156833450Y-117553406D01*
X156747290Y-117438312D01*
X156747287Y-117438309D01*
X156632193Y-117352149D01*
X156632186Y-117352145D01*
X156497479Y-117301903D01*
X156497472Y-117301901D01*
X156437944Y-117295500D01*
X155840000Y-117295500D01*
X155840000Y-118109355D01*
X155800787Y-118086716D01*
X155661895Y-118049500D01*
X155518105Y-118049500D01*
X155379213Y-118086716D01*
X155340000Y-118109355D01*
X155340000Y-117295500D01*
X154742055Y-117295500D01*
X154682527Y-117301901D01*
X154682520Y-117301903D01*
X154547813Y-117352145D01*
X154547806Y-117352149D01*
X154432712Y-117438309D01*
X154432709Y-117438312D01*
X154346549Y-117553406D01*
X154346545Y-117553413D01*
X154296303Y-117688120D01*
X154296301Y-117688127D01*
X154289900Y-117747655D01*
X145740099Y-117747655D01*
X145733698Y-117688127D01*
X145733696Y-117688120D01*
X145697100Y-117590000D01*
X146890000Y-117590000D01*
X146890000Y-116057655D01*
X157011105Y-115991521D01*
X157078271Y-116010767D01*
G37*
G04 #@! TD.AperFunction*
G04 #@! TA.AperFunction,Conductor*
G36*
X144690000Y-118109355D02*
G01*
X144650787Y-118086716D01*
X144511895Y-118049500D01*
X144368105Y-118049500D01*
X144229213Y-118086716D01*
X144190000Y-118109355D01*
X144190000Y-117590000D01*
X144690000Y-117590000D01*
X144690000Y-118109355D01*
G37*
G04 #@! TD.AperFunction*
G04 #@! TA.AperFunction,Conductor*
G36*
X142283039Y-47459685D02*
G01*
X142328794Y-47512489D01*
X142340000Y-47564000D01*
X142340000Y-48916000D01*
X142320315Y-48983039D01*
X142267511Y-49028794D01*
X142216000Y-49040000D01*
X141225349Y-49040000D01*
X141158310Y-49020315D01*
X141156517Y-49019141D01*
X141148127Y-49013535D01*
X141148126Y-49013534D01*
X141148124Y-49013533D01*
X141029744Y-48964499D01*
X141029738Y-48964497D01*
X140904071Y-48939500D01*
X140904069Y-48939500D01*
X140689000Y-48939500D01*
X140621961Y-48919815D01*
X140576206Y-48867011D01*
X140565000Y-48815500D01*
X140565000Y-47564000D01*
X140584685Y-47496961D01*
X140637489Y-47451206D01*
X140689000Y-47440000D01*
X142216000Y-47440000D01*
X142283039Y-47459685D01*
G37*
G04 #@! TD.AperFunction*
G04 #@! TA.AperFunction,Conductor*
G36*
X135457452Y-51572544D02*
G01*
X135457455Y-51572547D01*
X135572664Y-51658793D01*
X135572671Y-51658797D01*
X135617618Y-51675561D01*
X135707517Y-51709091D01*
X135767127Y-51715500D01*
X135816000Y-51715499D01*
X135824685Y-51718049D01*
X135833647Y-51716761D01*
X135857683Y-51727738D01*
X135883037Y-51735182D01*
X135888966Y-51742024D01*
X135897203Y-51745786D01*
X135911489Y-51768016D01*
X135928793Y-51787985D01*
X135931080Y-51798501D01*
X135934977Y-51804564D01*
X135940000Y-51839499D01*
X135940000Y-51966000D01*
X135920315Y-52033039D01*
X135867511Y-52078794D01*
X135816000Y-52090000D01*
X133415000Y-52090000D01*
X133415000Y-51490000D01*
X135395659Y-51490000D01*
X135457452Y-51572544D01*
G37*
G04 #@! TD.AperFunction*
G04 #@! TA.AperFunction,Conductor*
G36*
X207357283Y-72714517D02*
G01*
X207384266Y-72722530D01*
X207411990Y-72727425D01*
X207417312Y-72732342D01*
X207424260Y-72734406D01*
X207442628Y-72755736D01*
X207463306Y-72774843D01*
X207467300Y-72784386D01*
X207469853Y-72787350D01*
X207474182Y-72800825D01*
X207476934Y-72807399D01*
X207477829Y-72810853D01*
X207495263Y-72898497D01*
X207509393Y-72932610D01*
X207511560Y-72940969D01*
X207515528Y-72971831D01*
X207516707Y-73545106D01*
X207510413Y-73584364D01*
X207474651Y-73692288D01*
X207464500Y-73791647D01*
X207464500Y-74388337D01*
X207464501Y-74388355D01*
X207474650Y-74487707D01*
X207474652Y-74487714D01*
X207512669Y-74602443D01*
X207518963Y-74641190D01*
X207519682Y-74990000D01*
X207828073Y-74990000D01*
X207874278Y-75000243D01*
X207874448Y-74999731D01*
X207879459Y-75001391D01*
X207880476Y-75001617D01*
X207881299Y-75002000D01*
X207881303Y-75002003D01*
X208042292Y-75055349D01*
X208141655Y-75065500D01*
X208441349Y-75065499D01*
X208489708Y-79562861D01*
X206715933Y-79541230D01*
X206649138Y-79520729D01*
X206604031Y-79467371D01*
X206595726Y-79440915D01*
X206556450Y-79238999D01*
X205872319Y-75721925D01*
X205870040Y-75697845D01*
X205871738Y-75188580D01*
X205891645Y-75121610D01*
X205944601Y-75076032D01*
X205956545Y-75073454D01*
X205965000Y-75064999D01*
X206465000Y-75064999D01*
X206488308Y-75064999D01*
X206488322Y-75064998D01*
X206587607Y-75054855D01*
X206748481Y-75001547D01*
X206748492Y-75001542D01*
X206892728Y-74912575D01*
X206892732Y-74912572D01*
X207012572Y-74792732D01*
X207012575Y-74792728D01*
X207101542Y-74648492D01*
X207101547Y-74648481D01*
X207154855Y-74487606D01*
X207164999Y-74388322D01*
X207165000Y-74388309D01*
X207165000Y-74340000D01*
X206465000Y-74340000D01*
X206465000Y-75064999D01*
X205965000Y-75064999D01*
X205965000Y-73840000D01*
X206465000Y-73840000D01*
X207164999Y-73840000D01*
X207164999Y-73791692D01*
X207164998Y-73791677D01*
X207154855Y-73692392D01*
X207101547Y-73531518D01*
X207101542Y-73531507D01*
X207012575Y-73387271D01*
X207012572Y-73387267D01*
X206892732Y-73267427D01*
X206892728Y-73267424D01*
X206748492Y-73178457D01*
X206748481Y-73178452D01*
X206587606Y-73125144D01*
X206488322Y-73115000D01*
X206465000Y-73115000D01*
X206465000Y-73840000D01*
X205965000Y-73840000D01*
X205965000Y-73114999D01*
X205949174Y-73099174D01*
X205936024Y-73095313D01*
X205890269Y-73042509D01*
X205879064Y-72990588D01*
X205879586Y-72833962D01*
X205899494Y-72766991D01*
X205952450Y-72721413D01*
X206003963Y-72710379D01*
X207357283Y-72714517D01*
G37*
G04 #@! TD.AperFunction*
G04 #@! TA.AperFunction,Conductor*
G36*
X148458039Y-30584685D02*
G01*
X148503794Y-30637489D01*
X148515000Y-30689000D01*
X148515000Y-34116000D01*
X148495315Y-34183039D01*
X148442511Y-34228794D01*
X148391000Y-34240000D01*
X144389000Y-34240000D01*
X144321961Y-34220315D01*
X144276206Y-34167511D01*
X144265000Y-34116000D01*
X144265000Y-33665000D01*
X144265000Y-33214986D01*
X144665001Y-33214986D01*
X144675494Y-33317697D01*
X144730641Y-33484119D01*
X144730643Y-33484124D01*
X144822684Y-33633345D01*
X144946654Y-33757315D01*
X145095875Y-33849356D01*
X145095880Y-33849358D01*
X145262302Y-33904505D01*
X145262309Y-33904506D01*
X145365019Y-33914999D01*
X146189999Y-33914999D01*
X146690000Y-33914999D01*
X147514972Y-33914999D01*
X147514986Y-33914998D01*
X147617697Y-33904505D01*
X147784119Y-33849358D01*
X147784124Y-33849356D01*
X147933345Y-33757315D01*
X148057315Y-33633345D01*
X148149356Y-33484124D01*
X148149358Y-33484119D01*
X148204505Y-33317697D01*
X148204506Y-33317690D01*
X148214999Y-33214986D01*
X148215000Y-33214973D01*
X148215000Y-32627500D01*
X146690000Y-32627500D01*
X146690000Y-33914999D01*
X146189999Y-33914999D01*
X146190000Y-33914998D01*
X146190000Y-32627500D01*
X144665001Y-32627500D01*
X144665001Y-33214986D01*
X144265000Y-33214986D01*
X144265000Y-31540013D01*
X144665000Y-31540013D01*
X144665000Y-32127500D01*
X146190000Y-32127500D01*
X146690000Y-32127500D01*
X148214999Y-32127500D01*
X148214999Y-31540028D01*
X148214998Y-31540013D01*
X148204505Y-31437302D01*
X148149358Y-31270880D01*
X148149356Y-31270875D01*
X148057315Y-31121654D01*
X147933345Y-30997684D01*
X147784124Y-30905643D01*
X147784119Y-30905641D01*
X147617697Y-30850494D01*
X147617690Y-30850493D01*
X147514986Y-30840000D01*
X146690000Y-30840000D01*
X146690000Y-32127500D01*
X146190000Y-32127500D01*
X146190000Y-30840000D01*
X145365028Y-30840000D01*
X145365012Y-30840001D01*
X145262302Y-30850494D01*
X145095880Y-30905641D01*
X145095875Y-30905643D01*
X144946654Y-30997684D01*
X144822684Y-31121654D01*
X144730643Y-31270875D01*
X144730641Y-31270880D01*
X144675494Y-31437302D01*
X144675493Y-31437309D01*
X144665000Y-31540013D01*
X144265000Y-31540013D01*
X144265000Y-30689000D01*
X144284685Y-30621961D01*
X144337489Y-30576206D01*
X144389000Y-30565000D01*
X148391000Y-30565000D01*
X148458039Y-30584685D01*
G37*
G04 #@! TD.AperFunction*
G04 #@! TA.AperFunction,Conductor*
G36*
X209358039Y-72359685D02*
G01*
X209403794Y-72412489D01*
X209415000Y-72464000D01*
X209415000Y-72679206D01*
X209407938Y-72720456D01*
X209400624Y-72741187D01*
X209399454Y-72745455D01*
X209399136Y-72745367D01*
X209393991Y-72762323D01*
X209381096Y-72793455D01*
X209369637Y-72814894D01*
X209301398Y-72917020D01*
X209301242Y-72918769D01*
X209299449Y-72923085D01*
X209298257Y-72925808D01*
X209290362Y-72935215D01*
X209259154Y-73003843D01*
X209231407Y-73080889D01*
X209224814Y-73134745D01*
X209224563Y-73136669D01*
X209223593Y-73143681D01*
X209194908Y-73207390D01*
X209136332Y-73245478D01*
X209066464Y-73245851D01*
X209035666Y-73232228D01*
X208948486Y-73178454D01*
X208948481Y-73178452D01*
X208787606Y-73125144D01*
X208688322Y-73115000D01*
X208665000Y-73115000D01*
X208665000Y-73966000D01*
X208645315Y-74033039D01*
X208592511Y-74078794D01*
X208541000Y-74090000D01*
X208289000Y-74090000D01*
X208221961Y-74070315D01*
X208176206Y-74017511D01*
X208165000Y-73966000D01*
X208165000Y-73114999D01*
X208164999Y-73114999D01*
X208145071Y-73115000D01*
X208078031Y-73095317D01*
X208032275Y-73042515D01*
X208021069Y-72991253D01*
X208021027Y-72970791D01*
X208016901Y-72907368D01*
X208012933Y-72876506D01*
X208000885Y-72814116D01*
X207998718Y-72805757D01*
X207985215Y-72765442D01*
X207981470Y-72751682D01*
X207981327Y-72751007D01*
X207973615Y-72712232D01*
X207967419Y-72685156D01*
X207967214Y-72684182D01*
X207967299Y-72683075D01*
X207951138Y-72632767D01*
X207951132Y-72632752D01*
X207951127Y-72632735D01*
X207943363Y-72612608D01*
X207943226Y-72612201D01*
X207942972Y-72611596D01*
X207942321Y-72609907D01*
X207942317Y-72609896D01*
X207930295Y-72578729D01*
X207930293Y-72578726D01*
X207930291Y-72578720D01*
X207928059Y-72575225D01*
X207921915Y-72564445D01*
X207899417Y-72519915D01*
X207886757Y-72451201D01*
X207913256Y-72386552D01*
X207970501Y-72346491D01*
X208010095Y-72340000D01*
X209291000Y-72340000D01*
X209358039Y-72359685D01*
G37*
G04 #@! TD.AperFunction*
G04 #@! TA.AperFunction,Conductor*
G36*
X148758039Y-36709685D02*
G01*
X148803794Y-36762489D01*
X148815000Y-36814000D01*
X148815000Y-48316000D01*
X148795315Y-48383039D01*
X148742511Y-48428794D01*
X148691000Y-48440000D01*
X144289000Y-48440000D01*
X144221961Y-48420315D01*
X144176206Y-48367511D01*
X144165000Y-48316000D01*
X144165000Y-47164986D01*
X144815001Y-47164986D01*
X144825494Y-47267697D01*
X144880641Y-47434119D01*
X144880643Y-47434124D01*
X144972684Y-47583345D01*
X145096654Y-47707315D01*
X145245875Y-47799356D01*
X145245880Y-47799358D01*
X145412302Y-47854505D01*
X145412309Y-47854506D01*
X145515019Y-47864999D01*
X146339999Y-47864999D01*
X146840000Y-47864999D01*
X147664972Y-47864999D01*
X147664986Y-47864998D01*
X147767697Y-47854505D01*
X147934119Y-47799358D01*
X147934124Y-47799356D01*
X148083345Y-47707315D01*
X148207315Y-47583345D01*
X148299356Y-47434124D01*
X148299358Y-47434119D01*
X148354505Y-47267697D01*
X148354506Y-47267690D01*
X148364999Y-47164986D01*
X148365000Y-47164973D01*
X148365000Y-46577500D01*
X146840000Y-46577500D01*
X146840000Y-47864999D01*
X146339999Y-47864999D01*
X146340000Y-47864998D01*
X146340000Y-46577500D01*
X144815001Y-46577500D01*
X144815001Y-47164986D01*
X144165000Y-47164986D01*
X144165000Y-45490013D01*
X144815000Y-45490013D01*
X144815000Y-46077500D01*
X146340000Y-46077500D01*
X146840000Y-46077500D01*
X148364999Y-46077500D01*
X148364999Y-45490028D01*
X148364998Y-45490013D01*
X148354505Y-45387302D01*
X148299358Y-45220880D01*
X148299356Y-45220875D01*
X148207315Y-45071654D01*
X148083345Y-44947684D01*
X147934124Y-44855643D01*
X147934119Y-44855641D01*
X147767697Y-44800494D01*
X147767690Y-44800493D01*
X147664986Y-44790000D01*
X146840000Y-44790000D01*
X146840000Y-46077500D01*
X146340000Y-46077500D01*
X146340000Y-44790000D01*
X145515028Y-44790000D01*
X145515012Y-44790001D01*
X145412302Y-44800494D01*
X145245880Y-44855641D01*
X145245875Y-44855643D01*
X145096654Y-44947684D01*
X144972684Y-45071654D01*
X144880643Y-45220875D01*
X144880641Y-45220880D01*
X144825494Y-45387302D01*
X144825493Y-45387309D01*
X144815000Y-45490013D01*
X144165000Y-45490013D01*
X144165000Y-39439986D01*
X144665001Y-39439986D01*
X144675494Y-39542697D01*
X144730641Y-39709119D01*
X144730643Y-39709124D01*
X144822684Y-39858345D01*
X144946654Y-39982315D01*
X145095875Y-40074356D01*
X145095880Y-40074358D01*
X145262302Y-40129505D01*
X145262309Y-40129506D01*
X145365019Y-40139999D01*
X146189999Y-40139999D01*
X146690000Y-40139999D01*
X147514972Y-40139999D01*
X147514986Y-40139998D01*
X147617697Y-40129505D01*
X147784119Y-40074358D01*
X147784124Y-40074356D01*
X147933345Y-39982315D01*
X148057315Y-39858345D01*
X148149356Y-39709124D01*
X148149358Y-39709119D01*
X148204505Y-39542697D01*
X148204506Y-39542690D01*
X148214999Y-39439986D01*
X148215000Y-39439973D01*
X148215000Y-38852500D01*
X146690000Y-38852500D01*
X146690000Y-40139999D01*
X146189999Y-40139999D01*
X146190000Y-40139998D01*
X146190000Y-38852500D01*
X144665001Y-38852500D01*
X144665001Y-39439986D01*
X144165000Y-39439986D01*
X144165000Y-37765013D01*
X144665000Y-37765013D01*
X144665000Y-38352500D01*
X146190000Y-38352500D01*
X146690000Y-38352500D01*
X148214999Y-38352500D01*
X148214999Y-37765028D01*
X148214998Y-37765013D01*
X148204505Y-37662302D01*
X148149358Y-37495880D01*
X148149356Y-37495875D01*
X148057315Y-37346654D01*
X147933345Y-37222684D01*
X147784124Y-37130643D01*
X147784119Y-37130641D01*
X147617697Y-37075494D01*
X147617690Y-37075493D01*
X147514986Y-37065000D01*
X146690000Y-37065000D01*
X146690000Y-38352500D01*
X146190000Y-38352500D01*
X146190000Y-37065000D01*
X145365028Y-37065000D01*
X145365012Y-37065001D01*
X145262302Y-37075494D01*
X145095880Y-37130641D01*
X145095875Y-37130643D01*
X144946654Y-37222684D01*
X144822684Y-37346654D01*
X144730643Y-37495875D01*
X144730641Y-37495880D01*
X144675494Y-37662302D01*
X144675493Y-37662309D01*
X144665000Y-37765013D01*
X144165000Y-37765013D01*
X144165000Y-36814000D01*
X144184685Y-36746961D01*
X144237489Y-36701206D01*
X144289000Y-36690000D01*
X148691000Y-36690000D01*
X148758039Y-36709685D01*
G37*
G04 #@! TD.AperFunction*
G04 #@! TA.AperFunction,Conductor*
G36*
X220939999Y-35780810D02*
G01*
X210485392Y-35780810D01*
X210418353Y-35761125D01*
X210405336Y-35751505D01*
X208511649Y-34150572D01*
X208483944Y-34127150D01*
X208445457Y-34068836D01*
X208440000Y-34032455D01*
X208440000Y-31808535D01*
X209731000Y-31808535D01*
X209731000Y-32121464D01*
X209766032Y-32432393D01*
X209766035Y-32432407D01*
X209835665Y-32737478D01*
X209835669Y-32737490D01*
X209939017Y-33032839D01*
X209939020Y-33032847D01*
X210074781Y-33314758D01*
X210241266Y-33579717D01*
X210377675Y-33750770D01*
X211277157Y-32851287D01*
X211354558Y-32957820D01*
X211524180Y-33127442D01*
X211630710Y-33204841D01*
X210731228Y-34104323D01*
X210902282Y-34240733D01*
X211167241Y-34407218D01*
X211449152Y-34542979D01*
X211449160Y-34542982D01*
X211744509Y-34646330D01*
X211744521Y-34646334D01*
X212049592Y-34715964D01*
X212049606Y-34715967D01*
X212360535Y-34750999D01*
X212360539Y-34751000D01*
X212673461Y-34751000D01*
X212673464Y-34750999D01*
X212984393Y-34715967D01*
X212984407Y-34715964D01*
X213289478Y-34646334D01*
X213289490Y-34646330D01*
X213584839Y-34542982D01*
X213584847Y-34542979D01*
X213866758Y-34407218D01*
X214131717Y-34240733D01*
X214302770Y-34104322D01*
X213403288Y-33204841D01*
X213509820Y-33127442D01*
X213679442Y-32957820D01*
X213756841Y-32851288D01*
X214656322Y-33750770D01*
X214792733Y-33579717D01*
X214959218Y-33314758D01*
X215094979Y-33032847D01*
X215094982Y-33032839D01*
X215198330Y-32737490D01*
X215198334Y-32737478D01*
X215267964Y-32432407D01*
X215267967Y-32432393D01*
X215302999Y-32121464D01*
X215303000Y-32121460D01*
X215303000Y-31808539D01*
X215302999Y-31808535D01*
X215267967Y-31497606D01*
X215267964Y-31497592D01*
X215198334Y-31192521D01*
X215198330Y-31192509D01*
X215094982Y-30897160D01*
X215094979Y-30897152D01*
X214959218Y-30615241D01*
X214792733Y-30350282D01*
X214656323Y-30179228D01*
X213756840Y-31078710D01*
X213679442Y-30972180D01*
X213509820Y-30802558D01*
X213403287Y-30725157D01*
X214302770Y-29825675D01*
X214131717Y-29689266D01*
X213866758Y-29522781D01*
X213584847Y-29387020D01*
X213584839Y-29387017D01*
X213289490Y-29283669D01*
X213289478Y-29283665D01*
X212984407Y-29214035D01*
X212984393Y-29214032D01*
X212673464Y-29179000D01*
X212360535Y-29179000D01*
X212049606Y-29214032D01*
X212049592Y-29214035D01*
X211744521Y-29283665D01*
X211744509Y-29283669D01*
X211449160Y-29387017D01*
X211449152Y-29387020D01*
X211167241Y-29522781D01*
X210902282Y-29689266D01*
X210731228Y-29825675D01*
X211630711Y-30725158D01*
X211524180Y-30802558D01*
X211354558Y-30972180D01*
X211277158Y-31078711D01*
X210377675Y-30179228D01*
X210241266Y-30350282D01*
X210074781Y-30615241D01*
X209939020Y-30897152D01*
X209939017Y-30897160D01*
X209835669Y-31192509D01*
X209835665Y-31192521D01*
X209766035Y-31497592D01*
X209766032Y-31497606D01*
X209731000Y-31808535D01*
X208440000Y-31808535D01*
X208440000Y-30145036D01*
X208459685Y-30077997D01*
X208480811Y-30053082D01*
X210404579Y-28312852D01*
X210467501Y-28282477D01*
X210487764Y-28280810D01*
X217440000Y-28280810D01*
X220939999Y-28280810D01*
X220939999Y-35780810D01*
G37*
G04 #@! TD.AperFunction*
G04 #@! TA.AperFunction,Conductor*
G36*
X105816236Y-49807052D02*
G01*
X105883237Y-49826864D01*
X105928892Y-49879755D01*
X105940000Y-49931052D01*
X105940000Y-55710211D01*
X105920315Y-55777250D01*
X105867511Y-55823005D01*
X105815969Y-55834211D01*
X84285503Y-55828881D01*
X84218469Y-55809180D01*
X84203367Y-55791742D01*
X85986144Y-50842155D01*
X86240000Y-50842155D01*
X86240000Y-51840000D01*
X87391518Y-51840000D01*
X87380889Y-51858409D01*
X87340000Y-52011009D01*
X87340000Y-52168991D01*
X87380889Y-52321591D01*
X87391518Y-52340000D01*
X86240000Y-52340000D01*
X86240000Y-53337844D01*
X86246401Y-53397372D01*
X86246403Y-53397379D01*
X86296645Y-53532086D01*
X86296649Y-53532093D01*
X86382809Y-53647187D01*
X86382812Y-53647190D01*
X86497906Y-53733350D01*
X86497913Y-53733354D01*
X86632620Y-53783596D01*
X86632627Y-53783598D01*
X86692155Y-53789999D01*
X86692172Y-53790000D01*
X87690000Y-53790000D01*
X87690000Y-52638482D01*
X87708409Y-52649111D01*
X87861009Y-52690000D01*
X88018991Y-52690000D01*
X88171591Y-52649111D01*
X88190000Y-52638482D01*
X88190000Y-53790000D01*
X89187828Y-53790000D01*
X89187844Y-53789999D01*
X89247372Y-53783598D01*
X89247379Y-53783596D01*
X89382086Y-53733354D01*
X89382093Y-53733350D01*
X89497187Y-53647190D01*
X89497190Y-53647187D01*
X89583350Y-53532093D01*
X89583354Y-53532086D01*
X89633596Y-53397379D01*
X89633598Y-53397372D01*
X89639999Y-53337844D01*
X89640000Y-53337827D01*
X89640000Y-52340000D01*
X88488482Y-52340000D01*
X88499111Y-52321591D01*
X88540000Y-52168991D01*
X88540000Y-52011009D01*
X88499111Y-51858409D01*
X88488482Y-51840000D01*
X89640000Y-51840000D01*
X89640000Y-50842172D01*
X89639999Y-50842155D01*
X101240000Y-50842155D01*
X101240000Y-51840000D01*
X102391518Y-51840000D01*
X102380889Y-51858409D01*
X102340000Y-52011009D01*
X102340000Y-52168991D01*
X102380889Y-52321591D01*
X102391518Y-52340000D01*
X101240000Y-52340000D01*
X101240000Y-53337844D01*
X101246401Y-53397372D01*
X101246403Y-53397379D01*
X101296645Y-53532086D01*
X101296649Y-53532093D01*
X101382809Y-53647187D01*
X101382812Y-53647190D01*
X101497906Y-53733350D01*
X101497913Y-53733354D01*
X101632620Y-53783596D01*
X101632627Y-53783598D01*
X101692155Y-53789999D01*
X101692172Y-53790000D01*
X102690000Y-53790000D01*
X102690000Y-52638482D01*
X102708409Y-52649111D01*
X102861009Y-52690000D01*
X103018991Y-52690000D01*
X103171591Y-52649111D01*
X103190000Y-52638482D01*
X103190000Y-53790000D01*
X104187828Y-53790000D01*
X104187844Y-53789999D01*
X104247372Y-53783598D01*
X104247379Y-53783596D01*
X104382086Y-53733354D01*
X104382093Y-53733350D01*
X104497187Y-53647190D01*
X104497190Y-53647187D01*
X104583350Y-53532093D01*
X104583354Y-53532086D01*
X104633596Y-53397379D01*
X104633598Y-53397372D01*
X104639999Y-53337844D01*
X104640000Y-53337827D01*
X104640000Y-52340000D01*
X103488482Y-52340000D01*
X103499111Y-52321591D01*
X103540000Y-52168991D01*
X103540000Y-52011009D01*
X103499111Y-51858409D01*
X103488482Y-51840000D01*
X104640000Y-51840000D01*
X104640000Y-50842172D01*
X104639999Y-50842155D01*
X104633598Y-50782627D01*
X104633596Y-50782620D01*
X104583354Y-50647913D01*
X104583350Y-50647906D01*
X104497190Y-50532812D01*
X104497187Y-50532809D01*
X104382093Y-50446649D01*
X104382086Y-50446645D01*
X104247379Y-50396403D01*
X104247372Y-50396401D01*
X104187844Y-50390000D01*
X103190000Y-50390000D01*
X103190000Y-51541517D01*
X103171591Y-51530889D01*
X103018991Y-51490000D01*
X102861009Y-51490000D01*
X102708409Y-51530889D01*
X102690000Y-51541517D01*
X102690000Y-50390000D01*
X101692155Y-50390000D01*
X101632627Y-50396401D01*
X101632620Y-50396403D01*
X101497913Y-50446645D01*
X101497906Y-50446649D01*
X101382812Y-50532809D01*
X101382809Y-50532812D01*
X101296649Y-50647906D01*
X101296645Y-50647913D01*
X101246403Y-50782620D01*
X101246401Y-50782627D01*
X101240000Y-50842155D01*
X89639999Y-50842155D01*
X89633598Y-50782627D01*
X89633596Y-50782620D01*
X89583354Y-50647913D01*
X89583350Y-50647906D01*
X89497190Y-50532812D01*
X89497187Y-50532809D01*
X89382093Y-50446649D01*
X89382086Y-50446645D01*
X89247379Y-50396403D01*
X89247372Y-50396401D01*
X89187844Y-50390000D01*
X88190000Y-50390000D01*
X88190000Y-51541517D01*
X88171591Y-51530889D01*
X88018991Y-51490000D01*
X87861009Y-51490000D01*
X87708409Y-51530889D01*
X87690000Y-51541517D01*
X87690000Y-50390000D01*
X86692155Y-50390000D01*
X86632627Y-50396401D01*
X86632620Y-50396403D01*
X86497913Y-50446645D01*
X86497906Y-50446649D01*
X86382812Y-50532809D01*
X86382809Y-50532812D01*
X86296649Y-50647906D01*
X86296645Y-50647913D01*
X86246403Y-50782620D01*
X86246401Y-50782627D01*
X86240000Y-50842155D01*
X85986144Y-50842155D01*
X86140000Y-50415000D01*
X86140000Y-49990000D01*
X86066148Y-49769598D01*
X105816236Y-49807052D01*
G37*
G04 #@! TD.AperFunction*
G04 #@! TA.AperFunction,Conductor*
G36*
X220939999Y-69090000D02*
G01*
X210485392Y-69090000D01*
X210418353Y-69070315D01*
X210405336Y-69060695D01*
X208530350Y-67475572D01*
X208483944Y-67436340D01*
X208445457Y-67378026D01*
X208440000Y-67341645D01*
X208440000Y-65133535D01*
X209731000Y-65133535D01*
X209731000Y-65446464D01*
X209766032Y-65757393D01*
X209766035Y-65757407D01*
X209835665Y-66062478D01*
X209835669Y-66062490D01*
X209939017Y-66357839D01*
X209939020Y-66357847D01*
X210074781Y-66639758D01*
X210241266Y-66904717D01*
X210377675Y-67075770D01*
X211277157Y-66176287D01*
X211354558Y-66282820D01*
X211524180Y-66452442D01*
X211630710Y-66529841D01*
X210731228Y-67429323D01*
X210902282Y-67565733D01*
X211167241Y-67732218D01*
X211449152Y-67867979D01*
X211449160Y-67867982D01*
X211744509Y-67971330D01*
X211744521Y-67971334D01*
X212049592Y-68040964D01*
X212049606Y-68040967D01*
X212360535Y-68075999D01*
X212360539Y-68076000D01*
X212673461Y-68076000D01*
X212673464Y-68075999D01*
X212984393Y-68040967D01*
X212984407Y-68040964D01*
X213289478Y-67971334D01*
X213289490Y-67971330D01*
X213584839Y-67867982D01*
X213584847Y-67867979D01*
X213866758Y-67732218D01*
X214131717Y-67565733D01*
X214302770Y-67429322D01*
X213403288Y-66529841D01*
X213509820Y-66452442D01*
X213679442Y-66282820D01*
X213756841Y-66176288D01*
X214656322Y-67075770D01*
X214792733Y-66904717D01*
X214959218Y-66639758D01*
X215094979Y-66357847D01*
X215094982Y-66357839D01*
X215198330Y-66062490D01*
X215198334Y-66062478D01*
X215267964Y-65757407D01*
X215267967Y-65757393D01*
X215302999Y-65446464D01*
X215303000Y-65446460D01*
X215303000Y-65133539D01*
X215302999Y-65133535D01*
X215267967Y-64822606D01*
X215267964Y-64822592D01*
X215198334Y-64517521D01*
X215198330Y-64517509D01*
X215094982Y-64222160D01*
X215094979Y-64222152D01*
X214959218Y-63940241D01*
X214792733Y-63675282D01*
X214656323Y-63504228D01*
X213756840Y-64403710D01*
X213679442Y-64297180D01*
X213509820Y-64127558D01*
X213403287Y-64050157D01*
X214302770Y-63150675D01*
X214131717Y-63014266D01*
X213866758Y-62847781D01*
X213584847Y-62712020D01*
X213584839Y-62712017D01*
X213289490Y-62608669D01*
X213289478Y-62608665D01*
X212984407Y-62539035D01*
X212984393Y-62539032D01*
X212673464Y-62504000D01*
X212360535Y-62504000D01*
X212049606Y-62539032D01*
X212049592Y-62539035D01*
X211744521Y-62608665D01*
X211744509Y-62608669D01*
X211449160Y-62712017D01*
X211449152Y-62712020D01*
X211167241Y-62847781D01*
X210902282Y-63014266D01*
X210731228Y-63150675D01*
X211630711Y-64050158D01*
X211524180Y-64127558D01*
X211354558Y-64297180D01*
X211277158Y-64403711D01*
X210377675Y-63504228D01*
X210241266Y-63675282D01*
X210074781Y-63940241D01*
X209939020Y-64222152D01*
X209939017Y-64222160D01*
X209835669Y-64517509D01*
X209835665Y-64517521D01*
X209766035Y-64822592D01*
X209766032Y-64822606D01*
X209731000Y-65133535D01*
X208440000Y-65133535D01*
X208440000Y-63454226D01*
X208459685Y-63387187D01*
X208480811Y-63362272D01*
X210404579Y-61622042D01*
X210467501Y-61591667D01*
X210487764Y-61590000D01*
X217140000Y-61590000D01*
X220939999Y-61590000D01*
X220939999Y-69090000D01*
G37*
G04 #@! TD.AperFunction*
G04 #@! TA.AperFunction,Conductor*
G36*
X218940000Y-120190000D02*
G01*
X207884263Y-120190000D01*
X207817224Y-120170315D01*
X207805742Y-120161971D01*
X206685479Y-119245392D01*
X206684452Y-119243890D01*
X206682797Y-119243134D01*
X206664814Y-119215152D01*
X206646058Y-119187705D01*
X206645693Y-119185398D01*
X206645023Y-119184356D01*
X206640000Y-119149421D01*
X206640000Y-117822734D01*
X207060000Y-117822734D01*
X207060000Y-118057265D01*
X207096689Y-118288909D01*
X207169164Y-118511965D01*
X207275640Y-118720933D01*
X207334498Y-118801945D01*
X207334499Y-118801945D01*
X207941304Y-118195140D01*
X207965116Y-118252627D01*
X208037345Y-118360725D01*
X208129275Y-118452655D01*
X208237373Y-118524884D01*
X208294858Y-118548695D01*
X207688052Y-119155499D01*
X207688053Y-119155500D01*
X207769066Y-119214359D01*
X207978034Y-119320835D01*
X208201090Y-119393310D01*
X208432735Y-119430000D01*
X208667265Y-119430000D01*
X208898909Y-119393310D01*
X209121965Y-119320835D01*
X209330930Y-119214361D01*
X209411945Y-119155499D01*
X209411946Y-119155499D01*
X208805141Y-118548695D01*
X208862627Y-118524884D01*
X208970725Y-118452655D01*
X209062655Y-118360725D01*
X209134884Y-118252627D01*
X209158695Y-118195142D01*
X209765499Y-118801946D01*
X209765499Y-118801945D01*
X209824361Y-118720930D01*
X209930835Y-118511965D01*
X210003310Y-118288909D01*
X210040000Y-118057265D01*
X210040000Y-117822734D01*
X212140000Y-117822734D01*
X212140000Y-118057265D01*
X212176689Y-118288909D01*
X212249164Y-118511965D01*
X212355640Y-118720933D01*
X212414498Y-118801945D01*
X212414499Y-118801945D01*
X213021304Y-118195140D01*
X213045116Y-118252627D01*
X213117345Y-118360725D01*
X213209275Y-118452655D01*
X213317373Y-118524884D01*
X213374858Y-118548695D01*
X212768052Y-119155499D01*
X212768053Y-119155500D01*
X212849066Y-119214359D01*
X213058034Y-119320835D01*
X213281090Y-119393310D01*
X213512735Y-119430000D01*
X213747265Y-119430000D01*
X213978909Y-119393310D01*
X214201965Y-119320835D01*
X214410930Y-119214361D01*
X214491945Y-119155499D01*
X214491946Y-119155499D01*
X213885141Y-118548695D01*
X213942627Y-118524884D01*
X214050725Y-118452655D01*
X214142655Y-118360725D01*
X214214884Y-118252627D01*
X214238695Y-118195141D01*
X214845499Y-118801946D01*
X214845499Y-118801945D01*
X214904361Y-118720930D01*
X215010835Y-118511965D01*
X215083310Y-118288909D01*
X215120000Y-118057265D01*
X215120000Y-117822734D01*
X215083310Y-117591090D01*
X215010835Y-117368034D01*
X214904359Y-117159066D01*
X214845500Y-117078053D01*
X214845499Y-117078052D01*
X214238694Y-117684857D01*
X214214884Y-117627373D01*
X214142655Y-117519275D01*
X214050725Y-117427345D01*
X213942627Y-117355116D01*
X213885141Y-117331304D01*
X214491945Y-116724499D01*
X214491945Y-116724498D01*
X214410933Y-116665640D01*
X214201965Y-116559164D01*
X213978909Y-116486689D01*
X213747265Y-116450000D01*
X213512735Y-116450000D01*
X213281090Y-116486689D01*
X213058034Y-116559164D01*
X212849068Y-116665639D01*
X212768053Y-116724498D01*
X212768053Y-116724499D01*
X213374858Y-117331304D01*
X213317373Y-117355116D01*
X213209275Y-117427345D01*
X213117345Y-117519275D01*
X213045116Y-117627373D01*
X213021304Y-117684858D01*
X212414499Y-117078053D01*
X212414498Y-117078053D01*
X212355639Y-117159068D01*
X212249164Y-117368034D01*
X212176689Y-117591090D01*
X212140000Y-117822734D01*
X210040000Y-117822734D01*
X210003310Y-117591090D01*
X209930835Y-117368034D01*
X209824359Y-117159066D01*
X209765500Y-117078053D01*
X209765499Y-117078052D01*
X209158694Y-117684857D01*
X209134884Y-117627373D01*
X209062655Y-117519275D01*
X208970725Y-117427345D01*
X208862627Y-117355116D01*
X208805141Y-117331304D01*
X209411945Y-116724499D01*
X209411945Y-116724498D01*
X209330933Y-116665640D01*
X209121965Y-116559164D01*
X208898909Y-116486689D01*
X208667265Y-116450000D01*
X208432735Y-116450000D01*
X208201090Y-116486689D01*
X207978034Y-116559164D01*
X207769068Y-116665639D01*
X207688053Y-116724498D01*
X207688053Y-116724499D01*
X208294858Y-117331304D01*
X208237373Y-117355116D01*
X208129275Y-117427345D01*
X208037345Y-117519275D01*
X207965116Y-117627373D01*
X207941304Y-117684858D01*
X207334499Y-117078053D01*
X207334498Y-117078053D01*
X207275639Y-117159068D01*
X207169164Y-117368034D01*
X207096689Y-117591090D01*
X207060000Y-117822734D01*
X206640000Y-117822734D01*
X206640000Y-116766362D01*
X206659685Y-116699323D01*
X206676319Y-116678681D01*
X207828681Y-115526319D01*
X207890004Y-115492834D01*
X207916362Y-115490000D01*
X217440000Y-115490000D01*
X218940000Y-115490000D01*
X218940000Y-120190000D01*
G37*
G04 #@! TD.AperFunction*
G04 #@! TA.AperFunction,Conductor*
G36*
X80358440Y-47590766D02*
G01*
X80404195Y-47643570D01*
X80415401Y-47695081D01*
X80415401Y-51460500D01*
X80395716Y-51527539D01*
X80342912Y-51573294D01*
X80291401Y-51584500D01*
X75078715Y-51584500D01*
X75011676Y-51564815D01*
X74965921Y-51512011D01*
X74954715Y-51460500D01*
X74954715Y-50241096D01*
X75790000Y-50241096D01*
X75792897Y-50283824D01*
X75838831Y-50468523D01*
X75923390Y-50639022D01*
X75923392Y-50639025D01*
X76042632Y-50787366D01*
X76042633Y-50787367D01*
X76190974Y-50906607D01*
X76190977Y-50906609D01*
X76361476Y-50991168D01*
X76546175Y-51037102D01*
X76588903Y-51040000D01*
X77390000Y-51040000D01*
X77890000Y-51040000D01*
X78691097Y-51040000D01*
X78733824Y-51037102D01*
X78918523Y-50991168D01*
X79089022Y-50906609D01*
X79089025Y-50906607D01*
X79237366Y-50787367D01*
X79237367Y-50787366D01*
X79356607Y-50639025D01*
X79356609Y-50639022D01*
X79441168Y-50468523D01*
X79487102Y-50283824D01*
X79490000Y-50241096D01*
X79490000Y-50040000D01*
X77890000Y-50040000D01*
X77890000Y-51040000D01*
X77390000Y-51040000D01*
X77390000Y-50040000D01*
X75790000Y-50040000D01*
X75790000Y-50241096D01*
X74954715Y-50241096D01*
X74954715Y-49338903D01*
X75790000Y-49338903D01*
X75790000Y-49540000D01*
X77390000Y-49540000D01*
X77890000Y-49540000D01*
X79490000Y-49540000D01*
X79490000Y-49338903D01*
X79487102Y-49296175D01*
X79441168Y-49111476D01*
X79356609Y-48940977D01*
X79356607Y-48940974D01*
X79237367Y-48792633D01*
X79237366Y-48792632D01*
X79089025Y-48673392D01*
X79089022Y-48673390D01*
X78918523Y-48588831D01*
X78733824Y-48542897D01*
X78691097Y-48540000D01*
X77890000Y-48540000D01*
X77890000Y-49540000D01*
X77390000Y-49540000D01*
X77390000Y-48540000D01*
X76588903Y-48540000D01*
X76546175Y-48542897D01*
X76361476Y-48588831D01*
X76190977Y-48673390D01*
X76190974Y-48673392D01*
X76042633Y-48792632D01*
X76042632Y-48792633D01*
X75923392Y-48940974D01*
X75923390Y-48940977D01*
X75838831Y-49111476D01*
X75792897Y-49296175D01*
X75790000Y-49338903D01*
X74954715Y-49338903D01*
X74954715Y-48032082D01*
X74974400Y-47965043D01*
X74985986Y-47949757D01*
X74997000Y-47937352D01*
X75148057Y-47767202D01*
X75285176Y-47612756D01*
X75344405Y-47575692D01*
X75377905Y-47571081D01*
X80291401Y-47571081D01*
X80358440Y-47590766D01*
G37*
G04 #@! TD.AperFunction*
G04 #@! TA.AperFunction,Conductor*
G36*
X131565000Y-37715000D02*
G01*
X131565000Y-40366000D01*
X131545315Y-40433039D01*
X131492511Y-40478794D01*
X131441000Y-40490000D01*
X125989000Y-40490000D01*
X125921961Y-40470315D01*
X125876206Y-40417511D01*
X125865000Y-40366000D01*
X125865000Y-39152486D01*
X126765001Y-39152486D01*
X126775494Y-39255197D01*
X126830641Y-39421619D01*
X126830643Y-39421624D01*
X126922684Y-39570845D01*
X127046654Y-39694815D01*
X127195875Y-39786856D01*
X127195880Y-39786858D01*
X127362302Y-39842005D01*
X127362309Y-39842006D01*
X127465019Y-39852499D01*
X128289999Y-39852499D01*
X128790000Y-39852499D01*
X129614972Y-39852499D01*
X129614986Y-39852498D01*
X129717697Y-39842005D01*
X129884119Y-39786858D01*
X129884124Y-39786856D01*
X130033345Y-39694815D01*
X130157315Y-39570845D01*
X130249356Y-39421624D01*
X130249358Y-39421619D01*
X130304505Y-39255197D01*
X130304506Y-39255190D01*
X130314999Y-39152486D01*
X130315000Y-39152473D01*
X130315000Y-38565000D01*
X128790000Y-38565000D01*
X128790000Y-39852499D01*
X128289999Y-39852499D01*
X128290000Y-39852498D01*
X128290000Y-38565000D01*
X126765001Y-38565000D01*
X126765001Y-39152486D01*
X125865000Y-39152486D01*
X125865000Y-37477513D01*
X126765000Y-37477513D01*
X126765000Y-38065000D01*
X128290000Y-38065000D01*
X128790000Y-38065000D01*
X130314999Y-38065000D01*
X130314999Y-37477528D01*
X130314998Y-37477513D01*
X130304505Y-37374802D01*
X130249358Y-37208380D01*
X130249356Y-37208375D01*
X130157315Y-37059154D01*
X130033345Y-36935184D01*
X129884124Y-36843143D01*
X129884119Y-36843141D01*
X129717697Y-36787994D01*
X129717690Y-36787993D01*
X129614986Y-36777500D01*
X128790000Y-36777500D01*
X128790000Y-38065000D01*
X128290000Y-38065000D01*
X128290000Y-36777500D01*
X127465028Y-36777500D01*
X127465012Y-36777501D01*
X127362302Y-36787994D01*
X127195880Y-36843141D01*
X127195875Y-36843143D01*
X127046654Y-36935184D01*
X126922684Y-37059154D01*
X126830643Y-37208375D01*
X126830641Y-37208380D01*
X126775494Y-37374802D01*
X126775493Y-37374809D01*
X126765000Y-37477513D01*
X125865000Y-37477513D01*
X125865000Y-35914000D01*
X125884685Y-35846961D01*
X125937489Y-35801206D01*
X125989000Y-35790000D01*
X131565000Y-35790000D01*
X131565000Y-37715000D01*
G37*
G04 #@! TD.AperFunction*
G04 #@! TA.AperFunction,Conductor*
G36*
X70593699Y-53037714D02*
G01*
X70639454Y-53090518D01*
X70650660Y-53142029D01*
X70650660Y-56614497D01*
X70630975Y-56681536D01*
X70578171Y-56727291D01*
X70526725Y-56738497D01*
X65839039Y-56740937D01*
X65771989Y-56721287D01*
X65726206Y-56668507D01*
X65714974Y-56616937D01*
X65714974Y-55341096D01*
X66390000Y-55341096D01*
X66392897Y-55383824D01*
X66438831Y-55568523D01*
X66523390Y-55739022D01*
X66523392Y-55739025D01*
X66642632Y-55887366D01*
X66642633Y-55887367D01*
X66790974Y-56006607D01*
X66790977Y-56006609D01*
X66961476Y-56091168D01*
X67146175Y-56137102D01*
X67188903Y-56140000D01*
X67990000Y-56140000D01*
X68490000Y-56140000D01*
X69291097Y-56140000D01*
X69333824Y-56137102D01*
X69518523Y-56091168D01*
X69689022Y-56006609D01*
X69689025Y-56006607D01*
X69837366Y-55887367D01*
X69837367Y-55887366D01*
X69956607Y-55739025D01*
X69956609Y-55739022D01*
X70041168Y-55568523D01*
X70087102Y-55383824D01*
X70090000Y-55341096D01*
X70090000Y-55140000D01*
X68490000Y-55140000D01*
X68490000Y-56140000D01*
X67990000Y-56140000D01*
X67990000Y-55140000D01*
X66390000Y-55140000D01*
X66390000Y-55341096D01*
X65714974Y-55341096D01*
X65714974Y-54438903D01*
X66390000Y-54438903D01*
X66390000Y-54640000D01*
X67990000Y-54640000D01*
X68490000Y-54640000D01*
X70090000Y-54640000D01*
X70090000Y-54438903D01*
X70087102Y-54396175D01*
X70041168Y-54211476D01*
X69956609Y-54040977D01*
X69956607Y-54040974D01*
X69837367Y-53892633D01*
X69837366Y-53892632D01*
X69689025Y-53773392D01*
X69689022Y-53773390D01*
X69518523Y-53688831D01*
X69333824Y-53642897D01*
X69291097Y-53640000D01*
X68490000Y-53640000D01*
X68490000Y-54640000D01*
X67990000Y-54640000D01*
X67990000Y-53640000D01*
X67188903Y-53640000D01*
X67146175Y-53642897D01*
X66961476Y-53688831D01*
X66790977Y-53773390D01*
X66790974Y-53773392D01*
X66642633Y-53892632D01*
X66642632Y-53892633D01*
X66523392Y-54040974D01*
X66523390Y-54040977D01*
X66438831Y-54211476D01*
X66392897Y-54396175D01*
X66390000Y-54438903D01*
X65714974Y-54438903D01*
X65714974Y-53142029D01*
X65734659Y-53074990D01*
X65787463Y-53029235D01*
X65838974Y-53018029D01*
X70526660Y-53018029D01*
X70593699Y-53037714D01*
G37*
G04 #@! TD.AperFunction*
G04 #@! TA.AperFunction,Conductor*
G36*
X136008039Y-38409685D02*
G01*
X136053794Y-38462489D01*
X136065000Y-38514000D01*
X136065000Y-38726138D01*
X136045315Y-38793177D01*
X136028681Y-38813819D01*
X136027500Y-38815000D01*
X136027500Y-41214999D01*
X136028681Y-41216180D01*
X136062166Y-41277503D01*
X136065000Y-41303861D01*
X136065000Y-41741000D01*
X136045315Y-41808039D01*
X135992511Y-41853794D01*
X135941000Y-41865000D01*
X134264000Y-41865000D01*
X134196961Y-41845315D01*
X134151206Y-41792511D01*
X134140000Y-41741000D01*
X134140000Y-40514986D01*
X134765001Y-40514986D01*
X134775494Y-40617697D01*
X134830641Y-40784119D01*
X134830643Y-40784124D01*
X134922684Y-40933345D01*
X135046654Y-41057315D01*
X135195875Y-41149356D01*
X135195880Y-41149358D01*
X135362302Y-41204505D01*
X135362309Y-41204506D01*
X135465019Y-41214999D01*
X135527499Y-41214998D01*
X135527500Y-41214998D01*
X135527500Y-40265000D01*
X134765001Y-40265000D01*
X134765001Y-40514986D01*
X134140000Y-40514986D01*
X134140000Y-39515013D01*
X134765000Y-39515013D01*
X134765000Y-39765000D01*
X135527500Y-39765000D01*
X135527500Y-38815000D01*
X135527499Y-38814999D01*
X135465028Y-38815000D01*
X135465011Y-38815001D01*
X135362302Y-38825494D01*
X135195880Y-38880641D01*
X135195875Y-38880643D01*
X135046654Y-38972684D01*
X134922684Y-39096654D01*
X134830643Y-39245875D01*
X134830641Y-39245880D01*
X134775494Y-39412302D01*
X134775493Y-39412309D01*
X134765000Y-39515013D01*
X134140000Y-39515013D01*
X134140000Y-38514000D01*
X134159685Y-38446961D01*
X134212489Y-38401206D01*
X134264000Y-38390000D01*
X135941000Y-38390000D01*
X136008039Y-38409685D01*
G37*
G04 #@! TD.AperFunction*
G04 #@! TA.AperFunction,Conductor*
G36*
X134433039Y-45284685D02*
G01*
X134478794Y-45337489D01*
X134490000Y-45389000D01*
X134490000Y-46591000D01*
X134470315Y-46658039D01*
X134417511Y-46703794D01*
X134366000Y-46715000D01*
X130615000Y-46715000D01*
X130615000Y-46241677D01*
X132015000Y-46241677D01*
X132015000Y-46265000D01*
X132740000Y-46265000D01*
X133240000Y-46265000D01*
X133964999Y-46265000D01*
X133964999Y-46241692D01*
X133964998Y-46241677D01*
X133954855Y-46142392D01*
X133901547Y-45981518D01*
X133901542Y-45981507D01*
X133812575Y-45837271D01*
X133812572Y-45837267D01*
X133692732Y-45717427D01*
X133692728Y-45717424D01*
X133548492Y-45628457D01*
X133548481Y-45628452D01*
X133387606Y-45575144D01*
X133288322Y-45565000D01*
X133240000Y-45565000D01*
X133240000Y-46265000D01*
X132740000Y-46265000D01*
X132740000Y-45565000D01*
X132739999Y-45564999D01*
X132691693Y-45565000D01*
X132691675Y-45565001D01*
X132592392Y-45575144D01*
X132431518Y-45628452D01*
X132431507Y-45628457D01*
X132287271Y-45717424D01*
X132287267Y-45717427D01*
X132167427Y-45837267D01*
X132167424Y-45837271D01*
X132078457Y-45981507D01*
X132078452Y-45981518D01*
X132025144Y-46142393D01*
X132015000Y-46241677D01*
X130615000Y-46241677D01*
X130615000Y-45265000D01*
X130890000Y-45265000D01*
X134366000Y-45265000D01*
X134433039Y-45284685D01*
G37*
G04 #@! TD.AperFunction*
G04 #@! TA.AperFunction,Conductor*
G36*
X212208039Y-72759685D02*
G01*
X212253794Y-72812489D01*
X212265000Y-72864000D01*
X212265000Y-79466000D01*
X212245315Y-79533039D01*
X212192511Y-79578794D01*
X212141000Y-79590000D01*
X210715000Y-79590000D01*
X208568221Y-79590000D01*
X208501182Y-79570315D01*
X208491974Y-79562890D01*
X208489708Y-79562862D01*
X208477365Y-78414986D01*
X208515001Y-78414986D01*
X208525494Y-78517697D01*
X208580641Y-78684119D01*
X208580643Y-78684124D01*
X208672684Y-78833345D01*
X208796654Y-78957315D01*
X208945875Y-79049356D01*
X208945880Y-79049358D01*
X209112302Y-79104505D01*
X209112309Y-79104506D01*
X209215019Y-79114999D01*
X209802499Y-79114999D01*
X210302500Y-79114999D01*
X210889972Y-79114999D01*
X210889986Y-79114998D01*
X210992697Y-79104505D01*
X211159119Y-79049358D01*
X211159124Y-79049356D01*
X211308345Y-78957315D01*
X211432315Y-78833345D01*
X211524356Y-78684124D01*
X211524358Y-78684119D01*
X211579505Y-78517697D01*
X211579506Y-78517690D01*
X211589999Y-78414986D01*
X211590000Y-78414973D01*
X211590000Y-77590000D01*
X210302500Y-77590000D01*
X210302500Y-79114999D01*
X209802499Y-79114999D01*
X209802500Y-79114998D01*
X209802500Y-77590000D01*
X208515001Y-77590000D01*
X208515001Y-78414986D01*
X208477365Y-78414986D01*
X208454247Y-76265013D01*
X208515000Y-76265013D01*
X208515000Y-77090000D01*
X209802500Y-77090000D01*
X210302500Y-77090000D01*
X211589999Y-77090000D01*
X211589999Y-76265028D01*
X211589998Y-76265013D01*
X211579505Y-76162302D01*
X211524358Y-75995880D01*
X211524356Y-75995875D01*
X211432315Y-75846654D01*
X211308345Y-75722684D01*
X211159124Y-75630643D01*
X211159119Y-75630641D01*
X210992697Y-75575494D01*
X210992690Y-75575493D01*
X210889986Y-75565000D01*
X210302500Y-75565000D01*
X210302500Y-77090000D01*
X209802500Y-77090000D01*
X209802500Y-75565000D01*
X209215028Y-75565000D01*
X209215012Y-75565001D01*
X209112302Y-75575494D01*
X208945880Y-75630641D01*
X208945875Y-75630643D01*
X208796654Y-75722684D01*
X208672684Y-75846654D01*
X208580643Y-75995875D01*
X208580641Y-75995880D01*
X208525494Y-76162302D01*
X208525493Y-76162309D01*
X208515000Y-76265013D01*
X208454247Y-76265013D01*
X208441349Y-75065499D01*
X208688344Y-75065499D01*
X208688352Y-75065498D01*
X208688355Y-75065498D01*
X208742760Y-75059940D01*
X208787708Y-75055349D01*
X208948697Y-75002003D01*
X208958753Y-74995799D01*
X209019288Y-74958462D01*
X209035845Y-74953766D01*
X209049450Y-74945023D01*
X209084385Y-74940000D01*
X209296567Y-74940000D01*
X209361664Y-74958462D01*
X209431507Y-75001542D01*
X209431518Y-75001547D01*
X209592393Y-75054855D01*
X209691683Y-75064999D01*
X210215000Y-75064999D01*
X210238308Y-75064999D01*
X210238322Y-75064998D01*
X210337607Y-75054855D01*
X210498481Y-75001547D01*
X210498492Y-75001542D01*
X210642728Y-74912575D01*
X210642732Y-74912572D01*
X210762572Y-74792732D01*
X210762575Y-74792728D01*
X210851542Y-74648492D01*
X210851547Y-74648481D01*
X210904855Y-74487606D01*
X210914999Y-74388322D01*
X210915000Y-74388309D01*
X210915000Y-74340000D01*
X210215000Y-74340000D01*
X210215000Y-75064999D01*
X209691683Y-75064999D01*
X209715000Y-75064998D01*
X209715000Y-73840000D01*
X210215000Y-73840000D01*
X210914999Y-73840000D01*
X210914999Y-73791692D01*
X210914998Y-73791677D01*
X210904855Y-73692392D01*
X210851547Y-73531518D01*
X210851542Y-73531507D01*
X210762575Y-73387271D01*
X210762572Y-73387267D01*
X210642732Y-73267427D01*
X210642728Y-73267424D01*
X210498492Y-73178457D01*
X210498481Y-73178452D01*
X210337606Y-73125144D01*
X210238322Y-73115000D01*
X210215000Y-73115000D01*
X210215000Y-73840000D01*
X209715000Y-73840000D01*
X209715000Y-73245513D01*
X209719650Y-73229036D01*
X209719315Y-73213088D01*
X209732064Y-73185051D01*
X209733298Y-73180682D01*
X209736314Y-73175763D01*
X209736789Y-73175289D01*
X209824394Y-73044179D01*
X209884737Y-72898497D01*
X209896411Y-72839809D01*
X209928795Y-72777898D01*
X209989511Y-72743324D01*
X210018028Y-72740000D01*
X212141000Y-72740000D01*
X212208039Y-72759685D01*
G37*
G04 #@! TD.AperFunction*
G04 #@! TA.AperFunction,Conductor*
G36*
X131615330Y-35809685D02*
G01*
X131661085Y-35862489D01*
X131671649Y-35926603D01*
X131665000Y-35991677D01*
X131665000Y-36015000D01*
X133614999Y-36015000D01*
X133614999Y-35991692D01*
X133614998Y-35991674D01*
X133608351Y-35926601D01*
X133611153Y-35911528D01*
X133608971Y-35896353D01*
X133617408Y-35877876D01*
X133621121Y-35857908D01*
X133631627Y-35846742D01*
X133637996Y-35832797D01*
X133655083Y-35821815D01*
X133669002Y-35807024D01*
X133684754Y-35802747D01*
X133696774Y-35795023D01*
X133731709Y-35790000D01*
X133941000Y-35790000D01*
X134008039Y-35809685D01*
X134053794Y-35862489D01*
X134065000Y-35914000D01*
X134065000Y-37591000D01*
X134045315Y-37658039D01*
X133992511Y-37703794D01*
X133941000Y-37715000D01*
X131340000Y-37715000D01*
X131340000Y-36538322D01*
X131665001Y-36538322D01*
X131675144Y-36637607D01*
X131728452Y-36798481D01*
X131728457Y-36798492D01*
X131817424Y-36942728D01*
X131817427Y-36942732D01*
X131937267Y-37062572D01*
X131937271Y-37062575D01*
X132081507Y-37151542D01*
X132081518Y-37151547D01*
X132242393Y-37204855D01*
X132341683Y-37214999D01*
X132890000Y-37214999D01*
X132938308Y-37214999D01*
X132938322Y-37214998D01*
X133037607Y-37204855D01*
X133198481Y-37151547D01*
X133198492Y-37151542D01*
X133342728Y-37062575D01*
X133342732Y-37062572D01*
X133462572Y-36942732D01*
X133462575Y-36942728D01*
X133551542Y-36798492D01*
X133551547Y-36798481D01*
X133604855Y-36637606D01*
X133614999Y-36538322D01*
X133615000Y-36538309D01*
X133615000Y-36515000D01*
X132890000Y-36515000D01*
X132890000Y-37214999D01*
X132341683Y-37214999D01*
X132389999Y-37214998D01*
X132390000Y-37214998D01*
X132390000Y-36515000D01*
X131665001Y-36515000D01*
X131665001Y-36538322D01*
X131340000Y-36538322D01*
X131340000Y-35790000D01*
X131548291Y-35790000D01*
X131615330Y-35809685D01*
G37*
G04 #@! TD.AperFunction*
G04 #@! TA.AperFunction,Conductor*
G36*
X200343539Y-96274219D02*
G01*
X200410158Y-96295269D01*
X200454824Y-96348997D01*
X200456343Y-96356343D01*
X200465000Y-96365000D01*
X201316000Y-96365000D01*
X201383039Y-96384685D01*
X201428794Y-96437489D01*
X201440000Y-96489000D01*
X201440000Y-96615000D01*
X201566000Y-96615000D01*
X201633039Y-96634685D01*
X201678794Y-96687489D01*
X201690000Y-96739000D01*
X201690000Y-97564999D01*
X201734566Y-97564999D01*
X201801605Y-97584684D01*
X201847360Y-97637488D01*
X201858556Y-97687409D01*
X201863368Y-98062738D01*
X201844544Y-98130025D01*
X201792331Y-98176453D01*
X201737739Y-98188317D01*
X200098291Y-98166640D01*
X200031517Y-98146071D01*
X199986464Y-98092667D01*
X199975942Y-98040953D01*
X199991732Y-96888322D01*
X200465001Y-96888322D01*
X200475144Y-96987607D01*
X200528452Y-97148481D01*
X200528457Y-97148492D01*
X200617424Y-97292728D01*
X200617427Y-97292732D01*
X200737267Y-97412572D01*
X200737271Y-97412575D01*
X200881507Y-97501542D01*
X200881518Y-97501547D01*
X201042393Y-97554855D01*
X201141683Y-97564999D01*
X201189999Y-97564998D01*
X201190000Y-97564998D01*
X201190000Y-96865000D01*
X200465001Y-96865000D01*
X200465001Y-96888322D01*
X199991732Y-96888322D01*
X199998531Y-96392022D01*
X200019131Y-96325262D01*
X200072556Y-96280235D01*
X200125052Y-96269750D01*
X200343539Y-96274219D01*
G37*
G04 #@! TD.AperFunction*
G04 #@! TA.AperFunction,Conductor*
G36*
X144692989Y-86699001D02*
G01*
X144773260Y-86751580D01*
X146805111Y-88736829D01*
X146860021Y-88816979D01*
X146880079Y-88912041D01*
X146880096Y-88914699D01*
X146883062Y-92123950D01*
X146864196Y-92219256D01*
X146810294Y-92300087D01*
X146805947Y-92304337D01*
X144953185Y-94072022D01*
X144871158Y-94124086D01*
X144775450Y-94140796D01*
X144756894Y-94139666D01*
X144552143Y-94119500D01*
X144227857Y-94119500D01*
X144227856Y-94119500D01*
X143905136Y-94151285D01*
X143715144Y-94189076D01*
X143666369Y-94193860D01*
X138840000Y-94190000D01*
X120839996Y-120290004D01*
X118506667Y-123789999D01*
X118506667Y-123790000D01*
X149291407Y-123790000D01*
X149386695Y-123808954D01*
X149434450Y-123835187D01*
X171634044Y-139415637D01*
X171701150Y-139485890D01*
X171736264Y-139576477D01*
X171740000Y-139619448D01*
X171740000Y-142328924D01*
X171721046Y-142424212D01*
X171682858Y-142487643D01*
X170514687Y-143899719D01*
X170439344Y-143961058D01*
X170346262Y-143988895D01*
X170322829Y-143990000D01*
X167184090Y-143990000D01*
X167088802Y-143971046D01*
X167045777Y-143948052D01*
X164749784Y-142414300D01*
X162721497Y-141059379D01*
X162426196Y-140862114D01*
X167015000Y-140862114D01*
X167015000Y-141117885D01*
X167015001Y-141117900D01*
X167055010Y-141370509D01*
X167055015Y-141370528D01*
X167134049Y-141613773D01*
X167134053Y-141613784D01*
X167250175Y-141841686D01*
X167250178Y-141841690D01*
X167327849Y-141948596D01*
X167962421Y-141314023D01*
X167975359Y-141345258D01*
X168057437Y-141468097D01*
X168161903Y-141572563D01*
X168284742Y-141654641D01*
X168315973Y-141667577D01*
X167681402Y-142302148D01*
X167788314Y-142379824D01*
X168016215Y-142495946D01*
X168016226Y-142495950D01*
X168259471Y-142574984D01*
X168259490Y-142574989D01*
X168512099Y-142614998D01*
X168512114Y-142615000D01*
X168767886Y-142615000D01*
X168767900Y-142614998D01*
X169020509Y-142574989D01*
X169020528Y-142574984D01*
X169263773Y-142495950D01*
X169263784Y-142495946D01*
X169491689Y-142379822D01*
X169598595Y-142302149D01*
X168964024Y-141667578D01*
X168995258Y-141654641D01*
X169118097Y-141572563D01*
X169222563Y-141468097D01*
X169304641Y-141345258D01*
X169317578Y-141314024D01*
X169952149Y-141948595D01*
X170029822Y-141841689D01*
X170145946Y-141613784D01*
X170145950Y-141613773D01*
X170224984Y-141370528D01*
X170224989Y-141370509D01*
X170264998Y-141117900D01*
X170265000Y-141117885D01*
X170265000Y-140862114D01*
X170264998Y-140862099D01*
X170224989Y-140609490D01*
X170224984Y-140609471D01*
X170145950Y-140366226D01*
X170145946Y-140366215D01*
X170029824Y-140138314D01*
X169952148Y-140031402D01*
X169317577Y-140665973D01*
X169304641Y-140634742D01*
X169222563Y-140511903D01*
X169118097Y-140407437D01*
X168995258Y-140325359D01*
X168964023Y-140312421D01*
X169598596Y-139677849D01*
X169491690Y-139600178D01*
X169491686Y-139600175D01*
X169263784Y-139484053D01*
X169263773Y-139484049D01*
X169020528Y-139405015D01*
X169020509Y-139405010D01*
X168767900Y-139365001D01*
X168767886Y-139365000D01*
X168512114Y-139365000D01*
X168512099Y-139365001D01*
X168259490Y-139405010D01*
X168259471Y-139405015D01*
X168016226Y-139484049D01*
X168016215Y-139484053D01*
X167788312Y-139600176D01*
X167788307Y-139600179D01*
X167681403Y-139677849D01*
X168315975Y-140312421D01*
X168284742Y-140325359D01*
X168161903Y-140407437D01*
X168057437Y-140511903D01*
X167975359Y-140634742D01*
X167962421Y-140665975D01*
X167327849Y-140031403D01*
X167250179Y-140138307D01*
X167250176Y-140138312D01*
X167134053Y-140366215D01*
X167134049Y-140366226D01*
X167055015Y-140609471D01*
X167055010Y-140609490D01*
X167015001Y-140862099D01*
X167015000Y-140862114D01*
X162426196Y-140862114D01*
X161105394Y-139979802D01*
X156384824Y-136826403D01*
X151540000Y-133590000D01*
X151539999Y-133589999D01*
X151540000Y-133589999D01*
X115840063Y-133492859D01*
X115840018Y-133492859D01*
X115840000Y-133492859D01*
X109787658Y-133499904D01*
X87401128Y-133525966D01*
X87305818Y-133507123D01*
X87227427Y-133455654D01*
X83856182Y-130183933D01*
X83801002Y-130103971D01*
X83780623Y-130008977D01*
X83780599Y-130003914D01*
X83790571Y-128238816D01*
X85065000Y-128238816D01*
X85065000Y-128441183D01*
X85065001Y-128441199D01*
X85096657Y-128641069D01*
X85159194Y-128833538D01*
X85159198Y-128833548D01*
X85251068Y-129013852D01*
X85251072Y-129013859D01*
X85370027Y-129177588D01*
X85513128Y-129320689D01*
X85566778Y-129359667D01*
X85588420Y-129338026D01*
X86222169Y-128704275D01*
X86257993Y-128740099D01*
X86372007Y-128805925D01*
X86499174Y-128840000D01*
X86793551Y-128840000D01*
X86041984Y-129591567D01*
X86049643Y-129594056D01*
X86249514Y-129625712D01*
X86249530Y-129625714D01*
X87630470Y-129625714D01*
X87630485Y-129625712D01*
X87830351Y-129594057D01*
X87830361Y-129594055D01*
X87838014Y-129591567D01*
X87086447Y-128840000D01*
X87380826Y-128840000D01*
X87507993Y-128805925D01*
X87622007Y-128740099D01*
X87657829Y-128704276D01*
X88313220Y-129359667D01*
X88366872Y-129320687D01*
X88366877Y-129320683D01*
X88509968Y-129177593D01*
X88509970Y-129177591D01*
X88628927Y-129013859D01*
X88628931Y-129013852D01*
X88720801Y-128833548D01*
X88720805Y-128833538D01*
X88783342Y-128641069D01*
X88814998Y-128441199D01*
X88815000Y-128441183D01*
X88815000Y-128238816D01*
X88814999Y-128238806D01*
X88810658Y-128211395D01*
X88810658Y-128211392D01*
X88805457Y-128178558D01*
X110064500Y-128178558D01*
X110064500Y-128501441D01*
X110088005Y-128740099D01*
X110096148Y-128822769D01*
X110134157Y-129013852D01*
X110159140Y-129139453D01*
X110159143Y-129139466D01*
X110252862Y-129448413D01*
X110252870Y-129448434D01*
X110376427Y-129746730D01*
X110376429Y-129746733D01*
X110528630Y-130031482D01*
X110528635Y-130031489D01*
X110708019Y-130299956D01*
X110912854Y-130549548D01*
X111141166Y-130777860D01*
X111390758Y-130982695D01*
X111655649Y-131159689D01*
X111659222Y-131162077D01*
X111659231Y-131162083D01*
X111943980Y-131314284D01*
X111943983Y-131314286D01*
X112081347Y-131371183D01*
X112242287Y-131437847D01*
X112242299Y-131437850D01*
X112242300Y-131437851D01*
X112551247Y-131531570D01*
X112551257Y-131531572D01*
X112551266Y-131531575D01*
X112867945Y-131594566D01*
X113189273Y-131626214D01*
X113189276Y-131626214D01*
X114690724Y-131626214D01*
X114690727Y-131626214D01*
X115012055Y-131594566D01*
X115328734Y-131531575D01*
X115328745Y-131531571D01*
X115328752Y-131531570D01*
X115529841Y-131470569D01*
X115637713Y-131437847D01*
X115936018Y-131314285D01*
X116220775Y-131162079D01*
X116489242Y-130982695D01*
X116738834Y-130777860D01*
X116967146Y-130549548D01*
X117171981Y-130299956D01*
X117351365Y-130031489D01*
X117503571Y-129746732D01*
X117627133Y-129448427D01*
X117709290Y-129177593D01*
X117720856Y-129139466D01*
X117720859Y-129139453D01*
X117720861Y-129139448D01*
X117783852Y-128822769D01*
X117815500Y-128501441D01*
X117815500Y-128238816D01*
X127065000Y-128238816D01*
X127065000Y-128441183D01*
X127065001Y-128441199D01*
X127096657Y-128641069D01*
X127159194Y-128833538D01*
X127159198Y-128833548D01*
X127251068Y-129013852D01*
X127251072Y-129013859D01*
X127370027Y-129177588D01*
X127513128Y-129320689D01*
X127566778Y-129359667D01*
X127588420Y-129338026D01*
X128222169Y-128704275D01*
X128257993Y-128740099D01*
X128372007Y-128805925D01*
X128499174Y-128840000D01*
X128793551Y-128840000D01*
X128041984Y-129591567D01*
X128049643Y-129594056D01*
X128249514Y-129625712D01*
X128249530Y-129625714D01*
X129630470Y-129625714D01*
X129630485Y-129625712D01*
X129830351Y-129594057D01*
X129830361Y-129594055D01*
X129838014Y-129591567D01*
X129086447Y-128840000D01*
X129380826Y-128840000D01*
X129507993Y-128805925D01*
X129622007Y-128740099D01*
X129657829Y-128704276D01*
X130313220Y-129359667D01*
X130366872Y-129320687D01*
X130366877Y-129320683D01*
X130509968Y-129177593D01*
X130509970Y-129177591D01*
X130628927Y-129013859D01*
X130628931Y-129013852D01*
X130720801Y-128833548D01*
X130720805Y-128833538D01*
X130783342Y-128641069D01*
X130814998Y-128441199D01*
X130815000Y-128441183D01*
X130815000Y-128238816D01*
X130814998Y-128238800D01*
X130783342Y-128038930D01*
X130720805Y-127846461D01*
X130720801Y-127846451D01*
X130628931Y-127666147D01*
X130628927Y-127666140D01*
X130509970Y-127502408D01*
X130509968Y-127502406D01*
X130366875Y-127359314D01*
X130366866Y-127359306D01*
X130313220Y-127320331D01*
X129657828Y-127975722D01*
X129622007Y-127939901D01*
X129507993Y-127874075D01*
X129380826Y-127840000D01*
X129086445Y-127840000D01*
X129838014Y-127088431D01*
X129830364Y-127085945D01*
X129830352Y-127085942D01*
X129630485Y-127054287D01*
X129630470Y-127054286D01*
X128249530Y-127054286D01*
X128249514Y-127054287D01*
X128049643Y-127085943D01*
X128049636Y-127085945D01*
X128041984Y-127088431D01*
X128793553Y-127840000D01*
X128499174Y-127840000D01*
X128372007Y-127874075D01*
X128257993Y-127939901D01*
X128222170Y-127975723D01*
X127566778Y-127320331D01*
X127513124Y-127359314D01*
X127370031Y-127502406D01*
X127370029Y-127502408D01*
X127251072Y-127666140D01*
X127251068Y-127666147D01*
X127159198Y-127846451D01*
X127159194Y-127846461D01*
X127096657Y-128038930D01*
X127065001Y-128238800D01*
X127065000Y-128238816D01*
X117815500Y-128238816D01*
X117815500Y-128178559D01*
X117783852Y-127857231D01*
X117720861Y-127540552D01*
X117720858Y-127540543D01*
X117720856Y-127540533D01*
X117627137Y-127231586D01*
X117627136Y-127231585D01*
X117627133Y-127231573D01*
X117553698Y-127054286D01*
X117503572Y-126933269D01*
X117503570Y-126933266D01*
X117351369Y-126648517D01*
X117351363Y-126648508D01*
X117171982Y-126380046D01*
X117171981Y-126380044D01*
X116967146Y-126130452D01*
X116738834Y-125902140D01*
X116489242Y-125697305D01*
X116485666Y-125694915D01*
X116220777Y-125517922D01*
X116220768Y-125517916D01*
X115936019Y-125365715D01*
X115936016Y-125365713D01*
X115637720Y-125242156D01*
X115637713Y-125242153D01*
X115637708Y-125242151D01*
X115637699Y-125242148D01*
X115328752Y-125148429D01*
X115328739Y-125148426D01*
X115328734Y-125148425D01*
X115012055Y-125085434D01*
X115012053Y-125085433D01*
X115012049Y-125085433D01*
X114690727Y-125053786D01*
X113189273Y-125053786D01*
X113189272Y-125053786D01*
X112867950Y-125085433D01*
X112551260Y-125148426D01*
X112551247Y-125148429D01*
X112242300Y-125242148D01*
X112242279Y-125242156D01*
X111943983Y-125365713D01*
X111943980Y-125365715D01*
X111659231Y-125517916D01*
X111659222Y-125517922D01*
X111390760Y-125697303D01*
X111141169Y-125902137D01*
X110912851Y-126130455D01*
X110708017Y-126380046D01*
X110528636Y-126648508D01*
X110528630Y-126648517D01*
X110376429Y-126933266D01*
X110376427Y-126933269D01*
X110252870Y-127231565D01*
X110252862Y-127231586D01*
X110159143Y-127540533D01*
X110159140Y-127540546D01*
X110096147Y-127857236D01*
X110064500Y-128178558D01*
X88805457Y-128178558D01*
X88783342Y-128038931D01*
X88720805Y-127846461D01*
X88720801Y-127846451D01*
X88628931Y-127666147D01*
X88628927Y-127666140D01*
X88509970Y-127502408D01*
X88509968Y-127502406D01*
X88366875Y-127359314D01*
X88366866Y-127359306D01*
X88313220Y-127320331D01*
X87657828Y-127975722D01*
X87622007Y-127939901D01*
X87507993Y-127874075D01*
X87380826Y-127840000D01*
X87086445Y-127840000D01*
X87838014Y-127088431D01*
X87830364Y-127085945D01*
X87830352Y-127085942D01*
X87630485Y-127054287D01*
X87630470Y-127054286D01*
X86249530Y-127054286D01*
X86249514Y-127054287D01*
X86049643Y-127085943D01*
X86049636Y-127085945D01*
X86041984Y-127088431D01*
X86793553Y-127840000D01*
X86499174Y-127840000D01*
X86372007Y-127874075D01*
X86257993Y-127939901D01*
X86222170Y-127975723D01*
X85566778Y-127320331D01*
X85513124Y-127359314D01*
X85370031Y-127502406D01*
X85370029Y-127502408D01*
X85251072Y-127666140D01*
X85251068Y-127666147D01*
X85159198Y-127846451D01*
X85159194Y-127846461D01*
X85096657Y-128038930D01*
X85065001Y-128238800D01*
X85065000Y-128238816D01*
X83790571Y-128238816D01*
X83799528Y-126653506D01*
X83819020Y-126558329D01*
X83850728Y-126503662D01*
X86955056Y-122444088D01*
X87027993Y-122379910D01*
X87119940Y-122348528D01*
X87153370Y-122346344D01*
X107603053Y-122389499D01*
X107839998Y-122390000D01*
X107839998Y-122389999D01*
X107840000Y-122390000D01*
X132216933Y-90208912D01*
X141282500Y-90208912D01*
X141282500Y-90471087D01*
X141316720Y-90731013D01*
X141384574Y-90984253D01*
X141484910Y-91226483D01*
X141615987Y-91453515D01*
X141615988Y-91453517D01*
X141702580Y-91566365D01*
X142604921Y-90664023D01*
X142617859Y-90695258D01*
X142699937Y-90818097D01*
X142804403Y-90922563D01*
X142927242Y-91004641D01*
X142958473Y-91017577D01*
X142056133Y-91919918D01*
X142168978Y-92006508D01*
X142396016Y-92137589D01*
X142638246Y-92237925D01*
X142891487Y-92305779D01*
X142891485Y-92305779D01*
X143151412Y-92340000D01*
X143413588Y-92340000D01*
X143673513Y-92305779D01*
X143926753Y-92237925D01*
X144168983Y-92137589D01*
X144396015Y-92006512D01*
X144396027Y-92006504D01*
X144508865Y-91919919D01*
X143606524Y-91017578D01*
X143637758Y-91004641D01*
X143760597Y-90922563D01*
X143865063Y-90818097D01*
X143947141Y-90695258D01*
X143960078Y-90664024D01*
X144862419Y-91566365D01*
X144949004Y-91453527D01*
X144949012Y-91453515D01*
X145080089Y-91226483D01*
X145180425Y-90984253D01*
X145248279Y-90731013D01*
X145282500Y-90471087D01*
X145282500Y-90208912D01*
X145248279Y-89948986D01*
X145180425Y-89695746D01*
X145080089Y-89453516D01*
X144949008Y-89226478D01*
X144862418Y-89113633D01*
X143960077Y-90015973D01*
X143947141Y-89984742D01*
X143865063Y-89861903D01*
X143760597Y-89757437D01*
X143637758Y-89675359D01*
X143606523Y-89662421D01*
X144508865Y-88760080D01*
X144396017Y-88673488D01*
X144396015Y-88673487D01*
X144168983Y-88542410D01*
X143926753Y-88442074D01*
X143673512Y-88374220D01*
X143673514Y-88374220D01*
X143413588Y-88340000D01*
X143151412Y-88340000D01*
X142891486Y-88374220D01*
X142638246Y-88442074D01*
X142396016Y-88542410D01*
X142168976Y-88673492D01*
X142168973Y-88673493D01*
X142056133Y-88760079D01*
X142958476Y-89662421D01*
X142927242Y-89675359D01*
X142804403Y-89757437D01*
X142699937Y-89861903D01*
X142617859Y-89984742D01*
X142604921Y-90015976D01*
X141702579Y-89113633D01*
X141615993Y-89226473D01*
X141615992Y-89226476D01*
X141484910Y-89453516D01*
X141384574Y-89695746D01*
X141316720Y-89948986D01*
X141282500Y-90208912D01*
X132216933Y-90208912D01*
X134765904Y-86843901D01*
X134838545Y-86779393D01*
X134930348Y-86747592D01*
X134962706Y-86745261D01*
X144597578Y-86680686D01*
X144692989Y-86699001D01*
G37*
G04 #@! TD.AperFunction*
G04 #@! TA.AperFunction,Conductor*
G36*
X212283039Y-93109685D02*
G01*
X212328794Y-93162489D01*
X212340000Y-93214000D01*
X212340000Y-97288638D01*
X212338647Y-97293244D01*
X212339651Y-97297940D01*
X212332021Y-97332399D01*
X212310295Y-97390000D01*
X212290000Y-97390000D01*
X212290000Y-96879655D01*
X211624531Y-96891128D01*
X211682315Y-96833345D01*
X211774356Y-96684124D01*
X211774358Y-96684119D01*
X211829505Y-96517697D01*
X211829506Y-96517690D01*
X211839999Y-96414986D01*
X211840000Y-96414973D01*
X211840000Y-95590000D01*
X210552500Y-95590000D01*
X210552500Y-96909611D01*
X210052500Y-96918232D01*
X210052500Y-95590000D01*
X208765001Y-95590000D01*
X208765001Y-96414986D01*
X208775494Y-96517697D01*
X208830641Y-96684119D01*
X208830643Y-96684124D01*
X208922684Y-96833345D01*
X209025282Y-96935943D01*
X207890000Y-96955517D01*
X207890000Y-94265013D01*
X208765000Y-94265013D01*
X208765000Y-95090000D01*
X210052500Y-95090000D01*
X210552500Y-95090000D01*
X211839999Y-95090000D01*
X211839999Y-94265028D01*
X211839998Y-94265013D01*
X211829505Y-94162302D01*
X211774358Y-93995880D01*
X211774356Y-93995875D01*
X211682315Y-93846654D01*
X211558345Y-93722684D01*
X211409124Y-93630643D01*
X211409119Y-93630641D01*
X211242697Y-93575494D01*
X211242690Y-93575493D01*
X211139986Y-93565000D01*
X210552500Y-93565000D01*
X210552500Y-95090000D01*
X210052500Y-95090000D01*
X210052500Y-93565000D01*
X209465028Y-93565000D01*
X209465012Y-93565001D01*
X209362302Y-93575494D01*
X209195880Y-93630641D01*
X209195875Y-93630643D01*
X209046654Y-93722684D01*
X208922684Y-93846654D01*
X208830643Y-93995875D01*
X208830641Y-93995880D01*
X208775494Y-94162302D01*
X208775493Y-94162309D01*
X208765000Y-94265013D01*
X207890000Y-94265013D01*
X207890000Y-93214000D01*
X207909685Y-93146961D01*
X207962489Y-93101206D01*
X208014000Y-93090000D01*
X212216000Y-93090000D01*
X212283039Y-93109685D01*
G37*
G04 #@! TD.AperFunction*
G04 #@! TA.AperFunction,Conductor*
G36*
X144815000Y-53140000D02*
G01*
X139214000Y-53140000D01*
X139146961Y-53120315D01*
X139101206Y-53067511D01*
X139090000Y-53016000D01*
X139090000Y-51825950D01*
X139109685Y-51758911D01*
X139162489Y-51713156D01*
X139170668Y-51709768D01*
X139307326Y-51658798D01*
X139307326Y-51658797D01*
X139307331Y-51658796D01*
X139422546Y-51572546D01*
X139508796Y-51457331D01*
X139531795Y-51395668D01*
X139573665Y-51339734D01*
X139639129Y-51315316D01*
X139647977Y-51315000D01*
X140440000Y-51315000D01*
X140440000Y-51314000D01*
X140459685Y-51246961D01*
X140512489Y-51201206D01*
X140564000Y-51190000D01*
X140815000Y-51190000D01*
X140815000Y-50590000D01*
X141815000Y-50590000D01*
X144815000Y-50590000D01*
X144815000Y-53140000D01*
G37*
G04 #@! TD.AperFunction*
G04 #@! TA.AperFunction,Conductor*
G36*
X201788531Y-93784185D02*
G01*
X201834286Y-93836989D01*
X201845480Y-93890198D01*
X201844076Y-93992698D01*
X201823475Y-94059462D01*
X201770050Y-94104489D01*
X201720088Y-94115000D01*
X201690000Y-94115000D01*
X201690000Y-94941000D01*
X201670315Y-95008039D01*
X201617511Y-95053794D01*
X201566000Y-95065000D01*
X201440000Y-95065000D01*
X201440000Y-95191000D01*
X201420315Y-95258039D01*
X201367511Y-95303794D01*
X201316000Y-95315000D01*
X200465001Y-95315000D01*
X200428682Y-95351319D01*
X200426610Y-95349247D01*
X200392512Y-95378794D01*
X200341001Y-95390000D01*
X200039000Y-95390000D01*
X199971961Y-95370315D01*
X199926206Y-95317511D01*
X199915000Y-95266000D01*
X199915000Y-94791677D01*
X200465000Y-94791677D01*
X200465000Y-94815000D01*
X201190000Y-94815000D01*
X201190000Y-94115000D01*
X201189999Y-94114999D01*
X201141693Y-94115000D01*
X201141675Y-94115001D01*
X201042392Y-94125144D01*
X200881518Y-94178452D01*
X200881507Y-94178457D01*
X200737271Y-94267424D01*
X200737267Y-94267427D01*
X200617427Y-94387267D01*
X200617424Y-94387271D01*
X200528457Y-94531507D01*
X200528452Y-94531518D01*
X200475144Y-94692393D01*
X200465000Y-94791677D01*
X199915000Y-94791677D01*
X199915000Y-93898440D01*
X199923644Y-93868999D01*
X199930168Y-93839013D01*
X199933922Y-93833997D01*
X199934685Y-93831401D01*
X199951319Y-93810759D01*
X199961259Y-93800819D01*
X200022582Y-93767334D01*
X200048940Y-93764500D01*
X201721492Y-93764500D01*
X201788531Y-93784185D01*
G37*
G04 #@! TD.AperFunction*
G04 #@! TA.AperFunction,Conductor*
G36*
X194531946Y-93359685D02*
G01*
X194577701Y-93412489D01*
X194588902Y-93465089D01*
X194586075Y-93787089D01*
X194565803Y-93853953D01*
X194512599Y-93899242D01*
X194472142Y-93907857D01*
X194470000Y-93910000D01*
X194470000Y-94516000D01*
X194450315Y-94583039D01*
X194397511Y-94628794D01*
X194346000Y-94640000D01*
X194240000Y-94640000D01*
X194240000Y-94746000D01*
X194220315Y-94813039D01*
X194167511Y-94858794D01*
X194116000Y-94870000D01*
X193330000Y-94870000D01*
X193296319Y-94903681D01*
X193234996Y-94937166D01*
X193208638Y-94940000D01*
X192864000Y-94940000D01*
X192796961Y-94920315D01*
X192751206Y-94867511D01*
X192740000Y-94816000D01*
X192740000Y-94362155D01*
X193330000Y-94362155D01*
X193330000Y-94410000D01*
X194010000Y-94410000D01*
X194010000Y-93910000D01*
X193782155Y-93910000D01*
X193722627Y-93916401D01*
X193722620Y-93916403D01*
X193587913Y-93966645D01*
X193587906Y-93966649D01*
X193472812Y-94052809D01*
X193472809Y-94052812D01*
X193386649Y-94167906D01*
X193386645Y-94167913D01*
X193336403Y-94302620D01*
X193336401Y-94302627D01*
X193330000Y-94362155D01*
X192740000Y-94362155D01*
X192740000Y-93464000D01*
X192759685Y-93396961D01*
X192812489Y-93351206D01*
X192864000Y-93340000D01*
X194464907Y-93340000D01*
X194531946Y-93359685D01*
G37*
G04 #@! TD.AperFunction*
G04 #@! TA.AperFunction,Conductor*
G36*
X145857334Y-110659685D02*
G01*
X145893469Y-110695217D01*
X146869174Y-112158774D01*
X146889982Y-112225473D01*
X146890000Y-112227557D01*
X146890000Y-116057655D01*
X146890000Y-117590000D01*
X145697100Y-117590000D01*
X145683454Y-117553413D01*
X145683450Y-117553406D01*
X145597290Y-117438312D01*
X145597287Y-117438309D01*
X145482193Y-117352149D01*
X145482186Y-117352145D01*
X145347479Y-117301903D01*
X145347472Y-117301901D01*
X145287944Y-117295500D01*
X144690000Y-117295500D01*
X144690000Y-117590000D01*
X144190000Y-117590000D01*
X144190000Y-117295500D01*
X143592055Y-117295500D01*
X143532527Y-117301901D01*
X143532520Y-117301903D01*
X143397813Y-117352145D01*
X143397806Y-117352149D01*
X143282712Y-117438309D01*
X143282709Y-117438312D01*
X143196549Y-117553406D01*
X143196545Y-117553413D01*
X143182899Y-117590000D01*
X141940000Y-117590000D01*
X141940000Y-112557682D01*
X143090000Y-112557682D01*
X143090000Y-112762317D01*
X143122009Y-112964417D01*
X143185244Y-113159031D01*
X143278141Y-113341350D01*
X143278147Y-113341359D01*
X143310523Y-113385921D01*
X143310524Y-113385922D01*
X143990000Y-112706446D01*
X143990000Y-112712661D01*
X144017259Y-112814394D01*
X144069920Y-112905606D01*
X144144394Y-112980080D01*
X144235606Y-113032741D01*
X144337339Y-113060000D01*
X144343553Y-113060000D01*
X143664076Y-113739474D01*
X143708650Y-113771859D01*
X143890968Y-113864755D01*
X144085582Y-113927990D01*
X144287683Y-113960000D01*
X144492317Y-113960000D01*
X144694417Y-113927990D01*
X144889031Y-113864755D01*
X145071349Y-113771859D01*
X145115921Y-113739474D01*
X144436447Y-113060000D01*
X144442661Y-113060000D01*
X144544394Y-113032741D01*
X144635606Y-112980080D01*
X144710080Y-112905606D01*
X144762741Y-112814394D01*
X144790000Y-112712661D01*
X144790000Y-112706447D01*
X145469474Y-113385921D01*
X145501859Y-113341349D01*
X145594755Y-113159031D01*
X145657990Y-112964417D01*
X145690000Y-112762317D01*
X145690000Y-112557682D01*
X145657990Y-112355582D01*
X145594755Y-112160968D01*
X145501859Y-111978650D01*
X145469474Y-111934077D01*
X145469474Y-111934076D01*
X144790000Y-112613551D01*
X144790000Y-112607339D01*
X144762741Y-112505606D01*
X144710080Y-112414394D01*
X144635606Y-112339920D01*
X144544394Y-112287259D01*
X144442661Y-112260000D01*
X144436446Y-112260000D01*
X145115922Y-111580524D01*
X145115921Y-111580523D01*
X145071359Y-111548147D01*
X145071350Y-111548141D01*
X144889031Y-111455244D01*
X144694417Y-111392009D01*
X144492317Y-111360000D01*
X144287683Y-111360000D01*
X144085582Y-111392009D01*
X143890968Y-111455244D01*
X143708644Y-111548143D01*
X143664077Y-111580523D01*
X143664077Y-111580524D01*
X144343554Y-112260000D01*
X144337339Y-112260000D01*
X144235606Y-112287259D01*
X144144394Y-112339920D01*
X144069920Y-112414394D01*
X144017259Y-112505606D01*
X143990000Y-112607339D01*
X143990000Y-112613553D01*
X143310524Y-111934077D01*
X143310523Y-111934077D01*
X143278143Y-111978644D01*
X143185244Y-112160968D01*
X143122009Y-112355582D01*
X143090000Y-112557682D01*
X141940000Y-112557682D01*
X141940000Y-112235550D01*
X141959685Y-112168511D01*
X141963370Y-112163096D01*
X141964903Y-112160968D01*
X142317338Y-111671473D01*
X142400963Y-111555329D01*
X143022887Y-110691546D01*
X143078033Y-110648643D01*
X143123517Y-110640000D01*
X145790295Y-110640000D01*
X145857334Y-110659685D01*
G37*
G04 #@! TD.AperFunction*
G04 #@! TA.AperFunction,Conductor*
G36*
X135257540Y-51109685D02*
G01*
X135303295Y-51162489D01*
X135314501Y-51214000D01*
X135314501Y-51262876D01*
X135320908Y-51322483D01*
X135371202Y-51457328D01*
X135371206Y-51457335D01*
X135457452Y-51572544D01*
X135457455Y-51572547D01*
X135465000Y-51578195D01*
X135465000Y-52090000D01*
X133490000Y-52090000D01*
X133490000Y-51090000D01*
X133590000Y-51090000D01*
X135190501Y-51090000D01*
X135257540Y-51109685D01*
G37*
G04 #@! TD.AperFunction*
G04 #@! TA.AperFunction,Conductor*
G36*
X111209759Y-42109685D02*
G01*
X111255514Y-42162489D01*
X111265458Y-42231647D01*
X111236433Y-42295203D01*
X111207817Y-42319539D01*
X111121654Y-42372684D01*
X110997684Y-42496654D01*
X110905643Y-42645875D01*
X110905641Y-42645880D01*
X110850494Y-42812302D01*
X110850493Y-42812309D01*
X110840000Y-42915013D01*
X110840000Y-43340000D01*
X112964999Y-43340000D01*
X112964999Y-42915028D01*
X112964998Y-42915013D01*
X112954505Y-42812302D01*
X112899358Y-42645880D01*
X112899356Y-42645875D01*
X112807315Y-42496654D01*
X112683345Y-42372684D01*
X112597183Y-42319539D01*
X112550459Y-42267591D01*
X112539236Y-42198628D01*
X112567080Y-42134546D01*
X112625148Y-42095690D01*
X112662280Y-42090000D01*
X115316000Y-42090000D01*
X115383039Y-42109685D01*
X115428794Y-42162489D01*
X115440000Y-42214000D01*
X115440000Y-49090000D01*
X132765000Y-49090000D01*
X132765000Y-49690000D01*
X133590000Y-49690000D01*
X133590000Y-51090000D01*
X133490000Y-51090000D01*
X133490000Y-51490000D01*
X133415000Y-51490000D01*
X133415000Y-52090000D01*
X133590000Y-52090000D01*
X133590000Y-55966000D01*
X133570315Y-56033039D01*
X133517511Y-56078794D01*
X133466000Y-56090000D01*
X110564000Y-56090000D01*
X110496961Y-56070315D01*
X110451206Y-56017511D01*
X110440000Y-55966000D01*
X110440000Y-50842155D01*
X116240000Y-50842155D01*
X116240000Y-51840000D01*
X117391518Y-51840000D01*
X117380889Y-51858409D01*
X117340000Y-52011009D01*
X117340000Y-52168991D01*
X117380889Y-52321591D01*
X117391518Y-52340000D01*
X116240000Y-52340000D01*
X116240000Y-53337844D01*
X116246401Y-53397372D01*
X116246403Y-53397379D01*
X116296645Y-53532086D01*
X116296649Y-53532093D01*
X116382809Y-53647187D01*
X116382812Y-53647190D01*
X116497906Y-53733350D01*
X116497913Y-53733354D01*
X116632620Y-53783596D01*
X116632627Y-53783598D01*
X116692155Y-53789999D01*
X116692172Y-53790000D01*
X117690000Y-53790000D01*
X117690000Y-52638482D01*
X117708409Y-52649111D01*
X117861009Y-52690000D01*
X118018991Y-52690000D01*
X118171591Y-52649111D01*
X118190000Y-52638482D01*
X118190000Y-53790000D01*
X119187828Y-53790000D01*
X119187844Y-53789999D01*
X119247372Y-53783598D01*
X119247379Y-53783596D01*
X119382086Y-53733354D01*
X119382093Y-53733350D01*
X119497187Y-53647190D01*
X119497190Y-53647187D01*
X119583350Y-53532093D01*
X119583354Y-53532086D01*
X119633596Y-53397379D01*
X119633598Y-53397372D01*
X119639999Y-53337844D01*
X119640000Y-53337827D01*
X119640000Y-52739986D01*
X126765001Y-52739986D01*
X126775494Y-52842697D01*
X126830641Y-53009119D01*
X126830643Y-53009124D01*
X126922684Y-53158345D01*
X127046654Y-53282315D01*
X127195875Y-53374356D01*
X127195880Y-53374358D01*
X127362302Y-53429505D01*
X127362309Y-53429506D01*
X127465019Y-53439999D01*
X128289999Y-53439999D01*
X128790000Y-53439999D01*
X129614972Y-53439999D01*
X129614986Y-53439998D01*
X129717697Y-53429505D01*
X129884119Y-53374358D01*
X129884124Y-53374356D01*
X130033345Y-53282315D01*
X130157315Y-53158345D01*
X130249356Y-53009124D01*
X130249358Y-53009119D01*
X130304505Y-52842697D01*
X130304506Y-52842690D01*
X130314999Y-52739986D01*
X130315000Y-52739973D01*
X130315000Y-52152500D01*
X128790000Y-52152500D01*
X128790000Y-53439999D01*
X128289999Y-53439999D01*
X128290000Y-53439998D01*
X128290000Y-52152500D01*
X126765001Y-52152500D01*
X126765001Y-52739986D01*
X119640000Y-52739986D01*
X119640000Y-52340000D01*
X118488482Y-52340000D01*
X118499111Y-52321591D01*
X118540000Y-52168991D01*
X118540000Y-52011009D01*
X118499111Y-51858409D01*
X118488482Y-51840000D01*
X119640000Y-51840000D01*
X119640000Y-51065013D01*
X126765000Y-51065013D01*
X126765000Y-51652500D01*
X128290000Y-51652500D01*
X128790000Y-51652500D01*
X130314999Y-51652500D01*
X130314999Y-51065028D01*
X130314998Y-51065013D01*
X130304505Y-50962302D01*
X130249358Y-50795880D01*
X130249356Y-50795875D01*
X130157315Y-50646654D01*
X130033345Y-50522684D01*
X129884124Y-50430643D01*
X129884119Y-50430641D01*
X129717697Y-50375494D01*
X129717690Y-50375493D01*
X129614986Y-50365000D01*
X128790000Y-50365000D01*
X128790000Y-51652500D01*
X128290000Y-51652500D01*
X128290000Y-50365000D01*
X127465028Y-50365000D01*
X127465012Y-50365001D01*
X127362302Y-50375494D01*
X127195880Y-50430641D01*
X127195875Y-50430643D01*
X127046654Y-50522684D01*
X126922684Y-50646654D01*
X126830643Y-50795875D01*
X126830641Y-50795880D01*
X126775494Y-50962302D01*
X126775493Y-50962309D01*
X126765000Y-51065013D01*
X119640000Y-51065013D01*
X119640000Y-50842172D01*
X119639999Y-50842155D01*
X119633598Y-50782627D01*
X119633596Y-50782620D01*
X119583354Y-50647913D01*
X119583350Y-50647906D01*
X119497190Y-50532812D01*
X119497187Y-50532809D01*
X119382093Y-50446649D01*
X119382086Y-50446645D01*
X119247379Y-50396403D01*
X119247372Y-50396401D01*
X119187844Y-50390000D01*
X118190000Y-50390000D01*
X118190000Y-51541517D01*
X118171591Y-51530889D01*
X118018991Y-51490000D01*
X117861009Y-51490000D01*
X117708409Y-51530889D01*
X117690000Y-51541517D01*
X117690000Y-50390000D01*
X116692155Y-50390000D01*
X116632627Y-50396401D01*
X116632620Y-50396403D01*
X116497913Y-50446645D01*
X116497906Y-50446649D01*
X116382812Y-50532809D01*
X116382809Y-50532812D01*
X116296649Y-50647906D01*
X116296645Y-50647913D01*
X116246403Y-50782620D01*
X116246401Y-50782627D01*
X116240000Y-50842155D01*
X110440000Y-50842155D01*
X110440000Y-44264986D01*
X110840001Y-44264986D01*
X110850494Y-44367697D01*
X110905641Y-44534119D01*
X110905643Y-44534124D01*
X110997684Y-44683345D01*
X111121654Y-44807315D01*
X111270875Y-44899356D01*
X111270880Y-44899358D01*
X111437302Y-44954505D01*
X111437309Y-44954506D01*
X111540019Y-44964999D01*
X111652499Y-44964999D01*
X112152500Y-44964999D01*
X112264972Y-44964999D01*
X112264986Y-44964998D01*
X112367697Y-44954505D01*
X112534119Y-44899358D01*
X112534124Y-44899356D01*
X112683345Y-44807315D01*
X112807315Y-44683345D01*
X112899356Y-44534124D01*
X112899358Y-44534119D01*
X112954505Y-44367697D01*
X112954506Y-44367690D01*
X112964999Y-44264986D01*
X112965000Y-44264973D01*
X112965000Y-43840000D01*
X112152500Y-43840000D01*
X112152500Y-44964999D01*
X111652499Y-44964999D01*
X111652500Y-44964998D01*
X111652500Y-43840000D01*
X110840001Y-43840000D01*
X110840001Y-44264986D01*
X110440000Y-44264986D01*
X110440000Y-42214000D01*
X110459685Y-42146961D01*
X110512489Y-42101206D01*
X110564000Y-42090000D01*
X111142720Y-42090000D01*
X111209759Y-42109685D01*
G37*
G04 #@! TD.AperFunction*
M02*
