G04 #@! TF.GenerationSoftware,KiCad,Pcbnew,9.0.0*
G04 #@! TF.CreationDate,2025-03-31T11:54:41-05:00*
G04 #@! TF.ProjectId,Power_Supply,506f7765-725f-4537-9570-706c792e6b69,rev?*
G04 #@! TF.SameCoordinates,Original*
G04 #@! TF.FileFunction,Copper,L3,Inr*
G04 #@! TF.FilePolarity,Positive*
%FSLAX46Y46*%
G04 Gerber Fmt 4.6, Leading zero omitted, Abs format (unit mm)*
G04 Created by KiCad (PCBNEW 9.0.0) date 2025-03-31 11:54:41*
%MOMM*%
%LPD*%
G01*
G04 APERTURE LIST*
G04 #@! TA.AperFunction,ComponentPad*
%ADD10C,2.000000*%
G04 #@! TD*
G04 #@! TA.AperFunction,ComponentPad*
%ADD11C,2.250000*%
G04 #@! TD*
G04 #@! TA.AperFunction,ComponentPad*
%ADD12R,1.561000X1.561000*%
G04 #@! TD*
G04 #@! TA.AperFunction,ComponentPad*
%ADD13C,1.561000*%
G04 #@! TD*
G04 #@! TA.AperFunction,ComponentPad*
%ADD14C,4.572000*%
G04 #@! TD*
G04 #@! TA.AperFunction,ComponentPad*
%ADD15C,1.600000*%
G04 #@! TD*
G04 #@! TA.AperFunction,ComponentPad*
%ADD16C,1.980000*%
G04 #@! TD*
G04 #@! TA.AperFunction,ComponentPad*
%ADD17R,1.700000X1.700000*%
G04 #@! TD*
G04 #@! TA.AperFunction,ComponentPad*
%ADD18O,1.700000X1.700000*%
G04 #@! TD*
G04 #@! TA.AperFunction,ComponentPad*
%ADD19R,2.400000X2.400000*%
G04 #@! TD*
G04 #@! TA.AperFunction,ComponentPad*
%ADD20C,2.400000*%
G04 #@! TD*
G04 #@! TA.AperFunction,ComponentPad*
%ADD21R,2.200000X2.200000*%
G04 #@! TD*
G04 #@! TA.AperFunction,ComponentPad*
%ADD22O,2.200000X2.200000*%
G04 #@! TD*
G04 #@! TA.AperFunction,ComponentPad*
%ADD23R,3.000000X3.000000*%
G04 #@! TD*
G04 #@! TA.AperFunction,ComponentPad*
%ADD24C,3.000000*%
G04 #@! TD*
G04 #@! TA.AperFunction,ComponentPad*
%ADD25C,1.400000*%
G04 #@! TD*
G04 #@! TA.AperFunction,ComponentPad*
%ADD26O,1.400000X1.400000*%
G04 #@! TD*
G04 #@! TA.AperFunction,ComponentPad*
%ADD27R,1.050000X1.500000*%
G04 #@! TD*
G04 #@! TA.AperFunction,ComponentPad*
%ADD28O,1.050000X1.500000*%
G04 #@! TD*
G04 #@! TA.AperFunction,ComponentPad*
%ADD29R,1.600000X1.600000*%
G04 #@! TD*
G04 #@! TA.AperFunction,ComponentPad*
%ADD30O,1.600000X1.600000*%
G04 #@! TD*
G04 #@! TA.AperFunction,ComponentPad*
%ADD31C,1.440000*%
G04 #@! TD*
G04 #@! TA.AperFunction,ComponentPad*
%ADD32R,1.600200X1.600200*%
G04 #@! TD*
G04 #@! TA.AperFunction,ComponentPad*
%ADD33C,1.600200*%
G04 #@! TD*
G04 #@! TA.AperFunction,ComponentPad*
%ADD34R,2.500000X2.500000*%
G04 #@! TD*
G04 #@! TA.AperFunction,ComponentPad*
%ADD35O,2.500000X2.500000*%
G04 #@! TD*
G04 #@! TA.AperFunction,ComponentPad*
%ADD36O,2.750000X1.571429*%
G04 #@! TD*
G04 #@! TA.AperFunction,ComponentPad*
%ADD37C,5.610000*%
G04 #@! TD*
G04 #@! TA.AperFunction,ViaPad*
%ADD38C,0.600000*%
G04 #@! TD*
G04 #@! TA.AperFunction,ViaPad*
%ADD39C,0.800000*%
G04 #@! TD*
G04 #@! TA.AperFunction,Conductor*
%ADD40C,0.600000*%
G04 #@! TD*
G04 APERTURE END LIST*
D10*
X201440000Y-31520000D03*
D11*
X203540000Y-138090000D03*
X180940000Y-138090000D03*
D10*
X201440000Y-36600000D03*
X201440000Y-51840000D03*
D12*
X211095000Y-39026000D03*
D13*
X211095000Y-41769000D03*
X211095000Y-44512000D03*
X211095000Y-47256000D03*
X211095000Y-49999000D03*
X211095000Y-52742000D03*
X211095000Y-55485000D03*
X211095000Y-58228000D03*
X213940000Y-40398000D03*
X213940000Y-43141000D03*
X213940000Y-45884000D03*
X213940000Y-48627000D03*
X213940000Y-51370000D03*
X213940000Y-54114000D03*
X213940000Y-56857000D03*
D14*
X212517000Y-31965000D03*
X212517000Y-65290000D03*
D15*
X176390000Y-102715000D03*
X176390000Y-97715000D03*
D16*
X213620000Y-127740000D03*
X208540000Y-127740000D03*
X208550000Y-117940000D03*
X213630000Y-117940000D03*
D17*
X192640000Y-71890000D03*
D18*
X192640000Y-74430000D03*
X192640000Y-76970000D03*
D19*
X117940000Y-52090000D03*
D20*
X117940000Y-47090000D03*
D21*
X185260000Y-97840000D03*
D22*
X195420000Y-97840000D03*
D23*
X143282500Y-79590000D03*
D24*
X143282500Y-90340000D03*
X181782500Y-90340000D03*
X181782500Y-82340000D03*
D25*
X179040000Y-129930000D03*
D26*
X179040000Y-124850000D03*
D10*
X201440000Y-56920000D03*
D19*
X87940000Y-37090000D03*
D20*
X87940000Y-32090000D03*
D27*
X202810000Y-108930000D03*
D28*
X201540000Y-108930000D03*
X200270000Y-108930000D03*
D10*
X201440000Y-41680000D03*
D19*
X117940000Y-37090000D03*
D20*
X117940000Y-32090000D03*
D29*
X200440000Y-102590000D03*
D15*
X202440000Y-102590000D03*
X144390000Y-112660000D03*
D30*
X144390000Y-97420000D03*
D19*
X102940000Y-37090000D03*
D20*
X102940000Y-32090000D03*
D31*
X205440000Y-83861500D03*
X205440000Y-86401500D03*
X205440000Y-88941500D03*
D15*
X153690000Y-112710000D03*
D30*
X153690000Y-97470000D03*
D17*
X197240000Y-71865000D03*
D18*
X197240000Y-74405000D03*
X197240000Y-76945000D03*
D19*
X102940000Y-52090000D03*
D20*
X102940000Y-47090000D03*
D32*
X155590000Y-118595600D03*
D33*
X155590000Y-141095600D03*
D34*
X185440000Y-121590000D03*
D35*
X187440000Y-127590000D03*
X199640000Y-127590000D03*
X199640000Y-115590000D03*
X187440000Y-115590000D03*
D19*
X87940000Y-52090000D03*
D20*
X87940000Y-47090000D03*
D10*
X201447000Y-61903000D03*
X201447000Y-66903000D03*
D25*
X179040000Y-120780000D03*
D26*
X179040000Y-115700000D03*
D32*
X144440000Y-118595600D03*
D33*
X144440000Y-141095600D03*
D36*
X71940000Y-128340000D03*
X86940000Y-128340000D03*
X113940000Y-128340000D03*
X128940000Y-128340000D03*
X128940000Y-74840000D03*
X118940000Y-74840000D03*
X81940000Y-74840000D03*
X71940000Y-74840000D03*
D37*
X130440000Y-64090000D03*
X70440000Y-64090000D03*
X70440000Y-139090000D03*
X130440000Y-139090000D03*
D11*
X168640000Y-118390000D03*
X168640000Y-140990000D03*
D10*
X201440000Y-46760000D03*
D17*
X187840000Y-71890000D03*
D18*
X187840000Y-74430000D03*
X187840000Y-76970000D03*
D21*
X185185000Y-101340000D03*
D22*
X195345000Y-101340000D03*
D16*
X208560000Y-138090000D03*
X213640000Y-138090000D03*
D38*
X209115000Y-72665000D03*
X204640000Y-75290000D03*
X202890000Y-73090000D03*
X193915000Y-81740000D03*
X196440000Y-81740000D03*
X203765000Y-76615000D03*
X204490000Y-77340000D03*
X202890000Y-73940000D03*
X199115000Y-80140000D03*
X199140000Y-81540000D03*
X195190000Y-81738600D03*
X203150000Y-79530000D03*
X204100000Y-79510000D03*
X202200000Y-79520000D03*
X203740000Y-73090000D03*
X195190000Y-82740000D03*
X195190000Y-80790000D03*
X203790000Y-77940000D03*
D39*
X192940000Y-56765000D03*
D38*
X204665000Y-74090000D03*
X208265000Y-72665000D03*
X208415000Y-74090000D03*
X200490000Y-80640000D03*
X210890000Y-96140000D03*
X209790000Y-96140000D03*
X206215000Y-74090000D03*
X211165000Y-97465000D03*
X210940000Y-94540000D03*
X206215000Y-73065000D03*
D39*
X172775001Y-57129999D03*
D38*
X211590000Y-74115000D03*
X206190000Y-75415000D03*
X209965000Y-75340000D03*
X211740000Y-77340000D03*
X207915000Y-99690000D03*
X210302500Y-95340000D03*
X200340000Y-97715000D03*
X210115000Y-97465000D03*
X211615000Y-73115000D03*
X208865000Y-97465000D03*
X206490000Y-98915000D03*
X186490000Y-49615000D03*
X209740000Y-94540000D03*
X200315000Y-96615000D03*
X207915000Y-98715000D03*
X211765000Y-79240000D03*
X201465000Y-97815000D03*
X209765000Y-79265000D03*
X207090000Y-77390000D03*
X201440000Y-96615000D03*
X207690000Y-97465000D03*
X209390000Y-77340000D03*
X209965000Y-74090000D03*
X209165000Y-98715000D03*
X137440000Y-49590000D03*
X138240000Y-50540000D03*
X129290000Y-45090000D03*
X128570772Y-43890000D03*
X186865000Y-39515000D03*
X140990000Y-47840000D03*
X134515000Y-39990000D03*
X135790000Y-40015000D03*
X128540000Y-47490000D03*
X147490000Y-46990000D03*
X136840000Y-31890000D03*
X147490000Y-45640000D03*
X138990000Y-34090000D03*
X146440000Y-38602500D03*
X126440000Y-43890000D03*
X134165000Y-45565000D03*
X138090000Y-46340000D03*
X134615000Y-41490000D03*
X126411511Y-40042960D03*
X127715000Y-45115000D03*
X127840000Y-37690000D03*
X147290000Y-39290000D03*
X136540000Y-50540000D03*
X136790000Y-46340000D03*
X133765000Y-36265000D03*
X128540000Y-38315000D03*
X138240000Y-48740000D03*
X137890000Y-32990000D03*
X132640000Y-37315000D03*
X131465000Y-36265000D03*
X130540000Y-47490000D03*
X129290000Y-46265000D03*
X129340000Y-38890000D03*
X141840000Y-48640000D03*
X136840000Y-34090000D03*
X145540000Y-37940000D03*
X144930000Y-42420000D03*
X128540000Y-45677500D03*
X138990000Y-31890000D03*
X147290000Y-37990000D03*
X145540000Y-39290000D03*
X145690000Y-45640000D03*
X126460185Y-36437164D03*
X146590000Y-46327500D03*
X146505000Y-42420000D03*
X130540000Y-43890000D03*
X145690000Y-46990000D03*
X145710000Y-41590000D03*
X132640000Y-36265000D03*
X140990000Y-48640000D03*
X134565000Y-38740000D03*
X126540000Y-47490000D03*
X131440000Y-45590000D03*
X147330000Y-41580000D03*
X136540000Y-48740000D03*
X186627500Y-34127500D03*
X126415000Y-38315000D03*
X130887157Y-40014208D03*
X128540000Y-40090000D03*
X127740000Y-46265000D03*
X130915000Y-38315000D03*
X145720000Y-43250000D03*
X132990000Y-46515000D03*
X127840000Y-38890000D03*
X141840000Y-47840000D03*
X148180000Y-42420000D03*
X128540000Y-36440000D03*
X131465000Y-46340000D03*
X147340000Y-43240000D03*
X129340000Y-37690000D03*
X68240000Y-56290000D03*
X68240000Y-54890000D03*
X70240000Y-53490000D03*
X66090000Y-56290000D03*
X69115000Y-54865000D03*
X66090000Y-53440000D03*
X68215000Y-53365000D03*
X70240000Y-56265000D03*
X67265000Y-54890000D03*
X160440000Y-112690000D03*
X161840000Y-112690000D03*
X161540000Y-110590000D03*
X161540000Y-108990000D03*
X161140000Y-109790000D03*
X160740000Y-108990000D03*
X161140000Y-111890000D03*
X159840000Y-111890000D03*
X162440000Y-111890000D03*
X160740000Y-110590000D03*
X195240000Y-104590000D03*
D39*
X186465000Y-64890000D03*
D38*
X203340000Y-97640000D03*
X204915000Y-100140000D03*
X203365000Y-98840000D03*
X204590000Y-94640000D03*
X204940000Y-98915000D03*
X203490000Y-96140000D03*
X204940000Y-97615000D03*
X204590000Y-96140000D03*
X204077500Y-95340000D03*
D39*
X192440000Y-46490000D03*
D38*
X203540000Y-94640000D03*
X203415000Y-99965000D03*
X145765000Y-51990000D03*
X141520000Y-51930000D03*
X147390000Y-53165000D03*
X145765000Y-53140000D03*
X141310000Y-51070000D03*
X140229079Y-52616887D03*
X141290000Y-50040000D03*
X140640000Y-51940000D03*
X147390000Y-51965000D03*
X146590000Y-52552500D03*
D39*
X192440000Y-41415000D03*
D38*
X139790000Y-51940000D03*
X141200000Y-52650000D03*
X132640000Y-34715000D03*
X134840000Y-33640000D03*
X139415000Y-38490000D03*
X146440000Y-32377500D03*
X145540000Y-31740000D03*
X139840000Y-35340000D03*
X140640000Y-37490000D03*
D39*
X192352500Y-31240000D03*
D38*
X140340000Y-39990000D03*
X139215000Y-39940000D03*
X143930000Y-33020000D03*
X145540000Y-33040000D03*
X140665000Y-38465000D03*
X147290000Y-31740000D03*
X147340000Y-33040000D03*
X139390000Y-37465000D03*
X142820000Y-33010000D03*
X141590000Y-32990000D03*
X140640000Y-36040000D03*
X77665000Y-51290000D03*
X79940000Y-51090000D03*
X79940000Y-49690000D03*
X76790000Y-49790000D03*
X78440000Y-48090000D03*
X76940000Y-48090000D03*
X75340000Y-49890000D03*
X77640000Y-49790000D03*
X78540000Y-49790000D03*
X79865000Y-48065000D03*
X75540000Y-51190000D03*
X190202500Y-109590000D03*
X190190000Y-110640000D03*
X190215000Y-108540000D03*
X132990000Y-48065000D03*
X134408874Y-50239999D03*
X194240000Y-94640000D03*
X193290000Y-93690000D03*
X203490000Y-84790000D03*
X195190000Y-92390000D03*
X193040000Y-94590000D03*
X194240000Y-93640000D03*
X195190000Y-91441400D03*
X193740000Y-91440000D03*
X201490000Y-93815000D03*
X200240000Y-93840000D03*
X196590000Y-91440000D03*
X200240000Y-95040000D03*
X203490000Y-82690000D03*
X203490000Y-83690000D03*
X195190000Y-90490000D03*
X201440000Y-95065000D03*
D40*
X212467000Y-54114000D02*
X211095000Y-52742000D01*
X205618000Y-52742000D02*
X211095000Y-52742000D01*
X213940000Y-54114000D02*
X212467000Y-54114000D01*
X201440000Y-56920000D02*
X205618000Y-52742000D01*
X213940000Y-48627000D02*
X212466000Y-48627000D01*
X201440000Y-46760000D02*
X210599000Y-46760000D01*
X210599000Y-46760000D02*
X211095000Y-47256000D01*
X212466000Y-48627000D02*
X211095000Y-47256000D01*
X213940000Y-45884000D02*
X212467000Y-45884000D01*
X210923000Y-44340000D02*
X211095000Y-44512000D01*
X204940000Y-44340000D02*
X210923000Y-44340000D01*
X212467000Y-45884000D02*
X211095000Y-44512000D01*
X202280000Y-41680000D02*
X204940000Y-44340000D01*
X201440000Y-41680000D02*
X202280000Y-41680000D01*
X211095000Y-39026000D02*
X208946000Y-39026000D01*
X212467000Y-40398000D02*
X211095000Y-39026000D01*
X213940000Y-40398000D02*
X212467000Y-40398000D01*
X208946000Y-39026000D02*
X201440000Y-31520000D01*
G04 #@! TA.AperFunction,Conductor*
G36*
X203607723Y-54359685D02*
G01*
X203653478Y-54412489D01*
X203664684Y-54464000D01*
X203664684Y-59216000D01*
X203644999Y-59283039D01*
X203592195Y-59328794D01*
X203540684Y-59340000D01*
X199159937Y-59340000D01*
X199089932Y-69849999D01*
X199089933Y-69850000D01*
X199086632Y-70345662D01*
X192190000Y-70355656D01*
X192190000Y-56801947D01*
X199940000Y-56801947D01*
X199940000Y-57038052D01*
X199976934Y-57271247D01*
X200049897Y-57495802D01*
X200157087Y-57706174D01*
X200217338Y-57789104D01*
X200217340Y-57789105D01*
X200957037Y-57049408D01*
X200974075Y-57112993D01*
X201039901Y-57227007D01*
X201132993Y-57320099D01*
X201247007Y-57385925D01*
X201310590Y-57402962D01*
X200570893Y-58142658D01*
X200653828Y-58202914D01*
X200864197Y-58310102D01*
X201088752Y-58383065D01*
X201088751Y-58383065D01*
X201321948Y-58420000D01*
X201558052Y-58420000D01*
X201791247Y-58383065D01*
X202015802Y-58310102D01*
X202226163Y-58202918D01*
X202226169Y-58202914D01*
X202309104Y-58142658D01*
X202309105Y-58142658D01*
X201569408Y-57402962D01*
X201632993Y-57385925D01*
X201747007Y-57320099D01*
X201840099Y-57227007D01*
X201905925Y-57112993D01*
X201922962Y-57049409D01*
X202662658Y-57789105D01*
X202662658Y-57789104D01*
X202722914Y-57706169D01*
X202722918Y-57706163D01*
X202830102Y-57495802D01*
X202903065Y-57271247D01*
X202940000Y-57038052D01*
X202940000Y-56801947D01*
X202903065Y-56568752D01*
X202830102Y-56344197D01*
X202722914Y-56133828D01*
X202662658Y-56050894D01*
X202662658Y-56050893D01*
X201922962Y-56790590D01*
X201905925Y-56727007D01*
X201840099Y-56612993D01*
X201747007Y-56519901D01*
X201632993Y-56454075D01*
X201569409Y-56437037D01*
X202309105Y-55697340D01*
X202309104Y-55697338D01*
X202226174Y-55637087D01*
X202015802Y-55529897D01*
X201791247Y-55456934D01*
X201791248Y-55456934D01*
X201558052Y-55420000D01*
X201321948Y-55420000D01*
X201088752Y-55456934D01*
X200864197Y-55529897D01*
X200653830Y-55637084D01*
X200570894Y-55697340D01*
X201310591Y-56437037D01*
X201247007Y-56454075D01*
X201132993Y-56519901D01*
X201039901Y-56612993D01*
X200974075Y-56727007D01*
X200957037Y-56790591D01*
X200217340Y-56050894D01*
X200157084Y-56133830D01*
X200049897Y-56344197D01*
X199976934Y-56568752D01*
X199940000Y-56801947D01*
X192190000Y-56801947D01*
X192190000Y-54464000D01*
X192209685Y-54396961D01*
X192262489Y-54351206D01*
X192314000Y-54340000D01*
X203540684Y-54340000D01*
X203607723Y-54359685D01*
G37*
G04 #@! TD.AperFunction*
G04 #@! TA.AperFunction,Conductor*
G36*
X203883039Y-28084685D02*
G01*
X203928794Y-28137489D01*
X203940000Y-28189000D01*
X203940000Y-33566000D01*
X203920315Y-33633039D01*
X203867511Y-33678794D01*
X203816000Y-33690000D01*
X187364205Y-33690000D01*
X187297166Y-33670315D01*
X187261103Y-33634892D01*
X187249286Y-33617207D01*
X187137792Y-33505713D01*
X187137788Y-33505710D01*
X187006685Y-33418109D01*
X187006672Y-33418102D01*
X186861001Y-33357764D01*
X186860989Y-33357761D01*
X186706345Y-33327000D01*
X186706342Y-33327000D01*
X186548658Y-33327000D01*
X186548655Y-33327000D01*
X186394010Y-33357761D01*
X186393998Y-33357764D01*
X186248327Y-33418102D01*
X186248314Y-33418109D01*
X186117211Y-33505710D01*
X186117207Y-33505713D01*
X186005713Y-33617207D01*
X185993897Y-33634892D01*
X185940284Y-33679696D01*
X185890795Y-33690000D01*
X158940000Y-33690000D01*
X158940000Y-31401947D01*
X199940000Y-31401947D01*
X199940000Y-31638052D01*
X199976934Y-31871247D01*
X200049897Y-32095802D01*
X200157087Y-32306174D01*
X200217338Y-32389104D01*
X200217340Y-32389105D01*
X200957037Y-31649408D01*
X200974075Y-31712993D01*
X201039901Y-31827007D01*
X201132993Y-31920099D01*
X201247007Y-31985925D01*
X201310590Y-32002962D01*
X200570893Y-32742658D01*
X200653828Y-32802914D01*
X200864197Y-32910102D01*
X201088752Y-32983065D01*
X201088751Y-32983065D01*
X201321948Y-33020000D01*
X201558052Y-33020000D01*
X201791247Y-32983065D01*
X202015802Y-32910102D01*
X202226163Y-32802918D01*
X202226169Y-32802914D01*
X202309104Y-32742658D01*
X202309105Y-32742658D01*
X201569408Y-32002962D01*
X201632993Y-31985925D01*
X201747007Y-31920099D01*
X201840099Y-31827007D01*
X201905925Y-31712993D01*
X201922962Y-31649408D01*
X202662658Y-32389105D01*
X202662658Y-32389104D01*
X202722914Y-32306169D01*
X202722918Y-32306163D01*
X202830102Y-32095802D01*
X202903065Y-31871247D01*
X202940000Y-31638052D01*
X202940000Y-31401947D01*
X202903065Y-31168752D01*
X202830102Y-30944197D01*
X202722914Y-30733828D01*
X202662658Y-30650894D01*
X202662658Y-30650893D01*
X201922962Y-31390590D01*
X201905925Y-31327007D01*
X201840099Y-31212993D01*
X201747007Y-31119901D01*
X201632993Y-31054075D01*
X201569409Y-31037037D01*
X202309105Y-30297340D01*
X202309104Y-30297338D01*
X202226174Y-30237087D01*
X202015802Y-30129897D01*
X201791247Y-30056934D01*
X201791248Y-30056934D01*
X201558052Y-30020000D01*
X201321948Y-30020000D01*
X201088752Y-30056934D01*
X200864197Y-30129897D01*
X200653830Y-30237084D01*
X200570894Y-30297340D01*
X201310591Y-31037037D01*
X201247007Y-31054075D01*
X201132993Y-31119901D01*
X201039901Y-31212993D01*
X200974075Y-31327007D01*
X200957037Y-31390591D01*
X200217340Y-30650894D01*
X200157084Y-30733830D01*
X200049897Y-30944197D01*
X199976934Y-31168752D01*
X199940000Y-31401947D01*
X158940000Y-31401947D01*
X158940000Y-28073491D01*
X159001158Y-28065936D01*
X159003730Y-28066358D01*
X159016362Y-28065000D01*
X203816000Y-28065000D01*
X203883039Y-28084685D01*
G37*
G04 #@! TD.AperFunction*
G04 #@! TA.AperFunction,Conductor*
G36*
X203568530Y-39837521D02*
G01*
X203635154Y-39858569D01*
X203679822Y-39912296D01*
X203690000Y-39961495D01*
X203690000Y-43463443D01*
X203670315Y-43530482D01*
X203617511Y-43576237D01*
X203563470Y-43587417D01*
X191440004Y-43339999D01*
X163040000Y-47212727D01*
X158440000Y-47840000D01*
X158440000Y-43840000D01*
X176128408Y-41561947D01*
X199940000Y-41561947D01*
X199940000Y-41798052D01*
X199976934Y-42031247D01*
X200049897Y-42255802D01*
X200157087Y-42466174D01*
X200217338Y-42549104D01*
X200217340Y-42549105D01*
X200957037Y-41809408D01*
X200974075Y-41872993D01*
X201039901Y-41987007D01*
X201132993Y-42080099D01*
X201247007Y-42145925D01*
X201310590Y-42162962D01*
X200570893Y-42902658D01*
X200653828Y-42962914D01*
X200864197Y-43070102D01*
X201088752Y-43143065D01*
X201088751Y-43143065D01*
X201321948Y-43180000D01*
X201558052Y-43180000D01*
X201791247Y-43143065D01*
X202015802Y-43070102D01*
X202226163Y-42962918D01*
X202226169Y-42962914D01*
X202309104Y-42902658D01*
X202309105Y-42902658D01*
X201569408Y-42162962D01*
X201632993Y-42145925D01*
X201747007Y-42080099D01*
X201840099Y-41987007D01*
X201905925Y-41872993D01*
X201922962Y-41809409D01*
X202662658Y-42549105D01*
X202662658Y-42549104D01*
X202722914Y-42466169D01*
X202722918Y-42466163D01*
X202830102Y-42255802D01*
X202903065Y-42031247D01*
X202940000Y-41798052D01*
X202940000Y-41561947D01*
X202903065Y-41328752D01*
X202830102Y-41104197D01*
X202722914Y-40893828D01*
X202662658Y-40810894D01*
X202662658Y-40810893D01*
X201922962Y-41550590D01*
X201905925Y-41487007D01*
X201840099Y-41372993D01*
X201747007Y-41279901D01*
X201632993Y-41214075D01*
X201569409Y-41197037D01*
X202309105Y-40457340D01*
X202309104Y-40457338D01*
X202226174Y-40397087D01*
X202015802Y-40289897D01*
X201791247Y-40216934D01*
X201791248Y-40216934D01*
X201558052Y-40180000D01*
X201321948Y-40180000D01*
X201088752Y-40216934D01*
X200864197Y-40289897D01*
X200653830Y-40397084D01*
X200570894Y-40457340D01*
X201310591Y-41197037D01*
X201247007Y-41214075D01*
X201132993Y-41279901D01*
X201039901Y-41372993D01*
X200974075Y-41487007D01*
X200957037Y-41550591D01*
X200217340Y-40810894D01*
X200157084Y-40893830D01*
X200049897Y-41104197D01*
X199976934Y-41328752D01*
X199940000Y-41561947D01*
X176128408Y-41561947D01*
X186459767Y-40231393D01*
X186523052Y-40239815D01*
X186631503Y-40284737D01*
X186786153Y-40315499D01*
X186786156Y-40315500D01*
X186786158Y-40315500D01*
X186943844Y-40315500D01*
X186943845Y-40315499D01*
X187098497Y-40284737D01*
X187244179Y-40224394D01*
X187375289Y-40136789D01*
X187375296Y-40136781D01*
X187380005Y-40132919D01*
X187381556Y-40134809D01*
X187433407Y-40106467D01*
X187443954Y-40104642D01*
X191430854Y-39591177D01*
X191449217Y-39590188D01*
X203568530Y-39837521D01*
G37*
G04 #@! TD.AperFunction*
G04 #@! TA.AperFunction,Conductor*
G36*
X197490000Y-76511988D02*
G01*
X197432993Y-76479075D01*
X197305826Y-76445000D01*
X197174174Y-76445000D01*
X197047007Y-76479075D01*
X196990000Y-76511988D01*
X196990000Y-74838012D01*
X197047007Y-74870925D01*
X197174174Y-74905000D01*
X197305826Y-74905000D01*
X197432993Y-74870925D01*
X197490000Y-74838012D01*
X197490000Y-76511988D01*
G37*
G04 #@! TD.AperFunction*
G04 #@! TA.AperFunction,Conductor*
G36*
X197490000Y-73971988D02*
G01*
X197432993Y-73939075D01*
X197305826Y-73905000D01*
X197174174Y-73905000D01*
X197047007Y-73939075D01*
X196990000Y-73971988D01*
X196990000Y-72298012D01*
X197047007Y-72330925D01*
X197174174Y-72365000D01*
X197305826Y-72365000D01*
X197432993Y-72330925D01*
X197490000Y-72298012D01*
X197490000Y-73971988D01*
G37*
G04 #@! TD.AperFunction*
G04 #@! TA.AperFunction,Conductor*
G36*
X209333039Y-69869685D02*
G01*
X209378794Y-69922489D01*
X209390000Y-69974000D01*
X209390000Y-73481559D01*
X209370315Y-73548598D01*
X209353681Y-73569240D01*
X209343213Y-73579707D01*
X209343210Y-73579711D01*
X209255609Y-73710814D01*
X209255602Y-73710827D01*
X209195264Y-73856498D01*
X209195261Y-73856510D01*
X209164500Y-74011153D01*
X209164500Y-74168846D01*
X209195261Y-74323489D01*
X209195264Y-74323501D01*
X209255602Y-74469172D01*
X209255609Y-74469185D01*
X209343210Y-74600288D01*
X209343212Y-74600291D01*
X209353678Y-74610756D01*
X209368382Y-74637683D01*
X209384977Y-74663505D01*
X209385868Y-74669703D01*
X209387165Y-74672078D01*
X209390000Y-74698440D01*
X209390000Y-74731559D01*
X209370315Y-74798598D01*
X209353681Y-74819240D01*
X209343213Y-74829707D01*
X209343210Y-74829711D01*
X209255609Y-74960814D01*
X209255602Y-74960827D01*
X209195264Y-75106498D01*
X209195261Y-75106510D01*
X209164500Y-75261153D01*
X209164500Y-75418846D01*
X209195261Y-75573489D01*
X209195264Y-75573501D01*
X209255602Y-75719172D01*
X209255609Y-75719185D01*
X209343210Y-75850288D01*
X209343212Y-75850291D01*
X209353678Y-75860756D01*
X209387165Y-75922078D01*
X209390000Y-75948440D01*
X209390000Y-76422052D01*
X209370315Y-76489091D01*
X209317511Y-76534846D01*
X209290192Y-76543669D01*
X209156508Y-76570261D01*
X209156498Y-76570264D01*
X209010827Y-76630602D01*
X209010814Y-76630609D01*
X208879711Y-76718210D01*
X208879707Y-76718213D01*
X208768213Y-76829707D01*
X208768210Y-76829711D01*
X208680609Y-76960814D01*
X208680602Y-76960827D01*
X208620264Y-77106498D01*
X208620261Y-77106510D01*
X208589500Y-77261153D01*
X208589500Y-77418846D01*
X208620261Y-77573489D01*
X208620264Y-77573501D01*
X208680602Y-77719172D01*
X208680609Y-77719185D01*
X208768210Y-77850288D01*
X208768213Y-77850292D01*
X208879707Y-77961786D01*
X208879711Y-77961789D01*
X209010814Y-78049390D01*
X209010827Y-78049397D01*
X209132078Y-78099620D01*
X209156503Y-78109737D01*
X209208130Y-78120006D01*
X209290191Y-78136330D01*
X209318314Y-78151040D01*
X209347203Y-78164234D01*
X209349060Y-78167123D01*
X209352102Y-78168715D01*
X209367810Y-78196300D01*
X209384977Y-78223012D01*
X209385637Y-78227605D01*
X209386677Y-78229431D01*
X209390000Y-78257947D01*
X209390000Y-78486533D01*
X209370315Y-78553572D01*
X209334892Y-78589635D01*
X209254707Y-78643213D01*
X209143213Y-78754707D01*
X209143210Y-78754711D01*
X209055609Y-78885814D01*
X209055602Y-78885827D01*
X208995264Y-79031498D01*
X208995261Y-79031510D01*
X208964500Y-79186153D01*
X208964500Y-79343846D01*
X208995261Y-79498489D01*
X208995264Y-79498501D01*
X209055602Y-79644172D01*
X209055609Y-79644185D01*
X209143210Y-79775288D01*
X209143213Y-79775292D01*
X209254707Y-79886786D01*
X209254715Y-79886792D01*
X209323717Y-79932898D01*
X209368523Y-79986510D01*
X209377230Y-80055835D01*
X209347076Y-80118862D01*
X209287633Y-80155582D01*
X209254827Y-80160000D01*
X202190000Y-80160000D01*
X202190000Y-83266000D01*
X202170315Y-83333039D01*
X202117511Y-83378794D01*
X202066000Y-83390000D01*
X192314000Y-83390000D01*
X192246961Y-83370315D01*
X192201206Y-83317511D01*
X192190000Y-83266000D01*
X192190000Y-78411246D01*
X192209685Y-78344207D01*
X192262489Y-78298452D01*
X192331647Y-78288508D01*
X192333398Y-78288773D01*
X192533713Y-78320500D01*
X192533714Y-78320500D01*
X192746286Y-78320500D01*
X192746287Y-78320500D01*
X192956243Y-78287246D01*
X193158412Y-78221557D01*
X193347816Y-78125051D01*
X193451950Y-78049394D01*
X193519786Y-78000109D01*
X193519788Y-78000106D01*
X193519792Y-78000104D01*
X193670104Y-77849792D01*
X193670106Y-77849788D01*
X193670109Y-77849786D01*
X193795048Y-77677820D01*
X193795047Y-77677820D01*
X193795051Y-77677816D01*
X193891557Y-77488412D01*
X193957246Y-77286243D01*
X193990500Y-77076287D01*
X193990500Y-76863713D01*
X193957246Y-76653757D01*
X193891557Y-76451588D01*
X193795051Y-76262184D01*
X193795049Y-76262181D01*
X193795048Y-76262179D01*
X193670109Y-76090213D01*
X193519786Y-75939890D01*
X193347820Y-75814951D01*
X193347115Y-75814591D01*
X193339054Y-75810485D01*
X193288259Y-75762512D01*
X193271463Y-75694692D01*
X193293999Y-75628556D01*
X193339054Y-75589515D01*
X193347816Y-75585051D01*
X193473353Y-75493844D01*
X193519786Y-75460109D01*
X193519788Y-75460106D01*
X193519792Y-75460104D01*
X193670104Y-75309792D01*
X193670106Y-75309788D01*
X193670109Y-75309786D01*
X193795048Y-75137820D01*
X193795047Y-75137820D01*
X193795051Y-75137816D01*
X193891557Y-74948412D01*
X193957246Y-74746243D01*
X193990500Y-74536287D01*
X193990500Y-74323713D01*
X193957246Y-74113757D01*
X193891557Y-73911588D01*
X193795051Y-73722184D01*
X193795049Y-73722181D01*
X193795048Y-73722179D01*
X193670109Y-73550213D01*
X193556569Y-73436673D01*
X193523084Y-73375350D01*
X193528068Y-73305658D01*
X193569940Y-73249725D01*
X193600915Y-73232810D01*
X193732331Y-73183796D01*
X193847546Y-73097546D01*
X193933796Y-72982331D01*
X193984091Y-72847483D01*
X193990500Y-72787873D01*
X193990499Y-71799174D01*
X193990499Y-70992129D01*
X193990499Y-70992127D01*
X193987816Y-70967172D01*
X193987814Y-70967155D01*
X195890000Y-70967155D01*
X195890000Y-71615000D01*
X196806988Y-71615000D01*
X196774075Y-71672007D01*
X196740000Y-71799174D01*
X196740000Y-71930826D01*
X196774075Y-72057993D01*
X196806988Y-72115000D01*
X195890000Y-72115000D01*
X195890000Y-72762844D01*
X195896401Y-72822372D01*
X195896403Y-72822379D01*
X195946645Y-72957086D01*
X195946649Y-72957093D01*
X196032809Y-73072187D01*
X196032812Y-73072190D01*
X196147906Y-73158350D01*
X196147913Y-73158354D01*
X196279986Y-73207614D01*
X196335920Y-73249485D01*
X196360337Y-73314949D01*
X196345486Y-73383222D01*
X196324335Y-73411477D01*
X196210271Y-73525541D01*
X196085379Y-73697442D01*
X195988904Y-73886782D01*
X195923242Y-74088870D01*
X195923242Y-74088873D01*
X195912769Y-74155000D01*
X196806988Y-74155000D01*
X196774075Y-74212007D01*
X196740000Y-74339174D01*
X196740000Y-74470826D01*
X196774075Y-74597993D01*
X196806988Y-74655000D01*
X195912769Y-74655000D01*
X195923242Y-74721126D01*
X195923242Y-74721129D01*
X195988904Y-74923217D01*
X196085379Y-75112557D01*
X196210272Y-75284459D01*
X196210276Y-75284464D01*
X196360535Y-75434723D01*
X196360540Y-75434727D01*
X196532444Y-75559622D01*
X196542048Y-75564516D01*
X196592844Y-75612491D01*
X196609638Y-75680312D01*
X196587100Y-75746447D01*
X196542048Y-75785484D01*
X196532444Y-75790377D01*
X196360540Y-75915272D01*
X196360535Y-75915276D01*
X196210276Y-76065535D01*
X196210272Y-76065540D01*
X196085379Y-76237442D01*
X195988904Y-76426782D01*
X195923242Y-76628870D01*
X195923242Y-76628873D01*
X195912769Y-76695000D01*
X196806988Y-76695000D01*
X196774075Y-76752007D01*
X196740000Y-76879174D01*
X196740000Y-77010826D01*
X196774075Y-77137993D01*
X196806988Y-77195000D01*
X195912769Y-77195000D01*
X195923242Y-77261126D01*
X195923242Y-77261129D01*
X195988904Y-77463217D01*
X196085379Y-77652557D01*
X196210272Y-77824459D01*
X196210276Y-77824464D01*
X196360535Y-77974723D01*
X196360540Y-77974727D01*
X196532442Y-78099620D01*
X196721782Y-78196095D01*
X196923871Y-78261757D01*
X196990000Y-78272231D01*
X196990000Y-77378012D01*
X197047007Y-77410925D01*
X197174174Y-77445000D01*
X197305826Y-77445000D01*
X197432993Y-77410925D01*
X197490000Y-77378012D01*
X197490000Y-78272230D01*
X197556126Y-78261757D01*
X197556129Y-78261757D01*
X197758217Y-78196095D01*
X197947557Y-78099620D01*
X198119459Y-77974727D01*
X198119464Y-77974723D01*
X198269723Y-77824464D01*
X198269727Y-77824459D01*
X198394620Y-77652557D01*
X198491095Y-77463217D01*
X198540504Y-77311153D01*
X206289500Y-77311153D01*
X206289500Y-77468846D01*
X206320261Y-77623489D01*
X206320264Y-77623501D01*
X206380602Y-77769172D01*
X206380609Y-77769185D01*
X206468210Y-77900288D01*
X206468213Y-77900292D01*
X206579707Y-78011786D01*
X206579711Y-78011789D01*
X206710814Y-78099390D01*
X206710827Y-78099397D01*
X206810060Y-78140500D01*
X206856503Y-78159737D01*
X207011153Y-78190499D01*
X207011156Y-78190500D01*
X207011158Y-78190500D01*
X207168844Y-78190500D01*
X207168845Y-78190499D01*
X207323497Y-78159737D01*
X207444213Y-78109735D01*
X207469172Y-78099397D01*
X207469172Y-78099396D01*
X207469179Y-78099394D01*
X207600289Y-78011789D01*
X207711789Y-77900289D01*
X207799394Y-77769179D01*
X207859737Y-77623497D01*
X207890500Y-77468842D01*
X207890500Y-77311158D01*
X207890500Y-77311155D01*
X207890499Y-77311153D01*
X207880553Y-77261153D01*
X207859737Y-77156503D01*
X207852070Y-77137993D01*
X207799397Y-77010827D01*
X207799390Y-77010814D01*
X207711789Y-76879711D01*
X207711786Y-76879707D01*
X207600292Y-76768213D01*
X207600288Y-76768210D01*
X207469185Y-76680609D01*
X207469172Y-76680602D01*
X207323501Y-76620264D01*
X207323489Y-76620261D01*
X207168845Y-76589500D01*
X207168842Y-76589500D01*
X207011158Y-76589500D01*
X207011155Y-76589500D01*
X206856510Y-76620261D01*
X206856498Y-76620264D01*
X206710827Y-76680602D01*
X206710814Y-76680609D01*
X206579711Y-76768210D01*
X206579707Y-76768213D01*
X206468213Y-76879707D01*
X206468210Y-76879711D01*
X206380609Y-77010814D01*
X206380602Y-77010827D01*
X206320264Y-77156498D01*
X206320261Y-77156510D01*
X206289500Y-77311153D01*
X198540504Y-77311153D01*
X198554932Y-77266748D01*
X198554932Y-77266747D01*
X198556755Y-77261134D01*
X198556757Y-77261126D01*
X198567231Y-77195000D01*
X197673012Y-77195000D01*
X197705925Y-77137993D01*
X197740000Y-77010826D01*
X197740000Y-76879174D01*
X197705925Y-76752007D01*
X197673012Y-76695000D01*
X198567231Y-76695000D01*
X198556757Y-76628873D01*
X198556757Y-76628870D01*
X198491095Y-76426782D01*
X198394620Y-76237442D01*
X198269727Y-76065540D01*
X198269723Y-76065535D01*
X198119464Y-75915276D01*
X198119459Y-75915272D01*
X197947558Y-75790379D01*
X197937954Y-75785486D01*
X197887157Y-75737512D01*
X197870361Y-75669692D01*
X197892897Y-75603556D01*
X197937954Y-75564514D01*
X197947558Y-75559620D01*
X198119459Y-75434727D01*
X198119464Y-75434723D01*
X198218034Y-75336153D01*
X205389500Y-75336153D01*
X205389500Y-75493846D01*
X205420261Y-75648489D01*
X205420264Y-75648501D01*
X205480602Y-75794172D01*
X205480609Y-75794185D01*
X205568210Y-75925288D01*
X205568213Y-75925292D01*
X205679707Y-76036786D01*
X205679711Y-76036789D01*
X205810814Y-76124390D01*
X205810827Y-76124397D01*
X205956498Y-76184735D01*
X205956503Y-76184737D01*
X206111153Y-76215499D01*
X206111156Y-76215500D01*
X206111158Y-76215500D01*
X206268844Y-76215500D01*
X206268845Y-76215499D01*
X206423497Y-76184737D01*
X206569179Y-76124394D01*
X206700289Y-76036789D01*
X206811789Y-75925289D01*
X206899394Y-75794179D01*
X206959737Y-75648497D01*
X206990500Y-75493842D01*
X206990500Y-75336158D01*
X206990500Y-75336155D01*
X206990499Y-75336153D01*
X206959738Y-75181510D01*
X206959737Y-75181503D01*
X206941643Y-75137820D01*
X206899397Y-75035827D01*
X206899390Y-75035814D01*
X206811789Y-74904711D01*
X206811786Y-74904707D01*
X206759760Y-74852681D01*
X206726275Y-74791358D01*
X206731259Y-74721666D01*
X206759760Y-74677319D01*
X206836786Y-74600292D01*
X206836787Y-74600291D01*
X206836789Y-74600289D01*
X206924394Y-74469179D01*
X206984737Y-74323497D01*
X207015500Y-74168842D01*
X207015500Y-74011158D01*
X207015500Y-74011155D01*
X207015499Y-74011153D01*
X206995694Y-73911588D01*
X206984737Y-73856503D01*
X206984735Y-73856498D01*
X206924397Y-73710827D01*
X206924393Y-73710820D01*
X206915454Y-73697442D01*
X206881342Y-73646389D01*
X206860465Y-73579714D01*
X206878949Y-73512334D01*
X206881321Y-73508641D01*
X206924394Y-73444179D01*
X206984737Y-73298497D01*
X207015500Y-73143842D01*
X207015500Y-72986158D01*
X207015500Y-72986155D01*
X207015499Y-72986153D01*
X207014738Y-72982328D01*
X206984737Y-72831503D01*
X206961001Y-72774198D01*
X206924397Y-72685827D01*
X206924390Y-72685814D01*
X206836789Y-72554711D01*
X206836786Y-72554707D01*
X206725292Y-72443213D01*
X206725288Y-72443210D01*
X206594185Y-72355609D01*
X206594172Y-72355602D01*
X206448501Y-72295264D01*
X206448489Y-72295261D01*
X206293845Y-72264500D01*
X206293842Y-72264500D01*
X206136158Y-72264500D01*
X206136155Y-72264500D01*
X205981510Y-72295261D01*
X205981498Y-72295264D01*
X205835827Y-72355602D01*
X205835814Y-72355609D01*
X205704711Y-72443210D01*
X205704707Y-72443213D01*
X205593213Y-72554707D01*
X205593210Y-72554711D01*
X205505609Y-72685814D01*
X205505602Y-72685827D01*
X205445264Y-72831498D01*
X205445261Y-72831510D01*
X205414500Y-72986153D01*
X205414500Y-73143846D01*
X205445261Y-73298489D01*
X205445264Y-73298501D01*
X205505602Y-73444172D01*
X205505609Y-73444185D01*
X205548656Y-73508609D01*
X205569534Y-73575287D01*
X205551049Y-73642667D01*
X205548656Y-73646391D01*
X205505609Y-73710814D01*
X205505602Y-73710827D01*
X205445264Y-73856498D01*
X205445261Y-73856510D01*
X205414500Y-74011153D01*
X205414500Y-74168846D01*
X205445261Y-74323489D01*
X205445264Y-74323501D01*
X205505602Y-74469172D01*
X205505609Y-74469185D01*
X205593210Y-74600288D01*
X205593213Y-74600292D01*
X205645240Y-74652319D01*
X205678725Y-74713642D01*
X205673741Y-74783334D01*
X205645240Y-74827681D01*
X205568213Y-74904707D01*
X205568210Y-74904711D01*
X205480609Y-75035814D01*
X205480602Y-75035827D01*
X205420264Y-75181498D01*
X205420261Y-75181510D01*
X205389500Y-75336153D01*
X198218034Y-75336153D01*
X198269723Y-75284464D01*
X198289547Y-75257180D01*
X198289548Y-75257178D01*
X198394620Y-75112557D01*
X198491095Y-74923217D01*
X198556757Y-74721129D01*
X198556757Y-74721126D01*
X198567231Y-74655000D01*
X197673012Y-74655000D01*
X197705925Y-74597993D01*
X197740000Y-74470826D01*
X197740000Y-74339174D01*
X197705925Y-74212007D01*
X197673012Y-74155000D01*
X198567231Y-74155000D01*
X198556757Y-74088873D01*
X198556757Y-74088870D01*
X198491095Y-73886782D01*
X198394620Y-73697442D01*
X198269727Y-73525540D01*
X198269723Y-73525535D01*
X198155665Y-73411477D01*
X198122180Y-73350154D01*
X198127164Y-73280462D01*
X198169036Y-73224529D01*
X198200013Y-73207614D01*
X198332086Y-73158354D01*
X198332093Y-73158350D01*
X198447187Y-73072190D01*
X198447190Y-73072187D01*
X198533350Y-72957093D01*
X198533354Y-72957086D01*
X198583596Y-72822379D01*
X198583598Y-72822372D01*
X198589999Y-72762844D01*
X198590000Y-72762827D01*
X198590000Y-72115000D01*
X197673012Y-72115000D01*
X197705925Y-72057993D01*
X197740000Y-71930826D01*
X197740000Y-71799174D01*
X197705925Y-71672007D01*
X197673012Y-71615000D01*
X198590000Y-71615000D01*
X198590000Y-70967172D01*
X198589999Y-70967155D01*
X198583598Y-70907627D01*
X198583596Y-70907620D01*
X198533354Y-70772913D01*
X198533350Y-70772906D01*
X198447190Y-70657812D01*
X198447187Y-70657809D01*
X198332093Y-70571649D01*
X198332086Y-70571645D01*
X198197379Y-70521403D01*
X198197372Y-70521401D01*
X198137844Y-70515000D01*
X197490000Y-70515000D01*
X197490000Y-71431988D01*
X197432993Y-71399075D01*
X197305826Y-71365000D01*
X197174174Y-71365000D01*
X197047007Y-71399075D01*
X196990000Y-71431988D01*
X196990000Y-70515000D01*
X196342155Y-70515000D01*
X196282627Y-70521401D01*
X196282620Y-70521403D01*
X196147913Y-70571645D01*
X196147906Y-70571649D01*
X196032812Y-70657809D01*
X196032809Y-70657812D01*
X195946649Y-70772906D01*
X195946645Y-70772913D01*
X195896403Y-70907620D01*
X195896401Y-70907627D01*
X195890000Y-70967155D01*
X193987814Y-70967155D01*
X193984091Y-70932516D01*
X193933797Y-70797671D01*
X193933793Y-70797664D01*
X193847547Y-70682455D01*
X193847544Y-70682452D01*
X193732335Y-70596206D01*
X193732328Y-70596202D01*
X193597482Y-70545908D01*
X193597483Y-70545908D01*
X193537883Y-70539501D01*
X193537881Y-70539500D01*
X193537873Y-70539500D01*
X193537865Y-70539500D01*
X192314000Y-70539500D01*
X192246961Y-70519815D01*
X192201206Y-70467011D01*
X192190000Y-70415500D01*
X192190000Y-70355656D01*
X199086632Y-70345662D01*
X199089933Y-69850000D01*
X209266000Y-69850000D01*
X209333039Y-69869685D01*
G37*
G04 #@! TD.AperFunction*
G04 #@! TA.AperFunction,Conductor*
G36*
X158940000Y-33690000D02*
G01*
X163040000Y-33690000D01*
X163040000Y-40716000D01*
X163020315Y-40783039D01*
X162967511Y-40828794D01*
X162916000Y-40840000D01*
X147659953Y-40840000D01*
X147612502Y-40830561D01*
X147563497Y-40810263D01*
X147563489Y-40810261D01*
X147408845Y-40779500D01*
X147408842Y-40779500D01*
X147251158Y-40779500D01*
X147251155Y-40779500D01*
X147096510Y-40810261D01*
X147096502Y-40810263D01*
X147072950Y-40820018D01*
X147047497Y-40830561D01*
X147000047Y-40840000D01*
X146015811Y-40840000D01*
X145968363Y-40830562D01*
X145943497Y-40820263D01*
X145943490Y-40820261D01*
X145943489Y-40820261D01*
X145943488Y-40820260D01*
X145788845Y-40789500D01*
X145788842Y-40789500D01*
X145631158Y-40789500D01*
X145631155Y-40789500D01*
X145476511Y-40820260D01*
X145476510Y-40820261D01*
X145476507Y-40820262D01*
X145476503Y-40820263D01*
X145451636Y-40830562D01*
X145404189Y-40840000D01*
X136396441Y-40840000D01*
X136329402Y-40820315D01*
X136283647Y-40767511D01*
X136273703Y-40698353D01*
X136302728Y-40634797D01*
X136308760Y-40628319D01*
X136411786Y-40525292D01*
X136411789Y-40525289D01*
X136499394Y-40394179D01*
X136559737Y-40248497D01*
X136590500Y-40093842D01*
X136590500Y-39936158D01*
X136590500Y-39936155D01*
X136590499Y-39936153D01*
X136574657Y-39856510D01*
X136559737Y-39781503D01*
X136523590Y-39694236D01*
X136499397Y-39635827D01*
X136499390Y-39635814D01*
X136411789Y-39504711D01*
X136411786Y-39504707D01*
X136300292Y-39393213D01*
X136300288Y-39393210D01*
X136169185Y-39305609D01*
X136169172Y-39305602D01*
X136023501Y-39245264D01*
X136023489Y-39245261D01*
X135868845Y-39214500D01*
X135868842Y-39214500D01*
X135711158Y-39214500D01*
X135711155Y-39214500D01*
X135556510Y-39245261D01*
X135556498Y-39245264D01*
X135427607Y-39298652D01*
X135358137Y-39306121D01*
X135295658Y-39274845D01*
X135260007Y-39214756D01*
X135262501Y-39144931D01*
X135272278Y-39124959D01*
X135271521Y-39124554D01*
X135274390Y-39119184D01*
X135274394Y-39119179D01*
X135279399Y-39107097D01*
X135313655Y-39024394D01*
X135334737Y-38973497D01*
X135365500Y-38818842D01*
X135365500Y-38661158D01*
X135365500Y-38661155D01*
X135365499Y-38661153D01*
X135361291Y-38640000D01*
X135334737Y-38506503D01*
X135289580Y-38397483D01*
X135274397Y-38360827D01*
X135274390Y-38360814D01*
X135186789Y-38229711D01*
X135186786Y-38229707D01*
X135075292Y-38118213D01*
X135075288Y-38118210D01*
X134944185Y-38030609D01*
X134944172Y-38030602D01*
X134798501Y-37970264D01*
X134798489Y-37970261D01*
X134643845Y-37939500D01*
X134643842Y-37939500D01*
X134486158Y-37939500D01*
X134486155Y-37939500D01*
X134331510Y-37970261D01*
X134331498Y-37970264D01*
X134185827Y-38030602D01*
X134185814Y-38030609D01*
X134054711Y-38118210D01*
X134054707Y-38118213D01*
X133943213Y-38229707D01*
X133943210Y-38229711D01*
X133855609Y-38360814D01*
X133855602Y-38360827D01*
X133795264Y-38506498D01*
X133795261Y-38506510D01*
X133764500Y-38661153D01*
X133764500Y-38818846D01*
X133795261Y-38973489D01*
X133795264Y-38973501D01*
X133855602Y-39119172D01*
X133855609Y-39119185D01*
X133943210Y-39250288D01*
X133943213Y-39250292D01*
X133945240Y-39252319D01*
X133945962Y-39253642D01*
X133947076Y-39254999D01*
X133946818Y-39255210D01*
X133978725Y-39313642D01*
X133973741Y-39383334D01*
X133945240Y-39427681D01*
X133893213Y-39479707D01*
X133893210Y-39479711D01*
X133805609Y-39610814D01*
X133805602Y-39610827D01*
X133745264Y-39756498D01*
X133745261Y-39756510D01*
X133714500Y-39911153D01*
X133714500Y-40068846D01*
X133745261Y-40223489D01*
X133745264Y-40223501D01*
X133805602Y-40369172D01*
X133805609Y-40369185D01*
X133893210Y-40500288D01*
X133893213Y-40500292D01*
X134004707Y-40611786D01*
X134004714Y-40611791D01*
X134006371Y-40612899D01*
X134007043Y-40613703D01*
X134009419Y-40615653D01*
X134009049Y-40616103D01*
X134051176Y-40666512D01*
X134059882Y-40735837D01*
X134029726Y-40798864D01*
X133970283Y-40835582D01*
X133937479Y-40840000D01*
X131492806Y-40840000D01*
X131425767Y-40820315D01*
X131380012Y-40767511D01*
X131370068Y-40698353D01*
X131399093Y-40634797D01*
X131405125Y-40628319D01*
X131508943Y-40524500D01*
X131508946Y-40524497D01*
X131596551Y-40393387D01*
X131656894Y-40247705D01*
X131687657Y-40093050D01*
X131687657Y-39935366D01*
X131687657Y-39935363D01*
X131687656Y-39935361D01*
X131670811Y-39850676D01*
X131656894Y-39780711D01*
X131631587Y-39719614D01*
X131596554Y-39635035D01*
X131596547Y-39635022D01*
X131508946Y-39503919D01*
X131508943Y-39503915D01*
X131397449Y-39392421D01*
X131397445Y-39392418D01*
X131266342Y-39304817D01*
X131266329Y-39304810D01*
X131218335Y-39284931D01*
X131163931Y-39241090D01*
X131141866Y-39174796D01*
X131159145Y-39107097D01*
X131210282Y-39059486D01*
X131218313Y-39055818D01*
X131294179Y-39024394D01*
X131425289Y-38936789D01*
X131536789Y-38825289D01*
X131624394Y-38694179D01*
X131684737Y-38548497D01*
X131715500Y-38393842D01*
X131715500Y-38236158D01*
X131715500Y-38236155D01*
X131715499Y-38236153D01*
X131708365Y-38200289D01*
X131684737Y-38081503D01*
X131663655Y-38030606D01*
X131624397Y-37935827D01*
X131624390Y-37935814D01*
X131536789Y-37804711D01*
X131536786Y-37804707D01*
X131425292Y-37693213D01*
X131425288Y-37693210D01*
X131294185Y-37605609D01*
X131294172Y-37605602D01*
X131148501Y-37545264D01*
X131148489Y-37545261D01*
X130993845Y-37514500D01*
X130993842Y-37514500D01*
X130836158Y-37514500D01*
X130836155Y-37514500D01*
X130681510Y-37545261D01*
X130681498Y-37545264D01*
X130535827Y-37605602D01*
X130535814Y-37605609D01*
X130404711Y-37693210D01*
X130404707Y-37693213D01*
X130352181Y-37745740D01*
X130290858Y-37779225D01*
X130221166Y-37774241D01*
X130165233Y-37732369D01*
X130140816Y-37666905D01*
X130140500Y-37658059D01*
X130140500Y-37611155D01*
X130140499Y-37611153D01*
X130127393Y-37545264D01*
X130109737Y-37456503D01*
X130109735Y-37456498D01*
X130049397Y-37310827D01*
X130049390Y-37310814D01*
X129961789Y-37179711D01*
X129961786Y-37179707D01*
X129850292Y-37068213D01*
X129850288Y-37068210D01*
X129719185Y-36980609D01*
X129719172Y-36980602D01*
X129573501Y-36920264D01*
X129573489Y-36920261D01*
X129418845Y-36889500D01*
X129418842Y-36889500D01*
X129405845Y-36889500D01*
X129338806Y-36869815D01*
X129293051Y-36817011D01*
X129283107Y-36747853D01*
X129291284Y-36718048D01*
X129309735Y-36673501D01*
X129309737Y-36673497D01*
X129340500Y-36518842D01*
X129340500Y-36361158D01*
X129340500Y-36361155D01*
X129340499Y-36361153D01*
X129309739Y-36206512D01*
X129309738Y-36206509D01*
X129309737Y-36206503D01*
X129301308Y-36186153D01*
X130664500Y-36186153D01*
X130664500Y-36343846D01*
X130695261Y-36498489D01*
X130695264Y-36498501D01*
X130755602Y-36644172D01*
X130755609Y-36644185D01*
X130843210Y-36775288D01*
X130843213Y-36775292D01*
X130954707Y-36886786D01*
X130954711Y-36886789D01*
X131085814Y-36974390D01*
X131085827Y-36974397D01*
X131228635Y-37033549D01*
X131231503Y-37034737D01*
X131382825Y-37064837D01*
X131386153Y-37065499D01*
X131386156Y-37065500D01*
X131386158Y-37065500D01*
X131543844Y-37065500D01*
X131543845Y-37065499D01*
X131589831Y-37056352D01*
X131704472Y-37033549D01*
X131705012Y-37036265D01*
X131762916Y-37035666D01*
X131822082Y-37072830D01*
X131851763Y-37136082D01*
X131850831Y-37179189D01*
X131839500Y-37236153D01*
X131839500Y-37393846D01*
X131870261Y-37548489D01*
X131870264Y-37548501D01*
X131930602Y-37694172D01*
X131930609Y-37694185D01*
X132018210Y-37825288D01*
X132018213Y-37825292D01*
X132129707Y-37936786D01*
X132129711Y-37936789D01*
X132260814Y-38024390D01*
X132260827Y-38024397D01*
X132368138Y-38068846D01*
X132406503Y-38084737D01*
X132561153Y-38115499D01*
X132561156Y-38115500D01*
X132561158Y-38115500D01*
X132718844Y-38115500D01*
X132718845Y-38115499D01*
X132873497Y-38084737D01*
X133004182Y-38030606D01*
X133019172Y-38024397D01*
X133019172Y-38024396D01*
X133019179Y-38024394D01*
X133150289Y-37936789D01*
X133225925Y-37861153D01*
X144739500Y-37861153D01*
X144739500Y-38018846D01*
X144770261Y-38173489D01*
X144770264Y-38173501D01*
X144830602Y-38319172D01*
X144830609Y-38319185D01*
X144918210Y-38450288D01*
X144918213Y-38450292D01*
X144995240Y-38527319D01*
X145028725Y-38588642D01*
X145023741Y-38658334D01*
X144995240Y-38702681D01*
X144918213Y-38779707D01*
X144918210Y-38779711D01*
X144830609Y-38910814D01*
X144830602Y-38910827D01*
X144770264Y-39056498D01*
X144770261Y-39056510D01*
X144739500Y-39211153D01*
X144739500Y-39368846D01*
X144770261Y-39523489D01*
X144770264Y-39523501D01*
X144830602Y-39669172D01*
X144830609Y-39669185D01*
X144918210Y-39800288D01*
X144918213Y-39800292D01*
X145029707Y-39911786D01*
X145029711Y-39911789D01*
X145160814Y-39999390D01*
X145160827Y-39999397D01*
X145306498Y-40059735D01*
X145306503Y-40059737D01*
X145461153Y-40090499D01*
X145461156Y-40090500D01*
X145461158Y-40090500D01*
X145618844Y-40090500D01*
X145618845Y-40090499D01*
X145773497Y-40059737D01*
X145919179Y-39999394D01*
X146050289Y-39911789D01*
X146161789Y-39800289D01*
X146249394Y-39669179D01*
X146300440Y-39545940D01*
X146344277Y-39491541D01*
X146410571Y-39469475D01*
X146478271Y-39486753D01*
X146525882Y-39537890D01*
X146529560Y-39545943D01*
X146580604Y-39669176D01*
X146580609Y-39669185D01*
X146668210Y-39800288D01*
X146668213Y-39800292D01*
X146779707Y-39911786D01*
X146779711Y-39911789D01*
X146910814Y-39999390D01*
X146910827Y-39999397D01*
X147056498Y-40059735D01*
X147056503Y-40059737D01*
X147211153Y-40090499D01*
X147211156Y-40090500D01*
X147211158Y-40090500D01*
X147368844Y-40090500D01*
X147368845Y-40090499D01*
X147523497Y-40059737D01*
X147669179Y-39999394D01*
X147800289Y-39911789D01*
X147911789Y-39800289D01*
X147999394Y-39669179D01*
X148001628Y-39663787D01*
X148028301Y-39599390D01*
X148059737Y-39523497D01*
X148090500Y-39368842D01*
X148090500Y-39211158D01*
X148090500Y-39211155D01*
X148090499Y-39211153D01*
X148079212Y-39154409D01*
X148059737Y-39056503D01*
X148054672Y-39044275D01*
X147999397Y-38910827D01*
X147999390Y-38910814D01*
X147911789Y-38779711D01*
X147911786Y-38779707D01*
X147859760Y-38727681D01*
X147826275Y-38666358D01*
X147831259Y-38596666D01*
X147859760Y-38552319D01*
X147911786Y-38500292D01*
X147911789Y-38500289D01*
X147999394Y-38369179D01*
X148002854Y-38360827D01*
X148020102Y-38319185D01*
X148059737Y-38223497D01*
X148090500Y-38068842D01*
X148090500Y-37911158D01*
X148090500Y-37911155D01*
X148090499Y-37911153D01*
X148080553Y-37861153D01*
X148059737Y-37756503D01*
X148055279Y-37745740D01*
X147999397Y-37610827D01*
X147999390Y-37610814D01*
X147911789Y-37479711D01*
X147911786Y-37479707D01*
X147800292Y-37368213D01*
X147800288Y-37368210D01*
X147669185Y-37280609D01*
X147669172Y-37280602D01*
X147523501Y-37220264D01*
X147523489Y-37220261D01*
X147368845Y-37189500D01*
X147368842Y-37189500D01*
X147211158Y-37189500D01*
X147211155Y-37189500D01*
X147056510Y-37220261D01*
X147056498Y-37220264D01*
X146910827Y-37280602D01*
X146910814Y-37280609D01*
X146779711Y-37368210D01*
X146779707Y-37368213D01*
X146668213Y-37479707D01*
X146668210Y-37479711D01*
X146580609Y-37610814D01*
X146580602Y-37610827D01*
X146539916Y-37709055D01*
X146496075Y-37763459D01*
X146429781Y-37785524D01*
X146362082Y-37768245D01*
X146314471Y-37717108D01*
X146310794Y-37709055D01*
X146249397Y-37560827D01*
X146249390Y-37560814D01*
X146161789Y-37429711D01*
X146161786Y-37429707D01*
X146050292Y-37318213D01*
X146050288Y-37318210D01*
X145919185Y-37230609D01*
X145919172Y-37230602D01*
X145773501Y-37170264D01*
X145773489Y-37170261D01*
X145618845Y-37139500D01*
X145618842Y-37139500D01*
X145461158Y-37139500D01*
X145461155Y-37139500D01*
X145306510Y-37170261D01*
X145306498Y-37170264D01*
X145160827Y-37230602D01*
X145160814Y-37230609D01*
X145029711Y-37318210D01*
X145029707Y-37318213D01*
X144918213Y-37429707D01*
X144918210Y-37429711D01*
X144830609Y-37560814D01*
X144830602Y-37560827D01*
X144770264Y-37706498D01*
X144770261Y-37706510D01*
X144739500Y-37861153D01*
X133225925Y-37861153D01*
X133261789Y-37825289D01*
X133349394Y-37694179D01*
X133409737Y-37548497D01*
X133440500Y-37393842D01*
X133440500Y-37236158D01*
X133439396Y-37230609D01*
X133435688Y-37211969D01*
X133431240Y-37189605D01*
X133437467Y-37120015D01*
X133480329Y-37064837D01*
X133546218Y-37041592D01*
X133577049Y-37043797D01*
X133686155Y-37065500D01*
X133686158Y-37065500D01*
X133843844Y-37065500D01*
X133843845Y-37065499D01*
X133998497Y-37034737D01*
X134129182Y-36980606D01*
X134144172Y-36974397D01*
X134144172Y-36974396D01*
X134144179Y-36974394D01*
X134275289Y-36886789D01*
X134386789Y-36775289D01*
X134474394Y-36644179D01*
X134534737Y-36498497D01*
X134565500Y-36343842D01*
X134565500Y-36186158D01*
X134565500Y-36186155D01*
X134565499Y-36186153D01*
X134540570Y-36060827D01*
X134534737Y-36031503D01*
X134491399Y-35926875D01*
X134474397Y-35885827D01*
X134474390Y-35885814D01*
X134386789Y-35754711D01*
X134386786Y-35754707D01*
X134275292Y-35643213D01*
X134275288Y-35643210D01*
X134144185Y-35555609D01*
X134144172Y-35555602D01*
X133998501Y-35495264D01*
X133998489Y-35495261D01*
X133843845Y-35464500D01*
X133843842Y-35464500D01*
X133686158Y-35464500D01*
X133686155Y-35464500D01*
X133531510Y-35495261D01*
X133531498Y-35495264D01*
X133385827Y-35555602D01*
X133385814Y-35555609D01*
X133271391Y-35632065D01*
X133252314Y-35638038D01*
X133235306Y-35648545D01*
X133219651Y-35648265D01*
X133204713Y-35652943D01*
X133185436Y-35647654D01*
X133165448Y-35647298D01*
X133140326Y-35635279D01*
X133137333Y-35634458D01*
X133133610Y-35632066D01*
X133075297Y-35593103D01*
X133030491Y-35539491D01*
X133021784Y-35470166D01*
X133051938Y-35407138D01*
X133075296Y-35386898D01*
X133094055Y-35374363D01*
X133150289Y-35336789D01*
X133261789Y-35225289D01*
X133349394Y-35094179D01*
X133409737Y-34948497D01*
X133440500Y-34793842D01*
X133440500Y-34636158D01*
X133440500Y-34636155D01*
X133440499Y-34636153D01*
X133409738Y-34481510D01*
X133409737Y-34481503D01*
X133380010Y-34409735D01*
X133349397Y-34335827D01*
X133349390Y-34335814D01*
X133261789Y-34204711D01*
X133261786Y-34204707D01*
X133150292Y-34093213D01*
X133150288Y-34093210D01*
X133019185Y-34005609D01*
X133019172Y-34005602D01*
X132873501Y-33945264D01*
X132873489Y-33945261D01*
X132718845Y-33914500D01*
X132718842Y-33914500D01*
X132561158Y-33914500D01*
X132561155Y-33914500D01*
X132406510Y-33945261D01*
X132406498Y-33945264D01*
X132260827Y-34005602D01*
X132260814Y-34005609D01*
X132129711Y-34093210D01*
X132129707Y-34093213D01*
X132018213Y-34204707D01*
X132018210Y-34204711D01*
X131930609Y-34335814D01*
X131930602Y-34335827D01*
X131870264Y-34481498D01*
X131870261Y-34481510D01*
X131839500Y-34636153D01*
X131839500Y-34793846D01*
X131870261Y-34948489D01*
X131870264Y-34948501D01*
X131930602Y-35094172D01*
X131930609Y-35094185D01*
X132018210Y-35225288D01*
X132018213Y-35225292D01*
X132129707Y-35336786D01*
X132129711Y-35336789D01*
X132204703Y-35386898D01*
X132225582Y-35411882D01*
X132247448Y-35436024D01*
X132247867Y-35438548D01*
X132249508Y-35440511D01*
X132253565Y-35472815D01*
X132258908Y-35504948D01*
X132257896Y-35507298D01*
X132258215Y-35509836D01*
X132244159Y-35539213D01*
X132231285Y-35569125D01*
X132228757Y-35571404D01*
X132228060Y-35572863D01*
X132205126Y-35592818D01*
X132204748Y-35593072D01*
X132129711Y-35643211D01*
X132128338Y-35644583D01*
X132121814Y-35648982D01*
X132093853Y-35657863D01*
X132066848Y-35669331D01*
X132060937Y-35668318D01*
X132055223Y-35670134D01*
X132026900Y-35662489D01*
X131997981Y-35657536D01*
X131990326Y-35652616D01*
X131987767Y-35651926D01*
X131985699Y-35649642D01*
X131980535Y-35646324D01*
X131980354Y-35646595D01*
X131844185Y-35555609D01*
X131844172Y-35555602D01*
X131698501Y-35495264D01*
X131698489Y-35495261D01*
X131543845Y-35464500D01*
X131543842Y-35464500D01*
X131386158Y-35464500D01*
X131386155Y-35464500D01*
X131231510Y-35495261D01*
X131231498Y-35495264D01*
X131085827Y-35555602D01*
X131085814Y-35555609D01*
X130954711Y-35643210D01*
X130954707Y-35643213D01*
X130843213Y-35754707D01*
X130843210Y-35754711D01*
X130755609Y-35885814D01*
X130755602Y-35885827D01*
X130695264Y-36031498D01*
X130695261Y-36031510D01*
X130664500Y-36186153D01*
X129301308Y-36186153D01*
X129249397Y-36060827D01*
X129249390Y-36060814D01*
X129161789Y-35929711D01*
X129161786Y-35929707D01*
X129050292Y-35818213D01*
X129050288Y-35818210D01*
X128919185Y-35730609D01*
X128919172Y-35730602D01*
X128773501Y-35670264D01*
X128773489Y-35670261D01*
X128618845Y-35639500D01*
X128618842Y-35639500D01*
X128461158Y-35639500D01*
X128461155Y-35639500D01*
X128306510Y-35670261D01*
X128306498Y-35670264D01*
X128160827Y-35730602D01*
X128160814Y-35730609D01*
X128029711Y-35818210D01*
X128029707Y-35818213D01*
X127918213Y-35929707D01*
X127918210Y-35929711D01*
X127830609Y-36060814D01*
X127830602Y-36060827D01*
X127770264Y-36206498D01*
X127770261Y-36206510D01*
X127739500Y-36361153D01*
X127739500Y-36518846D01*
X127770261Y-36673489D01*
X127770264Y-36673501D01*
X127794409Y-36731792D01*
X127801878Y-36801261D01*
X127770603Y-36863740D01*
X127710513Y-36899392D01*
X127704040Y-36900861D01*
X127606508Y-36920261D01*
X127606498Y-36920264D01*
X127460827Y-36980602D01*
X127460814Y-36980609D01*
X127329711Y-37068210D01*
X127329707Y-37068213D01*
X127218213Y-37179707D01*
X127218210Y-37179711D01*
X127130609Y-37310814D01*
X127130602Y-37310827D01*
X127070264Y-37456498D01*
X127070261Y-37456508D01*
X127047898Y-37568932D01*
X127015512Y-37630843D01*
X126954796Y-37665417D01*
X126885027Y-37661676D01*
X126857390Y-37647842D01*
X126794185Y-37605609D01*
X126794172Y-37605602D01*
X126648501Y-37545264D01*
X126648489Y-37545261D01*
X126493845Y-37514500D01*
X126493842Y-37514500D01*
X126336158Y-37514500D01*
X126336155Y-37514500D01*
X126181510Y-37545261D01*
X126181498Y-37545264D01*
X126035827Y-37605602D01*
X126035814Y-37605609D01*
X125904711Y-37693210D01*
X125904707Y-37693213D01*
X125793213Y-37804707D01*
X125793210Y-37804711D01*
X125705609Y-37935814D01*
X125705602Y-37935827D01*
X125645264Y-38081498D01*
X125645261Y-38081510D01*
X125614500Y-38236153D01*
X125614500Y-38393846D01*
X125645261Y-38548489D01*
X125645264Y-38548501D01*
X125705602Y-38694172D01*
X125705609Y-38694185D01*
X125793210Y-38825288D01*
X125793213Y-38825292D01*
X125904707Y-38936786D01*
X125904711Y-38936789D01*
X126035814Y-39024390D01*
X126035827Y-39024397D01*
X126130705Y-39063696D01*
X126185109Y-39107536D01*
X126207174Y-39173830D01*
X126189895Y-39241530D01*
X126138758Y-39289141D01*
X126130706Y-39292818D01*
X126032334Y-39333564D01*
X126032325Y-39333569D01*
X125901222Y-39421170D01*
X125901218Y-39421173D01*
X125789724Y-39532667D01*
X125789721Y-39532671D01*
X125702120Y-39663774D01*
X125702113Y-39663787D01*
X125641775Y-39809458D01*
X125641772Y-39809470D01*
X125611011Y-39964113D01*
X125611011Y-40121806D01*
X125641772Y-40276449D01*
X125641775Y-40276461D01*
X125702113Y-40422132D01*
X125702120Y-40422145D01*
X125789721Y-40553248D01*
X125789724Y-40553252D01*
X125864791Y-40628319D01*
X125898276Y-40689642D01*
X125893292Y-40759334D01*
X125851420Y-40815267D01*
X125785956Y-40839684D01*
X125777110Y-40840000D01*
X63289000Y-40840000D01*
X63221961Y-40820315D01*
X63176206Y-40767511D01*
X63165000Y-40716000D01*
X63165000Y-35842135D01*
X86239500Y-35842135D01*
X86239500Y-38337870D01*
X86239501Y-38337876D01*
X86245908Y-38397483D01*
X86296202Y-38532328D01*
X86296206Y-38532335D01*
X86382452Y-38647544D01*
X86382455Y-38647547D01*
X86497664Y-38733793D01*
X86497671Y-38733797D01*
X86632517Y-38784091D01*
X86632516Y-38784091D01*
X86639444Y-38784835D01*
X86692127Y-38790500D01*
X89187872Y-38790499D01*
X89247483Y-38784091D01*
X89382331Y-38733796D01*
X89497546Y-38647546D01*
X89583796Y-38532331D01*
X89634091Y-38397483D01*
X89640500Y-38337873D01*
X89640499Y-35842135D01*
X101239500Y-35842135D01*
X101239500Y-38337870D01*
X101239501Y-38337876D01*
X101245908Y-38397483D01*
X101296202Y-38532328D01*
X101296206Y-38532335D01*
X101382452Y-38647544D01*
X101382455Y-38647547D01*
X101497664Y-38733793D01*
X101497671Y-38733797D01*
X101632517Y-38784091D01*
X101632516Y-38784091D01*
X101639444Y-38784835D01*
X101692127Y-38790500D01*
X104187872Y-38790499D01*
X104247483Y-38784091D01*
X104382331Y-38733796D01*
X104497546Y-38647546D01*
X104583796Y-38532331D01*
X104634091Y-38397483D01*
X104640500Y-38337873D01*
X104640499Y-35842135D01*
X116239500Y-35842135D01*
X116239500Y-38337870D01*
X116239501Y-38337876D01*
X116245908Y-38397483D01*
X116296202Y-38532328D01*
X116296206Y-38532335D01*
X116382452Y-38647544D01*
X116382455Y-38647547D01*
X116497664Y-38733793D01*
X116497671Y-38733797D01*
X116632517Y-38784091D01*
X116632516Y-38784091D01*
X116639444Y-38784835D01*
X116692127Y-38790500D01*
X119187872Y-38790499D01*
X119247483Y-38784091D01*
X119382331Y-38733796D01*
X119497546Y-38647546D01*
X119583796Y-38532331D01*
X119634091Y-38397483D01*
X119640500Y-38337873D01*
X119640499Y-36358317D01*
X125659685Y-36358317D01*
X125659685Y-36516010D01*
X125690446Y-36670653D01*
X125690449Y-36670665D01*
X125750787Y-36816336D01*
X125750794Y-36816349D01*
X125838395Y-36947452D01*
X125838398Y-36947456D01*
X125949892Y-37058950D01*
X125949896Y-37058953D01*
X126080999Y-37146554D01*
X126081012Y-37146561D01*
X126184936Y-37189607D01*
X126226688Y-37206901D01*
X126373747Y-37236153D01*
X126381338Y-37237663D01*
X126381341Y-37237664D01*
X126381343Y-37237664D01*
X126539029Y-37237664D01*
X126539030Y-37237663D01*
X126693682Y-37206901D01*
X126839364Y-37146558D01*
X126970474Y-37058953D01*
X127081974Y-36947453D01*
X127169579Y-36816343D01*
X127229922Y-36670661D01*
X127260685Y-36516006D01*
X127260685Y-36358322D01*
X127260685Y-36358319D01*
X127260684Y-36358317D01*
X127229922Y-36203667D01*
X127222668Y-36186153D01*
X127169582Y-36057991D01*
X127169575Y-36057978D01*
X127081974Y-35926875D01*
X127081971Y-35926871D01*
X126970477Y-35815377D01*
X126970473Y-35815374D01*
X126839370Y-35727773D01*
X126839357Y-35727766D01*
X126693686Y-35667428D01*
X126693674Y-35667425D01*
X126539030Y-35636664D01*
X126539027Y-35636664D01*
X126381343Y-35636664D01*
X126381340Y-35636664D01*
X126226695Y-35667425D01*
X126226683Y-35667428D01*
X126081012Y-35727766D01*
X126080999Y-35727773D01*
X125949896Y-35815374D01*
X125949892Y-35815377D01*
X125838398Y-35926871D01*
X125838395Y-35926875D01*
X125750794Y-36057978D01*
X125750787Y-36057991D01*
X125690449Y-36203662D01*
X125690446Y-36203674D01*
X125659685Y-36358317D01*
X119640499Y-36358317D01*
X119640499Y-35842128D01*
X119634091Y-35782517D01*
X119614729Y-35730606D01*
X119583797Y-35647671D01*
X119583793Y-35647664D01*
X119497547Y-35532455D01*
X119497544Y-35532452D01*
X119382335Y-35446206D01*
X119382328Y-35446202D01*
X119247482Y-35395908D01*
X119247483Y-35395908D01*
X119187883Y-35389501D01*
X119187881Y-35389500D01*
X119187873Y-35389500D01*
X119187864Y-35389500D01*
X116692129Y-35389500D01*
X116692123Y-35389501D01*
X116632516Y-35395908D01*
X116497671Y-35446202D01*
X116497664Y-35446206D01*
X116382455Y-35532452D01*
X116382452Y-35532455D01*
X116296206Y-35647664D01*
X116296202Y-35647671D01*
X116245908Y-35782517D01*
X116242071Y-35818210D01*
X116239501Y-35842123D01*
X116239500Y-35842135D01*
X104640499Y-35842135D01*
X104640499Y-35842128D01*
X104634091Y-35782517D01*
X104614729Y-35730606D01*
X104583797Y-35647671D01*
X104583793Y-35647664D01*
X104497547Y-35532455D01*
X104497544Y-35532452D01*
X104382335Y-35446206D01*
X104382328Y-35446202D01*
X104247482Y-35395908D01*
X104247483Y-35395908D01*
X104187883Y-35389501D01*
X104187881Y-35389500D01*
X104187873Y-35389500D01*
X104187864Y-35389500D01*
X101692129Y-35389500D01*
X101692123Y-35389501D01*
X101632516Y-35395908D01*
X101497671Y-35446202D01*
X101497664Y-35446206D01*
X101382455Y-35532452D01*
X101382452Y-35532455D01*
X101296206Y-35647664D01*
X101296202Y-35647671D01*
X101245908Y-35782517D01*
X101242071Y-35818210D01*
X101239501Y-35842123D01*
X101239500Y-35842135D01*
X89640499Y-35842135D01*
X89640499Y-35842128D01*
X89634091Y-35782517D01*
X89614729Y-35730606D01*
X89583797Y-35647671D01*
X89583793Y-35647664D01*
X89497547Y-35532455D01*
X89497544Y-35532452D01*
X89382335Y-35446206D01*
X89382328Y-35446202D01*
X89247482Y-35395908D01*
X89247483Y-35395908D01*
X89187883Y-35389501D01*
X89187881Y-35389500D01*
X89187873Y-35389500D01*
X89187864Y-35389500D01*
X86692129Y-35389500D01*
X86692123Y-35389501D01*
X86632516Y-35395908D01*
X86497671Y-35446202D01*
X86497664Y-35446206D01*
X86382455Y-35532452D01*
X86382452Y-35532455D01*
X86296206Y-35647664D01*
X86296202Y-35647671D01*
X86245908Y-35782517D01*
X86242071Y-35818210D01*
X86239501Y-35842123D01*
X86239500Y-35842135D01*
X63165000Y-35842135D01*
X63165000Y-31978549D01*
X86239500Y-31978549D01*
X86239500Y-32201450D01*
X86239501Y-32201466D01*
X86268594Y-32422452D01*
X86268595Y-32422457D01*
X86268596Y-32422463D01*
X86316005Y-32599397D01*
X86326290Y-32637780D01*
X86326293Y-32637790D01*
X86411593Y-32843722D01*
X86411595Y-32843726D01*
X86523052Y-33036774D01*
X86523057Y-33036780D01*
X86523058Y-33036782D01*
X86658751Y-33213622D01*
X86658757Y-33213629D01*
X86816370Y-33371242D01*
X86816377Y-33371248D01*
X86828573Y-33380606D01*
X86993226Y-33506948D01*
X87186274Y-33618405D01*
X87392219Y-33703710D01*
X87607537Y-33761404D01*
X87828543Y-33790500D01*
X87828550Y-33790500D01*
X88051450Y-33790500D01*
X88051457Y-33790500D01*
X88272463Y-33761404D01*
X88487781Y-33703710D01*
X88693726Y-33618405D01*
X88886774Y-33506948D01*
X89063624Y-33371247D01*
X89221247Y-33213624D01*
X89356948Y-33036774D01*
X89468405Y-32843726D01*
X89553710Y-32637781D01*
X89611404Y-32422463D01*
X89640500Y-32201457D01*
X89640500Y-31978549D01*
X101239500Y-31978549D01*
X101239500Y-32201450D01*
X101239501Y-32201466D01*
X101268594Y-32422452D01*
X101268595Y-32422457D01*
X101268596Y-32422463D01*
X101316005Y-32599397D01*
X101326290Y-32637780D01*
X101326293Y-32637790D01*
X101411593Y-32843722D01*
X101411595Y-32843726D01*
X101523052Y-33036774D01*
X101523057Y-33036780D01*
X101523058Y-33036782D01*
X101658751Y-33213622D01*
X101658757Y-33213629D01*
X101816370Y-33371242D01*
X101816377Y-33371248D01*
X101828573Y-33380606D01*
X101993226Y-33506948D01*
X102186274Y-33618405D01*
X102392219Y-33703710D01*
X102607537Y-33761404D01*
X102828543Y-33790500D01*
X102828550Y-33790500D01*
X103051450Y-33790500D01*
X103051457Y-33790500D01*
X103272463Y-33761404D01*
X103487781Y-33703710D01*
X103693726Y-33618405D01*
X103886774Y-33506948D01*
X104063624Y-33371247D01*
X104221247Y-33213624D01*
X104356948Y-33036774D01*
X104468405Y-32843726D01*
X104553710Y-32637781D01*
X104611404Y-32422463D01*
X104640500Y-32201457D01*
X104640500Y-31978549D01*
X116239500Y-31978549D01*
X116239500Y-32201450D01*
X116239501Y-32201466D01*
X116268594Y-32422452D01*
X116268595Y-32422457D01*
X116268596Y-32422463D01*
X116316005Y-32599397D01*
X116326290Y-32637780D01*
X116326293Y-32637790D01*
X116411593Y-32843722D01*
X116411595Y-32843726D01*
X116523052Y-33036774D01*
X116523057Y-33036780D01*
X116523058Y-33036782D01*
X116658751Y-33213622D01*
X116658757Y-33213629D01*
X116816370Y-33371242D01*
X116816377Y-33371248D01*
X116828573Y-33380606D01*
X116993226Y-33506948D01*
X117186274Y-33618405D01*
X117392219Y-33703710D01*
X117607537Y-33761404D01*
X117828543Y-33790500D01*
X117828550Y-33790500D01*
X118051450Y-33790500D01*
X118051457Y-33790500D01*
X118272463Y-33761404D01*
X118487781Y-33703710D01*
X118693726Y-33618405D01*
X118792889Y-33561153D01*
X134039500Y-33561153D01*
X134039500Y-33718846D01*
X134070261Y-33873489D01*
X134070264Y-33873501D01*
X134130602Y-34019172D01*
X134130609Y-34019185D01*
X134218210Y-34150288D01*
X134218213Y-34150292D01*
X134329707Y-34261786D01*
X134329711Y-34261789D01*
X134460814Y-34349390D01*
X134460827Y-34349397D01*
X134606498Y-34409735D01*
X134606503Y-34409737D01*
X134761153Y-34440499D01*
X134761156Y-34440500D01*
X134761158Y-34440500D01*
X134918844Y-34440500D01*
X134918845Y-34440499D01*
X135073497Y-34409737D01*
X135219179Y-34349394D01*
X135350289Y-34261789D01*
X135461789Y-34150289D01*
X135549394Y-34019179D01*
X135552719Y-34011153D01*
X135580011Y-33945263D01*
X135609737Y-33873497D01*
X135640500Y-33718842D01*
X135640500Y-33561158D01*
X135640500Y-33561155D01*
X135640499Y-33561153D01*
X135622012Y-33468213D01*
X135609737Y-33406503D01*
X135608541Y-33403616D01*
X135549397Y-33260827D01*
X135549390Y-33260814D01*
X135461789Y-33129711D01*
X135461786Y-33129707D01*
X135350292Y-33018213D01*
X135350288Y-33018210D01*
X135219185Y-32930609D01*
X135219172Y-32930602D01*
X135073501Y-32870264D01*
X135073489Y-32870261D01*
X134918845Y-32839500D01*
X134918842Y-32839500D01*
X134761158Y-32839500D01*
X134761155Y-32839500D01*
X134606510Y-32870261D01*
X134606498Y-32870264D01*
X134460827Y-32930602D01*
X134460814Y-32930609D01*
X134329711Y-33018210D01*
X134329707Y-33018213D01*
X134218213Y-33129707D01*
X134218210Y-33129711D01*
X134130609Y-33260814D01*
X134130602Y-33260827D01*
X134070264Y-33406498D01*
X134070261Y-33406510D01*
X134039500Y-33561153D01*
X118792889Y-33561153D01*
X118886774Y-33506948D01*
X119063624Y-33371247D01*
X119221247Y-33213624D01*
X119356948Y-33036774D01*
X119468405Y-32843726D01*
X119553710Y-32637781D01*
X119611404Y-32422463D01*
X119640500Y-32201457D01*
X119640500Y-31978543D01*
X119618463Y-31811153D01*
X136039500Y-31811153D01*
X136039500Y-31968846D01*
X136070261Y-32123489D01*
X136070264Y-32123501D01*
X136130602Y-32269172D01*
X136130609Y-32269185D01*
X136218210Y-32400288D01*
X136218213Y-32400292D01*
X136329707Y-32511786D01*
X136329711Y-32511789D01*
X136460814Y-32599390D01*
X136460827Y-32599397D01*
X136606498Y-32659735D01*
X136606503Y-32659737D01*
X136751088Y-32688497D01*
X136761153Y-32690499D01*
X136761156Y-32690500D01*
X136761158Y-32690500D01*
X136918843Y-32690500D01*
X136934028Y-32687479D01*
X136960216Y-32682270D01*
X137029807Y-32688497D01*
X137084985Y-32731359D01*
X137108230Y-32797248D01*
X137106025Y-32828078D01*
X137089500Y-32911153D01*
X137089500Y-32911158D01*
X137089500Y-33068842D01*
X137089500Y-33068844D01*
X137089499Y-33068844D01*
X137106025Y-33151920D01*
X137099798Y-33221512D01*
X137056935Y-33276689D01*
X136991045Y-33299934D01*
X136960218Y-33297730D01*
X136918842Y-33289500D01*
X136761158Y-33289500D01*
X136761155Y-33289500D01*
X136606510Y-33320261D01*
X136606498Y-33320264D01*
X136460827Y-33380602D01*
X136460814Y-33380609D01*
X136329711Y-33468210D01*
X136329707Y-33468213D01*
X136218213Y-33579707D01*
X136218210Y-33579711D01*
X136130609Y-33710814D01*
X136130602Y-33710827D01*
X136070264Y-33856498D01*
X136070261Y-33856510D01*
X136039500Y-34011153D01*
X136039500Y-34168846D01*
X136070261Y-34323489D01*
X136070264Y-34323501D01*
X136130602Y-34469172D01*
X136130609Y-34469185D01*
X136218210Y-34600288D01*
X136218213Y-34600292D01*
X136329707Y-34711786D01*
X136329711Y-34711789D01*
X136460814Y-34799390D01*
X136460827Y-34799397D01*
X136606498Y-34859735D01*
X136606503Y-34859737D01*
X136761153Y-34890499D01*
X136761156Y-34890500D01*
X136761158Y-34890500D01*
X136918844Y-34890500D01*
X136918845Y-34890499D01*
X137073497Y-34859737D01*
X137219179Y-34799394D01*
X137350289Y-34711789D01*
X137461789Y-34600289D01*
X137549394Y-34469179D01*
X137609737Y-34323497D01*
X137640500Y-34168842D01*
X137640500Y-34011158D01*
X137640499Y-34011155D01*
X137634205Y-33979515D01*
X137623974Y-33928077D01*
X137630201Y-33858488D01*
X137673063Y-33803310D01*
X137738953Y-33780065D01*
X137769783Y-33782270D01*
X137811156Y-33790500D01*
X137811158Y-33790500D01*
X137968844Y-33790500D01*
X138062275Y-33771915D01*
X138131867Y-33778142D01*
X138187044Y-33821005D01*
X138210289Y-33886894D01*
X138208085Y-33917722D01*
X138189500Y-34011158D01*
X138189500Y-34168846D01*
X138220261Y-34323489D01*
X138220264Y-34323501D01*
X138280602Y-34469172D01*
X138280609Y-34469185D01*
X138368210Y-34600288D01*
X138368213Y-34600292D01*
X138479707Y-34711786D01*
X138479711Y-34711789D01*
X138610814Y-34799390D01*
X138610827Y-34799397D01*
X138756498Y-34859735D01*
X138756503Y-34859737D01*
X138911153Y-34890499D01*
X138911156Y-34890500D01*
X138911158Y-34890500D01*
X139068844Y-34890500D01*
X139068845Y-34890499D01*
X139223497Y-34859737D01*
X139369179Y-34799394D01*
X139500289Y-34711789D01*
X139611789Y-34600289D01*
X139699394Y-34469179D01*
X139759737Y-34323497D01*
X139790500Y-34168842D01*
X139790500Y-34011158D01*
X139790500Y-34011156D01*
X139790500Y-34011155D01*
X139790499Y-34011153D01*
X139777393Y-33945264D01*
X139759737Y-33856503D01*
X139759735Y-33856498D01*
X139699397Y-33710827D01*
X139699390Y-33710814D01*
X139611789Y-33579711D01*
X139611786Y-33579707D01*
X139500292Y-33468213D01*
X139500288Y-33468210D01*
X139369185Y-33380609D01*
X139369172Y-33380602D01*
X139223501Y-33320264D01*
X139223489Y-33320261D01*
X139068845Y-33289500D01*
X139068842Y-33289500D01*
X138911158Y-33289500D01*
X138817722Y-33308085D01*
X138748131Y-33301856D01*
X138692954Y-33258993D01*
X138669710Y-33193103D01*
X138671915Y-33162275D01*
X138690500Y-33068844D01*
X138690500Y-32911155D01*
X138671915Y-32817724D01*
X138678142Y-32748132D01*
X138721005Y-32692955D01*
X138786895Y-32669710D01*
X138817724Y-32671915D01*
X138911155Y-32690500D01*
X138911158Y-32690500D01*
X139068844Y-32690500D01*
X139068845Y-32690499D01*
X139223497Y-32659737D01*
X139369179Y-32599394D01*
X139500289Y-32511789D01*
X139611789Y-32400289D01*
X139699394Y-32269179D01*
X139759737Y-32123497D01*
X139790500Y-31968842D01*
X139790500Y-31811158D01*
X139790500Y-31811155D01*
X139790499Y-31811153D01*
X139759738Y-31656510D01*
X139759737Y-31656503D01*
X139759735Y-31656498D01*
X139699397Y-31510827D01*
X139699390Y-31510814D01*
X139611789Y-31379711D01*
X139611786Y-31379707D01*
X139500292Y-31268213D01*
X139500288Y-31268210D01*
X139369185Y-31180609D01*
X139369172Y-31180602D01*
X139223501Y-31120264D01*
X139223489Y-31120261D01*
X139068845Y-31089500D01*
X139068842Y-31089500D01*
X138911158Y-31089500D01*
X138911155Y-31089500D01*
X138756510Y-31120261D01*
X138756498Y-31120264D01*
X138610827Y-31180602D01*
X138610814Y-31180609D01*
X138479711Y-31268210D01*
X138479707Y-31268213D01*
X138368213Y-31379707D01*
X138368210Y-31379711D01*
X138280609Y-31510814D01*
X138280602Y-31510827D01*
X138220264Y-31656498D01*
X138220261Y-31656510D01*
X138189500Y-31811153D01*
X138189500Y-31968846D01*
X138208084Y-32062276D01*
X138201857Y-32131868D01*
X138158993Y-32187045D01*
X138093103Y-32210289D01*
X138062276Y-32208084D01*
X137968846Y-32189500D01*
X137968842Y-32189500D01*
X137811158Y-32189500D01*
X137769781Y-32197730D01*
X137700189Y-32191501D01*
X137645013Y-32148638D01*
X137621769Y-32082748D01*
X137623973Y-32051925D01*
X137640500Y-31968842D01*
X137640500Y-31811158D01*
X137640500Y-31811155D01*
X137640499Y-31811153D01*
X137609738Y-31656510D01*
X137609737Y-31656503D01*
X137609735Y-31656498D01*
X137549397Y-31510827D01*
X137549390Y-31510814D01*
X137461789Y-31379711D01*
X137461786Y-31379707D01*
X137350292Y-31268213D01*
X137350288Y-31268210D01*
X137219185Y-31180609D01*
X137219172Y-31180602D01*
X137073501Y-31120264D01*
X137073489Y-31120261D01*
X136918845Y-31089500D01*
X136918842Y-31089500D01*
X136761158Y-31089500D01*
X136761155Y-31089500D01*
X136606510Y-31120261D01*
X136606498Y-31120264D01*
X136460827Y-31180602D01*
X136460814Y-31180609D01*
X136329711Y-31268210D01*
X136329707Y-31268213D01*
X136218213Y-31379707D01*
X136218210Y-31379711D01*
X136130609Y-31510814D01*
X136130602Y-31510827D01*
X136070264Y-31656498D01*
X136070261Y-31656510D01*
X136039500Y-31811153D01*
X119618463Y-31811153D01*
X119611404Y-31757537D01*
X119553710Y-31542219D01*
X119468405Y-31336274D01*
X119356948Y-31143226D01*
X119221247Y-30966376D01*
X119221242Y-30966370D01*
X119063629Y-30808757D01*
X119063622Y-30808751D01*
X118886782Y-30673058D01*
X118886780Y-30673057D01*
X118886774Y-30673052D01*
X118693726Y-30561595D01*
X118693722Y-30561593D01*
X118487790Y-30476293D01*
X118487783Y-30476291D01*
X118487781Y-30476290D01*
X118272463Y-30418596D01*
X118272457Y-30418595D01*
X118272452Y-30418594D01*
X118051466Y-30389501D01*
X118051463Y-30389500D01*
X118051457Y-30389500D01*
X117828543Y-30389500D01*
X117828537Y-30389500D01*
X117828533Y-30389501D01*
X117607547Y-30418594D01*
X117607540Y-30418595D01*
X117607537Y-30418596D01*
X117392219Y-30476290D01*
X117392209Y-30476293D01*
X117186277Y-30561593D01*
X117186273Y-30561595D01*
X116993226Y-30673052D01*
X116993217Y-30673058D01*
X116816377Y-30808751D01*
X116816370Y-30808757D01*
X116658757Y-30966370D01*
X116658751Y-30966377D01*
X116523058Y-31143217D01*
X116523052Y-31143226D01*
X116411595Y-31336273D01*
X116411593Y-31336277D01*
X116326293Y-31542209D01*
X116326290Y-31542219D01*
X116268597Y-31757534D01*
X116268594Y-31757547D01*
X116239501Y-31978533D01*
X116239500Y-31978549D01*
X104640500Y-31978549D01*
X104640500Y-31978543D01*
X104611404Y-31757537D01*
X104553710Y-31542219D01*
X104468405Y-31336274D01*
X104356948Y-31143226D01*
X104221247Y-30966376D01*
X104221242Y-30966370D01*
X104063629Y-30808757D01*
X104063622Y-30808751D01*
X103886782Y-30673058D01*
X103886780Y-30673057D01*
X103886774Y-30673052D01*
X103693726Y-30561595D01*
X103693722Y-30561593D01*
X103487790Y-30476293D01*
X103487783Y-30476291D01*
X103487781Y-30476290D01*
X103272463Y-30418596D01*
X103272457Y-30418595D01*
X103272452Y-30418594D01*
X103051466Y-30389501D01*
X103051463Y-30389500D01*
X103051457Y-30389500D01*
X102828543Y-30389500D01*
X102828537Y-30389500D01*
X102828533Y-30389501D01*
X102607547Y-30418594D01*
X102607540Y-30418595D01*
X102607537Y-30418596D01*
X102392219Y-30476290D01*
X102392209Y-30476293D01*
X102186277Y-30561593D01*
X102186273Y-30561595D01*
X101993226Y-30673052D01*
X101993217Y-30673058D01*
X101816377Y-30808751D01*
X101816370Y-30808757D01*
X101658757Y-30966370D01*
X101658751Y-30966377D01*
X101523058Y-31143217D01*
X101523052Y-31143226D01*
X101411595Y-31336273D01*
X101411593Y-31336277D01*
X101326293Y-31542209D01*
X101326290Y-31542219D01*
X101268597Y-31757534D01*
X101268594Y-31757547D01*
X101239501Y-31978533D01*
X101239500Y-31978549D01*
X89640500Y-31978549D01*
X89640500Y-31978543D01*
X89611404Y-31757537D01*
X89553710Y-31542219D01*
X89468405Y-31336274D01*
X89356948Y-31143226D01*
X89221247Y-30966376D01*
X89221242Y-30966370D01*
X89063629Y-30808757D01*
X89063622Y-30808751D01*
X88886782Y-30673058D01*
X88886780Y-30673057D01*
X88886774Y-30673052D01*
X88693726Y-30561595D01*
X88693722Y-30561593D01*
X88487790Y-30476293D01*
X88487783Y-30476291D01*
X88487781Y-30476290D01*
X88272463Y-30418596D01*
X88272457Y-30418595D01*
X88272452Y-30418594D01*
X88051466Y-30389501D01*
X88051463Y-30389500D01*
X88051457Y-30389500D01*
X87828543Y-30389500D01*
X87828537Y-30389500D01*
X87828533Y-30389501D01*
X87607547Y-30418594D01*
X87607540Y-30418595D01*
X87607537Y-30418596D01*
X87392219Y-30476290D01*
X87392209Y-30476293D01*
X87186277Y-30561593D01*
X87186273Y-30561595D01*
X86993226Y-30673052D01*
X86993217Y-30673058D01*
X86816377Y-30808751D01*
X86816370Y-30808757D01*
X86658757Y-30966370D01*
X86658751Y-30966377D01*
X86523058Y-31143217D01*
X86523052Y-31143226D01*
X86411595Y-31336273D01*
X86411593Y-31336277D01*
X86326293Y-31542209D01*
X86326290Y-31542219D01*
X86268597Y-31757534D01*
X86268594Y-31757547D01*
X86239501Y-31978533D01*
X86239500Y-31978549D01*
X63165000Y-31978549D01*
X63165000Y-28214000D01*
X63184685Y-28146961D01*
X63237489Y-28101206D01*
X63289000Y-28090000D01*
X158940000Y-28090000D01*
X158940000Y-33690000D01*
G37*
G04 #@! TD.AperFunction*
G04 #@! TA.AperFunction,Conductor*
G36*
X188090000Y-76536988D02*
G01*
X188032993Y-76504075D01*
X187905826Y-76470000D01*
X187774174Y-76470000D01*
X187647007Y-76504075D01*
X187590000Y-76536988D01*
X187590000Y-74863012D01*
X187647007Y-74895925D01*
X187774174Y-74930000D01*
X187905826Y-74930000D01*
X188032993Y-74895925D01*
X188090000Y-74863012D01*
X188090000Y-76536988D01*
G37*
G04 #@! TD.AperFunction*
G04 #@! TA.AperFunction,Conductor*
G36*
X188090000Y-73996988D02*
G01*
X188032993Y-73964075D01*
X187905826Y-73930000D01*
X187774174Y-73930000D01*
X187647007Y-73964075D01*
X187590000Y-73996988D01*
X187590000Y-72323012D01*
X187647007Y-72355925D01*
X187774174Y-72390000D01*
X187905826Y-72390000D01*
X188032993Y-72355925D01*
X188090000Y-72323012D01*
X188090000Y-73996988D01*
G37*
G04 #@! TD.AperFunction*
G04 #@! TA.AperFunction,Conductor*
G36*
X203633039Y-44609685D02*
G01*
X203678794Y-44662489D01*
X203690000Y-44714000D01*
X203690000Y-48818764D01*
X203670315Y-48885803D01*
X203617511Y-48931558D01*
X203564212Y-48942751D01*
X194536486Y-48812544D01*
X194536485Y-48812544D01*
X194536484Y-48812544D01*
X194536482Y-48812545D01*
X190140000Y-51389999D01*
X190140000Y-51390000D01*
X190140000Y-87290000D01*
X204604169Y-87331864D01*
X204671147Y-87351741D01*
X204676674Y-87355532D01*
X204800319Y-87445365D01*
X204971491Y-87532582D01*
X204971495Y-87532584D01*
X205036890Y-87553832D01*
X205094566Y-87593269D01*
X205121765Y-87657627D01*
X205109851Y-87726474D01*
X205062607Y-87777950D01*
X205036893Y-87789694D01*
X204971677Y-87810884D01*
X204800578Y-87898064D01*
X204771352Y-87919298D01*
X204771351Y-87919298D01*
X205335085Y-88483031D01*
X205258587Y-88503529D01*
X205151413Y-88565406D01*
X205063906Y-88652913D01*
X205002029Y-88760087D01*
X204981531Y-88836584D01*
X204417798Y-88272851D01*
X204417798Y-88272852D01*
X204396564Y-88302078D01*
X204309383Y-88473178D01*
X204250040Y-88655815D01*
X204220000Y-88845484D01*
X204220000Y-89037515D01*
X204250040Y-89227184D01*
X204309383Y-89409821D01*
X204396561Y-89580915D01*
X204417798Y-89610146D01*
X204981531Y-89046414D01*
X205002029Y-89122913D01*
X205063906Y-89230087D01*
X205151413Y-89317594D01*
X205258587Y-89379471D01*
X205335085Y-89399968D01*
X204771351Y-89963700D01*
X204771352Y-89963701D01*
X204800577Y-89984934D01*
X204971678Y-90072116D01*
X205154315Y-90131459D01*
X205343985Y-90161500D01*
X205536015Y-90161500D01*
X205725684Y-90131459D01*
X205908321Y-90072116D01*
X206079419Y-89984936D01*
X206108646Y-89963701D01*
X206108646Y-89963700D01*
X205544915Y-89399968D01*
X205621413Y-89379471D01*
X205728587Y-89317594D01*
X205816094Y-89230087D01*
X205877971Y-89122913D01*
X205898468Y-89046414D01*
X206462200Y-89610146D01*
X206462201Y-89610146D01*
X206483436Y-89580919D01*
X206570616Y-89409821D01*
X206629959Y-89227184D01*
X206660000Y-89037515D01*
X206660000Y-88845484D01*
X206629959Y-88655815D01*
X206570616Y-88473178D01*
X206483434Y-88302077D01*
X206462201Y-88272852D01*
X206462200Y-88272851D01*
X205898468Y-88836584D01*
X205877971Y-88760087D01*
X205816094Y-88652913D01*
X205728587Y-88565406D01*
X205621413Y-88503529D01*
X205544914Y-88483031D01*
X206108646Y-87919298D01*
X206079415Y-87898061D01*
X205908321Y-87810883D01*
X205843107Y-87789694D01*
X205785432Y-87750256D01*
X205758234Y-87685897D01*
X205770149Y-87617051D01*
X205817394Y-87565575D01*
X205843109Y-87553832D01*
X205908504Y-87532584D01*
X205908506Y-87532582D01*
X205908509Y-87532582D01*
X206079681Y-87445365D01*
X206196674Y-87360364D01*
X206262476Y-87336886D01*
X206269891Y-87336685D01*
X207291359Y-87339642D01*
X207358341Y-87359520D01*
X207403943Y-87412456D01*
X207415000Y-87463641D01*
X207415000Y-90340000D01*
X196077030Y-90340000D01*
X196009991Y-90320315D01*
X195964236Y-90267511D01*
X195962183Y-90262082D01*
X195962068Y-90262130D01*
X195899397Y-90110827D01*
X195899390Y-90110814D01*
X195815545Y-89985332D01*
X195815544Y-89985331D01*
X195811787Y-89979708D01*
X195700292Y-89868213D01*
X195700288Y-89868210D01*
X195569185Y-89780609D01*
X195569172Y-89780602D01*
X195423501Y-89720264D01*
X195423489Y-89720261D01*
X195268845Y-89689500D01*
X195268842Y-89689500D01*
X195111158Y-89689500D01*
X195111155Y-89689500D01*
X194956510Y-89720261D01*
X194956498Y-89720264D01*
X194810827Y-89780602D01*
X194810814Y-89780609D01*
X194679711Y-89868210D01*
X194679707Y-89868213D01*
X194568213Y-89979707D01*
X194568210Y-89979711D01*
X194480609Y-90110814D01*
X194480602Y-90110827D01*
X194417932Y-90262130D01*
X194415616Y-90261170D01*
X194383335Y-90310433D01*
X194319523Y-90338890D01*
X194302970Y-90340000D01*
X185814719Y-90340000D01*
X185747680Y-90320315D01*
X185701925Y-90267511D01*
X185690721Y-90215283D01*
X185698671Y-88839895D01*
X185699735Y-88655815D01*
X185801837Y-70992155D01*
X186490000Y-70992155D01*
X186490000Y-71640000D01*
X187406988Y-71640000D01*
X187374075Y-71697007D01*
X187340000Y-71824174D01*
X187340000Y-71955826D01*
X187374075Y-72082993D01*
X187406988Y-72140000D01*
X186490000Y-72140000D01*
X186490000Y-72787844D01*
X186496401Y-72847372D01*
X186496403Y-72847379D01*
X186546645Y-72982086D01*
X186546649Y-72982093D01*
X186632809Y-73097187D01*
X186632812Y-73097190D01*
X186747906Y-73183350D01*
X186747913Y-73183354D01*
X186879986Y-73232614D01*
X186935920Y-73274485D01*
X186960337Y-73339949D01*
X186945486Y-73408222D01*
X186924335Y-73436477D01*
X186810271Y-73550541D01*
X186685379Y-73722442D01*
X186588904Y-73911782D01*
X186523242Y-74113870D01*
X186523242Y-74113873D01*
X186512769Y-74180000D01*
X187406988Y-74180000D01*
X187374075Y-74237007D01*
X187340000Y-74364174D01*
X187340000Y-74495826D01*
X187374075Y-74622993D01*
X187406988Y-74680000D01*
X186512769Y-74680000D01*
X186523242Y-74746126D01*
X186523242Y-74746129D01*
X186588904Y-74948217D01*
X186685379Y-75137557D01*
X186810272Y-75309459D01*
X186810276Y-75309464D01*
X186960535Y-75459723D01*
X186960540Y-75459727D01*
X187132444Y-75584622D01*
X187142048Y-75589516D01*
X187192844Y-75637491D01*
X187209638Y-75705312D01*
X187187100Y-75771447D01*
X187142048Y-75810484D01*
X187132444Y-75815377D01*
X186960540Y-75940272D01*
X186960535Y-75940276D01*
X186810276Y-76090535D01*
X186810272Y-76090540D01*
X186685379Y-76262442D01*
X186588904Y-76451782D01*
X186523242Y-76653870D01*
X186523242Y-76653873D01*
X186512769Y-76720000D01*
X187406988Y-76720000D01*
X187374075Y-76777007D01*
X187340000Y-76904174D01*
X187340000Y-77035826D01*
X187374075Y-77162993D01*
X187406988Y-77220000D01*
X186512769Y-77220000D01*
X186523242Y-77286126D01*
X186523242Y-77286129D01*
X186588904Y-77488217D01*
X186685379Y-77677557D01*
X186810272Y-77849459D01*
X186810276Y-77849464D01*
X186960535Y-77999723D01*
X186960540Y-77999727D01*
X187132442Y-78124620D01*
X187321782Y-78221095D01*
X187523871Y-78286757D01*
X187590000Y-78297231D01*
X187590000Y-77403012D01*
X187647007Y-77435925D01*
X187774174Y-77470000D01*
X187905826Y-77470000D01*
X188032993Y-77435925D01*
X188090000Y-77403012D01*
X188090000Y-78297230D01*
X188156126Y-78286757D01*
X188156129Y-78286757D01*
X188358217Y-78221095D01*
X188547557Y-78124620D01*
X188719459Y-77999727D01*
X188719464Y-77999723D01*
X188869723Y-77849464D01*
X188869727Y-77849459D01*
X188994620Y-77677557D01*
X189091095Y-77488217D01*
X189156757Y-77286129D01*
X189156757Y-77286126D01*
X189167231Y-77220000D01*
X188273012Y-77220000D01*
X188305925Y-77162993D01*
X188340000Y-77035826D01*
X188340000Y-76904174D01*
X188305925Y-76777007D01*
X188273012Y-76720000D01*
X189167231Y-76720000D01*
X189156757Y-76653873D01*
X189156757Y-76653870D01*
X189091095Y-76451782D01*
X188994620Y-76262442D01*
X188869727Y-76090540D01*
X188869723Y-76090535D01*
X188719464Y-75940276D01*
X188719459Y-75940272D01*
X188547558Y-75815379D01*
X188537954Y-75810486D01*
X188487157Y-75762512D01*
X188470361Y-75694692D01*
X188492897Y-75628556D01*
X188537954Y-75589514D01*
X188547558Y-75584620D01*
X188719459Y-75459727D01*
X188719464Y-75459723D01*
X188869723Y-75309464D01*
X188869727Y-75309459D01*
X188994620Y-75137557D01*
X189091095Y-74948217D01*
X189156757Y-74746129D01*
X189156757Y-74746126D01*
X189167231Y-74680000D01*
X188273012Y-74680000D01*
X188305925Y-74622993D01*
X188340000Y-74495826D01*
X188340000Y-74364174D01*
X188305925Y-74237007D01*
X188273012Y-74180000D01*
X189167231Y-74180000D01*
X189156757Y-74113873D01*
X189156757Y-74113870D01*
X189091095Y-73911782D01*
X188994620Y-73722442D01*
X188869727Y-73550540D01*
X188869723Y-73550535D01*
X188755665Y-73436477D01*
X188722180Y-73375154D01*
X188727164Y-73305462D01*
X188769036Y-73249529D01*
X188800013Y-73232614D01*
X188932086Y-73183354D01*
X188932093Y-73183350D01*
X189047187Y-73097190D01*
X189047190Y-73097187D01*
X189133350Y-72982093D01*
X189133354Y-72982086D01*
X189183596Y-72847379D01*
X189183598Y-72847372D01*
X189189999Y-72787844D01*
X189190000Y-72787827D01*
X189190000Y-72140000D01*
X188273012Y-72140000D01*
X188305925Y-72082993D01*
X188340000Y-71955826D01*
X188340000Y-71824174D01*
X188305925Y-71697007D01*
X188273012Y-71640000D01*
X189190000Y-71640000D01*
X189190000Y-70992172D01*
X189189999Y-70992155D01*
X189183598Y-70932627D01*
X189183596Y-70932620D01*
X189133354Y-70797913D01*
X189133350Y-70797906D01*
X189047190Y-70682812D01*
X189047187Y-70682809D01*
X188932093Y-70596649D01*
X188932086Y-70596645D01*
X188797379Y-70546403D01*
X188797372Y-70546401D01*
X188737844Y-70540000D01*
X188090000Y-70540000D01*
X188090000Y-71456988D01*
X188032993Y-71424075D01*
X187905826Y-71390000D01*
X187774174Y-71390000D01*
X187647007Y-71424075D01*
X187590000Y-71456988D01*
X187590000Y-70540000D01*
X186942155Y-70540000D01*
X186882627Y-70546401D01*
X186882620Y-70546403D01*
X186747913Y-70596645D01*
X186747906Y-70596649D01*
X186632812Y-70682809D01*
X186632809Y-70682812D01*
X186546649Y-70797906D01*
X186546645Y-70797913D01*
X186496403Y-70932620D01*
X186496401Y-70932627D01*
X186490000Y-70992155D01*
X185801837Y-70992155D01*
X185920702Y-50428626D01*
X185940773Y-50361706D01*
X185993840Y-50316257D01*
X186063055Y-50306713D01*
X186104748Y-50322826D01*
X186105446Y-50321521D01*
X186110827Y-50324397D01*
X186236489Y-50376447D01*
X186256503Y-50384737D01*
X186411153Y-50415499D01*
X186411156Y-50415500D01*
X186411158Y-50415500D01*
X186568844Y-50415500D01*
X186568845Y-50415499D01*
X186723497Y-50384737D01*
X186869179Y-50324394D01*
X187000289Y-50236789D01*
X187111789Y-50125289D01*
X187199394Y-49994179D01*
X187259737Y-49848497D01*
X187290500Y-49693842D01*
X187290500Y-49536158D01*
X187290500Y-49536155D01*
X187290499Y-49536153D01*
X187259738Y-49381510D01*
X187259737Y-49381503D01*
X187259735Y-49381498D01*
X187199397Y-49235827D01*
X187199390Y-49235814D01*
X187111789Y-49104711D01*
X187111786Y-49104707D01*
X187000292Y-48993213D01*
X187000288Y-48993210D01*
X186869185Y-48905609D01*
X186869172Y-48905602D01*
X186723501Y-48845264D01*
X186723489Y-48845261D01*
X186568845Y-48814500D01*
X186568842Y-48814500D01*
X186411158Y-48814500D01*
X186411155Y-48814500D01*
X186256510Y-48845261D01*
X186256498Y-48845264D01*
X186105845Y-48907666D01*
X186105004Y-48908387D01*
X186074410Y-48912605D01*
X186044180Y-48918896D01*
X186040108Y-48917335D01*
X186035789Y-48917931D01*
X186007777Y-48904942D01*
X185978939Y-48893888D01*
X185976356Y-48890372D01*
X185972402Y-48888539D01*
X185955859Y-48862468D01*
X185937576Y-48837578D01*
X185936644Y-48832185D01*
X185934968Y-48829544D01*
X185930147Y-48794580D01*
X185931375Y-48582140D01*
X185951447Y-48515216D01*
X186004059Y-48469973D01*
X190025715Y-46641947D01*
X199940000Y-46641947D01*
X199940000Y-46878052D01*
X199976934Y-47111247D01*
X200049897Y-47335802D01*
X200157087Y-47546174D01*
X200217338Y-47629104D01*
X200217340Y-47629105D01*
X200957037Y-46889408D01*
X200974075Y-46952993D01*
X201039901Y-47067007D01*
X201132993Y-47160099D01*
X201247007Y-47225925D01*
X201310590Y-47242962D01*
X200570893Y-47982658D01*
X200653828Y-48042914D01*
X200864197Y-48150102D01*
X201088752Y-48223065D01*
X201088751Y-48223065D01*
X201321948Y-48260000D01*
X201558052Y-48260000D01*
X201791247Y-48223065D01*
X202015802Y-48150102D01*
X202226163Y-48042918D01*
X202226169Y-48042914D01*
X202309104Y-47982658D01*
X202309105Y-47982658D01*
X201569408Y-47242962D01*
X201632993Y-47225925D01*
X201747007Y-47160099D01*
X201840099Y-47067007D01*
X201905925Y-46952993D01*
X201922962Y-46889409D01*
X202662658Y-47629105D01*
X202662658Y-47629104D01*
X202722914Y-47546169D01*
X202722918Y-47546163D01*
X202830102Y-47335802D01*
X202903065Y-47111247D01*
X202940000Y-46878052D01*
X202940000Y-46641947D01*
X202903065Y-46408752D01*
X202830102Y-46184197D01*
X202722914Y-45973828D01*
X202662658Y-45890894D01*
X202662658Y-45890893D01*
X201922962Y-46630590D01*
X201905925Y-46567007D01*
X201840099Y-46452993D01*
X201747007Y-46359901D01*
X201632993Y-46294075D01*
X201569409Y-46277037D01*
X202309105Y-45537340D01*
X202309104Y-45537338D01*
X202226174Y-45477087D01*
X202015802Y-45369897D01*
X201791247Y-45296934D01*
X201791248Y-45296934D01*
X201558052Y-45260000D01*
X201321948Y-45260000D01*
X201088752Y-45296934D01*
X200864197Y-45369897D01*
X200653830Y-45477084D01*
X200570894Y-45537340D01*
X201310591Y-46277037D01*
X201247007Y-46294075D01*
X201132993Y-46359901D01*
X201039901Y-46452993D01*
X200974075Y-46567007D01*
X200957037Y-46630591D01*
X200217340Y-45890894D01*
X200157084Y-45973830D01*
X200049897Y-46184197D01*
X199976934Y-46408752D01*
X199940000Y-46641947D01*
X190025715Y-46641947D01*
X194515547Y-44601114D01*
X194566859Y-44590000D01*
X203566000Y-44590000D01*
X203633039Y-44609685D01*
G37*
G04 #@! TD.AperFunction*
G04 #@! TA.AperFunction,Conductor*
G36*
X126029118Y-42943175D02*
G01*
X126040323Y-42941971D01*
X126062041Y-42952842D01*
X126085344Y-42959685D01*
X126092722Y-42968200D01*
X126102802Y-42973246D01*
X126115196Y-42994136D01*
X126131099Y-43012489D01*
X126132702Y-43023642D01*
X126138454Y-43033336D01*
X126137586Y-43057609D01*
X126141043Y-43081647D01*
X126136361Y-43091898D01*
X126135959Y-43103161D01*
X126122106Y-43123111D01*
X126112018Y-43145203D01*
X126101503Y-43152784D01*
X126096110Y-43160553D01*
X126065756Y-43178562D01*
X126060821Y-43180605D01*
X126060814Y-43180609D01*
X125929711Y-43268210D01*
X125929707Y-43268213D01*
X125818213Y-43379707D01*
X125818210Y-43379711D01*
X125730609Y-43510814D01*
X125730602Y-43510827D01*
X125670264Y-43656498D01*
X125670261Y-43656510D01*
X125639500Y-43811153D01*
X125639500Y-43968846D01*
X125670261Y-44123489D01*
X125670264Y-44123501D01*
X125730602Y-44269172D01*
X125730609Y-44269185D01*
X125818210Y-44400288D01*
X125818213Y-44400292D01*
X125929707Y-44511786D01*
X125929711Y-44511789D01*
X126060814Y-44599390D01*
X126060827Y-44599397D01*
X126206498Y-44659735D01*
X126206503Y-44659737D01*
X126361153Y-44690499D01*
X126361156Y-44690500D01*
X126361158Y-44690500D01*
X126518844Y-44690500D01*
X126518845Y-44690499D01*
X126673497Y-44659737D01*
X126819179Y-44599394D01*
X126819184Y-44599390D01*
X126824554Y-44596521D01*
X126825748Y-44598755D01*
X126881849Y-44581175D01*
X126949234Y-44599645D01*
X126995936Y-44651613D01*
X127007128Y-44720580D01*
X126998652Y-44752607D01*
X126945264Y-44881498D01*
X126945261Y-44881510D01*
X126914500Y-45036153D01*
X126914500Y-45193846D01*
X126945261Y-45348489D01*
X126945264Y-45348501D01*
X127005602Y-45494172D01*
X127005609Y-45494185D01*
X127093211Y-45625289D01*
X127096316Y-45629073D01*
X127123629Y-45693383D01*
X127111838Y-45762251D01*
X127103565Y-45776629D01*
X127030609Y-45885814D01*
X127030602Y-45885827D01*
X126970264Y-46031498D01*
X126970261Y-46031510D01*
X126939500Y-46186153D01*
X126939500Y-46343846D01*
X126966525Y-46479707D01*
X126970263Y-46498497D01*
X127004947Y-46582234D01*
X127007336Y-46588000D01*
X127014804Y-46657470D01*
X126983528Y-46719949D01*
X126923439Y-46755601D01*
X126853614Y-46753106D01*
X126845322Y-46750013D01*
X126773501Y-46720264D01*
X126773489Y-46720261D01*
X126618845Y-46689500D01*
X126618842Y-46689500D01*
X126461158Y-46689500D01*
X126461155Y-46689500D01*
X126306510Y-46720261D01*
X126306498Y-46720264D01*
X126160827Y-46780602D01*
X126160814Y-46780609D01*
X126029711Y-46868210D01*
X126029707Y-46868213D01*
X125918213Y-46979707D01*
X125918210Y-46979711D01*
X125830609Y-47110814D01*
X125830602Y-47110827D01*
X125770264Y-47256498D01*
X125770261Y-47256510D01*
X125739500Y-47411153D01*
X125739500Y-47568846D01*
X125770261Y-47723489D01*
X125770264Y-47723501D01*
X125830602Y-47869172D01*
X125830609Y-47869185D01*
X125918210Y-48000288D01*
X125918213Y-48000292D01*
X126029707Y-48111786D01*
X126029711Y-48111789D01*
X126160814Y-48199390D01*
X126160827Y-48199397D01*
X126234013Y-48229711D01*
X126306503Y-48259737D01*
X126445835Y-48287452D01*
X126461153Y-48290499D01*
X126461156Y-48290500D01*
X126461158Y-48290500D01*
X126618844Y-48290500D01*
X126618845Y-48290499D01*
X126773497Y-48259737D01*
X126919179Y-48199394D01*
X127050289Y-48111789D01*
X127161789Y-48000289D01*
X127249394Y-47869179D01*
X127309737Y-47723497D01*
X127340500Y-47568842D01*
X127340500Y-47411158D01*
X127340500Y-47411155D01*
X127340499Y-47411153D01*
X127334422Y-47380602D01*
X127309737Y-47256503D01*
X127296062Y-47223489D01*
X127272664Y-47166999D01*
X127265195Y-47097530D01*
X127296470Y-47035051D01*
X127356560Y-46999399D01*
X127426385Y-47001893D01*
X127434669Y-47004982D01*
X127506503Y-47034737D01*
X127612665Y-47055854D01*
X127661153Y-47065499D01*
X127661156Y-47065500D01*
X127663800Y-47065500D01*
X127665134Y-47065891D01*
X127667218Y-47066097D01*
X127667179Y-47066492D01*
X127730839Y-47085185D01*
X127776594Y-47137989D01*
X127786538Y-47207147D01*
X127778361Y-47236952D01*
X127770264Y-47256498D01*
X127770261Y-47256510D01*
X127739500Y-47411153D01*
X127739500Y-47568846D01*
X127770261Y-47723489D01*
X127770264Y-47723501D01*
X127830602Y-47869172D01*
X127830609Y-47869185D01*
X127918210Y-48000288D01*
X127918213Y-48000292D01*
X128029707Y-48111786D01*
X128029711Y-48111789D01*
X128160814Y-48199390D01*
X128160827Y-48199397D01*
X128234013Y-48229711D01*
X128306503Y-48259737D01*
X128445835Y-48287452D01*
X128461153Y-48290499D01*
X128461156Y-48290500D01*
X128461158Y-48290500D01*
X128618844Y-48290500D01*
X128618845Y-48290499D01*
X128773497Y-48259737D01*
X128919179Y-48199394D01*
X129050289Y-48111789D01*
X129161789Y-48000289D01*
X129249394Y-47869179D01*
X129309737Y-47723497D01*
X129340500Y-47568842D01*
X129340500Y-47411158D01*
X129340500Y-47411155D01*
X129340499Y-47411153D01*
X129334422Y-47380602D01*
X129309737Y-47256503D01*
X129298963Y-47230494D01*
X129291494Y-47161026D01*
X129322768Y-47098546D01*
X129382856Y-47062893D01*
X129389333Y-47061424D01*
X129417335Y-47055854D01*
X129523497Y-47034737D01*
X129655679Y-46979985D01*
X129725145Y-46972517D01*
X129787625Y-47003792D01*
X129823277Y-47063881D01*
X129820784Y-47133706D01*
X129817691Y-47141998D01*
X129770263Y-47256503D01*
X129770261Y-47256510D01*
X129739500Y-47411153D01*
X129739500Y-47568846D01*
X129770261Y-47723489D01*
X129770264Y-47723501D01*
X129830602Y-47869172D01*
X129830609Y-47869185D01*
X129918210Y-48000288D01*
X129918213Y-48000292D01*
X130029707Y-48111786D01*
X130029711Y-48111789D01*
X130160814Y-48199390D01*
X130160827Y-48199397D01*
X130234013Y-48229711D01*
X130306503Y-48259737D01*
X130445835Y-48287452D01*
X130461153Y-48290499D01*
X130461156Y-48290500D01*
X130461158Y-48290500D01*
X130618844Y-48290500D01*
X130618845Y-48290499D01*
X130773497Y-48259737D01*
X130919179Y-48199394D01*
X131050289Y-48111789D01*
X131161789Y-48000289D01*
X131249394Y-47869179D01*
X131309737Y-47723497D01*
X131340500Y-47568842D01*
X131340500Y-47411158D01*
X131340500Y-47411155D01*
X131316140Y-47288692D01*
X131322367Y-47219100D01*
X131365230Y-47163923D01*
X131431120Y-47140678D01*
X131437757Y-47140500D01*
X131543844Y-47140500D01*
X131543845Y-47140499D01*
X131698497Y-47109737D01*
X131844179Y-47049394D01*
X131975289Y-46961789D01*
X132079760Y-46857317D01*
X132141081Y-46823834D01*
X132210773Y-46828818D01*
X132266707Y-46870689D01*
X132277190Y-46889100D01*
X132277736Y-46888809D01*
X132280609Y-46894185D01*
X132368210Y-47025288D01*
X132368213Y-47025292D01*
X132479707Y-47136786D01*
X132479711Y-47136789D01*
X132554703Y-47186898D01*
X132599508Y-47240511D01*
X132608215Y-47309836D01*
X132578060Y-47372863D01*
X132554703Y-47393102D01*
X132479711Y-47443210D01*
X132479707Y-47443213D01*
X132368213Y-47554707D01*
X132368210Y-47554711D01*
X132280609Y-47685814D01*
X132280602Y-47685827D01*
X132220264Y-47831498D01*
X132220261Y-47831510D01*
X132189500Y-47986153D01*
X132189500Y-48143846D01*
X132220261Y-48298489D01*
X132220264Y-48298501D01*
X132280602Y-48444172D01*
X132280609Y-48444185D01*
X132368210Y-48575288D01*
X132368213Y-48575292D01*
X132479707Y-48686786D01*
X132479711Y-48686789D01*
X132610814Y-48774390D01*
X132610827Y-48774397D01*
X132754777Y-48834022D01*
X132756503Y-48834737D01*
X132904934Y-48864262D01*
X132911153Y-48865499D01*
X132911156Y-48865500D01*
X132911158Y-48865500D01*
X133068844Y-48865500D01*
X133068845Y-48865499D01*
X133223497Y-48834737D01*
X133369179Y-48774394D01*
X133500289Y-48686789D01*
X133525925Y-48661153D01*
X135739500Y-48661153D01*
X135739500Y-48818846D01*
X135770261Y-48973489D01*
X135770264Y-48973501D01*
X135830602Y-49119172D01*
X135830609Y-49119185D01*
X135918210Y-49250288D01*
X135918213Y-49250292D01*
X136029707Y-49361786D01*
X136029711Y-49361789D01*
X136160814Y-49449390D01*
X136160827Y-49449397D01*
X136286349Y-49501389D01*
X136306503Y-49509737D01*
X136306507Y-49509737D01*
X136306508Y-49509738D01*
X136349967Y-49518383D01*
X136411878Y-49550768D01*
X136446452Y-49611484D01*
X136442712Y-49681253D01*
X136401845Y-49737925D01*
X136349967Y-49761617D01*
X136306508Y-49770261D01*
X136306498Y-49770264D01*
X136160827Y-49830602D01*
X136160814Y-49830609D01*
X136029711Y-49918210D01*
X136029707Y-49918213D01*
X135918213Y-50029707D01*
X135918210Y-50029711D01*
X135830609Y-50160814D01*
X135830602Y-50160827D01*
X135770264Y-50306498D01*
X135770261Y-50306510D01*
X135739500Y-50461153D01*
X135739500Y-50618846D01*
X135770261Y-50773489D01*
X135770264Y-50773501D01*
X135830602Y-50919172D01*
X135830609Y-50919185D01*
X135918210Y-51050288D01*
X135918213Y-51050292D01*
X136029707Y-51161786D01*
X136029711Y-51161789D01*
X136160814Y-51249390D01*
X136160827Y-51249397D01*
X136306498Y-51309735D01*
X136306503Y-51309737D01*
X136461153Y-51340499D01*
X136461156Y-51340500D01*
X136461158Y-51340500D01*
X136618844Y-51340500D01*
X136618845Y-51340499D01*
X136773497Y-51309737D01*
X136919179Y-51249394D01*
X137050289Y-51161789D01*
X137161789Y-51050289D01*
X137249394Y-50919179D01*
X137249397Y-50919172D01*
X137275439Y-50856301D01*
X137319279Y-50801897D01*
X137385573Y-50779832D01*
X137453273Y-50797111D01*
X137500884Y-50848248D01*
X137504561Y-50856301D01*
X137530602Y-50919172D01*
X137530609Y-50919185D01*
X137618210Y-51050288D01*
X137618213Y-51050292D01*
X137729707Y-51161786D01*
X137729711Y-51161789D01*
X137860814Y-51249390D01*
X137860827Y-51249397D01*
X138006498Y-51309735D01*
X138006503Y-51309737D01*
X138161153Y-51340499D01*
X138161156Y-51340500D01*
X138161158Y-51340500D01*
X138318844Y-51340500D01*
X138318845Y-51340499D01*
X138473497Y-51309737D01*
X138619179Y-51249394D01*
X138750289Y-51161789D01*
X138861789Y-51050289D01*
X138949394Y-50919179D01*
X138952854Y-50910827D01*
X138981314Y-50842116D01*
X139009737Y-50773497D01*
X139040500Y-50618842D01*
X139040500Y-50461158D01*
X139040500Y-50461155D01*
X139040499Y-50461153D01*
X139030610Y-50411437D01*
X139009737Y-50306503D01*
X138995532Y-50272208D01*
X138949397Y-50160827D01*
X138949390Y-50160814D01*
X138861789Y-50029711D01*
X138861786Y-50029707D01*
X138750292Y-49918213D01*
X138750288Y-49918210D01*
X138619185Y-49830609D01*
X138619172Y-49830602D01*
X138473501Y-49770264D01*
X138473489Y-49770261D01*
X138430033Y-49761617D01*
X138368122Y-49729232D01*
X138333548Y-49668517D01*
X138337287Y-49598747D01*
X138378154Y-49542075D01*
X138430033Y-49518383D01*
X138447940Y-49514820D01*
X138473497Y-49509737D01*
X138619179Y-49449394D01*
X138750289Y-49361789D01*
X138861789Y-49250289D01*
X138949394Y-49119179D01*
X138957069Y-49100651D01*
X138970506Y-49068210D01*
X139009737Y-48973497D01*
X139040500Y-48818842D01*
X139040500Y-48661158D01*
X139040500Y-48661155D01*
X139040499Y-48661153D01*
X139028391Y-48600284D01*
X139009737Y-48506503D01*
X139007113Y-48500167D01*
X138949397Y-48360827D01*
X138949390Y-48360814D01*
X138861789Y-48229711D01*
X138861786Y-48229707D01*
X138750292Y-48118213D01*
X138750288Y-48118210D01*
X138619185Y-48030609D01*
X138619172Y-48030602D01*
X138473501Y-47970264D01*
X138473489Y-47970261D01*
X138318845Y-47939500D01*
X138318842Y-47939500D01*
X138161158Y-47939500D01*
X138161155Y-47939500D01*
X138006510Y-47970261D01*
X138006498Y-47970264D01*
X137860827Y-48030602D01*
X137860814Y-48030609D01*
X137729711Y-48118210D01*
X137729707Y-48118213D01*
X137618213Y-48229707D01*
X137618210Y-48229711D01*
X137530609Y-48360814D01*
X137530604Y-48360823D01*
X137504561Y-48423699D01*
X137460720Y-48478102D01*
X137394426Y-48500167D01*
X137326727Y-48482888D01*
X137279116Y-48431751D01*
X137275439Y-48423699D01*
X137249395Y-48360823D01*
X137249390Y-48360814D01*
X137161789Y-48229711D01*
X137161786Y-48229707D01*
X137050292Y-48118213D01*
X137050288Y-48118210D01*
X136919185Y-48030609D01*
X136919172Y-48030602D01*
X136773501Y-47970264D01*
X136773489Y-47970261D01*
X136618845Y-47939500D01*
X136618842Y-47939500D01*
X136461158Y-47939500D01*
X136461155Y-47939500D01*
X136306510Y-47970261D01*
X136306498Y-47970264D01*
X136160827Y-48030602D01*
X136160814Y-48030609D01*
X136029711Y-48118210D01*
X136029707Y-48118213D01*
X135918213Y-48229707D01*
X135918210Y-48229711D01*
X135830609Y-48360814D01*
X135830602Y-48360827D01*
X135770264Y-48506498D01*
X135770261Y-48506510D01*
X135739500Y-48661153D01*
X133525925Y-48661153D01*
X133611789Y-48575289D01*
X133699394Y-48444179D01*
X133759737Y-48298497D01*
X133790500Y-48143842D01*
X133790500Y-47986158D01*
X133790500Y-47986155D01*
X133790499Y-47986153D01*
X133762168Y-47843726D01*
X133759737Y-47831503D01*
X133730597Y-47761153D01*
X140189500Y-47761153D01*
X140189500Y-47918846D01*
X140220261Y-48073489D01*
X140220264Y-48073501D01*
X140269574Y-48192548D01*
X140277043Y-48262018D01*
X140269574Y-48287452D01*
X140220264Y-48406498D01*
X140220261Y-48406510D01*
X140189500Y-48561153D01*
X140189500Y-48718846D01*
X140220261Y-48873489D01*
X140220264Y-48873501D01*
X140280602Y-49019172D01*
X140280609Y-49019185D01*
X140368210Y-49150288D01*
X140368213Y-49150292D01*
X140479707Y-49261786D01*
X140479711Y-49261789D01*
X140610814Y-49349390D01*
X140610827Y-49349397D01*
X140756498Y-49409735D01*
X140756503Y-49409737D01*
X140906126Y-49439499D01*
X140911153Y-49440499D01*
X140911156Y-49440500D01*
X140911158Y-49440500D01*
X141068844Y-49440500D01*
X141068845Y-49440499D01*
X141223497Y-49409737D01*
X141339262Y-49361786D01*
X141367548Y-49350070D01*
X141437017Y-49342601D01*
X141462452Y-49350070D01*
X141606498Y-49409735D01*
X141606503Y-49409737D01*
X141756126Y-49439499D01*
X141761153Y-49440499D01*
X141761156Y-49440500D01*
X141761158Y-49440500D01*
X141918844Y-49440500D01*
X141918845Y-49440499D01*
X142073497Y-49409737D01*
X142201888Y-49356556D01*
X142219172Y-49349397D01*
X142219172Y-49349396D01*
X142219179Y-49349394D01*
X142350289Y-49261789D01*
X142461789Y-49150289D01*
X142549394Y-49019179D01*
X142609737Y-48873497D01*
X142640500Y-48718842D01*
X142640500Y-48561158D01*
X142640500Y-48561155D01*
X142640499Y-48561153D01*
X142636163Y-48539353D01*
X142609737Y-48406503D01*
X142575352Y-48323489D01*
X142560425Y-48287452D01*
X142552956Y-48217983D01*
X142560425Y-48192548D01*
X142580598Y-48143846D01*
X142609737Y-48073497D01*
X142640500Y-47918842D01*
X142640500Y-47761158D01*
X142640500Y-47761155D01*
X142640499Y-47761153D01*
X142640217Y-47759735D01*
X142609737Y-47606503D01*
X142606063Y-47597632D01*
X142549397Y-47460827D01*
X142549390Y-47460814D01*
X142461789Y-47329711D01*
X142461786Y-47329707D01*
X142350292Y-47218213D01*
X142350288Y-47218210D01*
X142219185Y-47130609D01*
X142219172Y-47130602D01*
X142073501Y-47070264D01*
X142073489Y-47070261D01*
X141918845Y-47039500D01*
X141918842Y-47039500D01*
X141761158Y-47039500D01*
X141761155Y-47039500D01*
X141606510Y-47070261D01*
X141606498Y-47070264D01*
X141462452Y-47129930D01*
X141392983Y-47137399D01*
X141367548Y-47129930D01*
X141223501Y-47070264D01*
X141223489Y-47070261D01*
X141068845Y-47039500D01*
X141068842Y-47039500D01*
X140911158Y-47039500D01*
X140911155Y-47039500D01*
X140756510Y-47070261D01*
X140756498Y-47070264D01*
X140610827Y-47130602D01*
X140610814Y-47130609D01*
X140479711Y-47218210D01*
X140479707Y-47218213D01*
X140368213Y-47329707D01*
X140368210Y-47329711D01*
X140280609Y-47460814D01*
X140280602Y-47460827D01*
X140220264Y-47606498D01*
X140220261Y-47606510D01*
X140189500Y-47761153D01*
X133730597Y-47761153D01*
X133719924Y-47735386D01*
X133699397Y-47685827D01*
X133699390Y-47685814D01*
X133611789Y-47554711D01*
X133611786Y-47554707D01*
X133500292Y-47443213D01*
X133500288Y-47443210D01*
X133425296Y-47393102D01*
X133380491Y-47339490D01*
X133371784Y-47270165D01*
X133401938Y-47207138D01*
X133425296Y-47186898D01*
X133452184Y-47168932D01*
X133500289Y-47136789D01*
X133611789Y-47025289D01*
X133699394Y-46894179D01*
X133759737Y-46748497D01*
X133790500Y-46593842D01*
X133790500Y-46457784D01*
X133810185Y-46390745D01*
X133862989Y-46344990D01*
X133932147Y-46335046D01*
X133938692Y-46336167D01*
X134086155Y-46365500D01*
X134086158Y-46365500D01*
X134243844Y-46365500D01*
X134243845Y-46365499D01*
X134398497Y-46334737D01*
X134544179Y-46274394D01*
X134563996Y-46261153D01*
X135989500Y-46261153D01*
X135989500Y-46418846D01*
X136020261Y-46573489D01*
X136020264Y-46573501D01*
X136080602Y-46719172D01*
X136080609Y-46719185D01*
X136168210Y-46850288D01*
X136168213Y-46850292D01*
X136279707Y-46961786D01*
X136279711Y-46961789D01*
X136410814Y-47049390D01*
X136410827Y-47049397D01*
X136527032Y-47097530D01*
X136556503Y-47109737D01*
X136711153Y-47140499D01*
X136711156Y-47140500D01*
X136711158Y-47140500D01*
X136868844Y-47140500D01*
X136868845Y-47140499D01*
X137023497Y-47109737D01*
X137169179Y-47049394D01*
X137300289Y-46961789D01*
X137300292Y-46961786D01*
X137352319Y-46909760D01*
X137413642Y-46876275D01*
X137483334Y-46881259D01*
X137527681Y-46909760D01*
X137579707Y-46961786D01*
X137579711Y-46961789D01*
X137710814Y-47049390D01*
X137710827Y-47049397D01*
X137827032Y-47097530D01*
X137856503Y-47109737D01*
X138011153Y-47140499D01*
X138011156Y-47140500D01*
X138011158Y-47140500D01*
X138168844Y-47140500D01*
X138168845Y-47140499D01*
X138323497Y-47109737D01*
X138469179Y-47049394D01*
X138600289Y-46961789D01*
X138711789Y-46850289D01*
X138799394Y-46719179D01*
X138859737Y-46573497D01*
X138890500Y-46418842D01*
X138890500Y-46261158D01*
X138890500Y-46261155D01*
X138890499Y-46261153D01*
X138868447Y-46150292D01*
X138859737Y-46106503D01*
X138846808Y-46075289D01*
X138799397Y-45960827D01*
X138799390Y-45960814D01*
X138711789Y-45829711D01*
X138711786Y-45829707D01*
X138600292Y-45718213D01*
X138600288Y-45718210D01*
X138510429Y-45658168D01*
X138469185Y-45630609D01*
X138469172Y-45630602D01*
X138323501Y-45570264D01*
X138323489Y-45570261D01*
X138277701Y-45561153D01*
X144889500Y-45561153D01*
X144889500Y-45718846D01*
X144920261Y-45873489D01*
X144920264Y-45873501D01*
X144980602Y-46019172D01*
X144980609Y-46019185D01*
X145068210Y-46150288D01*
X145068213Y-46150292D01*
X145145240Y-46227319D01*
X145178725Y-46288642D01*
X145173741Y-46358334D01*
X145145240Y-46402681D01*
X145068213Y-46479707D01*
X145068210Y-46479711D01*
X144980609Y-46610814D01*
X144980602Y-46610827D01*
X144920264Y-46756498D01*
X144920261Y-46756510D01*
X144889500Y-46911153D01*
X144889500Y-47068846D01*
X144920261Y-47223489D01*
X144920264Y-47223501D01*
X144980602Y-47369172D01*
X144980609Y-47369185D01*
X145068210Y-47500288D01*
X145068213Y-47500292D01*
X145179707Y-47611786D01*
X145179711Y-47611789D01*
X145310814Y-47699390D01*
X145310827Y-47699397D01*
X145456498Y-47759735D01*
X145456503Y-47759737D01*
X145611153Y-47790499D01*
X145611156Y-47790500D01*
X145611158Y-47790500D01*
X145768844Y-47790500D01*
X145768845Y-47790499D01*
X145923497Y-47759737D01*
X146041592Y-47710821D01*
X146069172Y-47699397D01*
X146069172Y-47699396D01*
X146069179Y-47699394D01*
X146200289Y-47611789D01*
X146311789Y-47500289D01*
X146399394Y-47369179D01*
X146459737Y-47223497D01*
X146459739Y-47223486D01*
X146461506Y-47217664D01*
X146463813Y-47218363D01*
X146473600Y-47199663D01*
X146486784Y-47170797D01*
X146489686Y-47168932D01*
X146491285Y-47165877D01*
X146518860Y-47150183D01*
X146545562Y-47133023D01*
X146550177Y-47132359D01*
X146552009Y-47131317D01*
X146580497Y-47128000D01*
X146599503Y-47128000D01*
X146666542Y-47147685D01*
X146712297Y-47200489D01*
X146717903Y-47217844D01*
X146718494Y-47217665D01*
X146720264Y-47223501D01*
X146780602Y-47369172D01*
X146780609Y-47369185D01*
X146868210Y-47500288D01*
X146868213Y-47500292D01*
X146979707Y-47611786D01*
X146979711Y-47611789D01*
X147110814Y-47699390D01*
X147110827Y-47699397D01*
X147256498Y-47759735D01*
X147256503Y-47759737D01*
X147411153Y-47790499D01*
X147411156Y-47790500D01*
X147411158Y-47790500D01*
X147568844Y-47790500D01*
X147568845Y-47790499D01*
X147723497Y-47759737D01*
X147841592Y-47710821D01*
X147869172Y-47699397D01*
X147869172Y-47699396D01*
X147869179Y-47699394D01*
X148000289Y-47611789D01*
X148111789Y-47500289D01*
X148199394Y-47369179D01*
X148211692Y-47339490D01*
X148219655Y-47320264D01*
X148259737Y-47223497D01*
X148290500Y-47068842D01*
X148290500Y-46911158D01*
X148290500Y-46911155D01*
X148290499Y-46911153D01*
X148269994Y-46808068D01*
X148259737Y-46756503D01*
X148257049Y-46750013D01*
X148199397Y-46610827D01*
X148199390Y-46610814D01*
X148111789Y-46479711D01*
X148111786Y-46479707D01*
X148034760Y-46402681D01*
X148001275Y-46341358D01*
X148006259Y-46271666D01*
X148034760Y-46227319D01*
X148111786Y-46150292D01*
X148111789Y-46150289D01*
X148199394Y-46019179D01*
X148259737Y-45873497D01*
X148290500Y-45718842D01*
X148290500Y-45561158D01*
X148290500Y-45561155D01*
X148290499Y-45561153D01*
X148284750Y-45532252D01*
X148259737Y-45406503D01*
X148252694Y-45389500D01*
X148199397Y-45260827D01*
X148199390Y-45260814D01*
X148111789Y-45129711D01*
X148111786Y-45129707D01*
X148000292Y-45018213D01*
X148000288Y-45018210D01*
X147869185Y-44930609D01*
X147869172Y-44930602D01*
X147723501Y-44870264D01*
X147723489Y-44870261D01*
X147568845Y-44839500D01*
X147568842Y-44839500D01*
X147411158Y-44839500D01*
X147411155Y-44839500D01*
X147256510Y-44870261D01*
X147256498Y-44870264D01*
X147110827Y-44930602D01*
X147110814Y-44930609D01*
X146979711Y-45018210D01*
X146979707Y-45018213D01*
X146868213Y-45129707D01*
X146868210Y-45129711D01*
X146780609Y-45260814D01*
X146780602Y-45260827D01*
X146720264Y-45406498D01*
X146720261Y-45406507D01*
X146716147Y-45427193D01*
X146701431Y-45455323D01*
X146688243Y-45484203D01*
X146685353Y-45486060D01*
X146683761Y-45489104D01*
X146656169Y-45504815D01*
X146629465Y-45521977D01*
X146624870Y-45522637D01*
X146623045Y-45523677D01*
X146594530Y-45527000D01*
X146585469Y-45527000D01*
X146518430Y-45507315D01*
X146472675Y-45454511D01*
X146463852Y-45427193D01*
X146459737Y-45406503D01*
X146439029Y-45356510D01*
X146399397Y-45260827D01*
X146399390Y-45260814D01*
X146311789Y-45129711D01*
X146311786Y-45129707D01*
X146200292Y-45018213D01*
X146200288Y-45018210D01*
X146069185Y-44930609D01*
X146069172Y-44930602D01*
X145923501Y-44870264D01*
X145923489Y-44870261D01*
X145768845Y-44839500D01*
X145768842Y-44839500D01*
X145611158Y-44839500D01*
X145611155Y-44839500D01*
X145456510Y-44870261D01*
X145456498Y-44870264D01*
X145310827Y-44930602D01*
X145310814Y-44930609D01*
X145179711Y-45018210D01*
X145179707Y-45018213D01*
X145068213Y-45129707D01*
X145068210Y-45129711D01*
X144980609Y-45260814D01*
X144980602Y-45260827D01*
X144920264Y-45406498D01*
X144920261Y-45406510D01*
X144889500Y-45561153D01*
X138277701Y-45561153D01*
X138168845Y-45539500D01*
X138168842Y-45539500D01*
X138011158Y-45539500D01*
X138011155Y-45539500D01*
X137856510Y-45570261D01*
X137856498Y-45570264D01*
X137710827Y-45630602D01*
X137710814Y-45630609D01*
X137579711Y-45718210D01*
X137579707Y-45718213D01*
X137527681Y-45770240D01*
X137466358Y-45803725D01*
X137396666Y-45798741D01*
X137352319Y-45770240D01*
X137300292Y-45718213D01*
X137300288Y-45718210D01*
X137169185Y-45630609D01*
X137169172Y-45630602D01*
X137023501Y-45570264D01*
X137023489Y-45570261D01*
X136868845Y-45539500D01*
X136868842Y-45539500D01*
X136711158Y-45539500D01*
X136711155Y-45539500D01*
X136556510Y-45570261D01*
X136556498Y-45570264D01*
X136410827Y-45630602D01*
X136410814Y-45630609D01*
X136279711Y-45718210D01*
X136279707Y-45718213D01*
X136168213Y-45829707D01*
X136168210Y-45829711D01*
X136080609Y-45960814D01*
X136080602Y-45960827D01*
X136020264Y-46106498D01*
X136020261Y-46106510D01*
X135989500Y-46261153D01*
X134563996Y-46261153D01*
X134675289Y-46186789D01*
X134675925Y-46186153D01*
X134694694Y-46167385D01*
X134786786Y-46075292D01*
X134786789Y-46075289D01*
X134874394Y-45944179D01*
X134934737Y-45798497D01*
X134965500Y-45643842D01*
X134965500Y-45486158D01*
X134965500Y-45486155D01*
X134965499Y-45486153D01*
X134952061Y-45418596D01*
X134934737Y-45331503D01*
X134934735Y-45331498D01*
X134874397Y-45185827D01*
X134874390Y-45185814D01*
X134786789Y-45054711D01*
X134786786Y-45054707D01*
X134675292Y-44943213D01*
X134675288Y-44943210D01*
X134544185Y-44855609D01*
X134544172Y-44855602D01*
X134398501Y-44795264D01*
X134398489Y-44795261D01*
X134243845Y-44764500D01*
X134243842Y-44764500D01*
X134086158Y-44764500D01*
X134086155Y-44764500D01*
X133931510Y-44795261D01*
X133931498Y-44795264D01*
X133785827Y-44855602D01*
X133785814Y-44855609D01*
X133654711Y-44943210D01*
X133654707Y-44943213D01*
X133543213Y-45054707D01*
X133543210Y-45054711D01*
X133455609Y-45185814D01*
X133455602Y-45185827D01*
X133395264Y-45331498D01*
X133395261Y-45331510D01*
X133364500Y-45486153D01*
X133364500Y-45622215D01*
X133344815Y-45689254D01*
X133292011Y-45735009D01*
X133222853Y-45744953D01*
X133216309Y-45743832D01*
X133068846Y-45714500D01*
X133068842Y-45714500D01*
X132911158Y-45714500D01*
X132911155Y-45714500D01*
X132756510Y-45745261D01*
X132756498Y-45745264D01*
X132610827Y-45805602D01*
X132610814Y-45805609D01*
X132479711Y-45893210D01*
X132410344Y-45962577D01*
X132349020Y-45996061D01*
X132279329Y-45991076D01*
X132223395Y-45949205D01*
X132198979Y-45883740D01*
X132208104Y-45827438D01*
X132209737Y-45823497D01*
X132240500Y-45668842D01*
X132240500Y-45511158D01*
X132240500Y-45511155D01*
X132240499Y-45511153D01*
X132235527Y-45486158D01*
X132209737Y-45356503D01*
X132209735Y-45356498D01*
X132149397Y-45210827D01*
X132149390Y-45210814D01*
X132061789Y-45079711D01*
X132061786Y-45079707D01*
X131950292Y-44968213D01*
X131950288Y-44968210D01*
X131819185Y-44880609D01*
X131819172Y-44880602D01*
X131673501Y-44820264D01*
X131673489Y-44820261D01*
X131518845Y-44789500D01*
X131518842Y-44789500D01*
X131361158Y-44789500D01*
X131361155Y-44789500D01*
X131206510Y-44820261D01*
X131206498Y-44820264D01*
X131060827Y-44880602D01*
X131060814Y-44880609D01*
X130929711Y-44968210D01*
X130929707Y-44968213D01*
X130818213Y-45079707D01*
X130818210Y-45079711D01*
X130730609Y-45210814D01*
X130730602Y-45210827D01*
X130670264Y-45356498D01*
X130670261Y-45356510D01*
X130639500Y-45511153D01*
X130639500Y-45668846D01*
X130667330Y-45808753D01*
X130670263Y-45823497D01*
X130720253Y-45944185D01*
X130721719Y-45947723D01*
X130729188Y-46017193D01*
X130721720Y-46042627D01*
X130695263Y-46106502D01*
X130695261Y-46106505D01*
X130664500Y-46261153D01*
X130664500Y-46261158D01*
X130664500Y-46418842D01*
X130664500Y-46418844D01*
X130664499Y-46418844D01*
X130688860Y-46541308D01*
X130682633Y-46610900D01*
X130639770Y-46666077D01*
X130573880Y-46689322D01*
X130567243Y-46689500D01*
X130461155Y-46689500D01*
X130306510Y-46720261D01*
X130306498Y-46720264D01*
X130174322Y-46775013D01*
X130104853Y-46782482D01*
X130042374Y-46751206D01*
X130006722Y-46691117D01*
X130009216Y-46621292D01*
X130012309Y-46613000D01*
X130059735Y-46498501D01*
X130059737Y-46498497D01*
X130090500Y-46343842D01*
X130090500Y-46186158D01*
X130090500Y-46186155D01*
X130090499Y-46186153D01*
X130074656Y-46106505D01*
X130059737Y-46031503D01*
X130053810Y-46017193D01*
X129999397Y-45885827D01*
X129999390Y-45885814D01*
X129908405Y-45749646D01*
X129909816Y-45748702D01*
X129885671Y-45691870D01*
X129897453Y-45623001D01*
X129908677Y-45605536D01*
X129908405Y-45605354D01*
X129999390Y-45469185D01*
X129999390Y-45469184D01*
X129999394Y-45469179D01*
X130059737Y-45323497D01*
X130090500Y-45168842D01*
X130090500Y-45011158D01*
X130090500Y-45011155D01*
X130090499Y-45011153D01*
X130076984Y-44943210D01*
X130059737Y-44856503D01*
X130024807Y-44772175D01*
X130017339Y-44702709D01*
X130048614Y-44640229D01*
X130108703Y-44604577D01*
X130178528Y-44607070D01*
X130186821Y-44610164D01*
X130306498Y-44659735D01*
X130306503Y-44659737D01*
X130461153Y-44690499D01*
X130461156Y-44690500D01*
X130461158Y-44690500D01*
X130618844Y-44690500D01*
X130618845Y-44690499D01*
X130773497Y-44659737D01*
X130919179Y-44599394D01*
X131050289Y-44511789D01*
X131161789Y-44400289D01*
X131249394Y-44269179D01*
X131309737Y-44123497D01*
X131340500Y-43968842D01*
X131340500Y-43811158D01*
X131340500Y-43811155D01*
X131340499Y-43811153D01*
X131309738Y-43656510D01*
X131309737Y-43656503D01*
X131297896Y-43627915D01*
X131249397Y-43510827D01*
X131249390Y-43510814D01*
X131161789Y-43379711D01*
X131161786Y-43379707D01*
X131050292Y-43268213D01*
X131050288Y-43268210D01*
X130919185Y-43180609D01*
X130919178Y-43180605D01*
X130914244Y-43178562D01*
X130859840Y-43134721D01*
X130837774Y-43068428D01*
X130855052Y-43000728D01*
X130906189Y-42953117D01*
X130961695Y-42940000D01*
X144266560Y-42940000D01*
X144333599Y-42959685D01*
X144354236Y-42976314D01*
X144390411Y-43012489D01*
X144419712Y-43041790D01*
X144550814Y-43129390D01*
X144550827Y-43129397D01*
X144674466Y-43180609D01*
X144696503Y-43189737D01*
X144819783Y-43214259D01*
X144881694Y-43246643D01*
X144916268Y-43307359D01*
X144918994Y-43323716D01*
X144919498Y-43328840D01*
X144950261Y-43483489D01*
X144950264Y-43483501D01*
X145010602Y-43629172D01*
X145010609Y-43629185D01*
X145098210Y-43760288D01*
X145098213Y-43760292D01*
X145209707Y-43871786D01*
X145209711Y-43871789D01*
X145340814Y-43959390D01*
X145340827Y-43959397D01*
X145462363Y-44009738D01*
X145486503Y-44019737D01*
X145641153Y-44050499D01*
X145641156Y-44050500D01*
X145641158Y-44050500D01*
X145798844Y-44050500D01*
X145798845Y-44050499D01*
X145953497Y-44019737D01*
X146099179Y-43959394D01*
X146230289Y-43871789D01*
X146341789Y-43760289D01*
X146429394Y-43629179D01*
X146429395Y-43629175D01*
X146430237Y-43627916D01*
X146483850Y-43583110D01*
X146553174Y-43574403D01*
X146616202Y-43604557D01*
X146636442Y-43627915D01*
X146718210Y-43750288D01*
X146718213Y-43750292D01*
X146829707Y-43861786D01*
X146829711Y-43861789D01*
X146960814Y-43949390D01*
X146960827Y-43949397D01*
X147106498Y-44009735D01*
X147106503Y-44009737D01*
X147261153Y-44040499D01*
X147261156Y-44040500D01*
X147261158Y-44040500D01*
X147418844Y-44040500D01*
X147418845Y-44040499D01*
X147573497Y-44009737D01*
X147686166Y-43963067D01*
X147719172Y-43949397D01*
X147719172Y-43949396D01*
X147719179Y-43949394D01*
X147850289Y-43861789D01*
X147961789Y-43750289D01*
X148049394Y-43619179D01*
X148109737Y-43473497D01*
X148117098Y-43436488D01*
X148140209Y-43320308D01*
X148172594Y-43258397D01*
X148233310Y-43223823D01*
X148252826Y-43221548D01*
X148252782Y-43221097D01*
X148258836Y-43220500D01*
X148258842Y-43220500D01*
X148413497Y-43189737D01*
X148526166Y-43143067D01*
X148559172Y-43129397D01*
X148559172Y-43129396D01*
X148559179Y-43129394D01*
X148690289Y-43041789D01*
X148755760Y-42976317D01*
X148817081Y-42942834D01*
X148843440Y-42940000D01*
X162916000Y-42940000D01*
X162983039Y-42959685D01*
X163028794Y-43012489D01*
X163040000Y-43064000D01*
X163040000Y-43247574D01*
X163040000Y-43247575D01*
X158440000Y-43840000D01*
X158440000Y-47840000D01*
X163040000Y-47212727D01*
X163040000Y-79666000D01*
X163020315Y-79733039D01*
X162967511Y-79778794D01*
X162916000Y-79790000D01*
X145407000Y-79790000D01*
X145339961Y-79770315D01*
X145294206Y-79717511D01*
X145283000Y-79666000D01*
X145282999Y-78042129D01*
X145282998Y-78042123D01*
X145282997Y-78042116D01*
X145276591Y-77982517D01*
X145259930Y-77937847D01*
X145226297Y-77847671D01*
X145226293Y-77847664D01*
X145140047Y-77732455D01*
X145140044Y-77732452D01*
X145024835Y-77646206D01*
X145024828Y-77646202D01*
X144889982Y-77595908D01*
X144889983Y-77595908D01*
X144830383Y-77589501D01*
X144830381Y-77589500D01*
X144830373Y-77589500D01*
X144830364Y-77589500D01*
X141734629Y-77589500D01*
X141734623Y-77589501D01*
X141675016Y-77595908D01*
X141540171Y-77646202D01*
X141540164Y-77646206D01*
X141424955Y-77732452D01*
X141424952Y-77732455D01*
X141338706Y-77847664D01*
X141338702Y-77847671D01*
X141288408Y-77982517D01*
X141283134Y-78031577D01*
X141282001Y-78042123D01*
X141282000Y-78042135D01*
X141282001Y-79666000D01*
X141262316Y-79733039D01*
X141209513Y-79778794D01*
X141158001Y-79790000D01*
X63664000Y-79790000D01*
X63596961Y-79770315D01*
X63551206Y-79717511D01*
X63540000Y-79666000D01*
X63540000Y-74678562D01*
X68064500Y-74678562D01*
X68064500Y-75001437D01*
X68096147Y-75322768D01*
X68159133Y-75639427D01*
X68159136Y-75639438D01*
X68252867Y-75948428D01*
X68376430Y-76246734D01*
X68376432Y-76246739D01*
X68528628Y-76531477D01*
X68528639Y-76531495D01*
X68708013Y-76799947D01*
X68708023Y-76799961D01*
X68912858Y-77049553D01*
X69141160Y-77277855D01*
X69141165Y-77277859D01*
X69141166Y-77277860D01*
X69390758Y-77482695D01*
X69659225Y-77662079D01*
X69659234Y-77662084D01*
X69659236Y-77662085D01*
X69943974Y-77814281D01*
X69943976Y-77814281D01*
X69943982Y-77814285D01*
X70242287Y-77937847D01*
X70551266Y-78031575D01*
X70551272Y-78031576D01*
X70551275Y-78031577D01*
X70551286Y-78031580D01*
X70867945Y-78094566D01*
X71189273Y-78126214D01*
X71189276Y-78126214D01*
X72690724Y-78126214D01*
X72690727Y-78126214D01*
X73012055Y-78094566D01*
X73073698Y-78082304D01*
X73328713Y-78031580D01*
X73328724Y-78031577D01*
X73328724Y-78031576D01*
X73328734Y-78031575D01*
X73637713Y-77937847D01*
X73936018Y-77814285D01*
X74220775Y-77662079D01*
X74489242Y-77482695D01*
X74738834Y-77277860D01*
X74967146Y-77049548D01*
X75171981Y-76799956D01*
X75351365Y-76531489D01*
X75503571Y-76246732D01*
X75627133Y-75948427D01*
X75720861Y-75639448D01*
X75720863Y-75639438D01*
X75720866Y-75639427D01*
X75783852Y-75322768D01*
X75815500Y-75001437D01*
X75815500Y-74678562D01*
X78064500Y-74678562D01*
X78064500Y-75001437D01*
X78096147Y-75322768D01*
X78159133Y-75639427D01*
X78159136Y-75639438D01*
X78252867Y-75948428D01*
X78376430Y-76246734D01*
X78376432Y-76246739D01*
X78528628Y-76531477D01*
X78528639Y-76531495D01*
X78708013Y-76799947D01*
X78708023Y-76799961D01*
X78912858Y-77049553D01*
X79141160Y-77277855D01*
X79141165Y-77277859D01*
X79141166Y-77277860D01*
X79390758Y-77482695D01*
X79659225Y-77662079D01*
X79659234Y-77662084D01*
X79659236Y-77662085D01*
X79943974Y-77814281D01*
X79943976Y-77814281D01*
X79943982Y-77814285D01*
X80242287Y-77937847D01*
X80551266Y-78031575D01*
X80551272Y-78031576D01*
X80551275Y-78031577D01*
X80551286Y-78031580D01*
X80867945Y-78094566D01*
X81189273Y-78126214D01*
X81189276Y-78126214D01*
X82690724Y-78126214D01*
X82690727Y-78126214D01*
X83012055Y-78094566D01*
X83073698Y-78082304D01*
X83328713Y-78031580D01*
X83328724Y-78031577D01*
X83328724Y-78031576D01*
X83328734Y-78031575D01*
X83637713Y-77937847D01*
X83936018Y-77814285D01*
X84220775Y-77662079D01*
X84489242Y-77482695D01*
X84738834Y-77277860D01*
X84967146Y-77049548D01*
X85171981Y-76799956D01*
X85351365Y-76531489D01*
X85503571Y-76246732D01*
X85627133Y-75948427D01*
X85720861Y-75639448D01*
X85720863Y-75639438D01*
X85720866Y-75639427D01*
X85783852Y-75322768D01*
X85815500Y-75001437D01*
X85815500Y-74678562D01*
X115064500Y-74678562D01*
X115064500Y-75001437D01*
X115096147Y-75322768D01*
X115159133Y-75639427D01*
X115159136Y-75639438D01*
X115252867Y-75948428D01*
X115376430Y-76246734D01*
X115376432Y-76246739D01*
X115528628Y-76531477D01*
X115528639Y-76531495D01*
X115708013Y-76799947D01*
X115708023Y-76799961D01*
X115912858Y-77049553D01*
X116141160Y-77277855D01*
X116141165Y-77277859D01*
X116141166Y-77277860D01*
X116390758Y-77482695D01*
X116659225Y-77662079D01*
X116659234Y-77662084D01*
X116659236Y-77662085D01*
X116943974Y-77814281D01*
X116943976Y-77814281D01*
X116943982Y-77814285D01*
X117242287Y-77937847D01*
X117551266Y-78031575D01*
X117551272Y-78031576D01*
X117551275Y-78031577D01*
X117551286Y-78031580D01*
X117867945Y-78094566D01*
X118189273Y-78126214D01*
X118189276Y-78126214D01*
X119690724Y-78126214D01*
X119690727Y-78126214D01*
X120012055Y-78094566D01*
X120073698Y-78082304D01*
X120328713Y-78031580D01*
X120328724Y-78031577D01*
X120328724Y-78031576D01*
X120328734Y-78031575D01*
X120637713Y-77937847D01*
X120936018Y-77814285D01*
X121220775Y-77662079D01*
X121489242Y-77482695D01*
X121738834Y-77277860D01*
X121967146Y-77049548D01*
X122171981Y-76799956D01*
X122351365Y-76531489D01*
X122503571Y-76246732D01*
X122627133Y-75948427D01*
X122720861Y-75639448D01*
X122720863Y-75639438D01*
X122720866Y-75639427D01*
X122783852Y-75322768D01*
X122815500Y-75001437D01*
X122815500Y-74678562D01*
X125064500Y-74678562D01*
X125064500Y-75001437D01*
X125096147Y-75322768D01*
X125159133Y-75639427D01*
X125159136Y-75639438D01*
X125252867Y-75948428D01*
X125376430Y-76246734D01*
X125376432Y-76246739D01*
X125528628Y-76531477D01*
X125528639Y-76531495D01*
X125708013Y-76799947D01*
X125708023Y-76799961D01*
X125912858Y-77049553D01*
X126141160Y-77277855D01*
X126141165Y-77277859D01*
X126141166Y-77277860D01*
X126390758Y-77482695D01*
X126659225Y-77662079D01*
X126659234Y-77662084D01*
X126659236Y-77662085D01*
X126943974Y-77814281D01*
X126943976Y-77814281D01*
X126943982Y-77814285D01*
X127242287Y-77937847D01*
X127551266Y-78031575D01*
X127551272Y-78031576D01*
X127551275Y-78031577D01*
X127551286Y-78031580D01*
X127867945Y-78094566D01*
X128189273Y-78126214D01*
X128189276Y-78126214D01*
X129690724Y-78126214D01*
X129690727Y-78126214D01*
X130012055Y-78094566D01*
X130073698Y-78082304D01*
X130328713Y-78031580D01*
X130328724Y-78031577D01*
X130328724Y-78031576D01*
X130328734Y-78031575D01*
X130637713Y-77937847D01*
X130936018Y-77814285D01*
X131220775Y-77662079D01*
X131489242Y-77482695D01*
X131738834Y-77277860D01*
X131967146Y-77049548D01*
X132171981Y-76799956D01*
X132351365Y-76531489D01*
X132503571Y-76246732D01*
X132627133Y-75948427D01*
X132720861Y-75639448D01*
X132720863Y-75639438D01*
X132720866Y-75639427D01*
X132783852Y-75322768D01*
X132815500Y-75001437D01*
X132815500Y-74678562D01*
X132783852Y-74357231D01*
X132720866Y-74040572D01*
X132720863Y-74040561D01*
X132720862Y-74040558D01*
X132720861Y-74040552D01*
X132627133Y-73731573D01*
X132503571Y-73433268D01*
X132351365Y-73148511D01*
X132171981Y-72880044D01*
X131967146Y-72630452D01*
X131967145Y-72630451D01*
X131967141Y-72630446D01*
X131738839Y-72402144D01*
X131489247Y-72197309D01*
X131489246Y-72197308D01*
X131489242Y-72197305D01*
X131220775Y-72017921D01*
X131220770Y-72017918D01*
X131220763Y-72017914D01*
X130936025Y-71865718D01*
X130936020Y-71865716D01*
X130637714Y-71742153D01*
X130328724Y-71648422D01*
X130328713Y-71648419D01*
X130012054Y-71585433D01*
X129770043Y-71561598D01*
X129690727Y-71553786D01*
X128189273Y-71553786D01*
X128115986Y-71561004D01*
X127867945Y-71585433D01*
X127551286Y-71648419D01*
X127551275Y-71648422D01*
X127242285Y-71742153D01*
X126943979Y-71865716D01*
X126943974Y-71865718D01*
X126659236Y-72017914D01*
X126659218Y-72017925D01*
X126390766Y-72197299D01*
X126390752Y-72197309D01*
X126141160Y-72402144D01*
X125912858Y-72630446D01*
X125708023Y-72880038D01*
X125708013Y-72880052D01*
X125528639Y-73148504D01*
X125528628Y-73148522D01*
X125376432Y-73433260D01*
X125376430Y-73433265D01*
X125252867Y-73731571D01*
X125159136Y-74040561D01*
X125159133Y-74040572D01*
X125096147Y-74357231D01*
X125064500Y-74678562D01*
X122815500Y-74678562D01*
X122783852Y-74357231D01*
X122720866Y-74040572D01*
X122720863Y-74040561D01*
X122720862Y-74040558D01*
X122720861Y-74040552D01*
X122627133Y-73731573D01*
X122503571Y-73433268D01*
X122351365Y-73148511D01*
X122171981Y-72880044D01*
X121967146Y-72630452D01*
X121967145Y-72630451D01*
X121967141Y-72630446D01*
X121738839Y-72402144D01*
X121489247Y-72197309D01*
X121489246Y-72197308D01*
X121489242Y-72197305D01*
X121220775Y-72017921D01*
X121220770Y-72017918D01*
X121220763Y-72017914D01*
X120936025Y-71865718D01*
X120936020Y-71865716D01*
X120637714Y-71742153D01*
X120328724Y-71648422D01*
X120328713Y-71648419D01*
X120012054Y-71585433D01*
X119770043Y-71561598D01*
X119690727Y-71553786D01*
X118189273Y-71553786D01*
X118115986Y-71561004D01*
X117867945Y-71585433D01*
X117551286Y-71648419D01*
X117551275Y-71648422D01*
X117242285Y-71742153D01*
X116943979Y-71865716D01*
X116943974Y-71865718D01*
X116659236Y-72017914D01*
X116659218Y-72017925D01*
X116390766Y-72197299D01*
X116390752Y-72197309D01*
X116141160Y-72402144D01*
X115912858Y-72630446D01*
X115708023Y-72880038D01*
X115708013Y-72880052D01*
X115528639Y-73148504D01*
X115528628Y-73148522D01*
X115376432Y-73433260D01*
X115376430Y-73433265D01*
X115252867Y-73731571D01*
X115159136Y-74040561D01*
X115159133Y-74040572D01*
X115096147Y-74357231D01*
X115064500Y-74678562D01*
X85815500Y-74678562D01*
X85783852Y-74357231D01*
X85720866Y-74040572D01*
X85720863Y-74040561D01*
X85720862Y-74040558D01*
X85720861Y-74040552D01*
X85627133Y-73731573D01*
X85503571Y-73433268D01*
X85351365Y-73148511D01*
X85171981Y-72880044D01*
X84967146Y-72630452D01*
X84967145Y-72630451D01*
X84967141Y-72630446D01*
X84738839Y-72402144D01*
X84489247Y-72197309D01*
X84489246Y-72197308D01*
X84489242Y-72197305D01*
X84220775Y-72017921D01*
X84220770Y-72017918D01*
X84220763Y-72017914D01*
X83936025Y-71865718D01*
X83936020Y-71865716D01*
X83637714Y-71742153D01*
X83328724Y-71648422D01*
X83328713Y-71648419D01*
X83012054Y-71585433D01*
X82770043Y-71561598D01*
X82690727Y-71553786D01*
X81189273Y-71553786D01*
X81115986Y-71561004D01*
X80867945Y-71585433D01*
X80551286Y-71648419D01*
X80551275Y-71648422D01*
X80242285Y-71742153D01*
X79943979Y-71865716D01*
X79943974Y-71865718D01*
X79659236Y-72017914D01*
X79659218Y-72017925D01*
X79390766Y-72197299D01*
X79390752Y-72197309D01*
X79141160Y-72402144D01*
X78912858Y-72630446D01*
X78708023Y-72880038D01*
X78708013Y-72880052D01*
X78528639Y-73148504D01*
X78528628Y-73148522D01*
X78376432Y-73433260D01*
X78376430Y-73433265D01*
X78252867Y-73731571D01*
X78159136Y-74040561D01*
X78159133Y-74040572D01*
X78096147Y-74357231D01*
X78064500Y-74678562D01*
X75815500Y-74678562D01*
X75783852Y-74357231D01*
X75720866Y-74040572D01*
X75720863Y-74040561D01*
X75720862Y-74040558D01*
X75720861Y-74040552D01*
X75627133Y-73731573D01*
X75503571Y-73433268D01*
X75351365Y-73148511D01*
X75171981Y-72880044D01*
X74967146Y-72630452D01*
X74967145Y-72630451D01*
X74967141Y-72630446D01*
X74738839Y-72402144D01*
X74489247Y-72197309D01*
X74489246Y-72197308D01*
X74489242Y-72197305D01*
X74220775Y-72017921D01*
X74220770Y-72017918D01*
X74220763Y-72017914D01*
X73936025Y-71865718D01*
X73936020Y-71865716D01*
X73637714Y-71742153D01*
X73328724Y-71648422D01*
X73328713Y-71648419D01*
X73012054Y-71585433D01*
X72770043Y-71561598D01*
X72690727Y-71553786D01*
X71189273Y-71553786D01*
X71115986Y-71561004D01*
X70867945Y-71585433D01*
X70551286Y-71648419D01*
X70551275Y-71648422D01*
X70242285Y-71742153D01*
X69943979Y-71865716D01*
X69943974Y-71865718D01*
X69659236Y-72017914D01*
X69659218Y-72017925D01*
X69390766Y-72197299D01*
X69390752Y-72197309D01*
X69141160Y-72402144D01*
X68912858Y-72630446D01*
X68708023Y-72880038D01*
X68708013Y-72880052D01*
X68528639Y-73148504D01*
X68528628Y-73148522D01*
X68376432Y-73433260D01*
X68376430Y-73433265D01*
X68252867Y-73731571D01*
X68159136Y-74040561D01*
X68159133Y-74040572D01*
X68096147Y-74357231D01*
X68064500Y-74678562D01*
X63540000Y-74678562D01*
X63540000Y-63858355D01*
X65134500Y-63858355D01*
X65134500Y-64321644D01*
X65174879Y-64783170D01*
X65174879Y-64783172D01*
X65255325Y-65239404D01*
X65255327Y-65239414D01*
X65375235Y-65686914D01*
X65375238Y-65686924D01*
X65375239Y-65686925D01*
X65533685Y-66122256D01*
X65729476Y-66542132D01*
X65729484Y-66542147D01*
X65961119Y-66943350D01*
X65961128Y-66943365D01*
X66226858Y-67322866D01*
X66454001Y-67593563D01*
X66524649Y-67677758D01*
X66852242Y-68005351D01*
X66978534Y-68111322D01*
X67207133Y-68303141D01*
X67207139Y-68303145D01*
X67207140Y-68303146D01*
X67586641Y-68568876D01*
X67962666Y-68785974D01*
X67987852Y-68800515D01*
X67987867Y-68800523D01*
X68407743Y-68996314D01*
X68609082Y-69069594D01*
X68843086Y-69154765D01*
X69290586Y-69274673D01*
X69746834Y-69355121D01*
X70208355Y-69395499D01*
X70208356Y-69395500D01*
X70208357Y-69395500D01*
X70671644Y-69395500D01*
X70671644Y-69395499D01*
X71133166Y-69355121D01*
X71589414Y-69274673D01*
X72036914Y-69154765D01*
X72472261Y-68996312D01*
X72892141Y-68800519D01*
X73293359Y-68568876D01*
X73672860Y-68303146D01*
X74027758Y-68005351D01*
X74355351Y-67677758D01*
X74653146Y-67322860D01*
X74918876Y-66943359D01*
X75150519Y-66542141D01*
X75346312Y-66122261D01*
X75504765Y-65686914D01*
X75624673Y-65239414D01*
X75705121Y-64783166D01*
X75745500Y-64321643D01*
X75745500Y-63858357D01*
X75745500Y-63858355D01*
X125134500Y-63858355D01*
X125134500Y-64321644D01*
X125174879Y-64783170D01*
X125174879Y-64783172D01*
X125255325Y-65239404D01*
X125255327Y-65239414D01*
X125375235Y-65686914D01*
X125375238Y-65686924D01*
X125375239Y-65686925D01*
X125533685Y-66122256D01*
X125729476Y-66542132D01*
X125729484Y-66542147D01*
X125961119Y-66943350D01*
X125961128Y-66943365D01*
X126226858Y-67322866D01*
X126454001Y-67593563D01*
X126524649Y-67677758D01*
X126852242Y-68005351D01*
X126978534Y-68111322D01*
X127207133Y-68303141D01*
X127207139Y-68303145D01*
X127207140Y-68303146D01*
X127586641Y-68568876D01*
X127962666Y-68785974D01*
X127987852Y-68800515D01*
X127987867Y-68800523D01*
X128407743Y-68996314D01*
X128609082Y-69069594D01*
X128843086Y-69154765D01*
X129290586Y-69274673D01*
X129746834Y-69355121D01*
X130208355Y-69395499D01*
X130208356Y-69395500D01*
X130208357Y-69395500D01*
X130671644Y-69395500D01*
X130671644Y-69395499D01*
X131133166Y-69355121D01*
X131589414Y-69274673D01*
X132036914Y-69154765D01*
X132472261Y-68996312D01*
X132892141Y-68800519D01*
X133293359Y-68568876D01*
X133672860Y-68303146D01*
X134027758Y-68005351D01*
X134355351Y-67677758D01*
X134653146Y-67322860D01*
X134918876Y-66943359D01*
X135150519Y-66542141D01*
X135346312Y-66122261D01*
X135504765Y-65686914D01*
X135624673Y-65239414D01*
X135705121Y-64783166D01*
X135745500Y-64321643D01*
X135745500Y-63858357D01*
X135705121Y-63396834D01*
X135624673Y-62940586D01*
X135504765Y-62493086D01*
X135419594Y-62259082D01*
X135346314Y-62057743D01*
X135150523Y-61637867D01*
X135150515Y-61637852D01*
X135135974Y-61612666D01*
X134918876Y-61236641D01*
X134653146Y-60857140D01*
X134653145Y-60857139D01*
X134653141Y-60857133D01*
X134355348Y-60502239D01*
X134027760Y-60174651D01*
X133672866Y-59876858D01*
X133293365Y-59611128D01*
X133293362Y-59611126D01*
X133293359Y-59611124D01*
X133174160Y-59542304D01*
X132892147Y-59379484D01*
X132892132Y-59379476D01*
X132472256Y-59183685D01*
X132036925Y-59025239D01*
X132036924Y-59025238D01*
X132036914Y-59025235D01*
X131709323Y-58937456D01*
X131589415Y-58905327D01*
X131589404Y-58905325D01*
X131133171Y-58824879D01*
X130671644Y-58784500D01*
X130671643Y-58784500D01*
X130208357Y-58784500D01*
X130208356Y-58784500D01*
X129746829Y-58824879D01*
X129746827Y-58824879D01*
X129290595Y-58905325D01*
X129290584Y-58905327D01*
X129050768Y-58969586D01*
X128843086Y-59025235D01*
X128843079Y-59025237D01*
X128843074Y-59025239D01*
X128407743Y-59183685D01*
X127987867Y-59379476D01*
X127987852Y-59379484D01*
X127586649Y-59611119D01*
X127586634Y-59611128D01*
X127207133Y-59876858D01*
X126852239Y-60174651D01*
X126524651Y-60502239D01*
X126226858Y-60857133D01*
X125961128Y-61236634D01*
X125961119Y-61236649D01*
X125729484Y-61637852D01*
X125729476Y-61637867D01*
X125533685Y-62057743D01*
X125375239Y-62493074D01*
X125375236Y-62493084D01*
X125255327Y-62940584D01*
X125255325Y-62940595D01*
X125174879Y-63396827D01*
X125174879Y-63396829D01*
X125134500Y-63858355D01*
X75745500Y-63858355D01*
X75705121Y-63396834D01*
X75624673Y-62940586D01*
X75504765Y-62493086D01*
X75419594Y-62259082D01*
X75346314Y-62057743D01*
X75150523Y-61637867D01*
X75150515Y-61637852D01*
X75135974Y-61612666D01*
X74918876Y-61236641D01*
X74653146Y-60857140D01*
X74653145Y-60857139D01*
X74653141Y-60857133D01*
X74355348Y-60502239D01*
X74027760Y-60174651D01*
X73672866Y-59876858D01*
X73293365Y-59611128D01*
X73293362Y-59611126D01*
X73293359Y-59611124D01*
X73174160Y-59542304D01*
X72892147Y-59379484D01*
X72892132Y-59379476D01*
X72472256Y-59183685D01*
X72036925Y-59025239D01*
X72036924Y-59025238D01*
X72036914Y-59025235D01*
X71709323Y-58937456D01*
X71589415Y-58905327D01*
X71589404Y-58905325D01*
X71133171Y-58824879D01*
X70671644Y-58784500D01*
X70671643Y-58784500D01*
X70208357Y-58784500D01*
X70208356Y-58784500D01*
X69746829Y-58824879D01*
X69746827Y-58824879D01*
X69290595Y-58905325D01*
X69290584Y-58905327D01*
X69050768Y-58969586D01*
X68843086Y-59025235D01*
X68843079Y-59025237D01*
X68843074Y-59025239D01*
X68407743Y-59183685D01*
X67987867Y-59379476D01*
X67987852Y-59379484D01*
X67586649Y-59611119D01*
X67586634Y-59611128D01*
X67207133Y-59876858D01*
X66852239Y-60174651D01*
X66524651Y-60502239D01*
X66226858Y-60857133D01*
X65961128Y-61236634D01*
X65961119Y-61236649D01*
X65729484Y-61637852D01*
X65729476Y-61637867D01*
X65533685Y-62057743D01*
X65375239Y-62493074D01*
X65375236Y-62493084D01*
X65255327Y-62940584D01*
X65255325Y-62940595D01*
X65174879Y-63396827D01*
X65174879Y-63396829D01*
X65134500Y-63858355D01*
X63540000Y-63858355D01*
X63540000Y-56211153D01*
X65289500Y-56211153D01*
X65289500Y-56368846D01*
X65320261Y-56523489D01*
X65320264Y-56523501D01*
X65380602Y-56669172D01*
X65380609Y-56669185D01*
X65468210Y-56800288D01*
X65468213Y-56800292D01*
X65579707Y-56911786D01*
X65579711Y-56911789D01*
X65710814Y-56999390D01*
X65710827Y-56999397D01*
X65856498Y-57059735D01*
X65856503Y-57059737D01*
X66011153Y-57090499D01*
X66011156Y-57090500D01*
X66011158Y-57090500D01*
X66168844Y-57090500D01*
X66168845Y-57090499D01*
X66323497Y-57059737D01*
X66469179Y-56999394D01*
X66600289Y-56911789D01*
X66711789Y-56800289D01*
X66799394Y-56669179D01*
X66859737Y-56523497D01*
X66890500Y-56368842D01*
X66890500Y-56211158D01*
X66890500Y-56211155D01*
X66890499Y-56211153D01*
X66885527Y-56186158D01*
X66859737Y-56056503D01*
X66849380Y-56031498D01*
X66799397Y-55910827D01*
X66799390Y-55910814D01*
X66711789Y-55779711D01*
X66711786Y-55779707D01*
X66708176Y-55776097D01*
X66674691Y-55714774D01*
X66679675Y-55645082D01*
X66721547Y-55589149D01*
X66787011Y-55564732D01*
X66855284Y-55579584D01*
X66864748Y-55585314D01*
X66885814Y-55599390D01*
X66885827Y-55599397D01*
X66991603Y-55643210D01*
X67031503Y-55659737D01*
X67186153Y-55690499D01*
X67186156Y-55690500D01*
X67186158Y-55690500D01*
X67343844Y-55690500D01*
X67435400Y-55672288D01*
X67504992Y-55678515D01*
X67560169Y-55721378D01*
X67583414Y-55787267D01*
X67567346Y-55855264D01*
X67562695Y-55862795D01*
X67530608Y-55910816D01*
X67530602Y-55910827D01*
X67470264Y-56056498D01*
X67470261Y-56056510D01*
X67439500Y-56211153D01*
X67439500Y-56368846D01*
X67470261Y-56523489D01*
X67470264Y-56523501D01*
X67530602Y-56669172D01*
X67530609Y-56669185D01*
X67618210Y-56800288D01*
X67618213Y-56800292D01*
X67729707Y-56911786D01*
X67729711Y-56911789D01*
X67860814Y-56999390D01*
X67860827Y-56999397D01*
X68006498Y-57059735D01*
X68006503Y-57059737D01*
X68161153Y-57090499D01*
X68161156Y-57090500D01*
X68161158Y-57090500D01*
X68318844Y-57090500D01*
X68318845Y-57090499D01*
X68473497Y-57059737D01*
X68619179Y-56999394D01*
X68750289Y-56911789D01*
X68861789Y-56800289D01*
X68949394Y-56669179D01*
X69009737Y-56523497D01*
X69040500Y-56368842D01*
X69040500Y-56211158D01*
X69040500Y-56211155D01*
X69040499Y-56211153D01*
X69035527Y-56186158D01*
X69009737Y-56056503D01*
X68999380Y-56031498D01*
X68949397Y-55910827D01*
X68949395Y-55910823D01*
X68949394Y-55910821D01*
X68913368Y-55856904D01*
X68892490Y-55790227D01*
X68910974Y-55722847D01*
X68962953Y-55676156D01*
X69030055Y-55665282D01*
X69030093Y-55664903D01*
X69031526Y-55665044D01*
X69031923Y-55664980D01*
X69033543Y-55665242D01*
X69036156Y-55665500D01*
X69036158Y-55665500D01*
X69193844Y-55665500D01*
X69193845Y-55665499D01*
X69348497Y-55634737D01*
X69454609Y-55590783D01*
X69524079Y-55583315D01*
X69586558Y-55614590D01*
X69622210Y-55674679D01*
X69619716Y-55744504D01*
X69605164Y-55774236D01*
X69530609Y-55885814D01*
X69530602Y-55885827D01*
X69470264Y-56031498D01*
X69470261Y-56031510D01*
X69439500Y-56186153D01*
X69439500Y-56343846D01*
X69470261Y-56498489D01*
X69470264Y-56498501D01*
X69530602Y-56644172D01*
X69530609Y-56644185D01*
X69618210Y-56775288D01*
X69618213Y-56775292D01*
X69729707Y-56886786D01*
X69729711Y-56886789D01*
X69860814Y-56974390D01*
X69860827Y-56974397D01*
X70006498Y-57034735D01*
X70006503Y-57034737D01*
X70132176Y-57059735D01*
X70161153Y-57065499D01*
X70161156Y-57065500D01*
X70161158Y-57065500D01*
X70318844Y-57065500D01*
X70318845Y-57065499D01*
X70473497Y-57034737D01*
X70619179Y-56974394D01*
X70750289Y-56886789D01*
X70861789Y-56775289D01*
X70949394Y-56644179D01*
X71009737Y-56498497D01*
X71040500Y-56343842D01*
X71040500Y-56186158D01*
X71040500Y-56186155D01*
X71040499Y-56186153D01*
X71009738Y-56031510D01*
X71009737Y-56031503D01*
X70959752Y-55910827D01*
X70949397Y-55885827D01*
X70949390Y-55885814D01*
X70861789Y-55754711D01*
X70861786Y-55754707D01*
X70750292Y-55643213D01*
X70750288Y-55643210D01*
X70619185Y-55555609D01*
X70619172Y-55555602D01*
X70473501Y-55495264D01*
X70473489Y-55495261D01*
X70318845Y-55464500D01*
X70318842Y-55464500D01*
X70161158Y-55464500D01*
X70161155Y-55464500D01*
X70006510Y-55495261D01*
X70006503Y-55495263D01*
X69900388Y-55539216D01*
X69830919Y-55546684D01*
X69768440Y-55515408D01*
X69732788Y-55455319D01*
X69735283Y-55385493D01*
X69749830Y-55355770D01*
X69824394Y-55244179D01*
X69884737Y-55098497D01*
X69915500Y-54943842D01*
X69915500Y-54786158D01*
X69915500Y-54786155D01*
X69915499Y-54786153D01*
X69884738Y-54631510D01*
X69884737Y-54631503D01*
X69834752Y-54510827D01*
X69824397Y-54485827D01*
X69824395Y-54485823D01*
X69824394Y-54485821D01*
X69772931Y-54408802D01*
X69752054Y-54342126D01*
X69770538Y-54274746D01*
X69822517Y-54228055D01*
X69891487Y-54216879D01*
X69923486Y-54225351D01*
X69960060Y-54240500D01*
X70006503Y-54259737D01*
X70161153Y-54290499D01*
X70161156Y-54290500D01*
X70161158Y-54290500D01*
X70318844Y-54290500D01*
X70318845Y-54290499D01*
X70473497Y-54259737D01*
X70619179Y-54199394D01*
X70750289Y-54111789D01*
X70861789Y-54000289D01*
X70949394Y-53869179D01*
X71009737Y-53723497D01*
X71040500Y-53568842D01*
X71040500Y-53411158D01*
X71040500Y-53411155D01*
X71040499Y-53411153D01*
X71030553Y-53361153D01*
X71009737Y-53256503D01*
X71009735Y-53256498D01*
X70949397Y-53110827D01*
X70949390Y-53110814D01*
X70861789Y-52979711D01*
X70861786Y-52979707D01*
X70750292Y-52868213D01*
X70750288Y-52868210D01*
X70619185Y-52780609D01*
X70619172Y-52780602D01*
X70473501Y-52720264D01*
X70473489Y-52720261D01*
X70318845Y-52689500D01*
X70318842Y-52689500D01*
X70161158Y-52689500D01*
X70161155Y-52689500D01*
X70006510Y-52720261D01*
X70006498Y-52720264D01*
X69860827Y-52780602D01*
X69860814Y-52780609D01*
X69729711Y-52868210D01*
X69729707Y-52868213D01*
X69618213Y-52979707D01*
X69618210Y-52979711D01*
X69530609Y-53110814D01*
X69530602Y-53110827D01*
X69470264Y-53256498D01*
X69470261Y-53256510D01*
X69439500Y-53411153D01*
X69439500Y-53568846D01*
X69470261Y-53723489D01*
X69470264Y-53723501D01*
X69530602Y-53869172D01*
X69530609Y-53869185D01*
X69582067Y-53946196D01*
X69602945Y-54012873D01*
X69584461Y-54080253D01*
X69532482Y-54126944D01*
X69463512Y-54138120D01*
X69431514Y-54129649D01*
X69375874Y-54106603D01*
X69348497Y-54095263D01*
X69348493Y-54095262D01*
X69348489Y-54095261D01*
X69193845Y-54064500D01*
X69193842Y-54064500D01*
X69036158Y-54064500D01*
X69036153Y-54064500D01*
X68952011Y-54081237D01*
X68882419Y-54075010D01*
X68827242Y-54032147D01*
X68803998Y-53966257D01*
X68820066Y-53898260D01*
X68833585Y-53880541D01*
X68832924Y-53879999D01*
X68836786Y-53875292D01*
X68836789Y-53875289D01*
X68924394Y-53744179D01*
X68984737Y-53598497D01*
X69015500Y-53443842D01*
X69015500Y-53286158D01*
X69015500Y-53286155D01*
X69015499Y-53286153D01*
X68999657Y-53206510D01*
X68984737Y-53131503D01*
X68976170Y-53110821D01*
X68924397Y-52985827D01*
X68924390Y-52985814D01*
X68836789Y-52854711D01*
X68836786Y-52854707D01*
X68725292Y-52743213D01*
X68725288Y-52743210D01*
X68594185Y-52655609D01*
X68594172Y-52655602D01*
X68448501Y-52595264D01*
X68448489Y-52595261D01*
X68293845Y-52564500D01*
X68293842Y-52564500D01*
X68136158Y-52564500D01*
X68136155Y-52564500D01*
X67981510Y-52595261D01*
X67981498Y-52595264D01*
X67835827Y-52655602D01*
X67835814Y-52655609D01*
X67704711Y-52743210D01*
X67704707Y-52743213D01*
X67593213Y-52854707D01*
X67593210Y-52854711D01*
X67505609Y-52985814D01*
X67505602Y-52985827D01*
X67445264Y-53131498D01*
X67445261Y-53131510D01*
X67414500Y-53286153D01*
X67414500Y-53443846D01*
X67445261Y-53598489D01*
X67445264Y-53598501D01*
X67505602Y-53744172D01*
X67505609Y-53744185D01*
X67593210Y-53875288D01*
X67593213Y-53875292D01*
X67637576Y-53919655D01*
X67671061Y-53980978D01*
X67666077Y-54050670D01*
X67624205Y-54106603D01*
X67558741Y-54131020D01*
X67502445Y-54121898D01*
X67498501Y-54120264D01*
X67498489Y-54120261D01*
X67343845Y-54089500D01*
X67343842Y-54089500D01*
X67186158Y-54089500D01*
X67186155Y-54089500D01*
X67031510Y-54120261D01*
X67031498Y-54120264D01*
X66885827Y-54180602D01*
X66885814Y-54180609D01*
X66754711Y-54268210D01*
X66754707Y-54268213D01*
X66643213Y-54379707D01*
X66643210Y-54379711D01*
X66555609Y-54510814D01*
X66555602Y-54510827D01*
X66495264Y-54656498D01*
X66495261Y-54656510D01*
X66464500Y-54811153D01*
X66464500Y-54968846D01*
X66495261Y-55123489D01*
X66495264Y-55123501D01*
X66555602Y-55269172D01*
X66555609Y-55269185D01*
X66643210Y-55400288D01*
X66643213Y-55400292D01*
X66646823Y-55403902D01*
X66680308Y-55465225D01*
X66675324Y-55534917D01*
X66633452Y-55590850D01*
X66567988Y-55615267D01*
X66499715Y-55600415D01*
X66490252Y-55594686D01*
X66469183Y-55580608D01*
X66469172Y-55580602D01*
X66323501Y-55520264D01*
X66323489Y-55520261D01*
X66168845Y-55489500D01*
X66168842Y-55489500D01*
X66011158Y-55489500D01*
X66011155Y-55489500D01*
X65856510Y-55520261D01*
X65856498Y-55520264D01*
X65710827Y-55580602D01*
X65710814Y-55580609D01*
X65579711Y-55668210D01*
X65579707Y-55668213D01*
X65468213Y-55779707D01*
X65468210Y-55779711D01*
X65380609Y-55910814D01*
X65380602Y-55910827D01*
X65320264Y-56056498D01*
X65320261Y-56056510D01*
X65289500Y-56211153D01*
X63540000Y-56211153D01*
X63540000Y-53361153D01*
X65289500Y-53361153D01*
X65289500Y-53518846D01*
X65320261Y-53673489D01*
X65320264Y-53673501D01*
X65380602Y-53819172D01*
X65380609Y-53819185D01*
X65468210Y-53950288D01*
X65468213Y-53950292D01*
X65579707Y-54061786D01*
X65579711Y-54061789D01*
X65710814Y-54149390D01*
X65710827Y-54149397D01*
X65850074Y-54207074D01*
X65856503Y-54209737D01*
X66011153Y-54240499D01*
X66011156Y-54240500D01*
X66011158Y-54240500D01*
X66168844Y-54240500D01*
X66168845Y-54240499D01*
X66323497Y-54209737D01*
X66469179Y-54149394D01*
X66600289Y-54061789D01*
X66711789Y-53950289D01*
X66799394Y-53819179D01*
X66859737Y-53673497D01*
X66890500Y-53518842D01*
X66890500Y-53361158D01*
X66890500Y-53361155D01*
X66890499Y-53361153D01*
X66885868Y-53337870D01*
X66859737Y-53206503D01*
X66828674Y-53131510D01*
X66799397Y-53060827D01*
X66799390Y-53060814D01*
X66711789Y-52929711D01*
X66711786Y-52929707D01*
X66600292Y-52818213D01*
X66600288Y-52818210D01*
X66469185Y-52730609D01*
X66469172Y-52730602D01*
X66323501Y-52670264D01*
X66323489Y-52670261D01*
X66168845Y-52639500D01*
X66168842Y-52639500D01*
X66011158Y-52639500D01*
X66011155Y-52639500D01*
X65856510Y-52670261D01*
X65856498Y-52670264D01*
X65710827Y-52730602D01*
X65710814Y-52730609D01*
X65579711Y-52818210D01*
X65579707Y-52818213D01*
X65468213Y-52929707D01*
X65468210Y-52929711D01*
X65380609Y-53060814D01*
X65380602Y-53060827D01*
X65320264Y-53206498D01*
X65320261Y-53206510D01*
X65289500Y-53361153D01*
X63540000Y-53361153D01*
X63540000Y-49811153D01*
X74539500Y-49811153D01*
X74539500Y-49968846D01*
X74570261Y-50123489D01*
X74570264Y-50123501D01*
X74630602Y-50269172D01*
X74630609Y-50269185D01*
X74718210Y-50400288D01*
X74718213Y-50400292D01*
X74829708Y-50511787D01*
X74829711Y-50511789D01*
X74865362Y-50535610D01*
X74910166Y-50589221D01*
X74918875Y-50658546D01*
X74899573Y-50707602D01*
X74830612Y-50810809D01*
X74830602Y-50810827D01*
X74770264Y-50956498D01*
X74770261Y-50956510D01*
X74739500Y-51111153D01*
X74739500Y-51268846D01*
X74770261Y-51423489D01*
X74770264Y-51423501D01*
X74830602Y-51569172D01*
X74830609Y-51569185D01*
X74918210Y-51700288D01*
X74918213Y-51700292D01*
X75029707Y-51811786D01*
X75029711Y-51811789D01*
X75160814Y-51899390D01*
X75160827Y-51899397D01*
X75306498Y-51959735D01*
X75306503Y-51959737D01*
X75461153Y-51990499D01*
X75461156Y-51990500D01*
X75461158Y-51990500D01*
X75618844Y-51990500D01*
X75618845Y-51990499D01*
X75773497Y-51959737D01*
X75919179Y-51899394D01*
X76050289Y-51811789D01*
X76161789Y-51700289D01*
X76249394Y-51569179D01*
X76309737Y-51423497D01*
X76340500Y-51268842D01*
X76340500Y-51111158D01*
X76340500Y-51111155D01*
X76340499Y-51111153D01*
X76326445Y-51040498D01*
X76309737Y-50956503D01*
X76306790Y-50949389D01*
X76249397Y-50810827D01*
X76249390Y-50810814D01*
X76161789Y-50679711D01*
X76161786Y-50679707D01*
X76050291Y-50568212D01*
X76014638Y-50544390D01*
X76008831Y-50537441D01*
X76000664Y-50533534D01*
X75986778Y-50511053D01*
X75969832Y-50490777D01*
X75968703Y-50481793D01*
X75963946Y-50474091D01*
X75964417Y-50447670D01*
X75961125Y-50421452D01*
X75965065Y-50411437D01*
X75965194Y-50404232D01*
X75980427Y-50372395D01*
X76000582Y-50342232D01*
X76054195Y-50297427D01*
X76123520Y-50288721D01*
X76186547Y-50318877D01*
X76191364Y-50323443D01*
X76279707Y-50411786D01*
X76279711Y-50411789D01*
X76410814Y-50499390D01*
X76410827Y-50499397D01*
X76556498Y-50559735D01*
X76556503Y-50559737D01*
X76704728Y-50589221D01*
X76711153Y-50590499D01*
X76711156Y-50590500D01*
X76711158Y-50590500D01*
X76868843Y-50590500D01*
X76883679Y-50587548D01*
X76922904Y-50579746D01*
X76992495Y-50585973D01*
X77047673Y-50628835D01*
X77070918Y-50694724D01*
X77054851Y-50762721D01*
X77044618Y-50777603D01*
X76955609Y-50910814D01*
X76955602Y-50910827D01*
X76895264Y-51056498D01*
X76895261Y-51056510D01*
X76864500Y-51211153D01*
X76864500Y-51368846D01*
X76895261Y-51523489D01*
X76895264Y-51523501D01*
X76955602Y-51669172D01*
X76955609Y-51669185D01*
X77043210Y-51800288D01*
X77043213Y-51800292D01*
X77154707Y-51911786D01*
X77154711Y-51911789D01*
X77285814Y-51999390D01*
X77285827Y-51999397D01*
X77431498Y-52059735D01*
X77431503Y-52059737D01*
X77586153Y-52090499D01*
X77586156Y-52090500D01*
X77586158Y-52090500D01*
X77743844Y-52090500D01*
X77743845Y-52090499D01*
X77898497Y-52059737D01*
X78044179Y-51999394D01*
X78175289Y-51911789D01*
X78286789Y-51800289D01*
X78374394Y-51669179D01*
X78434737Y-51523497D01*
X78465500Y-51368842D01*
X78465500Y-51211158D01*
X78465500Y-51211155D01*
X78465499Y-51211153D01*
X78434737Y-51056503D01*
X78415955Y-51011158D01*
X78374397Y-50910827D01*
X78374390Y-50910814D01*
X78283405Y-50774646D01*
X78284462Y-50773939D01*
X78259736Y-50715711D01*
X78271531Y-50646844D01*
X78318686Y-50595287D01*
X78386230Y-50577408D01*
X78407092Y-50579745D01*
X78440707Y-50586432D01*
X78461157Y-50590500D01*
X78461158Y-50590500D01*
X78618844Y-50590500D01*
X78618845Y-50590499D01*
X78773497Y-50559737D01*
X78889259Y-50511787D01*
X78919172Y-50499397D01*
X78919172Y-50499396D01*
X78919179Y-50499394D01*
X79050289Y-50411789D01*
X79161789Y-50300289D01*
X79180553Y-50272205D01*
X79196718Y-50258696D01*
X79209345Y-50241829D01*
X79222988Y-50236740D01*
X79234162Y-50227402D01*
X79255066Y-50224775D01*
X79274809Y-50217412D01*
X79289037Y-50220507D01*
X79303486Y-50218692D01*
X79322493Y-50227785D01*
X79343082Y-50232264D01*
X79362958Y-50247143D01*
X79366515Y-50248845D01*
X79371336Y-50253415D01*
X79420240Y-50302319D01*
X79453725Y-50363642D01*
X79448741Y-50433334D01*
X79420240Y-50477681D01*
X79318213Y-50579707D01*
X79318210Y-50579711D01*
X79230609Y-50710814D01*
X79230602Y-50710827D01*
X79170264Y-50856498D01*
X79170261Y-50856510D01*
X79139500Y-51011153D01*
X79139500Y-51168846D01*
X79170261Y-51323489D01*
X79170264Y-51323501D01*
X79230602Y-51469172D01*
X79230609Y-51469185D01*
X79318210Y-51600288D01*
X79318213Y-51600292D01*
X79429707Y-51711786D01*
X79429711Y-51711789D01*
X79560814Y-51799390D01*
X79560827Y-51799397D01*
X79706498Y-51859735D01*
X79706503Y-51859737D01*
X79861153Y-51890499D01*
X79861156Y-51890500D01*
X79861158Y-51890500D01*
X80018844Y-51890500D01*
X80018845Y-51890499D01*
X80173497Y-51859737D01*
X80319179Y-51799394D01*
X80450289Y-51711789D01*
X80561789Y-51600289D01*
X80649394Y-51469179D01*
X80709737Y-51323497D01*
X80740500Y-51168842D01*
X80740500Y-51011158D01*
X80740500Y-51011155D01*
X80711029Y-50862998D01*
X80711028Y-50862995D01*
X80710788Y-50861788D01*
X80709737Y-50856503D01*
X80703786Y-50842135D01*
X86239500Y-50842135D01*
X86239500Y-53337870D01*
X86239501Y-53337876D01*
X86245908Y-53397483D01*
X86296202Y-53532328D01*
X86296206Y-53532335D01*
X86382452Y-53647544D01*
X86382455Y-53647547D01*
X86497664Y-53733793D01*
X86497671Y-53733797D01*
X86632517Y-53784091D01*
X86632516Y-53784091D01*
X86639444Y-53784835D01*
X86692127Y-53790500D01*
X89187872Y-53790499D01*
X89247483Y-53784091D01*
X89382331Y-53733796D01*
X89497546Y-53647546D01*
X89583796Y-53532331D01*
X89634091Y-53397483D01*
X89640500Y-53337873D01*
X89640499Y-50842135D01*
X101239500Y-50842135D01*
X101239500Y-53337870D01*
X101239501Y-53337876D01*
X101245908Y-53397483D01*
X101296202Y-53532328D01*
X101296206Y-53532335D01*
X101382452Y-53647544D01*
X101382455Y-53647547D01*
X101497664Y-53733793D01*
X101497671Y-53733797D01*
X101632517Y-53784091D01*
X101632516Y-53784091D01*
X101639444Y-53784835D01*
X101692127Y-53790500D01*
X104187872Y-53790499D01*
X104247483Y-53784091D01*
X104382331Y-53733796D01*
X104497546Y-53647546D01*
X104583796Y-53532331D01*
X104634091Y-53397483D01*
X104640500Y-53337873D01*
X104640499Y-50842135D01*
X116239500Y-50842135D01*
X116239500Y-53337870D01*
X116239501Y-53337876D01*
X116245908Y-53397483D01*
X116296202Y-53532328D01*
X116296206Y-53532335D01*
X116382452Y-53647544D01*
X116382455Y-53647547D01*
X116497664Y-53733793D01*
X116497671Y-53733797D01*
X116632517Y-53784091D01*
X116632516Y-53784091D01*
X116639444Y-53784835D01*
X116692127Y-53790500D01*
X119187872Y-53790499D01*
X119247483Y-53784091D01*
X119382331Y-53733796D01*
X119497546Y-53647546D01*
X119583796Y-53532331D01*
X119634091Y-53397483D01*
X119640500Y-53337873D01*
X119640499Y-50842128D01*
X119634091Y-50782517D01*
X119633044Y-50779711D01*
X119583797Y-50647671D01*
X119583793Y-50647664D01*
X119497547Y-50532455D01*
X119497544Y-50532452D01*
X119382335Y-50446206D01*
X119382328Y-50446202D01*
X119247482Y-50395908D01*
X119247483Y-50395908D01*
X119187883Y-50389501D01*
X119187881Y-50389500D01*
X119187873Y-50389500D01*
X119187864Y-50389500D01*
X116692129Y-50389500D01*
X116692123Y-50389501D01*
X116632516Y-50395908D01*
X116497671Y-50446202D01*
X116497664Y-50446206D01*
X116382455Y-50532452D01*
X116382452Y-50532455D01*
X116296206Y-50647664D01*
X116296202Y-50647671D01*
X116245908Y-50782517D01*
X116242865Y-50810827D01*
X116239501Y-50842123D01*
X116239500Y-50842135D01*
X104640499Y-50842135D01*
X104640499Y-50842128D01*
X104634091Y-50782517D01*
X104633044Y-50779711D01*
X104583797Y-50647671D01*
X104583793Y-50647664D01*
X104497547Y-50532455D01*
X104497544Y-50532452D01*
X104382335Y-50446206D01*
X104382328Y-50446202D01*
X104247482Y-50395908D01*
X104247483Y-50395908D01*
X104187883Y-50389501D01*
X104187881Y-50389500D01*
X104187873Y-50389500D01*
X104187864Y-50389500D01*
X101692129Y-50389500D01*
X101692123Y-50389501D01*
X101632516Y-50395908D01*
X101497671Y-50446202D01*
X101497664Y-50446206D01*
X101382455Y-50532452D01*
X101382452Y-50532455D01*
X101296206Y-50647664D01*
X101296202Y-50647671D01*
X101245908Y-50782517D01*
X101242865Y-50810827D01*
X101239501Y-50842123D01*
X101239500Y-50842135D01*
X89640499Y-50842135D01*
X89640499Y-50842128D01*
X89634091Y-50782517D01*
X89633044Y-50779711D01*
X89583797Y-50647671D01*
X89583793Y-50647664D01*
X89497547Y-50532455D01*
X89497544Y-50532452D01*
X89382335Y-50446206D01*
X89382328Y-50446202D01*
X89247482Y-50395908D01*
X89247483Y-50395908D01*
X89187883Y-50389501D01*
X89187881Y-50389500D01*
X89187873Y-50389500D01*
X89187864Y-50389500D01*
X86692129Y-50389500D01*
X86692123Y-50389501D01*
X86632516Y-50395908D01*
X86497671Y-50446202D01*
X86497664Y-50446206D01*
X86382455Y-50532452D01*
X86382452Y-50532455D01*
X86296206Y-50647664D01*
X86296202Y-50647671D01*
X86245908Y-50782517D01*
X86242865Y-50810827D01*
X86239501Y-50842123D01*
X86239500Y-50842135D01*
X80703786Y-50842135D01*
X80685136Y-50797111D01*
X80649397Y-50710827D01*
X80649390Y-50710814D01*
X80561789Y-50579711D01*
X80561786Y-50579707D01*
X80459760Y-50477681D01*
X80426275Y-50416358D01*
X80431259Y-50346666D01*
X80459760Y-50302319D01*
X80561786Y-50200292D01*
X80561789Y-50200289D01*
X80587939Y-50161152D01*
X133608374Y-50161152D01*
X133608374Y-50318845D01*
X133639135Y-50473488D01*
X133639138Y-50473500D01*
X133699476Y-50619171D01*
X133699483Y-50619184D01*
X133787084Y-50750287D01*
X133787087Y-50750291D01*
X133898581Y-50861785D01*
X133898585Y-50861788D01*
X134029688Y-50949389D01*
X134029701Y-50949396D01*
X134175372Y-51009734D01*
X134175377Y-51009736D01*
X134330027Y-51040498D01*
X134330030Y-51040499D01*
X134330032Y-51040499D01*
X134487718Y-51040499D01*
X134487719Y-51040498D01*
X134642371Y-51009736D01*
X134788053Y-50949393D01*
X134919163Y-50861788D01*
X135030663Y-50750288D01*
X135118268Y-50619178D01*
X135178611Y-50473496D01*
X135209374Y-50318841D01*
X135209374Y-50161157D01*
X135209374Y-50161154D01*
X135209373Y-50161152D01*
X135194459Y-50086174D01*
X135178611Y-50006502D01*
X135178609Y-50006497D01*
X135118271Y-49860826D01*
X135118264Y-49860813D01*
X135030663Y-49729710D01*
X135030660Y-49729706D01*
X134919166Y-49618212D01*
X134919162Y-49618209D01*
X134788059Y-49530608D01*
X134788046Y-49530601D01*
X134642375Y-49470263D01*
X134642363Y-49470260D01*
X134487719Y-49439499D01*
X134487716Y-49439499D01*
X134330032Y-49439499D01*
X134330029Y-49439499D01*
X134175384Y-49470260D01*
X134175372Y-49470263D01*
X134029701Y-49530601D01*
X134029688Y-49530608D01*
X133898585Y-49618209D01*
X133898581Y-49618212D01*
X133787087Y-49729706D01*
X133787084Y-49729710D01*
X133699483Y-49860813D01*
X133699476Y-49860826D01*
X133639138Y-50006497D01*
X133639135Y-50006509D01*
X133608374Y-50161152D01*
X80587939Y-50161152D01*
X80613105Y-50123489D01*
X80638039Y-50086174D01*
X80649390Y-50069185D01*
X80649390Y-50069184D01*
X80649394Y-50069179D01*
X80709737Y-49923497D01*
X80740500Y-49768842D01*
X80740500Y-49611158D01*
X80740500Y-49611155D01*
X80740499Y-49611153D01*
X80738031Y-49598747D01*
X80709737Y-49456503D01*
X80706791Y-49449390D01*
X80649397Y-49310827D01*
X80649390Y-49310814D01*
X80561789Y-49179711D01*
X80561786Y-49179707D01*
X80450292Y-49068213D01*
X80450288Y-49068210D01*
X80319185Y-48980609D01*
X80319175Y-48980604D01*
X80296694Y-48971292D01*
X80242290Y-48927450D01*
X80220226Y-48861156D01*
X80237506Y-48793457D01*
X80275256Y-48753629D01*
X80375289Y-48686789D01*
X80486786Y-48575292D01*
X80486789Y-48575289D01*
X80574394Y-48444179D01*
X80634737Y-48298497D01*
X80665500Y-48143842D01*
X80665500Y-47986158D01*
X80665500Y-47986155D01*
X80665499Y-47986153D01*
X80637168Y-47843726D01*
X80634737Y-47831503D01*
X80617753Y-47790499D01*
X80574397Y-47685827D01*
X80574390Y-47685814D01*
X80486789Y-47554711D01*
X80486786Y-47554707D01*
X80375292Y-47443213D01*
X80375288Y-47443210D01*
X80244185Y-47355609D01*
X80244172Y-47355602D01*
X80098501Y-47295264D01*
X80098489Y-47295261D01*
X79943845Y-47264500D01*
X79943842Y-47264500D01*
X79786158Y-47264500D01*
X79786155Y-47264500D01*
X79631510Y-47295261D01*
X79631498Y-47295264D01*
X79485827Y-47355602D01*
X79485814Y-47355609D01*
X79354711Y-47443210D01*
X79354707Y-47443213D01*
X79243213Y-47554707D01*
X79239347Y-47559419D01*
X79237952Y-47558274D01*
X79190848Y-47597632D01*
X79121522Y-47606331D01*
X79058498Y-47576169D01*
X79053690Y-47571611D01*
X78950292Y-47468213D01*
X78950288Y-47468210D01*
X78819185Y-47380609D01*
X78819172Y-47380602D01*
X78673501Y-47320264D01*
X78673489Y-47320261D01*
X78518845Y-47289500D01*
X78518842Y-47289500D01*
X78361158Y-47289500D01*
X78361155Y-47289500D01*
X78206510Y-47320261D01*
X78206498Y-47320264D01*
X78060827Y-47380602D01*
X78060814Y-47380609D01*
X77929711Y-47468210D01*
X77929707Y-47468213D01*
X77818213Y-47579707D01*
X77793102Y-47617289D01*
X77739489Y-47662093D01*
X77670164Y-47670800D01*
X77607137Y-47640645D01*
X77586898Y-47617289D01*
X77561786Y-47579707D01*
X77450292Y-47468213D01*
X77450288Y-47468210D01*
X77319185Y-47380609D01*
X77319172Y-47380602D01*
X77173501Y-47320264D01*
X77173489Y-47320261D01*
X77018845Y-47289500D01*
X77018842Y-47289500D01*
X76861158Y-47289500D01*
X76861155Y-47289500D01*
X76706510Y-47320261D01*
X76706498Y-47320264D01*
X76560827Y-47380602D01*
X76560814Y-47380609D01*
X76429711Y-47468210D01*
X76429707Y-47468213D01*
X76318213Y-47579707D01*
X76318210Y-47579711D01*
X76230609Y-47710814D01*
X76230602Y-47710827D01*
X76170264Y-47856498D01*
X76170261Y-47856510D01*
X76139500Y-48011153D01*
X76139500Y-48168846D01*
X76170261Y-48323489D01*
X76170264Y-48323501D01*
X76230602Y-48469172D01*
X76230609Y-48469185D01*
X76318210Y-48600288D01*
X76318213Y-48600292D01*
X76429707Y-48711786D01*
X76429711Y-48711789D01*
X76565886Y-48802779D01*
X76565189Y-48803820D01*
X76610365Y-48848195D01*
X76625827Y-48916333D01*
X76601997Y-48982013D01*
X76549522Y-49023154D01*
X76410823Y-49080604D01*
X76410814Y-49080609D01*
X76279711Y-49168210D01*
X76279707Y-49168213D01*
X76168213Y-49279707D01*
X76168208Y-49279714D01*
X76129417Y-49337767D01*
X76075804Y-49382572D01*
X76006479Y-49391278D01*
X75943452Y-49361122D01*
X75938635Y-49356556D01*
X75850292Y-49268213D01*
X75850288Y-49268210D01*
X75719185Y-49180609D01*
X75719172Y-49180602D01*
X75573501Y-49120264D01*
X75573489Y-49120261D01*
X75418845Y-49089500D01*
X75418842Y-49089500D01*
X75261158Y-49089500D01*
X75261155Y-49089500D01*
X75106510Y-49120261D01*
X75106498Y-49120264D01*
X74960827Y-49180602D01*
X74960814Y-49180609D01*
X74829711Y-49268210D01*
X74829707Y-49268213D01*
X74718213Y-49379707D01*
X74718210Y-49379711D01*
X74630609Y-49510814D01*
X74630602Y-49510827D01*
X74570264Y-49656498D01*
X74570261Y-49656510D01*
X74539500Y-49811153D01*
X63540000Y-49811153D01*
X63540000Y-46978549D01*
X86239500Y-46978549D01*
X86239500Y-47201450D01*
X86239501Y-47201466D01*
X86268594Y-47422452D01*
X86268595Y-47422457D01*
X86268596Y-47422463D01*
X86320799Y-47617289D01*
X86326290Y-47637780D01*
X86326293Y-47637790D01*
X86406532Y-47831503D01*
X86411595Y-47843726D01*
X86523052Y-48036774D01*
X86523057Y-48036780D01*
X86523058Y-48036782D01*
X86658751Y-48213622D01*
X86658757Y-48213629D01*
X86816370Y-48371242D01*
X86816376Y-48371247D01*
X86993226Y-48506948D01*
X87186274Y-48618405D01*
X87392219Y-48703710D01*
X87607537Y-48761404D01*
X87828543Y-48790500D01*
X87828550Y-48790500D01*
X88051450Y-48790500D01*
X88051457Y-48790500D01*
X88272463Y-48761404D01*
X88487781Y-48703710D01*
X88693726Y-48618405D01*
X88886774Y-48506948D01*
X89063624Y-48371247D01*
X89221247Y-48213624D01*
X89356948Y-48036774D01*
X89468405Y-47843726D01*
X89553710Y-47637781D01*
X89611404Y-47422463D01*
X89640500Y-47201457D01*
X89640500Y-46978549D01*
X101239500Y-46978549D01*
X101239500Y-47201450D01*
X101239501Y-47201466D01*
X101268594Y-47422452D01*
X101268595Y-47422457D01*
X101268596Y-47422463D01*
X101320799Y-47617289D01*
X101326290Y-47637780D01*
X101326293Y-47637790D01*
X101406532Y-47831503D01*
X101411595Y-47843726D01*
X101523052Y-48036774D01*
X101523057Y-48036780D01*
X101523058Y-48036782D01*
X101658751Y-48213622D01*
X101658757Y-48213629D01*
X101816370Y-48371242D01*
X101816376Y-48371247D01*
X101993226Y-48506948D01*
X102186274Y-48618405D01*
X102392219Y-48703710D01*
X102607537Y-48761404D01*
X102828543Y-48790500D01*
X102828550Y-48790500D01*
X103051450Y-48790500D01*
X103051457Y-48790500D01*
X103272463Y-48761404D01*
X103487781Y-48703710D01*
X103693726Y-48618405D01*
X103886774Y-48506948D01*
X104063624Y-48371247D01*
X104221247Y-48213624D01*
X104356948Y-48036774D01*
X104468405Y-47843726D01*
X104553710Y-47637781D01*
X104611404Y-47422463D01*
X104640500Y-47201457D01*
X104640500Y-46978549D01*
X116239500Y-46978549D01*
X116239500Y-47201450D01*
X116239501Y-47201466D01*
X116268594Y-47422452D01*
X116268595Y-47422457D01*
X116268596Y-47422463D01*
X116320799Y-47617289D01*
X116326290Y-47637780D01*
X116326293Y-47637790D01*
X116406532Y-47831503D01*
X116411595Y-47843726D01*
X116523052Y-48036774D01*
X116523057Y-48036780D01*
X116523058Y-48036782D01*
X116658751Y-48213622D01*
X116658757Y-48213629D01*
X116816370Y-48371242D01*
X116816376Y-48371247D01*
X116993226Y-48506948D01*
X117186274Y-48618405D01*
X117392219Y-48703710D01*
X117607537Y-48761404D01*
X117828543Y-48790500D01*
X117828550Y-48790500D01*
X118051450Y-48790500D01*
X118051457Y-48790500D01*
X118272463Y-48761404D01*
X118487781Y-48703710D01*
X118693726Y-48618405D01*
X118886774Y-48506948D01*
X119063624Y-48371247D01*
X119221247Y-48213624D01*
X119356948Y-48036774D01*
X119468405Y-47843726D01*
X119553710Y-47637781D01*
X119611404Y-47422463D01*
X119640500Y-47201457D01*
X119640500Y-46978543D01*
X119611404Y-46757537D01*
X119553710Y-46542219D01*
X119535601Y-46498501D01*
X119502607Y-46418846D01*
X119468405Y-46336274D01*
X119356948Y-46143226D01*
X119271226Y-46031510D01*
X119221248Y-45966377D01*
X119221242Y-45966370D01*
X119063629Y-45808757D01*
X119063622Y-45808751D01*
X118886782Y-45673058D01*
X118886780Y-45673057D01*
X118886774Y-45673052D01*
X118693726Y-45561595D01*
X118693722Y-45561593D01*
X118487790Y-45476293D01*
X118487783Y-45476291D01*
X118487781Y-45476290D01*
X118272463Y-45418596D01*
X118272457Y-45418595D01*
X118272452Y-45418594D01*
X118051466Y-45389501D01*
X118051463Y-45389500D01*
X118051457Y-45389500D01*
X117828543Y-45389500D01*
X117828537Y-45389500D01*
X117828533Y-45389501D01*
X117607547Y-45418594D01*
X117607540Y-45418595D01*
X117607537Y-45418596D01*
X117418784Y-45469172D01*
X117392219Y-45476290D01*
X117392209Y-45476293D01*
X117186277Y-45561593D01*
X117186273Y-45561595D01*
X116993226Y-45673052D01*
X116993217Y-45673058D01*
X116816377Y-45808751D01*
X116816370Y-45808757D01*
X116658757Y-45966370D01*
X116658751Y-45966377D01*
X116523058Y-46143217D01*
X116523052Y-46143226D01*
X116411595Y-46336273D01*
X116411593Y-46336277D01*
X116326293Y-46542209D01*
X116326290Y-46542219D01*
X116268875Y-46756498D01*
X116268597Y-46757534D01*
X116268594Y-46757547D01*
X116239501Y-46978533D01*
X116239500Y-46978549D01*
X104640500Y-46978549D01*
X104640500Y-46978543D01*
X104611404Y-46757537D01*
X104553710Y-46542219D01*
X104535601Y-46498501D01*
X104502607Y-46418846D01*
X104468405Y-46336274D01*
X104356948Y-46143226D01*
X104271226Y-46031510D01*
X104221248Y-45966377D01*
X104221242Y-45966370D01*
X104063629Y-45808757D01*
X104063622Y-45808751D01*
X103886782Y-45673058D01*
X103886780Y-45673057D01*
X103886774Y-45673052D01*
X103693726Y-45561595D01*
X103693722Y-45561593D01*
X103487790Y-45476293D01*
X103487783Y-45476291D01*
X103487781Y-45476290D01*
X103272463Y-45418596D01*
X103272457Y-45418595D01*
X103272452Y-45418594D01*
X103051466Y-45389501D01*
X103051463Y-45389500D01*
X103051457Y-45389500D01*
X102828543Y-45389500D01*
X102828537Y-45389500D01*
X102828533Y-45389501D01*
X102607547Y-45418594D01*
X102607540Y-45418595D01*
X102607537Y-45418596D01*
X102418784Y-45469172D01*
X102392219Y-45476290D01*
X102392209Y-45476293D01*
X102186277Y-45561593D01*
X102186273Y-45561595D01*
X101993226Y-45673052D01*
X101993217Y-45673058D01*
X101816377Y-45808751D01*
X101816370Y-45808757D01*
X101658757Y-45966370D01*
X101658751Y-45966377D01*
X101523058Y-46143217D01*
X101523052Y-46143226D01*
X101411595Y-46336273D01*
X101411593Y-46336277D01*
X101326293Y-46542209D01*
X101326290Y-46542219D01*
X101268875Y-46756498D01*
X101268597Y-46757534D01*
X101268594Y-46757547D01*
X101239501Y-46978533D01*
X101239500Y-46978549D01*
X89640500Y-46978549D01*
X89640500Y-46978543D01*
X89611404Y-46757537D01*
X89553710Y-46542219D01*
X89535601Y-46498501D01*
X89502607Y-46418846D01*
X89468405Y-46336274D01*
X89356948Y-46143226D01*
X89271226Y-46031510D01*
X89221248Y-45966377D01*
X89221242Y-45966370D01*
X89063629Y-45808757D01*
X89063622Y-45808751D01*
X88886782Y-45673058D01*
X88886780Y-45673057D01*
X88886774Y-45673052D01*
X88693726Y-45561595D01*
X88693722Y-45561593D01*
X88487790Y-45476293D01*
X88487783Y-45476291D01*
X88487781Y-45476290D01*
X88272463Y-45418596D01*
X88272457Y-45418595D01*
X88272452Y-45418594D01*
X88051466Y-45389501D01*
X88051463Y-45389500D01*
X88051457Y-45389500D01*
X87828543Y-45389500D01*
X87828537Y-45389500D01*
X87828533Y-45389501D01*
X87607547Y-45418594D01*
X87607540Y-45418595D01*
X87607537Y-45418596D01*
X87418784Y-45469172D01*
X87392219Y-45476290D01*
X87392209Y-45476293D01*
X87186277Y-45561593D01*
X87186273Y-45561595D01*
X86993226Y-45673052D01*
X86993217Y-45673058D01*
X86816377Y-45808751D01*
X86816370Y-45808757D01*
X86658757Y-45966370D01*
X86658751Y-45966377D01*
X86523058Y-46143217D01*
X86523052Y-46143226D01*
X86411595Y-46336273D01*
X86411593Y-46336277D01*
X86326293Y-46542209D01*
X86326290Y-46542219D01*
X86268875Y-46756498D01*
X86268597Y-46757534D01*
X86268594Y-46757547D01*
X86239501Y-46978533D01*
X86239500Y-46978549D01*
X63540000Y-46978549D01*
X63540000Y-43064000D01*
X63559685Y-42996961D01*
X63612489Y-42951206D01*
X63664000Y-42940000D01*
X126018305Y-42940000D01*
X126029118Y-42943175D01*
G37*
G04 #@! TD.AperFunction*
G04 #@! TA.AperFunction,Conductor*
G36*
X207415000Y-96629599D02*
G01*
X207411594Y-96641197D01*
X207412727Y-96653231D01*
X207401933Y-96674098D01*
X207395315Y-96696638D01*
X207385382Y-96706096D01*
X207380627Y-96715290D01*
X207363197Y-96727221D01*
X207352855Y-96737070D01*
X207345881Y-96741083D01*
X207310821Y-96755606D01*
X207249757Y-96796407D01*
X207246172Y-96798471D01*
X207216073Y-96805729D01*
X207186530Y-96814980D01*
X207184317Y-96815000D01*
X205715000Y-96815000D01*
X205715000Y-98695749D01*
X205712617Y-98719941D01*
X205689500Y-98836155D01*
X205689500Y-98836158D01*
X205689500Y-98993842D01*
X205689500Y-98993844D01*
X205689499Y-98993844D01*
X205712617Y-99110057D01*
X205715000Y-99134249D01*
X205715000Y-100316000D01*
X205695315Y-100383039D01*
X205642511Y-100428794D01*
X205591000Y-100440000D01*
X202914000Y-100440000D01*
X202846961Y-100420315D01*
X202801206Y-100367511D01*
X202790000Y-100316000D01*
X202790000Y-90340000D01*
X207415000Y-90340000D01*
X207415000Y-96629599D01*
G37*
G04 #@! TD.AperFunction*
M02*
