G04 #@! TF.GenerationSoftware,KiCad,Pcbnew,9.0.0*
G04 #@! TF.CreationDate,2025-04-29T18:09:41-05:00*
G04 #@! TF.ProjectId,Mainboard,4d61696e-626f-4617-9264-2e6b69636164,rev?*
G04 #@! TF.SameCoordinates,Original*
G04 #@! TF.FileFunction,Other,User*
%FSLAX46Y46*%
G04 Gerber Fmt 4.6, Leading zero omitted, Abs format (unit mm)*
G04 Created by KiCad (PCBNEW 9.0.0) date 2025-04-29 18:09:41*
%MOMM*%
%LPD*%
G01*
G04 APERTURE LIST*
%ADD10C,0.050000*%
%ADD11C,0.100000*%
%ADD12C,0.152400*%
G04 APERTURE END LIST*
D10*
G04 #@! TO.C,J6*
X168200000Y-56725000D02*
X168200000Y-62875000D01*
X168200000Y-62875000D02*
X171800000Y-62875000D01*
X171800000Y-56725000D02*
X168200000Y-56725000D01*
X171800000Y-62875000D02*
X171800000Y-56725000D01*
G04 #@! TO.C,A1*
X193545000Y-140135000D02*
X193545000Y-119315000D01*
X193545000Y-140135000D02*
X177805000Y-140135000D01*
X177805000Y-119315000D02*
X193545000Y-119315000D01*
X177805000Y-119315000D02*
X177805000Y-140135000D01*
G04 #@! TO.C,C38*
X197315000Y-131292000D02*
X195355000Y-131292000D01*
X197315000Y-127892000D02*
X197315000Y-131292000D01*
X195355000Y-131292000D02*
X195355000Y-127892000D01*
X195355000Y-127892000D02*
X197315000Y-127892000D01*
G04 #@! TO.C,C80*
X189200000Y-144375000D02*
G75*
G02*
X182400000Y-144375000I-3400000J0D01*
G01*
X182400000Y-144375000D02*
G75*
G02*
X189200000Y-144375000I3400000J0D01*
G01*
G04 #@! TO.C,C45*
X190405000Y-49045000D02*
X193805000Y-49045000D01*
X190405000Y-51005000D02*
X190405000Y-49045000D01*
X193805000Y-49045000D02*
X193805000Y-51005000D01*
X193805000Y-51005000D02*
X190405000Y-51005000D01*
G04 #@! TO.C,H1*
X222783274Y-154833274D02*
G75*
G02*
X217883274Y-154833274I-2450000J0D01*
G01*
X217883274Y-154833274D02*
G75*
G02*
X222783274Y-154833274I2450000J0D01*
G01*
G04 #@! TO.C,U3*
X142327000Y-93100000D02*
X142327000Y-85700000D01*
X142327000Y-85700000D02*
X136927000Y-85700000D01*
X136927000Y-93100000D02*
X142327000Y-93100000D01*
X136927000Y-85700000D02*
X136927000Y-93100000D01*
G04 #@! TO.C,R51*
X158885000Y-84011000D02*
X155525000Y-84011000D01*
X158885000Y-82111000D02*
X158885000Y-84011000D01*
X155525000Y-84011000D02*
X155525000Y-82111000D01*
X155525000Y-82111000D02*
X158885000Y-82111000D01*
G04 #@! TO.C,U12*
X177795000Y-102855000D02*
X177795000Y-97455000D01*
X177795000Y-97455000D02*
X170395000Y-97455000D01*
X170395000Y-102855000D02*
X177795000Y-102855000D01*
X170395000Y-97455000D02*
X170395000Y-102855000D01*
G04 #@! TO.C,R34*
X148577000Y-64930000D02*
X146677000Y-64930000D01*
X148577000Y-61570000D02*
X148577000Y-64930000D01*
X146677000Y-64930000D02*
X146677000Y-61570000D01*
X146677000Y-61570000D02*
X148577000Y-61570000D01*
G04 #@! TO.C,JP12*
X215925000Y-83162500D02*
X215925000Y-80662500D01*
X215925000Y-83162500D02*
X212625000Y-83162500D01*
X212625000Y-80662500D02*
X215925000Y-80662500D01*
X212625000Y-80662500D02*
X212625000Y-83162500D01*
G04 #@! TO.C,C36*
X184250100Y-94135000D02*
X180850100Y-94135000D01*
X184250100Y-92175000D02*
X184250100Y-94135000D01*
X180850100Y-94135000D02*
X180850100Y-92175000D01*
X180850100Y-92175000D02*
X184250100Y-92175000D01*
G04 #@! TO.C,R54*
X177180000Y-84231000D02*
X173820000Y-84231000D01*
X177180000Y-82331000D02*
X177180000Y-84231000D01*
X173820000Y-84231000D02*
X173820000Y-82331000D01*
X173820000Y-82331000D02*
X177180000Y-82331000D01*
G04 #@! TO.C,R25*
X141757000Y-80200000D02*
X138397000Y-80200000D01*
X141757000Y-78300000D02*
X141757000Y-80200000D01*
X138397000Y-80200000D02*
X138397000Y-78300000D01*
X138397000Y-78300000D02*
X141757000Y-78300000D01*
G04 #@! TO.C,R33*
X148307000Y-60700000D02*
X144947000Y-60700000D01*
X148307000Y-58800000D02*
X148307000Y-60700000D01*
X144947000Y-60700000D02*
X144947000Y-58800000D01*
X144947000Y-58800000D02*
X148307000Y-58800000D01*
G04 #@! TO.C,R39*
X190180000Y-68700000D02*
X186820000Y-68700000D01*
X190180000Y-66800000D02*
X190180000Y-68700000D01*
X186820000Y-68700000D02*
X186820000Y-66800000D01*
X186820000Y-66800000D02*
X190180000Y-66800000D01*
G04 #@! TO.C,C39*
X211407500Y-79042500D02*
X208007500Y-79042500D01*
X211407500Y-77082500D02*
X211407500Y-79042500D01*
X208007500Y-79042500D02*
X208007500Y-77082500D01*
X208007500Y-77082500D02*
X211407500Y-77082500D01*
G04 #@! TO.C,C15*
X141827000Y-59730000D02*
X138427000Y-59730000D01*
X141827000Y-57770000D02*
X141827000Y-59730000D01*
X138427000Y-59730000D02*
X138427000Y-57770000D01*
X138427000Y-57770000D02*
X141827000Y-57770000D01*
G04 #@! TO.C,C85*
X185500000Y-49150000D02*
G75*
G02*
X178700000Y-49150000I-3400000J0D01*
G01*
X178700000Y-49150000D02*
G75*
G02*
X185500000Y-49150000I3400000J0D01*
G01*
G04 #@! TO.C,C42*
X154392500Y-76061000D02*
X152432500Y-76061000D01*
X154392500Y-72661000D02*
X154392500Y-76061000D01*
X152432500Y-76061000D02*
X152432500Y-72661000D01*
X152432500Y-72661000D02*
X154392500Y-72661000D01*
G04 #@! TO.C,C14*
X140327000Y-71730000D02*
X136927000Y-71730000D01*
X140327000Y-69770000D02*
X140327000Y-71730000D01*
X136927000Y-71730000D02*
X136927000Y-69770000D01*
X136927000Y-69770000D02*
X140327000Y-69770000D01*
G04 #@! TO.C,C23*
X165435000Y-72061000D02*
X163475000Y-72061000D01*
X165435000Y-68661000D02*
X165435000Y-72061000D01*
X163475000Y-72061000D02*
X163475000Y-68661000D01*
X163475000Y-68661000D02*
X165435000Y-68661000D01*
G04 #@! TO.C,R30*
X211530000Y-82862500D02*
X208170000Y-82862500D01*
X211530000Y-80962500D02*
X211530000Y-82862500D01*
X208170000Y-82862500D02*
X208170000Y-80962500D01*
X208170000Y-80962500D02*
X211530000Y-80962500D01*
G04 #@! TO.C,C123*
X199980000Y-51150000D02*
X198020000Y-51150000D01*
X199980000Y-47750000D02*
X199980000Y-51150000D01*
X198020000Y-51150000D02*
X198020000Y-47750000D01*
X198020000Y-47750000D02*
X199980000Y-47750000D01*
G04 #@! TO.C,R60*
X197558900Y-89103700D02*
X194198900Y-89103700D01*
X197558900Y-87203700D02*
X197558900Y-89103700D01*
X194198900Y-89103700D02*
X194198900Y-87203700D01*
X194198900Y-87203700D02*
X197558900Y-87203700D01*
G04 #@! TO.C,U6*
X177175000Y-78321000D02*
X177175000Y-69161000D01*
X177175000Y-69161000D02*
X169775000Y-69161000D01*
X169775000Y-78321000D02*
X177175000Y-78321000D01*
X169775000Y-69161000D02*
X169775000Y-78321000D01*
G04 #@! TO.C,U2*
X197305000Y-59225000D02*
X197305000Y-51825000D01*
X197305000Y-51825000D02*
X191905000Y-51825000D01*
X191905000Y-59225000D02*
X197305000Y-59225000D01*
X191905000Y-51825000D02*
X191905000Y-59225000D01*
G04 #@! TO.C,R58*
X165450000Y-63930000D02*
X163550000Y-63930000D01*
X165450000Y-60570000D02*
X165450000Y-63930000D01*
X163550000Y-63930000D02*
X163550000Y-60570000D01*
X163550000Y-60570000D02*
X165450000Y-60570000D01*
G04 #@! TO.C,C134*
X215100000Y-100380000D02*
X211700000Y-100380000D01*
X215100000Y-98420000D02*
X215100000Y-100380000D01*
X211700000Y-100380000D02*
X211700000Y-98420000D01*
X211700000Y-98420000D02*
X215100000Y-98420000D01*
G04 #@! TO.C,C44*
X197255000Y-61755000D02*
X193855000Y-61755000D01*
X197255000Y-59795000D02*
X197255000Y-61755000D01*
X193855000Y-61755000D02*
X193855000Y-59795000D01*
X193855000Y-59795000D02*
X197255000Y-59795000D01*
G04 #@! TO.C,R61*
X171025000Y-95355000D02*
X167665000Y-95355000D01*
X171025000Y-93455000D02*
X171025000Y-95355000D01*
X167665000Y-95355000D02*
X167665000Y-93455000D01*
X167665000Y-93455000D02*
X171025000Y-93455000D01*
G04 #@! TO.C,U7*
X162950000Y-62200000D02*
X162950000Y-56800000D01*
X162950000Y-56800000D02*
X155550000Y-56800000D01*
X155550000Y-62200000D02*
X162950000Y-62200000D01*
X155550000Y-56800000D02*
X155550000Y-62200000D01*
G04 #@! TO.C,R27*
X149077000Y-89430000D02*
X147177000Y-89430000D01*
X149077000Y-86070000D02*
X149077000Y-89430000D01*
X147177000Y-89430000D02*
X147177000Y-86070000D01*
X147177000Y-86070000D02*
X149077000Y-86070000D01*
G04 #@! TO.C,R59*
X165450000Y-90430000D02*
X163550000Y-90430000D01*
X165450000Y-87070000D02*
X165450000Y-90430000D01*
X163550000Y-90430000D02*
X163550000Y-87070000D01*
X163550000Y-87070000D02*
X165450000Y-87070000D01*
G04 #@! TO.C,C22*
X179980000Y-80031000D02*
X178020000Y-80031000D01*
X179980000Y-76631000D02*
X179980000Y-80031000D01*
X178020000Y-80031000D02*
X178020000Y-76631000D01*
X178020000Y-76631000D02*
X179980000Y-76631000D01*
G04 #@! TO.C,C13*
X145607000Y-64950000D02*
X143647000Y-64950000D01*
X145607000Y-61550000D02*
X145607000Y-64950000D01*
X143647000Y-64950000D02*
X143647000Y-61550000D01*
X143647000Y-61550000D02*
X145607000Y-61550000D01*
G04 #@! TO.C,J5*
X191600000Y-102075000D02*
X191600000Y-95925000D01*
X191600000Y-95925000D02*
X188000000Y-95925000D01*
X188000000Y-102075000D02*
X191600000Y-102075000D01*
X188000000Y-95925000D02*
X188000000Y-102075000D01*
G04 #@! TO.C,R36*
X141807000Y-56700000D02*
X138447000Y-56700000D01*
X141807000Y-54800000D02*
X141807000Y-56700000D01*
X138447000Y-56700000D02*
X138447000Y-54800000D01*
X138447000Y-54800000D02*
X141807000Y-54800000D01*
G04 #@! TO.C,A2*
X172837000Y-130424000D02*
X172837000Y-109604000D01*
X172837000Y-130424000D02*
X157097000Y-130424000D01*
X157097000Y-109604000D02*
X172837000Y-109604000D01*
X157097000Y-109604000D02*
X157097000Y-130424000D01*
G04 #@! TO.C,C78*
X206750000Y-49500000D02*
G75*
G02*
X201250000Y-49500000I-2750000J0D01*
G01*
X201250000Y-49500000D02*
G75*
G02*
X206750000Y-49500000I2750000J0D01*
G01*
G04 #@! TO.C,C84*
X184850000Y-55755100D02*
G75*
G02*
X179350000Y-55755100I-2750000J0D01*
G01*
X179350000Y-55755100D02*
G75*
G02*
X184850000Y-55755100I2750000J0D01*
G01*
G04 #@! TO.C,R35*
X140307000Y-75200000D02*
X136947000Y-75200000D01*
X140307000Y-73300000D02*
X140307000Y-75200000D01*
X136947000Y-75200000D02*
X136947000Y-73300000D01*
X136947000Y-73300000D02*
X140307000Y-73300000D01*
G04 #@! TO.C,R26*
X148430000Y-85017000D02*
X145070000Y-85017000D01*
X148430000Y-83117000D02*
X148430000Y-85017000D01*
X145070000Y-85017000D02*
X145070000Y-83117000D01*
X145070000Y-83117000D02*
X148430000Y-83117000D01*
G04 #@! TO.C,C34*
X190295000Y-94635000D02*
X186895000Y-94635000D01*
X190295000Y-92675000D02*
X190295000Y-94635000D01*
X186895000Y-94635000D02*
X186895000Y-92675000D01*
X186895000Y-92675000D02*
X190295000Y-92675000D01*
G04 #@! TO.C,R22*
X146930000Y-96267000D02*
X143570000Y-96267000D01*
X146930000Y-94367000D02*
X146930000Y-96267000D01*
X143570000Y-96267000D02*
X143570000Y-94367000D01*
X143570000Y-94367000D02*
X146930000Y-94367000D01*
G04 #@! TO.C,C41*
X179980000Y-75981000D02*
X178020000Y-75981000D01*
X179980000Y-72581000D02*
X179980000Y-75981000D01*
X178020000Y-75981000D02*
X178020000Y-72581000D01*
X178020000Y-72581000D02*
X179980000Y-72581000D01*
G04 #@! TO.C,C12*
X145607000Y-89450000D02*
X143647000Y-89450000D01*
X145607000Y-86050000D02*
X145607000Y-89450000D01*
X143647000Y-89450000D02*
X143647000Y-86050000D01*
X143647000Y-86050000D02*
X145607000Y-86050000D01*
G04 #@! TO.C,J4*
X160100000Y-89935000D02*
X160100000Y-86335000D01*
X160100000Y-86335000D02*
X153950000Y-86335000D01*
X153950000Y-89935000D02*
X160100000Y-89935000D01*
X153950000Y-86335000D02*
X153950000Y-89935000D01*
G04 #@! TO.C,C18*
X146827000Y-68730000D02*
X143427000Y-68730000D01*
X146827000Y-66770000D02*
X146827000Y-68730000D01*
X143427000Y-68730000D02*
X143427000Y-66770000D01*
X143427000Y-66770000D02*
X146827000Y-66770000D01*
G04 #@! TO.C,C79*
X156023000Y-127683400D02*
G75*
G02*
X149223000Y-127683400I-3400000J0D01*
G01*
X149223000Y-127683400D02*
G75*
G02*
X156023000Y-127683400I3400000J0D01*
G01*
G04 #@! TO.C,C17*
X136107000Y-65450000D02*
X134147000Y-65450000D01*
X136107000Y-62050000D02*
X136107000Y-65450000D01*
X134147000Y-65450000D02*
X134147000Y-62050000D01*
X134147000Y-62050000D02*
X136107000Y-62050000D01*
G04 #@! TO.C,R63*
X171025000Y-105605000D02*
X167665000Y-105605000D01*
X171025000Y-103705000D02*
X171025000Y-105605000D01*
X167665000Y-105605000D02*
X167665000Y-103705000D01*
X167665000Y-103705000D02*
X171025000Y-103705000D01*
D11*
G04 #@! TO.C,J3*
X132624000Y-152650000D02*
X111828000Y-152650000D01*
X132624000Y-111508000D02*
X132624000Y-152650000D01*
X111828000Y-152650000D02*
X111828000Y-111508000D01*
X111828000Y-111508000D02*
X132624000Y-111508000D01*
D10*
G04 #@! TO.C,R37*
X136077000Y-74930000D02*
X134177000Y-74930000D01*
X136077000Y-71570000D02*
X136077000Y-74930000D01*
X134177000Y-74930000D02*
X134177000Y-71570000D01*
X134177000Y-71570000D02*
X136077000Y-71570000D01*
G04 #@! TO.C,C81*
X206750000Y-56455100D02*
G75*
G02*
X201250000Y-56455100I-2750000J0D01*
G01*
X201250000Y-56455100D02*
G75*
G02*
X206750000Y-56455100I2750000J0D01*
G01*
G04 #@! TO.C,C46*
X165480000Y-59750000D02*
X163520000Y-59750000D01*
X165480000Y-56350000D02*
X165480000Y-59750000D01*
X163520000Y-59750000D02*
X163520000Y-56350000D01*
X163520000Y-56350000D02*
X165480000Y-56350000D01*
G04 #@! TO.C,U11*
X177820000Y-92720000D02*
X177820000Y-87320000D01*
X177820000Y-87320000D02*
X170420000Y-87320000D01*
X170420000Y-92720000D02*
X177820000Y-92720000D01*
X170420000Y-87320000D02*
X170420000Y-92720000D01*
G04 #@! TO.C,R29*
X146680000Y-75267000D02*
X143320000Y-75267000D01*
X146680000Y-73367000D02*
X146680000Y-75267000D01*
X143320000Y-75267000D02*
X143320000Y-73367000D01*
X143320000Y-73367000D02*
X146680000Y-73367000D01*
D11*
G04 #@! TO.C,J2*
X132624000Y-103150000D02*
X111828000Y-103150000D01*
X132624000Y-62008000D02*
X132624000Y-103150000D01*
X111828000Y-103150000D02*
X111828000Y-62008000D01*
X111828000Y-62008000D02*
X132624000Y-62008000D01*
D10*
G04 #@! TO.C,C77*
X206750000Y-42455100D02*
G75*
G02*
X201250000Y-42455100I-2750000J0D01*
G01*
X201250000Y-42455100D02*
G75*
G02*
X206750000Y-42455100I2750000J0D01*
G01*
G04 #@! TO.C,C10*
X140327000Y-96230000D02*
X136927000Y-96230000D01*
X140327000Y-94270000D02*
X140327000Y-96230000D01*
X136927000Y-96230000D02*
X136927000Y-94270000D01*
X136927000Y-94270000D02*
X140327000Y-94270000D01*
G04 #@! TO.C,R52*
X177180000Y-68231000D02*
X173820000Y-68231000D01*
X177180000Y-66331000D02*
X177180000Y-68231000D01*
X173820000Y-68231000D02*
X173820000Y-66331000D01*
X173820000Y-66331000D02*
X177180000Y-66331000D01*
G04 #@! TO.C,C83*
X156023000Y-150524000D02*
G75*
G02*
X149223000Y-150524000I-3400000J0D01*
G01*
X149223000Y-150524000D02*
G75*
G02*
X156023000Y-150524000I3400000J0D01*
G01*
G04 #@! TO.C,C43*
X165435000Y-76061000D02*
X163475000Y-76061000D01*
X165435000Y-72661000D02*
X165435000Y-76061000D01*
X163475000Y-76061000D02*
X163475000Y-72661000D01*
X163475000Y-72661000D02*
X165435000Y-72661000D01*
G04 #@! TO.C,U5*
X162655000Y-78351000D02*
X162655000Y-69191000D01*
X162655000Y-69191000D02*
X155255000Y-69191000D01*
X155255000Y-78351000D02*
X162655000Y-78351000D01*
X155255000Y-69191000D02*
X155255000Y-78351000D01*
G04 #@! TO.C,C25*
X173250000Y-68261000D02*
X169850000Y-68261000D01*
X173250000Y-66301000D02*
X173250000Y-68261000D01*
X169850000Y-68261000D02*
X169850000Y-66301000D01*
X169850000Y-66301000D02*
X173250000Y-66301000D01*
G04 #@! TO.C,IC1*
X191105000Y-59250000D02*
X185605000Y-59250000D01*
X191105000Y-51800000D02*
X191105000Y-59250000D01*
X185605000Y-59250000D02*
X185605000Y-51800000D01*
X185605000Y-51800000D02*
X191105000Y-51800000D01*
G04 #@! TO.C,C16*
X165435000Y-80061000D02*
X163475000Y-80061000D01*
X165435000Y-76661000D02*
X165435000Y-80061000D01*
X163475000Y-80061000D02*
X163475000Y-76661000D01*
X163475000Y-76661000D02*
X165435000Y-76661000D01*
G04 #@! TO.C,R24*
X136077000Y-83430000D02*
X134177000Y-83430000D01*
X136077000Y-80070000D02*
X136077000Y-83430000D01*
X134177000Y-83430000D02*
X134177000Y-80070000D01*
X134177000Y-80070000D02*
X136077000Y-80070000D01*
G04 #@! TO.C,C20*
X136107000Y-88000000D02*
X134147000Y-88000000D01*
X136107000Y-84600000D02*
X136107000Y-88000000D01*
X134147000Y-88000000D02*
X134147000Y-84600000D01*
X134147000Y-84600000D02*
X136107000Y-84600000D01*
G04 #@! TO.C,C131*
X215100000Y-95180000D02*
X211700000Y-95180000D01*
X215100000Y-93220000D02*
X215100000Y-95180000D01*
X211700000Y-95180000D02*
X211700000Y-93220000D01*
X211700000Y-93220000D02*
X215100000Y-93220000D01*
G04 #@! TO.C,JP30*
X169250000Y-87100000D02*
X169250000Y-90400000D01*
X169250000Y-87100000D02*
X166750000Y-87100000D01*
X166750000Y-90400000D02*
X169250000Y-90400000D01*
X166750000Y-90400000D02*
X166750000Y-87100000D01*
G04 #@! TO.C,C28*
X176607000Y-121474000D02*
X174647000Y-121474000D01*
X176607000Y-118074000D02*
X176607000Y-121474000D01*
X174647000Y-121474000D02*
X174647000Y-118074000D01*
X174647000Y-118074000D02*
X176607000Y-118074000D01*
G04 #@! TO.C,R38*
X136077000Y-60997000D02*
X134177000Y-60997000D01*
X136077000Y-57637000D02*
X136077000Y-60997000D01*
X134177000Y-60997000D02*
X134177000Y-57637000D01*
X134177000Y-57637000D02*
X136077000Y-57637000D01*
G04 #@! TO.C,C82*
X206750000Y-63455100D02*
G75*
G02*
X201250000Y-63455100I-2750000J0D01*
G01*
X201250000Y-63455100D02*
G75*
G02*
X206750000Y-63455100I2750000J0D01*
G01*
G04 #@! TO.C,R56*
X162860000Y-68281000D02*
X159500000Y-68281000D01*
X162860000Y-66381000D02*
X162860000Y-68281000D01*
X159500000Y-68281000D02*
X159500000Y-66381000D01*
X159500000Y-66381000D02*
X162860000Y-66381000D01*
G04 #@! TO.C,R53*
X173180000Y-65231000D02*
X169820000Y-65231000D01*
X173180000Y-63331000D02*
X173180000Y-65231000D01*
X169820000Y-65231000D02*
X169820000Y-63331000D01*
X169820000Y-63331000D02*
X173180000Y-63331000D01*
G04 #@! TO.C,C122*
X199980000Y-44250000D02*
X198020000Y-44250000D01*
X199980000Y-40850000D02*
X199980000Y-44250000D01*
X198020000Y-44250000D02*
X198020000Y-40850000D01*
X198020000Y-40850000D02*
X199980000Y-40850000D01*
G04 #@! TO.C,R31*
X146807000Y-71767000D02*
X143447000Y-71767000D01*
X146807000Y-69867000D02*
X146807000Y-71767000D01*
X143447000Y-71767000D02*
X143447000Y-69867000D01*
X143447000Y-69867000D02*
X146807000Y-69867000D01*
G04 #@! TO.C,JP31*
X169250000Y-97350000D02*
X169250000Y-100650000D01*
X169250000Y-97350000D02*
X166750000Y-97350000D01*
X166750000Y-100650000D02*
X169250000Y-100650000D01*
X166750000Y-100650000D02*
X166750000Y-97350000D01*
D12*
G04 #@! TO.C,U9*
X187303400Y-101580700D02*
X185842900Y-101580700D01*
X187303400Y-96729300D02*
X187303400Y-101580700D01*
X187303400Y-96729300D02*
X185842900Y-96729300D01*
X185842900Y-101910900D02*
X181347100Y-101910900D01*
X185842900Y-101580700D02*
X185842900Y-101910900D01*
X185842900Y-96399100D02*
X185842900Y-96729300D01*
X181347100Y-101910900D02*
X181347100Y-101580700D01*
X181347100Y-96729300D02*
X181347100Y-96399100D01*
X181347100Y-96399100D02*
X185842900Y-96399100D01*
X179886600Y-101580700D02*
X181347100Y-101580700D01*
X179886600Y-101580700D02*
X179886600Y-96729300D01*
X179886600Y-96729300D02*
X181347100Y-96729300D01*
D10*
G04 #@! TO.C,C130*
X215150000Y-97780000D02*
X211750000Y-97780000D01*
X215150000Y-95820000D02*
X215150000Y-97780000D01*
X211750000Y-97780000D02*
X211750000Y-95820000D01*
X211750000Y-95820000D02*
X215150000Y-95820000D01*
G04 #@! TO.C,C29*
X175095000Y-95385000D02*
X171695000Y-95385000D01*
X175095000Y-93425000D02*
X175095000Y-95385000D01*
X171695000Y-95385000D02*
X171695000Y-93425000D01*
X171695000Y-93425000D02*
X175095000Y-93425000D01*
D11*
G04 #@! TO.C,J1*
X232299000Y-75641000D02*
X211503000Y-75641000D01*
X232299000Y-34499000D02*
X232299000Y-75641000D01*
X211503000Y-75641000D02*
X211503000Y-34499000D01*
X211503000Y-34499000D02*
X232299000Y-34499000D01*
D10*
G04 #@! TO.C,C26*
X173250000Y-81261000D02*
X169850000Y-81261000D01*
X173250000Y-79301000D02*
X173250000Y-81261000D01*
X169850000Y-81261000D02*
X169850000Y-79301000D01*
X169850000Y-79301000D02*
X173250000Y-79301000D01*
G04 #@! TO.C,R32*
X146307000Y-56700000D02*
X142947000Y-56700000D01*
X146307000Y-54800000D02*
X146307000Y-56700000D01*
X142947000Y-56700000D02*
X142947000Y-54800000D01*
X142947000Y-54800000D02*
X146307000Y-54800000D01*
G04 #@! TO.C,R41*
X177267500Y-81231000D02*
X173907500Y-81231000D01*
X177267500Y-79331000D02*
X177267500Y-81231000D01*
X173907500Y-81231000D02*
X173907500Y-79331000D01*
X173907500Y-79331000D02*
X177267500Y-79331000D01*
G04 #@! TO.C,R21*
X136077000Y-95930000D02*
X134177000Y-95930000D01*
X136077000Y-92570000D02*
X136077000Y-95930000D01*
X134177000Y-95930000D02*
X134177000Y-92570000D01*
X134177000Y-92570000D02*
X136077000Y-92570000D01*
G04 #@! TO.C,IC4*
X193250000Y-78691000D02*
X182250000Y-78691000D01*
X193250000Y-69291000D02*
X193250000Y-78691000D01*
X182250000Y-78691000D02*
X182250000Y-69291000D01*
X182250000Y-69291000D02*
X193250000Y-69291000D01*
G04 #@! TO.C,C24*
X158905000Y-81291000D02*
X155505000Y-81291000D01*
X158905000Y-79331000D02*
X158905000Y-81291000D01*
X155505000Y-81291000D02*
X155505000Y-79331000D01*
X155505000Y-79331000D02*
X158905000Y-79331000D01*
G04 #@! TO.C,C33*
X194045000Y-94635000D02*
X190645000Y-94635000D01*
X194045000Y-92675000D02*
X194045000Y-94635000D01*
X190645000Y-94635000D02*
X190645000Y-92675000D01*
X190645000Y-92675000D02*
X194045000Y-92675000D01*
G04 #@! TO.C,C132*
X215100000Y-92580000D02*
X211700000Y-92580000D01*
X215100000Y-90620000D02*
X215100000Y-92580000D01*
X211700000Y-92580000D02*
X211700000Y-90620000D01*
X211700000Y-90620000D02*
X215100000Y-90620000D01*
D12*
G04 #@! TO.C,U8*
X192515800Y-92048730D02*
X191182300Y-92048730D01*
X192515800Y-87758670D02*
X192515800Y-92048730D01*
X192515800Y-87758670D02*
X191182300Y-87758670D01*
X191182300Y-92227800D02*
X187575500Y-92227800D01*
X191182300Y-92048730D02*
X191182300Y-92227800D01*
X191182300Y-87579600D02*
X191182300Y-87758670D01*
X187575500Y-92227800D02*
X187575500Y-92048730D01*
X187575500Y-87758670D02*
X187575500Y-87579600D01*
X187575500Y-87579600D02*
X191182300Y-87579600D01*
X186242000Y-92048730D02*
X187575500Y-92048730D01*
X186242000Y-92048730D02*
X186242000Y-87758670D01*
X186242000Y-87758670D02*
X187575500Y-87758670D01*
D10*
G04 #@! TO.C,C11*
X141777000Y-83730000D02*
X138377000Y-83730000D01*
X141777000Y-81770000D02*
X141777000Y-83730000D01*
X138377000Y-83730000D02*
X138377000Y-81770000D01*
X138377000Y-81770000D02*
X141777000Y-81770000D01*
G04 #@! TO.C,U4*
X142327000Y-68800000D02*
X142327000Y-61400000D01*
X142327000Y-61400000D02*
X136927000Y-61400000D01*
X136927000Y-68800000D02*
X142327000Y-68800000D01*
X136927000Y-61400000D02*
X136927000Y-68800000D01*
G04 #@! TO.C,R57*
X158885000Y-65311000D02*
X155525000Y-65311000D01*
X158885000Y-63411000D02*
X158885000Y-65311000D01*
X155525000Y-65311000D02*
X155525000Y-63411000D01*
X155525000Y-63411000D02*
X158885000Y-63411000D01*
G04 #@! TO.C,JP33*
X195750000Y-101950000D02*
X195750000Y-99450000D01*
X195750000Y-101950000D02*
X192450000Y-101950000D01*
X192450000Y-99450000D02*
X195750000Y-99450000D01*
X192450000Y-99450000D02*
X192450000Y-101950000D01*
G04 #@! TO.C,C125*
X196980000Y-51250000D02*
X195020000Y-51250000D01*
X196980000Y-47850000D02*
X196980000Y-51250000D01*
X195020000Y-51250000D02*
X195020000Y-47850000D01*
X195020000Y-47850000D02*
X196980000Y-47850000D01*
G04 #@! TO.C,R55*
X173180000Y-84231000D02*
X169820000Y-84231000D01*
X173180000Y-82331000D02*
X173180000Y-84231000D01*
X169820000Y-84231000D02*
X169820000Y-82331000D01*
X169820000Y-82331000D02*
X173180000Y-82331000D01*
G04 #@! TO.C,R20*
X140307000Y-99700000D02*
X136947000Y-99700000D01*
X140307000Y-97800000D02*
X140307000Y-99700000D01*
X136947000Y-99700000D02*
X136947000Y-97800000D01*
X136947000Y-97800000D02*
X140307000Y-97800000D01*
G04 #@! TO.C,C124*
X196980000Y-44250000D02*
X195020000Y-44250000D01*
X196980000Y-40850000D02*
X196980000Y-44250000D01*
X195020000Y-44250000D02*
X195020000Y-40850000D01*
X195020000Y-40850000D02*
X196980000Y-40850000D01*
G04 #@! TO.C,C37*
X176607000Y-144474000D02*
X174647000Y-144474000D01*
X176607000Y-141074000D02*
X176607000Y-144474000D01*
X174647000Y-144474000D02*
X174647000Y-141074000D01*
X174647000Y-141074000D02*
X176607000Y-141074000D01*
G04 #@! TO.C,R28*
X146680000Y-80200000D02*
X143320000Y-80200000D01*
X146680000Y-78300000D02*
X146680000Y-80200000D01*
X143320000Y-80200000D02*
X143320000Y-78300000D01*
X143320000Y-78300000D02*
X146680000Y-78300000D01*
G04 #@! TO.C,R23*
X146930000Y-99691000D02*
X143570000Y-99691000D01*
X146930000Y-97791000D02*
X146930000Y-99691000D01*
X143570000Y-99691000D02*
X143570000Y-97791000D01*
X143570000Y-97791000D02*
X146930000Y-97791000D01*
G04 #@! TO.C,R62*
X165450000Y-100680000D02*
X163550000Y-100680000D01*
X165450000Y-97320000D02*
X165450000Y-100680000D01*
X163550000Y-100680000D02*
X163550000Y-97320000D01*
X163550000Y-97320000D02*
X165450000Y-97320000D01*
G04 #@! TO.C,C19*
X146827000Y-93230000D02*
X143427000Y-93230000D01*
X146827000Y-91270000D02*
X146827000Y-93230000D01*
X143427000Y-93230000D02*
X143427000Y-91270000D01*
X143427000Y-91270000D02*
X146827000Y-91270000D01*
G04 #@! TO.C,C40*
X168892500Y-76061000D02*
X166932500Y-76061000D01*
X168892500Y-72661000D02*
X168892500Y-76061000D01*
X166932500Y-76061000D02*
X166932500Y-72661000D01*
X166932500Y-72661000D02*
X168892500Y-72661000D01*
G04 #@! TO.C,JP29*
X215900000Y-79312500D02*
X215900000Y-76812500D01*
X215900000Y-79312500D02*
X212600000Y-79312500D01*
X212600000Y-76812500D02*
X215900000Y-76812500D01*
X212600000Y-76812500D02*
X212600000Y-79312500D01*
G04 #@! TO.C,R64*
X197558900Y-91353700D02*
X194198900Y-91353700D01*
X197558900Y-89453700D02*
X197558900Y-91353700D01*
X194198900Y-91353700D02*
X194198900Y-89453700D01*
X194198900Y-89453700D02*
X197558900Y-89453700D01*
G04 #@! TO.C,R42*
X177180000Y-65231000D02*
X173820000Y-65231000D01*
X177180000Y-63331000D02*
X177180000Y-65231000D01*
X173820000Y-65231000D02*
X173820000Y-63331000D01*
X173820000Y-63331000D02*
X177180000Y-63331000D01*
G04 #@! TO.C,C21*
X179980000Y-71981000D02*
X178020000Y-71981000D01*
X179980000Y-68581000D02*
X179980000Y-71981000D01*
X178020000Y-71981000D02*
X178020000Y-68581000D01*
X178020000Y-68581000D02*
X179980000Y-68581000D01*
G04 #@! TO.C,C35*
X185345000Y-88905000D02*
G75*
G02*
X179845000Y-88905000I-2750000J0D01*
G01*
X179845000Y-88905000D02*
G75*
G02*
X185345000Y-88905000I2750000J0D01*
G01*
G04 #@! TO.C,C8*
X189105000Y-51005000D02*
X185705000Y-51005000D01*
X189105000Y-49045000D02*
X189105000Y-51005000D01*
X185705000Y-51005000D02*
X185705000Y-49045000D01*
X185705000Y-49045000D02*
X189105000Y-49045000D01*
G04 #@! TO.C,R40*
X162860000Y-65311000D02*
X159500000Y-65311000D01*
X162860000Y-63411000D02*
X162860000Y-65311000D01*
X159500000Y-65311000D02*
X159500000Y-63411000D01*
X159500000Y-63411000D02*
X162860000Y-63411000D01*
G04 #@! TO.C,A3*
X172837000Y-153234000D02*
X172837000Y-132414000D01*
X172837000Y-153234000D02*
X157097000Y-153234000D01*
X157097000Y-132414000D02*
X172837000Y-132414000D01*
X157097000Y-132414000D02*
X157097000Y-153234000D01*
G04 #@! TO.C,R43*
X162885000Y-81261000D02*
X159525000Y-81261000D01*
X162885000Y-79361000D02*
X162885000Y-81261000D01*
X159525000Y-81261000D02*
X159525000Y-79361000D01*
X159525000Y-79361000D02*
X162885000Y-79361000D01*
G04 #@! TO.C,JP32*
X195750000Y-98700000D02*
X195750000Y-96200000D01*
X195750000Y-98700000D02*
X192450000Y-98700000D01*
X192450000Y-96200000D02*
X195750000Y-96200000D01*
X192450000Y-96200000D02*
X192450000Y-98700000D01*
G04 #@! TO.C,R50*
X162860000Y-84011000D02*
X159500000Y-84011000D01*
X162860000Y-82111000D02*
X162860000Y-84011000D01*
X159500000Y-84011000D02*
X159500000Y-82111000D01*
X159500000Y-82111000D02*
X162860000Y-82111000D01*
G04 #@! TO.C,C47*
X154730000Y-62950000D02*
X152770000Y-62950000D01*
X154730000Y-59550000D02*
X154730000Y-62950000D01*
X152770000Y-62950000D02*
X152770000Y-59550000D01*
X152770000Y-59550000D02*
X154730000Y-59550000D01*
G04 #@! TO.C,C30*
X181950000Y-104480000D02*
X178550000Y-104480000D01*
X181950000Y-102520000D02*
X181950000Y-104480000D01*
X178550000Y-104480000D02*
X178550000Y-102520000D01*
X178550000Y-102520000D02*
X181950000Y-102520000D01*
G04 #@! TO.C,R19*
X192785000Y-48475000D02*
X189425000Y-48475000D01*
X192785000Y-46575000D02*
X192785000Y-48475000D01*
X189425000Y-48475000D02*
X189425000Y-46575000D01*
X189425000Y-46575000D02*
X192785000Y-46575000D01*
G04 #@! TO.C,C32*
X187000000Y-104480000D02*
X183600000Y-104480000D01*
X187000000Y-102520000D02*
X187000000Y-104480000D01*
X183600000Y-104480000D02*
X183600000Y-102520000D01*
X183600000Y-102520000D02*
X187000000Y-102520000D01*
G04 #@! TO.C,C31*
X175295000Y-105635000D02*
X171895000Y-105635000D01*
X175295000Y-103675000D02*
X175295000Y-105635000D01*
X171895000Y-105635000D02*
X171895000Y-103675000D01*
X171895000Y-103675000D02*
X175295000Y-103675000D01*
G04 #@! TO.C,U10*
X160725000Y-96085000D02*
X160725000Y-90685000D01*
X160725000Y-90685000D02*
X153325000Y-90685000D01*
X153325000Y-96085000D02*
X160725000Y-96085000D01*
X153325000Y-90685000D02*
X153325000Y-96085000D01*
G04 #@! TO.C,C27*
X158905000Y-68291000D02*
X155505000Y-68291000D01*
X158905000Y-66331000D02*
X158905000Y-68291000D01*
X155505000Y-68291000D02*
X155505000Y-66331000D01*
X155505000Y-66331000D02*
X158905000Y-66331000D01*
G04 #@! TD*
M02*
