M48
; DRILL file {KiCad 9.0.0} date 2025-04-29T18:09:41-0500
; FORMAT={-:-/ absolute / metric / decimal}
; #@! TF.CreationDate,2025-04-29T18:09:41-05:00
; #@! TF.GenerationSoftware,Kicad,Pcbnew,9.0.0
; #@! TF.FileFunction,Plated,1,4,PTH
FMAT,2
METRIC
; #@! TA.AperFunction,Plated,PTH,ComponentDrill
T1C0.200
; #@! TA.AperFunction,Plated,PTH,ViaDrill
T2C0.300
; #@! TA.AperFunction,Plated,PTH,ComponentDrill
T3C0.400
; #@! TA.AperFunction,Plated,PTH,ComponentDrill
T4C0.800
; #@! TA.AperFunction,Plated,PTH,ComponentDrill
T5C1.000
; #@! TA.AperFunction,Plated,PTH,ComponentDrill
T6C1.041
; #@! TA.AperFunction,Plated,PTH,ComponentDrill
T7C1.100
; #@! TA.AperFunction,Plated,PTH,ComponentDrill
T8C2.200
; #@! TA.AperFunction,Plated,PTH,ComponentDrill
T9C3.048
%
G90
G05
T1
X138.627Y-64.45
X138.627Y-65.75
X138.627Y-88.75
X138.627Y-90.05
X139.627Y-64.45
X139.627Y-65.75
X139.627Y-88.75
X139.627Y-90.05
X140.627Y-64.45
X140.627Y-65.75
X140.627Y-88.75
X140.627Y-90.05
X156.375Y-92.385
X156.375Y-93.385
X156.375Y-94.385
X157.675Y-92.385
X157.675Y-93.385
X157.675Y-94.385
X193.605Y-54.875
X193.605Y-56.175
X194.605Y-54.875
X194.605Y-56.175
X195.605Y-54.875
X195.605Y-56.175
T2
X121.55Y-104.15
X122.8Y-104.1
X134.8Y-109.8
X135.127Y-62.8
X135.127Y-64.7
X135.127Y-85.35
X135.127Y-87.25
X137.7Y-133.875
X138.9Y-115.125
X139.287Y-133.787
X140.262Y-67.575
X140.262Y-91.875
X141.3Y-122.6
X142.5Y-122.1
X144.177Y-67.75
X144.177Y-92.25
X144.627Y-64.2
X144.627Y-88.7
X144.75Y-75.75
X146.077Y-67.75
X146.077Y-92.25
X146.125Y-120.95
X147.294Y-65.667
X148.127Y-88.662
X148.828Y-61.038
X149.15Y-130.45
X149.475Y-85.325
X151.675Y-86.725
X153.225Y-85.55
X153.412Y-73.411
X153.412Y-75.311
X153.75Y-60.3
X153.75Y-62.2
X154.55Y-94.02
X154.55Y-95.29
X156.48Y-69.961
X156.48Y-72.501
X156.48Y-75.041
X156.775Y-57.595
X159.5Y-91.48
X160.887Y-41.337
X161.292Y-72.501
X161.292Y-75.041
X162.092Y-67.331
X162.092Y-83.061
X164.455Y-73.411
X164.455Y-75.311
X164.455Y-77.411
X164.5Y-57.1
X164.5Y-59.0
X165.45Y-85.5
X166.075Y-69.825
X167.44Y-78.81
X167.912Y-73.411
X167.912Y-75.311
X168.0Y-89.8
X169.475Y-65.991
X170.588Y-64.281
X170.6Y-83.269
X171.0Y-72.471
X171.0Y-75.011
X171.595Y-90.655
X171.62Y-100.79
X171.62Y-102.06
X171.645Y-91.925
X172.975Y-54.0
X173.675Y-54.825
X175.4Y-52.2
X175.612Y-72.471
X175.612Y-75.011
X175.627Y-120.724
X175.627Y-143.724
X176.412Y-67.281
X176.412Y-83.281
X176.57Y-99.52
X176.57Y-100.79
X176.57Y-102.06
X176.595Y-91.925
X176.6Y-89.4
X178.095Y-91.405
X178.1Y-88.2
X179.0Y-73.331
X179.0Y-75.231
X179.188Y-100.287
X179.3Y-103.5
X180.871Y-101.06
X181.6Y-93.155
X182.5Y-66.6
X183.45Y-70.441
X183.45Y-77.541
X184.35Y-103.5
X184.4Y-65.575
X186.0Y-88.802
X186.319Y-97.25
X187.075Y-87.075
X187.4Y-75.8
X187.887Y-79.888
X188.019Y-41.811
X188.019Y-48.769
X188.176Y-89.153
X188.345Y-90.405
X188.725Y-77.541
X189.3Y-72.2
X189.412Y-67.75
X189.545Y-93.655
X190.2Y-91.2
X190.26Y-58.236
X190.312Y-88.529
X190.582Y-89.653
X190.6Y-75.6
X190.675Y-73.2
X190.845Y-87.905
X190.999Y-48.769
X191.285Y-74.065
X191.575Y-79.55
X191.993Y-54.733
X192.0Y-66.65
X192.05Y-70.441
X192.275Y-68.675
X192.633Y-91.63
X193.295Y-93.655
X193.4Y-90.804
X193.97Y-58.0
X193.975Y-68.65
X194.605Y-60.775
X194.95Y-86.65
X194.966Y-90.404
X195.625Y-100.695
X195.675Y-97.445
X196.335Y-130.542
X196.51Y-60.77
X196.791Y-90.404
X197.951Y-51.475
X199.25Y-71.675
X201.182Y-54.732
X202.0Y-60.697
X203.651Y-52.484
X205.475Y-90.404
X207.477Y-91.6
X207.5Y-99.425
X210.658Y-78.062
X211.859Y-52.745
X212.45Y-91.6
X212.45Y-99.4
X212.65Y-78.062
X214.35Y-99.4
X214.4Y-91.6
X214.4Y-94.2
X214.4Y-96.8
T3
X218.683Y-154.833
X219.167Y-153.667
X219.167Y-156.0
X220.333Y-153.183
X220.333Y-156.483
X221.5Y-153.667
X221.5Y-156.0
X221.983Y-154.833
T4
X152.623Y-126.433
X152.623Y-128.933
X152.623Y-149.274
X152.623Y-151.774
X158.627Y-111.124
X158.627Y-113.664
X158.627Y-116.204
X158.627Y-118.744
X158.627Y-121.284
X158.627Y-123.824
X158.627Y-126.364
X158.627Y-128.904
X158.627Y-133.934
X158.627Y-136.474
X158.627Y-139.014
X158.627Y-141.554
X158.627Y-144.094
X158.627Y-146.634
X158.627Y-149.174
X158.627Y-151.714
X171.327Y-111.124
X171.327Y-113.664
X171.327Y-116.204
X171.327Y-118.744
X171.327Y-121.284
X171.327Y-123.824
X171.327Y-126.364
X171.327Y-128.904
X171.327Y-133.934
X171.327Y-136.474
X171.327Y-139.014
X171.327Y-141.554
X171.327Y-144.094
X171.327Y-146.634
X171.327Y-149.174
X171.327Y-151.714
X179.335Y-120.835
X179.335Y-123.375
X179.335Y-125.915
X179.335Y-128.455
X179.335Y-130.995
X179.335Y-133.535
X179.335Y-136.075
X179.335Y-138.615
X181.595Y-88.905
X182.1Y-47.9
X182.1Y-50.4
X182.1Y-54.755
X182.1Y-56.755
X183.595Y-88.905
X184.55Y-144.375
X187.05Y-144.375
X192.035Y-120.835
X192.035Y-123.375
X192.035Y-125.915
X192.035Y-128.455
X192.035Y-130.995
X192.035Y-133.535
X192.035Y-136.075
X192.035Y-138.615
X204.0Y-41.455
X204.0Y-43.455
X204.0Y-48.5
X204.0Y-50.5
X204.0Y-55.455
X204.0Y-57.455
X204.0Y-62.455
X204.0Y-64.455
T5
X155.76Y-88.135
X158.3Y-88.135
X170.0Y-58.525
X170.0Y-61.065
X189.8Y-97.735
X189.8Y-100.275
T6
X127.077Y-74.349
X127.077Y-77.092
X127.077Y-79.836
X127.077Y-82.579
X127.077Y-85.322
X127.077Y-88.065
X127.077Y-90.808
X127.077Y-123.849
X127.077Y-126.592
X127.077Y-129.336
X127.077Y-132.079
X127.077Y-134.822
X127.077Y-137.565
X127.077Y-140.308
X129.922Y-72.978
X129.922Y-75.721
X129.922Y-78.464
X129.922Y-81.207
X129.922Y-83.95
X129.922Y-86.694
X129.922Y-89.437
X129.922Y-92.18
X129.922Y-122.478
X129.922Y-125.221
X129.922Y-127.964
X129.922Y-130.707
X129.922Y-133.45
X129.922Y-136.194
X129.922Y-138.937
X129.922Y-141.68
X214.205Y-45.469
X214.205Y-48.212
X214.205Y-50.955
X214.205Y-53.699
X214.205Y-56.442
X214.205Y-59.185
X214.205Y-61.928
X214.205Y-64.671
X217.05Y-46.841
X217.05Y-49.584
X217.05Y-52.327
X217.05Y-55.07
X217.05Y-57.813
X217.05Y-60.557
X217.05Y-63.3
T7
X121.72Y-36.3
X121.72Y-51.54
X124.26Y-36.3
X124.26Y-38.84
X124.26Y-51.54
X126.8Y-36.3
X126.8Y-51.54
X129.34Y-36.3
X129.34Y-51.54
X131.88Y-36.3
X131.88Y-51.54
X134.42Y-36.3
X134.42Y-51.54
X136.96Y-36.3
X136.96Y-51.54
X139.5Y-36.3
X139.5Y-51.54
X142.04Y-36.3
X142.04Y-51.54
X144.58Y-36.3
X144.58Y-51.54
X147.12Y-36.3
X147.12Y-38.84
X147.12Y-41.38
X147.12Y-43.92
X147.12Y-46.46
X147.12Y-49.0
X147.12Y-51.54
X149.66Y-36.3
X149.66Y-38.84
X149.66Y-41.38
X149.66Y-43.92
X149.66Y-46.46
X149.66Y-49.0
X149.66Y-51.54
X152.2Y-36.3
X152.2Y-51.54
X154.74Y-36.3
X154.74Y-38.84
X154.74Y-41.38
X154.74Y-43.92
X154.74Y-46.46
X154.74Y-49.0
X154.74Y-51.54
T8
X220.333Y-154.833
T9
X128.5Y-65.916
X128.5Y-99.241
X128.5Y-115.416
X128.5Y-148.741
X215.627Y-38.408
X215.627Y-71.733
M30
