G04 #@! TF.GenerationSoftware,KiCad,Pcbnew,9.0.0*
G04 #@! TF.CreationDate,2025-04-29T18:09:41-05:00*
G04 #@! TF.ProjectId,Mainboard,4d61696e-626f-4617-9264-2e6b69636164,rev?*
G04 #@! TF.SameCoordinates,Original*
G04 #@! TF.FileFunction,Copper,L1,Top*
G04 #@! TF.FilePolarity,Positive*
%FSLAX46Y46*%
G04 Gerber Fmt 4.6, Leading zero omitted, Abs format (unit mm)*
G04 Created by KiCad (PCBNEW 9.0.0) date 2025-04-29 18:09:41*
%MOMM*%
%LPD*%
G01*
G04 APERTURE LIST*
G04 Aperture macros list*
%AMRoundRect*
0 Rectangle with rounded corners*
0 $1 Rounding radius*
0 $2 $3 $4 $5 $6 $7 $8 $9 X,Y pos of 4 corners*
0 Add a 4 corners polygon primitive as box body*
4,1,4,$2,$3,$4,$5,$6,$7,$8,$9,$2,$3,0*
0 Add four circle primitives for the rounded corners*
1,1,$1+$1,$2,$3*
1,1,$1+$1,$4,$5*
1,1,$1+$1,$6,$7*
1,1,$1+$1,$8,$9*
0 Add four rect primitives between the rounded corners*
20,1,$1+$1,$2,$3,$4,$5,0*
20,1,$1+$1,$4,$5,$6,$7,0*
20,1,$1+$1,$6,$7,$8,$9,0*
20,1,$1+$1,$8,$9,$2,$3,0*%
%AMFreePoly0*
4,1,6,0.500000,-0.750000,-0.650000,-0.750000,-0.150000,0.000000,-0.650000,0.750000,0.500000,0.750000,0.500000,-0.750000,0.500000,-0.750000,$1*%
%AMFreePoly1*
4,1,6,1.000000,0.000000,0.500000,-0.750000,-0.500000,-0.750000,-0.500000,0.750000,0.500000,0.750000,1.000000,0.000000,1.000000,0.000000,$1*%
G04 Aperture macros list end*
G04 #@! TA.AperFunction,ComponentPad*
%ADD10R,1.700000X1.700000*%
G04 #@! TD*
G04 #@! TA.AperFunction,ComponentPad*
%ADD11O,1.700000X1.700000*%
G04 #@! TD*
G04 #@! TA.AperFunction,ComponentPad*
%ADD12O,1.600000X1.600000*%
G04 #@! TD*
G04 #@! TA.AperFunction,ComponentPad*
%ADD13R,1.600000X1.600000*%
G04 #@! TD*
G04 #@! TA.AperFunction,SMDPad,CuDef*
%ADD14RoundRect,0.250000X0.475000X-0.250000X0.475000X0.250000X-0.475000X0.250000X-0.475000X-0.250000X0*%
G04 #@! TD*
G04 #@! TA.AperFunction,ComponentPad*
%ADD15C,1.600000*%
G04 #@! TD*
G04 #@! TA.AperFunction,SMDPad,CuDef*
%ADD16RoundRect,0.250000X-0.250000X-0.475000X0.250000X-0.475000X0.250000X0.475000X-0.250000X0.475000X0*%
G04 #@! TD*
G04 #@! TA.AperFunction,ComponentPad*
%ADD17C,0.700000*%
G04 #@! TD*
G04 #@! TA.AperFunction,ComponentPad*
%ADD18C,4.400000*%
G04 #@! TD*
G04 #@! TA.AperFunction,HeatsinkPad*
%ADD19C,0.500000*%
G04 #@! TD*
G04 #@! TA.AperFunction,HeatsinkPad*
%ADD20R,3.000000X2.290000*%
G04 #@! TD*
G04 #@! TA.AperFunction,SMDPad,CuDef*
%ADD21RoundRect,0.150000X0.150000X-0.825000X0.150000X0.825000X-0.150000X0.825000X-0.150000X-0.825000X0*%
G04 #@! TD*
G04 #@! TA.AperFunction,SMDPad,CuDef*
%ADD22RoundRect,0.250000X0.262500X0.450000X-0.262500X0.450000X-0.262500X-0.450000X0.262500X-0.450000X0*%
G04 #@! TD*
G04 #@! TA.AperFunction,SMDPad,CuDef*
%ADD23RoundRect,0.150000X-0.825000X-0.150000X0.825000X-0.150000X0.825000X0.150000X-0.825000X0.150000X0*%
G04 #@! TD*
G04 #@! TA.AperFunction,SMDPad,CuDef*
%ADD24RoundRect,0.250000X0.450000X-0.262500X0.450000X0.262500X-0.450000X0.262500X-0.450000X-0.262500X0*%
G04 #@! TD*
G04 #@! TA.AperFunction,SMDPad,CuDef*
%ADD25FreePoly0,180.000000*%
G04 #@! TD*
G04 #@! TA.AperFunction,SMDPad,CuDef*
%ADD26FreePoly1,180.000000*%
G04 #@! TD*
G04 #@! TA.AperFunction,SMDPad,CuDef*
%ADD27RoundRect,0.250000X-0.262500X-0.450000X0.262500X-0.450000X0.262500X0.450000X-0.262500X0.450000X0*%
G04 #@! TD*
G04 #@! TA.AperFunction,SMDPad,CuDef*
%ADD28RoundRect,0.250000X0.250000X0.475000X-0.250000X0.475000X-0.250000X-0.475000X0.250000X-0.475000X0*%
G04 #@! TD*
G04 #@! TA.AperFunction,SMDPad,CuDef*
%ADD29RoundRect,0.250000X-0.475000X0.250000X-0.475000X-0.250000X0.475000X-0.250000X0.475000X0.250000X0*%
G04 #@! TD*
G04 #@! TA.AperFunction,SMDPad,CuDef*
%ADD30RoundRect,0.150000X-0.150000X0.825000X-0.150000X-0.825000X0.150000X-0.825000X0.150000X0.825000X0*%
G04 #@! TD*
G04 #@! TA.AperFunction,SMDPad,CuDef*
%ADD31RoundRect,0.150000X0.825000X0.150000X-0.825000X0.150000X-0.825000X-0.150000X0.825000X-0.150000X0*%
G04 #@! TD*
G04 #@! TA.AperFunction,SMDPad,CuDef*
%ADD32RoundRect,0.250000X-0.450000X0.262500X-0.450000X-0.262500X0.450000X-0.262500X0.450000X0.262500X0*%
G04 #@! TD*
G04 #@! TA.AperFunction,ComponentPad*
%ADD33C,4.572000*%
G04 #@! TD*
G04 #@! TA.AperFunction,ComponentPad*
%ADD34C,1.561000*%
G04 #@! TD*
G04 #@! TA.AperFunction,ComponentPad*
%ADD35R,1.561000X1.561000*%
G04 #@! TD*
G04 #@! TA.AperFunction,SMDPad,CuDef*
%ADD36R,0.650000X1.528000*%
G04 #@! TD*
G04 #@! TA.AperFunction,SMDPad,CuDef*
%ADD37FreePoly0,90.000000*%
G04 #@! TD*
G04 #@! TA.AperFunction,SMDPad,CuDef*
%ADD38FreePoly1,90.000000*%
G04 #@! TD*
G04 #@! TA.AperFunction,SMDPad,CuDef*
%ADD39R,1.460500X0.533400*%
G04 #@! TD*
G04 #@! TA.AperFunction,SMDPad,CuDef*
%ADD40R,0.450000X1.800000*%
G04 #@! TD*
G04 #@! TA.AperFunction,SMDPad,CuDef*
%ADD41R,1.333500X0.279400*%
G04 #@! TD*
G04 #@! TA.AperFunction,SMDPad,CuDef*
%ADD42FreePoly0,0.000000*%
G04 #@! TD*
G04 #@! TA.AperFunction,SMDPad,CuDef*
%ADD43FreePoly1,0.000000*%
G04 #@! TD*
G04 #@! TA.AperFunction,HeatsinkPad*
%ADD44R,2.290000X3.000000*%
G04 #@! TD*
G04 #@! TA.AperFunction,ViaPad*
%ADD45C,0.600000*%
G04 #@! TD*
G04 #@! TA.AperFunction,Conductor*
%ADD46C,0.300000*%
G04 #@! TD*
G04 #@! TA.AperFunction,Conductor*
%ADD47C,0.600000*%
G04 #@! TD*
G04 #@! TA.AperFunction,Conductor*
%ADD48C,0.200000*%
G04 #@! TD*
G04 #@! TA.AperFunction,Conductor*
%ADD49C,1.000000*%
G04 #@! TD*
G04 APERTURE END LIST*
D10*
G04 #@! TO.P,J6,1,Pin_1*
G04 #@! TO.N,GND*
X170000000Y-58525000D03*
D11*
G04 #@! TO.P,J6,2,Pin_2*
G04 #@! TO.N,/BIAS_MOD*
X170000000Y-61065000D03*
G04 #@! TD*
D12*
G04 #@! TO.P,A1,16,DIR*
G04 #@! TO.N,/StepperDrivers/DIR_1*
X192035000Y-120835000D03*
G04 #@! TO.P,A1,15,STEP*
G04 #@! TO.N,/StepperDrivers/STEP_1*
X192035000Y-123375000D03*
G04 #@! TO.P,A1,14,~{SLEEP}*
G04 #@! TO.N,+3V3*
X192035000Y-125915000D03*
G04 #@! TO.P,A1,13,~{RESET}*
X192035000Y-128455000D03*
G04 #@! TO.P,A1,12,MS3*
G04 #@! TO.N,unconnected-(A1-MS3-Pad12)*
X192035000Y-130995000D03*
G04 #@! TO.P,A1,11,MS2*
G04 #@! TO.N,unconnected-(A1-MS2-Pad11)*
X192035000Y-133535000D03*
G04 #@! TO.P,A1,10,MS1*
G04 #@! TO.N,unconnected-(A1-MS1-Pad10)*
X192035000Y-136075000D03*
G04 #@! TO.P,A1,9,~{ENABLE}*
G04 #@! TO.N,GND*
X192035000Y-138615000D03*
G04 #@! TO.P,A1,8,VMOT*
G04 #@! TO.N,+5V*
X179335000Y-138615000D03*
G04 #@! TO.P,A1,7,GND*
G04 #@! TO.N,GND*
X179335000Y-136075000D03*
G04 #@! TO.P,A1,6,2B*
G04 #@! TO.N,/2B_1*
X179335000Y-133535000D03*
G04 #@! TO.P,A1,5,2A*
G04 #@! TO.N,/2A_1*
X179335000Y-130995000D03*
G04 #@! TO.P,A1,4,1A*
G04 #@! TO.N,/1A_1*
X179335000Y-128455000D03*
G04 #@! TO.P,A1,3,1B*
G04 #@! TO.N,/1B_1*
X179335000Y-125915000D03*
G04 #@! TO.P,A1,2,VDD*
G04 #@! TO.N,+3V3*
X179335000Y-123375000D03*
D13*
G04 #@! TO.P,A1,1,GND*
G04 #@! TO.N,GND*
X179335000Y-120835000D03*
G04 #@! TD*
D14*
G04 #@! TO.P,C38,2*
G04 #@! TO.N,+3V3*
X196335000Y-128642000D03*
G04 #@! TO.P,C38,1*
G04 #@! TO.N,GND*
X196335000Y-130542000D03*
G04 #@! TD*
D15*
G04 #@! TO.P,C80,2*
G04 #@! TO.N,GND*
X187050000Y-144375000D03*
D13*
G04 #@! TO.P,C80,1*
G04 #@! TO.N,+5V*
X184550000Y-144375000D03*
G04 #@! TD*
D16*
G04 #@! TO.P,C45,1*
G04 #@! TO.N,GND*
X191155000Y-50025000D03*
G04 #@! TO.P,C45,2*
G04 #@! TO.N,-15V*
X193055000Y-50025000D03*
G04 #@! TD*
D17*
G04 #@! TO.P,H1,1,1*
G04 #@! TO.N,Shield*
X218683274Y-154833274D03*
X219166548Y-153666548D03*
X219166548Y-156000000D03*
X220333274Y-153183274D03*
D18*
X220333274Y-154833274D03*
D17*
X220333274Y-156483274D03*
X221500000Y-153666548D03*
X221500000Y-156000000D03*
X221983274Y-154833274D03*
G04 #@! TD*
D19*
G04 #@! TO.P,U3,9*
G04 #@! TO.N,N/C*
X140627000Y-88750000D03*
X139627000Y-88750000D03*
X138627000Y-88750000D03*
D20*
X139627000Y-89400000D03*
D19*
X140627000Y-90050000D03*
X139627000Y-90050000D03*
X138627000Y-90050000D03*
D21*
G04 #@! TO.P,U3,8,V+*
G04 #@! TO.N,+15V*
X137722000Y-86925000D03*
G04 #@! TO.P,U3,7*
G04 #@! TO.N,Net-(C11-Pad2)*
X138992000Y-86925000D03*
G04 #@! TO.P,U3,6,-*
G04 #@! TO.N,Net-(U3B--)*
X140262000Y-86925000D03*
G04 #@! TO.P,U3,5,+*
G04 #@! TO.N,Net-(U3B-+)*
X141532000Y-86925000D03*
G04 #@! TO.P,U3,4,V-*
G04 #@! TO.N,-15V*
X141532000Y-91875000D03*
G04 #@! TO.P,U3,3,+*
G04 #@! TO.N,GND*
X140262000Y-91875000D03*
G04 #@! TO.P,U3,2,-*
G04 #@! TO.N,Net-(U3A--)*
X138992000Y-91875000D03*
G04 #@! TO.P,U3,1*
G04 #@! TO.N,Net-(C10-Pad2)*
X137722000Y-91875000D03*
G04 #@! TD*
D22*
G04 #@! TO.P,R51,2*
G04 #@! TO.N,/Z*
X156292500Y-83061000D03*
G04 #@! TO.P,R51,1*
G04 #@! TO.N,Net-(U5B--)*
X158117500Y-83061000D03*
G04 #@! TD*
D23*
G04 #@! TO.P,U12,8*
G04 #@! TO.N,/AIN-*
X176570000Y-98250000D03*
G04 #@! TO.P,U12,7,V-*
G04 #@! TO.N,-15V*
X176570000Y-99520000D03*
G04 #@! TO.P,U12,6*
G04 #@! TO.N,Net-(U11-Pad6)*
X176570000Y-100790000D03*
G04 #@! TO.P,U12,5,VL*
G04 #@! TO.N,+5V*
X176570000Y-102060000D03*
G04 #@! TO.P,U12,4,V+*
G04 #@! TO.N,+15V*
X171620000Y-102060000D03*
G04 #@! TO.P,U12,3,GND*
G04 #@! TO.N,GND*
X171620000Y-100790000D03*
G04 #@! TO.P,U12,2*
G04 #@! TO.N,/T_Amp-*
X171620000Y-99520000D03*
G04 #@! TO.P,U12,1*
G04 #@! TO.N,Net-(JP31-Pad2)*
X171620000Y-98250000D03*
G04 #@! TD*
D24*
G04 #@! TO.P,R34,2*
G04 #@! TO.N,Net-(U4B-+)*
X147627000Y-62337500D03*
G04 #@! TO.P,R34,1*
G04 #@! TO.N,GND*
X147627000Y-64162500D03*
G04 #@! TD*
D25*
G04 #@! TO.P,JP12,2,2*
G04 #@! TO.N,Net-(C39-Pad1)*
X213550000Y-81912500D03*
D26*
G04 #@! TO.P,JP12,1,1*
G04 #@! TO.N,Shield*
X215000000Y-81912500D03*
G04 #@! TD*
D16*
G04 #@! TO.P,C36,2*
G04 #@! TO.N,Net-(U8-VDDLBYP)*
X183500100Y-93155000D03*
G04 #@! TO.P,C36,1*
G04 #@! TO.N,GND*
X181600100Y-93155000D03*
G04 #@! TD*
D22*
G04 #@! TO.P,R54,2*
G04 #@! TO.N,Net-(U6B--)*
X174587500Y-83281000D03*
G04 #@! TO.P,R54,1*
G04 #@! TO.N,/DAC/Buff_Out*
X176412500Y-83281000D03*
G04 #@! TD*
G04 #@! TO.P,R25,2*
G04 #@! TO.N,Net-(C11-Pad2)*
X139164500Y-79250000D03*
G04 #@! TO.P,R25,1*
G04 #@! TO.N,Net-(U3B--)*
X140989500Y-79250000D03*
G04 #@! TD*
G04 #@! TO.P,R33,2*
G04 #@! TO.N,Net-(U4B-+)*
X145714500Y-59750000D03*
G04 #@! TO.P,R33,1*
G04 #@! TO.N,/Y*
X147539500Y-59750000D03*
G04 #@! TD*
D27*
G04 #@! TO.P,R39,2*
G04 #@! TO.N,+5V*
X189412500Y-67750000D03*
G04 #@! TO.P,R39,1*
G04 #@! TO.N,/CS_DAC*
X187587500Y-67750000D03*
G04 #@! TD*
D16*
G04 #@! TO.P,C39,2*
G04 #@! TO.N,GND*
X210657500Y-78062500D03*
G04 #@! TO.P,C39,1*
G04 #@! TO.N,Net-(C39-Pad1)*
X208757500Y-78062500D03*
G04 #@! TD*
D28*
G04 #@! TO.P,C15,2*
G04 #@! TO.N,Net-(C15-Pad2)*
X139177000Y-58750000D03*
G04 #@! TO.P,C15,1*
G04 #@! TO.N,Net-(U4B--)*
X141077000Y-58750000D03*
G04 #@! TD*
D15*
G04 #@! TO.P,C85,2*
G04 #@! TO.N,GND*
X182100000Y-50400000D03*
D13*
G04 #@! TO.P,C85,1*
G04 #@! TO.N,Net-(U2A-+)*
X182100000Y-47900000D03*
G04 #@! TD*
D29*
G04 #@! TO.P,C42,2*
G04 #@! TO.N,GND*
X153412500Y-75311000D03*
G04 #@! TO.P,C42,1*
G04 #@! TO.N,+15V*
X153412500Y-73411000D03*
G04 #@! TD*
D28*
G04 #@! TO.P,C14,2*
G04 #@! TO.N,Net-(C14-Pad2)*
X137677000Y-70750000D03*
G04 #@! TO.P,C14,1*
G04 #@! TO.N,Net-(U4A--)*
X139577000Y-70750000D03*
G04 #@! TD*
D14*
G04 #@! TO.P,C23,2*
G04 #@! TO.N,/DAC/RFBD*
X164455000Y-69411000D03*
G04 #@! TO.P,C23,1*
G04 #@! TO.N,/DAC/IOUTD*
X164455000Y-71311000D03*
G04 #@! TD*
D27*
G04 #@! TO.P,R30,2*
G04 #@! TO.N,Net-(C39-Pad1)*
X210762500Y-81912500D03*
G04 #@! TO.P,R30,1*
G04 #@! TO.N,GND*
X208937500Y-81912500D03*
G04 #@! TD*
D29*
G04 #@! TO.P,C123,2*
G04 #@! TO.N,+15V*
X199000000Y-50400000D03*
G04 #@! TO.P,C123,1*
G04 #@! TO.N,GND*
X199000000Y-48500000D03*
G04 #@! TD*
D22*
G04 #@! TO.P,R60,2*
G04 #@! TO.N,Net-(U8-SDO)*
X194966400Y-88153700D03*
G04 #@! TO.P,R60,1*
G04 #@! TO.N,/MISO_ADC*
X196791400Y-88153700D03*
G04 #@! TD*
D23*
G04 #@! TO.P,U6,14*
G04 #@! TO.N,/DAC/RFBB*
X175950000Y-69931000D03*
G04 #@! TO.P,U6,13,-*
G04 #@! TO.N,/DAC/IOUTB*
X175950000Y-71201000D03*
G04 #@! TO.P,U6,12,+*
G04 #@! TO.N,GND*
X175950000Y-72471000D03*
G04 #@! TO.P,U6,11,V-*
G04 #@! TO.N,-15V*
X175950000Y-73741000D03*
G04 #@! TO.P,U6,10,+*
G04 #@! TO.N,GND*
X175950000Y-75011000D03*
G04 #@! TO.P,U6,9,-*
G04 #@! TO.N,/DAC/IOUTC*
X175950000Y-76281000D03*
G04 #@! TO.P,U6,8*
G04 #@! TO.N,/DAC/RFBC*
X175950000Y-77551000D03*
G04 #@! TO.P,U6,7*
G04 #@! TO.N,/X*
X171000000Y-77551000D03*
G04 #@! TO.P,U6,6,-*
G04 #@! TO.N,Net-(U6B--)*
X171000000Y-76281000D03*
G04 #@! TO.P,U6,5,+*
G04 #@! TO.N,GND*
X171000000Y-75011000D03*
G04 #@! TO.P,U6,4,V+*
G04 #@! TO.N,+15V*
X171000000Y-73741000D03*
G04 #@! TO.P,U6,3,+*
G04 #@! TO.N,GND*
X171000000Y-72471000D03*
G04 #@! TO.P,U6,2,-*
G04 #@! TO.N,Net-(U6A--)*
X171000000Y-71201000D03*
G04 #@! TO.P,U6,1*
G04 #@! TO.N,/Y*
X171000000Y-69931000D03*
G04 #@! TD*
D19*
G04 #@! TO.P,U2,9*
G04 #@! TO.N,N/C*
X193605000Y-56175000D03*
X194605000Y-56175000D03*
X195605000Y-56175000D03*
D20*
X194605000Y-55525000D03*
D19*
X193605000Y-54875000D03*
X194605000Y-54875000D03*
X195605000Y-54875000D03*
D30*
G04 #@! TO.P,U2,8,V+*
G04 #@! TO.N,+15V*
X196510000Y-58000000D03*
G04 #@! TO.P,U2,7*
G04 #@! TO.N,/DAC/Buff_Out*
X195240000Y-58000000D03*
G04 #@! TO.P,U2,6,-*
X193970000Y-58000000D03*
G04 #@! TO.P,U2,5,+*
G04 #@! TO.N,/DAC/10V_REF*
X192700000Y-58000000D03*
G04 #@! TO.P,U2,4,V-*
G04 #@! TO.N,-15V*
X192700000Y-53050000D03*
G04 #@! TO.P,U2,3,+*
G04 #@! TO.N,Net-(U2A-+)*
X193970000Y-53050000D03*
G04 #@! TO.P,U2,2,-*
G04 #@! TO.N,/DAC/10V_REF*
X195240000Y-53050000D03*
G04 #@! TO.P,U2,1*
X196510000Y-53050000D03*
G04 #@! TD*
D24*
G04 #@! TO.P,R58,2*
G04 #@! TO.N,Net-(R58-Pad2)*
X164500000Y-61337500D03*
G04 #@! TO.P,R58,1*
G04 #@! TO.N,Net-(U5A--)*
X164500000Y-63162500D03*
G04 #@! TD*
D16*
G04 #@! TO.P,C134,2*
G04 #@! TO.N,GND*
X214350000Y-99400000D03*
G04 #@! TO.P,C134,1*
G04 #@! TO.N,+3V3*
X212450000Y-99400000D03*
G04 #@! TD*
D28*
G04 #@! TO.P,C44,2*
G04 #@! TO.N,GND*
X194605000Y-60775000D03*
G04 #@! TO.P,C44,1*
G04 #@! TO.N,+15V*
X196505000Y-60775000D03*
G04 #@! TD*
D27*
G04 #@! TO.P,R61,2*
G04 #@! TO.N,Net-(U9-+INA)*
X170257500Y-94405000D03*
G04 #@! TO.P,R61,1*
G04 #@! TO.N,Net-(C29-Pad1)*
X168432500Y-94405000D03*
G04 #@! TD*
D31*
G04 #@! TO.P,U7,8*
G04 #@! TO.N,/BIAS_MOD*
X156775000Y-61405000D03*
G04 #@! TO.P,U7,7,V-*
G04 #@! TO.N,-15V*
X156775000Y-60135000D03*
G04 #@! TO.P,U7,6*
G04 #@! TO.N,/BIAS_MOD_EN*
X156775000Y-58865000D03*
G04 #@! TO.P,U7,5,VL*
G04 #@! TO.N,+5V*
X156775000Y-57595000D03*
G04 #@! TO.P,U7,4,V+*
G04 #@! TO.N,+15V*
X161725000Y-57595000D03*
G04 #@! TO.P,U7,3,GND*
G04 #@! TO.N,GND*
X161725000Y-58865000D03*
G04 #@! TO.P,U7,2*
X161725000Y-60135000D03*
G04 #@! TO.P,U7,1*
G04 #@! TO.N,Net-(R58-Pad2)*
X161725000Y-61405000D03*
G04 #@! TD*
D24*
G04 #@! TO.P,R27,2*
G04 #@! TO.N,Net-(U3B-+)*
X148127000Y-86837500D03*
G04 #@! TO.P,R27,1*
G04 #@! TO.N,GND*
X148127000Y-88662500D03*
G04 #@! TD*
D32*
G04 #@! TO.P,R59,2*
G04 #@! TO.N,Net-(C29-Pad1)*
X164500000Y-89662500D03*
G04 #@! TO.P,R59,1*
G04 #@! TO.N,Net-(JP30-Pad2)*
X164500000Y-87837500D03*
G04 #@! TD*
D29*
G04 #@! TO.P,C22,2*
G04 #@! TO.N,/DAC/RFBC*
X179000000Y-79281000D03*
G04 #@! TO.P,C22,1*
G04 #@! TO.N,/DAC/IOUTC*
X179000000Y-77381000D03*
G04 #@! TD*
D14*
G04 #@! TO.P,C13,2*
G04 #@! TO.N,Net-(U4B-+)*
X144627000Y-62300000D03*
G04 #@! TO.P,C13,1*
G04 #@! TO.N,GND*
X144627000Y-64200000D03*
G04 #@! TD*
D11*
G04 #@! TO.P,J5,2,Pin_2*
G04 #@! TO.N,/AIN+*
X189800000Y-97735000D03*
D10*
G04 #@! TO.P,J5,1,Pin_1*
G04 #@! TO.N,/AIN-*
X189800000Y-100275000D03*
G04 #@! TD*
D22*
G04 #@! TO.P,R36,2*
G04 #@! TO.N,Net-(C15-Pad2)*
X139214500Y-55750000D03*
G04 #@! TO.P,R36,1*
G04 #@! TO.N,Net-(U4B--)*
X141039500Y-55750000D03*
G04 #@! TD*
D12*
G04 #@! TO.P,A2,16,DIR*
G04 #@! TO.N,/StepperDrivers/DIR_2*
X171327000Y-111124000D03*
G04 #@! TO.P,A2,15,STEP*
G04 #@! TO.N,/StepperDrivers/STEP_2*
X171327000Y-113664000D03*
G04 #@! TO.P,A2,14,~{SLEEP}*
G04 #@! TO.N,+3V3*
X171327000Y-116204000D03*
G04 #@! TO.P,A2,13,~{RESET}*
X171327000Y-118744000D03*
G04 #@! TO.P,A2,12,MS3*
G04 #@! TO.N,unconnected-(A2-MS3-Pad12)*
X171327000Y-121284000D03*
G04 #@! TO.P,A2,11,MS2*
G04 #@! TO.N,unconnected-(A2-MS2-Pad11)*
X171327000Y-123824000D03*
G04 #@! TO.P,A2,10,MS1*
G04 #@! TO.N,unconnected-(A2-MS1-Pad10)*
X171327000Y-126364000D03*
G04 #@! TO.P,A2,9,~{ENABLE}*
G04 #@! TO.N,GND*
X171327000Y-128904000D03*
G04 #@! TO.P,A2,8,VMOT*
G04 #@! TO.N,+5V*
X158627000Y-128904000D03*
G04 #@! TO.P,A2,7,GND*
G04 #@! TO.N,GND*
X158627000Y-126364000D03*
G04 #@! TO.P,A2,6,2B*
G04 #@! TO.N,/2B_2*
X158627000Y-123824000D03*
G04 #@! TO.P,A2,5,2A*
G04 #@! TO.N,/2A_2*
X158627000Y-121284000D03*
G04 #@! TO.P,A2,4,1A*
G04 #@! TO.N,/1A_2*
X158627000Y-118744000D03*
G04 #@! TO.P,A2,3,1B*
G04 #@! TO.N,/1B_2*
X158627000Y-116204000D03*
G04 #@! TO.P,A2,2,VDD*
G04 #@! TO.N,+3V3*
X158627000Y-113664000D03*
D13*
G04 #@! TO.P,A2,1,GND*
G04 #@! TO.N,GND*
X158627000Y-111124000D03*
G04 #@! TD*
D15*
G04 #@! TO.P,C78,2*
G04 #@! TO.N,+15V*
X204000000Y-50500000D03*
D13*
G04 #@! TO.P,C78,1*
G04 #@! TO.N,GND*
X204000000Y-48500000D03*
G04 #@! TD*
D15*
G04 #@! TO.P,C84,2*
G04 #@! TO.N,GND*
X182100000Y-54755100D03*
D13*
G04 #@! TO.P,C84,1*
G04 #@! TO.N,+15V*
X182100000Y-56755100D03*
G04 #@! TD*
D22*
G04 #@! TO.P,R35,2*
G04 #@! TO.N,Net-(C14-Pad2)*
X137714500Y-74250000D03*
G04 #@! TO.P,R35,1*
G04 #@! TO.N,Net-(U4A--)*
X139539500Y-74250000D03*
G04 #@! TD*
G04 #@! TO.P,R26,2*
G04 #@! TO.N,Net-(U3B-+)*
X145837500Y-84067000D03*
G04 #@! TO.P,R26,1*
G04 #@! TO.N,/X*
X147662500Y-84067000D03*
G04 #@! TD*
D28*
G04 #@! TO.P,C34,2*
G04 #@! TO.N,Net-(U8-REFIN)*
X187645000Y-93655000D03*
G04 #@! TO.P,C34,1*
G04 #@! TO.N,GND*
X189545000Y-93655000D03*
G04 #@! TD*
D22*
G04 #@! TO.P,R22,2*
G04 #@! TO.N,Net-(U3A--)*
X144337500Y-95317000D03*
G04 #@! TO.P,R22,1*
G04 #@! TO.N,/X*
X146162500Y-95317000D03*
G04 #@! TD*
D14*
G04 #@! TO.P,C41,2*
G04 #@! TO.N,-15V*
X179000000Y-73331000D03*
G04 #@! TO.P,C41,1*
G04 #@! TO.N,GND*
X179000000Y-75231000D03*
G04 #@! TD*
G04 #@! TO.P,C12,2*
G04 #@! TO.N,Net-(U3B-+)*
X144627000Y-86800000D03*
G04 #@! TO.P,C12,1*
G04 #@! TO.N,GND*
X144627000Y-88700000D03*
G04 #@! TD*
D11*
G04 #@! TO.P,J4,2,Pin_2*
G04 #@! TO.N,/IOUT+*
X155760000Y-88135000D03*
D10*
G04 #@! TO.P,J4,1,Pin_1*
G04 #@! TO.N,/IOUT-*
X158300000Y-88135000D03*
G04 #@! TD*
D28*
G04 #@! TO.P,C18,2*
G04 #@! TO.N,-15V*
X144177000Y-67750000D03*
G04 #@! TO.P,C18,1*
G04 #@! TO.N,GND*
X146077000Y-67750000D03*
G04 #@! TD*
D15*
G04 #@! TO.P,C79,2*
G04 #@! TO.N,GND*
X152623000Y-126433400D03*
D13*
G04 #@! TO.P,C79,1*
G04 #@! TO.N,+5V*
X152623000Y-128933400D03*
G04 #@! TD*
D29*
G04 #@! TO.P,C17,2*
G04 #@! TO.N,GND*
X135127000Y-64700000D03*
G04 #@! TO.P,C17,1*
G04 #@! TO.N,+15V*
X135127000Y-62800000D03*
G04 #@! TD*
D27*
G04 #@! TO.P,R63,2*
G04 #@! TO.N,Net-(U9-+INB)*
X170257500Y-104655000D03*
G04 #@! TO.P,R63,1*
G04 #@! TO.N,Net-(C31-Pad1)*
X168432500Y-104655000D03*
G04 #@! TD*
D33*
G04 #@! TO.P,J3,MH2,MH2*
G04 #@! TO.N,Shield*
X128500000Y-115416000D03*
G04 #@! TO.P,J3,MH1,MH1*
X128500000Y-148741000D03*
D34*
G04 #@! TO.P,J3,15,15*
G04 #@! TO.N,/1B_1*
X127077000Y-123849000D03*
G04 #@! TO.P,J3,14,14*
G04 #@! TO.N,/2B_1*
X127077000Y-126592000D03*
G04 #@! TO.P,J3,13,13*
G04 #@! TO.N,/1A_2*
X127077000Y-129336000D03*
G04 #@! TO.P,J3,12,12*
G04 #@! TO.N,/2B_2*
X127077000Y-132079000D03*
G04 #@! TO.P,J3,11,11*
G04 #@! TO.N,GND*
X127077000Y-134822000D03*
G04 #@! TO.P,J3,10,10*
G04 #@! TO.N,-15V*
X127077000Y-137565000D03*
G04 #@! TO.P,J3,9,9*
G04 #@! TO.N,+15V*
X127077000Y-140308000D03*
G04 #@! TO.P,J3,8,8*
G04 #@! TO.N,/1A_1*
X129922000Y-122478000D03*
G04 #@! TO.P,J3,7,7*
G04 #@! TO.N,/2A_1*
X129922000Y-125221000D03*
G04 #@! TO.P,J3,6,6*
G04 #@! TO.N,/1B_2*
X129922000Y-127964000D03*
G04 #@! TO.P,J3,5,5*
G04 #@! TO.N,/2A_2*
X129922000Y-130707000D03*
G04 #@! TO.P,J3,4,4*
G04 #@! TO.N,/1B_3*
X129922000Y-133450000D03*
G04 #@! TO.P,J3,3,3*
G04 #@! TO.N,/1A_3*
X129922000Y-136194000D03*
G04 #@! TO.P,J3,2,2*
G04 #@! TO.N,/2A_3*
X129922000Y-138937000D03*
D35*
G04 #@! TO.P,J3,1,1*
G04 #@! TO.N,/2B_3*
X129922000Y-141680000D03*
G04 #@! TD*
D24*
G04 #@! TO.P,R37,2*
G04 #@! TO.N,/Z+Y*
X135127000Y-72337500D03*
G04 #@! TO.P,R37,1*
G04 #@! TO.N,Net-(C14-Pad2)*
X135127000Y-74162500D03*
G04 #@! TD*
D15*
G04 #@! TO.P,C81,2*
G04 #@! TO.N,GND*
X204000000Y-57455100D03*
D13*
G04 #@! TO.P,C81,1*
G04 #@! TO.N,+3V3*
X204000000Y-55455100D03*
G04 #@! TD*
D29*
G04 #@! TO.P,C46,2*
G04 #@! TO.N,GND*
X164500000Y-59000000D03*
G04 #@! TO.P,C46,1*
G04 #@! TO.N,+15V*
X164500000Y-57100000D03*
G04 #@! TD*
D23*
G04 #@! TO.P,U11,8*
G04 #@! TO.N,/AIN+*
X176595000Y-88115000D03*
G04 #@! TO.P,U11,7,V-*
G04 #@! TO.N,-15V*
X176595000Y-89385000D03*
G04 #@! TO.P,U11,6*
G04 #@! TO.N,Net-(U11-Pad6)*
X176595000Y-90655000D03*
G04 #@! TO.P,U11,5,VL*
G04 #@! TO.N,+5V*
X176595000Y-91925000D03*
G04 #@! TO.P,U11,4,V+*
G04 #@! TO.N,+15V*
X171645000Y-91925000D03*
G04 #@! TO.P,U11,3,GND*
G04 #@! TO.N,GND*
X171645000Y-90655000D03*
G04 #@! TO.P,U11,2*
G04 #@! TO.N,/T_Amp+*
X171645000Y-89385000D03*
G04 #@! TO.P,U11,1*
G04 #@! TO.N,Net-(JP30-Pad2)*
X171645000Y-88115000D03*
G04 #@! TD*
D22*
G04 #@! TO.P,R29,2*
G04 #@! TO.N,Net-(U4A--)*
X144087500Y-74317000D03*
G04 #@! TO.P,R29,1*
G04 #@! TO.N,/Z*
X145912500Y-74317000D03*
G04 #@! TD*
D33*
G04 #@! TO.P,J2,MH2,MH2*
G04 #@! TO.N,Shield*
X128500000Y-65916000D03*
G04 #@! TO.P,J2,MH1,MH1*
X128500000Y-99241000D03*
D34*
G04 #@! TO.P,J2,15,15*
G04 #@! TO.N,/Z-Y*
X127077000Y-74349000D03*
G04 #@! TO.P,J2,14,14*
G04 #@! TO.N,GND*
X127077000Y-77092000D03*
G04 #@! TO.P,J2,13,13*
X127077000Y-79836000D03*
G04 #@! TO.P,J2,12,12*
X127077000Y-82579000D03*
G04 #@! TO.P,J2,11,11*
X127077000Y-85322000D03*
G04 #@! TO.P,J2,10,10*
X127077000Y-88065000D03*
G04 #@! TO.P,J2,9,9*
X127077000Y-90808000D03*
G04 #@! TO.P,J2,8,8*
G04 #@! TO.N,/Z+Y*
X129922000Y-72978000D03*
G04 #@! TO.P,J2,7,7*
G04 #@! TO.N,/Connectors/BIAS*
X129922000Y-75721000D03*
G04 #@! TO.P,J2,6,6*
G04 #@! TO.N,GND*
X129922000Y-78464000D03*
G04 #@! TO.P,J2,5,5*
G04 #@! TO.N,/Z-X*
X129922000Y-81207000D03*
G04 #@! TO.P,J2,4,4*
G04 #@! TO.N,/Z+X*
X129922000Y-83950000D03*
G04 #@! TO.P,J2,3,3*
G04 #@! TO.N,GND*
X129922000Y-86694000D03*
G04 #@! TO.P,J2,2,2*
G04 #@! TO.N,/T_Amp+*
X129922000Y-89437000D03*
D35*
G04 #@! TO.P,J2,1,1*
G04 #@! TO.N,/T_Amp-*
X129922000Y-92180000D03*
G04 #@! TD*
D15*
G04 #@! TO.P,C77,2*
G04 #@! TO.N,GND*
X204000000Y-41455100D03*
D13*
G04 #@! TO.P,C77,1*
G04 #@! TO.N,-15V*
X204000000Y-43455100D03*
G04 #@! TD*
D28*
G04 #@! TO.P,C10,2*
G04 #@! TO.N,Net-(C10-Pad2)*
X137677000Y-95250000D03*
G04 #@! TO.P,C10,1*
G04 #@! TO.N,Net-(U3A--)*
X139577000Y-95250000D03*
G04 #@! TD*
D22*
G04 #@! TO.P,R52,2*
G04 #@! TO.N,Net-(U6A--)*
X174587500Y-67281000D03*
G04 #@! TO.P,R52,1*
G04 #@! TO.N,/DAC/Buff_Out*
X176412500Y-67281000D03*
G04 #@! TD*
D15*
G04 #@! TO.P,C83,2*
G04 #@! TO.N,GND*
X152623000Y-149274000D03*
D13*
G04 #@! TO.P,C83,1*
G04 #@! TO.N,+5V*
X152623000Y-151774000D03*
G04 #@! TD*
D14*
G04 #@! TO.P,C43,2*
G04 #@! TO.N,-15V*
X164455000Y-73411000D03*
G04 #@! TO.P,C43,1*
G04 #@! TO.N,GND*
X164455000Y-75311000D03*
G04 #@! TD*
D23*
G04 #@! TO.P,U5,14*
G04 #@! TO.N,/DAC/RFBD*
X161430000Y-69961000D03*
G04 #@! TO.P,U5,13,-*
G04 #@! TO.N,/DAC/IOUTD*
X161430000Y-71231000D03*
G04 #@! TO.P,U5,12,+*
G04 #@! TO.N,GND*
X161430000Y-72501000D03*
G04 #@! TO.P,U5,11,V-*
G04 #@! TO.N,-15V*
X161430000Y-73771000D03*
G04 #@! TO.P,U5,10,+*
G04 #@! TO.N,GND*
X161430000Y-75041000D03*
G04 #@! TO.P,U5,9,-*
G04 #@! TO.N,/DAC/IOUTA*
X161430000Y-76311000D03*
G04 #@! TO.P,U5,8*
G04 #@! TO.N,/DAC/RFBA*
X161430000Y-77581000D03*
G04 #@! TO.P,U5,7*
G04 #@! TO.N,/Z*
X156480000Y-77581000D03*
G04 #@! TO.P,U5,6,-*
G04 #@! TO.N,Net-(U5B--)*
X156480000Y-76311000D03*
G04 #@! TO.P,U5,5,+*
G04 #@! TO.N,GND*
X156480000Y-75041000D03*
G04 #@! TO.P,U5,4,V+*
G04 #@! TO.N,+15V*
X156480000Y-73771000D03*
G04 #@! TO.P,U5,3,+*
G04 #@! TO.N,GND*
X156480000Y-72501000D03*
G04 #@! TO.P,U5,2,-*
G04 #@! TO.N,Net-(U5A--)*
X156480000Y-71231000D03*
G04 #@! TO.P,U5,1*
G04 #@! TO.N,/Connectors/BIAS*
X156480000Y-69961000D03*
G04 #@! TD*
D28*
G04 #@! TO.P,C25,2*
G04 #@! TO.N,/Y*
X170600000Y-67281000D03*
G04 #@! TO.P,C25,1*
G04 #@! TO.N,Net-(U6A--)*
X172500000Y-67281000D03*
G04 #@! TD*
D36*
G04 #@! TO.P,IC1,8,NOISE_REDUCTION*
G04 #@! TO.N,Net-(IC1-NOISE_REDUCTION)*
X186450000Y-52814000D03*
G04 #@! TO.P,IC1,7,NC_3*
G04 #@! TO.N,unconnected-(IC1-NC_3-Pad7)*
X187720000Y-52814000D03*
G04 #@! TO.P,IC1,6,VOUT*
G04 #@! TO.N,Net-(IC1-VOUT)*
X188990000Y-52814000D03*
G04 #@! TO.P,IC1,5,TRIM*
G04 #@! TO.N,unconnected-(IC1-TRIM-Pad5)*
X190260000Y-52814000D03*
G04 #@! TO.P,IC1,4,COM*
G04 #@! TO.N,GND*
X190260000Y-58236000D03*
G04 #@! TO.P,IC1,3,NC_2*
G04 #@! TO.N,unconnected-(IC1-NC_2-Pad3)*
X188990000Y-58236000D03*
G04 #@! TO.P,IC1,2,V+*
G04 #@! TO.N,+15V*
X187720000Y-58236000D03*
G04 #@! TO.P,IC1,1,NC_1*
G04 #@! TO.N,unconnected-(IC1-NC_1-Pad1)*
X186450000Y-58236000D03*
G04 #@! TD*
D29*
G04 #@! TO.P,C16,2*
G04 #@! TO.N,/DAC/RFBA*
X164455000Y-79311000D03*
G04 #@! TO.P,C16,1*
G04 #@! TO.N,/DAC/IOUTA*
X164455000Y-77411000D03*
G04 #@! TD*
D24*
G04 #@! TO.P,R24,2*
G04 #@! TO.N,/Z-X*
X135127000Y-80837500D03*
G04 #@! TO.P,R24,1*
G04 #@! TO.N,Net-(C11-Pad2)*
X135127000Y-82662500D03*
G04 #@! TD*
D14*
G04 #@! TO.P,C20,2*
G04 #@! TO.N,GND*
X135127000Y-85350000D03*
G04 #@! TO.P,C20,1*
G04 #@! TO.N,+15V*
X135127000Y-87250000D03*
G04 #@! TD*
D28*
G04 #@! TO.P,C131,2*
G04 #@! TO.N,+5V*
X212450000Y-94200000D03*
G04 #@! TO.P,C131,1*
G04 #@! TO.N,GND*
X214350000Y-94200000D03*
G04 #@! TD*
D37*
G04 #@! TO.P,JP30,2,2*
G04 #@! TO.N,Net-(JP30-Pad2)*
X168000000Y-88025000D03*
D38*
G04 #@! TO.P,JP30,1,1*
G04 #@! TO.N,/T_Amp+*
X168000000Y-89475000D03*
G04 #@! TD*
D14*
G04 #@! TO.P,C28,2*
G04 #@! TO.N,+3V3*
X175627000Y-118824000D03*
G04 #@! TO.P,C28,1*
G04 #@! TO.N,GND*
X175627000Y-120724000D03*
G04 #@! TD*
D32*
G04 #@! TO.P,R38,2*
G04 #@! TO.N,/Z-Y*
X135127000Y-60229500D03*
G04 #@! TO.P,R38,1*
G04 #@! TO.N,Net-(C15-Pad2)*
X135127000Y-58404500D03*
G04 #@! TD*
D15*
G04 #@! TO.P,C82,2*
G04 #@! TO.N,GND*
X204000000Y-64455100D03*
D13*
G04 #@! TO.P,C82,1*
G04 #@! TO.N,+5V*
X204000000Y-62455100D03*
G04 #@! TD*
D22*
G04 #@! TO.P,R56,2*
G04 #@! TO.N,Net-(U5A--)*
X160267500Y-67331000D03*
G04 #@! TO.P,R56,1*
G04 #@! TO.N,/DAC/Buff_Out*
X162092500Y-67331000D03*
G04 #@! TD*
G04 #@! TO.P,R53,2*
G04 #@! TO.N,/Y*
X170587500Y-64281000D03*
G04 #@! TO.P,R53,1*
G04 #@! TO.N,Net-(U6A--)*
X172412500Y-64281000D03*
G04 #@! TD*
D14*
G04 #@! TO.P,C122,2*
G04 #@! TO.N,GND*
X199000000Y-41600000D03*
G04 #@! TO.P,C122,1*
G04 #@! TO.N,-15V*
X199000000Y-43500000D03*
G04 #@! TD*
D22*
G04 #@! TO.P,R31,2*
G04 #@! TO.N,Net-(U4A--)*
X144214500Y-70817000D03*
G04 #@! TO.P,R31,1*
G04 #@! TO.N,/Y*
X146039500Y-70817000D03*
G04 #@! TD*
D37*
G04 #@! TO.P,JP31,2,2*
G04 #@! TO.N,Net-(JP31-Pad2)*
X168000000Y-98275000D03*
D38*
G04 #@! TO.P,JP31,1,1*
G04 #@! TO.N,/T_Amp-*
X168000000Y-99725000D03*
G04 #@! TD*
D39*
G04 #@! TO.P,U9,8,V+*
G04 #@! TO.N,+15V*
X186319150Y-97250000D03*
G04 #@! TO.P,U9,7,OUTB*
G04 #@! TO.N,/ADC/OUTB*
X186319150Y-98520000D03*
G04 #@! TO.P,U9,6,-INB*
G04 #@! TO.N,Net-(U9--INB)*
X186319150Y-99790000D03*
G04 #@! TO.P,U9,5,+INB*
G04 #@! TO.N,Net-(U9-+INB)*
X186319150Y-101060000D03*
G04 #@! TO.P,U9,4,V-*
G04 #@! TO.N,-15V*
X180870850Y-101060000D03*
G04 #@! TO.P,U9,3,+INA*
G04 #@! TO.N,Net-(U9-+INA)*
X180870850Y-99790000D03*
G04 #@! TO.P,U9,2,-INA*
G04 #@! TO.N,Net-(U9--INA)*
X180870850Y-98520000D03*
G04 #@! TO.P,U9,1,OUTA*
G04 #@! TO.N,/ADC/OUTA*
X180870850Y-97250000D03*
G04 #@! TD*
D16*
G04 #@! TO.P,C130,2*
G04 #@! TO.N,GND*
X214400000Y-96800000D03*
G04 #@! TO.P,C130,1*
G04 #@! TO.N,+3V3*
X212500000Y-96800000D03*
G04 #@! TD*
G04 #@! TO.P,C29,2*
G04 #@! TO.N,Net-(U9--INA)*
X174345000Y-94405000D03*
G04 #@! TO.P,C29,1*
G04 #@! TO.N,Net-(C29-Pad1)*
X172445000Y-94405000D03*
G04 #@! TD*
D33*
G04 #@! TO.P,J1,MH2,MH2*
G04 #@! TO.N,Shield*
X215627000Y-71733000D03*
G04 #@! TO.P,J1,MH1,MH1*
X215627000Y-38408000D03*
D34*
G04 #@! TO.P,J1,15,15*
G04 #@! TO.N,unconnected-(J1-Pad15)*
X217050000Y-63300000D03*
G04 #@! TO.P,J1,14,14*
G04 #@! TO.N,+5V*
X217050000Y-60557000D03*
G04 #@! TO.P,J1,13,13*
G04 #@! TO.N,GND*
X217050000Y-57813000D03*
G04 #@! TO.P,J1,12,12*
G04 #@! TO.N,+3V3*
X217050000Y-55070000D03*
G04 #@! TO.P,J1,11,11*
G04 #@! TO.N,+15V*
X217050000Y-52327000D03*
G04 #@! TO.P,J1,10,10*
G04 #@! TO.N,GND*
X217050000Y-49584000D03*
G04 #@! TO.P,J1,9,9*
G04 #@! TO.N,-15V*
X217050000Y-46841000D03*
G04 #@! TO.P,J1,8,8*
G04 #@! TO.N,/PS_Temp_SDA*
X214205000Y-64671000D03*
G04 #@! TO.P,J1,7,7*
G04 #@! TO.N,/PS_Temp_SCL*
X214205000Y-61928000D03*
G04 #@! TO.P,J1,6,6*
G04 #@! TO.N,+5V*
X214205000Y-59185000D03*
G04 #@! TO.P,J1,5,5*
G04 #@! TO.N,GND*
X214205000Y-56442000D03*
G04 #@! TO.P,J1,4,4*
G04 #@! TO.N,+3V3*
X214205000Y-53699000D03*
G04 #@! TO.P,J1,3,3*
G04 #@! TO.N,+15V*
X214205000Y-50955000D03*
G04 #@! TO.P,J1,2,2*
G04 #@! TO.N,GND*
X214205000Y-48212000D03*
D35*
G04 #@! TO.P,J1,1,1*
G04 #@! TO.N,-15V*
X214205000Y-45469000D03*
G04 #@! TD*
D28*
G04 #@! TO.P,C26,2*
G04 #@! TO.N,/X*
X170600000Y-80281000D03*
G04 #@! TO.P,C26,1*
G04 #@! TO.N,Net-(U6B--)*
X172500000Y-80281000D03*
G04 #@! TD*
D22*
G04 #@! TO.P,R32,2*
G04 #@! TO.N,Net-(U4B--)*
X143714500Y-55750000D03*
G04 #@! TO.P,R32,1*
G04 #@! TO.N,/Z*
X145539500Y-55750000D03*
G04 #@! TD*
D15*
G04 #@! TO.P,U1,44,33_MCLK2*
G04 #@! TO.N,unconnected-(U1-33_MCLK2-Pad44)*
X147120000Y-49000000D03*
G04 #@! TO.P,U1,43,32_OUT1B*
G04 #@! TO.N,unconnected-(U1-32_OUT1B-Pad43)*
X149660000Y-49000000D03*
G04 #@! TO.P,U1,42,31_CTX3*
G04 #@! TO.N,unconnected-(U1-31_CTX3-Pad42)*
X147120000Y-46460000D03*
G04 #@! TO.P,U1,41,30_CRX3*
G04 #@! TO.N,unconnected-(U1-30_CRX3-Pad41)*
X149660000Y-46460000D03*
G04 #@! TO.P,U1,40,29_TX7*
G04 #@! TO.N,unconnected-(U1-29_TX7-Pad40)*
X147120000Y-43920000D03*
G04 #@! TO.P,U1,39,28_RX7*
G04 #@! TO.N,unconnected-(U1-28_RX7-Pad39)*
X149660000Y-43920000D03*
G04 #@! TO.P,U1,38,27_A13_SCK1*
G04 #@! TO.N,unconnected-(U1-27_A13_SCK1-Pad38)*
X147120000Y-41380000D03*
G04 #@! TO.P,U1,37,26_A12_MOSI1*
G04 #@! TO.N,unconnected-(U1-26_A12_MOSI1-Pad37)*
X149660000Y-41380000D03*
G04 #@! TO.P,U1,36,25_A11_RX6_SDA2*
G04 #@! TO.N,unconnected-(U1-25_A11_RX6_SDA2-Pad36)*
X147120000Y-38840000D03*
G04 #@! TO.P,U1,35,24_A10_TX6_SCL2*
G04 #@! TO.N,unconnected-(U1-24_A10_TX6_SCL2-Pad35)*
X149660000Y-38840000D03*
G04 #@! TO.P,U1,34,VUSB*
G04 #@! TO.N,unconnected-(U1-VUSB-Pad34)*
X124260000Y-38840000D03*
G04 #@! TO.P,U1,33,VIN*
G04 #@! TO.N,+5V*
X121720000Y-36300000D03*
G04 #@! TO.P,U1,32,GND*
G04 #@! TO.N,unconnected-(U1-GND-Pad32)*
X124260000Y-36300000D03*
G04 #@! TO.P,U1,31,3V3*
G04 #@! TO.N,unconnected-(U1-3V3-Pad31)*
X126800000Y-36300000D03*
G04 #@! TO.P,U1,30,23_A9_CRX1_MCLK1*
G04 #@! TO.N,unconnected-(U1-23_A9_CRX1_MCLK1-Pad30)*
X129340000Y-36300000D03*
G04 #@! TO.P,U1,29,22_A8_CTX1*
G04 #@! TO.N,unconnected-(U1-22_A8_CTX1-Pad29)*
X131880000Y-36300000D03*
G04 #@! TO.P,U1,28,21_A7_RX5_BCLK1*
G04 #@! TO.N,unconnected-(U1-21_A7_RX5_BCLK1-Pad28)*
X134420000Y-36300000D03*
G04 #@! TO.P,U1,27,20_A6_TX5_LRCLK1*
G04 #@! TO.N,unconnected-(U1-20_A6_TX5_LRCLK1-Pad27)*
X136960000Y-36300000D03*
G04 #@! TO.P,U1,26,19_A5_SCL0*
G04 #@! TO.N,/PS_Temp_SCL*
X139500000Y-36300000D03*
G04 #@! TO.P,U1,25,18_A4_SDA0*
G04 #@! TO.N,/PS_Temp_SDA*
X142040000Y-36300000D03*
G04 #@! TO.P,U1,24,17_A3_TX4_SDA1*
G04 #@! TO.N,unconnected-(U1-17_A3_TX4_SDA1-Pad24)*
X144580000Y-36300000D03*
G04 #@! TO.P,U1,23,16_A2_RX4_SCL1*
G04 #@! TO.N,unconnected-(U1-16_A2_RX4_SCL1-Pad23)*
X147120000Y-36300000D03*
G04 #@! TO.P,U1,22,15_A1_RX3_SPDIF_IN*
G04 #@! TO.N,/StepperDrivers/STEP_1*
X149660000Y-36300000D03*
G04 #@! TO.P,U1,21,14_A0_TX3_SPDIF_OUT*
G04 #@! TO.N,/StepperDrivers/DIR_1*
X152200000Y-36300000D03*
G04 #@! TO.P,U1,20,13_SCK_CRX1_LED*
G04 #@! TO.N,/SCK_ADC*
X154740000Y-36300000D03*
G04 #@! TO.P,U1,19,ON_OFF*
G04 #@! TO.N,unconnected-(U1-ON_OFF-Pad19)*
X154740000Y-38840000D03*
G04 #@! TO.P,U1,18,PROGRAM*
G04 #@! TO.N,unconnected-(U1-PROGRAM-Pad18)*
X154740000Y-41380000D03*
G04 #@! TO.P,U1,17,GND*
G04 #@! TO.N,unconnected-(U1-GND-Pad17)*
X154740000Y-43920000D03*
G04 #@! TO.P,U1,16,3V3*
G04 #@! TO.N,unconnected-(U1-3V3-Pad16)*
X154740000Y-46460000D03*
G04 #@! TO.P,U1,15,VBAT*
G04 #@! TO.N,unconnected-(U1-VBAT-Pad15)*
X154740000Y-49000000D03*
G04 #@! TO.P,U1,14,12_MISO_MQSL*
G04 #@! TO.N,/MISO_ADC*
X154740000Y-51540000D03*
G04 #@! TO.P,U1,13,11_MOSI_CTX1*
G04 #@! TO.N,/MOSI_DAC*
X152200000Y-51540000D03*
G04 #@! TO.P,U1,12,10_CS_MQSR*
G04 #@! TO.N,/CS_DAC*
X149660000Y-51540000D03*
G04 #@! TO.P,U1,11,9_OUT1C*
G04 #@! TO.N,/CS_ADC*
X147120000Y-51540000D03*
G04 #@! TO.P,U1,10,8_TX2_IN1*
G04 #@! TO.N,unconnected-(U1-8_TX2_IN1-Pad10)*
X144580000Y-51540000D03*
G04 #@! TO.P,U1,9,7_RX2_OUT1A*
G04 #@! TO.N,/LDAC_DAC*
X142040000Y-51540000D03*
G04 #@! TO.P,U1,8,6_OUT1D*
G04 #@! TO.N,/CNV_ADC*
X139500000Y-51540000D03*
G04 #@! TO.P,U1,7,5_IN2*
G04 #@! TO.N,/BUSY_ADC*
X136960000Y-51540000D03*
G04 #@! TO.P,U1,6,4_BCLK2*
G04 #@! TO.N,/StepperDrivers/DIR_2*
X134420000Y-51540000D03*
G04 #@! TO.P,U1,5,3_LRCLK2*
G04 #@! TO.N,/StepperDrivers/STEP_2*
X131880000Y-51540000D03*
G04 #@! TO.P,U1,4,2_OUT2*
G04 #@! TO.N,/StepperDrivers/DIR_3*
X129340000Y-51540000D03*
G04 #@! TO.P,U1,3,1_TX1_CTX2_MISO1*
G04 #@! TO.N,/StepperDrivers/STEP_3*
X126800000Y-51540000D03*
G04 #@! TO.P,U1,2,0_RX1_CRX2_CS1*
G04 #@! TO.N,/BIAS_MOD_EN*
X124260000Y-51540000D03*
G04 #@! TO.P,U1,1,GND*
G04 #@! TO.N,GND*
X121720000Y-51540000D03*
G04 #@! TD*
D22*
G04 #@! TO.P,R41,2*
G04 #@! TO.N,Net-(U6B--)*
X174675000Y-80281000D03*
G04 #@! TO.P,R41,1*
G04 #@! TO.N,/DAC/RFBC*
X176500000Y-80281000D03*
G04 #@! TD*
D24*
G04 #@! TO.P,R21,2*
G04 #@! TO.N,/Z+X*
X135127000Y-93337500D03*
G04 #@! TO.P,R21,1*
G04 #@! TO.N,Net-(C10-Pad2)*
X135127000Y-95162500D03*
G04 #@! TD*
D40*
G04 #@! TO.P,IC4,28,AGNDD*
G04 #@! TO.N,GND*
X191975000Y-77541000D03*
G04 #@! TO.P,IC4,27,IOUTD*
G04 #@! TO.N,/DAC/IOUTD*
X191325000Y-77541000D03*
G04 #@! TO.P,IC4,26,VREFD*
G04 #@! TO.N,/DAC/10V_REF*
X190675000Y-77541000D03*
G04 #@! TO.P,IC4,25,RFBD*
G04 #@! TO.N,/DAC/RFBD*
X190025000Y-77541000D03*
G04 #@! TO.P,IC4,24,DGND*
G04 #@! TO.N,GND*
X189375000Y-77541000D03*
G04 #@! TO.P,IC4,23,VSS(1)*
X188725000Y-77541000D03*
G04 #@! TO.P,IC4,22,AGNDF*
X188075000Y-77541000D03*
G04 #@! TO.P,IC4,21,~{LDAC}*
G04 #@! TO.N,/LDAC_DAC*
X187425000Y-77541000D03*
G04 #@! TO.P,IC4,20,SDO*
G04 #@! TO.N,unconnected-(IC4-SDO-Pad20)*
X186775000Y-77541000D03*
G04 #@! TO.P,IC4,19,NC(1)*
G04 #@! TO.N,unconnected-(IC4-NC(1)-Pad19)*
X186125000Y-77541000D03*
G04 #@! TO.P,IC4,18,RFBC*
G04 #@! TO.N,/DAC/RFBC*
X185475000Y-77541000D03*
G04 #@! TO.P,IC4,17,VREFC*
G04 #@! TO.N,/DAC/10V_REF*
X184825000Y-77541000D03*
G04 #@! TO.P,IC4,16,IOUTC*
G04 #@! TO.N,/DAC/IOUTC*
X184175000Y-77541000D03*
G04 #@! TO.P,IC4,15,AGNDC*
G04 #@! TO.N,GND*
X183525000Y-77541000D03*
G04 #@! TO.P,IC4,14,AGNDB*
X183525000Y-70441000D03*
G04 #@! TO.P,IC4,13,IOUTB*
G04 #@! TO.N,/DAC/IOUTB*
X184175000Y-70441000D03*
G04 #@! TO.P,IC4,12,VREFB*
G04 #@! TO.N,/DAC/10V_REF*
X184825000Y-70441000D03*
G04 #@! TO.P,IC4,11,RFBB*
G04 #@! TO.N,/DAC/RFBB*
X185475000Y-70441000D03*
G04 #@! TO.P,IC4,10,SDI*
G04 #@! TO.N,/MOSI_DAC*
X186125000Y-70441000D03*
G04 #@! TO.P,IC4,9,CLK*
G04 #@! TO.N,/SCK_ADC*
X186775000Y-70441000D03*
G04 #@! TO.P,IC4,8,~{CS}*
G04 #@! TO.N,/CS_DAC*
X187425000Y-70441000D03*
G04 #@! TO.P,IC4,7,VDD*
G04 #@! TO.N,+5V*
X188075000Y-70441000D03*
G04 #@! TO.P,IC4,6,~{RS}*
X188725000Y-70441000D03*
G04 #@! TO.P,IC4,5,MSB*
X189375000Y-70441000D03*
G04 #@! TO.P,IC4,4,RFBA*
G04 #@! TO.N,/DAC/RFBA*
X190025000Y-70441000D03*
G04 #@! TO.P,IC4,3,VREFA*
G04 #@! TO.N,/DAC/10V_REF*
X190675000Y-70441000D03*
G04 #@! TO.P,IC4,2,IOUTA*
G04 #@! TO.N,/DAC/IOUTA*
X191325000Y-70441000D03*
G04 #@! TO.P,IC4,1,AGNDA*
G04 #@! TO.N,GND*
X191975000Y-70441000D03*
G04 #@! TD*
D28*
G04 #@! TO.P,C24,2*
G04 #@! TO.N,/Z*
X156255000Y-80311000D03*
G04 #@! TO.P,C24,1*
G04 #@! TO.N,Net-(U5B--)*
X158155000Y-80311000D03*
G04 #@! TD*
G04 #@! TO.P,C33,2*
G04 #@! TO.N,Net-(U8-REFBUF)*
X191395000Y-93655000D03*
G04 #@! TO.P,C33,1*
G04 #@! TO.N,GND*
X193295000Y-93655000D03*
G04 #@! TD*
G04 #@! TO.P,C132,2*
G04 #@! TO.N,+5V*
X212450000Y-91600000D03*
G04 #@! TO.P,C132,1*
G04 #@! TO.N,GND*
X214350000Y-91600000D03*
G04 #@! TD*
D41*
G04 #@! TO.P,U8,16,GND*
G04 #@! TO.N,GND*
X191595050Y-88152370D03*
G04 #@! TO.P,U8,15,OVDD*
G04 #@! TO.N,+3V3*
X191595050Y-88652750D03*
G04 #@! TO.P,U8,14,SDO*
G04 #@! TO.N,Net-(U8-SDO)*
X191595050Y-89153130D03*
G04 #@! TO.P,U8,13,SCK*
G04 #@! TO.N,/SCK_ADC*
X191595050Y-89653510D03*
G04 #@! TO.P,U8,12,RDL/SDI*
G04 #@! TO.N,/CS_ADC*
X191595050Y-90153890D03*
G04 #@! TO.P,U8,11,BUSY*
G04 #@! TO.N,/BUSY_ADC*
X191595050Y-90654270D03*
G04 #@! TO.P,U8,10,CHAIN*
G04 #@! TO.N,GND*
X191595050Y-91154650D03*
G04 #@! TO.P,U8,9,CNV*
G04 #@! TO.N,/CNV_ADC*
X191595050Y-91655030D03*
G04 #@! TO.P,U8,8,REFIN*
G04 #@! TO.N,Net-(U8-REFIN)*
X187162750Y-91655030D03*
G04 #@! TO.P,U8,7,REFBUF*
G04 #@! TO.N,Net-(U8-REFBUF)*
X187162750Y-91154650D03*
G04 #@! TO.P,U8,6,GND*
G04 #@! TO.N,GND*
X187162750Y-90654270D03*
G04 #@! TO.P,U8,5,IN-*
G04 #@! TO.N,/ADC/OUTB*
X187162750Y-90153890D03*
G04 #@! TO.P,U8,4,IN+*
G04 #@! TO.N,/ADC/OUTA*
X187162750Y-89653510D03*
G04 #@! TO.P,U8,3,GND*
G04 #@! TO.N,GND*
X187162750Y-89153130D03*
G04 #@! TO.P,U8,2,VDD*
G04 #@! TO.N,+5V*
X187162750Y-88652750D03*
G04 #@! TO.P,U8,1,VDDLBYP*
G04 #@! TO.N,Net-(U8-VDDLBYP)*
X187162750Y-88152370D03*
G04 #@! TD*
D28*
G04 #@! TO.P,C11,2*
G04 #@! TO.N,Net-(C11-Pad2)*
X139127000Y-82750000D03*
G04 #@! TO.P,C11,1*
G04 #@! TO.N,Net-(U3B--)*
X141027000Y-82750000D03*
G04 #@! TD*
D19*
G04 #@! TO.P,U4,9*
G04 #@! TO.N,N/C*
X140627000Y-64450000D03*
X139627000Y-64450000D03*
X138627000Y-64450000D03*
D20*
X139627000Y-65100000D03*
D19*
X140627000Y-65750000D03*
X139627000Y-65750000D03*
X138627000Y-65750000D03*
D21*
G04 #@! TO.P,U4,8,V+*
G04 #@! TO.N,+15V*
X137722000Y-62625000D03*
G04 #@! TO.P,U4,7*
G04 #@! TO.N,Net-(C15-Pad2)*
X138992000Y-62625000D03*
G04 #@! TO.P,U4,6,-*
G04 #@! TO.N,Net-(U4B--)*
X140262000Y-62625000D03*
G04 #@! TO.P,U4,5,+*
G04 #@! TO.N,Net-(U4B-+)*
X141532000Y-62625000D03*
G04 #@! TO.P,U4,4,V-*
G04 #@! TO.N,-15V*
X141532000Y-67575000D03*
G04 #@! TO.P,U4,3,+*
G04 #@! TO.N,GND*
X140262000Y-67575000D03*
G04 #@! TO.P,U4,2,-*
G04 #@! TO.N,Net-(U4A--)*
X138992000Y-67575000D03*
G04 #@! TO.P,U4,1*
G04 #@! TO.N,Net-(C14-Pad2)*
X137722000Y-67575000D03*
G04 #@! TD*
D22*
G04 #@! TO.P,R57,2*
G04 #@! TO.N,/Connectors/BIAS*
X156292500Y-64361000D03*
G04 #@! TO.P,R57,1*
G04 #@! TO.N,Net-(U5A--)*
X158117500Y-64361000D03*
G04 #@! TD*
D42*
G04 #@! TO.P,JP33,2,2*
G04 #@! TO.N,GND*
X194825000Y-100700000D03*
D43*
G04 #@! TO.P,JP33,1,1*
G04 #@! TO.N,/AIN-*
X193375000Y-100700000D03*
G04 #@! TD*
D29*
G04 #@! TO.P,C125,2*
G04 #@! TO.N,+15V*
X196000000Y-50500000D03*
G04 #@! TO.P,C125,1*
G04 #@! TO.N,GND*
X196000000Y-48600000D03*
G04 #@! TD*
D22*
G04 #@! TO.P,R55,2*
G04 #@! TO.N,/X*
X170587500Y-83281000D03*
G04 #@! TO.P,R55,1*
G04 #@! TO.N,Net-(U6B--)*
X172412500Y-83281000D03*
G04 #@! TD*
G04 #@! TO.P,R20,2*
G04 #@! TO.N,Net-(C10-Pad2)*
X137714500Y-98750000D03*
G04 #@! TO.P,R20,1*
G04 #@! TO.N,Net-(U3A--)*
X139539500Y-98750000D03*
G04 #@! TD*
D14*
G04 #@! TO.P,C124,2*
G04 #@! TO.N,GND*
X196000000Y-41600000D03*
G04 #@! TO.P,C124,1*
G04 #@! TO.N,-15V*
X196000000Y-43500000D03*
G04 #@! TD*
G04 #@! TO.P,C37,2*
G04 #@! TO.N,+3V3*
X175627000Y-141824000D03*
G04 #@! TO.P,C37,1*
G04 #@! TO.N,GND*
X175627000Y-143724000D03*
G04 #@! TD*
D22*
G04 #@! TO.P,R28,2*
G04 #@! TO.N,Net-(U3B--)*
X144087500Y-79250000D03*
G04 #@! TO.P,R28,1*
G04 #@! TO.N,/Z*
X145912500Y-79250000D03*
G04 #@! TD*
G04 #@! TO.P,R23,2*
G04 #@! TO.N,Net-(U3A--)*
X144337500Y-98741000D03*
G04 #@! TO.P,R23,1*
G04 #@! TO.N,/Z*
X146162500Y-98741000D03*
G04 #@! TD*
D32*
G04 #@! TO.P,R62,2*
G04 #@! TO.N,Net-(C31-Pad1)*
X164500000Y-99912500D03*
G04 #@! TO.P,R62,1*
G04 #@! TO.N,Net-(JP31-Pad2)*
X164500000Y-98087500D03*
G04 #@! TD*
D28*
G04 #@! TO.P,C19,2*
G04 #@! TO.N,-15V*
X144177000Y-92250000D03*
G04 #@! TO.P,C19,1*
G04 #@! TO.N,GND*
X146077000Y-92250000D03*
G04 #@! TD*
D29*
G04 #@! TO.P,C40,2*
G04 #@! TO.N,GND*
X167912500Y-75311000D03*
G04 #@! TO.P,C40,1*
G04 #@! TO.N,+15V*
X167912500Y-73411000D03*
G04 #@! TD*
D25*
G04 #@! TO.P,JP29,2,2*
G04 #@! TO.N,GND*
X213525000Y-78062500D03*
D26*
G04 #@! TO.P,JP29,1,1*
G04 #@! TO.N,Shield*
X214975000Y-78062500D03*
G04 #@! TD*
D22*
G04 #@! TO.P,R64,2*
G04 #@! TO.N,/CS_ADC*
X194966400Y-90403700D03*
G04 #@! TO.P,R64,1*
G04 #@! TO.N,+3V3*
X196791400Y-90403700D03*
G04 #@! TD*
G04 #@! TO.P,R42,2*
G04 #@! TO.N,Net-(U6A--)*
X174587500Y-64281000D03*
G04 #@! TO.P,R42,1*
G04 #@! TO.N,/DAC/RFBB*
X176412500Y-64281000D03*
G04 #@! TD*
D14*
G04 #@! TO.P,C21,2*
G04 #@! TO.N,/DAC/RFBB*
X179000000Y-69331000D03*
G04 #@! TO.P,C21,1*
G04 #@! TO.N,/DAC/IOUTB*
X179000000Y-71231000D03*
G04 #@! TD*
D15*
G04 #@! TO.P,C35,2*
G04 #@! TO.N,Net-(U8-VDDLBYP)*
X183595000Y-88905000D03*
D13*
G04 #@! TO.P,C35,1*
G04 #@! TO.N,GND*
X181595000Y-88905000D03*
G04 #@! TD*
D16*
G04 #@! TO.P,C8,2*
G04 #@! TO.N,GND*
X188355000Y-50025000D03*
G04 #@! TO.P,C8,1*
G04 #@! TO.N,Net-(IC1-NOISE_REDUCTION)*
X186455000Y-50025000D03*
G04 #@! TD*
D22*
G04 #@! TO.P,R40,2*
G04 #@! TO.N,Net-(U5A--)*
X160267500Y-64361000D03*
G04 #@! TO.P,R40,1*
G04 #@! TO.N,/DAC/RFBD*
X162092500Y-64361000D03*
G04 #@! TD*
D12*
G04 #@! TO.P,A3,16,DIR*
G04 #@! TO.N,/StepperDrivers/DIR_3*
X171327000Y-133934000D03*
G04 #@! TO.P,A3,15,STEP*
G04 #@! TO.N,/StepperDrivers/STEP_3*
X171327000Y-136474000D03*
G04 #@! TO.P,A3,14,~{SLEEP}*
G04 #@! TO.N,+3V3*
X171327000Y-139014000D03*
G04 #@! TO.P,A3,13,~{RESET}*
X171327000Y-141554000D03*
G04 #@! TO.P,A3,12,MS3*
G04 #@! TO.N,unconnected-(A3-MS3-Pad12)*
X171327000Y-144094000D03*
G04 #@! TO.P,A3,11,MS2*
G04 #@! TO.N,unconnected-(A3-MS2-Pad11)*
X171327000Y-146634000D03*
G04 #@! TO.P,A3,10,MS1*
G04 #@! TO.N,unconnected-(A3-MS1-Pad10)*
X171327000Y-149174000D03*
G04 #@! TO.P,A3,9,~{ENABLE}*
G04 #@! TO.N,GND*
X171327000Y-151714000D03*
G04 #@! TO.P,A3,8,VMOT*
G04 #@! TO.N,+5V*
X158627000Y-151714000D03*
G04 #@! TO.P,A3,7,GND*
G04 #@! TO.N,GND*
X158627000Y-149174000D03*
G04 #@! TO.P,A3,6,2B*
G04 #@! TO.N,/2B_3*
X158627000Y-146634000D03*
G04 #@! TO.P,A3,5,2A*
G04 #@! TO.N,/2A_3*
X158627000Y-144094000D03*
G04 #@! TO.P,A3,4,1A*
G04 #@! TO.N,/1A_3*
X158627000Y-141554000D03*
G04 #@! TO.P,A3,3,1B*
G04 #@! TO.N,/1B_3*
X158627000Y-139014000D03*
G04 #@! TO.P,A3,2,VDD*
G04 #@! TO.N,+3V3*
X158627000Y-136474000D03*
D13*
G04 #@! TO.P,A3,1,GND*
G04 #@! TO.N,GND*
X158627000Y-133934000D03*
G04 #@! TD*
D22*
G04 #@! TO.P,R43,2*
G04 #@! TO.N,Net-(U5B--)*
X160292500Y-80311000D03*
G04 #@! TO.P,R43,1*
G04 #@! TO.N,/DAC/RFBA*
X162117500Y-80311000D03*
G04 #@! TD*
D42*
G04 #@! TO.P,JP32,2,2*
G04 #@! TO.N,GND*
X194825000Y-97450000D03*
D43*
G04 #@! TO.P,JP32,1,1*
G04 #@! TO.N,/AIN+*
X193375000Y-97450000D03*
G04 #@! TD*
D22*
G04 #@! TO.P,R50,2*
G04 #@! TO.N,Net-(U5B--)*
X160267500Y-83061000D03*
G04 #@! TO.P,R50,1*
G04 #@! TO.N,/DAC/Buff_Out*
X162092500Y-83061000D03*
G04 #@! TD*
D14*
G04 #@! TO.P,C47,2*
G04 #@! TO.N,-15V*
X153750000Y-60300000D03*
G04 #@! TO.P,C47,1*
G04 #@! TO.N,GND*
X153750000Y-62200000D03*
G04 #@! TD*
D16*
G04 #@! TO.P,C30,2*
G04 #@! TO.N,Net-(U9-+INA)*
X181200000Y-103500000D03*
G04 #@! TO.P,C30,1*
G04 #@! TO.N,GND*
X179300000Y-103500000D03*
G04 #@! TD*
D27*
G04 #@! TO.P,R19,2*
G04 #@! TO.N,Net-(U2A-+)*
X192017500Y-47525000D03*
G04 #@! TO.P,R19,1*
G04 #@! TO.N,Net-(IC1-VOUT)*
X190192500Y-47525000D03*
G04 #@! TD*
D16*
G04 #@! TO.P,C32,2*
G04 #@! TO.N,Net-(U9-+INB)*
X186250000Y-103500000D03*
G04 #@! TO.P,C32,1*
G04 #@! TO.N,GND*
X184350000Y-103500000D03*
G04 #@! TD*
G04 #@! TO.P,C31,2*
G04 #@! TO.N,Net-(U9--INB)*
X174545000Y-104655000D03*
G04 #@! TO.P,C31,1*
G04 #@! TO.N,Net-(C31-Pad1)*
X172645000Y-104655000D03*
G04 #@! TD*
D19*
G04 #@! TO.P,U10,9*
G04 #@! TO.N,N/C*
X157675000Y-94385000D03*
X157675000Y-93385000D03*
X157675000Y-92385000D03*
D44*
X157025000Y-93385000D03*
D19*
X156375000Y-94385000D03*
X156375000Y-93385000D03*
X156375000Y-92385000D03*
D23*
G04 #@! TO.P,U10,8,V+*
G04 #@! TO.N,+15V*
X159500000Y-91480000D03*
G04 #@! TO.P,U10,7*
G04 #@! TO.N,/IOUT-*
X159500000Y-92750000D03*
G04 #@! TO.P,U10,6,-*
X159500000Y-94020000D03*
G04 #@! TO.P,U10,5,+*
G04 #@! TO.N,/T_Amp-*
X159500000Y-95290000D03*
G04 #@! TO.P,U10,4,V-*
G04 #@! TO.N,-15V*
X154550000Y-95290000D03*
G04 #@! TO.P,U10,3,+*
G04 #@! TO.N,/T_Amp+*
X154550000Y-94020000D03*
G04 #@! TO.P,U10,2,-*
G04 #@! TO.N,/IOUT+*
X154550000Y-92750000D03*
G04 #@! TO.P,U10,1*
X154550000Y-91480000D03*
G04 #@! TD*
D28*
G04 #@! TO.P,C27,2*
G04 #@! TO.N,/Connectors/BIAS*
X156255000Y-67311000D03*
G04 #@! TO.P,C27,1*
G04 #@! TO.N,Net-(U5A--)*
X158155000Y-67311000D03*
G04 #@! TD*
D45*
G04 #@! TO.N,+3V3*
X207500000Y-99425000D03*
G04 #@! TO.N,+5V*
X207477189Y-91600000D03*
G04 #@! TO.N,+3V3*
X212450000Y-99400000D03*
X205475000Y-90403700D03*
G04 #@! TO.N,+5V*
X212450000Y-91600000D03*
G04 #@! TO.N,GND*
X196335000Y-130542000D03*
G04 #@! TO.N,/LDAC_DAC*
X166075000Y-69825000D03*
G04 #@! TO.N,/DAC/IOUTA*
X167439592Y-78810408D03*
X187887500Y-79887500D03*
G04 #@! TO.N,/X*
X165450000Y-85500000D03*
X153225000Y-85550000D03*
G04 #@! TO.N,/CS_ADC*
X173675000Y-54825000D03*
X184400000Y-65575000D03*
X192275000Y-68675000D03*
X194950000Y-86650000D03*
G04 #@! TO.N,/CS_DAC*
X172975000Y-54000000D03*
G04 #@! TO.N,/MISO_ADC*
X175400000Y-52200000D03*
X192000000Y-66650000D03*
X193975000Y-68650000D03*
G04 #@! TO.N,/CNV_ADC*
X151675000Y-86725000D03*
X187075243Y-87074757D03*
G04 #@! TO.N,Net-(U11-Pad6)*
X178095000Y-91405000D03*
X176570000Y-100790000D03*
G04 #@! TO.N,/Y*
X148828000Y-61038500D03*
X170588000Y-64281000D03*
G04 #@! TO.N,/X*
X170600000Y-83268500D03*
X149475000Y-85325000D03*
G04 #@! TO.N,/DAC/Buff_Out*
X176412000Y-67281000D03*
X162092000Y-83061000D03*
X162092000Y-67331000D03*
X193970000Y-58000000D03*
X176412000Y-83281000D03*
G04 #@! TO.N,/CNV_ADC*
X192633000Y-91629600D03*
G04 #@! TO.N,/CS_ADC*
X194966000Y-90403700D03*
G04 #@! TO.N,/BUSY_ADC*
X182500000Y-66600000D03*
X193400000Y-90803900D03*
G04 #@! TO.N,/AIN+*
X178100000Y-88200000D03*
G04 #@! TO.N,/AIN-*
X179188000Y-100287000D03*
G04 #@! TO.N,/Connectors/BIAS*
X156480000Y-69961000D03*
X144750000Y-75750000D03*
G04 #@! TO.N,/T_Amp+*
X168000000Y-89800000D03*
X154550000Y-94020000D03*
G04 #@! TO.N,/PS_Temp_SCL*
X211858600Y-52745000D03*
X203651000Y-52483800D03*
G04 #@! TO.N,/DAC/RFBD*
X187400000Y-75800000D03*
X169475000Y-65991000D03*
G04 #@! TO.N,/DAC/IOUTA*
X191285000Y-74065400D03*
X164455000Y-77411000D03*
G04 #@! TO.N,/SCK_ADC*
X190582000Y-89653500D03*
X189300000Y-72200000D03*
G04 #@! TO.N,/DAC/10V_REF*
X190600000Y-75600000D03*
X190675000Y-73200000D03*
G04 #@! TO.N,/StepperDrivers/STEP_3*
X141300000Y-122600000D03*
X121550000Y-104150000D03*
G04 #@! TO.N,/StepperDrivers/DIR_3*
X122800000Y-104100000D03*
X149150000Y-130450000D03*
X142500000Y-122100000D03*
G04 #@! TO.N,+5V*
X186000000Y-88802300D03*
X156775000Y-57595000D03*
X176570000Y-102060000D03*
X189412000Y-67750000D03*
X176595000Y-91925000D03*
G04 #@! TO.N,-15V*
X164455000Y-73411000D03*
X144177000Y-67750000D03*
X144177000Y-92250000D03*
X176600000Y-89400000D03*
X180871000Y-101060000D03*
X154550000Y-95290000D03*
X176570000Y-99520000D03*
X179000000Y-73331000D03*
X153750000Y-60300000D03*
X191992600Y-54733000D03*
G04 #@! TO.N,+3V3*
X190312100Y-88529000D03*
G04 #@! TO.N,+15V*
X135127000Y-62800000D03*
X167912000Y-73411000D03*
X186319000Y-97250000D03*
X171620000Y-102060000D03*
X196510000Y-60770000D03*
X153412000Y-73411000D03*
X171645000Y-91925000D03*
X164500000Y-57100000D03*
X135127000Y-87250000D03*
X159500000Y-91480000D03*
G04 #@! TO.N,GND*
X181600000Y-93155000D03*
X175627000Y-143724000D03*
X214400000Y-91600000D03*
X195675000Y-97445000D03*
X193295000Y-93655000D03*
X146077000Y-67750000D03*
X210658000Y-78062500D03*
X175612000Y-75011000D03*
X161292000Y-75041000D03*
X146077000Y-92250000D03*
X214400000Y-94200000D03*
X195625000Y-100695000D03*
X175612000Y-72471000D03*
X188345000Y-90405000D03*
X188725000Y-77541000D03*
X135127000Y-85350000D03*
X183450000Y-70441000D03*
X212650000Y-78062500D03*
X171595000Y-90655000D03*
X171620000Y-100790000D03*
X140262000Y-91875000D03*
X171000000Y-72471000D03*
X194605000Y-60775000D03*
X164455000Y-75311000D03*
X214350000Y-99400000D03*
X164500000Y-59000000D03*
X190200000Y-91200000D03*
X167912000Y-75311000D03*
X171000000Y-75011000D03*
X190260000Y-58236000D03*
X184350000Y-103500000D03*
X214400000Y-96800000D03*
X161292000Y-72501000D03*
X140262000Y-67575000D03*
X175627000Y-120724000D03*
X189545000Y-93655000D03*
X144627000Y-88700000D03*
X153412000Y-75311000D03*
X179000000Y-75231000D03*
X156480000Y-75041000D03*
X183450000Y-77541000D03*
X179300000Y-103500000D03*
X153750000Y-62200000D03*
X144627000Y-64200000D03*
X148127000Y-88662500D03*
X192050000Y-70441000D03*
X156480000Y-72501000D03*
X135127000Y-64700000D03*
X191575000Y-79550000D03*
X188176000Y-89153100D03*
X190845000Y-87905000D03*
X190999300Y-48769000D03*
X147294100Y-65667000D03*
X188019400Y-48769000D03*
X202000000Y-60697000D03*
G04 #@! TO.N,Shield*
X134800000Y-109800000D03*
G04 #@! TO.N,+3V3*
X196791400Y-90403700D03*
G04 #@! TO.N,/StepperDrivers/STEP_1*
X201182107Y-54732107D03*
G04 #@! TO.N,/StepperDrivers/DIR_1*
X160887500Y-41337500D03*
X199250000Y-71675000D03*
G04 #@! TO.N,/2B_1*
X137700000Y-133875000D03*
G04 #@! TO.N,/1B_1*
X138900000Y-115125000D03*
G04 #@! TO.N,/1A_1*
X146125000Y-120950000D03*
G04 #@! TO.N,/StepperDrivers/STEP_1*
X188019400Y-41811000D03*
G04 #@! TO.N,/2A_1*
X139287500Y-133787500D03*
G04 #@! TO.N,/StepperDrivers/STEP_1*
X197951471Y-51475000D03*
G04 #@! TD*
D46*
G04 #@! TO.N,+3V3*
X212500000Y-99350000D02*
X212450000Y-99400000D01*
X212500000Y-96800000D02*
X212500000Y-99350000D01*
G04 #@! TO.N,/BIAS_MOD*
X168864000Y-62201000D02*
X157571000Y-62201000D01*
X157571000Y-62201000D02*
X156775000Y-61405000D01*
X170000000Y-61065000D02*
X168864000Y-62201000D01*
G04 #@! TO.N,/2A_1*
X140625000Y-135125000D02*
X170025000Y-135125000D01*
X139287500Y-133787500D02*
X140625000Y-135125000D01*
G04 #@! TO.N,+5V*
X184550000Y-143830000D02*
X179335000Y-138615000D01*
X184550000Y-144375000D02*
X184550000Y-143830000D01*
G04 #@! TO.N,/2A_1*
X175205000Y-135125000D02*
X170025000Y-135125000D01*
X179335000Y-130995000D02*
X175205000Y-135125000D01*
X173461000Y-135125000D02*
X170025000Y-135125000D01*
G04 #@! TO.N,/2B_1*
X141450000Y-137625000D02*
X137700000Y-133875000D01*
X175245000Y-137625000D02*
X141450000Y-137625000D01*
X179335000Y-133535000D02*
X175245000Y-137625000D01*
G04 #@! TO.N,/1A_1*
X178184000Y-119799130D02*
X175977870Y-117593000D01*
X178184000Y-127304000D02*
X178184000Y-119799130D01*
X179335000Y-128455000D02*
X178184000Y-127304000D01*
X172625000Y-117593000D02*
X178393000Y-117593000D01*
X175977870Y-117593000D02*
X172625000Y-117593000D01*
G04 #@! TO.N,/1B_1*
X180486000Y-117146000D02*
X178393000Y-115053000D01*
X180486000Y-124764000D02*
X180486000Y-117146000D01*
X179335000Y-125915000D02*
X180486000Y-124764000D01*
G04 #@! TO.N,+3V3*
X192035000Y-128455000D02*
X196148000Y-128455000D01*
D47*
G04 #@! TO.N,/DAC/RFBD*
X163722000Y-65991000D02*
X163722000Y-68678000D01*
X163722000Y-68678000D02*
X164455000Y-69411000D01*
X169475000Y-65991000D02*
X168634000Y-65991000D01*
X163722000Y-65991000D02*
X169475000Y-65991000D01*
X162092000Y-64361000D02*
X163722000Y-65991000D01*
D46*
G04 #@! TO.N,/LDAC_DAC*
X166826000Y-70576000D02*
X166075000Y-69825000D01*
X166826000Y-75806370D02*
X166826000Y-70576000D01*
X168988500Y-77968870D02*
X166826000Y-75806370D01*
X168988500Y-83251370D02*
X168988500Y-77968870D01*
X170069130Y-84332000D02*
X168988500Y-83251370D01*
X181660200Y-84332000D02*
X170069130Y-84332000D01*
X186496000Y-79496200D02*
X181660200Y-84332000D01*
G04 #@! TO.N,/DAC/IOUTD*
X166325000Y-73181000D02*
X164455000Y-71311000D01*
X166325000Y-82566000D02*
X166325000Y-73181000D01*
X169483000Y-85724000D02*
X166325000Y-82566000D01*
X184342000Y-85724000D02*
X169483000Y-85724000D01*
X191325000Y-77541000D02*
X191325000Y-78741000D01*
X191325000Y-78741000D02*
X184342000Y-85724000D01*
G04 #@! TO.N,/DAC/IOUTA*
X167439592Y-82789592D02*
X167439592Y-78810408D01*
X169873000Y-85223000D02*
X167439592Y-82789592D01*
X182552000Y-85223000D02*
X169873000Y-85223000D01*
X187887500Y-79887500D02*
X182552000Y-85223000D01*
G04 #@! TO.N,/DAC/RFBA*
X191899000Y-75599000D02*
X190025000Y-73725000D01*
X192750000Y-76079300D02*
X192270000Y-75599000D01*
X186400000Y-86225000D02*
X192750000Y-79875000D01*
X168484000Y-86225000D02*
X186400000Y-86225000D01*
X192270000Y-75599000D02*
X191899000Y-75599000D01*
X190025000Y-73725000D02*
X190025000Y-70441000D01*
X163250000Y-80311000D02*
X163250000Y-80991000D01*
X163250000Y-80991000D02*
X168484000Y-86225000D01*
X192750000Y-79875000D02*
X192750000Y-76079300D01*
D47*
G04 #@! TO.N,/X*
X165400000Y-85550000D02*
X165450000Y-85500000D01*
X153225000Y-85550000D02*
X165400000Y-85550000D01*
D48*
G04 #@! TO.N,GND*
X191975000Y-79010240D02*
X191975000Y-77541000D01*
X191575000Y-79410240D02*
X191975000Y-79010240D01*
X191575000Y-79550000D02*
X191575000Y-79410240D01*
D47*
X194774000Y-45949000D02*
X196000000Y-47175000D01*
X196000000Y-47175000D02*
X196000000Y-48600000D01*
X194774000Y-42826000D02*
X194774000Y-45949000D01*
X196000000Y-41600000D02*
X194774000Y-42826000D01*
D46*
G04 #@! TO.N,Net-(U2A-+)*
X190738400Y-46225000D02*
X192038400Y-47525000D01*
X183775000Y-46225000D02*
X190738400Y-46225000D01*
X182100000Y-47900000D02*
X183775000Y-46225000D01*
X192530000Y-47525000D02*
X192038400Y-47525000D01*
X193970000Y-48965000D02*
X192530000Y-47525000D01*
X193970000Y-53050000D02*
X193970000Y-48965000D01*
D48*
G04 #@! TO.N,/CS_ADC*
X184400000Y-65550000D02*
X184400000Y-65575000D01*
X173675000Y-54825000D02*
X184400000Y-65550000D01*
D47*
G04 #@! TO.N,/Z-Y*
X127077000Y-73598000D02*
X127077000Y-74349000D01*
X132425000Y-68250000D02*
X127077000Y-73598000D01*
X132425000Y-62931500D02*
X132425000Y-68250000D01*
X135127000Y-60229500D02*
X132425000Y-62931500D01*
D48*
G04 #@! TO.N,/CS_ADC*
X194950000Y-71350000D02*
X192275000Y-68675000D01*
X194950000Y-86650000D02*
X194950000Y-71350000D01*
G04 #@! TO.N,/CS_DAC*
X187587500Y-67749500D02*
X187587500Y-67750000D01*
X172975000Y-54000000D02*
X173838000Y-54000000D01*
X173838000Y-54000000D02*
X187587500Y-67749500D01*
X187425000Y-67912500D02*
X187425000Y-70441000D01*
X187587500Y-67750000D02*
X187425000Y-67912500D01*
G04 #@! TO.N,/MISO_ADC*
X192000000Y-66650000D02*
X189850000Y-66650000D01*
X196791400Y-71466400D02*
X193975000Y-68650000D01*
X196791400Y-88153700D02*
X196791400Y-71466400D01*
D46*
G04 #@! TO.N,/BUSY_ADC*
X193251000Y-90654900D02*
X191804000Y-90654900D01*
X193400000Y-90803900D02*
X193251000Y-90654900D01*
G04 #@! TO.N,/AIN-*
X177151000Y-98250000D02*
X176570000Y-98250000D01*
X179188000Y-100287000D02*
X177151000Y-98250000D01*
D47*
G04 #@! TO.N,/X*
X149328000Y-92151500D02*
X146162300Y-95316800D01*
X149328000Y-85472000D02*
X149328000Y-92151500D01*
X149475000Y-85325000D02*
X148920300Y-85325000D01*
X149475000Y-85325000D02*
X149328000Y-85472000D01*
X148920300Y-85325000D02*
X148495000Y-84899700D01*
D46*
G04 #@! TO.N,/CNV_ADC*
X186725486Y-86725000D02*
X151675000Y-86725000D01*
X187075243Y-87074757D02*
X186725486Y-86725000D01*
G04 #@! TO.N,/StepperDrivers/DIR_3*
X167843000Y-130450000D02*
X149150000Y-130450000D01*
X171327000Y-133934000D02*
X167843000Y-130450000D01*
X132100000Y-109500000D02*
X128200000Y-109500000D01*
X128200000Y-109500000D02*
X122800000Y-104100000D01*
X142500000Y-119900000D02*
X132100000Y-109500000D01*
X142500000Y-122100000D02*
X142500000Y-119900000D01*
G04 #@! TO.N,Net-(C39-Pad1)*
X213550000Y-81912500D02*
X210762000Y-81912500D01*
D48*
X210762500Y-81912500D02*
X210762000Y-81912500D01*
X208179000Y-78641000D02*
X208179000Y-78641200D01*
X208757500Y-78062500D02*
X208179000Y-78641000D01*
D46*
X208758000Y-78062500D02*
X208179000Y-78641200D01*
X209512000Y-83162500D02*
X210762000Y-81912500D01*
X208350000Y-83162500D02*
X209512000Y-83162500D01*
X207600000Y-82412500D02*
X208350000Y-83162500D01*
X207600000Y-79220000D02*
X207600000Y-82412500D01*
X208179000Y-78641200D02*
X207600000Y-79220000D01*
D47*
G04 #@! TO.N,Net-(U11-Pad6)*
X177345000Y-90655000D02*
X176595000Y-90655000D01*
X178095000Y-91405000D02*
X177345000Y-90655000D01*
D46*
G04 #@! TO.N,Net-(U9--INB)*
X184710000Y-99790000D02*
X186319000Y-99790000D01*
X183000000Y-101500000D02*
X184710000Y-99790000D01*
X183000000Y-103750000D02*
X183000000Y-101500000D01*
X181750000Y-105000000D02*
X183000000Y-103750000D01*
X174890000Y-105000000D02*
X181750000Y-105000000D01*
X174545000Y-104655000D02*
X174890000Y-105000000D01*
D48*
X186319200Y-99790000D02*
X186319000Y-99790000D01*
D46*
G04 #@! TO.N,Net-(U9-+INA)*
X181290000Y-99790000D02*
X180871000Y-99790000D01*
X181952000Y-100452000D02*
X181290000Y-99790000D01*
X181952000Y-102748000D02*
X181952000Y-100452000D01*
X181200000Y-103500000D02*
X181952000Y-102748000D01*
D48*
X170257500Y-94405000D02*
X170258000Y-94405000D01*
D47*
X180871000Y-99790000D02*
X180870900Y-99790000D01*
X171758000Y-95905000D02*
X170258000Y-94405000D01*
X176095000Y-95905000D02*
X171758000Y-95905000D01*
X177639000Y-97449000D02*
X176095000Y-95905000D01*
X177669000Y-97449000D02*
X177639000Y-97449000D01*
X178046000Y-97826200D02*
X177669000Y-97449000D01*
X178046000Y-97856000D02*
X178046000Y-97826200D01*
X179980000Y-99790000D02*
X178046000Y-97856000D01*
X180870900Y-99790000D02*
X179980000Y-99790000D01*
G04 #@! TO.N,Net-(U9--INA)*
X180871000Y-98520000D02*
X180870900Y-98520000D01*
X176155000Y-94405000D02*
X174345000Y-94405000D01*
X180270000Y-98520000D02*
X176155000Y-94405000D01*
X180870900Y-98520000D02*
X180270000Y-98520000D01*
D46*
G04 #@! TO.N,Net-(U9-+INB)*
X171334000Y-105731000D02*
X170258000Y-104655000D01*
X184019000Y-105731000D02*
X171334000Y-105731000D01*
X186250000Y-103500000D02*
X184019000Y-105731000D01*
D48*
X170257500Y-104655000D02*
X170258000Y-104655000D01*
X185287300Y-101463500D02*
X185287300Y-101060000D01*
X185690800Y-101867000D02*
X185287300Y-101463500D01*
X186319000Y-101867000D02*
X185690800Y-101867000D01*
D46*
X186319000Y-101060000D02*
X186319000Y-101867000D01*
X186319000Y-103431000D02*
X186250000Y-103500000D01*
X186319000Y-101867000D02*
X186319000Y-103431000D01*
D48*
X186319200Y-101060000D02*
X185287300Y-101060000D01*
D46*
G04 #@! TO.N,Net-(U8-VDDLBYP)*
X183500000Y-88999900D02*
X183595000Y-88905000D01*
X183500000Y-93155000D02*
X183500000Y-88999900D01*
D48*
X183500100Y-93155000D02*
X183500000Y-93155000D01*
X187162700Y-88152300D02*
X187162800Y-88152400D01*
X186539400Y-88152300D02*
X187162700Y-88152300D01*
D46*
X187163000Y-88152300D02*
X186539400Y-88152300D01*
X184348000Y-88152300D02*
X183595000Y-88905000D01*
X186539400Y-88152300D02*
X184348000Y-88152300D01*
G04 #@! TO.N,Net-(U8-REFBUF)*
X188895000Y-91154600D02*
X187163000Y-91154600D01*
X191395000Y-93655000D02*
X188895000Y-91154600D01*
D48*
X187162800Y-91154600D02*
X187163000Y-91154600D01*
D46*
G04 #@! TO.N,/ADC/OUTB*
X187163000Y-90153900D02*
X187162800Y-90153900D01*
X185480000Y-98520000D02*
X186319200Y-98520000D01*
X185238000Y-98277900D02*
X185480000Y-98520000D01*
X185238000Y-91070600D02*
X185238000Y-98277900D01*
X186155000Y-90153900D02*
X185238000Y-91070600D01*
X187162800Y-90153900D02*
X186155000Y-90153900D01*
X186319200Y-98520000D02*
X186783000Y-98520000D01*
D48*
G04 #@! TO.N,/ADC/OUTA*
X180870900Y-97250000D02*
X180871000Y-97250000D01*
D46*
X187163000Y-89653500D02*
X187162800Y-89653500D01*
X181250000Y-97250000D02*
X180871000Y-97250000D01*
X184595000Y-93905000D02*
X181250000Y-97250000D01*
X184595000Y-90684100D02*
X184595000Y-93905000D01*
X185626000Y-89653500D02*
X184595000Y-90684100D01*
X187162800Y-89653500D02*
X185626000Y-89653500D01*
G04 #@! TO.N,Net-(U8-REFIN)*
X187404000Y-91896100D02*
X187163000Y-91655000D01*
D48*
X187403900Y-91896100D02*
X187162800Y-91655000D01*
X187404000Y-91896100D02*
X187403900Y-91896100D01*
D46*
X187645000Y-92137300D02*
X187404000Y-91896100D01*
X187645000Y-93655000D02*
X187645000Y-92137300D01*
D48*
G04 #@! TO.N,Net-(U8-SDO)*
X194966400Y-88153700D02*
X194966000Y-88153700D01*
D46*
X193967000Y-89153100D02*
X191595100Y-89153100D01*
X194966000Y-88153700D02*
X193967000Y-89153100D01*
X191595100Y-89153100D02*
X191595000Y-89153100D01*
D47*
G04 #@! TO.N,Net-(R58-Pad2)*
X161792000Y-61337500D02*
X161725000Y-61405000D01*
X164500000Y-61337500D02*
X161792000Y-61337500D01*
G04 #@! TO.N,Net-(U6B--)*
X174675000Y-80281000D02*
X172500000Y-80281000D01*
X174588000Y-83281000D02*
X172412500Y-83281000D01*
X172412000Y-80368500D02*
X172500000Y-80281000D01*
X172412000Y-83281000D02*
X172412000Y-80368500D01*
X172412500Y-83281000D02*
X172412000Y-83281000D01*
X171630000Y-76281000D02*
X171000000Y-76281000D01*
X172500000Y-77151200D02*
X171630000Y-76281000D01*
X172500000Y-80281000D02*
X172500000Y-77151200D01*
G04 #@! TO.N,Net-(U6A--)*
X174588000Y-67281000D02*
X172500000Y-67281000D01*
X171975000Y-71201000D02*
X171000000Y-71201000D01*
X174588000Y-68588500D02*
X171975000Y-71201000D01*
X174588000Y-67281000D02*
X174588000Y-68588500D01*
D48*
X174587500Y-67281000D02*
X174588000Y-67281000D01*
D47*
X174588000Y-64281000D02*
X174587500Y-64281000D01*
X174587500Y-64281000D02*
X172412500Y-64281000D01*
X172500000Y-64368500D02*
X172500000Y-67281000D01*
X172412000Y-64281000D02*
X172500000Y-64368500D01*
X172412500Y-64281000D02*
X172412000Y-64281000D01*
G04 #@! TO.N,/Y*
X148828000Y-61038500D02*
X147540000Y-59750000D01*
X148828000Y-68028500D02*
X148828000Y-61038500D01*
X146040000Y-70817000D02*
X148828000Y-68028500D01*
X170588000Y-67268500D02*
X170600000Y-67281000D01*
X170588000Y-64281000D02*
X170588000Y-67268500D01*
X170600000Y-69531000D02*
X171000000Y-69931000D01*
X170600000Y-67281000D02*
X170600000Y-69531000D01*
D48*
X147539500Y-59750000D02*
X147540000Y-59750000D01*
X146039500Y-70817000D02*
X146040000Y-70817000D01*
X170587500Y-64281000D02*
X170588000Y-64281000D01*
D47*
G04 #@! TO.N,/X*
X170600000Y-80281000D02*
X170600000Y-83268500D01*
X170588000Y-83281000D02*
X170600000Y-83268500D01*
X170600000Y-77951000D02*
X171000000Y-77551000D01*
X170600000Y-80281000D02*
X170600000Y-77951000D01*
D48*
X148495000Y-84899500D02*
X148495000Y-84899700D01*
X147662500Y-84067000D02*
X148495000Y-84899500D01*
D47*
X148495000Y-84899700D02*
X147662000Y-84067000D01*
D48*
X170587500Y-83281000D02*
X170588000Y-83281000D01*
X146162500Y-95317000D02*
X146162300Y-95316800D01*
D47*
X146162000Y-95317000D02*
X146162300Y-95316800D01*
G04 #@! TO.N,/Z*
X150500000Y-83837500D02*
X145912000Y-79250000D01*
X145912000Y-79250000D02*
X145912000Y-74317000D01*
X156255000Y-83023500D02*
X156292000Y-83061000D01*
X156255000Y-80311000D02*
X156255000Y-83023500D01*
X151276000Y-83061000D02*
X156292000Y-83061000D01*
X150500000Y-83837500D02*
X151276000Y-83061000D01*
X150500000Y-69729500D02*
X145912000Y-74317000D01*
X150500000Y-60710500D02*
X150500000Y-69729500D01*
X145540000Y-55750000D02*
X150500000Y-60710500D01*
X156255000Y-77806000D02*
X156480000Y-77581000D01*
X156255000Y-80311000D02*
X156255000Y-77806000D01*
D48*
X145912500Y-74317000D02*
X145912000Y-74317000D01*
X145912500Y-79250000D02*
X145912000Y-79250000D01*
D47*
X146162000Y-98741000D02*
X147029600Y-97873500D01*
X150500000Y-94403500D02*
X150500000Y-83837500D01*
X147029600Y-97873500D02*
X150500000Y-94403500D01*
D48*
X146162500Y-98740600D02*
X146162500Y-98741000D01*
X147029600Y-97873500D02*
X146162500Y-98740600D01*
X156292500Y-83061000D02*
X156292000Y-83061000D01*
X145539500Y-55750000D02*
X145540000Y-55750000D01*
D47*
G04 #@! TO.N,Net-(U5B--)*
X160292000Y-80311000D02*
X158155000Y-80311000D01*
X160268000Y-83061000D02*
X160267500Y-83061000D01*
D48*
X160292500Y-80311000D02*
X160292000Y-80311000D01*
X158117500Y-83061000D02*
X158118000Y-83061000D01*
D47*
X160267500Y-83061000D02*
X158118000Y-83061000D01*
X158118000Y-80348500D02*
X158155000Y-80311000D01*
X158118000Y-83061000D02*
X158118000Y-80348500D01*
D48*
X158155000Y-77577400D02*
X158155000Y-80311000D01*
X156888600Y-76311000D02*
X158155000Y-77577400D01*
X156480000Y-76311000D02*
X156888600Y-76311000D01*
D47*
G04 #@! TO.N,Net-(U5A--)*
X158205000Y-67361000D02*
X158155000Y-67311000D01*
X157110000Y-71231000D02*
X156480000Y-71231000D01*
X158155000Y-70185800D02*
X157110000Y-71231000D01*
X158155000Y-67311000D02*
X158155000Y-70185800D01*
X160268000Y-64361000D02*
X160267500Y-64361000D01*
X161468000Y-63160000D02*
X160268000Y-64361000D01*
X164498000Y-63160000D02*
X161468000Y-63160000D01*
X164500000Y-63162500D02*
X164498000Y-63160000D01*
D48*
X158117500Y-64361000D02*
X158118000Y-64361000D01*
D47*
X160267500Y-64361000D02*
X158118000Y-64361000D01*
X158118000Y-67273500D02*
X158155000Y-67311000D01*
X158118000Y-64361000D02*
X158118000Y-67273500D01*
X160430000Y-67331000D02*
X160267500Y-67331000D01*
X158175000Y-67331000D02*
X158155000Y-67311000D01*
X160267500Y-67331000D02*
X158175000Y-67331000D01*
G04 #@! TO.N,Net-(U4B-+)*
X141857000Y-62300000D02*
X141532000Y-62625000D01*
X144627000Y-62300000D02*
X141857000Y-62300000D01*
X147590000Y-62300000D02*
X147627000Y-62337500D01*
X144627000Y-62300000D02*
X147590000Y-62300000D01*
D48*
X145714500Y-60750700D02*
X145714000Y-60751200D01*
X145714500Y-59750000D02*
X145714500Y-60750700D01*
D47*
X145714000Y-59750000D02*
X145714000Y-60751200D01*
X145714000Y-61212500D02*
X144627000Y-62300000D01*
X145714000Y-60751200D02*
X145714000Y-61212500D01*
G04 #@! TO.N,Net-(C15-Pad2)*
X138832000Y-58404500D02*
X139177000Y-58750000D01*
X135127000Y-58404500D02*
X138832000Y-58404500D01*
X138992000Y-58935000D02*
X139177000Y-58750000D01*
X138992000Y-62625000D02*
X138992000Y-58935000D01*
X139177000Y-55787500D02*
X139214000Y-55750000D01*
X139177000Y-58750000D02*
X139177000Y-55787500D01*
D48*
X139214500Y-55750000D02*
X139214000Y-55750000D01*
D47*
G04 #@! TO.N,Net-(C14-Pad2)*
X137677000Y-67620000D02*
X137722000Y-67575000D01*
X137677000Y-70750000D02*
X137677000Y-67620000D01*
X135214000Y-74250000D02*
X135127000Y-74162500D01*
D48*
X137714500Y-74250000D02*
X137714000Y-74250000D01*
D47*
X137627000Y-74162500D02*
X137714000Y-74250000D01*
X135127000Y-74162500D02*
X137627000Y-74162500D01*
X137714000Y-70787500D02*
X137677000Y-70750000D01*
X137714000Y-74250000D02*
X137714000Y-70787500D01*
G04 #@! TO.N,Net-(U4B--)*
X140293000Y-60484000D02*
X140293000Y-62594000D01*
X141077000Y-59700000D02*
X140293000Y-60484000D01*
X141077000Y-58750000D02*
X141077000Y-59700000D01*
D48*
X140262000Y-62625000D02*
X140293000Y-62594000D01*
X141039500Y-55750000D02*
X141040000Y-55750000D01*
D47*
X141077000Y-55787500D02*
X141040000Y-55750000D01*
X141077000Y-58750000D02*
X141077000Y-55787500D01*
X141040000Y-55750000D02*
X143714000Y-55750000D01*
D48*
X143714500Y-55750000D02*
X143714000Y-55750000D01*
D47*
G04 #@! TO.N,Net-(U4A--)*
X138992000Y-70165000D02*
X138992000Y-67575000D01*
X139577000Y-70750000D02*
X138992000Y-70165000D01*
X144088000Y-70944000D02*
X144214000Y-70817000D01*
X144088000Y-74317000D02*
X144088000Y-70944000D01*
X139577000Y-74212500D02*
X139540000Y-74250000D01*
X139577000Y-70750000D02*
X139577000Y-74212500D01*
X139644000Y-70817000D02*
X139577000Y-70750000D01*
X144214000Y-70817000D02*
X139644000Y-70817000D01*
D48*
X144087500Y-74317000D02*
X144088000Y-74317000D01*
X139539500Y-74250000D02*
X139540000Y-74250000D01*
X144214500Y-70817000D02*
X144214000Y-70817000D01*
D47*
G04 #@! TO.N,Net-(U3B-+)*
X145838000Y-85589500D02*
X144627000Y-86800000D01*
X145838000Y-84067000D02*
X145838000Y-85589500D01*
X148090000Y-86800000D02*
X148127000Y-86837500D01*
X144627000Y-86800000D02*
X148090000Y-86800000D01*
X141657000Y-86800000D02*
X141532000Y-86925000D01*
X144627000Y-86800000D02*
X141657000Y-86800000D01*
D48*
X145837500Y-84067000D02*
X145838000Y-84067000D01*
D46*
G04 #@! TO.N,Net-(C31-Pad1)*
X164500000Y-100722000D02*
X168432000Y-104655000D01*
X164500000Y-99912500D02*
X164500000Y-100722000D01*
D48*
X168432500Y-104655000D02*
X168432300Y-104654800D01*
D47*
X169634000Y-103454000D02*
X168432300Y-104654800D01*
X171444000Y-103454000D02*
X169634000Y-103454000D01*
X172645000Y-104655000D02*
X171444000Y-103454000D01*
X168432300Y-104654800D02*
X168432000Y-104655000D01*
G04 #@! TO.N,Net-(U3B--)*
X140262000Y-83515000D02*
X140262000Y-86925000D01*
X141027000Y-82750000D02*
X140262000Y-83515000D01*
X141027000Y-79287500D02*
X140990000Y-79250000D01*
X141027000Y-82750000D02*
X141027000Y-79287500D01*
X144088000Y-79250000D02*
X140990000Y-79250000D01*
D48*
X140989500Y-79250000D02*
X140990000Y-79250000D01*
D47*
G04 #@! TO.N,Net-(C10-Pad2)*
X137677000Y-91920000D02*
X137722000Y-91875000D01*
X137677000Y-95250000D02*
X137677000Y-91920000D01*
X135214000Y-95250000D02*
X135127000Y-95162500D01*
X137677000Y-95250000D02*
X135214000Y-95250000D01*
D48*
X137714500Y-97019200D02*
X137714500Y-98750000D01*
X137714000Y-97018700D02*
X137714500Y-97019200D01*
D47*
X137714000Y-98750000D02*
X137714000Y-97018700D01*
X137714000Y-95287500D02*
X137677000Y-95250000D01*
X137714000Y-97018700D02*
X137714000Y-95287500D01*
G04 #@! TO.N,Net-(U3A--)*
X144338000Y-98741000D02*
X144338000Y-95317000D01*
X138992000Y-94665000D02*
X139577000Y-95250000D01*
X138992000Y-91875000D02*
X138992000Y-94665000D01*
X139644000Y-95317000D02*
X139577000Y-95250000D01*
X144338000Y-95317000D02*
X139644000Y-95317000D01*
X139577000Y-98712500D02*
X139540000Y-98750000D01*
X139577000Y-95250000D02*
X139577000Y-98712500D01*
D48*
X144337500Y-95317000D02*
X144338000Y-95317000D01*
X144337500Y-98741000D02*
X144338000Y-98741000D01*
X139539500Y-98750000D02*
X139540000Y-98750000D01*
D47*
G04 #@! TO.N,Net-(C11-Pad2)*
X139164000Y-82712500D02*
X139127000Y-82750000D01*
X139164000Y-79250000D02*
X139164000Y-82712500D01*
X135214000Y-82750000D02*
X135127000Y-82662500D01*
X139127000Y-82750000D02*
X135214000Y-82750000D01*
X138992000Y-82885000D02*
X139127000Y-82750000D01*
X138992000Y-86925000D02*
X138992000Y-82885000D01*
D48*
X139164500Y-79250000D02*
X139164000Y-79250000D01*
G04 #@! TO.N,Net-(U2A-+)*
X192017500Y-47525000D02*
X192038400Y-47525000D01*
D47*
X192018000Y-47525000D02*
X192038400Y-47525000D01*
G04 #@! TO.N,/DAC/Buff_Out*
X195240000Y-58000000D02*
X193970000Y-58000000D01*
D48*
X162092500Y-67331000D02*
X162092000Y-67331000D01*
X162092500Y-83061000D02*
X162092000Y-83061000D01*
X176412000Y-67281000D02*
X176412500Y-67281000D01*
X176412000Y-83281000D02*
X176412500Y-83281000D01*
G04 #@! TO.N,/CNV_ADC*
X191595700Y-91655600D02*
X191595100Y-91655000D01*
X192101000Y-91655600D02*
X191595700Y-91655600D01*
D46*
X192607000Y-91655600D02*
X192101000Y-91655600D01*
X192633000Y-91629600D02*
X192607000Y-91655600D01*
X192101000Y-91655600D02*
X191595000Y-91655600D01*
D48*
G04 #@! TO.N,/CS_ADC*
X194966400Y-90403700D02*
X194966000Y-90403700D01*
D46*
X194717000Y-90153900D02*
X191595100Y-90153900D01*
X194966000Y-90403700D02*
X194717000Y-90153900D01*
X191595100Y-90153900D02*
X191595000Y-90153900D01*
G04 #@! TO.N,/BUSY_ADC*
X138060000Y-53300000D02*
X136960000Y-52200000D01*
X169200000Y-53300000D02*
X138060000Y-53300000D01*
X182500000Y-66600000D02*
X169200000Y-53300000D01*
D48*
X136960000Y-51540000D02*
X136960000Y-52200000D01*
X191595700Y-90654900D02*
X191595100Y-90654300D01*
X191804000Y-90654900D02*
X191595700Y-90654900D01*
D46*
G04 #@! TO.N,/BIAS_MOD_EN*
X126259000Y-54199000D02*
X124260000Y-52200000D01*
X151134000Y-54199000D02*
X126259000Y-54199000D01*
X155800000Y-58865000D02*
X151134000Y-54199000D01*
X156775000Y-58865000D02*
X155800000Y-58865000D01*
D48*
X124260000Y-51540000D02*
X124260000Y-52200000D01*
G04 #@! TO.N,/MISO_ADC*
X196791400Y-88153700D02*
X196791000Y-88153700D01*
D46*
G04 #@! TO.N,Net-(JP31-Pad2)*
X167812000Y-98087500D02*
X168000000Y-98275000D01*
X164500000Y-98087500D02*
X167812000Y-98087500D01*
X168025000Y-98250000D02*
X168000000Y-98275000D01*
X171620000Y-98250000D02*
X168025000Y-98250000D01*
G04 #@! TO.N,Net-(JP30-Pad2)*
X168090000Y-88115000D02*
X168000000Y-88025000D01*
X171645000Y-88115000D02*
X168090000Y-88115000D01*
X167812000Y-87837500D02*
X168000000Y-88025000D01*
X164500000Y-87837500D02*
X167812000Y-87837500D01*
G04 #@! TO.N,Net-(C29-Pad1)*
X164500000Y-90472500D02*
X168432000Y-94405000D01*
X164500000Y-89662500D02*
X164500000Y-90472500D01*
D48*
X168432500Y-94405000D02*
X168432300Y-94404800D01*
D47*
X169634000Y-93204000D02*
X168432300Y-94404800D01*
X171244000Y-93204000D02*
X169634000Y-93204000D01*
X172445000Y-94405000D02*
X171244000Y-93204000D01*
X168432300Y-94404800D02*
X168432000Y-94405000D01*
D46*
G04 #@! TO.N,/AIN+*
X178015000Y-88115000D02*
X178100000Y-88200000D01*
X176595000Y-88115000D02*
X178015000Y-88115000D01*
D47*
X190085000Y-97450000D02*
X189800000Y-97735000D01*
X193375000Y-97450000D02*
X190085000Y-97450000D01*
G04 #@! TO.N,/AIN-*
X190225000Y-100700000D02*
X189800000Y-100275000D01*
X193375000Y-100700000D02*
X190225000Y-100700000D01*
G04 #@! TO.N,/IOUT-*
X160750000Y-92750000D02*
X159500000Y-92750000D01*
X161750000Y-91750000D02*
X160750000Y-92750000D01*
X161750000Y-90500000D02*
X161750000Y-91750000D01*
X159385000Y-88135000D02*
X161750000Y-90500000D01*
X158300000Y-88135000D02*
X159385000Y-88135000D01*
X159500000Y-92750000D02*
X159500000Y-94020000D01*
G04 #@! TO.N,/IOUT+*
X154550000Y-91480000D02*
X154550000Y-91000000D01*
X154550000Y-92750000D02*
X154550000Y-91480000D01*
X154550000Y-91480000D02*
X154550000Y-91000000D01*
X154550000Y-89345000D02*
X155760000Y-88135000D01*
X154550000Y-91000000D02*
X154550000Y-89345000D01*
G04 #@! TO.N,/Z+Y*
X130562000Y-72337500D02*
X129922000Y-72978000D01*
X135127000Y-72337500D02*
X130562000Y-72337500D01*
G04 #@! TO.N,/Connectors/BIAS*
X156255000Y-69736000D02*
X156480000Y-69961000D01*
X156255000Y-67311000D02*
X156255000Y-69736000D01*
X144721000Y-75721000D02*
X144750000Y-75750000D01*
X129922000Y-75721000D02*
X144721000Y-75721000D01*
D48*
X156292500Y-65816700D02*
X156292500Y-64361000D01*
X156292000Y-65817200D02*
X156292500Y-65816700D01*
D47*
X156292000Y-64361000D02*
X156292000Y-65817200D01*
X156292000Y-67273500D02*
X156255000Y-67311000D01*
X156292000Y-65817200D02*
X156292000Y-67273500D01*
G04 #@! TO.N,/Z+X*
X133250000Y-87278000D02*
X129922000Y-83950000D01*
X133250000Y-91460500D02*
X133250000Y-87278000D01*
X135127000Y-93337500D02*
X133250000Y-91460500D01*
G04 #@! TO.N,/Z-X*
X130292000Y-80837500D02*
X129922000Y-81207000D01*
X135127000Y-80837500D02*
X130292000Y-80837500D01*
G04 #@! TO.N,/T_Amp-*
X154839000Y-99951000D02*
X159500000Y-95290000D01*
X136312000Y-99951000D02*
X154839000Y-99951000D01*
X129922000Y-93560500D02*
X136312000Y-99951000D01*
X129922000Y-92180000D02*
X129922000Y-93560500D01*
D46*
X161010000Y-96800000D02*
X159500000Y-95290000D01*
X172200000Y-96800000D02*
X161010000Y-96800000D01*
X173200000Y-97800000D02*
X172200000Y-96800000D01*
X173200000Y-98915000D02*
X173200000Y-97800000D01*
X172595000Y-99520000D02*
X173200000Y-98915000D01*
X171620000Y-99520000D02*
X172595000Y-99520000D01*
X171415000Y-99725000D02*
X171620000Y-99520000D01*
X168000000Y-99725000D02*
X171415000Y-99725000D01*
G04 #@! TO.N,/T_Amp+*
X168000000Y-89475000D02*
X168000000Y-89800000D01*
X171555000Y-89475000D02*
X171645000Y-89385000D01*
X168000000Y-89475000D02*
X171555000Y-89475000D01*
G04 #@! TO.N,/DAC/RFBB*
X179331000Y-69000000D02*
X179000000Y-69331000D01*
X185211000Y-69000000D02*
X179331000Y-69000000D01*
X185475000Y-69264000D02*
X185211000Y-69000000D01*
X185475000Y-70441000D02*
X185475000Y-69264000D01*
D47*
X178400000Y-69931000D02*
X179000000Y-69331000D01*
X175950000Y-69931000D02*
X178400000Y-69931000D01*
X176412000Y-64281000D02*
X176929600Y-64798500D01*
X179000000Y-66868500D02*
X179000000Y-69331000D01*
X176929600Y-64798500D02*
X179000000Y-66868500D01*
D48*
X176412500Y-64281400D02*
X176412500Y-64281000D01*
X176929600Y-64798500D02*
X176412500Y-64281400D01*
D46*
G04 #@! TO.N,/DAC/RFBD*
X190025000Y-76016000D02*
X190025000Y-77541000D01*
X189809000Y-75800000D02*
X190025000Y-76016000D01*
X187400000Y-75800000D02*
X189809000Y-75800000D01*
D47*
X163905000Y-69961000D02*
X164455000Y-69411000D01*
X161430000Y-69961000D02*
X163905000Y-69961000D01*
D48*
X162092500Y-64361000D02*
X162092000Y-64361000D01*
D46*
G04 #@! TO.N,/DAC/IOUTB*
X179461000Y-71692000D02*
X179000000Y-71231000D01*
X184101000Y-71692000D02*
X179461000Y-71692000D01*
X184175000Y-71618000D02*
X184101000Y-71692000D01*
X184175000Y-70441000D02*
X184175000Y-71618000D01*
D47*
X175980000Y-71231000D02*
X175950000Y-71201000D01*
X179000000Y-71231000D02*
X175980000Y-71231000D01*
G04 #@! TO.N,/DAC/IOUTA*
X162405000Y-76311000D02*
X161430000Y-76311000D01*
X163505000Y-77411000D02*
X162405000Y-76311000D01*
X164455000Y-77411000D02*
X163505000Y-77411000D01*
D46*
X191325000Y-73425000D02*
X191325000Y-70441000D01*
X191310000Y-73440400D02*
X191325000Y-73425000D01*
X191310000Y-74040400D02*
X191310000Y-73440400D01*
X191285000Y-74065400D02*
X191310000Y-74040400D01*
G04 #@! TO.N,/SCK_ADC*
X191595000Y-89653500D02*
X190582000Y-89653500D01*
X154740000Y-36960000D02*
X169669200Y-51889200D01*
X186775000Y-68995000D02*
X186775000Y-70441000D01*
X169669200Y-51889200D02*
X186775000Y-68995000D01*
X187334000Y-72200000D02*
X189300000Y-72200000D01*
X186775000Y-71641000D02*
X187334000Y-72200000D01*
X186775000Y-70441000D02*
X186775000Y-71641000D01*
D48*
X191595100Y-89653500D02*
X191595000Y-89653500D01*
D47*
G04 #@! TO.N,/DAC/RFBA*
X162118000Y-78268500D02*
X161430000Y-77581000D01*
X162118000Y-80311000D02*
X162118000Y-78268500D01*
X163455000Y-80311000D02*
X164455000Y-79311000D01*
X163250000Y-80311000D02*
X163455000Y-80311000D01*
X162118000Y-80311000D02*
X163250000Y-80311000D01*
D48*
X162117500Y-80311000D02*
X162118000Y-80311000D01*
D46*
G04 #@! TO.N,/LDAC_DAC*
X187425000Y-78567400D02*
X187425000Y-77541000D01*
X186496000Y-79496200D02*
X187425000Y-78567400D01*
G04 #@! TO.N,/DAC/IOUTC*
X180631000Y-75750000D02*
X179000000Y-77381000D01*
X183561000Y-75750000D02*
X180631000Y-75750000D01*
X184175000Y-76364000D02*
X183561000Y-75750000D01*
X184175000Y-77541000D02*
X184175000Y-76364000D01*
D47*
X176850000Y-76281000D02*
X175950000Y-76281000D01*
X177900000Y-77331000D02*
X176850000Y-76281000D01*
X178950000Y-77331000D02*
X177900000Y-77331000D01*
X179000000Y-77381000D02*
X178950000Y-77331000D01*
G04 #@! TO.N,/DAC/RFBC*
X177500000Y-79281000D02*
X176500000Y-80281000D01*
X179000000Y-79281000D02*
X177500000Y-79281000D01*
D46*
X184935000Y-79281000D02*
X179000000Y-79281000D01*
X185475000Y-78741000D02*
X184935000Y-79281000D01*
X185475000Y-77541000D02*
X185475000Y-78741000D01*
D47*
X177500000Y-79101000D02*
X177500000Y-79281000D01*
X175950000Y-77551000D02*
X177500000Y-79101000D01*
D46*
G04 #@! TO.N,/DAC/10V_REF*
X196510000Y-53050000D02*
X195240000Y-53050000D01*
X194664000Y-62416000D02*
X197500000Y-62416000D01*
X192700000Y-60451900D02*
X194664000Y-62416000D01*
X192700000Y-58000000D02*
X192700000Y-60451900D01*
X197600000Y-62316000D02*
X197500000Y-62416000D01*
X197600000Y-54140000D02*
X197600000Y-62316000D01*
X196510000Y-53050000D02*
X197600000Y-54140000D01*
X184825000Y-77541000D02*
X184825000Y-76250000D01*
X184825000Y-76250000D02*
X184825000Y-70441000D01*
X190675000Y-69241000D02*
X190675000Y-70441000D01*
X197500000Y-62416000D02*
X190675000Y-69241000D01*
X190675000Y-75675000D02*
X190675000Y-77541000D01*
X190600000Y-75600000D02*
X190675000Y-75675000D01*
X185926000Y-75149000D02*
X184825000Y-76250000D01*
X190499000Y-75149000D02*
X185926000Y-75149000D01*
X190600000Y-75250000D02*
X190499000Y-75149000D01*
X190600000Y-75600000D02*
X190600000Y-75250000D01*
X190675000Y-70441000D02*
X190675000Y-73200000D01*
D48*
G04 #@! TO.N,/DAC/IOUTD*
X164375000Y-71231000D02*
X164455000Y-71311000D01*
X161430000Y-71231000D02*
X164375000Y-71231000D01*
G04 #@! TO.N,/MOSI_DAC*
X152200000Y-51540000D02*
X152530000Y-51870000D01*
D46*
X154100000Y-50300000D02*
X152530000Y-51870000D01*
X167220000Y-50300000D02*
X154100000Y-50300000D01*
X186125000Y-69205500D02*
X167220000Y-50300000D01*
X186125000Y-70441000D02*
X186125000Y-69205500D01*
X152530000Y-51870000D02*
X152200000Y-52200000D01*
D47*
G04 #@! TO.N,Net-(IC1-VOUT)*
X189434000Y-52370000D02*
X188990000Y-52814000D01*
X189434000Y-48283500D02*
X189434000Y-52370000D01*
X190192000Y-47525000D02*
X189434000Y-48283500D01*
D48*
X190192500Y-47525000D02*
X190192000Y-47525000D01*
D47*
G04 #@! TO.N,Net-(IC1-NOISE_REDUCTION)*
X186455000Y-52809000D02*
X186450000Y-52814000D01*
X186455000Y-50025000D02*
X186455000Y-52809000D01*
D46*
G04 #@! TO.N,/2A_3*
X135079000Y-144094000D02*
X129922000Y-138937000D01*
X158627000Y-144094000D02*
X135079000Y-144094000D01*
G04 #@! TO.N,/StepperDrivers/STEP_3*
X141300000Y-120500000D02*
X141300000Y-122600000D01*
X131300000Y-110500000D02*
X141300000Y-120500000D01*
X127900000Y-110500000D02*
X131300000Y-110500000D01*
X121550000Y-104150000D02*
X127900000Y-110500000D01*
G04 #@! TO.N,/1A_3*
X135282000Y-141554000D02*
X129922000Y-136194000D01*
X158627000Y-141554000D02*
X135282000Y-141554000D01*
G04 #@! TO.N,/2B_3*
X134876000Y-146634000D02*
X129922000Y-141680000D01*
X158627000Y-146634000D02*
X134876000Y-146634000D01*
G04 #@! TO.N,/1B_3*
X135486000Y-139014000D02*
X129922000Y-133450000D01*
X158627000Y-139014000D02*
X135486000Y-139014000D01*
G04 #@! TO.N,/1B_2*
X137837000Y-127964000D02*
X129922000Y-127964000D01*
X149597000Y-116204000D02*
X137837000Y-127964000D01*
X158627000Y-116204000D02*
X149597000Y-116204000D01*
G04 #@! TO.N,/2A_2*
X141094000Y-130707000D02*
X129922000Y-130707000D01*
X150517000Y-121284000D02*
X141094000Y-130707000D01*
X158627000Y-121284000D02*
X150517000Y-121284000D01*
G04 #@! TO.N,/2B_2*
X150977000Y-123824000D02*
X158627000Y-123824000D01*
X142722000Y-132079000D02*
X150977000Y-123824000D01*
X127077000Y-132079000D02*
X142722000Y-132079000D01*
G04 #@! TO.N,/1A_2*
X139465000Y-129336000D02*
X127077000Y-129336000D01*
X150057000Y-118744000D02*
X139465000Y-129336000D01*
X158627000Y-118744000D02*
X150057000Y-118744000D01*
D47*
G04 #@! TO.N,/2B_1*
X127077000Y-126254000D02*
X127077000Y-126592000D01*
D46*
G04 #@! TO.N,+5V*
X188075000Y-70441000D02*
X188725000Y-70441000D01*
X189412000Y-70403500D02*
X189375000Y-70441000D01*
X189412000Y-67750000D02*
X189412000Y-70403500D01*
D49*
X210545000Y-62455100D02*
X204000000Y-62455100D01*
X213815000Y-59185000D02*
X210545000Y-62455100D01*
X214205000Y-59185000D02*
X213815000Y-59185000D01*
D46*
X188725000Y-70441000D02*
X189375000Y-70441000D01*
D47*
X158567000Y-151774000D02*
X158627000Y-151714000D01*
X152623000Y-151774000D02*
X158567000Y-151774000D01*
D49*
X215577000Y-60557000D02*
X214205000Y-59185000D01*
X217050000Y-60557000D02*
X215577000Y-60557000D01*
D47*
X158598000Y-128933000D02*
X158627000Y-128904000D01*
X152623000Y-128933000D02*
X158598000Y-128933000D01*
D46*
X212450000Y-94200000D02*
X212450000Y-91600000D01*
D48*
X189412000Y-67750000D02*
X189412500Y-67750000D01*
D46*
X187163000Y-88652700D02*
X187162800Y-88652700D01*
X186150000Y-88652700D02*
X186000000Y-88802300D01*
X187162800Y-88652700D02*
X186150000Y-88652700D01*
D47*
G04 #@! TO.N,-15V*
X192700000Y-50380000D02*
X193055000Y-50025000D01*
X192700000Y-53050000D02*
X192700000Y-50380000D01*
X196000000Y-43500000D02*
X199000000Y-43500000D01*
X141907000Y-92250000D02*
X141532000Y-91875000D01*
X144177000Y-92250000D02*
X141907000Y-92250000D01*
D49*
X215577000Y-46841000D02*
X214205000Y-45469000D01*
X217050000Y-46841000D02*
X215577000Y-46841000D01*
D47*
X153915000Y-60135000D02*
X153750000Y-60300000D01*
X156775000Y-60135000D02*
X153915000Y-60135000D01*
X141707000Y-67750000D02*
X141532000Y-67575000D01*
X144177000Y-67750000D02*
X141707000Y-67750000D01*
X161790000Y-73411000D02*
X161430000Y-73771000D01*
X164455000Y-73411000D02*
X161790000Y-73411000D01*
X203955000Y-43500000D02*
X204000000Y-43455100D01*
X199000000Y-43500000D02*
X203955000Y-43500000D01*
X176360000Y-73331000D02*
X175950000Y-73741000D01*
X179000000Y-73331000D02*
X176360000Y-73331000D01*
D48*
X191992600Y-53757400D02*
X192700000Y-53050000D01*
X191992600Y-54733000D02*
X191992600Y-53757400D01*
X180871000Y-101060000D02*
X180870900Y-101060000D01*
X176595000Y-89395000D02*
X176595000Y-89385000D01*
X176600000Y-89400000D02*
X176595000Y-89395000D01*
D47*
G04 #@! TO.N,+3V3*
X171407000Y-118824000D02*
X171327000Y-118744000D01*
D49*
X215576000Y-55070000D02*
X214205000Y-53699000D01*
X217050000Y-55070000D02*
X215576000Y-55070000D01*
D46*
X175627000Y-118824000D02*
X171407000Y-118824000D01*
X175357000Y-141554000D02*
X175627000Y-141824000D01*
X171327000Y-141554000D02*
X175357000Y-141554000D01*
D49*
X211443000Y-55455100D02*
X204000000Y-55455100D01*
X213199000Y-53699000D02*
X211443000Y-55455100D01*
X214205000Y-53699000D02*
X213199000Y-53699000D01*
D48*
X196791400Y-90403700D02*
X196791400Y-90276800D01*
X190435800Y-88652700D02*
X190312100Y-88529000D01*
X191595100Y-88652700D02*
X190435800Y-88652700D01*
D47*
G04 #@! TO.N,+15V*
X196505000Y-60775000D02*
X196510000Y-60770000D01*
D46*
X182445000Y-56755100D02*
X182400000Y-56800000D01*
D47*
X196510000Y-58000000D02*
X196510000Y-60770000D01*
X137397000Y-87250000D02*
X137722000Y-86925000D01*
X135127000Y-87250000D02*
X137397000Y-87250000D01*
X203900000Y-50400000D02*
X204000000Y-50500000D01*
X199000000Y-50400000D02*
X203900000Y-50400000D01*
X164005000Y-57595000D02*
X164500000Y-57100000D01*
X161725000Y-57595000D02*
X164005000Y-57595000D01*
D49*
X215577000Y-52327000D02*
X214205000Y-50955000D01*
X217050000Y-52327000D02*
X215577000Y-52327000D01*
D47*
X196100000Y-50400000D02*
X196000000Y-50500000D01*
X199000000Y-50400000D02*
X196100000Y-50400000D01*
X167912000Y-73411000D02*
X167912500Y-73411000D01*
X170670000Y-73411000D02*
X171000000Y-73741000D01*
X167912500Y-73411000D02*
X170670000Y-73411000D01*
X153412000Y-73411000D02*
X153412500Y-73411000D01*
X156120000Y-73411000D02*
X156480000Y-73771000D01*
X153412500Y-73411000D02*
X156120000Y-73411000D01*
D48*
X186319000Y-97250000D02*
X186319200Y-97250000D01*
X137634500Y-62712500D02*
X137722000Y-62625000D01*
X137603500Y-62712500D02*
X137634500Y-62712500D01*
D47*
X137516000Y-62800000D02*
X137603500Y-62712500D01*
X135127000Y-62800000D02*
X137516000Y-62800000D01*
X137603500Y-62712500D02*
X137691000Y-62625000D01*
D46*
X186678000Y-56755100D02*
X182445000Y-56755100D01*
X187720000Y-57797000D02*
X186678000Y-56755100D01*
X187720000Y-58236000D02*
X187720000Y-57797000D01*
X182445000Y-56755100D02*
X182100000Y-56755100D01*
G04 #@! TO.N,GND*
X212650000Y-78062500D02*
X213525000Y-78062500D01*
D48*
X192050000Y-70441000D02*
X191975000Y-70441000D01*
D47*
X214350000Y-94200000D02*
X214400000Y-94200000D01*
D46*
X194825000Y-97450000D02*
X195670000Y-97450000D01*
X161860000Y-59000000D02*
X161725000Y-58865000D01*
X164500000Y-59000000D02*
X161860000Y-59000000D01*
D48*
X189375000Y-77541000D02*
X188725000Y-77541000D01*
D46*
X194825000Y-100700000D02*
X195620000Y-100700000D01*
D47*
X214350000Y-91600000D02*
X214400000Y-91600000D01*
D49*
X204288000Y-48212000D02*
X204000000Y-48500000D01*
X214205000Y-48212000D02*
X204288000Y-48212000D01*
D46*
X161725000Y-60135000D02*
X161725000Y-58865000D01*
D48*
X183450000Y-77541000D02*
X183525000Y-77541000D01*
D47*
G04 #@! TO.N,unconnected-(U1-GND-Pad32)*
X124500000Y-36060000D02*
X124260000Y-36300000D01*
G04 #@! TO.N,GND*
X199000000Y-41600000D02*
X196000000Y-41600000D01*
D49*
X215577000Y-49584000D02*
X214205000Y-48212000D01*
X217050000Y-49584000D02*
X215577000Y-49584000D01*
D48*
X188075000Y-77541000D02*
X188725000Y-77541000D01*
D47*
X199000000Y-48500000D02*
X199500000Y-48000000D01*
D46*
X212650000Y-78062500D02*
X210658000Y-78062500D01*
D47*
X200500000Y-47000000D02*
X199500000Y-48000000D01*
X202500000Y-47000000D02*
X200500000Y-47000000D01*
X204000000Y-48500000D02*
X202500000Y-47000000D01*
D46*
X191092000Y-88152300D02*
X190845000Y-87905000D01*
X191595000Y-88152300D02*
X191092000Y-88152300D01*
D47*
X203855000Y-41600000D02*
X204000000Y-41455100D01*
X199000000Y-41600000D02*
X203855000Y-41600000D01*
D46*
X188176000Y-89153100D02*
X187163000Y-89153100D01*
D49*
X215576000Y-57813000D02*
X214205000Y-56442000D01*
X217050000Y-57813000D02*
X215576000Y-57813000D01*
D46*
X190245000Y-91154600D02*
X191595000Y-91154600D01*
X190200000Y-91200000D02*
X190245000Y-91154600D01*
D48*
X191155000Y-48924700D02*
X191155000Y-50025000D01*
X190999300Y-48769000D02*
X191155000Y-48924700D01*
X210657500Y-78063000D02*
X210657500Y-78062500D01*
X210008300Y-78712200D02*
X210657500Y-78063000D01*
D46*
X210008300Y-78712200D02*
X210658000Y-78062500D01*
D48*
X175612000Y-72471000D02*
X175950000Y-72471000D01*
X175612000Y-75011000D02*
X175950000Y-75011000D01*
X195675000Y-97445000D02*
X195670000Y-97450000D01*
X171595000Y-90655000D02*
X171645000Y-90655000D01*
X147627000Y-65334100D02*
X147627000Y-64162500D01*
X147294100Y-65667000D02*
X147627000Y-65334100D01*
X161292000Y-72501000D02*
X161430000Y-72501000D01*
X161292000Y-75041000D02*
X161430000Y-75041000D01*
X195625000Y-100695000D02*
X195620000Y-100700000D01*
X183450000Y-70441000D02*
X183525000Y-70441000D01*
X153412000Y-75311000D02*
X153412500Y-75311000D01*
X181600000Y-93155000D02*
X181600100Y-93155000D01*
X191595000Y-88152300D02*
X191595100Y-88152400D01*
X208937500Y-80848000D02*
X208937500Y-81912500D01*
X208938000Y-80847500D02*
X208937500Y-80848000D01*
D46*
X208938000Y-81912500D02*
X208938000Y-80847500D01*
X208938000Y-79782500D02*
X210008300Y-78712200D01*
X208938000Y-80847500D02*
X208938000Y-79782500D01*
D48*
X167912000Y-75311000D02*
X167912500Y-75311000D01*
X188355000Y-49104600D02*
X188355000Y-50025000D01*
X188019400Y-48769000D02*
X188355000Y-49104600D01*
D46*
X188096000Y-90654200D02*
X188345000Y-90405000D01*
X187163000Y-90654200D02*
X188096000Y-90654200D01*
D48*
X187162900Y-90654200D02*
X187162800Y-90654300D01*
X187163000Y-90654200D02*
X187162900Y-90654200D01*
D49*
X202000000Y-63586500D02*
X202000000Y-60697000D01*
X202869000Y-64455100D02*
X202000000Y-63586500D01*
X204000000Y-64455100D02*
X202869000Y-64455100D01*
X202000000Y-59455100D02*
X204000000Y-57455100D01*
X202000000Y-60697000D02*
X202000000Y-59455100D01*
D47*
X199500000Y-48000000D02*
X199000000Y-48500000D01*
X198900000Y-48600000D02*
X196000000Y-48600000D01*
X199000000Y-48500000D02*
X198900000Y-48600000D01*
G04 #@! TO.N,Shield*
X215619000Y-38400000D02*
X215627000Y-38408000D01*
D49*
X134800000Y-105541000D02*
X128500000Y-99241000D01*
X134800000Y-109800000D02*
X134800000Y-105541000D01*
D47*
X214975000Y-72385000D02*
X215627000Y-71733000D01*
X214975000Y-78062500D02*
X214975000Y-72385000D01*
X215000000Y-78087500D02*
X214975000Y-78062500D01*
X215000000Y-81912500D02*
X215000000Y-78087500D01*
D48*
G04 #@! TO.N,/MISO_ADC*
X189850000Y-66650000D02*
X175400000Y-52200000D01*
G04 #@! TO.N,/CS_DAC*
X187587500Y-67750000D02*
X187588000Y-67750000D01*
G04 #@! TO.N,/StepperDrivers/STEP_1*
X200650000Y-54175000D02*
X197951471Y-51476471D01*
D46*
G04 #@! TO.N,/StepperDrivers/DIR_1*
X160887500Y-41337500D02*
X164450000Y-44900000D01*
X164450000Y-44900000D02*
X191950000Y-44900000D01*
D48*
G04 #@! TO.N,/StepperDrivers/STEP_1*
X197951471Y-51476471D02*
X197951471Y-51475000D01*
D46*
G04 #@! TO.N,/StepperDrivers/DIR_1*
X191950000Y-44900000D02*
X194750000Y-47700000D01*
X194925000Y-51525000D02*
X196672678Y-51525000D01*
X194750000Y-47700000D02*
X194750000Y-51350000D01*
X194750000Y-51350000D02*
X194925000Y-51525000D01*
X199250000Y-54102322D02*
X199250000Y-71675000D01*
G04 #@! TO.N,/1A_1*
X146125000Y-120950000D02*
X146850000Y-120950000D01*
G04 #@! TO.N,/StepperDrivers/DIR_1*
X196672678Y-51525000D02*
X199250000Y-54102322D01*
D48*
G04 #@! TO.N,/StepperDrivers/STEP_1*
X201182107Y-54732107D02*
X200650000Y-54200000D01*
D46*
G04 #@! TO.N,/1B_1*
X178393000Y-115053000D02*
X138972000Y-115053000D01*
G04 #@! TO.N,/1A_1*
X150207000Y-117593000D02*
X172625000Y-117593000D01*
G04 #@! TO.N,/1B_1*
X138972000Y-115053000D02*
X138900000Y-115125000D01*
D48*
G04 #@! TO.N,/StepperDrivers/STEP_1*
X200650000Y-54200000D02*
X200650000Y-54175000D01*
D46*
G04 #@! TO.N,/1A_1*
X146850000Y-120950000D02*
X150207000Y-117593000D01*
G04 #@! TD*
G04 #@! TA.AperFunction,Conductor*
G04 #@! TO.N,Shield*
G36*
X120000000Y-119000000D02*
G01*
X123000000Y-119000000D01*
X123000000Y-144809190D01*
X120000000Y-144809190D01*
X120000000Y-152309190D01*
X123000000Y-152309190D01*
X123000000Y-155492742D01*
X119385500Y-155492742D01*
X119385500Y-111624000D01*
X119405185Y-111556961D01*
X119457989Y-111511206D01*
X119509500Y-111500000D01*
X120000000Y-111500000D01*
X120000000Y-119000000D01*
G37*
G04 #@! TD.AperFunction*
G04 #@! TD*
G04 #@! TA.AperFunction,Conductor*
G04 #@! TO.N,Shield*
G36*
X120000001Y-69500000D02*
G01*
X123000001Y-69500000D01*
X123000001Y-95309190D01*
X120000001Y-95309190D01*
X120000001Y-102809190D01*
X123000001Y-102809190D01*
X123000001Y-102876000D01*
X122980316Y-102943039D01*
X122927512Y-102988794D01*
X122876001Y-103000000D01*
X119509500Y-103000000D01*
X119442461Y-102980315D01*
X119396706Y-102927511D01*
X119385500Y-102876000D01*
X119385500Y-62124000D01*
X119405185Y-62056961D01*
X119457989Y-62011206D01*
X119509500Y-62000000D01*
X120000001Y-62000000D01*
X120000001Y-69500000D01*
G37*
G04 #@! TD.AperFunction*
G04 #@! TD*
G04 #@! TA.AperFunction,Conductor*
G04 #@! TO.N,Shield*
G36*
X130521646Y-111519685D02*
G01*
X130534662Y-111529305D01*
X132456054Y-113153659D01*
X132494542Y-113211973D01*
X132499999Y-113248354D01*
X132499999Y-117135773D01*
X132480314Y-117202812D01*
X132459184Y-117227731D01*
X130535420Y-118967958D01*
X130472498Y-118998333D01*
X130452235Y-119000000D01*
X120000000Y-119000000D01*
X120000000Y-115259535D01*
X125714000Y-115259535D01*
X125714000Y-115572464D01*
X125749032Y-115883393D01*
X125749035Y-115883407D01*
X125818665Y-116188478D01*
X125818669Y-116188490D01*
X125922017Y-116483839D01*
X125922020Y-116483847D01*
X126057781Y-116765758D01*
X126224266Y-117030717D01*
X126360675Y-117201770D01*
X127260157Y-116302287D01*
X127337558Y-116408820D01*
X127507180Y-116578442D01*
X127613710Y-116655841D01*
X126714228Y-117555323D01*
X126885282Y-117691733D01*
X127150241Y-117858218D01*
X127432152Y-117993979D01*
X127432160Y-117993982D01*
X127727509Y-118097330D01*
X127727521Y-118097334D01*
X128032592Y-118166964D01*
X128032606Y-118166967D01*
X128343535Y-118201999D01*
X128343539Y-118202000D01*
X128656461Y-118202000D01*
X128656464Y-118201999D01*
X128967393Y-118166967D01*
X128967407Y-118166964D01*
X129272478Y-118097334D01*
X129272490Y-118097330D01*
X129567839Y-117993982D01*
X129567847Y-117993979D01*
X129849758Y-117858218D01*
X130114717Y-117691733D01*
X130285770Y-117555322D01*
X129386288Y-116655841D01*
X129492820Y-116578442D01*
X129662442Y-116408820D01*
X129739841Y-116302288D01*
X130639322Y-117201770D01*
X130775733Y-117030717D01*
X130942218Y-116765758D01*
X131077979Y-116483847D01*
X131077982Y-116483839D01*
X131181330Y-116188490D01*
X131181334Y-116188478D01*
X131250964Y-115883407D01*
X131250967Y-115883393D01*
X131285999Y-115572464D01*
X131286000Y-115572460D01*
X131286000Y-115259539D01*
X131285999Y-115259535D01*
X131250967Y-114948606D01*
X131250964Y-114948592D01*
X131181334Y-114643521D01*
X131181330Y-114643509D01*
X131077982Y-114348160D01*
X131077979Y-114348152D01*
X130942218Y-114066241D01*
X130775733Y-113801282D01*
X130639323Y-113630228D01*
X129739840Y-114529710D01*
X129662442Y-114423180D01*
X129492820Y-114253558D01*
X129386287Y-114176157D01*
X130285770Y-113276675D01*
X130114717Y-113140266D01*
X129849758Y-112973781D01*
X129567847Y-112838020D01*
X129567839Y-112838017D01*
X129272490Y-112734669D01*
X129272478Y-112734665D01*
X128967407Y-112665035D01*
X128967393Y-112665032D01*
X128656464Y-112630000D01*
X128343535Y-112630000D01*
X128032606Y-112665032D01*
X128032592Y-112665035D01*
X127727521Y-112734665D01*
X127727509Y-112734669D01*
X127432160Y-112838017D01*
X127432152Y-112838020D01*
X127150241Y-112973781D01*
X126885282Y-113140266D01*
X126714228Y-113276675D01*
X127613711Y-114176158D01*
X127507180Y-114253558D01*
X127337558Y-114423180D01*
X127260158Y-114529711D01*
X126360675Y-113630228D01*
X126224266Y-113801282D01*
X126057781Y-114066241D01*
X125922020Y-114348152D01*
X125922017Y-114348160D01*
X125818669Y-114643509D01*
X125818665Y-114643521D01*
X125749035Y-114948592D01*
X125749032Y-114948606D01*
X125714000Y-115259535D01*
X120000000Y-115259535D01*
X120000000Y-111500000D01*
X130454607Y-111500000D01*
X130521646Y-111519685D01*
G37*
G04 #@! TD.AperFunction*
G04 #@! TD*
G04 #@! TA.AperFunction,Conductor*
G04 #@! TO.N,Shield*
G36*
X130521648Y-62019685D02*
G01*
X130534662Y-62029304D01*
X131580557Y-62913508D01*
X131619043Y-62971819D01*
X131624500Y-63008200D01*
X131624500Y-67867060D01*
X131604815Y-67934099D01*
X131588181Y-67954741D01*
X130079241Y-69463681D01*
X130017918Y-69497166D01*
X129991560Y-69500000D01*
X120000001Y-69500000D01*
X120000001Y-65759535D01*
X125714000Y-65759535D01*
X125714000Y-66072464D01*
X125749032Y-66383393D01*
X125749035Y-66383407D01*
X125818665Y-66688478D01*
X125818669Y-66688490D01*
X125922017Y-66983839D01*
X125922020Y-66983847D01*
X126057781Y-67265758D01*
X126224266Y-67530717D01*
X126360675Y-67701770D01*
X127260157Y-66802287D01*
X127337558Y-66908820D01*
X127507180Y-67078442D01*
X127613710Y-67155841D01*
X126714228Y-68055323D01*
X126885282Y-68191733D01*
X127150241Y-68358218D01*
X127432152Y-68493979D01*
X127432160Y-68493982D01*
X127727509Y-68597330D01*
X127727521Y-68597334D01*
X128032592Y-68666964D01*
X128032606Y-68666967D01*
X128343535Y-68701999D01*
X128343539Y-68702000D01*
X128656461Y-68702000D01*
X128656464Y-68701999D01*
X128967393Y-68666967D01*
X128967407Y-68666964D01*
X129272478Y-68597334D01*
X129272490Y-68597330D01*
X129567839Y-68493982D01*
X129567847Y-68493979D01*
X129849758Y-68358218D01*
X130114717Y-68191733D01*
X130285770Y-68055322D01*
X129386288Y-67155841D01*
X129492820Y-67078442D01*
X129662442Y-66908820D01*
X129739841Y-66802288D01*
X130639322Y-67701770D01*
X130775733Y-67530717D01*
X130942218Y-67265758D01*
X131077979Y-66983847D01*
X131077982Y-66983839D01*
X131181330Y-66688490D01*
X131181334Y-66688478D01*
X131250964Y-66383407D01*
X131250967Y-66383393D01*
X131285999Y-66072464D01*
X131286000Y-66072460D01*
X131286000Y-65759539D01*
X131285999Y-65759535D01*
X131250967Y-65448606D01*
X131250964Y-65448592D01*
X131181334Y-65143521D01*
X131181330Y-65143509D01*
X131077982Y-64848160D01*
X131077979Y-64848152D01*
X130942218Y-64566241D01*
X130775733Y-64301282D01*
X130639323Y-64130228D01*
X129739840Y-65029710D01*
X129662442Y-64923180D01*
X129492820Y-64753558D01*
X129386287Y-64676157D01*
X130285770Y-63776675D01*
X130114717Y-63640266D01*
X129849758Y-63473781D01*
X129567847Y-63338020D01*
X129567839Y-63338017D01*
X129272490Y-63234669D01*
X129272478Y-63234665D01*
X128967407Y-63165035D01*
X128967393Y-63165032D01*
X128656464Y-63130000D01*
X128343535Y-63130000D01*
X128032606Y-63165032D01*
X128032592Y-63165035D01*
X127727521Y-63234665D01*
X127727509Y-63234669D01*
X127432160Y-63338017D01*
X127432152Y-63338020D01*
X127150241Y-63473781D01*
X126885282Y-63640266D01*
X126714228Y-63776675D01*
X127613711Y-64676158D01*
X127507180Y-64753558D01*
X127337558Y-64923180D01*
X127260158Y-65029711D01*
X126360675Y-64130228D01*
X126224266Y-64301282D01*
X126057781Y-64566241D01*
X125922020Y-64848152D01*
X125922017Y-64848160D01*
X125818669Y-65143509D01*
X125818665Y-65143521D01*
X125749035Y-65448592D01*
X125749032Y-65448606D01*
X125714000Y-65759535D01*
X120000001Y-65759535D01*
X120000001Y-62000000D01*
X130454609Y-62000000D01*
X130521648Y-62019685D01*
G37*
G04 #@! TD.AperFunction*
G04 #@! TD*
G04 #@! TA.AperFunction,Conductor*
G04 #@! TO.N,Shield*
G36*
X224074999Y-75509190D02*
G01*
X213620392Y-75509190D01*
X213553353Y-75489505D01*
X213540336Y-75479885D01*
X211693514Y-73918572D01*
X211618944Y-73855530D01*
X211580457Y-73797216D01*
X211575000Y-73760835D01*
X211575000Y-71576535D01*
X212841000Y-71576535D01*
X212841000Y-71889464D01*
X212876032Y-72200393D01*
X212876035Y-72200407D01*
X212945665Y-72505478D01*
X212945669Y-72505490D01*
X213049017Y-72800839D01*
X213049020Y-72800847D01*
X213184781Y-73082758D01*
X213351266Y-73347717D01*
X213487675Y-73518770D01*
X214387157Y-72619287D01*
X214464558Y-72725820D01*
X214634180Y-72895442D01*
X214740710Y-72972841D01*
X213841228Y-73872323D01*
X214012282Y-74008733D01*
X214277241Y-74175218D01*
X214559152Y-74310979D01*
X214559160Y-74310982D01*
X214854509Y-74414330D01*
X214854521Y-74414334D01*
X215159592Y-74483964D01*
X215159606Y-74483967D01*
X215470535Y-74518999D01*
X215470539Y-74519000D01*
X215783461Y-74519000D01*
X215783464Y-74518999D01*
X216094393Y-74483967D01*
X216094407Y-74483964D01*
X216399478Y-74414334D01*
X216399490Y-74414330D01*
X216694839Y-74310982D01*
X216694847Y-74310979D01*
X216976758Y-74175218D01*
X217241717Y-74008733D01*
X217412770Y-73872322D01*
X216513288Y-72972841D01*
X216619820Y-72895442D01*
X216789442Y-72725820D01*
X216866841Y-72619288D01*
X217766322Y-73518770D01*
X217902733Y-73347717D01*
X218069218Y-73082758D01*
X218204979Y-72800847D01*
X218204982Y-72800839D01*
X218308330Y-72505490D01*
X218308334Y-72505478D01*
X218377964Y-72200407D01*
X218377967Y-72200393D01*
X218412999Y-71889464D01*
X218413000Y-71889460D01*
X218413000Y-71576539D01*
X218412999Y-71576535D01*
X218377967Y-71265606D01*
X218377964Y-71265592D01*
X218308334Y-70960521D01*
X218308330Y-70960509D01*
X218204982Y-70665160D01*
X218204979Y-70665152D01*
X218069218Y-70383241D01*
X217902733Y-70118282D01*
X217766323Y-69947228D01*
X216866840Y-70846710D01*
X216789442Y-70740180D01*
X216619820Y-70570558D01*
X216513287Y-70493157D01*
X217412770Y-69593675D01*
X217241717Y-69457266D01*
X216976758Y-69290781D01*
X216694847Y-69155020D01*
X216694839Y-69155017D01*
X216399490Y-69051669D01*
X216399478Y-69051665D01*
X216094407Y-68982035D01*
X216094393Y-68982032D01*
X215783464Y-68947000D01*
X215470535Y-68947000D01*
X215159606Y-68982032D01*
X215159592Y-68982035D01*
X214854521Y-69051665D01*
X214854509Y-69051669D01*
X214559160Y-69155017D01*
X214559152Y-69155020D01*
X214277241Y-69290781D01*
X214012282Y-69457266D01*
X213841228Y-69593675D01*
X214740711Y-70493158D01*
X214634180Y-70570558D01*
X214464558Y-70740180D01*
X214387158Y-70846711D01*
X213487675Y-69947228D01*
X213351266Y-70118282D01*
X213184781Y-70383241D01*
X213049020Y-70665152D01*
X213049017Y-70665160D01*
X212945669Y-70960509D01*
X212945665Y-70960521D01*
X212876035Y-71265592D01*
X212876032Y-71265606D01*
X212841000Y-71576535D01*
X211575000Y-71576535D01*
X211575000Y-69873416D01*
X211594685Y-69806377D01*
X211615811Y-69781462D01*
X213539579Y-68041232D01*
X213602501Y-68010857D01*
X213622764Y-68009190D01*
X220275000Y-68009190D01*
X224074999Y-68009190D01*
X224074999Y-75509190D01*
G37*
G04 #@! TD.AperFunction*
G04 #@! TD*
G04 #@! TA.AperFunction,Conductor*
G04 #@! TO.N,Shield*
G36*
X224074999Y-42200000D02*
G01*
X213620392Y-42200000D01*
X213553353Y-42180315D01*
X213540336Y-42170695D01*
X211674813Y-40593572D01*
X211618944Y-40546340D01*
X211580457Y-40488026D01*
X211575000Y-40451645D01*
X211575000Y-38251535D01*
X212841000Y-38251535D01*
X212841000Y-38564464D01*
X212876032Y-38875393D01*
X212876035Y-38875407D01*
X212945665Y-39180478D01*
X212945669Y-39180490D01*
X213049017Y-39475839D01*
X213049020Y-39475847D01*
X213184781Y-39757758D01*
X213351266Y-40022717D01*
X213487675Y-40193770D01*
X214387157Y-39294287D01*
X214464558Y-39400820D01*
X214634180Y-39570442D01*
X214740710Y-39647841D01*
X213841228Y-40547323D01*
X214012282Y-40683733D01*
X214277241Y-40850218D01*
X214559152Y-40985979D01*
X214559160Y-40985982D01*
X214854509Y-41089330D01*
X214854521Y-41089334D01*
X215159592Y-41158964D01*
X215159606Y-41158967D01*
X215470535Y-41193999D01*
X215470539Y-41194000D01*
X215783461Y-41194000D01*
X215783464Y-41193999D01*
X216094393Y-41158967D01*
X216094407Y-41158964D01*
X216399478Y-41089334D01*
X216399490Y-41089330D01*
X216694839Y-40985982D01*
X216694847Y-40985979D01*
X216976758Y-40850218D01*
X217241717Y-40683733D01*
X217412770Y-40547322D01*
X216513288Y-39647841D01*
X216619820Y-39570442D01*
X216789442Y-39400820D01*
X216866841Y-39294288D01*
X217766322Y-40193770D01*
X217902733Y-40022717D01*
X218069218Y-39757758D01*
X218204979Y-39475847D01*
X218204982Y-39475839D01*
X218308330Y-39180490D01*
X218308334Y-39180478D01*
X218377964Y-38875407D01*
X218377967Y-38875393D01*
X218412999Y-38564464D01*
X218413000Y-38564460D01*
X218413000Y-38251539D01*
X218412999Y-38251535D01*
X218377967Y-37940606D01*
X218377964Y-37940592D01*
X218308334Y-37635521D01*
X218308330Y-37635509D01*
X218204982Y-37340160D01*
X218204979Y-37340152D01*
X218069218Y-37058241D01*
X217902733Y-36793282D01*
X217766323Y-36622228D01*
X216866840Y-37521710D01*
X216789442Y-37415180D01*
X216619820Y-37245558D01*
X216513287Y-37168157D01*
X217412770Y-36268675D01*
X217241717Y-36132266D01*
X216976758Y-35965781D01*
X216694847Y-35830020D01*
X216694839Y-35830017D01*
X216399490Y-35726669D01*
X216399478Y-35726665D01*
X216094407Y-35657035D01*
X216094393Y-35657032D01*
X215783464Y-35622000D01*
X215470535Y-35622000D01*
X215159606Y-35657032D01*
X215159592Y-35657035D01*
X214854521Y-35726665D01*
X214854509Y-35726669D01*
X214559160Y-35830017D01*
X214559152Y-35830020D01*
X214277241Y-35965781D01*
X214012282Y-36132266D01*
X213841228Y-36268675D01*
X214740711Y-37168158D01*
X214634180Y-37245558D01*
X214464558Y-37415180D01*
X214387158Y-37521711D01*
X213487675Y-36622228D01*
X213351266Y-36793282D01*
X213184781Y-37058241D01*
X213049020Y-37340152D01*
X213049017Y-37340160D01*
X212945669Y-37635509D01*
X212945665Y-37635521D01*
X212876035Y-37940592D01*
X212876032Y-37940606D01*
X212841000Y-38251535D01*
X211575000Y-38251535D01*
X211575000Y-36564226D01*
X211594685Y-36497187D01*
X211615811Y-36472272D01*
X213539579Y-34732042D01*
X213602501Y-34701667D01*
X213622764Y-34700000D01*
X220552659Y-34700000D01*
X224074999Y-34700000D01*
X224074999Y-42200000D01*
G37*
G04 #@! TD.AperFunction*
G04 #@! TD*
G04 #@! TA.AperFunction,Conductor*
G04 #@! TO.N,Shield*
G36*
X130521648Y-95328875D02*
G01*
X130534655Y-95338488D01*
X130745097Y-95516396D01*
X130752716Y-95523404D01*
X132463685Y-97234507D01*
X132497167Y-97295831D01*
X132500000Y-97322184D01*
X132500000Y-100944963D01*
X132480315Y-101012002D01*
X132459185Y-101036921D01*
X130535421Y-102777148D01*
X130472499Y-102807523D01*
X130452236Y-102809190D01*
X120000001Y-102809190D01*
X120000001Y-99084535D01*
X125714000Y-99084535D01*
X125714000Y-99397464D01*
X125749032Y-99708393D01*
X125749035Y-99708407D01*
X125818665Y-100013478D01*
X125818669Y-100013490D01*
X125922017Y-100308839D01*
X125922020Y-100308847D01*
X126057781Y-100590758D01*
X126224266Y-100855717D01*
X126360675Y-101026770D01*
X127260157Y-100127287D01*
X127337558Y-100233820D01*
X127507180Y-100403442D01*
X127613710Y-100480841D01*
X126714228Y-101380323D01*
X126885282Y-101516733D01*
X127150241Y-101683218D01*
X127432152Y-101818979D01*
X127432160Y-101818982D01*
X127727509Y-101922330D01*
X127727521Y-101922334D01*
X128032592Y-101991964D01*
X128032606Y-101991967D01*
X128343535Y-102026999D01*
X128343539Y-102027000D01*
X128656461Y-102027000D01*
X128656464Y-102026999D01*
X128967393Y-101991967D01*
X128967407Y-101991964D01*
X129272478Y-101922334D01*
X129272490Y-101922330D01*
X129567839Y-101818982D01*
X129567847Y-101818979D01*
X129849758Y-101683218D01*
X130114717Y-101516733D01*
X130285770Y-101380322D01*
X129386288Y-100480841D01*
X129492820Y-100403442D01*
X129662442Y-100233820D01*
X129739841Y-100127288D01*
X130639322Y-101026770D01*
X130775733Y-100855717D01*
X130942218Y-100590758D01*
X131077979Y-100308847D01*
X131077982Y-100308839D01*
X131181330Y-100013490D01*
X131181334Y-100013478D01*
X131250964Y-99708407D01*
X131250967Y-99708393D01*
X131285999Y-99397464D01*
X131286000Y-99397460D01*
X131286000Y-99084539D01*
X131285999Y-99084535D01*
X131250967Y-98773606D01*
X131250964Y-98773592D01*
X131181334Y-98468521D01*
X131181330Y-98468509D01*
X131077982Y-98173160D01*
X131077979Y-98173152D01*
X130942218Y-97891241D01*
X130775733Y-97626282D01*
X130639323Y-97455228D01*
X129739840Y-98354710D01*
X129662442Y-98248180D01*
X129492820Y-98078558D01*
X129386287Y-98001157D01*
X130285770Y-97101675D01*
X130114717Y-96965266D01*
X129849758Y-96798781D01*
X129567847Y-96663020D01*
X129567839Y-96663017D01*
X129272490Y-96559669D01*
X129272478Y-96559665D01*
X128967407Y-96490035D01*
X128967393Y-96490032D01*
X128656464Y-96455000D01*
X128343535Y-96455000D01*
X128032606Y-96490032D01*
X128032592Y-96490035D01*
X127727521Y-96559665D01*
X127727509Y-96559669D01*
X127432160Y-96663017D01*
X127432152Y-96663020D01*
X127150241Y-96798781D01*
X126885282Y-96965266D01*
X126714228Y-97101675D01*
X127613711Y-98001158D01*
X127507180Y-98078558D01*
X127337558Y-98248180D01*
X127260158Y-98354711D01*
X126360675Y-97455228D01*
X126224266Y-97626282D01*
X126057781Y-97891241D01*
X125922020Y-98173152D01*
X125922017Y-98173160D01*
X125818669Y-98468509D01*
X125818665Y-98468521D01*
X125749035Y-98773592D01*
X125749032Y-98773606D01*
X125714000Y-99084535D01*
X120000001Y-99084535D01*
X120000001Y-95309190D01*
X123000001Y-95309190D01*
X130454609Y-95309190D01*
X130521648Y-95328875D01*
G37*
G04 #@! TD.AperFunction*
G04 #@! TD*
G04 #@! TA.AperFunction,Conductor*
G04 #@! TO.N,Shield*
G36*
X130521646Y-144828875D02*
G01*
X130534662Y-144838495D01*
X132456054Y-146462849D01*
X132494542Y-146521163D01*
X132499999Y-146557544D01*
X132499999Y-150444963D01*
X132480314Y-150512002D01*
X132459184Y-150536921D01*
X130535420Y-152277148D01*
X130472498Y-152307523D01*
X130452235Y-152309190D01*
X120000000Y-152309190D01*
X120000000Y-148584535D01*
X125714000Y-148584535D01*
X125714000Y-148897464D01*
X125749032Y-149208393D01*
X125749035Y-149208407D01*
X125818665Y-149513478D01*
X125818669Y-149513490D01*
X125922017Y-149808839D01*
X125922020Y-149808847D01*
X126057781Y-150090758D01*
X126224266Y-150355717D01*
X126360675Y-150526770D01*
X127260157Y-149627287D01*
X127337558Y-149733820D01*
X127507180Y-149903442D01*
X127613710Y-149980841D01*
X126714228Y-150880323D01*
X126885282Y-151016733D01*
X127150241Y-151183218D01*
X127432152Y-151318979D01*
X127432160Y-151318982D01*
X127727509Y-151422330D01*
X127727521Y-151422334D01*
X128032592Y-151491964D01*
X128032606Y-151491967D01*
X128343535Y-151526999D01*
X128343539Y-151527000D01*
X128656461Y-151527000D01*
X128656464Y-151526999D01*
X128967393Y-151491967D01*
X128967407Y-151491964D01*
X129272478Y-151422334D01*
X129272490Y-151422330D01*
X129567839Y-151318982D01*
X129567847Y-151318979D01*
X129849758Y-151183218D01*
X130114717Y-151016733D01*
X130285770Y-150880322D01*
X129386288Y-149980841D01*
X129492820Y-149903442D01*
X129662442Y-149733820D01*
X129739841Y-149627288D01*
X130639322Y-150526770D01*
X130775733Y-150355717D01*
X130942218Y-150090758D01*
X131077979Y-149808847D01*
X131077982Y-149808839D01*
X131181330Y-149513490D01*
X131181334Y-149513478D01*
X131250964Y-149208407D01*
X131250967Y-149208393D01*
X131285999Y-148897464D01*
X131286000Y-148897460D01*
X131286000Y-148584539D01*
X131285999Y-148584535D01*
X131250967Y-148273606D01*
X131250964Y-148273592D01*
X131181334Y-147968521D01*
X131181330Y-147968509D01*
X131077982Y-147673160D01*
X131077979Y-147673152D01*
X130942218Y-147391241D01*
X130775733Y-147126282D01*
X130639323Y-146955228D01*
X129739840Y-147854710D01*
X129662442Y-147748180D01*
X129492820Y-147578558D01*
X129386287Y-147501157D01*
X130285770Y-146601675D01*
X130114717Y-146465266D01*
X129849758Y-146298781D01*
X129567847Y-146163020D01*
X129567839Y-146163017D01*
X129272490Y-146059669D01*
X129272478Y-146059665D01*
X128967407Y-145990035D01*
X128967393Y-145990032D01*
X128656464Y-145955000D01*
X128343535Y-145955000D01*
X128032606Y-145990032D01*
X128032592Y-145990035D01*
X127727521Y-146059665D01*
X127727509Y-146059669D01*
X127432160Y-146163017D01*
X127432152Y-146163020D01*
X127150241Y-146298781D01*
X126885282Y-146465266D01*
X126714228Y-146601675D01*
X127613711Y-147501158D01*
X127507180Y-147578558D01*
X127337558Y-147748180D01*
X127260158Y-147854711D01*
X126360675Y-146955228D01*
X126224266Y-147126282D01*
X126057781Y-147391241D01*
X125922020Y-147673152D01*
X125922017Y-147673160D01*
X125818669Y-147968509D01*
X125818665Y-147968521D01*
X125749035Y-148273592D01*
X125749032Y-148273606D01*
X125714000Y-148584535D01*
X120000000Y-148584535D01*
X120000000Y-144809190D01*
X123000000Y-144809190D01*
X130454607Y-144809190D01*
X130521646Y-144828875D01*
G37*
G04 #@! TD.AperFunction*
G04 #@! TD*
G04 #@! TA.AperFunction,Conductor*
G04 #@! TO.N,Shield*
G36*
X224807539Y-68028875D02*
G01*
X224853294Y-68081679D01*
X224864500Y-68133190D01*
X224864500Y-159075500D01*
X224844815Y-159142539D01*
X224792011Y-159188294D01*
X224740500Y-159199500D01*
X119509500Y-159199500D01*
X119442461Y-159179815D01*
X119396706Y-159127011D01*
X119385500Y-159075500D01*
X119385500Y-155492742D01*
X215649257Y-155492742D01*
X215649819Y-154681640D01*
X217633274Y-154681640D01*
X217633274Y-154984907D01*
X217667226Y-155286240D01*
X217667228Y-155286256D01*
X217734708Y-155581907D01*
X217734712Y-155581919D01*
X217834866Y-155868140D01*
X217834872Y-155868154D01*
X217966446Y-156141370D01*
X218127789Y-156398146D01*
X218255145Y-156557847D01*
X219396982Y-155416010D01*
X219494241Y-155549876D01*
X219616672Y-155672307D01*
X219750536Y-155769564D01*
X218608699Y-156911401D01*
X218768401Y-157038758D01*
X219025177Y-157200101D01*
X219298393Y-157331675D01*
X219298407Y-157331681D01*
X219584628Y-157431835D01*
X219584640Y-157431839D01*
X219880291Y-157499319D01*
X219880307Y-157499321D01*
X220181640Y-157533273D01*
X220181642Y-157533274D01*
X220484906Y-157533274D01*
X220484907Y-157533273D01*
X220786240Y-157499321D01*
X220786256Y-157499319D01*
X221081907Y-157431839D01*
X221081919Y-157431835D01*
X221368140Y-157331681D01*
X221368154Y-157331675D01*
X221641370Y-157200101D01*
X221898146Y-157038758D01*
X222057847Y-156911400D01*
X220916011Y-155769564D01*
X221049876Y-155672307D01*
X221172307Y-155549876D01*
X221269564Y-155416011D01*
X222411400Y-156557847D01*
X222538758Y-156398146D01*
X222700101Y-156141370D01*
X222831675Y-155868154D01*
X222831681Y-155868140D01*
X222931835Y-155581919D01*
X222931839Y-155581907D01*
X222999319Y-155286256D01*
X222999321Y-155286240D01*
X223033273Y-154984907D01*
X223033274Y-154984905D01*
X223033274Y-154681642D01*
X223033273Y-154681640D01*
X222999321Y-154380307D01*
X222999319Y-154380291D01*
X222931839Y-154084640D01*
X222931835Y-154084628D01*
X222831681Y-153798407D01*
X222831675Y-153798393D01*
X222700101Y-153525177D01*
X222538758Y-153268401D01*
X222411401Y-153108699D01*
X221269564Y-154250536D01*
X221172307Y-154116672D01*
X221049876Y-153994241D01*
X220916010Y-153896983D01*
X222057847Y-152755145D01*
X221898146Y-152627789D01*
X221641370Y-152466446D01*
X221368154Y-152334872D01*
X221368140Y-152334866D01*
X221081919Y-152234712D01*
X221081907Y-152234708D01*
X220786256Y-152167228D01*
X220786240Y-152167226D01*
X220484907Y-152133274D01*
X220181640Y-152133274D01*
X219880307Y-152167226D01*
X219880291Y-152167228D01*
X219584640Y-152234708D01*
X219584628Y-152234712D01*
X219298407Y-152334866D01*
X219298393Y-152334872D01*
X219025177Y-152466446D01*
X218768401Y-152627789D01*
X218608699Y-152755145D01*
X219750537Y-153896983D01*
X219616672Y-153994241D01*
X219494241Y-154116672D01*
X219396983Y-154250537D01*
X218255145Y-153108699D01*
X218127789Y-153268401D01*
X217966446Y-153525177D01*
X217834872Y-153798393D01*
X217834866Y-153798407D01*
X217734712Y-154084628D01*
X217734708Y-154084640D01*
X217667228Y-154380291D01*
X217667226Y-154380307D01*
X217633274Y-154681640D01*
X215649819Y-154681640D01*
X215652573Y-150707465D01*
X215672304Y-150640440D01*
X215725140Y-150594722D01*
X215776573Y-150583552D01*
X220574256Y-150583552D01*
X220574257Y-150583552D01*
X220550704Y-120496152D01*
X220552659Y-120489477D01*
X220552659Y-75509190D01*
X224074999Y-75509190D01*
X224074999Y-68009190D01*
X224740500Y-68009190D01*
X224807539Y-68028875D01*
G37*
G04 #@! TD.AperFunction*
G04 #@! TA.AperFunction,Conductor*
G36*
X224807539Y-27820185D02*
G01*
X224853294Y-27872989D01*
X224864500Y-27924500D01*
X224864500Y-42085190D01*
X224844815Y-42152229D01*
X224792011Y-42197984D01*
X224740500Y-42209190D01*
X220613211Y-42209190D01*
X220607110Y-42209040D01*
X220552659Y-42206357D01*
X220552659Y-42200000D01*
X224074999Y-42200000D01*
X224074999Y-34700000D01*
X220552659Y-34700000D01*
X220552659Y-31492742D01*
X119509500Y-31492742D01*
X119442461Y-31473057D01*
X119396706Y-31420253D01*
X119385500Y-31368742D01*
X119385500Y-27924500D01*
X119405185Y-27857461D01*
X119457989Y-27811706D01*
X119509500Y-27800500D01*
X224740500Y-27800500D01*
X224807539Y-27820185D01*
G37*
G04 #@! TD.AperFunction*
G04 #@! TD*
M02*
