G04 #@! TF.GenerationSoftware,KiCad,Pcbnew,9.0.0*
G04 #@! TF.CreationDate,2025-04-29T18:09:41-05:00*
G04 #@! TF.ProjectId,Mainboard,4d61696e-626f-4617-9264-2e6b69636164,rev?*
G04 #@! TF.SameCoordinates,Original*
G04 #@! TF.FileFunction,Legend,Bot*
G04 #@! TF.FilePolarity,Positive*
%FSLAX46Y46*%
G04 Gerber Fmt 4.6, Leading zero omitted, Abs format (unit mm)*
G04 Created by KiCad (PCBNEW 9.0.0) date 2025-04-29 18:09:41*
%MOMM*%
%LPD*%
G01*
G04 APERTURE LIST*
%ADD10C,0.400000*%
%ADD11C,0.125000*%
%ADD12R,1.700000X1.700000*%
%ADD13O,1.700000X1.700000*%
%ADD14O,1.600000X1.600000*%
%ADD15R,1.600000X1.600000*%
%ADD16C,1.600000*%
%ADD17C,0.700000*%
%ADD18C,4.400000*%
%ADD19C,4.572000*%
%ADD20C,1.561000*%
%ADD21R,1.561000X1.561000*%
G04 APERTURE END LIST*
D10*
X200150000Y-53950000D02*
X200150000Y-106075000D01*
X208800000Y-54000000D02*
X200150000Y-53950000D01*
X200150000Y-106075000D02*
X124750000Y-106075000D01*
X208800000Y-39000000D02*
X208800000Y-54000000D01*
X177800000Y-39000000D02*
X208800000Y-39000000D01*
X177800000Y-53950000D02*
X177800000Y-39000000D01*
X124750000Y-53950000D02*
X177800000Y-53950000D01*
X124750000Y-106075000D02*
X124750000Y-53950000D01*
D11*
X198966573Y-112173738D02*
X198966573Y-110173738D01*
X198966573Y-110173738D02*
X198490383Y-110173738D01*
X198490383Y-110173738D02*
X198204668Y-110268976D01*
X198204668Y-110268976D02*
X198014192Y-110459452D01*
X198014192Y-110459452D02*
X197918954Y-110649928D01*
X197918954Y-110649928D02*
X197823716Y-111030880D01*
X197823716Y-111030880D02*
X197823716Y-111316595D01*
X197823716Y-111316595D02*
X197918954Y-111697547D01*
X197918954Y-111697547D02*
X198014192Y-111888023D01*
X198014192Y-111888023D02*
X198204668Y-112078500D01*
X198204668Y-112078500D02*
X198490383Y-112173738D01*
X198490383Y-112173738D02*
X198966573Y-112173738D01*
X196966573Y-112173738D02*
X196966573Y-110840404D01*
X196966573Y-110173738D02*
X197061811Y-110268976D01*
X197061811Y-110268976D02*
X196966573Y-110364214D01*
X196966573Y-110364214D02*
X196871335Y-110268976D01*
X196871335Y-110268976D02*
X196966573Y-110173738D01*
X196966573Y-110173738D02*
X196966573Y-110364214D01*
X195157049Y-110840404D02*
X195157049Y-112459452D01*
X195157049Y-112459452D02*
X195252287Y-112649928D01*
X195252287Y-112649928D02*
X195347525Y-112745166D01*
X195347525Y-112745166D02*
X195538002Y-112840404D01*
X195538002Y-112840404D02*
X195823716Y-112840404D01*
X195823716Y-112840404D02*
X196014192Y-112745166D01*
X195157049Y-112078500D02*
X195347525Y-112173738D01*
X195347525Y-112173738D02*
X195728478Y-112173738D01*
X195728478Y-112173738D02*
X195918954Y-112078500D01*
X195918954Y-112078500D02*
X196014192Y-111983261D01*
X196014192Y-111983261D02*
X196109430Y-111792785D01*
X196109430Y-111792785D02*
X196109430Y-111221357D01*
X196109430Y-111221357D02*
X196014192Y-111030880D01*
X196014192Y-111030880D02*
X195918954Y-110935642D01*
X195918954Y-110935642D02*
X195728478Y-110840404D01*
X195728478Y-110840404D02*
X195347525Y-110840404D01*
X195347525Y-110840404D02*
X195157049Y-110935642D01*
X194204668Y-112173738D02*
X194204668Y-110840404D01*
X194204668Y-110173738D02*
X194299906Y-110268976D01*
X194299906Y-110268976D02*
X194204668Y-110364214D01*
X194204668Y-110364214D02*
X194109430Y-110268976D01*
X194109430Y-110268976D02*
X194204668Y-110173738D01*
X194204668Y-110173738D02*
X194204668Y-110364214D01*
X193538001Y-110840404D02*
X192776097Y-110840404D01*
X193252287Y-110173738D02*
X193252287Y-111888023D01*
X193252287Y-111888023D02*
X193157049Y-112078500D01*
X193157049Y-112078500D02*
X192966573Y-112173738D01*
X192966573Y-112173738D02*
X192776097Y-112173738D01*
X191252287Y-112173738D02*
X191252287Y-111126119D01*
X191252287Y-111126119D02*
X191347525Y-110935642D01*
X191347525Y-110935642D02*
X191538001Y-110840404D01*
X191538001Y-110840404D02*
X191918954Y-110840404D01*
X191918954Y-110840404D02*
X192109430Y-110935642D01*
X191252287Y-112078500D02*
X191442763Y-112173738D01*
X191442763Y-112173738D02*
X191918954Y-112173738D01*
X191918954Y-112173738D02*
X192109430Y-112078500D01*
X192109430Y-112078500D02*
X192204668Y-111888023D01*
X192204668Y-111888023D02*
X192204668Y-111697547D01*
X192204668Y-111697547D02*
X192109430Y-111507071D01*
X192109430Y-111507071D02*
X191918954Y-111411833D01*
X191918954Y-111411833D02*
X191442763Y-111411833D01*
X191442763Y-111411833D02*
X191252287Y-111316595D01*
X190014192Y-112173738D02*
X190204668Y-112078500D01*
X190204668Y-112078500D02*
X190299906Y-111888023D01*
X190299906Y-111888023D02*
X190299906Y-110173738D01*
X198761811Y-103327309D02*
X197809430Y-103327309D01*
X198952287Y-103898738D02*
X198285621Y-101898738D01*
X198285621Y-101898738D02*
X197618954Y-103898738D01*
X196952287Y-102565404D02*
X196952287Y-103898738D01*
X196952287Y-102755880D02*
X196857049Y-102660642D01*
X196857049Y-102660642D02*
X196666573Y-102565404D01*
X196666573Y-102565404D02*
X196380858Y-102565404D01*
X196380858Y-102565404D02*
X196190382Y-102660642D01*
X196190382Y-102660642D02*
X196095144Y-102851119D01*
X196095144Y-102851119D02*
X196095144Y-103898738D01*
X194285620Y-103898738D02*
X194285620Y-102851119D01*
X194285620Y-102851119D02*
X194380858Y-102660642D01*
X194380858Y-102660642D02*
X194571334Y-102565404D01*
X194571334Y-102565404D02*
X194952287Y-102565404D01*
X194952287Y-102565404D02*
X195142763Y-102660642D01*
X194285620Y-103803500D02*
X194476096Y-103898738D01*
X194476096Y-103898738D02*
X194952287Y-103898738D01*
X194952287Y-103898738D02*
X195142763Y-103803500D01*
X195142763Y-103803500D02*
X195238001Y-103613023D01*
X195238001Y-103613023D02*
X195238001Y-103422547D01*
X195238001Y-103422547D02*
X195142763Y-103232071D01*
X195142763Y-103232071D02*
X194952287Y-103136833D01*
X194952287Y-103136833D02*
X194476096Y-103136833D01*
X194476096Y-103136833D02*
X194285620Y-103041595D01*
X193047525Y-103898738D02*
X193238001Y-103803500D01*
X193238001Y-103803500D02*
X193333239Y-103613023D01*
X193333239Y-103613023D02*
X193333239Y-101898738D01*
X191999906Y-103898738D02*
X192190382Y-103803500D01*
X192190382Y-103803500D02*
X192285620Y-103708261D01*
X192285620Y-103708261D02*
X192380858Y-103517785D01*
X192380858Y-103517785D02*
X192380858Y-102946357D01*
X192380858Y-102946357D02*
X192285620Y-102755880D01*
X192285620Y-102755880D02*
X192190382Y-102660642D01*
X192190382Y-102660642D02*
X191999906Y-102565404D01*
X191999906Y-102565404D02*
X191714191Y-102565404D01*
X191714191Y-102565404D02*
X191523715Y-102660642D01*
X191523715Y-102660642D02*
X191428477Y-102755880D01*
X191428477Y-102755880D02*
X191333239Y-102946357D01*
X191333239Y-102946357D02*
X191333239Y-103517785D01*
X191333239Y-103517785D02*
X191428477Y-103708261D01*
X191428477Y-103708261D02*
X191523715Y-103803500D01*
X191523715Y-103803500D02*
X191714191Y-103898738D01*
X191714191Y-103898738D02*
X191999906Y-103898738D01*
X189618953Y-102565404D02*
X189618953Y-104184452D01*
X189618953Y-104184452D02*
X189714191Y-104374928D01*
X189714191Y-104374928D02*
X189809429Y-104470166D01*
X189809429Y-104470166D02*
X189999906Y-104565404D01*
X189999906Y-104565404D02*
X190285620Y-104565404D01*
X190285620Y-104565404D02*
X190476096Y-104470166D01*
X189618953Y-103803500D02*
X189809429Y-103898738D01*
X189809429Y-103898738D02*
X190190382Y-103898738D01*
X190190382Y-103898738D02*
X190380858Y-103803500D01*
X190380858Y-103803500D02*
X190476096Y-103708261D01*
X190476096Y-103708261D02*
X190571334Y-103517785D01*
X190571334Y-103517785D02*
X190571334Y-102946357D01*
X190571334Y-102946357D02*
X190476096Y-102755880D01*
X190476096Y-102755880D02*
X190380858Y-102660642D01*
X190380858Y-102660642D02*
X190190382Y-102565404D01*
X190190382Y-102565404D02*
X189809429Y-102565404D01*
X189809429Y-102565404D02*
X189618953Y-102660642D01*
D10*
X123150000Y-109150000D02*
X200100000Y-109150000D01*
X200100000Y-154650000D01*
X123150000Y-154650000D01*
X123150000Y-109150000D01*
%LPC*%
D12*
G04 #@! TO.C,J6*
X170000000Y-58525000D03*
D13*
X170000000Y-61065000D03*
G04 #@! TD*
D14*
G04 #@! TO.C,A1*
X192035000Y-120835000D03*
X192035000Y-123375000D03*
X192035000Y-125915000D03*
X192035000Y-128455000D03*
X192035000Y-130995000D03*
X192035000Y-133535000D03*
X192035000Y-136075000D03*
X192035000Y-138615000D03*
X179335000Y-138615000D03*
X179335000Y-136075000D03*
X179335000Y-133535000D03*
X179335000Y-130995000D03*
X179335000Y-128455000D03*
X179335000Y-125915000D03*
X179335000Y-123375000D03*
D15*
X179335000Y-120835000D03*
G04 #@! TD*
D16*
G04 #@! TO.C,C80*
X187050000Y-144375000D03*
D15*
X184550000Y-144375000D03*
G04 #@! TD*
D17*
G04 #@! TO.C,H1*
X218683274Y-154833274D03*
X219166548Y-153666548D03*
X219166548Y-156000000D03*
X220333274Y-153183274D03*
D18*
X220333274Y-154833274D03*
D17*
X220333274Y-156483274D03*
X221500000Y-153666548D03*
X221500000Y-156000000D03*
X221983274Y-154833274D03*
G04 #@! TD*
D16*
G04 #@! TO.C,C85*
X182100000Y-50400000D03*
D15*
X182100000Y-47900000D03*
G04 #@! TD*
D13*
G04 #@! TO.C,J5*
X189800000Y-97735000D03*
D12*
X189800000Y-100275000D03*
G04 #@! TD*
D14*
G04 #@! TO.C,A2*
X171327000Y-111124000D03*
X171327000Y-113664000D03*
X171327000Y-116204000D03*
X171327000Y-118744000D03*
X171327000Y-121284000D03*
X171327000Y-123824000D03*
X171327000Y-126364000D03*
X171327000Y-128904000D03*
X158627000Y-128904000D03*
X158627000Y-126364000D03*
X158627000Y-123824000D03*
X158627000Y-121284000D03*
X158627000Y-118744000D03*
X158627000Y-116204000D03*
X158627000Y-113664000D03*
D15*
X158627000Y-111124000D03*
G04 #@! TD*
D16*
G04 #@! TO.C,C78*
X204000000Y-50500000D03*
D15*
X204000000Y-48500000D03*
G04 #@! TD*
D16*
G04 #@! TO.C,C84*
X182100000Y-54755100D03*
D15*
X182100000Y-56755100D03*
G04 #@! TD*
D13*
G04 #@! TO.C,J4*
X155760000Y-88135000D03*
D12*
X158300000Y-88135000D03*
G04 #@! TD*
D16*
G04 #@! TO.C,C79*
X152623000Y-126433400D03*
D15*
X152623000Y-128933400D03*
G04 #@! TD*
D19*
G04 #@! TO.C,J3*
X128500000Y-115416000D03*
X128500000Y-148741000D03*
D20*
X127077000Y-123849000D03*
X127077000Y-126592000D03*
X127077000Y-129336000D03*
X127077000Y-132079000D03*
X127077000Y-134822000D03*
X127077000Y-137565000D03*
X127077000Y-140308000D03*
X129922000Y-122478000D03*
X129922000Y-125221000D03*
X129922000Y-127964000D03*
X129922000Y-130707000D03*
X129922000Y-133450000D03*
X129922000Y-136194000D03*
X129922000Y-138937000D03*
D21*
X129922000Y-141680000D03*
G04 #@! TD*
D16*
G04 #@! TO.C,C81*
X204000000Y-57455100D03*
D15*
X204000000Y-55455100D03*
G04 #@! TD*
D19*
G04 #@! TO.C,J2*
X128500000Y-65916000D03*
X128500000Y-99241000D03*
D20*
X127077000Y-74349000D03*
X127077000Y-77092000D03*
X127077000Y-79836000D03*
X127077000Y-82579000D03*
X127077000Y-85322000D03*
X127077000Y-88065000D03*
X127077000Y-90808000D03*
X129922000Y-72978000D03*
X129922000Y-75721000D03*
X129922000Y-78464000D03*
X129922000Y-81207000D03*
X129922000Y-83950000D03*
X129922000Y-86694000D03*
X129922000Y-89437000D03*
D21*
X129922000Y-92180000D03*
G04 #@! TD*
D16*
G04 #@! TO.C,C77*
X204000000Y-41455100D03*
D15*
X204000000Y-43455100D03*
G04 #@! TD*
D16*
G04 #@! TO.C,C83*
X152623000Y-149274000D03*
D15*
X152623000Y-151774000D03*
G04 #@! TD*
D16*
G04 #@! TO.C,C82*
X204000000Y-64455100D03*
D15*
X204000000Y-62455100D03*
G04 #@! TD*
D19*
G04 #@! TO.C,J1*
X215627000Y-71733000D03*
X215627000Y-38408000D03*
D20*
X217050000Y-63300000D03*
X217050000Y-60557000D03*
X217050000Y-57813000D03*
X217050000Y-55070000D03*
X217050000Y-52327000D03*
X217050000Y-49584000D03*
X217050000Y-46841000D03*
X214205000Y-64671000D03*
X214205000Y-61928000D03*
X214205000Y-59185000D03*
X214205000Y-56442000D03*
X214205000Y-53699000D03*
X214205000Y-50955000D03*
X214205000Y-48212000D03*
D21*
X214205000Y-45469000D03*
G04 #@! TD*
D16*
G04 #@! TO.C,U1*
X147120000Y-49000000D03*
X149660000Y-49000000D03*
X147120000Y-46460000D03*
X149660000Y-46460000D03*
X147120000Y-43920000D03*
X149660000Y-43920000D03*
X147120000Y-41380000D03*
X149660000Y-41380000D03*
X147120000Y-38840000D03*
X149660000Y-38840000D03*
X124260000Y-38840000D03*
X121720000Y-36300000D03*
X124260000Y-36300000D03*
X126800000Y-36300000D03*
X129340000Y-36300000D03*
X131880000Y-36300000D03*
X134420000Y-36300000D03*
X136960000Y-36300000D03*
X139500000Y-36300000D03*
X142040000Y-36300000D03*
X144580000Y-36300000D03*
X147120000Y-36300000D03*
X149660000Y-36300000D03*
X152200000Y-36300000D03*
X154740000Y-36300000D03*
X154740000Y-38840000D03*
X154740000Y-41380000D03*
X154740000Y-43920000D03*
X154740000Y-46460000D03*
X154740000Y-49000000D03*
X154740000Y-51540000D03*
X152200000Y-51540000D03*
X149660000Y-51540000D03*
X147120000Y-51540000D03*
X144580000Y-51540000D03*
X142040000Y-51540000D03*
X139500000Y-51540000D03*
X136960000Y-51540000D03*
X134420000Y-51540000D03*
X131880000Y-51540000D03*
X129340000Y-51540000D03*
X126800000Y-51540000D03*
X124260000Y-51540000D03*
X121720000Y-51540000D03*
G04 #@! TD*
G04 #@! TO.C,C35*
X183595000Y-88905000D03*
D15*
X181595000Y-88905000D03*
G04 #@! TD*
D14*
G04 #@! TO.C,A3*
X171327000Y-133934000D03*
X171327000Y-136474000D03*
X171327000Y-139014000D03*
X171327000Y-141554000D03*
X171327000Y-144094000D03*
X171327000Y-146634000D03*
X171327000Y-149174000D03*
X171327000Y-151714000D03*
X158627000Y-151714000D03*
X158627000Y-149174000D03*
X158627000Y-146634000D03*
X158627000Y-144094000D03*
X158627000Y-141554000D03*
X158627000Y-139014000D03*
X158627000Y-136474000D03*
D15*
X158627000Y-133934000D03*
G04 #@! TD*
%LPD*%
M02*
