%TF.GenerationSoftware,KiCad,Pcbnew,9.0.0*%
%TF.CreationDate,2025-04-29T18:09:41-05:00*%
%TF.ProjectId,Mainboard,4d61696e-626f-4617-9264-2e6b69636164,rev?*%
%TF.SameCoordinates,Original*%
%TF.FileFunction,Drillmap*%
%TF.FilePolarity,Positive*%
%FSLAX45Y45*%
G04 Gerber Fmt 4.5, Leading zero omitted, Abs format (unit mm)*
G04 Created by KiCad (PCBNEW 9.0.0) date 2025-04-29 18:09:41*
%MOMM*%
%LPD*%
G01*
G04 APERTURE LIST*
%ADD10C,0.050000*%
%ADD11C,0.200000*%
G04 APERTURE END LIST*
D10*
X11908500Y-2750000D02*
X22516500Y-2750000D01*
X22516500Y-15950000D01*
X11908500Y-15950000D01*
X11908500Y-2750000D01*
D11*
X12166777Y-16263984D02*
X12166777Y-16063984D01*
X12166777Y-16063984D02*
X12214396Y-16063984D01*
X12214396Y-16063984D02*
X12242967Y-16073508D01*
X12242967Y-16073508D02*
X12262015Y-16092555D01*
X12262015Y-16092555D02*
X12271539Y-16111603D01*
X12271539Y-16111603D02*
X12281062Y-16149698D01*
X12281062Y-16149698D02*
X12281062Y-16178269D01*
X12281062Y-16178269D02*
X12271539Y-16216365D01*
X12271539Y-16216365D02*
X12262015Y-16235412D01*
X12262015Y-16235412D02*
X12242967Y-16254460D01*
X12242967Y-16254460D02*
X12214396Y-16263984D01*
X12214396Y-16263984D02*
X12166777Y-16263984D01*
X12366777Y-16263984D02*
X12366777Y-16130650D01*
X12366777Y-16168746D02*
X12376301Y-16149698D01*
X12376301Y-16149698D02*
X12385824Y-16140174D01*
X12385824Y-16140174D02*
X12404872Y-16130650D01*
X12404872Y-16130650D02*
X12423920Y-16130650D01*
X12490586Y-16263984D02*
X12490586Y-16130650D01*
X12490586Y-16063984D02*
X12481062Y-16073508D01*
X12481062Y-16073508D02*
X12490586Y-16083031D01*
X12490586Y-16083031D02*
X12500110Y-16073508D01*
X12500110Y-16073508D02*
X12490586Y-16063984D01*
X12490586Y-16063984D02*
X12490586Y-16083031D01*
X12614396Y-16263984D02*
X12595348Y-16254460D01*
X12595348Y-16254460D02*
X12585824Y-16235412D01*
X12585824Y-16235412D02*
X12585824Y-16063984D01*
X12719158Y-16263984D02*
X12700110Y-16254460D01*
X12700110Y-16254460D02*
X12690586Y-16235412D01*
X12690586Y-16235412D02*
X12690586Y-16063984D01*
X12947729Y-16263984D02*
X12947729Y-16063984D01*
X12947729Y-16063984D02*
X13014396Y-16206841D01*
X13014396Y-16206841D02*
X13081062Y-16063984D01*
X13081062Y-16063984D02*
X13081062Y-16263984D01*
X13262015Y-16263984D02*
X13262015Y-16159222D01*
X13262015Y-16159222D02*
X13252491Y-16140174D01*
X13252491Y-16140174D02*
X13233443Y-16130650D01*
X13233443Y-16130650D02*
X13195348Y-16130650D01*
X13195348Y-16130650D02*
X13176301Y-16140174D01*
X13262015Y-16254460D02*
X13242967Y-16263984D01*
X13242967Y-16263984D02*
X13195348Y-16263984D01*
X13195348Y-16263984D02*
X13176301Y-16254460D01*
X13176301Y-16254460D02*
X13166777Y-16235412D01*
X13166777Y-16235412D02*
X13166777Y-16216365D01*
X13166777Y-16216365D02*
X13176301Y-16197317D01*
X13176301Y-16197317D02*
X13195348Y-16187793D01*
X13195348Y-16187793D02*
X13242967Y-16187793D01*
X13242967Y-16187793D02*
X13262015Y-16178269D01*
X13357253Y-16130650D02*
X13357253Y-16330650D01*
X13357253Y-16140174D02*
X13376301Y-16130650D01*
X13376301Y-16130650D02*
X13414396Y-16130650D01*
X13414396Y-16130650D02*
X13433443Y-16140174D01*
X13433443Y-16140174D02*
X13442967Y-16149698D01*
X13442967Y-16149698D02*
X13452491Y-16168746D01*
X13452491Y-16168746D02*
X13452491Y-16225888D01*
X13452491Y-16225888D02*
X13442967Y-16244936D01*
X13442967Y-16244936D02*
X13433443Y-16254460D01*
X13433443Y-16254460D02*
X13414396Y-16263984D01*
X13414396Y-16263984D02*
X13376301Y-16263984D01*
X13376301Y-16263984D02*
X13357253Y-16254460D01*
X13538205Y-16244936D02*
X13547729Y-16254460D01*
X13547729Y-16254460D02*
X13538205Y-16263984D01*
X13538205Y-16263984D02*
X13528682Y-16254460D01*
X13528682Y-16254460D02*
X13538205Y-16244936D01*
X13538205Y-16244936D02*
X13538205Y-16263984D01*
X13538205Y-16140174D02*
X13547729Y-16149698D01*
X13547729Y-16149698D02*
X13538205Y-16159222D01*
X13538205Y-16159222D02*
X13528682Y-16149698D01*
X13528682Y-16149698D02*
X13538205Y-16140174D01*
X13538205Y-16140174D02*
X13538205Y-16159222D01*
M02*
