G04 #@! TF.GenerationSoftware,KiCad,Pcbnew,8.0.8*
G04 #@! TF.CreationDate,2025-02-12T17:11:10-06:00*
G04 #@! TF.ProjectId,Tunnleing_Amp,54756e6e-6c65-4696-9e67-5f416d702e6b,rev?*
G04 #@! TF.SameCoordinates,Original*
G04 #@! TF.FileFunction,Copper,L4,Bot*
G04 #@! TF.FilePolarity,Positive*
%FSLAX46Y46*%
G04 Gerber Fmt 4.6, Leading zero omitted, Abs format (unit mm)*
G04 Created by KiCad (PCBNEW 8.0.8) date 2025-02-12 17:11:10*
%MOMM*%
%LPD*%
G01*
G04 APERTURE LIST*
G04 #@! TA.AperFunction,ComponentPad*
%ADD10R,0.850000X0.850000*%
G04 #@! TD*
G04 #@! TA.AperFunction,ComponentPad*
%ADD11R,1.700000X1.700000*%
G04 #@! TD*
G04 #@! TA.AperFunction,ComponentPad*
%ADD12O,1.700000X1.700000*%
G04 #@! TD*
G04 #@! TA.AperFunction,ViaPad*
%ADD13C,0.600000*%
G04 #@! TD*
G04 #@! TA.AperFunction,ViaPad*
%ADD14C,1.000000*%
G04 #@! TD*
G04 APERTURE END LIST*
D10*
X106800000Y-49900000D03*
D11*
X108900000Y-60875000D03*
D12*
X108900000Y-58335000D03*
D13*
X100700000Y-51636919D03*
X105800000Y-58800000D03*
X98900000Y-53100000D03*
X96600000Y-57475000D03*
X99300000Y-54700000D03*
X105900000Y-61970000D03*
X101100000Y-53800000D03*
X94900000Y-57800000D03*
X101100000Y-55700000D03*
X105900000Y-57230000D03*
X97600000Y-57475000D03*
X95806140Y-55986186D03*
X98500000Y-56300000D03*
X109800000Y-56000000D03*
X98900000Y-52200000D03*
X96600000Y-56325000D03*
X101365000Y-56889000D03*
X99300000Y-53800000D03*
X105200000Y-61150000D03*
X105200000Y-58050000D03*
X98900000Y-51400000D03*
X99800000Y-58300000D03*
X98500000Y-57500000D03*
X109800000Y-63200000D03*
X100095000Y-62311000D03*
X106450000Y-59600000D03*
X94300000Y-56900000D03*
X94900000Y-56000000D03*
X109350000Y-65700000D03*
X105800000Y-60400000D03*
X101965000Y-58300000D03*
X95847215Y-57794429D03*
X99800000Y-51400000D03*
X98800000Y-58300000D03*
X99300000Y-55600000D03*
X109350000Y-53500000D03*
X108200000Y-56000000D03*
X97600000Y-56300000D03*
X101100000Y-54700000D03*
X108200000Y-63200000D03*
X100765000Y-58300000D03*
D14*
X95400000Y-56900000D03*
G04 #@! TA.AperFunction,Conductor*
G36*
X98000000Y-56100000D02*
G01*
X98000000Y-57700000D01*
X97100000Y-58200000D01*
X94500000Y-58200000D01*
X93900000Y-57500000D01*
X93900000Y-56900000D01*
X94694355Y-56900000D01*
X94714859Y-57068869D01*
X94714860Y-57068874D01*
X94775182Y-57227931D01*
X94837475Y-57318177D01*
X94871817Y-57367929D01*
X94977505Y-57461560D01*
X94999150Y-57480736D01*
X95149773Y-57559789D01*
X95149775Y-57559790D01*
X95314944Y-57600500D01*
X95485056Y-57600500D01*
X95650225Y-57559790D01*
X95764144Y-57500000D01*
X95800849Y-57480736D01*
X95800850Y-57480734D01*
X95800852Y-57480734D01*
X95928183Y-57367929D01*
X96024818Y-57227930D01*
X96085140Y-57068872D01*
X96105645Y-56900000D01*
X96085140Y-56731128D01*
X96024818Y-56572070D01*
X95928183Y-56432071D01*
X95800852Y-56319266D01*
X95800849Y-56319263D01*
X95650226Y-56240210D01*
X95485056Y-56199500D01*
X95314944Y-56199500D01*
X95149773Y-56240210D01*
X94999150Y-56319263D01*
X94871816Y-56432072D01*
X94775182Y-56572068D01*
X94714860Y-56731125D01*
X94714859Y-56731130D01*
X94694355Y-56900000D01*
X93900000Y-56900000D01*
X93900000Y-56400000D01*
X94500000Y-55600000D01*
X97100000Y-55600000D01*
X98000000Y-56100000D01*
G37*
G04 #@! TD.AperFunction*
G04 #@! TA.AperFunction,Conductor*
G36*
X111242539Y-48420185D02*
G01*
X111288294Y-48472989D01*
X111299500Y-48524500D01*
X111299500Y-67675500D01*
X111279815Y-67742539D01*
X111227011Y-67788294D01*
X111175500Y-67799500D01*
X92024500Y-67799500D01*
X91957461Y-67779815D01*
X91911706Y-67727011D01*
X91900500Y-67675500D01*
X91900500Y-65100790D01*
X93239500Y-65100790D01*
X93239500Y-65299209D01*
X93270536Y-65495162D01*
X93270537Y-65495168D01*
X93317140Y-65638596D01*
X93331850Y-65683868D01*
X93393021Y-65803922D01*
X93421923Y-65860646D01*
X93538544Y-66021161D01*
X93678839Y-66161456D01*
X93839354Y-66278077D01*
X93952800Y-66335880D01*
X94016131Y-66368149D01*
X94016133Y-66368149D01*
X94016136Y-66368151D01*
X94204832Y-66429463D01*
X94302814Y-66444981D01*
X94400791Y-66460500D01*
X94400796Y-66460500D01*
X94599209Y-66460500D01*
X94688278Y-66446392D01*
X94795168Y-66429463D01*
X94983864Y-66368151D01*
X95160646Y-66278077D01*
X95321161Y-66161456D01*
X95461456Y-66021161D01*
X95578077Y-65860646D01*
X95668151Y-65683864D01*
X95729463Y-65495168D01*
X95746392Y-65388278D01*
X95760500Y-65299209D01*
X95760500Y-65100790D01*
X95743570Y-64993906D01*
X95729463Y-64904832D01*
X95668151Y-64716136D01*
X95668149Y-64716133D01*
X95668149Y-64716131D01*
X95635880Y-64652800D01*
X95578077Y-64539354D01*
X95461456Y-64378839D01*
X95321161Y-64238544D01*
X95160646Y-64121923D01*
X95103922Y-64093021D01*
X94983868Y-64031850D01*
X94938596Y-64017140D01*
X94795168Y-63970537D01*
X94795162Y-63970536D01*
X94599209Y-63939500D01*
X94599204Y-63939500D01*
X94400796Y-63939500D01*
X94400791Y-63939500D01*
X94204837Y-63970536D01*
X94204835Y-63970536D01*
X94204832Y-63970537D01*
X94110484Y-64001193D01*
X94016131Y-64031850D01*
X93839352Y-64121924D01*
X93839349Y-64121926D01*
X93753255Y-64184477D01*
X93678839Y-64238544D01*
X93678837Y-64238546D01*
X93678836Y-64238546D01*
X93538546Y-64378836D01*
X93538546Y-64378837D01*
X93538544Y-64378839D01*
X93484477Y-64453255D01*
X93421926Y-64539349D01*
X93421924Y-64539352D01*
X93331850Y-64716131D01*
X93301193Y-64810484D01*
X93270537Y-64904832D01*
X93270536Y-64904835D01*
X93270536Y-64904837D01*
X93239500Y-65100790D01*
X91900500Y-65100790D01*
X91900500Y-60005247D01*
X107849500Y-60005247D01*
X107849500Y-61744752D01*
X107861131Y-61803229D01*
X107861132Y-61803230D01*
X107905447Y-61869552D01*
X107971769Y-61913867D01*
X107971770Y-61913868D01*
X108030247Y-61925499D01*
X108030250Y-61925500D01*
X108030252Y-61925500D01*
X109769750Y-61925500D01*
X109769751Y-61925499D01*
X109784568Y-61922552D01*
X109828229Y-61913868D01*
X109828229Y-61913867D01*
X109828231Y-61913867D01*
X109894552Y-61869552D01*
X109938867Y-61803231D01*
X109938867Y-61803229D01*
X109938868Y-61803229D01*
X109950499Y-61744752D01*
X109950500Y-61744750D01*
X109950500Y-60005249D01*
X109950499Y-60005247D01*
X109938868Y-59946770D01*
X109938867Y-59946769D01*
X109894552Y-59880447D01*
X109828230Y-59836132D01*
X109828229Y-59836131D01*
X109769752Y-59824500D01*
X109769748Y-59824500D01*
X108030252Y-59824500D01*
X108030247Y-59824500D01*
X107971770Y-59836131D01*
X107971769Y-59836132D01*
X107905447Y-59880447D01*
X107861132Y-59946769D01*
X107861131Y-59946770D01*
X107849500Y-60005247D01*
X91900500Y-60005247D01*
X91900500Y-58335000D01*
X107844417Y-58335000D01*
X107864699Y-58540932D01*
X107864700Y-58540934D01*
X107924768Y-58738954D01*
X108022315Y-58921450D01*
X108022317Y-58921452D01*
X108153589Y-59081410D01*
X108250209Y-59160702D01*
X108313550Y-59212685D01*
X108496046Y-59310232D01*
X108694066Y-59370300D01*
X108694065Y-59370300D01*
X108712529Y-59372118D01*
X108900000Y-59390583D01*
X109105934Y-59370300D01*
X109303954Y-59310232D01*
X109486450Y-59212685D01*
X109646410Y-59081410D01*
X109777685Y-58921450D01*
X109875232Y-58738954D01*
X109935300Y-58540934D01*
X109955583Y-58335000D01*
X109935300Y-58129066D01*
X109875232Y-57931046D01*
X109777685Y-57748550D01*
X109725702Y-57685209D01*
X109646410Y-57588589D01*
X109486452Y-57457317D01*
X109486453Y-57457317D01*
X109486450Y-57457315D01*
X109303954Y-57359768D01*
X109105934Y-57299700D01*
X109105932Y-57299699D01*
X109105934Y-57299699D01*
X108900000Y-57279417D01*
X108694067Y-57299699D01*
X108496043Y-57359769D01*
X108385898Y-57418643D01*
X108313550Y-57457315D01*
X108313548Y-57457316D01*
X108313547Y-57457317D01*
X108153589Y-57588589D01*
X108022317Y-57748547D01*
X107924769Y-57931043D01*
X107864699Y-58129067D01*
X107844417Y-58335000D01*
X91900500Y-58335000D01*
X91900500Y-56400000D01*
X93900000Y-56400000D01*
X93900000Y-57500000D01*
X94500000Y-58200000D01*
X97100000Y-58200000D01*
X98000000Y-57700000D01*
X98000000Y-56100000D01*
X97100000Y-55600000D01*
X94500000Y-55600000D01*
X93900000Y-56400000D01*
X91900500Y-56400000D01*
X91900500Y-50900790D01*
X93239500Y-50900790D01*
X93239500Y-51099209D01*
X93270536Y-51295162D01*
X93270537Y-51295168D01*
X93317140Y-51438596D01*
X93331850Y-51483868D01*
X93393021Y-51603922D01*
X93421923Y-51660646D01*
X93538544Y-51821161D01*
X93678839Y-51961456D01*
X93839354Y-52078077D01*
X93952800Y-52135880D01*
X94016131Y-52168149D01*
X94016133Y-52168149D01*
X94016136Y-52168151D01*
X94204832Y-52229463D01*
X94302814Y-52244981D01*
X94400791Y-52260500D01*
X94400796Y-52260500D01*
X94599209Y-52260500D01*
X94688278Y-52246392D01*
X94795168Y-52229463D01*
X94983864Y-52168151D01*
X95160646Y-52078077D01*
X95321161Y-51961456D01*
X95461456Y-51821161D01*
X95578077Y-51660646D01*
X95668151Y-51483864D01*
X95729463Y-51295168D01*
X95746392Y-51188278D01*
X95760500Y-51099209D01*
X95760500Y-50900790D01*
X95743570Y-50793906D01*
X95729463Y-50704832D01*
X95668151Y-50516136D01*
X95668149Y-50516133D01*
X95668149Y-50516131D01*
X95635880Y-50452800D01*
X95578077Y-50339354D01*
X95461456Y-50178839D01*
X95321161Y-50038544D01*
X95160646Y-49921923D01*
X95103922Y-49893021D01*
X94983868Y-49831850D01*
X94938596Y-49817140D01*
X94795168Y-49770537D01*
X94795162Y-49770536D01*
X94599209Y-49739500D01*
X94599204Y-49739500D01*
X94400796Y-49739500D01*
X94400791Y-49739500D01*
X94204837Y-49770536D01*
X94204835Y-49770536D01*
X94204832Y-49770537D01*
X94110484Y-49801193D01*
X94016131Y-49831850D01*
X93839352Y-49921924D01*
X93839349Y-49921926D01*
X93753255Y-49984477D01*
X93678839Y-50038544D01*
X93678837Y-50038546D01*
X93678836Y-50038546D01*
X93538546Y-50178836D01*
X93538546Y-50178837D01*
X93538544Y-50178839D01*
X93484477Y-50253255D01*
X93421926Y-50339349D01*
X93421924Y-50339352D01*
X93331850Y-50516131D01*
X93328806Y-50525500D01*
X93270537Y-50704832D01*
X93270536Y-50704835D01*
X93270536Y-50704837D01*
X93239500Y-50900790D01*
X91900500Y-50900790D01*
X91900500Y-49455247D01*
X106174500Y-49455247D01*
X106174500Y-50344752D01*
X106186131Y-50403229D01*
X106186132Y-50403230D01*
X106230447Y-50469552D01*
X106296769Y-50513867D01*
X106296770Y-50513868D01*
X106355247Y-50525499D01*
X106355250Y-50525500D01*
X106355252Y-50525500D01*
X107244750Y-50525500D01*
X107244751Y-50525499D01*
X107259568Y-50522552D01*
X107303229Y-50513868D01*
X107303229Y-50513867D01*
X107303231Y-50513867D01*
X107369552Y-50469552D01*
X107413867Y-50403231D01*
X107413867Y-50403229D01*
X107413868Y-50403229D01*
X107425499Y-50344752D01*
X107425500Y-50344750D01*
X107425500Y-49455249D01*
X107425499Y-49455247D01*
X107413868Y-49396770D01*
X107413867Y-49396769D01*
X107369552Y-49330447D01*
X107303230Y-49286132D01*
X107303229Y-49286131D01*
X107244752Y-49274500D01*
X107244748Y-49274500D01*
X106355252Y-49274500D01*
X106355247Y-49274500D01*
X106296770Y-49286131D01*
X106296769Y-49286132D01*
X106230447Y-49330447D01*
X106186132Y-49396769D01*
X106186131Y-49396770D01*
X106174500Y-49455247D01*
X91900500Y-49455247D01*
X91900500Y-48524500D01*
X91920185Y-48457461D01*
X91972989Y-48411706D01*
X92024500Y-48400500D01*
X111175500Y-48400500D01*
X111242539Y-48420185D01*
G37*
G04 #@! TD.AperFunction*
M02*
