G04 #@! TF.GenerationSoftware,KiCad,Pcbnew,8.0.8*
G04 #@! TF.CreationDate,2025-02-18T10:08:15-06:00*
G04 #@! TF.ProjectId,Tunnleing_Amp,54756e6e-6c65-4696-9e67-5f416d702e6b,rev?*
G04 #@! TF.SameCoordinates,Original*
G04 #@! TF.FileFunction,Copper,L4,Bot*
G04 #@! TF.FilePolarity,Positive*
%FSLAX46Y46*%
G04 Gerber Fmt 4.6, Leading zero omitted, Abs format (unit mm)*
G04 Created by KiCad (PCBNEW 8.0.8) date 2025-02-18 10:08:15*
%MOMM*%
%LPD*%
G01*
G04 APERTURE LIST*
G04 #@! TA.AperFunction,ComponentPad*
%ADD10R,1.700000X1.700000*%
G04 #@! TD*
G04 #@! TA.AperFunction,ComponentPad*
%ADD11O,1.700000X1.700000*%
G04 #@! TD*
G04 #@! TA.AperFunction,ComponentPad*
%ADD12R,0.850000X0.850000*%
G04 #@! TD*
G04 #@! TA.AperFunction,ViaPad*
%ADD13C,0.600000*%
G04 #@! TD*
G04 #@! TA.AperFunction,ViaPad*
%ADD14C,1.000000*%
G04 #@! TD*
G04 APERTURE END LIST*
D10*
X108900000Y-58275000D03*
D11*
X108900000Y-60815000D03*
D12*
X106800000Y-49900000D03*
D13*
X101100000Y-53850000D03*
X101100000Y-54700000D03*
X101100000Y-55700000D03*
X101365000Y-58300000D03*
X100550000Y-58300000D03*
X99700000Y-58300000D03*
X98800000Y-58300000D03*
X98500000Y-57500000D03*
X97600000Y-57500000D03*
X96600000Y-57500000D03*
X95900000Y-57800000D03*
X94900000Y-57800000D03*
X94300000Y-56900000D03*
X94900000Y-56000000D03*
X95800000Y-55950000D03*
X96600000Y-56300000D03*
X97600000Y-56300000D03*
X98500000Y-56300000D03*
X99300000Y-55600000D03*
X99300000Y-54700000D03*
X98900000Y-52200000D03*
X100700000Y-51600000D03*
X99800000Y-51350000D03*
X105800000Y-58800000D03*
X98900000Y-53100000D03*
X105900000Y-61970000D03*
X105900000Y-57230000D03*
X109800000Y-56000000D03*
X101365000Y-56889000D03*
X99300000Y-53800000D03*
X105200000Y-61150000D03*
X105200000Y-58050000D03*
X98900000Y-51400000D03*
X109800000Y-63200000D03*
X100095000Y-62311000D03*
X106450000Y-59600000D03*
X109350000Y-65700000D03*
X105800000Y-60400000D03*
X109350000Y-53500000D03*
X108200000Y-56000000D03*
X108200000Y-63200000D03*
D14*
X95400000Y-56900000D03*
G04 #@! TA.AperFunction,Conductor*
G36*
X97128087Y-55615604D02*
G01*
X97936221Y-56064567D01*
X97985263Y-56114331D01*
X98000000Y-56172962D01*
X98000000Y-57627037D01*
X97980315Y-57694076D01*
X97936220Y-57735432D01*
X97128087Y-58184395D01*
X97067867Y-58200000D01*
X94557032Y-58200000D01*
X94489993Y-58180315D01*
X94462884Y-58156698D01*
X93929852Y-57534827D01*
X93901169Y-57471116D01*
X93900000Y-57454129D01*
X93900000Y-56900000D01*
X94694355Y-56900000D01*
X94714859Y-57068869D01*
X94714860Y-57068874D01*
X94775182Y-57227931D01*
X94837475Y-57318177D01*
X94871817Y-57367929D01*
X94969117Y-57454129D01*
X94999150Y-57480736D01*
X95102212Y-57534827D01*
X95149775Y-57559790D01*
X95314944Y-57600500D01*
X95485056Y-57600500D01*
X95650225Y-57559790D01*
X95729692Y-57518081D01*
X95800849Y-57480736D01*
X95800850Y-57480734D01*
X95800852Y-57480734D01*
X95928183Y-57367929D01*
X96024818Y-57227930D01*
X96085140Y-57068872D01*
X96105645Y-56900000D01*
X96085140Y-56731128D01*
X96024818Y-56572070D01*
X95928183Y-56432071D01*
X95800852Y-56319266D01*
X95800849Y-56319263D01*
X95650226Y-56240210D01*
X95485056Y-56199500D01*
X95314944Y-56199500D01*
X95149773Y-56240210D01*
X94999150Y-56319263D01*
X94871816Y-56432072D01*
X94775182Y-56572068D01*
X94714860Y-56731125D01*
X94714859Y-56731130D01*
X94694355Y-56900000D01*
X93900000Y-56900000D01*
X93900000Y-56441333D01*
X93919685Y-56374294D01*
X93924800Y-56366933D01*
X94151576Y-56064566D01*
X94462800Y-55649600D01*
X94518771Y-55607779D01*
X94562000Y-55600000D01*
X97067867Y-55600000D01*
X97128087Y-55615604D01*
G37*
G04 #@! TD.AperFunction*
G04 #@! TA.AperFunction,Conductor*
G36*
X111242539Y-48420185D02*
G01*
X111288294Y-48472989D01*
X111299500Y-48524500D01*
X111299500Y-67675500D01*
X111279815Y-67742539D01*
X111227011Y-67788294D01*
X111175500Y-67799500D01*
X92024500Y-67799500D01*
X91957461Y-67779815D01*
X91911706Y-67727011D01*
X91900500Y-67675500D01*
X91900500Y-65100790D01*
X93239500Y-65100790D01*
X93239500Y-65299209D01*
X93270536Y-65495162D01*
X93270537Y-65495168D01*
X93317140Y-65638596D01*
X93331850Y-65683868D01*
X93393021Y-65803922D01*
X93421923Y-65860646D01*
X93538544Y-66021161D01*
X93678839Y-66161456D01*
X93839354Y-66278077D01*
X93952800Y-66335880D01*
X94016131Y-66368149D01*
X94016133Y-66368149D01*
X94016136Y-66368151D01*
X94204832Y-66429463D01*
X94302814Y-66444981D01*
X94400791Y-66460500D01*
X94400796Y-66460500D01*
X94599209Y-66460500D01*
X94688278Y-66446392D01*
X94795168Y-66429463D01*
X94983864Y-66368151D01*
X95160646Y-66278077D01*
X95321161Y-66161456D01*
X95461456Y-66021161D01*
X95578077Y-65860646D01*
X95668151Y-65683864D01*
X95729463Y-65495168D01*
X95746392Y-65388278D01*
X95760500Y-65299209D01*
X95760500Y-65100790D01*
X95743570Y-64993906D01*
X95729463Y-64904832D01*
X95668151Y-64716136D01*
X95668149Y-64716133D01*
X95668149Y-64716131D01*
X95635880Y-64652800D01*
X95578077Y-64539354D01*
X95461456Y-64378839D01*
X95321161Y-64238544D01*
X95160646Y-64121923D01*
X95103922Y-64093021D01*
X94983868Y-64031850D01*
X94938596Y-64017140D01*
X94795168Y-63970537D01*
X94795162Y-63970536D01*
X94599209Y-63939500D01*
X94599204Y-63939500D01*
X94400796Y-63939500D01*
X94400791Y-63939500D01*
X94204837Y-63970536D01*
X94204835Y-63970536D01*
X94204832Y-63970537D01*
X94110484Y-64001193D01*
X94016131Y-64031850D01*
X93839352Y-64121924D01*
X93839349Y-64121926D01*
X93753255Y-64184477D01*
X93678839Y-64238544D01*
X93678837Y-64238546D01*
X93678836Y-64238546D01*
X93538546Y-64378836D01*
X93538546Y-64378837D01*
X93538544Y-64378839D01*
X93484477Y-64453255D01*
X93421926Y-64539349D01*
X93421924Y-64539352D01*
X93331850Y-64716131D01*
X93301193Y-64810484D01*
X93270537Y-64904832D01*
X93270536Y-64904835D01*
X93270536Y-64904837D01*
X93239500Y-65100790D01*
X91900500Y-65100790D01*
X91900500Y-60815000D01*
X107844417Y-60815000D01*
X107864699Y-61020932D01*
X107864700Y-61020934D01*
X107924768Y-61218954D01*
X108022315Y-61401450D01*
X108022317Y-61401452D01*
X108153589Y-61561410D01*
X108250209Y-61640702D01*
X108313550Y-61692685D01*
X108496046Y-61790232D01*
X108694066Y-61850300D01*
X108694065Y-61850300D01*
X108712529Y-61852118D01*
X108900000Y-61870583D01*
X109105934Y-61850300D01*
X109303954Y-61790232D01*
X109486450Y-61692685D01*
X109646410Y-61561410D01*
X109777685Y-61401450D01*
X109875232Y-61218954D01*
X109935300Y-61020934D01*
X109955583Y-60815000D01*
X109935300Y-60609066D01*
X109875232Y-60411046D01*
X109777685Y-60228550D01*
X109725702Y-60165209D01*
X109646410Y-60068589D01*
X109486452Y-59937317D01*
X109486453Y-59937317D01*
X109486450Y-59937315D01*
X109303954Y-59839768D01*
X109105934Y-59779700D01*
X109105932Y-59779699D01*
X109105934Y-59779699D01*
X108900000Y-59759417D01*
X108694067Y-59779699D01*
X108496043Y-59839769D01*
X108385898Y-59898643D01*
X108313550Y-59937315D01*
X108313548Y-59937316D01*
X108313547Y-59937317D01*
X108153589Y-60068589D01*
X108022317Y-60228547D01*
X107924769Y-60411043D01*
X107864699Y-60609067D01*
X107844417Y-60815000D01*
X91900500Y-60815000D01*
X91900500Y-56441336D01*
X93694500Y-56441336D01*
X93694500Y-57454126D01*
X93694985Y-57468249D01*
X93696153Y-57485223D01*
X93696154Y-57485229D01*
X93713780Y-57555470D01*
X93713784Y-57555483D01*
X93742466Y-57619190D01*
X93773824Y-57668565D01*
X93773826Y-57668567D01*
X94306853Y-58290432D01*
X94327893Y-58311642D01*
X94327897Y-58311646D01*
X94355002Y-58335260D01*
X94355005Y-58335262D01*
X94432094Y-58377490D01*
X94499126Y-58397173D01*
X94499128Y-58397173D01*
X94499134Y-58397175D01*
X94557032Y-58405500D01*
X94557036Y-58405500D01*
X97067866Y-58405500D01*
X97067867Y-58405500D01*
X97119416Y-58398929D01*
X97179636Y-58383324D01*
X97227887Y-58364034D01*
X98036020Y-57915071D01*
X98053599Y-57902247D01*
X98119359Y-57878641D01*
X98187443Y-57894335D01*
X98193717Y-57898110D01*
X98288560Y-57959062D01*
X98334314Y-58011866D01*
X98344258Y-58081024D01*
X98334315Y-58114888D01*
X98314834Y-58157544D01*
X98294353Y-58300000D01*
X98314834Y-58442456D01*
X98374622Y-58573371D01*
X98374623Y-58573373D01*
X98468872Y-58682143D01*
X98589947Y-58759953D01*
X98589950Y-58759954D01*
X98589949Y-58759954D01*
X98728036Y-58800499D01*
X98728038Y-58800500D01*
X98728039Y-58800500D01*
X98871962Y-58800500D01*
X98871962Y-58800499D01*
X99010053Y-58759953D01*
X99131128Y-58682143D01*
X99156288Y-58653106D01*
X99215065Y-58615333D01*
X99284935Y-58615333D01*
X99343711Y-58653106D01*
X99368872Y-58682143D01*
X99489947Y-58759953D01*
X99489950Y-58759954D01*
X99489949Y-58759954D01*
X99628036Y-58800499D01*
X99628038Y-58800500D01*
X99628039Y-58800500D01*
X99771962Y-58800500D01*
X99771962Y-58800499D01*
X99910053Y-58759953D01*
X100031128Y-58682143D01*
X100031285Y-58681961D01*
X100031486Y-58681832D01*
X100037828Y-58676337D01*
X100038617Y-58677248D01*
X100090059Y-58644186D01*
X100159929Y-58644182D01*
X100211384Y-58677246D01*
X100212172Y-58676337D01*
X100218492Y-58681813D01*
X100218705Y-58681950D01*
X100218872Y-58682143D01*
X100218873Y-58682144D01*
X100252534Y-58703776D01*
X100339947Y-58759953D01*
X100339950Y-58759954D01*
X100339949Y-58759954D01*
X100478036Y-58800499D01*
X100478038Y-58800500D01*
X100478039Y-58800500D01*
X100621962Y-58800500D01*
X100621962Y-58800499D01*
X100760053Y-58759953D01*
X100881128Y-58682143D01*
X100881128Y-58682142D01*
X100888589Y-58677348D01*
X100890264Y-58679954D01*
X100939819Y-58657308D01*
X101008980Y-58667232D01*
X101025917Y-58678116D01*
X101026411Y-58677348D01*
X101033871Y-58682142D01*
X101033872Y-58682143D01*
X101154947Y-58759953D01*
X101154950Y-58759954D01*
X101154949Y-58759954D01*
X101293036Y-58800499D01*
X101293038Y-58800500D01*
X101293039Y-58800500D01*
X101436962Y-58800500D01*
X101436962Y-58800499D01*
X101575053Y-58759953D01*
X101696128Y-58682143D01*
X101790377Y-58573373D01*
X101850165Y-58442457D01*
X101870647Y-58300000D01*
X101850165Y-58157543D01*
X101790377Y-58026627D01*
X101696128Y-57917857D01*
X101575053Y-57840047D01*
X101575051Y-57840046D01*
X101575049Y-57840045D01*
X101575050Y-57840045D01*
X101436963Y-57799500D01*
X101436961Y-57799500D01*
X101293039Y-57799500D01*
X101293036Y-57799500D01*
X101154949Y-57840045D01*
X101026411Y-57922652D01*
X101024737Y-57920048D01*
X100975143Y-57942696D01*
X100905985Y-57932751D01*
X100889080Y-57921886D01*
X100888589Y-57922652D01*
X100844527Y-57894335D01*
X100760053Y-57840047D01*
X100760051Y-57840046D01*
X100760049Y-57840045D01*
X100760050Y-57840045D01*
X100621963Y-57799500D01*
X100621961Y-57799500D01*
X100478039Y-57799500D01*
X100478036Y-57799500D01*
X100339949Y-57840045D01*
X100218872Y-57917857D01*
X100218711Y-57918043D01*
X100218504Y-57918175D01*
X100212172Y-57923663D01*
X100211382Y-57922752D01*
X100159932Y-57955816D01*
X100090063Y-57955814D01*
X100038617Y-57922752D01*
X100037828Y-57923663D01*
X100031495Y-57918175D01*
X100031289Y-57918043D01*
X100031128Y-57917857D01*
X99910053Y-57840047D01*
X99910051Y-57840046D01*
X99910049Y-57840045D01*
X99910050Y-57840045D01*
X99771963Y-57799500D01*
X99771961Y-57799500D01*
X99628039Y-57799500D01*
X99628036Y-57799500D01*
X99489949Y-57840045D01*
X99368872Y-57917856D01*
X99343712Y-57946893D01*
X99284933Y-57984667D01*
X99215064Y-57984666D01*
X99156288Y-57946893D01*
X99150213Y-57939883D01*
X99131128Y-57917857D01*
X99131126Y-57917855D01*
X99011439Y-57840937D01*
X98965685Y-57788133D01*
X98955741Y-57718975D01*
X98965682Y-57685116D01*
X98985165Y-57642457D01*
X99005647Y-57500000D01*
X98992024Y-57405247D01*
X107849500Y-57405247D01*
X107849500Y-59144752D01*
X107861131Y-59203229D01*
X107861132Y-59203230D01*
X107905447Y-59269552D01*
X107971769Y-59313867D01*
X107971770Y-59313868D01*
X108030247Y-59325499D01*
X108030250Y-59325500D01*
X108030252Y-59325500D01*
X109769750Y-59325500D01*
X109769751Y-59325499D01*
X109784568Y-59322552D01*
X109828229Y-59313868D01*
X109828229Y-59313867D01*
X109828231Y-59313867D01*
X109894552Y-59269552D01*
X109938867Y-59203231D01*
X109938867Y-59203229D01*
X109938868Y-59203229D01*
X109950499Y-59144752D01*
X109950500Y-59144750D01*
X109950500Y-57405249D01*
X109950499Y-57405247D01*
X109938868Y-57346770D01*
X109938867Y-57346769D01*
X109894552Y-57280447D01*
X109828230Y-57236132D01*
X109828229Y-57236131D01*
X109769752Y-57224500D01*
X109769748Y-57224500D01*
X108030252Y-57224500D01*
X108030247Y-57224500D01*
X107971770Y-57236131D01*
X107971769Y-57236132D01*
X107905447Y-57280447D01*
X107861132Y-57346769D01*
X107861131Y-57346770D01*
X107849500Y-57405247D01*
X98992024Y-57405247D01*
X98985165Y-57357543D01*
X98925377Y-57226627D01*
X98831128Y-57117857D01*
X98710053Y-57040047D01*
X98710051Y-57040046D01*
X98710049Y-57040045D01*
X98710050Y-57040045D01*
X98638296Y-57018977D01*
X98579518Y-56981203D01*
X98550492Y-56917648D01*
X98560435Y-56848489D01*
X98606190Y-56795685D01*
X98638296Y-56781023D01*
X98710050Y-56759954D01*
X98710050Y-56759953D01*
X98710053Y-56759953D01*
X98831128Y-56682143D01*
X98925377Y-56573373D01*
X98985165Y-56442457D01*
X99005647Y-56300000D01*
X98993355Y-56214509D01*
X99003298Y-56145354D01*
X99049053Y-56092550D01*
X99116092Y-56072865D01*
X99151028Y-56077888D01*
X99228038Y-56100500D01*
X99228039Y-56100500D01*
X99371962Y-56100500D01*
X99371962Y-56100499D01*
X99510053Y-56059953D01*
X99631128Y-55982143D01*
X99725377Y-55873373D01*
X99785165Y-55742457D01*
X99805647Y-55600000D01*
X99785165Y-55457543D01*
X99725377Y-55326627D01*
X99642689Y-55231199D01*
X99613666Y-55167647D01*
X99623610Y-55098489D01*
X99642687Y-55068802D01*
X99725377Y-54973373D01*
X99785165Y-54842457D01*
X99805647Y-54700000D01*
X99785165Y-54557543D01*
X99725377Y-54426627D01*
X99642689Y-54331199D01*
X99613666Y-54267647D01*
X99623610Y-54198489D01*
X99642687Y-54168802D01*
X99725377Y-54073373D01*
X99785165Y-53942457D01*
X99798458Y-53850000D01*
X100594353Y-53850000D01*
X100614834Y-53992456D01*
X100674622Y-54123371D01*
X100674623Y-54123373D01*
X100713983Y-54168797D01*
X100735646Y-54193798D01*
X100764670Y-54257354D01*
X100754726Y-54326512D01*
X100735646Y-54356202D01*
X100674623Y-54426627D01*
X100674622Y-54426628D01*
X100614834Y-54557543D01*
X100594353Y-54700000D01*
X100614834Y-54842456D01*
X100674622Y-54973371D01*
X100674623Y-54973373D01*
X100768872Y-55082143D01*
X100776324Y-55086932D01*
X100789943Y-55095685D01*
X100835698Y-55148489D01*
X100845641Y-55217648D01*
X100816615Y-55281203D01*
X100789943Y-55304315D01*
X100768874Y-55317855D01*
X100674623Y-55426626D01*
X100674622Y-55426628D01*
X100614834Y-55557543D01*
X100594353Y-55700000D01*
X100614834Y-55842456D01*
X100628953Y-55873371D01*
X100674623Y-55973373D01*
X100768872Y-56082143D01*
X100889947Y-56159953D01*
X100889950Y-56159954D01*
X100889949Y-56159954D01*
X101028036Y-56200499D01*
X101028038Y-56200500D01*
X101088268Y-56200500D01*
X101155307Y-56220185D01*
X101201062Y-56272989D01*
X101211006Y-56342147D01*
X101181981Y-56405703D01*
X101155307Y-56428816D01*
X101154948Y-56429046D01*
X101154947Y-56429047D01*
X101134081Y-56442457D01*
X101033873Y-56506856D01*
X100939623Y-56615626D01*
X100939622Y-56615628D01*
X100879834Y-56746543D01*
X100859353Y-56889000D01*
X100879834Y-57031456D01*
X100919293Y-57117857D01*
X100939623Y-57162373D01*
X101033872Y-57271143D01*
X101154947Y-57348953D01*
X101154950Y-57348954D01*
X101154949Y-57348954D01*
X101293036Y-57389499D01*
X101293038Y-57389500D01*
X101293039Y-57389500D01*
X101436962Y-57389500D01*
X101436962Y-57389499D01*
X101575053Y-57348953D01*
X101696128Y-57271143D01*
X101790377Y-57162373D01*
X101850165Y-57031457D01*
X101870647Y-56889000D01*
X101850165Y-56746543D01*
X101790377Y-56615627D01*
X101696128Y-56506857D01*
X101575053Y-56429047D01*
X101575051Y-56429046D01*
X101575049Y-56429045D01*
X101575050Y-56429045D01*
X101436963Y-56388500D01*
X101436961Y-56388500D01*
X101376732Y-56388500D01*
X101309693Y-56368815D01*
X101263938Y-56316011D01*
X101253994Y-56246853D01*
X101283019Y-56183297D01*
X101309693Y-56160184D01*
X101310051Y-56159953D01*
X101310053Y-56159953D01*
X101431128Y-56082143D01*
X101525377Y-55973373D01*
X101585165Y-55842457D01*
X101605647Y-55700000D01*
X101585165Y-55557543D01*
X101525377Y-55426627D01*
X101431128Y-55317857D01*
X101431125Y-55317855D01*
X101431125Y-55317854D01*
X101410058Y-55304316D01*
X101364302Y-55251513D01*
X101354358Y-55182354D01*
X101383382Y-55118798D01*
X101410058Y-55095684D01*
X101431125Y-55082145D01*
X101431125Y-55082144D01*
X101431128Y-55082143D01*
X101525377Y-54973373D01*
X101585165Y-54842457D01*
X101605647Y-54700000D01*
X101585165Y-54557543D01*
X101525377Y-54426627D01*
X101464353Y-54356201D01*
X101435329Y-54292647D01*
X101445273Y-54223489D01*
X101464351Y-54193800D01*
X101525377Y-54123373D01*
X101585165Y-53992457D01*
X101605647Y-53850000D01*
X101585165Y-53707543D01*
X101525377Y-53576627D01*
X101431128Y-53467857D01*
X101310053Y-53390047D01*
X101310051Y-53390046D01*
X101310049Y-53390045D01*
X101310050Y-53390045D01*
X101171963Y-53349500D01*
X101171961Y-53349500D01*
X101028039Y-53349500D01*
X101028036Y-53349500D01*
X100889949Y-53390045D01*
X100768873Y-53467856D01*
X100674623Y-53576626D01*
X100674622Y-53576628D01*
X100614834Y-53707543D01*
X100594353Y-53850000D01*
X99798458Y-53850000D01*
X99805647Y-53800000D01*
X99785165Y-53657543D01*
X99725377Y-53526627D01*
X99631128Y-53417857D01*
X99577373Y-53383311D01*
X99510052Y-53340046D01*
X99479853Y-53331179D01*
X99421076Y-53293403D01*
X99392052Y-53229847D01*
X99392052Y-53194555D01*
X99405647Y-53100000D01*
X99385165Y-52957543D01*
X99325377Y-52826627D01*
X99242689Y-52731199D01*
X99213666Y-52667647D01*
X99223610Y-52598489D01*
X99242687Y-52568802D01*
X99325377Y-52473373D01*
X99385165Y-52342457D01*
X99405647Y-52200000D01*
X99385165Y-52057543D01*
X99325377Y-51926627D01*
X99325373Y-51926622D01*
X99320582Y-51919166D01*
X99323172Y-51917501D01*
X99300506Y-51867855D01*
X99310455Y-51798698D01*
X99356215Y-51745898D01*
X99423256Y-51726219D01*
X99490284Y-51745903D01*
X99528183Y-51770260D01*
X99589948Y-51809954D01*
X99728036Y-51850499D01*
X99728038Y-51850500D01*
X99728039Y-51850500D01*
X99871962Y-51850500D01*
X99871962Y-51850499D01*
X100010053Y-51809953D01*
X100071817Y-51770259D01*
X100138851Y-51750576D01*
X100205891Y-51770260D01*
X100251647Y-51823063D01*
X100251647Y-51823064D01*
X100264177Y-51850500D01*
X100274623Y-51873373D01*
X100368872Y-51982143D01*
X100489947Y-52059953D01*
X100489950Y-52059954D01*
X100489949Y-52059954D01*
X100628036Y-52100499D01*
X100628038Y-52100500D01*
X100628039Y-52100500D01*
X100771962Y-52100500D01*
X100771962Y-52100499D01*
X100910053Y-52059953D01*
X101031128Y-51982143D01*
X101125377Y-51873373D01*
X101185165Y-51742457D01*
X101205647Y-51600000D01*
X101185165Y-51457543D01*
X101125377Y-51326627D01*
X101031128Y-51217857D01*
X100910053Y-51140047D01*
X100910051Y-51140046D01*
X100910049Y-51140045D01*
X100910050Y-51140045D01*
X100771963Y-51099500D01*
X100771961Y-51099500D01*
X100628039Y-51099500D01*
X100628036Y-51099500D01*
X100489949Y-51140045D01*
X100433220Y-51176503D01*
X100428187Y-51179738D01*
X100428185Y-51179739D01*
X100361146Y-51199423D01*
X100294106Y-51179738D01*
X100248352Y-51126935D01*
X100235690Y-51099209D01*
X100225377Y-51076627D01*
X100131128Y-50967857D01*
X100010053Y-50890047D01*
X100010051Y-50890046D01*
X100010049Y-50890045D01*
X100010050Y-50890045D01*
X99871963Y-50849500D01*
X99871961Y-50849500D01*
X99728039Y-50849500D01*
X99728036Y-50849500D01*
X99589949Y-50890045D01*
X99468872Y-50967856D01*
X99422049Y-51021893D01*
X99363271Y-51059666D01*
X99293401Y-51059666D01*
X99234626Y-51021893D01*
X99231131Y-51017859D01*
X99231128Y-51017857D01*
X99110053Y-50940047D01*
X99110051Y-50940046D01*
X99110049Y-50940045D01*
X99110050Y-50940045D01*
X98971963Y-50899500D01*
X98971961Y-50899500D01*
X98828039Y-50899500D01*
X98828036Y-50899500D01*
X98689949Y-50940045D01*
X98568873Y-51017856D01*
X98474623Y-51126626D01*
X98474622Y-51126628D01*
X98414834Y-51257543D01*
X98394353Y-51400000D01*
X98414834Y-51542456D01*
X98474622Y-51673371D01*
X98474625Y-51673377D01*
X98513983Y-51718798D01*
X98543008Y-51782353D01*
X98533064Y-51851512D01*
X98513983Y-51881202D01*
X98474625Y-51926622D01*
X98474622Y-51926628D01*
X98414834Y-52057543D01*
X98394353Y-52200000D01*
X98414834Y-52342456D01*
X98474622Y-52473371D01*
X98474623Y-52473373D01*
X98524063Y-52530430D01*
X98557308Y-52568798D01*
X98586332Y-52632354D01*
X98576388Y-52701512D01*
X98557308Y-52731202D01*
X98474623Y-52826627D01*
X98474622Y-52826628D01*
X98414834Y-52957543D01*
X98394353Y-53100000D01*
X98414834Y-53242456D01*
X98440886Y-53299500D01*
X98474623Y-53373373D01*
X98568872Y-53482143D01*
X98638089Y-53526626D01*
X98689948Y-53559954D01*
X98720144Y-53568820D01*
X98778922Y-53606594D01*
X98807947Y-53670150D01*
X98807947Y-53705443D01*
X98794353Y-53799998D01*
X98794353Y-53799999D01*
X98814834Y-53942456D01*
X98837669Y-53992456D01*
X98874623Y-54073373D01*
X98917946Y-54123371D01*
X98957308Y-54168798D01*
X98986332Y-54232354D01*
X98976388Y-54301512D01*
X98957308Y-54331202D01*
X98874623Y-54426627D01*
X98874622Y-54426628D01*
X98814834Y-54557543D01*
X98794353Y-54700000D01*
X98814834Y-54842456D01*
X98874622Y-54973371D01*
X98874623Y-54973373D01*
X98924063Y-55030430D01*
X98957308Y-55068798D01*
X98986332Y-55132354D01*
X98976388Y-55201512D01*
X98957308Y-55231202D01*
X98874623Y-55326627D01*
X98874622Y-55326628D01*
X98814834Y-55457543D01*
X98794353Y-55600000D01*
X98806644Y-55685487D01*
X98796700Y-55754646D01*
X98750945Y-55807450D01*
X98683906Y-55827134D01*
X98648972Y-55822111D01*
X98571964Y-55799500D01*
X98571961Y-55799500D01*
X98428039Y-55799500D01*
X98428036Y-55799500D01*
X98289949Y-55840045D01*
X98193355Y-55902122D01*
X98126315Y-55921806D01*
X98059276Y-55902121D01*
X98051282Y-55896527D01*
X98036024Y-55884930D01*
X98036022Y-55884929D01*
X98036021Y-55884928D01*
X97390488Y-55526299D01*
X97227889Y-55435966D01*
X97227888Y-55435965D01*
X97227887Y-55435965D01*
X97179633Y-55416674D01*
X97179630Y-55416673D01*
X97179627Y-55416672D01*
X97119414Y-55401070D01*
X97119411Y-55401069D01*
X97075395Y-55395459D01*
X97067867Y-55394500D01*
X94562000Y-55394500D01*
X94525605Y-55397749D01*
X94525594Y-55397750D01*
X94482283Y-55405544D01*
X94479384Y-55406088D01*
X94479367Y-55406093D01*
X94395767Y-55443156D01*
X94339797Y-55484976D01*
X94298400Y-55526299D01*
X94298399Y-55526299D01*
X93987176Y-55941266D01*
X93760410Y-56243618D01*
X93756028Y-56249686D01*
X93750927Y-56257028D01*
X93722512Y-56316390D01*
X93722507Y-56316403D01*
X93702827Y-56383423D01*
X93694500Y-56441336D01*
X91900500Y-56441336D01*
X91900500Y-50900790D01*
X93239500Y-50900790D01*
X93239500Y-51099209D01*
X93258292Y-51217856D01*
X93270537Y-51295168D01*
X93304600Y-51400000D01*
X93331850Y-51483868D01*
X93361703Y-51542457D01*
X93421923Y-51660646D01*
X93538544Y-51821161D01*
X93678839Y-51961456D01*
X93839354Y-52078077D01*
X93952800Y-52135880D01*
X94016131Y-52168149D01*
X94016133Y-52168149D01*
X94016136Y-52168151D01*
X94204832Y-52229463D01*
X94302814Y-52244981D01*
X94400791Y-52260500D01*
X94400796Y-52260500D01*
X94599209Y-52260500D01*
X94688278Y-52246392D01*
X94795168Y-52229463D01*
X94983864Y-52168151D01*
X95160646Y-52078077D01*
X95321161Y-51961456D01*
X95461456Y-51821161D01*
X95578077Y-51660646D01*
X95668151Y-51483864D01*
X95729463Y-51295168D01*
X95751577Y-51155543D01*
X95760500Y-51099209D01*
X95760500Y-50900790D01*
X95743570Y-50793906D01*
X95729463Y-50704832D01*
X95668151Y-50516136D01*
X95668149Y-50516133D01*
X95668149Y-50516131D01*
X95635880Y-50452800D01*
X95578077Y-50339354D01*
X95461456Y-50178839D01*
X95321161Y-50038544D01*
X95160646Y-49921923D01*
X95103922Y-49893021D01*
X94983868Y-49831850D01*
X94938596Y-49817140D01*
X94795168Y-49770537D01*
X94795162Y-49770536D01*
X94599209Y-49739500D01*
X94599204Y-49739500D01*
X94400796Y-49739500D01*
X94400791Y-49739500D01*
X94204837Y-49770536D01*
X94204835Y-49770536D01*
X94204832Y-49770537D01*
X94110484Y-49801193D01*
X94016131Y-49831850D01*
X93839352Y-49921924D01*
X93839349Y-49921926D01*
X93753255Y-49984477D01*
X93678839Y-50038544D01*
X93678837Y-50038546D01*
X93678836Y-50038546D01*
X93538546Y-50178836D01*
X93538546Y-50178837D01*
X93538544Y-50178839D01*
X93484477Y-50253255D01*
X93421926Y-50339349D01*
X93421924Y-50339352D01*
X93331850Y-50516131D01*
X93328806Y-50525500D01*
X93270537Y-50704832D01*
X93270536Y-50704835D01*
X93270536Y-50704837D01*
X93239500Y-50900790D01*
X91900500Y-50900790D01*
X91900500Y-49455247D01*
X106174500Y-49455247D01*
X106174500Y-50344752D01*
X106186131Y-50403229D01*
X106186132Y-50403230D01*
X106230447Y-50469552D01*
X106296769Y-50513867D01*
X106296770Y-50513868D01*
X106355247Y-50525499D01*
X106355250Y-50525500D01*
X106355252Y-50525500D01*
X107244750Y-50525500D01*
X107244751Y-50525499D01*
X107259568Y-50522552D01*
X107303229Y-50513868D01*
X107303229Y-50513867D01*
X107303231Y-50513867D01*
X107369552Y-50469552D01*
X107413867Y-50403231D01*
X107413867Y-50403229D01*
X107413868Y-50403229D01*
X107425499Y-50344752D01*
X107425500Y-50344750D01*
X107425500Y-49455249D01*
X107425499Y-49455247D01*
X107413868Y-49396770D01*
X107413867Y-49396769D01*
X107369552Y-49330447D01*
X107303230Y-49286132D01*
X107303229Y-49286131D01*
X107244752Y-49274500D01*
X107244748Y-49274500D01*
X106355252Y-49274500D01*
X106355247Y-49274500D01*
X106296770Y-49286131D01*
X106296769Y-49286132D01*
X106230447Y-49330447D01*
X106186132Y-49396769D01*
X106186131Y-49396770D01*
X106174500Y-49455247D01*
X91900500Y-49455247D01*
X91900500Y-48524500D01*
X91920185Y-48457461D01*
X91972989Y-48411706D01*
X92024500Y-48400500D01*
X111175500Y-48400500D01*
X111242539Y-48420185D01*
G37*
G04 #@! TD.AperFunction*
M02*
