G04 #@! TF.GenerationSoftware,KiCad,Pcbnew,8.0.8*
G04 #@! TF.CreationDate,2025-02-18T10:08:16-06:00*
G04 #@! TF.ProjectId,Tunnleing_Amp,54756e6e-6c65-4696-9e67-5f416d702e6b,rev?*
G04 #@! TF.SameCoordinates,Original*
G04 #@! TF.FileFunction,Legend,Bot*
G04 #@! TF.FilePolarity,Positive*
%FSLAX46Y46*%
G04 Gerber Fmt 4.6, Leading zero omitted, Abs format (unit mm)*
G04 Created by KiCad (PCBNEW 8.0.8) date 2025-02-18 10:08:16*
%MOMM*%
%LPD*%
G01*
G04 APERTURE LIST*
G04 Aperture macros list*
%AMRoundRect*
0 Rectangle with rounded corners*
0 $1 Rounding radius*
0 $2 $3 $4 $5 $6 $7 $8 $9 X,Y pos of 4 corners*
0 Add a 4 corners polygon primitive as box body*
4,1,4,$2,$3,$4,$5,$6,$7,$8,$9,$2,$3,0*
0 Add four circle primitives for the rounded corners*
1,1,$1+$1,$2,$3*
1,1,$1+$1,$4,$5*
1,1,$1+$1,$6,$7*
1,1,$1+$1,$8,$9*
0 Add four rect primitives between the rounded corners*
20,1,$1+$1,$2,$3,$4,$5,0*
20,1,$1+$1,$4,$5,$6,$7,0*
20,1,$1+$1,$6,$7,$8,$9,0*
20,1,$1+$1,$8,$9,$2,$3,0*%
G04 Aperture macros list end*
%ADD10C,0.000000*%
%ADD11C,2.400000*%
%ADD12RoundRect,0.100000X-0.850000X-0.850000X0.850000X-0.850000X0.850000X0.850000X-0.850000X0.850000X0*%
%ADD13O,1.900000X1.900000*%
%ADD14RoundRect,0.100000X-0.425000X-0.425000X0.425000X-0.425000X0.425000X0.425000X-0.425000X0.425000X0*%
G04 APERTURE END LIST*
D10*
G36*
X109731760Y-64442395D02*
G01*
X109730606Y-64460038D01*
X109715525Y-64513963D01*
X109688399Y-64594913D01*
X109652522Y-64693861D01*
X109611187Y-64801779D01*
X109567686Y-64909640D01*
X109525312Y-65008416D01*
X109496765Y-65073640D01*
X109473570Y-65129442D01*
X109464523Y-65155210D01*
X109462776Y-65163152D01*
X109450309Y-65207374D01*
X109428506Y-65280432D01*
X109400514Y-65371676D01*
X109387523Y-65413948D01*
X109360003Y-65506386D01*
X109339224Y-65580193D01*
X109328909Y-65622330D01*
X109321265Y-65660474D01*
X109305629Y-65732250D01*
X109286298Y-65817275D01*
X109271474Y-65890145D01*
X109257194Y-65985255D01*
X109251674Y-66058932D01*
X109251588Y-66076495D01*
X109246666Y-66127072D01*
X109226678Y-66147492D01*
X109181314Y-66151290D01*
X109150241Y-66150357D01*
X109123202Y-66139719D01*
X109112713Y-66106976D01*
X109110954Y-66039732D01*
X109111537Y-66012674D01*
X109119503Y-65923103D01*
X109133821Y-65848440D01*
X109136169Y-65840023D01*
X109155383Y-65758076D01*
X109170938Y-65672695D01*
X109191417Y-65569456D01*
X109248955Y-65378810D01*
X109335320Y-65161021D01*
X109448662Y-64920585D01*
X109587127Y-64662001D01*
X109600562Y-64638221D01*
X109653051Y-64545400D01*
X109687524Y-64485408D01*
X109708306Y-64451679D01*
X109719722Y-64437646D01*
X109726099Y-64436740D01*
X109731760Y-64442395D01*
G37*
G36*
X107474616Y-65278407D02*
G01*
X107494500Y-65316342D01*
X107499755Y-65378292D01*
X107487032Y-65468420D01*
X107455894Y-65594114D01*
X107442731Y-65641922D01*
X107423307Y-65713862D01*
X107411258Y-65760320D01*
X107389726Y-65841955D01*
X107362781Y-65925285D01*
X107324171Y-66028160D01*
X107292891Y-66093732D01*
X107260247Y-66138399D01*
X107233971Y-66154610D01*
X107220317Y-66138647D01*
X107225538Y-66086793D01*
X107240890Y-66038129D01*
X107261165Y-66000016D01*
X107272576Y-65979111D01*
X107281591Y-65928483D01*
X107285383Y-65897121D01*
X107303641Y-65856950D01*
X107320404Y-65829658D01*
X107338314Y-65776036D01*
X107339610Y-65770114D01*
X107352714Y-65713246D01*
X107372627Y-65629450D01*
X107395582Y-65534607D01*
X107401268Y-65510854D01*
X107419377Y-65419615D01*
X107420241Y-65371798D01*
X107403096Y-65366947D01*
X107367180Y-65404603D01*
X107311727Y-65484308D01*
X107229982Y-65606846D01*
X107161939Y-65702527D01*
X107113531Y-65763624D01*
X107086049Y-65789552D01*
X107080781Y-65779727D01*
X107099018Y-65733565D01*
X107142049Y-65650481D01*
X107211163Y-65529890D01*
X107262825Y-65444188D01*
X107326034Y-65347142D01*
X107374870Y-65285810D01*
X107413280Y-65256422D01*
X107445213Y-65255211D01*
X107474616Y-65278407D01*
G37*
G36*
X107506999Y-55764194D02*
G01*
X107491202Y-55991752D01*
X107461269Y-56195334D01*
X107456734Y-56218206D01*
X107435173Y-56328224D01*
X107418761Y-56414150D01*
X107409593Y-56465048D01*
X107408317Y-56471667D01*
X107396803Y-56519952D01*
X107377045Y-56596443D01*
X107352450Y-56687855D01*
X107350557Y-56694775D01*
X107320624Y-56806225D01*
X107291037Y-56919525D01*
X107267942Y-57011165D01*
X107215707Y-57207290D01*
X107152446Y-57400409D01*
X107077433Y-57583731D01*
X106985625Y-57768297D01*
X106871977Y-57965145D01*
X106731445Y-58185317D01*
X106651677Y-58303203D01*
X106530569Y-58467862D01*
X106414943Y-58603362D01*
X106296475Y-58718279D01*
X106166840Y-58821190D01*
X106017713Y-58920674D01*
X106017610Y-58920751D01*
X106029619Y-58938462D01*
X106068531Y-58978369D01*
X106126101Y-59032005D01*
X106152527Y-59056909D01*
X106272547Y-59207630D01*
X106360389Y-59389317D01*
X106414493Y-59597917D01*
X106433298Y-59829377D01*
X106433262Y-59853251D01*
X106429490Y-59948724D01*
X106416923Y-60030876D01*
X106391704Y-60118231D01*
X106349971Y-60229314D01*
X106324697Y-60291196D01*
X106268990Y-60415225D01*
X106217909Y-60512804D01*
X106173908Y-60580471D01*
X106139440Y-60614766D01*
X106116961Y-60612225D01*
X106108922Y-60569388D01*
X106113205Y-60542130D01*
X106131773Y-60522481D01*
X106150594Y-60515274D01*
X106185768Y-60471074D01*
X106221021Y-60394519D01*
X106253560Y-60294766D01*
X106280594Y-60180969D01*
X106299332Y-60062287D01*
X106306980Y-59947874D01*
X106307028Y-59918278D01*
X106285187Y-59674848D01*
X106224190Y-59453186D01*
X106125034Y-59255994D01*
X105988717Y-59085974D01*
X105938363Y-59036687D01*
X105871919Y-58981074D01*
X105828661Y-58964784D01*
X105804745Y-58989496D01*
X105796329Y-59056890D01*
X105799568Y-59168645D01*
X105810687Y-59360734D01*
X105935777Y-59488852D01*
X106003929Y-59566579D01*
X106074278Y-59661717D01*
X106125623Y-59747242D01*
X106152299Y-59804237D01*
X106172489Y-59862142D01*
X106183921Y-59925493D01*
X106188953Y-60008100D01*
X106189945Y-60123774D01*
X106189305Y-60178415D01*
X106184196Y-60288240D01*
X106174779Y-60371054D01*
X106162000Y-60416941D01*
X106157973Y-60423322D01*
X106146379Y-60430824D01*
X106139450Y-60408454D01*
X106136300Y-60350549D01*
X106136038Y-60251444D01*
X106135432Y-60166750D01*
X106128564Y-60069411D01*
X106112224Y-59989993D01*
X106083779Y-59911370D01*
X106076564Y-59894651D01*
X106027794Y-59796102D01*
X105971986Y-59701959D01*
X105914755Y-59619727D01*
X105861714Y-59556910D01*
X105818477Y-59521013D01*
X105790658Y-59519539D01*
X105789751Y-59520632D01*
X105780963Y-59554010D01*
X105777072Y-59611254D01*
X105771839Y-59688941D01*
X105754412Y-59810336D01*
X105727899Y-59946315D01*
X105695552Y-60080534D01*
X105660621Y-60196648D01*
X105647396Y-60234495D01*
X105601007Y-60357579D01*
X105554418Y-60459930D01*
X105498128Y-60560825D01*
X105422636Y-60679543D01*
X105406692Y-60703924D01*
X105356708Y-60785599D01*
X105327890Y-60847999D01*
X105314676Y-60905852D01*
X105311508Y-60973887D01*
X105311508Y-61099442D01*
X105516725Y-61093394D01*
X105526989Y-61093068D01*
X105652404Y-61086381D01*
X105785043Y-61075447D01*
X105897842Y-61062463D01*
X105934177Y-61057674D01*
X106037970Y-61045769D01*
X106169083Y-61032318D01*
X106314379Y-61018636D01*
X106460723Y-61006041D01*
X106472519Y-61005084D01*
X106634726Y-60993235D01*
X106763403Y-60987220D01*
X106870776Y-60986994D01*
X106969070Y-60992509D01*
X107070510Y-61003720D01*
X107215185Y-61027000D01*
X107404587Y-61074287D01*
X107556524Y-61135095D01*
X107668200Y-61208212D01*
X107736819Y-61292428D01*
X107744707Y-61312745D01*
X107759551Y-61390985D01*
X107770087Y-61514263D01*
X107776402Y-61683423D01*
X107777209Y-61716433D01*
X107781592Y-61838501D01*
X107787505Y-61945191D01*
X107794273Y-62025995D01*
X107801222Y-62070404D01*
X107815269Y-62125691D01*
X107829453Y-62199397D01*
X107838096Y-62244990D01*
X107858258Y-62335233D01*
X107887024Y-62455259D01*
X107922340Y-62596541D01*
X107962153Y-62750551D01*
X107962913Y-62753396D01*
X107996792Y-62822478D01*
X108060676Y-62865296D01*
X108103503Y-62886247D01*
X108173012Y-62932294D01*
X108223615Y-62980730D01*
X108243179Y-63021191D01*
X108243171Y-63021723D01*
X108229109Y-63058973D01*
X108196272Y-63108752D01*
X108193919Y-63111758D01*
X108162373Y-63155297D01*
X108149365Y-63179490D01*
X108154363Y-63184141D01*
X108191685Y-63199070D01*
X108253514Y-63216822D01*
X108283651Y-63225229D01*
X108342265Y-63247064D01*
X108372203Y-63266574D01*
X108377510Y-63272761D01*
X108420531Y-63301330D01*
X108492785Y-63336977D01*
X108582291Y-63374168D01*
X108677066Y-63407371D01*
X108697624Y-63413982D01*
X108758425Y-63435339D01*
X108794333Y-63450709D01*
X108799201Y-63453415D01*
X108841240Y-63469039D01*
X108853454Y-63472206D01*
X108902956Y-63487895D01*
X108970233Y-63511075D01*
X109004492Y-63523242D01*
X109163274Y-63578448D01*
X109289759Y-63619085D01*
X109393608Y-63647067D01*
X109484484Y-63664309D01*
X109572050Y-63672726D01*
X109665968Y-63674234D01*
X109775901Y-63670746D01*
X110053232Y-63658507D01*
X110045297Y-63714640D01*
X110045201Y-63715313D01*
X110032466Y-63751413D01*
X109999042Y-63771605D01*
X109931822Y-63783890D01*
X109892239Y-63789641D01*
X109859754Y-63800437D01*
X109872948Y-63815185D01*
X109931822Y-63837239D01*
X109938054Y-63839822D01*
X109928905Y-63843856D01*
X109886723Y-63843296D01*
X109821588Y-63839025D01*
X109743580Y-63831921D01*
X109662779Y-63822865D01*
X109589263Y-63812738D01*
X109533114Y-63802419D01*
X109504291Y-63795844D01*
X109434411Y-63780211D01*
X109387907Y-63770236D01*
X109321156Y-63754735D01*
X109232344Y-63730761D01*
X109138471Y-63703058D01*
X109052153Y-63675507D01*
X108986005Y-63651988D01*
X108952643Y-63636379D01*
X108937587Y-63626330D01*
X108923327Y-63627783D01*
X108922834Y-63629326D01*
X108899801Y-63626937D01*
X108852967Y-63606599D01*
X108844963Y-63602530D01*
X108800672Y-63583113D01*
X108782606Y-63580901D01*
X108774363Y-63580984D01*
X108732681Y-63568505D01*
X108665188Y-63544146D01*
X108582462Y-63511944D01*
X108495087Y-63475935D01*
X108413642Y-63440156D01*
X108403313Y-63435514D01*
X108354637Y-63416391D01*
X108331555Y-63412120D01*
X108327350Y-63411945D01*
X108295726Y-63395383D01*
X108245076Y-63361690D01*
X108201215Y-63336440D01*
X108114695Y-63300883D01*
X108022269Y-63274773D01*
X107964984Y-63262664D01*
X107846760Y-63237153D01*
X107738931Y-63213338D01*
X107718754Y-63208793D01*
X107652583Y-63192972D01*
X107626673Y-63182848D01*
X107636457Y-63174871D01*
X107677366Y-63165489D01*
X107705568Y-63160783D01*
X107789251Y-63152527D01*
X107878195Y-63149259D01*
X107893277Y-63149179D01*
X107967004Y-63143287D01*
X108017923Y-63122647D01*
X108066515Y-63079696D01*
X108133160Y-63010133D01*
X108065039Y-62983228D01*
X108005095Y-62961235D01*
X107938285Y-62939829D01*
X107933857Y-62938446D01*
X107884732Y-62900100D01*
X107844210Y-62820410D01*
X107810929Y-62696778D01*
X107796806Y-62638594D01*
X107777109Y-62568788D01*
X107774538Y-62560131D01*
X107763048Y-62512140D01*
X107763442Y-62492564D01*
X107763952Y-62476910D01*
X107750748Y-62434168D01*
X107725634Y-62348537D01*
X107700953Y-62219566D01*
X107681541Y-62070004D01*
X107668466Y-61913108D01*
X107662798Y-61762134D01*
X107665605Y-61630338D01*
X107677955Y-61530976D01*
X107683731Y-61463083D01*
X107656817Y-61377620D01*
X107587541Y-61303876D01*
X107474620Y-61240627D01*
X107316771Y-61186652D01*
X107247153Y-61169790D01*
X107047317Y-61139530D01*
X106812819Y-61125416D01*
X106550344Y-61127482D01*
X106266577Y-61145757D01*
X106079065Y-61167449D01*
X105968202Y-61180274D01*
X105952059Y-61182401D01*
X105847377Y-61192341D01*
X105723774Y-61199526D01*
X105604675Y-61202524D01*
X105561080Y-61203054D01*
X105469901Y-61206650D01*
X105400980Y-61212803D01*
X105366638Y-61220578D01*
X105352080Y-61250064D01*
X105348843Y-61309815D01*
X105358017Y-61381759D01*
X105378704Y-61448889D01*
X105384049Y-61462168D01*
X105404145Y-61520320D01*
X105429260Y-61599583D01*
X105454426Y-61683558D01*
X105474676Y-61755841D01*
X105485043Y-61800031D01*
X105485989Y-61805010D01*
X105502578Y-61847597D01*
X105505565Y-61853328D01*
X105523492Y-61897540D01*
X105545311Y-61960608D01*
X105552230Y-61979903D01*
X105577665Y-62026423D01*
X105601161Y-62039405D01*
X105614313Y-62034259D01*
X105665585Y-62014581D01*
X105733668Y-61988709D01*
X105764416Y-61976996D01*
X105835907Y-61949217D01*
X105886115Y-61928976D01*
X105911641Y-61918799D01*
X105997465Y-61891211D01*
X106110863Y-61863502D01*
X106261369Y-61833239D01*
X106342134Y-61817988D01*
X106448525Y-61797783D01*
X106554536Y-61777558D01*
X106560710Y-61776377D01*
X106656866Y-61758096D01*
X106742882Y-61741923D01*
X106800797Y-61731234D01*
X106918349Y-61706756D01*
X107049394Y-61673819D01*
X107171319Y-61638196D01*
X107265528Y-61604940D01*
X107316230Y-61585967D01*
X107346809Y-61577883D01*
X107368751Y-61563675D01*
X107414114Y-61524510D01*
X107472469Y-61469140D01*
X107513495Y-61430748D01*
X107578744Y-61382966D01*
X107620678Y-61374905D01*
X107640590Y-61385380D01*
X107645339Y-61408075D01*
X107624662Y-61454819D01*
X107581060Y-61522703D01*
X107478862Y-61625347D01*
X107351951Y-61703470D01*
X107315275Y-61720121D01*
X107261077Y-61744070D01*
X107234684Y-61754759D01*
X107234061Y-61754929D01*
X107204455Y-61766002D01*
X107152597Y-61787163D01*
X107118690Y-61798092D01*
X107042352Y-61817949D01*
X106936380Y-61842871D01*
X106809841Y-61870739D01*
X106671803Y-61899437D01*
X106561708Y-61921753D01*
X106428066Y-61949108D01*
X106311371Y-61973284D01*
X106221307Y-61992271D01*
X106167556Y-62004060D01*
X106149877Y-62008154D01*
X106083200Y-62023345D01*
X106038562Y-62033149D01*
X106023189Y-62036746D01*
X105968202Y-62053604D01*
X105942332Y-62063140D01*
X105880532Y-62085671D01*
X105874402Y-62087893D01*
X105804028Y-62113400D01*
X105682711Y-62161078D01*
X105542450Y-62224207D01*
X105407525Y-62292364D01*
X105287639Y-62360331D01*
X105192497Y-62422892D01*
X105131802Y-62474829D01*
X105102822Y-62510388D01*
X105059501Y-62575155D01*
X105011613Y-62660639D01*
X104957337Y-62770766D01*
X104894853Y-62909463D01*
X104822343Y-63080656D01*
X104737987Y-63288273D01*
X104639965Y-63536239D01*
X104590387Y-63662103D01*
X104516689Y-63844394D01*
X104451838Y-63996206D01*
X104391538Y-64126161D01*
X104331494Y-64242880D01*
X104267409Y-64354982D01*
X104194986Y-64471090D01*
X104109930Y-64599823D01*
X103946610Y-64842539D01*
X103987581Y-64949819D01*
X103998380Y-64976815D01*
X104059990Y-65107094D01*
X104142425Y-65255760D01*
X104206633Y-65359072D01*
X104237698Y-65409057D01*
X104337826Y-65553229D01*
X104386337Y-65617728D01*
X104453873Y-65701330D01*
X104502657Y-65750842D01*
X104536545Y-65769900D01*
X104559396Y-65762143D01*
X104572571Y-65747163D01*
X104617121Y-65693119D01*
X104681585Y-65612632D01*
X104760334Y-65512932D01*
X104847742Y-65401251D01*
X104938181Y-65284820D01*
X105026023Y-65170871D01*
X105105641Y-65066635D01*
X105171407Y-64979344D01*
X105217694Y-64916228D01*
X105272478Y-64840825D01*
X105454666Y-64606837D01*
X105652600Y-64374712D01*
X105860615Y-64149947D01*
X106073044Y-63938042D01*
X106284220Y-63744494D01*
X106488477Y-63574801D01*
X106680148Y-63434462D01*
X106853567Y-63328974D01*
X106910865Y-63300567D01*
X106960835Y-63282540D01*
X106971760Y-63289183D01*
X106942495Y-63318127D01*
X106871898Y-63366999D01*
X106849511Y-63381444D01*
X106726706Y-63469138D01*
X106587296Y-63582326D01*
X106426969Y-63724654D01*
X106241408Y-63899767D01*
X106217428Y-63923086D01*
X106110651Y-64030158D01*
X105996079Y-64149372D01*
X105880562Y-64273198D01*
X105770949Y-64394107D01*
X105674092Y-64504571D01*
X105596840Y-64597062D01*
X105546041Y-64664050D01*
X105525606Y-64692041D01*
X105479101Y-64752723D01*
X105416884Y-64832146D01*
X105346688Y-64920367D01*
X105276638Y-65007942D01*
X105179694Y-65129552D01*
X105078216Y-65257194D01*
X104985349Y-65374352D01*
X104980753Y-65380159D01*
X104897614Y-65484008D01*
X104815660Y-65584446D01*
X104744110Y-65670278D01*
X104692182Y-65730311D01*
X104682508Y-65741090D01*
X104615970Y-65815967D01*
X104536699Y-65906044D01*
X104459808Y-65994162D01*
X104390399Y-66070985D01*
X104337257Y-66120078D01*
X104294652Y-66144607D01*
X104253775Y-66151290D01*
X104184114Y-66151290D01*
X104266940Y-66078567D01*
X104292822Y-66054255D01*
X104328894Y-66011782D01*
X104337734Y-65986374D01*
X104335059Y-65978793D01*
X104349537Y-65952173D01*
X104372415Y-65917222D01*
X104363138Y-65860256D01*
X104323285Y-65788964D01*
X104257188Y-65709436D01*
X104169178Y-65627763D01*
X104063585Y-65550035D01*
X104058989Y-65547054D01*
X103985882Y-65503236D01*
X103898853Y-65455956D01*
X103807075Y-65409550D01*
X103719723Y-65368358D01*
X103645970Y-65336718D01*
X103594990Y-65318967D01*
X103575958Y-65319445D01*
X103575957Y-65319510D01*
X103556871Y-65318951D01*
X103511461Y-65304095D01*
X103501291Y-65300528D01*
X103429472Y-65285639D01*
X103349414Y-65280323D01*
X103344934Y-65280366D01*
X103263867Y-65271081D01*
X103217803Y-65245337D01*
X103210679Y-65207637D01*
X103246433Y-65162487D01*
X103270751Y-65142795D01*
X103505598Y-65142795D01*
X103510746Y-65154499D01*
X103543928Y-65166249D01*
X103565416Y-65171023D01*
X103624672Y-65192511D01*
X103707684Y-65227332D01*
X103803647Y-65271122D01*
X103875098Y-65304270D01*
X103950598Y-65337361D01*
X104000450Y-65356767D01*
X104016388Y-65359072D01*
X103984649Y-65296100D01*
X103910245Y-65138102D01*
X103862291Y-65016979D01*
X103840344Y-64931652D01*
X103836989Y-64910546D01*
X103822934Y-64858666D01*
X103807404Y-64837901D01*
X103785818Y-64850167D01*
X103740131Y-64888791D01*
X103681257Y-64944385D01*
X103618783Y-65007264D01*
X103562292Y-65067748D01*
X103521369Y-65116152D01*
X103505598Y-65142795D01*
X103270751Y-65142795D01*
X103302366Y-65117194D01*
X103187038Y-64997627D01*
X103086903Y-64895238D01*
X102997722Y-64809914D01*
X102926171Y-64752166D01*
X102865036Y-64718087D01*
X102807100Y-64703774D01*
X102745149Y-64705318D01*
X102671967Y-64718816D01*
X102619214Y-64728965D01*
X102555593Y-64736004D01*
X102521171Y-64732741D01*
X102511455Y-64721941D01*
X102517122Y-64687359D01*
X102552257Y-64644681D01*
X102608355Y-64602768D01*
X102676908Y-64570485D01*
X102687361Y-64566960D01*
X102755428Y-64548424D01*
X102806332Y-64548765D01*
X102862922Y-64567634D01*
X102877268Y-64573346D01*
X102923907Y-64586953D01*
X102942717Y-64583708D01*
X102942629Y-64582944D01*
X102931008Y-64554323D01*
X102903933Y-64496872D01*
X102867261Y-64422224D01*
X102826848Y-64342016D01*
X102788550Y-64267882D01*
X102758223Y-64211457D01*
X102741724Y-64184377D01*
X102727690Y-64188488D01*
X102685263Y-64217495D01*
X102622726Y-64267180D01*
X102547936Y-64330998D01*
X102468749Y-64402404D01*
X102393022Y-64474854D01*
X102379381Y-64488652D01*
X102297497Y-64583478D01*
X102230536Y-64680962D01*
X102185342Y-64769978D01*
X102168756Y-64839404D01*
X102169547Y-64848817D01*
X102185696Y-64903206D01*
X102216112Y-64967694D01*
X102226528Y-64987321D01*
X102248435Y-65040764D01*
X102251281Y-65071726D01*
X102237609Y-65084577D01*
X102191825Y-65116581D01*
X102127702Y-65155778D01*
X102068914Y-65193755D01*
X101980231Y-65260179D01*
X101898957Y-65329763D01*
X101891395Y-65336678D01*
X101807405Y-65402731D01*
X101703337Y-65471517D01*
X101599926Y-65529206D01*
X101564772Y-65546701D01*
X101489784Y-65584960D01*
X101437736Y-65612891D01*
X101418248Y-65625398D01*
X101418806Y-65626302D01*
X101445440Y-65638559D01*
X101503497Y-65659429D01*
X101581175Y-65685186D01*
X101666677Y-65712101D01*
X101748204Y-65736445D01*
X101813956Y-65754490D01*
X101852136Y-65762507D01*
X101932625Y-65775942D01*
X102027699Y-65804272D01*
X102110530Y-65840420D01*
X102163917Y-65878012D01*
X102172947Y-65889566D01*
X102203573Y-65955973D01*
X102221599Y-66039887D01*
X102233354Y-66151290D01*
X102154148Y-66151290D01*
X102122526Y-66150773D01*
X102089446Y-66142044D01*
X102076907Y-66112275D01*
X102074943Y-66048534D01*
X102074943Y-65945778D01*
X101963539Y-65917138D01*
X101932170Y-65909295D01*
X101848319Y-65890014D01*
X101781775Y-65876850D01*
X101723806Y-65863299D01*
X101670372Y-65843247D01*
X101646361Y-65832366D01*
X101629328Y-65831606D01*
X101616744Y-65832825D01*
X101569658Y-65818746D01*
X101495663Y-65790675D01*
X101403260Y-65752276D01*
X101300946Y-65707214D01*
X101197223Y-65659153D01*
X101100588Y-65611758D01*
X101019541Y-65568694D01*
X100976043Y-65544301D01*
X100878073Y-65490107D01*
X100791196Y-65442974D01*
X100730240Y-65410985D01*
X100715914Y-65403444D01*
X100631736Y-65346471D01*
X100558324Y-65277140D01*
X100501068Y-65203502D01*
X100465355Y-65133607D01*
X100456574Y-65075508D01*
X100480113Y-65037255D01*
X100495084Y-65039977D01*
X100503567Y-65074682D01*
X100507206Y-65096497D01*
X100544903Y-65159082D01*
X100618991Y-65231631D01*
X100723883Y-65310206D01*
X100853989Y-65390867D01*
X101003721Y-65469674D01*
X101167490Y-65542688D01*
X101192183Y-65552569D01*
X101264803Y-65577378D01*
X101311172Y-65582734D01*
X101343391Y-65570556D01*
X101354557Y-65563279D01*
X101409240Y-65532095D01*
X101476882Y-65497404D01*
X101519496Y-65474091D01*
X101601766Y-65420837D01*
X101680485Y-65361829D01*
X101753534Y-65302132D01*
X101845394Y-65227376D01*
X101933718Y-65155760D01*
X102077162Y-65039731D01*
X102061464Y-64914088D01*
X102055463Y-64843903D01*
X102060832Y-64785066D01*
X102081918Y-64722087D01*
X102122732Y-64636808D01*
X102196064Y-64517282D01*
X102320789Y-64379193D01*
X102486022Y-64251567D01*
X102501424Y-64241091D01*
X102576342Y-64185241D01*
X102640636Y-64130840D01*
X102656167Y-64116162D01*
X102688688Y-64078518D01*
X102691996Y-64045336D01*
X102670687Y-63995983D01*
X102666315Y-63987280D01*
X102642252Y-63941865D01*
X102630242Y-63923517D01*
X102612681Y-63931573D01*
X102563781Y-63955689D01*
X102495212Y-63990206D01*
X102451733Y-64009948D01*
X102289692Y-64052533D01*
X102103446Y-64060338D01*
X101899042Y-64032929D01*
X101758322Y-64002878D01*
X101512290Y-64142232D01*
X101496908Y-64151003D01*
X101270975Y-64291581D01*
X101017441Y-64469778D01*
X100736509Y-64685454D01*
X100686725Y-64724807D01*
X100604774Y-64789039D01*
X100523052Y-64852615D01*
X100491843Y-64877094D01*
X100389322Y-64965510D01*
X100322934Y-65041986D01*
X100288433Y-65114602D01*
X100281572Y-65191439D01*
X100298102Y-65280576D01*
X100299067Y-65284110D01*
X100316336Y-65349381D01*
X100328267Y-65397843D01*
X100337262Y-65427791D01*
X100361380Y-65496701D01*
X100396135Y-65590949D01*
X100437692Y-65700626D01*
X100482213Y-65815825D01*
X100525862Y-65926639D01*
X100564803Y-66023162D01*
X100595200Y-66095484D01*
X100613215Y-66133700D01*
X100604483Y-66145565D01*
X100563846Y-66151290D01*
X100550139Y-66150489D01*
X100520580Y-66139283D01*
X100491147Y-66108657D01*
X100455496Y-66050775D01*
X100407289Y-65957800D01*
X100384613Y-65912657D01*
X100344998Y-65834778D01*
X100316107Y-65779311D01*
X100303006Y-65756057D01*
X100288421Y-65756489D01*
X100240007Y-65768349D01*
X100170876Y-65789995D01*
X100119013Y-65807257D01*
X100056651Y-65827097D01*
X100022773Y-65836635D01*
X99996380Y-65843286D01*
X99936208Y-65860051D01*
X99858599Y-65882547D01*
X99791969Y-65901329D01*
X99718020Y-65920099D01*
X99670972Y-65929511D01*
X99661629Y-65930816D01*
X99602127Y-65942660D01*
X99530252Y-65960383D01*
X99475508Y-65972797D01*
X99385871Y-65990154D01*
X99271457Y-66010682D01*
X99141134Y-66032951D01*
X99003771Y-66055531D01*
X98868237Y-66076992D01*
X98743400Y-66095903D01*
X98638128Y-66110834D01*
X98561291Y-66120354D01*
X98521757Y-66123033D01*
X98491911Y-66123211D01*
X98422594Y-66128151D01*
X98339993Y-66137256D01*
X98326655Y-66138938D01*
X98253304Y-66145247D01*
X98215780Y-66140450D01*
X98205306Y-66123661D01*
X98207407Y-66117102D01*
X98240313Y-66091323D01*
X98304133Y-66062327D01*
X98387201Y-66034224D01*
X98477852Y-66011124D01*
X98564421Y-65997137D01*
X98613319Y-65990685D01*
X98707692Y-65973987D01*
X98803197Y-65953253D01*
X98867915Y-65937744D01*
X98947957Y-65919000D01*
X99002551Y-65906739D01*
X99054006Y-65895485D01*
X99134258Y-65877554D01*
X99225358Y-65856950D01*
X99226543Y-65856681D01*
X99315226Y-65836649D01*
X99390592Y-65819880D01*
X99436438Y-65809979D01*
X99521521Y-65791689D01*
X99624357Y-65767826D01*
X99714980Y-65745130D01*
X99776512Y-65727686D01*
X99840497Y-65709526D01*
X99910719Y-65693973D01*
X99967629Y-65685231D01*
X99995324Y-65686308D01*
X100005133Y-65686108D01*
X100036758Y-65666731D01*
X100042040Y-65662891D01*
X100091886Y-65640626D01*
X100159036Y-65622814D01*
X100200500Y-65613335D01*
X100233181Y-65595293D01*
X100232980Y-65567945D01*
X100202329Y-65478923D01*
X100168422Y-65333607D01*
X100153881Y-65198422D01*
X100153336Y-65158367D01*
X100157046Y-65114527D01*
X100171157Y-65076142D01*
X100201398Y-65033594D01*
X100253502Y-64977268D01*
X100333200Y-64897547D01*
X100429093Y-64802715D01*
X100536489Y-64697797D01*
X100624028Y-64614611D01*
X100699215Y-64546401D01*
X100769556Y-64486406D01*
X100842558Y-64427868D01*
X100925727Y-64364029D01*
X100963446Y-64335952D01*
X101085915Y-64249147D01*
X101217027Y-64161128D01*
X101334190Y-64087206D01*
X101408747Y-64042737D01*
X101471898Y-64002670D01*
X101501592Y-63973728D01*
X101495657Y-63950614D01*
X101451919Y-63928030D01*
X101368207Y-63900678D01*
X101242348Y-63863262D01*
X101205019Y-63851935D01*
X101096259Y-63817485D01*
X100997277Y-63784260D01*
X100925727Y-63758121D01*
X100869252Y-63737516D01*
X100770319Y-63705731D01*
X100671302Y-63677745D01*
X100597280Y-63657416D01*
X100525909Y-63635209D01*
X100483675Y-63618854D01*
X100426309Y-63592792D01*
X100324559Y-63555361D01*
X100183270Y-63509856D01*
X99999319Y-63455220D01*
X99833800Y-63402967D01*
X99666361Y-63340463D01*
X99519734Y-63275561D01*
X99402337Y-63212010D01*
X99322586Y-63153564D01*
X99246056Y-63072825D01*
X99147336Y-62949082D01*
X99051722Y-62810612D01*
X98970645Y-62673025D01*
X98962647Y-62657912D01*
X98923935Y-62583601D01*
X98896337Y-62528698D01*
X98885386Y-62504165D01*
X98877030Y-62477894D01*
X98849909Y-62413187D01*
X98807743Y-62320366D01*
X98754228Y-62206974D01*
X98693058Y-62080553D01*
X98627928Y-61948645D01*
X98562535Y-61818792D01*
X98500572Y-61698536D01*
X98445735Y-61595419D01*
X98401720Y-61516983D01*
X98345705Y-61421284D01*
X98288749Y-61322349D01*
X98250022Y-61252323D01*
X98226004Y-61204784D01*
X98213170Y-61173312D01*
X98203185Y-61151303D01*
X98182194Y-61132269D01*
X98176285Y-61137600D01*
X98151127Y-61176847D01*
X98110688Y-61248924D01*
X98058144Y-61347489D01*
X97996672Y-61466198D01*
X97929447Y-61598708D01*
X97859647Y-61738677D01*
X97790448Y-61879761D01*
X97725027Y-62015617D01*
X97666559Y-62139903D01*
X97618222Y-62246275D01*
X97583192Y-62328391D01*
X97565144Y-62372724D01*
X97511174Y-62498127D01*
X97467377Y-62588160D01*
X97435325Y-62639788D01*
X97416593Y-62649973D01*
X97416170Y-62645111D01*
X97424446Y-62606644D01*
X97443297Y-62539849D01*
X97469127Y-62456163D01*
X97498334Y-62367022D01*
X97527322Y-62283862D01*
X97552491Y-62218118D01*
X97572394Y-62168660D01*
X97582495Y-62140764D01*
X97582727Y-62139985D01*
X97595167Y-62111156D01*
X97622117Y-62052813D01*
X97658209Y-61976590D01*
X97695168Y-61898405D01*
X97746304Y-61788852D01*
X97803472Y-61665380D01*
X97859834Y-61542703D01*
X97912439Y-61427709D01*
X97971992Y-61297579D01*
X98026679Y-61178134D01*
X98069182Y-61085362D01*
X98124937Y-60975261D01*
X98143982Y-60942056D01*
X98273224Y-60942056D01*
X98324706Y-61043026D01*
X98335286Y-61063358D01*
X98385727Y-61154042D01*
X98436324Y-61237809D01*
X98476124Y-61305037D01*
X98532125Y-61407321D01*
X98598097Y-61532846D01*
X98669069Y-61671758D01*
X98740072Y-61814204D01*
X98806136Y-61950332D01*
X98862291Y-62070287D01*
X98903568Y-62164217D01*
X98949694Y-62272949D01*
X99040964Y-62470776D01*
X99123341Y-62623922D01*
X99197263Y-62733236D01*
X99312246Y-62857598D01*
X99469775Y-62992132D01*
X99648417Y-63116187D01*
X99835146Y-63219824D01*
X99900085Y-63250599D01*
X100087865Y-63334268D01*
X100294242Y-63419829D01*
X100510506Y-63504140D01*
X100727944Y-63584059D01*
X100937846Y-63656442D01*
X101131502Y-63718150D01*
X101300198Y-63766039D01*
X101435226Y-63796967D01*
X101485242Y-63809350D01*
X101552493Y-63831403D01*
X101600066Y-63847744D01*
X101623804Y-63852504D01*
X101628949Y-63852184D01*
X101667364Y-63856674D01*
X101729344Y-63866986D01*
X101754287Y-63871282D01*
X101814596Y-63879344D01*
X101847772Y-63880217D01*
X101854660Y-63879775D01*
X101898334Y-63886001D01*
X101961866Y-63900895D01*
X102023759Y-63912578D01*
X102119893Y-63922389D01*
X102219787Y-63925962D01*
X102233112Y-63925889D01*
X102306127Y-63923171D01*
X102368066Y-63913706D01*
X102431980Y-63893539D01*
X102510917Y-63858715D01*
X102617926Y-63805279D01*
X102702904Y-63763095D01*
X102783823Y-63725670D01*
X102840917Y-63702464D01*
X102865362Y-63697327D01*
X102866474Y-63699599D01*
X102853691Y-63725836D01*
X102816662Y-63765996D01*
X102755747Y-63822450D01*
X102824710Y-63964815D01*
X102854416Y-64026843D01*
X102926644Y-64186867D01*
X102977701Y-64317969D01*
X103010494Y-64428170D01*
X103027929Y-64525488D01*
X103033268Y-64566879D01*
X103046592Y-64626624D01*
X103070909Y-64678056D01*
X103113664Y-64734949D01*
X103182303Y-64811076D01*
X103204114Y-64834918D01*
X103267718Y-64909212D01*
X103316869Y-64973601D01*
X103342372Y-65016293D01*
X103365852Y-65059137D01*
X103394607Y-65066510D01*
X103433699Y-65035739D01*
X103488491Y-64964940D01*
X103511143Y-64935752D01*
X103581454Y-64863516D01*
X103666376Y-64792911D01*
X103754387Y-64732221D01*
X103833962Y-64689732D01*
X103893576Y-64673728D01*
X103931769Y-64666948D01*
X103984377Y-64637213D01*
X104003104Y-64613155D01*
X104045447Y-64539642D01*
X104101198Y-64426039D01*
X104169102Y-64274957D01*
X104247902Y-64089007D01*
X104265569Y-64046677D01*
X104304384Y-63956003D01*
X104336829Y-63883228D01*
X104357265Y-63841133D01*
X104373846Y-63810033D01*
X104386294Y-63782500D01*
X104391600Y-63766622D01*
X104408080Y-63723866D01*
X104410209Y-63718532D01*
X104429752Y-63668026D01*
X104459148Y-63590723D01*
X104492901Y-63501059D01*
X104497687Y-63488299D01*
X104533187Y-63394414D01*
X104565180Y-63310998D01*
X104587248Y-63254799D01*
X104588472Y-63251765D01*
X104608350Y-63200439D01*
X104617668Y-63172505D01*
X104619517Y-63167702D01*
X104637495Y-63129509D01*
X104671455Y-63060308D01*
X104717561Y-62967871D01*
X104771975Y-62859968D01*
X104855031Y-62704495D01*
X104955015Y-62544127D01*
X105056121Y-62415250D01*
X105164744Y-62309927D01*
X105287276Y-62220220D01*
X105305428Y-62208541D01*
X105365611Y-62167145D01*
X105402099Y-62130111D01*
X105416059Y-62087893D01*
X105408660Y-62030942D01*
X105381071Y-61949711D01*
X105334459Y-61834652D01*
X105333219Y-61831635D01*
X105294883Y-61729281D01*
X105256930Y-61612944D01*
X105222523Y-61494226D01*
X105194825Y-61384726D01*
X105177001Y-61296046D01*
X105172215Y-61239784D01*
X105172571Y-61234571D01*
X105174144Y-61174446D01*
X105174071Y-61167449D01*
X105241148Y-61167449D01*
X105252874Y-61179176D01*
X105264601Y-61167449D01*
X105252874Y-61155722D01*
X105241148Y-61167449D01*
X105174071Y-61167449D01*
X105173383Y-61101464D01*
X105170787Y-61012027D01*
X105012426Y-61153811D01*
X105001379Y-61163605D01*
X104900798Y-61246959D01*
X104789616Y-61331340D01*
X104689942Y-61399879D01*
X104665787Y-61415314D01*
X104591229Y-61464125D01*
X104535179Y-61502577D01*
X104508278Y-61523432D01*
X104500544Y-61534817D01*
X104473534Y-61582151D01*
X104434288Y-61655427D01*
X104388369Y-61744391D01*
X104343082Y-61831127D01*
X104246890Y-62003266D01*
X104140554Y-62180744D01*
X104028636Y-62356866D01*
X103915695Y-62524933D01*
X103806295Y-62678249D01*
X103704996Y-62810116D01*
X103616360Y-62913836D01*
X103544948Y-62982714D01*
X103523362Y-62998935D01*
X103513395Y-62996667D01*
X103526254Y-62957263D01*
X103533439Y-62941088D01*
X103564826Y-62882171D01*
X103611501Y-62802096D01*
X103666278Y-62713374D01*
X103705284Y-62651907D01*
X103756322Y-62571166D01*
X103800382Y-62500779D01*
X103843691Y-62430633D01*
X103892477Y-62350616D01*
X103952967Y-62250618D01*
X104031390Y-62120524D01*
X104032100Y-62119346D01*
X104100472Y-62006737D01*
X104168159Y-61896765D01*
X104227382Y-61801981D01*
X104270362Y-61734935D01*
X104305566Y-61679351D01*
X104333461Y-61630151D01*
X104341288Y-61608340D01*
X104335298Y-61607617D01*
X104296755Y-61615977D01*
X104236311Y-61635226D01*
X104208103Y-61644789D01*
X104158483Y-61659068D01*
X104138839Y-61660566D01*
X104138330Y-61659681D01*
X104113427Y-61661817D01*
X104062616Y-61675458D01*
X104034966Y-61683670D01*
X103925575Y-61709779D01*
X103800505Y-61732105D01*
X103668574Y-61749919D01*
X103538603Y-61762490D01*
X103419411Y-61769085D01*
X103319815Y-61768976D01*
X103248637Y-61761431D01*
X103214695Y-61745719D01*
X103215094Y-61726269D01*
X103252838Y-61693330D01*
X103331227Y-61655790D01*
X103446965Y-61615498D01*
X103601894Y-61564153D01*
X103744206Y-61506011D01*
X103870378Y-61438665D01*
X103991671Y-61355183D01*
X104119349Y-61248631D01*
X104264675Y-61112074D01*
X104310272Y-61065704D01*
X104391979Y-60975323D01*
X104476933Y-60874098D01*
X104559369Y-60769652D01*
X104633521Y-60669609D01*
X104693625Y-60581593D01*
X104733916Y-60513227D01*
X104748627Y-60472134D01*
X104748145Y-60470662D01*
X104725384Y-60475994D01*
X104675339Y-60502843D01*
X104607408Y-60546273D01*
X104570760Y-60570306D01*
X104464155Y-60633617D01*
X104347788Y-60695505D01*
X104233948Y-60749958D01*
X104134923Y-60790968D01*
X104063003Y-60812523D01*
X104014758Y-60823815D01*
X103975602Y-60838523D01*
X103943548Y-60850636D01*
X103887265Y-60862894D01*
X103886416Y-60863025D01*
X103829876Y-60871824D01*
X103745392Y-60885107D01*
X103650919Y-60900051D01*
X103586561Y-60909048D01*
X103488177Y-60914676D01*
X103428112Y-60903715D01*
X103412292Y-60896013D01*
X103399323Y-60882893D01*
X103420692Y-60870475D01*
X103482145Y-60853409D01*
X103500974Y-60848331D01*
X103595348Y-60817117D01*
X103681498Y-60781323D01*
X103730738Y-60758107D01*
X103821060Y-60716896D01*
X103912602Y-60676345D01*
X103988717Y-60640811D01*
X104222219Y-60499069D01*
X104434589Y-60319395D01*
X104621312Y-60106706D01*
X104777872Y-59865915D01*
X104899756Y-59601936D01*
X104903868Y-59590892D01*
X104929191Y-59516321D01*
X104942833Y-59463721D01*
X104941916Y-59443880D01*
X104941218Y-59443987D01*
X104920582Y-59465434D01*
X104885247Y-59516895D01*
X104842440Y-59587906D01*
X104818957Y-59627587D01*
X104677560Y-59819511D01*
X104502676Y-59986849D01*
X104290723Y-60132593D01*
X104038119Y-60259736D01*
X104035133Y-60261025D01*
X103931407Y-60299975D01*
X103819662Y-60332799D01*
X103710313Y-60357498D01*
X103613772Y-60372074D01*
X103540454Y-60374529D01*
X103500773Y-60362863D01*
X103499893Y-60361931D01*
X103504103Y-60339358D01*
X103550728Y-60315535D01*
X103555134Y-60313959D01*
X103603116Y-60290620D01*
X103622865Y-60269223D01*
X103623163Y-60267746D01*
X103646921Y-60245642D01*
X103701202Y-60210989D01*
X103775450Y-60170610D01*
X103810549Y-60151107D01*
X103886059Y-60100841D01*
X103963480Y-60040854D01*
X104034728Y-59978447D01*
X104091720Y-59920924D01*
X104126375Y-59875587D01*
X104130609Y-59849739D01*
X104116382Y-59851962D01*
X104075084Y-59877123D01*
X104019044Y-59921144D01*
X103912245Y-60000043D01*
X103755866Y-60090623D01*
X103577034Y-60174900D01*
X103387618Y-60248341D01*
X103199487Y-60306411D01*
X103024510Y-60344578D01*
X102874555Y-60358308D01*
X102872917Y-60358307D01*
X102788229Y-60355143D01*
X102729902Y-60346844D01*
X102708184Y-60334854D01*
X102712509Y-60323765D01*
X102744344Y-60311401D01*
X102780138Y-60300300D01*
X102828055Y-60267101D01*
X102877132Y-60234271D01*
X102945620Y-60208798D01*
X103014463Y-60185499D01*
X103111505Y-60139341D01*
X103225576Y-60076451D01*
X103346469Y-60002767D01*
X103463978Y-59924228D01*
X103567897Y-59846771D01*
X103643440Y-59782938D01*
X103829478Y-59592079D01*
X104003264Y-59361539D01*
X104004791Y-59359250D01*
X104044252Y-59293202D01*
X104093033Y-59202146D01*
X104145852Y-59097121D01*
X104197430Y-58989167D01*
X104242485Y-58889324D01*
X104275736Y-58808633D01*
X104291902Y-58758132D01*
X104301531Y-58709067D01*
X104317471Y-58630847D01*
X104336220Y-58540671D01*
X104341921Y-58511691D01*
X104356212Y-58424175D01*
X104369422Y-58324853D01*
X104380646Y-58223434D01*
X104388977Y-58129628D01*
X104393507Y-58053145D01*
X104393331Y-58003693D01*
X104387542Y-57990984D01*
X104385667Y-57993146D01*
X104363185Y-58024299D01*
X104323739Y-58082051D01*
X104274522Y-58155905D01*
X104214216Y-58244274D01*
X104143243Y-58343065D01*
X104081256Y-58424490D01*
X104058465Y-58451972D01*
X103971680Y-58546127D01*
X103864218Y-58651999D01*
X103746460Y-58760245D01*
X103628789Y-58861523D01*
X103521588Y-58946490D01*
X103435238Y-59005805D01*
X103359633Y-59056080D01*
X103313822Y-59102200D01*
X103294518Y-59149983D01*
X103288186Y-59177296D01*
X103262897Y-59219744D01*
X103229269Y-59217045D01*
X103192154Y-59168328D01*
X103168161Y-59131667D01*
X103114674Y-59067497D01*
X103050582Y-59002659D01*
X103039414Y-58992395D01*
X102981531Y-58942965D01*
X102933679Y-58916609D01*
X102876885Y-58906096D01*
X102792178Y-58904199D01*
X102717628Y-58906815D01*
X102656055Y-58914420D01*
X102627570Y-58925268D01*
X102626287Y-58931624D01*
X102641434Y-58967513D01*
X102678956Y-59015825D01*
X102710976Y-59056094D01*
X102771102Y-59171780D01*
X102810995Y-59310028D01*
X102825450Y-59455218D01*
X102824068Y-59489941D01*
X102799238Y-59616054D01*
X102748658Y-59737874D01*
X102679351Y-59841273D01*
X102598337Y-59912127D01*
X102574577Y-59925246D01*
X102514350Y-59951081D01*
X102468453Y-59961218D01*
X102450196Y-59952069D01*
X102462187Y-59936013D01*
X102498855Y-59894861D01*
X102551593Y-59838715D01*
X102605951Y-59774809D01*
X102671655Y-59656130D01*
X102702114Y-59520638D01*
X102700430Y-59358323D01*
X102697427Y-59331151D01*
X102676286Y-59220164D01*
X102644089Y-59116980D01*
X102605050Y-59031285D01*
X102563382Y-58972765D01*
X102523299Y-58951105D01*
X102520016Y-58951214D01*
X102464030Y-58966904D01*
X102379829Y-59005597D01*
X102275673Y-59062169D01*
X102159823Y-59131499D01*
X102040539Y-59208464D01*
X101926083Y-59287940D01*
X101824714Y-59364806D01*
X101744695Y-59433939D01*
X101735793Y-59442594D01*
X101703864Y-59481562D01*
X101691582Y-59523685D01*
X101697548Y-59582676D01*
X101720362Y-59672245D01*
X101747264Y-59735463D01*
X101808993Y-59827342D01*
X101887638Y-59912582D01*
X101969402Y-59974440D01*
X101995344Y-59995629D01*
X101998958Y-60019153D01*
X101977763Y-60023530D01*
X101926586Y-60010321D01*
X101861973Y-59981557D01*
X101798065Y-59943779D01*
X101749002Y-59903529D01*
X101740206Y-59893645D01*
X101685168Y-59807243D01*
X101644929Y-59704127D01*
X101629328Y-59608553D01*
X101629326Y-59607173D01*
X101625887Y-59557876D01*
X101617864Y-59537440D01*
X101611733Y-59539706D01*
X101575656Y-59562864D01*
X101518802Y-59604231D01*
X101452097Y-59655334D01*
X101386464Y-59707701D01*
X101332831Y-59752856D01*
X101302121Y-59782327D01*
X101298915Y-59786019D01*
X101259292Y-59813422D01*
X101223036Y-59816004D01*
X101207168Y-59792027D01*
X101209273Y-59786295D01*
X101235465Y-59750523D01*
X101286897Y-59690875D01*
X101357624Y-59614073D01*
X101441702Y-59526839D01*
X101473866Y-59493991D01*
X101553547Y-59411096D01*
X101617771Y-59342077D01*
X101660635Y-59293364D01*
X101676235Y-59271389D01*
X101667817Y-59272512D01*
X101628418Y-59294039D01*
X101563445Y-59334818D01*
X101480279Y-59389926D01*
X101386303Y-59454443D01*
X101288896Y-59523445D01*
X101195441Y-59592010D01*
X101171556Y-59611181D01*
X101107495Y-59667245D01*
X101023097Y-59744740D01*
X100926552Y-59836090D01*
X100826051Y-59933718D01*
X100757712Y-60000432D01*
X100675215Y-60079176D01*
X100609545Y-60139723D01*
X100566149Y-60177084D01*
X100550473Y-60186266D01*
X100550492Y-60185534D01*
X100566425Y-60148018D01*
X100607453Y-60085786D01*
X100666690Y-60007905D01*
X100737251Y-59923447D01*
X100812248Y-59841479D01*
X100828525Y-59824703D01*
X100956046Y-59700340D01*
X101094567Y-59578215D01*
X101249271Y-59454507D01*
X101425340Y-59325395D01*
X101627959Y-59187058D01*
X101862310Y-59035675D01*
X102131008Y-58869019D01*
X102309476Y-58869019D01*
X102321203Y-58880745D01*
X102329785Y-58872164D01*
X102407438Y-58872164D01*
X102426743Y-58880745D01*
X102439159Y-58879053D01*
X102440750Y-58872164D01*
X102993773Y-58872164D01*
X103013077Y-58880745D01*
X103025493Y-58879053D01*
X103027810Y-58869019D01*
X103071711Y-58869019D01*
X103076161Y-58893207D01*
X103101027Y-58921789D01*
X103121369Y-58914682D01*
X103130344Y-58869019D01*
X103123834Y-58827793D01*
X103101027Y-58816249D01*
X103085547Y-58827936D01*
X103079610Y-58845565D01*
X103073027Y-58865110D01*
X103071711Y-58869019D01*
X103027810Y-58869019D01*
X103028713Y-58865110D01*
X103025275Y-58862303D01*
X102997442Y-58865110D01*
X102993773Y-58872164D01*
X102440750Y-58872164D01*
X102442379Y-58865110D01*
X102438941Y-58862303D01*
X102411107Y-58865110D01*
X102409074Y-58869019D01*
X102407438Y-58872164D01*
X102329785Y-58872164D01*
X102332930Y-58869019D01*
X102321203Y-58857292D01*
X102309476Y-58869019D01*
X102131008Y-58869019D01*
X102133576Y-58867426D01*
X102168705Y-58845565D01*
X102919264Y-58845565D01*
X102930991Y-58857292D01*
X102942717Y-58845565D01*
X102930991Y-58833839D01*
X102919264Y-58845565D01*
X102168705Y-58845565D01*
X102184592Y-58835678D01*
X102532520Y-58835678D01*
X102566181Y-58842370D01*
X102618351Y-58838827D01*
X102664713Y-58826439D01*
X102684730Y-58808827D01*
X102677115Y-58794040D01*
X102640541Y-58791429D01*
X102608491Y-58798659D01*
X102567700Y-58807861D01*
X102533944Y-58822224D01*
X102532520Y-58835678D01*
X102184592Y-58835678D01*
X102224255Y-58810995D01*
X102243313Y-58798659D01*
X102426743Y-58798659D01*
X102438470Y-58810385D01*
X102450196Y-58798659D01*
X102438470Y-58786932D01*
X102426743Y-58798659D01*
X102243313Y-58798659D01*
X102297664Y-58763478D01*
X102461923Y-58763478D01*
X102466737Y-58770497D01*
X102486761Y-58786932D01*
X102489101Y-58786322D01*
X102493160Y-58774734D01*
X102783555Y-58774734D01*
X102786361Y-58802567D01*
X102793416Y-58806237D01*
X102796784Y-58798659D01*
X102848904Y-58798659D01*
X102859072Y-58808827D01*
X102860630Y-58810385D01*
X102872357Y-58798659D01*
X102860630Y-58786932D01*
X102848904Y-58798659D01*
X102796784Y-58798659D01*
X102801997Y-58786932D01*
X102800304Y-58774516D01*
X102786361Y-58771296D01*
X102783555Y-58774734D01*
X102493160Y-58774734D01*
X102497103Y-58763478D01*
X102496149Y-58757050D01*
X102472266Y-58740025D01*
X102463783Y-58741867D01*
X102461923Y-58763478D01*
X102297664Y-58763478D01*
X102368410Y-58717684D01*
X102385398Y-58706229D01*
X102497103Y-58706229D01*
X102497713Y-58708570D01*
X102520557Y-58716572D01*
X102526985Y-58715617D01*
X102544010Y-58691734D01*
X102542168Y-58683251D01*
X102520557Y-58681392D01*
X102590917Y-58681392D01*
X102590961Y-58683149D01*
X102597413Y-58691734D01*
X102609693Y-58708072D01*
X102651185Y-58710980D01*
X102674195Y-58702929D01*
X102855103Y-58702929D01*
X102857745Y-58712689D01*
X102900035Y-58704257D01*
X102930458Y-58697999D01*
X102953555Y-58704149D01*
X102950070Y-58737894D01*
X102947816Y-58763478D01*
X102947396Y-58768243D01*
X102963435Y-58786932D01*
X102970919Y-58786457D01*
X102992556Y-58775205D01*
X102993215Y-58772510D01*
X102993616Y-58751752D01*
X103130344Y-58751752D01*
X103142071Y-58763478D01*
X103153798Y-58751752D01*
X103142071Y-58740025D01*
X103130344Y-58751752D01*
X102993616Y-58751752D01*
X102994328Y-58714842D01*
X102976026Y-58693118D01*
X103036531Y-58693118D01*
X103037485Y-58699547D01*
X103058941Y-58714842D01*
X103061368Y-58716572D01*
X103069851Y-58714730D01*
X103071711Y-58693118D01*
X103066897Y-58686100D01*
X103046873Y-58669665D01*
X103044533Y-58670275D01*
X103036531Y-58693118D01*
X102976026Y-58693118D01*
X102958805Y-58672676D01*
X102946954Y-58664406D01*
X102911834Y-58653856D01*
X102876047Y-58680083D01*
X102855103Y-58702929D01*
X102674195Y-58702929D01*
X102698982Y-58694256D01*
X102736625Y-58660285D01*
X102765858Y-58645319D01*
X102829716Y-58635040D01*
X102913501Y-58631098D01*
X103003366Y-58633568D01*
X103085465Y-58642526D01*
X103145951Y-58658048D01*
X103221698Y-58689697D01*
X103434862Y-58465643D01*
X103437150Y-58463237D01*
X103525575Y-58369162D01*
X103609601Y-58277861D01*
X103679832Y-58199656D01*
X103726872Y-58144870D01*
X103761971Y-58100436D01*
X103822757Y-58019054D01*
X103886324Y-57929897D01*
X103946503Y-57842037D01*
X103997125Y-57764546D01*
X104032022Y-57706497D01*
X104045026Y-57676962D01*
X104041581Y-57675504D01*
X104013861Y-57694342D01*
X103964385Y-57737957D01*
X103900426Y-57800151D01*
X103807363Y-57888385D01*
X103645133Y-58025533D01*
X103461621Y-58165777D01*
X103269663Y-58299870D01*
X103082093Y-58418562D01*
X102911747Y-58512604D01*
X102899754Y-58518580D01*
X102797644Y-58568366D01*
X102710652Y-58608923D01*
X102647664Y-58636217D01*
X102617565Y-58646212D01*
X102605266Y-58650208D01*
X102590917Y-58681392D01*
X102520557Y-58681392D01*
X102513538Y-58686205D01*
X102497103Y-58706229D01*
X102385398Y-58706229D01*
X102509308Y-58622679D01*
X102634525Y-58534416D01*
X102731637Y-58461333D01*
X102734094Y-58459379D01*
X102851341Y-58361230D01*
X102983126Y-58243022D01*
X103120996Y-58113071D01*
X103256496Y-57979696D01*
X103381171Y-57851214D01*
X103486567Y-57735942D01*
X103564232Y-57642199D01*
X103608945Y-57583831D01*
X103677080Y-57496079D01*
X103735038Y-57422674D01*
X103763549Y-57384567D01*
X103792410Y-57336775D01*
X103797623Y-57312136D01*
X103794415Y-57310707D01*
X103769062Y-57326041D01*
X103733505Y-57368046D01*
X103697451Y-57414878D01*
X103613688Y-57510396D01*
X103504755Y-57624391D01*
X103377747Y-57750182D01*
X103239758Y-57881091D01*
X103097885Y-58010438D01*
X102959223Y-58131542D01*
X102830866Y-58237724D01*
X102719910Y-58322303D01*
X102712852Y-58327317D01*
X102629034Y-58383494D01*
X102516758Y-58454665D01*
X102387386Y-58533954D01*
X102252281Y-58614483D01*
X102122808Y-58689376D01*
X102010328Y-58751754D01*
X101990166Y-58762452D01*
X101917806Y-58797456D01*
X101881857Y-58808745D01*
X101880591Y-58798858D01*
X101912282Y-58770335D01*
X101975202Y-58725712D01*
X102067624Y-58667530D01*
X102117573Y-58637102D01*
X102368419Y-58473583D01*
X102622480Y-58291571D01*
X102872125Y-58097431D01*
X103109725Y-57897533D01*
X103327649Y-57698244D01*
X103518269Y-57505930D01*
X103673954Y-57326960D01*
X103699437Y-57294133D01*
X103727337Y-57252486D01*
X103724870Y-57243191D01*
X103693552Y-57265349D01*
X103634895Y-57318059D01*
X103550415Y-57400420D01*
X103516220Y-57433417D01*
X103378077Y-57551484D01*
X103200943Y-57684635D01*
X102988131Y-57830657D01*
X102742954Y-57987334D01*
X102468725Y-58152454D01*
X102168756Y-58323802D01*
X102098885Y-58363398D01*
X101990583Y-58426886D01*
X101887901Y-58489252D01*
X101802639Y-58543286D01*
X101746595Y-58581778D01*
X101735620Y-58590111D01*
X101681081Y-58631981D01*
X101606410Y-58689707D01*
X101524409Y-58753398D01*
X101491200Y-58778976D01*
X101420949Y-58831091D01*
X101368487Y-58867226D01*
X101343254Y-58880745D01*
X101343094Y-58867364D01*
X101361850Y-58823853D01*
X101396470Y-58760637D01*
X101426863Y-58705652D01*
X101450771Y-58653365D01*
X101455283Y-58628522D01*
X101448082Y-58628012D01*
X101413092Y-58646127D01*
X101362335Y-58684134D01*
X101326017Y-58713642D01*
X101247556Y-58774631D01*
X101168057Y-58833839D01*
X101063386Y-58911747D01*
X100858270Y-59074020D01*
X100632560Y-59263558D01*
X100628140Y-59267382D01*
X100565679Y-59323534D01*
X100482691Y-59400908D01*
X100384122Y-59494627D01*
X100274922Y-59599815D01*
X100160038Y-59711595D01*
X100044418Y-59825091D01*
X99933010Y-59935426D01*
X99830763Y-60037725D01*
X99742625Y-60127110D01*
X99673542Y-60198705D01*
X99628464Y-60247633D01*
X99612339Y-60269019D01*
X99620727Y-60281194D01*
X99655706Y-60302404D01*
X99723304Y-60333696D01*
X99829282Y-60377962D01*
X99851940Y-60390367D01*
X99884196Y-60424289D01*
X99897017Y-60459689D01*
X99887498Y-60483567D01*
X99852736Y-60482924D01*
X99830341Y-60473538D01*
X99782376Y-60445609D01*
X99773929Y-60439098D01*
X99759137Y-60430491D01*
X99756357Y-60441573D01*
X99766074Y-60480757D01*
X99788774Y-60556458D01*
X99795723Y-60581635D01*
X99807689Y-60697471D01*
X99782885Y-60793062D01*
X99722592Y-60862482D01*
X99674330Y-60891135D01*
X99639609Y-60897472D01*
X99637343Y-60873612D01*
X99671410Y-60822577D01*
X99676176Y-60816866D01*
X99712880Y-60763491D01*
X99726622Y-60709848D01*
X99723677Y-60633203D01*
X99715141Y-60584332D01*
X99692963Y-60514582D01*
X99664236Y-60453312D01*
X99635033Y-60412839D01*
X99611426Y-60405482D01*
X99591327Y-60403545D01*
X99547898Y-60384929D01*
X99543718Y-60382788D01*
X99469593Y-60358718D01*
X99357109Y-60338276D01*
X99214070Y-60322018D01*
X99048280Y-60310496D01*
X98867543Y-60304267D01*
X98679662Y-60303885D01*
X98492440Y-60309905D01*
X98469637Y-60321021D01*
X98467213Y-60360599D01*
X98492319Y-60431490D01*
X98545620Y-60536528D01*
X98552034Y-60548260D01*
X98588894Y-60618425D01*
X98612327Y-60667917D01*
X98617507Y-60686655D01*
X98594877Y-60680759D01*
X98547343Y-60664012D01*
X98530746Y-60658371D01*
X98501915Y-60656679D01*
X98473079Y-60673889D01*
X98435517Y-60716675D01*
X98380507Y-60791713D01*
X98273224Y-60942056D01*
X98143982Y-60942056D01*
X98194748Y-60853543D01*
X98263028Y-60747540D01*
X98318492Y-60665128D01*
X98349105Y-60609750D01*
X98357920Y-60573677D01*
X98348684Y-60548186D01*
X98337034Y-60531762D01*
X98300475Y-60477728D01*
X98257269Y-60411819D01*
X98233694Y-60377048D01*
X98197343Y-60330642D01*
X98175239Y-60312142D01*
X98156812Y-60327673D01*
X98134250Y-60371419D01*
X98118662Y-60409736D01*
X98086912Y-60483063D01*
X98050026Y-60564909D01*
X97970383Y-60747580D01*
X97875682Y-60994852D01*
X97799693Y-61231172D01*
X97747026Y-61443174D01*
X97746978Y-61443413D01*
X97737414Y-61484069D01*
X97719644Y-61555000D01*
X97697485Y-61641332D01*
X97674755Y-61728187D01*
X97655271Y-61800690D01*
X97653181Y-61809317D01*
X97643338Y-61857190D01*
X97630734Y-61924340D01*
X97629677Y-61930052D01*
X97608687Y-62005396D01*
X97582904Y-62042972D01*
X97555346Y-62038219D01*
X97555965Y-62012985D01*
X97566278Y-61949982D01*
X97584591Y-61857232D01*
X97609115Y-61742672D01*
X97638060Y-61614240D01*
X97669637Y-61479873D01*
X97702055Y-61347510D01*
X97733526Y-61225087D01*
X97762259Y-61120542D01*
X97763828Y-61115089D01*
X97788075Y-61029731D01*
X97807283Y-60960235D01*
X97817415Y-60921189D01*
X97833834Y-60866233D01*
X97869287Y-60772158D01*
X97916664Y-60659491D01*
X97970471Y-60540723D01*
X98025211Y-60428346D01*
X98075387Y-60334854D01*
X98090789Y-60307812D01*
X98137772Y-60221132D01*
X98140718Y-60215203D01*
X98279465Y-60215203D01*
X98308145Y-60270357D01*
X98322943Y-60287303D01*
X98367684Y-60310818D01*
X98402314Y-60292793D01*
X98416217Y-60236551D01*
X98417223Y-60229671D01*
X98496097Y-60229671D01*
X98520373Y-60241041D01*
X98537847Y-60238170D01*
X98556937Y-60217587D01*
X98556305Y-60212023D01*
X98534868Y-60194134D01*
X98779744Y-60194134D01*
X98784551Y-60201230D01*
X98803197Y-60217587D01*
X98806590Y-60216484D01*
X98826651Y-60194134D01*
X98828529Y-60181712D01*
X98803197Y-60170681D01*
X98785313Y-60174264D01*
X98779744Y-60194134D01*
X98534868Y-60194134D01*
X98528288Y-60195029D01*
X98498304Y-60217587D01*
X98496097Y-60229671D01*
X98417223Y-60229671D01*
X98417675Y-60226577D01*
X98448529Y-60188044D01*
X98509242Y-60156781D01*
X98586254Y-60140454D01*
X98607804Y-60136001D01*
X98608370Y-60135501D01*
X98768017Y-60135501D01*
X98779744Y-60147227D01*
X98791471Y-60135501D01*
X98790999Y-60135029D01*
X98960655Y-60135029D01*
X98960703Y-60135501D01*
X98963462Y-60162863D01*
X98970516Y-60166532D01*
X98979098Y-60147227D01*
X98977405Y-60134811D01*
X98963462Y-60131592D01*
X98960655Y-60135029D01*
X98790999Y-60135029D01*
X98779744Y-60123774D01*
X98768017Y-60135501D01*
X98608370Y-60135501D01*
X98627297Y-60118783D01*
X98609955Y-60105647D01*
X98560078Y-60100463D01*
X98491758Y-60104056D01*
X98419256Y-60115609D01*
X98356830Y-60134304D01*
X98349503Y-60137438D01*
X98292413Y-60173240D01*
X98279465Y-60215203D01*
X98140718Y-60215203D01*
X98174392Y-60147426D01*
X98193768Y-60100321D01*
X98198278Y-60085659D01*
X98232682Y-59994682D01*
X98284358Y-59876898D01*
X98347729Y-59743450D01*
X98417216Y-59605478D01*
X98487241Y-59474124D01*
X98552225Y-59360528D01*
X98606590Y-59275832D01*
X98608664Y-59272891D01*
X98638458Y-59226290D01*
X98650750Y-59198659D01*
X98651074Y-59196131D01*
X98666267Y-59165806D01*
X98705502Y-59106957D01*
X98770613Y-59016948D01*
X98863436Y-58893143D01*
X98868972Y-58885821D01*
X98924016Y-58811439D01*
X98968897Y-58748132D01*
X98994360Y-58708924D01*
X98994829Y-58708097D01*
X99021805Y-58672537D01*
X99070829Y-58617300D01*
X99134197Y-58550114D01*
X99204208Y-58478706D01*
X99273157Y-58410802D01*
X99333342Y-58354132D01*
X99377061Y-58316421D01*
X99396610Y-58305398D01*
X99395610Y-58314816D01*
X99373773Y-58351917D01*
X99333137Y-58404908D01*
X99287929Y-58460212D01*
X99199158Y-58573415D01*
X99102108Y-58701777D01*
X99002084Y-58837853D01*
X98904394Y-58974194D01*
X98814344Y-59103353D01*
X98737241Y-59217883D01*
X98678392Y-59310337D01*
X98643105Y-59373266D01*
X98640680Y-59378171D01*
X98617456Y-59421730D01*
X98579403Y-59490730D01*
X98533425Y-59572620D01*
X98518884Y-59598545D01*
X98467368Y-59693657D01*
X98416314Y-59792121D01*
X98370091Y-59885012D01*
X98333067Y-59963409D01*
X98309612Y-60018389D01*
X98304094Y-60041027D01*
X98317935Y-60041949D01*
X98343869Y-60041687D01*
X98861831Y-60041687D01*
X98873557Y-60053414D01*
X98880165Y-60046806D01*
X98923793Y-60046806D01*
X98942408Y-60066937D01*
X98980879Y-60083531D01*
X99051933Y-60102584D01*
X99137737Y-60118783D01*
X99138171Y-60118865D01*
X99219654Y-60132493D01*
X99292188Y-60147012D01*
X99292987Y-60147227D01*
X99334445Y-60158385D01*
X99367062Y-60158942D01*
X99411570Y-60119531D01*
X99531603Y-59951654D01*
X99692357Y-59735084D01*
X99850296Y-59533544D01*
X100013085Y-59337902D01*
X100188393Y-59139023D01*
X100383885Y-58927773D01*
X100607228Y-58695017D01*
X100617455Y-58684496D01*
X100713322Y-58584758D01*
X100778486Y-58513936D01*
X100812069Y-58472044D01*
X100813190Y-58459094D01*
X100780970Y-58475100D01*
X100714528Y-58520076D01*
X100612985Y-58594033D01*
X100475461Y-58696986D01*
X100406045Y-58750022D01*
X100244471Y-58877651D01*
X100068322Y-59021484D01*
X99885001Y-59175133D01*
X99701909Y-59332208D01*
X99526449Y-59486321D01*
X99366023Y-59631082D01*
X99228035Y-59760102D01*
X99119885Y-59866993D01*
X99106665Y-59879656D01*
X99056331Y-59922617D01*
X98994416Y-59971186D01*
X98971697Y-59988527D01*
X98931779Y-60023943D01*
X98925581Y-60041687D01*
X98923793Y-60046806D01*
X98880165Y-60046806D01*
X98885284Y-60041687D01*
X98873557Y-60029960D01*
X98861831Y-60041687D01*
X98343869Y-60041687D01*
X98370297Y-60041420D01*
X98452062Y-60039032D01*
X98553127Y-60035027D01*
X98597240Y-60033037D01*
X98692052Y-60027574D01*
X98753358Y-60020169D01*
X98790996Y-60008205D01*
X98814807Y-59989064D01*
X98834628Y-59960127D01*
X98835698Y-59958375D01*
X98881737Y-59888670D01*
X98950137Y-59791965D01*
X99034010Y-59677440D01*
X99126467Y-59554276D01*
X99220619Y-59431651D01*
X99309580Y-59318746D01*
X99386459Y-59224740D01*
X99541665Y-59045187D01*
X99678320Y-58898401D01*
X99800743Y-58780150D01*
X99914381Y-58684867D01*
X99919874Y-58680633D01*
X100021570Y-58603805D01*
X100088695Y-58556767D01*
X100121220Y-58539804D01*
X100119115Y-58553204D01*
X100082351Y-58597254D01*
X100010899Y-58672239D01*
X99904729Y-58778447D01*
X99830017Y-58853147D01*
X99718471Y-58967849D01*
X99613380Y-59079337D01*
X99523882Y-59177865D01*
X99459115Y-59253687D01*
X99396934Y-59332049D01*
X99320029Y-59432169D01*
X99250806Y-59525582D01*
X99194668Y-59604807D01*
X99157021Y-59662365D01*
X99143271Y-59690775D01*
X99144739Y-59690678D01*
X99170292Y-59671278D01*
X99223750Y-59625792D01*
X99300051Y-59558660D01*
X99394134Y-59474318D01*
X99500935Y-59377206D01*
X99504991Y-59373496D01*
X99625033Y-59264584D01*
X99744526Y-59157752D01*
X99855007Y-59060453D01*
X99948016Y-58980141D01*
X100015091Y-58924269D01*
X100031640Y-58911052D01*
X100123525Y-58839358D01*
X100232200Y-58756706D01*
X100351641Y-58667457D01*
X100475822Y-58575968D01*
X100598719Y-58486597D01*
X100714308Y-58403702D01*
X100816563Y-58331642D01*
X100899459Y-58274775D01*
X100956973Y-58237458D01*
X100983079Y-58224051D01*
X100996372Y-58217966D01*
X101039674Y-58191843D01*
X101100313Y-58152123D01*
X101118846Y-58138607D01*
X101190198Y-58076831D01*
X101284472Y-57985196D01*
X101397006Y-57868788D01*
X101523140Y-57732695D01*
X101658213Y-57582005D01*
X101797563Y-57421804D01*
X101936529Y-57257181D01*
X102070451Y-57093223D01*
X102093966Y-57064030D01*
X102164868Y-56977706D01*
X102223292Y-56909101D01*
X102263718Y-56864589D01*
X102280628Y-56850543D01*
X102280876Y-56859084D01*
X102268307Y-56899980D01*
X102242821Y-56961150D01*
X102194975Y-57047310D01*
X102115465Y-57164685D01*
X102009054Y-57306434D01*
X101879280Y-57468430D01*
X101729681Y-57646545D01*
X101563796Y-57836653D01*
X101385162Y-58034628D01*
X101197317Y-58236343D01*
X101003799Y-58437671D01*
X100982503Y-58459094D01*
X100808148Y-58634485D01*
X100770083Y-58672235D01*
X100533130Y-58913960D01*
X100313355Y-59149777D01*
X100117526Y-59372253D01*
X99952413Y-59573959D01*
X99912866Y-59624791D01*
X99823282Y-59741252D01*
X99734919Y-59857707D01*
X99652356Y-59967973D01*
X99580169Y-60065864D01*
X99522936Y-60145197D01*
X99497719Y-60181712D01*
X99485236Y-60199788D01*
X99471646Y-60223451D01*
X99474085Y-60236115D01*
X99490115Y-60238344D01*
X99523726Y-60215101D01*
X99577950Y-60163679D01*
X99655817Y-60081369D01*
X99760358Y-59965464D01*
X99985941Y-59722888D01*
X100339579Y-59379786D01*
X100731036Y-59040433D01*
X101163288Y-58702291D01*
X101639311Y-58362822D01*
X101644478Y-58359283D01*
X101800838Y-58244823D01*
X101942348Y-58127487D01*
X102059985Y-58015248D01*
X102144726Y-57916084D01*
X102150221Y-57908786D01*
X102203314Y-57849147D01*
X102277206Y-57777155D01*
X102357676Y-57706789D01*
X102413973Y-57658178D01*
X102501792Y-57578114D01*
X102606349Y-57479728D01*
X102719053Y-57371116D01*
X102831314Y-57260375D01*
X102847139Y-57244603D01*
X102944346Y-57149674D01*
X103028562Y-57070702D01*
X103094840Y-57012088D01*
X103138234Y-56978230D01*
X103153798Y-56973529D01*
X103153452Y-56978155D01*
X103136958Y-57023548D01*
X103103361Y-57079793D01*
X103052925Y-57150624D01*
X103103361Y-57123632D01*
X103122303Y-57114487D01*
X103148754Y-57111618D01*
X103147164Y-57137904D01*
X103116881Y-57195649D01*
X103057258Y-57287156D01*
X103028076Y-57327171D01*
X102974438Y-57390462D01*
X102904658Y-57461861D01*
X102814413Y-57545311D01*
X102699379Y-57644760D01*
X102555235Y-57764151D01*
X102377658Y-57907430D01*
X102314547Y-57959205D01*
X102224074Y-58036462D01*
X102126631Y-58122226D01*
X102028278Y-58210895D01*
X101935075Y-58296864D01*
X101853081Y-58374530D01*
X101788358Y-58438290D01*
X101746966Y-58482540D01*
X101734964Y-58501677D01*
X101735025Y-58501738D01*
X101758893Y-58496391D01*
X101799458Y-58467288D01*
X101803214Y-58464064D01*
X101848345Y-58429483D01*
X101912682Y-58384189D01*
X101984740Y-58335762D01*
X102053034Y-58291785D01*
X102106079Y-58259838D01*
X102132391Y-58247504D01*
X102147303Y-58240653D01*
X102195492Y-58213830D01*
X102268117Y-58171428D01*
X102356383Y-58118511D01*
X102425210Y-58077157D01*
X102502398Y-58031846D01*
X102557257Y-58000944D01*
X102580964Y-57989517D01*
X102581869Y-57989424D01*
X102609646Y-57975512D01*
X102656363Y-57945150D01*
X102699721Y-57915909D01*
X102772884Y-57867699D01*
X102865132Y-57807561D01*
X102966171Y-57742236D01*
X103015322Y-57710378D01*
X103225773Y-57568138D01*
X103398287Y-57441000D01*
X103531204Y-57330240D01*
X103622865Y-57237135D01*
X103650542Y-57204393D01*
X103714774Y-57129408D01*
X103769449Y-57066748D01*
X103783152Y-57050610D01*
X103819405Y-56999356D01*
X103833945Y-56964069D01*
X103835940Y-56952635D01*
X103860133Y-56934116D01*
X103874969Y-56947727D01*
X103875112Y-56992749D01*
X103873529Y-57031916D01*
X103886840Y-57051382D01*
X103898169Y-57060924D01*
X103897510Y-57098289D01*
X103894437Y-57126518D01*
X103906501Y-57145196D01*
X103915377Y-57142227D01*
X103927759Y-57112888D01*
X103934902Y-57088437D01*
X103966829Y-57048391D01*
X103988067Y-57032598D01*
X103998206Y-57037693D01*
X103989811Y-57080798D01*
X103987654Y-57089036D01*
X103953696Y-57183699D01*
X103900240Y-57299893D01*
X103834949Y-57423062D01*
X103765491Y-57538645D01*
X103699530Y-57632087D01*
X103621636Y-57725069D01*
X103509681Y-57848528D01*
X103384493Y-57978486D01*
X103254728Y-58106440D01*
X103129045Y-58223887D01*
X103016099Y-58322325D01*
X102924548Y-58393250D01*
X102888092Y-58419068D01*
X102821419Y-58468897D01*
X102777456Y-58505554D01*
X102764293Y-58522512D01*
X102784853Y-58517671D01*
X102840227Y-58487393D01*
X102926406Y-58432967D01*
X103039908Y-58356601D01*
X103177251Y-58260505D01*
X103188539Y-58252491D01*
X103269452Y-58195354D01*
X103340821Y-58145432D01*
X103388331Y-58112747D01*
X103450276Y-58068237D01*
X103550874Y-57988385D01*
X103663331Y-57892652D01*
X103780751Y-57787529D01*
X103896234Y-57679507D01*
X104002883Y-57575076D01*
X104093800Y-57480726D01*
X104162087Y-57402948D01*
X104200846Y-57348233D01*
X104225876Y-57306397D01*
X104244074Y-57290097D01*
X104247470Y-57307461D01*
X104235476Y-57352296D01*
X104207505Y-57418410D01*
X104188642Y-57459429D01*
X104160662Y-57529479D01*
X104146701Y-57577944D01*
X104142406Y-57606379D01*
X104129320Y-57667233D01*
X104125694Y-57676962D01*
X104107742Y-57725134D01*
X104070223Y-57801890D01*
X104059999Y-57821441D01*
X103962057Y-57985898D01*
X103837584Y-58164879D01*
X103696126Y-58346067D01*
X103547228Y-58517151D01*
X103400439Y-58665817D01*
X103372211Y-58693118D01*
X103336286Y-58727864D01*
X103314936Y-58751752D01*
X103280840Y-58789900D01*
X103275561Y-58798659D01*
X103251629Y-58838369D01*
X103245141Y-58869019D01*
X103242444Y-58881759D01*
X103245297Y-58934702D01*
X103255406Y-58966718D01*
X103274775Y-58967079D01*
X103324948Y-58942507D01*
X103397633Y-58894466D01*
X103486500Y-58828095D01*
X103585224Y-58748529D01*
X103687474Y-58660908D01*
X103786923Y-58570368D01*
X103877244Y-58482048D01*
X103952107Y-58401084D01*
X104030239Y-58304512D01*
X104179053Y-58085149D01*
X104320479Y-57826795D01*
X104456773Y-57525535D01*
X104488372Y-57464032D01*
X104514421Y-57441339D01*
X104530003Y-57458286D01*
X104532032Y-57511254D01*
X104517420Y-57596624D01*
X104510928Y-57632686D01*
X104501048Y-57721877D01*
X104492483Y-57839972D01*
X104485978Y-57975880D01*
X104482281Y-58118511D01*
X104480233Y-58213366D01*
X104475074Y-58345730D01*
X104467943Y-58460742D01*
X104459494Y-58548551D01*
X104450380Y-58599305D01*
X104430721Y-58661362D01*
X104402632Y-58750554D01*
X104372831Y-58845565D01*
X104330437Y-58969083D01*
X104197023Y-59260555D01*
X104025477Y-59524928D01*
X103816433Y-59761439D01*
X103570525Y-59969329D01*
X103288386Y-60147835D01*
X103258614Y-60164249D01*
X103191026Y-60203224D01*
X103148523Y-60230410D01*
X103139283Y-60240711D01*
X103175118Y-60235236D01*
X103251047Y-60213090D01*
X103351049Y-60177792D01*
X103464928Y-60133491D01*
X103582491Y-60084336D01*
X103693542Y-60034478D01*
X103787887Y-59988065D01*
X103855332Y-59949247D01*
X103904936Y-59914118D01*
X104067197Y-59768995D01*
X104219518Y-59587648D01*
X104356364Y-59378242D01*
X104472198Y-59148938D01*
X104561485Y-58907900D01*
X104568654Y-58884668D01*
X104600963Y-58791158D01*
X104625394Y-58740048D01*
X104640946Y-58732083D01*
X104646616Y-58768006D01*
X104641402Y-58848561D01*
X104635847Y-58888834D01*
X104613099Y-58993155D01*
X104580929Y-59098748D01*
X104544575Y-59189695D01*
X104509275Y-59250077D01*
X104499368Y-59265498D01*
X104504185Y-59279453D01*
X104510119Y-59284010D01*
X104495330Y-59307597D01*
X104482528Y-59323881D01*
X104467186Y-59367359D01*
X104466865Y-59372001D01*
X104452181Y-59421057D01*
X104419438Y-59498324D01*
X104373909Y-59593519D01*
X104320871Y-59696356D01*
X104265597Y-59796551D01*
X104213364Y-59883818D01*
X104169446Y-59947874D01*
X104128091Y-59996926D01*
X104046732Y-60079909D01*
X103967927Y-60147214D01*
X103961911Y-60151703D01*
X103901680Y-60201386D01*
X103881378Y-60228910D01*
X103899399Y-60233729D01*
X103954137Y-60215298D01*
X104043986Y-60173071D01*
X104151289Y-60115192D01*
X104383962Y-59962350D01*
X104580694Y-59791467D01*
X104738082Y-59605759D01*
X104852722Y-59408446D01*
X104854876Y-59403719D01*
X104915455Y-59268010D01*
X104958459Y-59163892D01*
X104987391Y-59081408D01*
X105005756Y-59010603D01*
X105017058Y-58941521D01*
X105025157Y-58887597D01*
X105044310Y-58793958D01*
X105065286Y-58720357D01*
X105067476Y-58714437D01*
X105078525Y-58689574D01*
X105086026Y-58687216D01*
X105090387Y-58712239D01*
X105092014Y-58769519D01*
X105091316Y-58863929D01*
X105088700Y-59000347D01*
X105088359Y-59015919D01*
X105084520Y-59155998D01*
X105079090Y-59261636D01*
X105070485Y-59344212D01*
X105057123Y-59415107D01*
X105037418Y-59485700D01*
X105009788Y-59567372D01*
X104954797Y-59713507D01*
X104861371Y-59919547D01*
X104759876Y-60092644D01*
X104752114Y-60103811D01*
X104698726Y-60170902D01*
X104624949Y-60253943D01*
X104539292Y-60344362D01*
X104450266Y-60433583D01*
X104366379Y-60513034D01*
X104296142Y-60574141D01*
X104248063Y-60608328D01*
X104242925Y-60611077D01*
X104203522Y-60638086D01*
X104194635Y-60656455D01*
X104208694Y-60656720D01*
X104256683Y-60639459D01*
X104328661Y-60605511D01*
X104415247Y-60559888D01*
X104507060Y-60507603D01*
X104594718Y-60453667D01*
X104668842Y-60403093D01*
X104751941Y-60336196D01*
X104896264Y-60192171D01*
X105044019Y-60009169D01*
X105198190Y-59783700D01*
X105260788Y-59687138D01*
X105307997Y-59618553D01*
X105336252Y-59584496D01*
X105348112Y-59581926D01*
X105346133Y-59607800D01*
X105321093Y-59691065D01*
X105262851Y-59819506D01*
X105181554Y-59960491D01*
X105083642Y-60103097D01*
X104975551Y-60236405D01*
X104922847Y-60302369D01*
X104873408Y-60378565D01*
X104845729Y-60439324D01*
X104839352Y-60459322D01*
X104800028Y-60547608D01*
X104738227Y-60659116D01*
X104659972Y-60784078D01*
X104571287Y-60912727D01*
X104478195Y-61035297D01*
X104376916Y-61152759D01*
X104226970Y-61296305D01*
X104057326Y-61423928D01*
X103858964Y-61542187D01*
X103622865Y-61657648D01*
X103540778Y-61694637D01*
X103658045Y-61681470D01*
X103694952Y-61676768D01*
X103775319Y-61663222D01*
X103833945Y-61649056D01*
X103871253Y-61638231D01*
X103947017Y-61619003D01*
X104033299Y-61599150D01*
X104059688Y-61592748D01*
X104193389Y-61545925D01*
X104346975Y-61473613D01*
X104511342Y-61381843D01*
X104677390Y-61276642D01*
X104836017Y-61164039D01*
X104978119Y-61050062D01*
X105094597Y-60940738D01*
X105176347Y-60842097D01*
X105232590Y-60758369D01*
X105312531Y-60639105D01*
X105371032Y-60551331D01*
X105411174Y-60490348D01*
X105436034Y-60451458D01*
X105448693Y-60429965D01*
X105452228Y-60421171D01*
X105455350Y-60410571D01*
X105472653Y-60366818D01*
X105500052Y-60303062D01*
X105516700Y-60264576D01*
X105539864Y-60207254D01*
X105549769Y-60176950D01*
X105556673Y-60150502D01*
X105574387Y-60100321D01*
X105590470Y-60053836D01*
X105606362Y-59994780D01*
X105616056Y-59947292D01*
X105630286Y-59880233D01*
X105631540Y-59874434D01*
X105638419Y-59840859D01*
X105644496Y-59805365D01*
X105650927Y-59759009D01*
X105658870Y-59692844D01*
X105669478Y-59597927D01*
X105683909Y-59465313D01*
X105684615Y-59458764D01*
X105693266Y-59366102D01*
X105697103Y-59283656D01*
X105695587Y-59200124D01*
X105688176Y-59104201D01*
X105674330Y-58984585D01*
X105653507Y-58829971D01*
X105647755Y-58798690D01*
X105616818Y-58693729D01*
X105567132Y-58565386D01*
X105503622Y-58423315D01*
X105431213Y-58277169D01*
X105354827Y-58136603D01*
X105279390Y-58011269D01*
X105209826Y-57910823D01*
X105151057Y-57844916D01*
X105132418Y-57828222D01*
X105090039Y-57785042D01*
X105085083Y-57768935D01*
X105116153Y-57780936D01*
X105181853Y-57822082D01*
X105278654Y-57904797D01*
X105377731Y-58025068D01*
X105481841Y-58186803D01*
X105546635Y-58297305D01*
X105604684Y-58228317D01*
X105609745Y-58222203D01*
X105654999Y-58159720D01*
X105686568Y-58103739D01*
X105688238Y-58099886D01*
X105700475Y-58078136D01*
X105702926Y-58094773D01*
X105696356Y-58153691D01*
X105693021Y-58174384D01*
X105669704Y-58262085D01*
X105637939Y-58336269D01*
X105632152Y-58346584D01*
X105608367Y-58408425D01*
X105616715Y-58453536D01*
X105618854Y-58457287D01*
X105660041Y-58541503D01*
X105696926Y-58636365D01*
X105723478Y-58724586D01*
X105733668Y-58788876D01*
X105734243Y-58806759D01*
X105746624Y-58849262D01*
X105773226Y-58850997D01*
X105811500Y-58814174D01*
X105858894Y-58741001D01*
X105912858Y-58633688D01*
X105944349Y-58563817D01*
X105968825Y-58507829D01*
X105979083Y-58482038D01*
X105982980Y-58473434D01*
X106005813Y-58433977D01*
X106041744Y-58376498D01*
X106052906Y-58359071D01*
X106133130Y-58229159D01*
X106189167Y-58126652D01*
X106224849Y-58042711D01*
X106244011Y-57968498D01*
X106250483Y-57895173D01*
X106248821Y-57832785D01*
X106238169Y-57722615D01*
X106220656Y-57618066D01*
X106208668Y-57565595D01*
X106192231Y-57511242D01*
X106177245Y-57492715D01*
X106160233Y-57503416D01*
X106143701Y-57515721D01*
X106087385Y-57536973D01*
X106013146Y-57551491D01*
X105975064Y-57557063D01*
X105899337Y-57580679D01*
X105849961Y-57621901D01*
X105832961Y-57641601D01*
X105799444Y-57664473D01*
X105750273Y-57673223D01*
X105669983Y-57672171D01*
X105614459Y-57672046D01*
X105532447Y-57680031D01*
X105475681Y-57695738D01*
X105468904Y-57698929D01*
X105386859Y-57718995D01*
X105278293Y-57724100D01*
X105158977Y-57715310D01*
X105044683Y-57693690D01*
X104951183Y-57660306D01*
X104892121Y-57624324D01*
X104814459Y-57563478D01*
X104737961Y-57492188D01*
X104671872Y-57419888D01*
X104625439Y-57356015D01*
X104607907Y-57310002D01*
X104594902Y-57280645D01*
X104552463Y-57231623D01*
X104490640Y-57178079D01*
X104456905Y-57151672D01*
X104404602Y-57103140D01*
X104379706Y-57060994D01*
X104373373Y-57012767D01*
X104373390Y-57009733D01*
X104380218Y-56953952D01*
X104395666Y-56923106D01*
X104399629Y-56915967D01*
X104390808Y-56878842D01*
X104360486Y-56824635D01*
X104345933Y-56802450D01*
X104315239Y-56749238D01*
X104303013Y-56717300D01*
X104297709Y-56700840D01*
X104272183Y-56652915D01*
X104232653Y-56590404D01*
X104207805Y-56550051D01*
X104175099Y-56481845D01*
X104162292Y-56431564D01*
X104155388Y-56393453D01*
X104127112Y-56347781D01*
X104108478Y-56327379D01*
X104091932Y-56286276D01*
X104089808Y-56272756D01*
X104068926Y-56253968D01*
X104048622Y-56236086D01*
X104029892Y-56189471D01*
X104023034Y-56169039D01*
X103989476Y-56103797D01*
X103942873Y-56036328D01*
X103936933Y-56028996D01*
X103899454Y-55987081D01*
X103894614Y-55982611D01*
X104070899Y-55982611D01*
X104079357Y-56003644D01*
X104121249Y-56043464D01*
X104146051Y-56065687D01*
X104160548Y-56097038D01*
X104142976Y-56137620D01*
X104131682Y-56157667D01*
X104127511Y-56191563D01*
X104160566Y-56222564D01*
X104191578Y-56252281D01*
X104209199Y-56291214D01*
X104213191Y-56308700D01*
X104244379Y-56339300D01*
X104270667Y-56359881D01*
X104277125Y-56396922D01*
X104250243Y-56424827D01*
X104245111Y-56427841D01*
X104248156Y-56456063D01*
X104290147Y-56509219D01*
X104303957Y-56524983D01*
X104346435Y-56588472D01*
X104367639Y-56644781D01*
X104374707Y-56671964D01*
X104404296Y-56738548D01*
X104447016Y-56809893D01*
X104474164Y-56853242D01*
X104501662Y-56921515D01*
X104495745Y-56965466D01*
X104456196Y-56981022D01*
X104456155Y-56981022D01*
X104424059Y-56992681D01*
X104428428Y-57019991D01*
X104467438Y-57051517D01*
X104467722Y-57051670D01*
X104512850Y-57084249D01*
X104571679Y-57137328D01*
X104634440Y-57200593D01*
X104691364Y-57263732D01*
X104732683Y-57316430D01*
X104748627Y-57348375D01*
X104746083Y-57361143D01*
X104719310Y-57380075D01*
X104712933Y-57388145D01*
X104740362Y-57409392D01*
X104755274Y-57418544D01*
X104812618Y-57458176D01*
X104876514Y-57506631D01*
X104916037Y-57534547D01*
X105006401Y-57580786D01*
X105100200Y-57610939D01*
X105183626Y-57621195D01*
X105242872Y-57607743D01*
X105285921Y-57591401D01*
X105334643Y-57608622D01*
X105365474Y-57626618D01*
X105396794Y-57635951D01*
X105405321Y-57617116D01*
X105425492Y-57591721D01*
X105478715Y-57573665D01*
X105551438Y-57564320D01*
X105630098Y-57564491D01*
X105701133Y-57574982D01*
X105750981Y-57596599D01*
X105772296Y-57605817D01*
X105794533Y-57581725D01*
X105806194Y-57562941D01*
X105842543Y-57543903D01*
X105879926Y-57534171D01*
X105932816Y-57506702D01*
X105978311Y-57484929D01*
X106012300Y-57483534D01*
X106014423Y-57484450D01*
X106050153Y-57478841D01*
X106109998Y-57455145D01*
X106180467Y-57420016D01*
X106248065Y-57380104D01*
X106299300Y-57342060D01*
X106333713Y-57322077D01*
X106394215Y-57313418D01*
X106413691Y-57315320D01*
X106440589Y-57304681D01*
X106442115Y-57261644D01*
X106447622Y-57213731D01*
X106494885Y-57146152D01*
X106498293Y-57142868D01*
X106538129Y-57089700D01*
X106554536Y-57039543D01*
X106555642Y-57029264D01*
X106587707Y-56975546D01*
X106662935Y-56911128D01*
X106771335Y-56833281D01*
X106758438Y-56666755D01*
X106758434Y-56666711D01*
X106749984Y-56576419D01*
X106740229Y-56499759D01*
X106731281Y-56453321D01*
X106729715Y-56446299D01*
X106741147Y-56393552D01*
X106780713Y-56338429D01*
X106835491Y-56295022D01*
X106892562Y-56277421D01*
X106924936Y-56272175D01*
X106947839Y-56245108D01*
X106962250Y-56183608D01*
X106966376Y-56162408D01*
X106984564Y-56110548D01*
X107005639Y-56089794D01*
X107007833Y-56089729D01*
X107017471Y-56078209D01*
X106998322Y-56053116D01*
X106961483Y-56023488D01*
X106918054Y-55998362D01*
X106879131Y-55986776D01*
X106846953Y-55981087D01*
X106830882Y-55957391D01*
X106832178Y-55901926D01*
X106832623Y-55897692D01*
X106847178Y-55831813D01*
X106869914Y-55784900D01*
X106907321Y-55721354D01*
X106909544Y-55663549D01*
X106874178Y-55623723D01*
X106864724Y-55618761D01*
X106806997Y-55585671D01*
X106741150Y-55545030D01*
X106730572Y-55538251D01*
X106650111Y-55486866D01*
X106571113Y-55436647D01*
X106547842Y-55421127D01*
X106502280Y-55384768D01*
X106484176Y-55360423D01*
X106479912Y-55350480D01*
X106448134Y-55339286D01*
X106439373Y-55337014D01*
X106397416Y-55310925D01*
X106336433Y-55261842D01*
X106266370Y-55197524D01*
X106201038Y-55136092D01*
X106143431Y-55089803D01*
X106101584Y-55069247D01*
X106067281Y-55069127D01*
X106052075Y-55071842D01*
X106019601Y-55064710D01*
X105985703Y-55031650D01*
X105940645Y-54964629D01*
X105906458Y-54912731D01*
X105870073Y-54865127D01*
X105848655Y-54846766D01*
X105840883Y-54856329D01*
X105830032Y-54900937D01*
X105822844Y-54969676D01*
X105816109Y-55037841D01*
X105801271Y-55083211D01*
X105775550Y-55100228D01*
X105745382Y-55094123D01*
X105720186Y-55047473D01*
X105699825Y-55005679D01*
X105643124Y-54974742D01*
X105577935Y-54959144D01*
X105503862Y-54937837D01*
X105481184Y-54931597D01*
X105412556Y-54931336D01*
X105371844Y-54968749D01*
X105358414Y-55044300D01*
X105350768Y-55104418D01*
X105332194Y-55145045D01*
X105331897Y-55145338D01*
X105286910Y-55160973D01*
X105217419Y-55156515D01*
X105139632Y-55134824D01*
X105069760Y-55098758D01*
X105062063Y-55093456D01*
X105019258Y-55067319D01*
X104999400Y-55061151D01*
X104969811Y-55113682D01*
X104947032Y-55145064D01*
X104939645Y-55155240D01*
X104911233Y-55175763D01*
X104874795Y-55193682D01*
X104818987Y-55222818D01*
X104809990Y-55227616D01*
X104744874Y-55261217D01*
X104672403Y-55297371D01*
X104614831Y-55329708D01*
X104588191Y-55360664D01*
X104586741Y-55400112D01*
X104585541Y-55405043D01*
X104563656Y-55436904D01*
X104522607Y-55483360D01*
X104514226Y-55491899D01*
X104456465Y-55535088D01*
X104405497Y-55539969D01*
X104372332Y-55537681D01*
X104340753Y-55563877D01*
X104325262Y-55584225D01*
X104279675Y-55585583D01*
X104244977Y-55578837D01*
X104234949Y-55595219D01*
X104255613Y-55643259D01*
X104265971Y-55677014D01*
X104244145Y-55714735D01*
X104227278Y-55734359D01*
X104223203Y-55765132D01*
X104226585Y-55779627D01*
X104211685Y-55817085D01*
X104198361Y-55837988D01*
X104179671Y-55892281D01*
X104169423Y-55934343D01*
X104140189Y-55980416D01*
X104101287Y-55986589D01*
X104097576Y-55985212D01*
X104070899Y-55982611D01*
X103894614Y-55982611D01*
X103853560Y-55944694D01*
X103791482Y-55895627D01*
X103705447Y-55833674D01*
X103587685Y-55752628D01*
X103461488Y-55669161D01*
X103317511Y-55581109D01*
X103167147Y-55497946D01*
X102997806Y-55412766D01*
X102796900Y-55318659D01*
X102754721Y-55299629D01*
X102660813Y-55258318D01*
X102557771Y-55214000D01*
X102456011Y-55171051D01*
X102365946Y-55133847D01*
X102297994Y-55106764D01*
X102262569Y-55094177D01*
X102241362Y-55088174D01*
X102184769Y-55071304D01*
X102108910Y-55048311D01*
X102028289Y-55023619D01*
X101957408Y-55001653D01*
X101910769Y-54986837D01*
X101895824Y-54982493D01*
X101832172Y-54967437D01*
X101742447Y-54948812D01*
X101641055Y-54929673D01*
X101598042Y-54921899D01*
X101502671Y-54904253D01*
X101426517Y-54889615D01*
X101383068Y-54880552D01*
X101375910Y-54878896D01*
X101273354Y-54862548D01*
X101134754Y-54849983D01*
X100969954Y-54841443D01*
X100788794Y-54837173D01*
X100601117Y-54837416D01*
X100416765Y-54842415D01*
X100245580Y-54852413D01*
X100113921Y-54864290D01*
X99907883Y-54891180D01*
X99707540Y-54929536D01*
X99497041Y-54982593D01*
X99260538Y-55053590D01*
X99142455Y-55091410D01*
X99013684Y-55133973D01*
X98903262Y-55173004D01*
X98801163Y-55212638D01*
X98697362Y-55257010D01*
X98581834Y-55310256D01*
X98444554Y-55376511D01*
X98275497Y-55459911D01*
X98187207Y-55504455D01*
X97837242Y-55698835D01*
X97526068Y-55903170D01*
X97247319Y-56121558D01*
X97195621Y-56165441D01*
X97091115Y-56252255D01*
X96989609Y-56334508D01*
X96907246Y-56399028D01*
X96840090Y-56450044D01*
X96760868Y-56510748D01*
X96713306Y-56549562D01*
X96694101Y-56570733D01*
X96699950Y-56578508D01*
X96727551Y-56577131D01*
X96773600Y-56570851D01*
X96806036Y-56567020D01*
X96852946Y-56564525D01*
X96865898Y-56569076D01*
X96842692Y-56580621D01*
X96783905Y-56605068D01*
X96698961Y-56638455D01*
X96597064Y-56677084D01*
X96419983Y-56745333D01*
X96236053Y-56823747D01*
X96075762Y-56903144D01*
X95927051Y-56990113D01*
X95777861Y-57091245D01*
X95616132Y-57213129D01*
X95484431Y-57319808D01*
X95321865Y-57467433D01*
X95182223Y-57618607D01*
X95053639Y-57786559D01*
X94924248Y-57984516D01*
X94902475Y-58022020D01*
X94856270Y-58110214D01*
X94803611Y-58218638D01*
X94748388Y-58338392D01*
X94694487Y-58460578D01*
X94645796Y-58576298D01*
X94606203Y-58676651D01*
X94579597Y-58752741D01*
X94569864Y-58795667D01*
X94569859Y-58795998D01*
X94559737Y-58830270D01*
X94533940Y-58892775D01*
X94497944Y-58970228D01*
X94496679Y-58972826D01*
X94462268Y-59049571D01*
X94440003Y-59110824D01*
X94434653Y-59143534D01*
X94436626Y-59145686D01*
X94460412Y-59133560D01*
X94503863Y-59093280D01*
X94559343Y-59031696D01*
X94581176Y-59006218D01*
X94661683Y-58916737D01*
X94758171Y-58814311D01*
X94862719Y-58706884D01*
X94967407Y-58602398D01*
X95064314Y-58508799D01*
X95145521Y-58434030D01*
X95203105Y-58386034D01*
X95224722Y-58367218D01*
X95280796Y-58304673D01*
X95344731Y-58220234D01*
X95406490Y-58126700D01*
X95453213Y-58055493D01*
X95514511Y-57970828D01*
X95581932Y-57883954D01*
X95649810Y-57801528D01*
X95712480Y-57730207D01*
X95764279Y-57676648D01*
X95799542Y-57647508D01*
X95812604Y-57649443D01*
X95802546Y-57673642D01*
X95770489Y-57725211D01*
X95724053Y-57790164D01*
X95698743Y-57824814D01*
X95636135Y-57917562D01*
X95567150Y-58027189D01*
X95496324Y-58145652D01*
X95428198Y-58264903D01*
X95367311Y-58376898D01*
X95318200Y-58473590D01*
X95285405Y-58546935D01*
X95273465Y-58588887D01*
X95271389Y-58596907D01*
X95255673Y-58637974D01*
X95229585Y-58699237D01*
X95196167Y-58775617D01*
X95126429Y-58940427D01*
X95073026Y-59075162D01*
X95038340Y-59173912D01*
X95036601Y-59179419D01*
X95011874Y-59251294D01*
X94977052Y-59345665D01*
X94939094Y-59443626D01*
X94918860Y-59495217D01*
X94874375Y-59611745D01*
X94825849Y-59741844D01*
X94798120Y-59817941D01*
X94780685Y-59865787D01*
X94708447Y-60062653D01*
X94629916Y-60267171D01*
X94555194Y-60452226D01*
X94487694Y-60609388D01*
X94430828Y-60730226D01*
X94430816Y-60730249D01*
X94394532Y-60804541D01*
X94368655Y-60862133D01*
X94358784Y-60890558D01*
X94361295Y-60890701D01*
X94383781Y-60866917D01*
X94424577Y-60815716D01*
X94477543Y-60744644D01*
X94501159Y-60711364D01*
X94611005Y-60534634D01*
X94716030Y-60327038D01*
X94818728Y-60083253D01*
X94921596Y-59797958D01*
X95004053Y-59561629D01*
X95089050Y-59339592D01*
X95170564Y-59152849D01*
X95251521Y-58995769D01*
X95334848Y-58862723D01*
X95423471Y-58748080D01*
X95520318Y-58646212D01*
X95630818Y-58540671D01*
X95565498Y-58646212D01*
X95530215Y-58702009D01*
X95470436Y-58793778D01*
X95411290Y-58882104D01*
X95377203Y-58936603D01*
X95328219Y-59023219D01*
X95274306Y-59124576D01*
X95221078Y-59229565D01*
X95174149Y-59327078D01*
X95139132Y-59406007D01*
X95121641Y-59455243D01*
X95117998Y-59468526D01*
X95101361Y-59513986D01*
X95091341Y-59539568D01*
X95068675Y-59601444D01*
X95041594Y-59678160D01*
X95022203Y-59733463D01*
X94996874Y-59803954D01*
X94980197Y-59848197D01*
X94974731Y-59872149D01*
X94989515Y-59889240D01*
X95003745Y-59882159D01*
X95015478Y-59846242D01*
X95017911Y-59822056D01*
X95033068Y-59785655D01*
X95036506Y-59781921D01*
X95050958Y-59752429D01*
X95051097Y-59751307D01*
X95063098Y-59720375D01*
X95090637Y-59660798D01*
X95128298Y-59584346D01*
X95155384Y-59532907D01*
X95293325Y-59313361D01*
X95464499Y-59093461D01*
X95659426Y-58883625D01*
X95868622Y-58694271D01*
X96082606Y-58535817D01*
X96162836Y-58482539D01*
X96297538Y-58390859D01*
X96436204Y-58294383D01*
X96558926Y-58206860D01*
X96572558Y-58197005D01*
X96662997Y-58133661D01*
X96738572Y-58084126D01*
X96791721Y-58053168D01*
X96814880Y-58045552D01*
X96815680Y-58046571D01*
X96806253Y-58072732D01*
X96765809Y-58120350D01*
X96700741Y-58183762D01*
X96617445Y-58257301D01*
X96522315Y-58335303D01*
X96421747Y-58412104D01*
X96322134Y-58482038D01*
X96319887Y-58483535D01*
X96093784Y-58641330D01*
X95901714Y-58792208D01*
X95733731Y-58945227D01*
X95579883Y-59109441D01*
X95430224Y-59293906D01*
X95356195Y-59392703D01*
X95291461Y-59485509D01*
X95235214Y-59576287D01*
X95178243Y-59679987D01*
X95111340Y-59811560D01*
X95088776Y-59856214D01*
X95035429Y-59954126D01*
X94997949Y-60009011D01*
X94975832Y-60021508D01*
X94968571Y-59992256D01*
X94968563Y-59990634D01*
X94962234Y-59964007D01*
X94948748Y-59976048D01*
X94934948Y-60020924D01*
X94934769Y-60021818D01*
X94917831Y-60081401D01*
X94887484Y-60166238D01*
X94847992Y-60266447D01*
X94803619Y-60372143D01*
X94758631Y-60473444D01*
X94717291Y-60560465D01*
X94683864Y-60623322D01*
X94662614Y-60652132D01*
X94653738Y-60662772D01*
X94648533Y-60689031D01*
X94649948Y-60734927D01*
X94658654Y-60805699D01*
X94675322Y-60906587D01*
X94700621Y-61042830D01*
X94735223Y-61219668D01*
X94736994Y-61228585D01*
X94767699Y-61379570D01*
X94792164Y-61488620D01*
X94812259Y-61559778D01*
X94829854Y-61597086D01*
X94846818Y-61604586D01*
X94865022Y-61586320D01*
X94886335Y-61546330D01*
X94896995Y-61525263D01*
X94972542Y-61411341D01*
X95083213Y-61282737D01*
X95223486Y-61144958D01*
X95387837Y-61003513D01*
X95570742Y-60863907D01*
X95626140Y-60824198D01*
X95723590Y-60753631D01*
X95791933Y-60699171D01*
X95836718Y-60652228D01*
X95863496Y-60604214D01*
X95877817Y-60546539D01*
X95885232Y-60470615D01*
X95891290Y-60367851D01*
X95914230Y-60155241D01*
X95970555Y-59871680D01*
X96053036Y-59585327D01*
X96156908Y-59312214D01*
X96277408Y-59068372D01*
X96281921Y-59060423D01*
X96326014Y-58981929D01*
X96361357Y-58917619D01*
X96380656Y-58880745D01*
X96387210Y-58867998D01*
X96428113Y-58802320D01*
X96492942Y-58709261D01*
X96576681Y-58595343D01*
X96674314Y-58467087D01*
X96780826Y-58331014D01*
X96891199Y-58193643D01*
X97000419Y-58061496D01*
X97103468Y-57941095D01*
X97111167Y-57932269D01*
X97199026Y-57828361D01*
X97282742Y-57724155D01*
X97353169Y-57631312D01*
X97401164Y-57561493D01*
X97419721Y-57532192D01*
X97467902Y-57463723D01*
X97497864Y-57432419D01*
X97507008Y-57438279D01*
X97492733Y-57481304D01*
X97452439Y-57561493D01*
X97420304Y-57617606D01*
X97359827Y-57711795D01*
X97284640Y-57815426D01*
X97188763Y-57936578D01*
X97066216Y-58083331D01*
X96999506Y-58163342D01*
X96862290Y-58335349D01*
X96725786Y-58514924D01*
X96605909Y-58681392D01*
X96603294Y-58685160D01*
X96568551Y-58736081D01*
X96536554Y-58785498D01*
X96502252Y-58841942D01*
X96460589Y-58913942D01*
X96406513Y-59010029D01*
X96334970Y-59138732D01*
X96322868Y-59161507D01*
X96278721Y-59254874D01*
X96231273Y-59367139D01*
X96188899Y-59478806D01*
X96170852Y-59529769D01*
X96138893Y-59619385D01*
X96113978Y-59688431D01*
X96100365Y-59725067D01*
X96086960Y-59762641D01*
X96066642Y-59830785D01*
X96049155Y-59900094D01*
X96038247Y-59955264D01*
X96037667Y-59980994D01*
X96039594Y-59981498D01*
X96054540Y-59960262D01*
X96074658Y-59910633D01*
X96084130Y-59884917D01*
X96130395Y-59780384D01*
X96196572Y-59650288D01*
X96277303Y-59504426D01*
X96367226Y-59352592D01*
X96460982Y-59204585D01*
X96485754Y-59166994D01*
X96573076Y-59036984D01*
X96647851Y-58931411D01*
X96719565Y-58837761D01*
X96797702Y-58743516D01*
X96891748Y-58636162D01*
X96896277Y-58631075D01*
X96972639Y-58545040D01*
X97049864Y-58457624D01*
X97111892Y-58387003D01*
X97118168Y-58379843D01*
X97167818Y-58325903D01*
X97190661Y-58306958D01*
X97188028Y-58320782D01*
X97161248Y-58365150D01*
X97111649Y-58437835D01*
X97040560Y-58536613D01*
X96949311Y-58659257D01*
X96832873Y-58815712D01*
X96649328Y-59073251D01*
X96493303Y-59309056D01*
X96360764Y-59530027D01*
X96247671Y-59743063D01*
X96149989Y-59955063D01*
X96063680Y-60172929D01*
X96025206Y-60277984D01*
X95979628Y-60405125D01*
X95949306Y-60496308D01*
X95933497Y-60556341D01*
X95931458Y-60590031D01*
X95942445Y-60602185D01*
X95965713Y-60597610D01*
X96000520Y-60581115D01*
X96008970Y-60576868D01*
X96052957Y-60559700D01*
X96070880Y-60561750D01*
X96075370Y-60566454D01*
X96099024Y-60550625D01*
X96115375Y-60537953D01*
X96161292Y-60522481D01*
X96171137Y-60522945D01*
X96180818Y-60533468D01*
X96156602Y-60565371D01*
X96132198Y-60597917D01*
X96117786Y-60633195D01*
X96117786Y-60633284D01*
X96102905Y-60662354D01*
X96064226Y-60714298D01*
X96010073Y-60777932D01*
X96006422Y-60782001D01*
X95955749Y-60840463D01*
X95923023Y-60881958D01*
X95915175Y-60897735D01*
X95922431Y-60894456D01*
X95960581Y-60869702D01*
X96022505Y-60825962D01*
X96099112Y-60769571D01*
X96126793Y-60749023D01*
X96258589Y-60655710D01*
X96389546Y-60569631D01*
X96512385Y-60495048D01*
X96619831Y-60436223D01*
X96704606Y-60397415D01*
X96759433Y-60382888D01*
X96774028Y-60383458D01*
X96793059Y-60398878D01*
X96787269Y-60444514D01*
X96784657Y-60454271D01*
X96775732Y-60479971D01*
X96760767Y-60511857D01*
X96736463Y-60555424D01*
X96699520Y-60616164D01*
X96646639Y-60699572D01*
X96574520Y-60811143D01*
X96479864Y-60956369D01*
X96405023Y-61073505D01*
X96162759Y-61494308D01*
X95962014Y-61914172D01*
X95938158Y-61970535D01*
X95902882Y-62059439D01*
X95888300Y-62108518D01*
X95894517Y-62119365D01*
X95921636Y-62093573D01*
X95969761Y-62032733D01*
X96014428Y-61975043D01*
X96152546Y-61811282D01*
X96303258Y-61650267D01*
X96454432Y-61504557D01*
X96593935Y-61386707D01*
X96601862Y-61380672D01*
X96684873Y-61322391D01*
X96787685Y-61256618D01*
X96901839Y-61188059D01*
X97018876Y-61121416D01*
X97130337Y-61061394D01*
X97227764Y-61012697D01*
X97302699Y-60980030D01*
X97346681Y-60968095D01*
X97382690Y-60954333D01*
X97423681Y-60910637D01*
X97446652Y-60854404D01*
X97447141Y-60851495D01*
X97455919Y-60808764D01*
X97472821Y-60731829D01*
X97495637Y-60630629D01*
X97522154Y-60515105D01*
X97591720Y-60214561D01*
X97527380Y-60116398D01*
X97507883Y-60086618D01*
X97449716Y-59997541D01*
X97394337Y-59912481D01*
X97375771Y-59884764D01*
X97323414Y-59811367D01*
X97260020Y-59726779D01*
X97192068Y-59639158D01*
X97126038Y-59556659D01*
X97068410Y-59487440D01*
X97025664Y-59439658D01*
X97004279Y-59421469D01*
X96994241Y-59426890D01*
X96953411Y-59457713D01*
X96887744Y-59511246D01*
X96803581Y-59582277D01*
X96707264Y-59665595D01*
X96601658Y-59760025D01*
X96463224Y-59893659D01*
X96347320Y-60021308D01*
X96243587Y-60154694D01*
X96141665Y-60305538D01*
X96103564Y-60363263D01*
X96069628Y-60410527D01*
X96052661Y-60428668D01*
X96045014Y-60415135D01*
X96057188Y-60368762D01*
X96089198Y-60296136D01*
X96137894Y-60204279D01*
X96200123Y-60100210D01*
X96223682Y-60063893D01*
X96294589Y-59965569D01*
X96380436Y-59861926D01*
X96485668Y-59748305D01*
X96614727Y-59620044D01*
X96772059Y-59472480D01*
X96876048Y-59378626D01*
X97080846Y-59378626D01*
X97353374Y-59686703D01*
X97429539Y-59772397D01*
X97510136Y-59862094D01*
X97575656Y-59933914D01*
X97620807Y-59982068D01*
X97640301Y-60000763D01*
X97640662Y-60000892D01*
X97649306Y-59995237D01*
X97663146Y-59970868D01*
X97684290Y-59922688D01*
X97714847Y-59845605D01*
X97756925Y-59734522D01*
X97812632Y-59584346D01*
X97812668Y-59584248D01*
X97838323Y-59515412D01*
X97861653Y-59455218D01*
X97887920Y-59390755D01*
X97922385Y-59309108D01*
X97970310Y-59197366D01*
X97986449Y-59156447D01*
X98018802Y-59062916D01*
X98054204Y-58949995D01*
X98087449Y-58833839D01*
X98105173Y-58769974D01*
X98110518Y-58751752D01*
X98181683Y-58751752D01*
X98193410Y-58763478D01*
X98205136Y-58751752D01*
X98193410Y-58740025D01*
X98181683Y-58751752D01*
X98110518Y-58751752D01*
X98142813Y-58641655D01*
X98180878Y-58519600D01*
X98213359Y-58423405D01*
X98272589Y-58259231D01*
X98197820Y-58351629D01*
X98047174Y-58531071D01*
X97766012Y-58829964D01*
X97478437Y-59088727D01*
X97179787Y-59311758D01*
X97080846Y-59378626D01*
X96876048Y-59378626D01*
X96962108Y-59300954D01*
X97040906Y-59229578D01*
X97158784Y-59120118D01*
X97289741Y-58996278D01*
X97422781Y-58868475D01*
X97546905Y-58747123D01*
X97571725Y-58722643D01*
X97672128Y-58624747D01*
X97759800Y-58541027D01*
X97829639Y-58476239D01*
X97876540Y-58435136D01*
X97895400Y-58422471D01*
X97896469Y-58430540D01*
X97877051Y-58470641D01*
X97830953Y-58537613D01*
X97761812Y-58626389D01*
X97673267Y-58731903D01*
X97655656Y-58752458D01*
X97601018Y-58819035D01*
X97562817Y-58869974D01*
X97548442Y-58895587D01*
X97558189Y-58892635D01*
X97594057Y-58863489D01*
X97649916Y-58812359D01*
X97718993Y-58745981D01*
X97794515Y-58671091D01*
X97869706Y-58594426D01*
X97937793Y-58522721D01*
X97992003Y-58462712D01*
X98025560Y-58421136D01*
X98053021Y-58382772D01*
X98105129Y-58311629D01*
X98170762Y-58223072D01*
X98241899Y-58127969D01*
X98286013Y-58067235D01*
X98375099Y-57935409D01*
X98462045Y-57796780D01*
X98533063Y-57672897D01*
X98581042Y-57583183D01*
X98653003Y-57449286D01*
X98710557Y-57344390D01*
X98758712Y-57260569D01*
X98802473Y-57189898D01*
X98846847Y-57124448D01*
X98896838Y-57056295D01*
X98957454Y-56977510D01*
X99033700Y-56880167D01*
X99092372Y-56807177D01*
X99148839Y-56740923D01*
X99189277Y-56698089D01*
X99207485Y-56685618D01*
X99203067Y-56711685D01*
X99176226Y-56768027D01*
X99131549Y-56846550D01*
X99073639Y-56939168D01*
X99007093Y-57037797D01*
X98995906Y-57054187D01*
X98940220Y-57143592D01*
X98871117Y-57263701D01*
X98792660Y-57406569D01*
X98708910Y-57564250D01*
X98623929Y-57728800D01*
X98541779Y-57892273D01*
X98466522Y-58046725D01*
X98402219Y-58184210D01*
X98369373Y-58259231D01*
X98352932Y-58296782D01*
X98322722Y-58376498D01*
X98316253Y-58395915D01*
X98291198Y-58459505D01*
X98269568Y-58499628D01*
X98259639Y-58514481D01*
X98259701Y-58528945D01*
X98261763Y-58530957D01*
X98256986Y-58560329D01*
X98237746Y-58613567D01*
X98229519Y-58633532D01*
X98208681Y-58689823D01*
X98207048Y-58707422D01*
X98222903Y-58688801D01*
X98254526Y-58636433D01*
X98300198Y-58552790D01*
X98358200Y-58440343D01*
X98425459Y-58311419D01*
X98547305Y-58092223D01*
X98692296Y-57845299D01*
X98857169Y-57576297D01*
X98869228Y-57557101D01*
X98982324Y-57388735D01*
X99103122Y-57231873D01*
X99241975Y-57073874D01*
X99409235Y-56902096D01*
X99509137Y-56805035D01*
X99633113Y-56689463D01*
X99746870Y-56588702D01*
X99845876Y-56506482D01*
X99925601Y-56446532D01*
X99981513Y-56412581D01*
X100009082Y-56408360D01*
X100007521Y-56413335D01*
X99981707Y-56445794D01*
X99928822Y-56503791D01*
X99853478Y-56582472D01*
X99760287Y-56676978D01*
X99653860Y-56782456D01*
X99616964Y-56818786D01*
X99506902Y-56928961D01*
X99406871Y-57031660D01*
X99322817Y-57120624D01*
X99260687Y-57189596D01*
X99226425Y-57232318D01*
X99168304Y-57318931D01*
X99112156Y-57400459D01*
X99055969Y-57478794D01*
X98985966Y-57573482D01*
X98981030Y-57580122D01*
X98932604Y-57647138D01*
X98898306Y-57697927D01*
X98885284Y-57721946D01*
X98878249Y-57736446D01*
X98849525Y-57783278D01*
X98803779Y-57853559D01*
X98746553Y-57938628D01*
X98709238Y-57996047D01*
X98641401Y-58108584D01*
X98564725Y-58243053D01*
X98486082Y-58387315D01*
X98412343Y-58529227D01*
X98411580Y-58530739D01*
X98338089Y-58677497D01*
X98301420Y-58751752D01*
X98264717Y-58826074D01*
X98194446Y-58970218D01*
X98130262Y-59103678D01*
X98075147Y-59220202D01*
X98032086Y-59313539D01*
X98004061Y-59377438D01*
X97994056Y-59405647D01*
X97986160Y-59432994D01*
X97966999Y-59483143D01*
X97946438Y-59535377D01*
X97933352Y-59572620D01*
X97926884Y-59592024D01*
X97906781Y-59648927D01*
X97876932Y-59731879D01*
X97841013Y-59830607D01*
X97814118Y-59904783D01*
X97781799Y-59995767D01*
X97758154Y-60064583D01*
X97746987Y-60100321D01*
X97741919Y-60120678D01*
X97726323Y-60181369D01*
X97703721Y-60268295D01*
X97677072Y-60370034D01*
X97659511Y-60437404D01*
X97634319Y-60536076D01*
X97614847Y-60614832D01*
X97604274Y-60660966D01*
X97593452Y-60701841D01*
X97569954Y-60760643D01*
X97557975Y-60786771D01*
X97556613Y-60803922D01*
X97557460Y-60807410D01*
X97551114Y-60843246D01*
X97534651Y-60909602D01*
X97510532Y-60996207D01*
X97502122Y-61025762D01*
X97478263Y-61117604D01*
X97462048Y-61192532D01*
X97456605Y-61236604D01*
X97457340Y-61247012D01*
X97461037Y-61256114D01*
X97470047Y-61247824D01*
X97487052Y-61217019D01*
X97514738Y-61158577D01*
X97555787Y-61067375D01*
X97612882Y-60938291D01*
X97642545Y-60874108D01*
X97667683Y-60826093D01*
X97680184Y-60810579D01*
X97678389Y-60822080D01*
X97662219Y-60868867D01*
X97633130Y-60942697D01*
X97594745Y-61034089D01*
X97572146Y-61087573D01*
X97531417Y-61189377D01*
X97498876Y-61277625D01*
X97480042Y-61337702D01*
X97470504Y-61375522D01*
X97447524Y-61463566D01*
X97423085Y-61554430D01*
X97403095Y-61628898D01*
X97374182Y-61739558D01*
X97347071Y-61846012D01*
X97344939Y-61854511D01*
X97323993Y-61932817D01*
X97309321Y-61971443D01*
X97297628Y-61976095D01*
X97285622Y-61952478D01*
X97277881Y-61919395D01*
X97275171Y-61849884D01*
X97282604Y-61749618D01*
X97300598Y-61613683D01*
X97329573Y-61437163D01*
X97333827Y-61412671D01*
X97351668Y-61308046D01*
X97367267Y-61213830D01*
X97377651Y-61147913D01*
X97390967Y-61058017D01*
X97205854Y-61152138D01*
X97184628Y-61162991D01*
X96867758Y-61342232D01*
X96589102Y-61536164D01*
X96341090Y-61751311D01*
X96116149Y-61994197D01*
X95906706Y-62271343D01*
X95879009Y-62309635D01*
X95835477Y-62365460D01*
X95791123Y-62418967D01*
X95753396Y-62461513D01*
X95729743Y-62484455D01*
X95727614Y-62479150D01*
X95730990Y-62469359D01*
X95739795Y-62419326D01*
X95746152Y-62350156D01*
X95754131Y-62293828D01*
X95780721Y-62185901D01*
X95823585Y-62047137D01*
X95880623Y-61884200D01*
X95949736Y-61703755D01*
X95988495Y-61612465D01*
X96078042Y-61430675D01*
X96193534Y-61226634D01*
X96337192Y-60996518D01*
X96511235Y-60736504D01*
X96562423Y-60660343D01*
X96607720Y-60588910D01*
X96635196Y-60540459D01*
X96640229Y-60522656D01*
X96616625Y-60533963D01*
X96561688Y-60567391D01*
X96483692Y-60617679D01*
X96390473Y-60679520D01*
X96289868Y-60747608D01*
X96189712Y-60816637D01*
X96097843Y-60881300D01*
X96022095Y-60936291D01*
X95970306Y-60976303D01*
X95919410Y-61020191D01*
X95843670Y-61087893D01*
X95754232Y-61169401D01*
X95661409Y-61255399D01*
X95648973Y-61267002D01*
X95566726Y-61342617D01*
X95497779Y-61404132D01*
X95449042Y-61445485D01*
X95427426Y-61460616D01*
X95422974Y-61448897D01*
X95439164Y-61409618D01*
X95472926Y-61352696D01*
X95517959Y-61288576D01*
X95567959Y-61227702D01*
X95597224Y-61194207D01*
X95634245Y-61147391D01*
X95648719Y-61122188D01*
X95648908Y-61120373D01*
X95666833Y-61086554D01*
X95709300Y-61027612D01*
X95769675Y-60951902D01*
X95841324Y-60867778D01*
X95917612Y-60783593D01*
X95941699Y-60757587D01*
X95986465Y-60705222D01*
X95997936Y-60682450D01*
X95977066Y-60687729D01*
X95944891Y-60705233D01*
X95826794Y-60782232D01*
X95692861Y-60886008D01*
X95689129Y-60889098D01*
X95625787Y-60940738D01*
X95543642Y-61006747D01*
X95459475Y-61073635D01*
X95365666Y-61149096D01*
X95236456Y-61260487D01*
X95132985Y-61362114D01*
X95046281Y-61463072D01*
X94967369Y-61572455D01*
X94943726Y-61608226D01*
X94896387Y-61682807D01*
X94863577Y-61738771D01*
X94851304Y-61766091D01*
X94848834Y-61784898D01*
X94829318Y-61800685D01*
X94799519Y-61783429D01*
X94770541Y-61737115D01*
X94760296Y-61709336D01*
X94735731Y-61630183D01*
X94705747Y-61523306D01*
X94673300Y-61400326D01*
X94641344Y-61272865D01*
X94612836Y-61152546D01*
X94590729Y-61050991D01*
X94577981Y-60979822D01*
X94575179Y-60961591D01*
X94560747Y-60899962D01*
X94544595Y-60864232D01*
X94541120Y-60862379D01*
X94509324Y-60875174D01*
X94454531Y-60918324D01*
X94382614Y-60987363D01*
X94369649Y-61000526D01*
X94287613Y-61076735D01*
X94225051Y-61121745D01*
X94185164Y-61133689D01*
X94171157Y-61110699D01*
X94171390Y-61108921D01*
X94183763Y-61075064D01*
X94212206Y-61009004D01*
X94252880Y-60919422D01*
X94301946Y-60814997D01*
X94327621Y-60760893D01*
X94373242Y-60661353D01*
X94401336Y-60591624D01*
X94414499Y-60543312D01*
X94415330Y-60508020D01*
X94406427Y-60477352D01*
X94393107Y-60429417D01*
X94404631Y-60349367D01*
X94414519Y-60322933D01*
X94426636Y-60280439D01*
X94416853Y-60268060D01*
X94382237Y-60276221D01*
X94347711Y-60280122D01*
X94341937Y-60267087D01*
X94504904Y-60267087D01*
X94514766Y-60286658D01*
X94536364Y-60266965D01*
X94567172Y-60210039D01*
X94604663Y-60117911D01*
X94608365Y-60107825D01*
X94641440Y-60018484D01*
X94670207Y-59942006D01*
X94688800Y-59894000D01*
X94704286Y-59852597D01*
X94711555Y-59817941D01*
X94698535Y-59821971D01*
X94667082Y-59863435D01*
X94619053Y-59941079D01*
X94616609Y-59945284D01*
X94569298Y-60036068D01*
X94531588Y-60124798D01*
X94511451Y-60192830D01*
X94509307Y-60206221D01*
X94504904Y-60267087D01*
X94341937Y-60267087D01*
X94337919Y-60258015D01*
X94357096Y-60205683D01*
X94405690Y-60120152D01*
X94435504Y-60070659D01*
X94464741Y-60019164D01*
X94476051Y-59994841D01*
X94476526Y-59992959D01*
X94492091Y-59962523D01*
X94525212Y-59904890D01*
X94569864Y-59830607D01*
X94579212Y-59815272D01*
X94622112Y-59743144D01*
X94652280Y-59689506D01*
X94663678Y-59665019D01*
X94674808Y-59643853D01*
X94707025Y-59595163D01*
X94752942Y-59530575D01*
X94792219Y-59473334D01*
X94847330Y-59381053D01*
X94889788Y-59295771D01*
X94911579Y-59232546D01*
X94914118Y-59219869D01*
X94929600Y-59161871D01*
X94955447Y-59087851D01*
X94994241Y-58991293D01*
X95048569Y-58865680D01*
X95121016Y-58704493D01*
X95131384Y-58681462D01*
X95171581Y-58584757D01*
X95189453Y-58525572D01*
X95184494Y-58505491D01*
X95160314Y-58519384D01*
X95110237Y-58563296D01*
X95041429Y-58630944D01*
X94959839Y-58715875D01*
X94871416Y-58811636D01*
X94782107Y-58911773D01*
X94697861Y-59009834D01*
X94624627Y-59099365D01*
X94568353Y-59173912D01*
X94468399Y-59310752D01*
X94356545Y-59453485D01*
X94248797Y-59580866D01*
X94149549Y-59688168D01*
X94063198Y-59770664D01*
X93994140Y-59823628D01*
X93946769Y-59842333D01*
X93947720Y-59833083D01*
X93970765Y-59796881D01*
X94012624Y-59742657D01*
X94023520Y-59728746D01*
X94080584Y-59642313D01*
X94146601Y-59525298D01*
X94216084Y-59388857D01*
X94283544Y-59244149D01*
X94343493Y-59102330D01*
X94390443Y-58974559D01*
X94393726Y-58964652D01*
X94492442Y-58695484D01*
X94610177Y-58419720D01*
X94738863Y-58155098D01*
X94870429Y-57919357D01*
X95032502Y-57683627D01*
X95254410Y-57428618D01*
X95509836Y-57193445D01*
X95792052Y-56984218D01*
X96094333Y-56807053D01*
X96122616Y-56792452D01*
X96201365Y-56750795D01*
X96260350Y-56718109D01*
X96288510Y-56700468D01*
X96289744Y-56699101D01*
X96290481Y-56666743D01*
X96271064Y-56615636D01*
X96255174Y-56581686D01*
X96245916Y-56541703D01*
X96352320Y-56541703D01*
X96357817Y-56580781D01*
X96381637Y-56634436D01*
X96392262Y-56646707D01*
X96415508Y-56658140D01*
X96452293Y-56650064D01*
X96516494Y-56621110D01*
X96522466Y-56618187D01*
X96599152Y-56568535D01*
X96629399Y-56518584D01*
X96632113Y-56508228D01*
X96665254Y-56460223D01*
X96723213Y-56413642D01*
X96725227Y-56412384D01*
X96778057Y-56375094D01*
X96855565Y-56315377D01*
X96947645Y-56241200D01*
X97044195Y-56160531D01*
X97188645Y-56038377D01*
X97309543Y-55938832D01*
X97414897Y-55856269D01*
X97514504Y-55783538D01*
X97618159Y-55713490D01*
X97735655Y-55638976D01*
X97876789Y-55552847D01*
X98237843Y-55348470D01*
X98690840Y-55131372D01*
X99141951Y-54959597D01*
X99593104Y-54832430D01*
X100046226Y-54749159D01*
X100067470Y-54746497D01*
X100182076Y-54736412D01*
X100326545Y-54728592D01*
X100489925Y-54723159D01*
X100661265Y-54720237D01*
X100829611Y-54719948D01*
X100984012Y-54722416D01*
X101113515Y-54727764D01*
X101207168Y-54736114D01*
X101214212Y-54737087D01*
X101327774Y-54754142D01*
X101452819Y-54774988D01*
X101579710Y-54797777D01*
X101698811Y-54820661D01*
X101800485Y-54841794D01*
X101875095Y-54859328D01*
X101913006Y-54871416D01*
X101935646Y-54880848D01*
X101962363Y-54881167D01*
X101984030Y-54879563D01*
X102044272Y-54893997D01*
X102136009Y-54924238D01*
X102253262Y-54967884D01*
X102390055Y-55022535D01*
X102540411Y-55085790D01*
X102698351Y-55155249D01*
X102857899Y-55228510D01*
X103013077Y-55303173D01*
X103048881Y-55320848D01*
X103127941Y-55360108D01*
X103192647Y-55393308D01*
X103250596Y-55425073D01*
X103309388Y-55460025D01*
X103376622Y-55502790D01*
X103459894Y-55557992D01*
X103566805Y-55630253D01*
X103704952Y-55724197D01*
X103725196Y-55738632D01*
X103793002Y-55792129D01*
X103860659Y-55851060D01*
X103875105Y-55864271D01*
X103924902Y-55903834D01*
X103960395Y-55915123D01*
X103995516Y-55903560D01*
X104026406Y-55879846D01*
X104045026Y-55844411D01*
X104045029Y-55844081D01*
X104062444Y-55807541D01*
X104103659Y-55765637D01*
X104118968Y-55752845D01*
X104156953Y-55705237D01*
X104164032Y-55653072D01*
X104138276Y-55590837D01*
X104077751Y-55513021D01*
X103980529Y-55414109D01*
X103926692Y-55363454D01*
X103842508Y-55287437D01*
X103768668Y-55224346D01*
X103716678Y-55184207D01*
X103707796Y-55178148D01*
X103631871Y-55125502D01*
X103561453Y-55075521D01*
X103483668Y-55020102D01*
X103195360Y-54829972D01*
X102910469Y-54668541D01*
X102619035Y-54531466D01*
X102311098Y-54414405D01*
X101976698Y-54313016D01*
X101605875Y-54222956D01*
X101596216Y-54220846D01*
X101542502Y-54209416D01*
X101494865Y-54200339D01*
X101435821Y-54190479D01*
X101347888Y-54176702D01*
X101292324Y-54168286D01*
X101232075Y-54160105D01*
X101170009Y-54153285D01*
X101094877Y-54146753D01*
X100995430Y-54139439D01*
X100860417Y-54130270D01*
X100765244Y-54122748D01*
X100674561Y-54112952D01*
X100610981Y-54103002D01*
X100584375Y-54094189D01*
X100587186Y-54089396D01*
X100623295Y-54082402D01*
X100691977Y-54078355D01*
X100783844Y-54077174D01*
X100889511Y-54078778D01*
X100999591Y-54083085D01*
X101104696Y-54090015D01*
X101195441Y-54099485D01*
X101283756Y-54111209D01*
X101372871Y-54122964D01*
X101435661Y-54131163D01*
X101618599Y-54161442D01*
X101855023Y-54214731D01*
X102106840Y-54283961D01*
X102360584Y-54365087D01*
X102602789Y-54454067D01*
X102819989Y-54546857D01*
X102844507Y-54558556D01*
X102959001Y-54617697D01*
X103091552Y-54691435D01*
X103227103Y-54770989D01*
X103350593Y-54847579D01*
X103446965Y-54912425D01*
X103563789Y-54997104D01*
X103703609Y-55100606D01*
X103814350Y-55185982D01*
X103901873Y-55257930D01*
X103972039Y-55321146D01*
X104030707Y-55380330D01*
X104035556Y-55385495D01*
X104095140Y-55445102D01*
X104143871Y-55487326D01*
X104171609Y-55503316D01*
X104171982Y-55503310D01*
X104210045Y-55492757D01*
X104264650Y-55468135D01*
X104325406Y-55443913D01*
X104383090Y-55433100D01*
X104388882Y-55433033D01*
X104448105Y-55418166D01*
X104471348Y-55375315D01*
X104460293Y-55301619D01*
X104448800Y-55241364D01*
X104458066Y-55194468D01*
X104488383Y-55181476D01*
X104535155Y-55208129D01*
X104544262Y-55216226D01*
X104574962Y-55235932D01*
X104608828Y-55233597D01*
X104665081Y-55209413D01*
X104680819Y-55201680D01*
X104734479Y-55170927D01*
X104762936Y-55147480D01*
X104763774Y-55145064D01*
X104752616Y-55119200D01*
X104713762Y-55070688D01*
X104645655Y-54997919D01*
X104546740Y-54899288D01*
X104415460Y-54773185D01*
X104250258Y-54618005D01*
X104201583Y-54573426D01*
X104027920Y-54423743D01*
X103830749Y-54265349D01*
X103619590Y-54105149D01*
X103403961Y-53950050D01*
X103193382Y-53806956D01*
X102997372Y-53682773D01*
X102825450Y-53584407D01*
X102792360Y-53566580D01*
X102717728Y-53524754D01*
X102661277Y-53491061D01*
X102657091Y-53488427D01*
X102584415Y-53447479D01*
X102477821Y-53393080D01*
X102346022Y-53329362D01*
X102197732Y-53260458D01*
X102041667Y-53190501D01*
X101886539Y-53123625D01*
X101865960Y-53114993D01*
X101666849Y-53035458D01*
X101469071Y-52963101D01*
X101280829Y-52900520D01*
X101110328Y-52850308D01*
X100965772Y-52815063D01*
X100855367Y-52797379D01*
X100776508Y-52790459D01*
X100652928Y-52779794D01*
X100538747Y-52770113D01*
X100511076Y-52768512D01*
X100405663Y-52768882D01*
X100269706Y-52775655D01*
X100114810Y-52787713D01*
X99952581Y-52803939D01*
X99794625Y-52823216D01*
X99652546Y-52844426D01*
X99537951Y-52866453D01*
X99535477Y-52867014D01*
X99471312Y-52880443D01*
X99424712Y-52888371D01*
X99384589Y-52895791D01*
X99295695Y-52919003D01*
X99181300Y-52953531D01*
X99052178Y-52995709D01*
X98919104Y-53041872D01*
X98792851Y-53088354D01*
X98684195Y-53131490D01*
X98603908Y-53167615D01*
X98566125Y-53187313D01*
X98405894Y-53283057D01*
X98227441Y-53405643D01*
X98039928Y-53547622D01*
X97852518Y-53701545D01*
X97674373Y-53859965D01*
X97514656Y-54015433D01*
X97382529Y-54160500D01*
X97313517Y-54246369D01*
X97205611Y-54390303D01*
X97086846Y-54557389D01*
X96964141Y-54737424D01*
X96844414Y-54920207D01*
X96734582Y-55095536D01*
X96641565Y-55253208D01*
X96631108Y-55271167D01*
X96587040Y-55339292D01*
X96547751Y-55390528D01*
X96520564Y-55425464D01*
X96512614Y-55447475D01*
X96513688Y-55452378D01*
X96513457Y-55492309D01*
X96509575Y-55561111D01*
X96503090Y-55645883D01*
X96495051Y-55733721D01*
X96486507Y-55811723D01*
X96478508Y-55866987D01*
X96468331Y-55921261D01*
X96455340Y-55990117D01*
X96454053Y-55997195D01*
X96448709Y-56046257D01*
X96453192Y-56066341D01*
X96456580Y-56064319D01*
X96482016Y-56035832D01*
X96524703Y-55980730D01*
X96577554Y-55908031D01*
X96657273Y-55800755D01*
X96748497Y-55687712D01*
X96842227Y-55579639D01*
X96933263Y-55481893D01*
X97016406Y-55399831D01*
X97086456Y-55338809D01*
X97138215Y-55304183D01*
X97166483Y-55301310D01*
X97167581Y-55302673D01*
X97167422Y-55318165D01*
X97152819Y-55348604D01*
X97120816Y-55398339D01*
X97068458Y-55471719D01*
X96992787Y-55573092D01*
X96890848Y-55706807D01*
X96833377Y-55783175D01*
X96740863Y-55910505D01*
X96651101Y-56038475D01*
X96577338Y-56148428D01*
X96535803Y-56212359D01*
X96476736Y-56302615D01*
X96427737Y-56376729D01*
X96396475Y-56423055D01*
X96365610Y-56483266D01*
X96352320Y-56541703D01*
X96245916Y-56541703D01*
X96237798Y-56506647D01*
X96249740Y-56426917D01*
X96292096Y-56327467D01*
X96304420Y-56302253D01*
X96322136Y-56258681D01*
X96335083Y-56210204D01*
X96344360Y-56148422D01*
X96351065Y-56064937D01*
X96356296Y-55951349D01*
X96361150Y-55799259D01*
X96373162Y-55383619D01*
X96272928Y-55226596D01*
X96181194Y-55064919D01*
X96104692Y-54890642D01*
X96056384Y-54729499D01*
X96042854Y-54666245D01*
X96032624Y-54619886D01*
X96021016Y-54569772D01*
X96003289Y-54494965D01*
X96001378Y-54486562D01*
X95985613Y-54371786D01*
X95979011Y-54224486D01*
X95980917Y-54056884D01*
X95981333Y-54049387D01*
X96100088Y-54049387D01*
X96111781Y-54278021D01*
X96125419Y-54385063D01*
X96139099Y-54481446D01*
X96152598Y-54555399D01*
X96168815Y-54620089D01*
X96190648Y-54688688D01*
X96220995Y-54774365D01*
X96247266Y-54846269D01*
X96281393Y-54933129D01*
X96313953Y-55002926D01*
X96353055Y-55072417D01*
X96406808Y-55158360D01*
X96478572Y-55270602D01*
X96535105Y-55214069D01*
X96553229Y-55192483D01*
X96596512Y-55128640D01*
X96648189Y-55042026D01*
X96700649Y-54945009D01*
X96767431Y-54822777D01*
X96917830Y-54584361D01*
X97099375Y-54334637D01*
X97306217Y-54081944D01*
X97378606Y-53999542D01*
X97514217Y-53854294D01*
X97642555Y-53731769D01*
X97775801Y-53620725D01*
X97926137Y-53509924D01*
X97944038Y-53497354D01*
X98057938Y-53417411D01*
X98180751Y-53331262D01*
X98288830Y-53255494D01*
X98307127Y-53242814D01*
X98416835Y-53170813D01*
X98533766Y-53099306D01*
X98635518Y-53042080D01*
X98792597Y-52967753D01*
X98982095Y-52891472D01*
X99186995Y-52819405D01*
X99393192Y-52756186D01*
X99586582Y-52706452D01*
X99753059Y-52674836D01*
X99872795Y-52659431D01*
X100022416Y-52645985D01*
X100168518Y-52641058D01*
X100319261Y-52645167D01*
X100482806Y-52658831D01*
X100667313Y-52682566D01*
X100880943Y-52716891D01*
X101131855Y-52762323D01*
X101354857Y-52811609D01*
X101725592Y-52923316D01*
X102111523Y-53074496D01*
X102508830Y-53263759D01*
X102656972Y-53341347D01*
X102876286Y-53461134D01*
X103073727Y-53576721D01*
X103262790Y-53696457D01*
X103456973Y-53828689D01*
X103669772Y-53981764D01*
X103678853Y-53988423D01*
X103763384Y-54050083D01*
X103842151Y-54107036D01*
X103899163Y-54147712D01*
X104060859Y-54268753D01*
X104330603Y-54505735D01*
X104596180Y-54784632D01*
X104660190Y-54856397D01*
X104740708Y-54943665D01*
X104807425Y-55012482D01*
X104854754Y-55057136D01*
X104877111Y-55071914D01*
X104891916Y-55054876D01*
X104900565Y-55009154D01*
X104902181Y-54985792D01*
X104919775Y-54959992D01*
X104968418Y-54957111D01*
X105022471Y-54969204D01*
X105075805Y-54998154D01*
X105080045Y-55001630D01*
X105133712Y-55024880D01*
X105202776Y-55034393D01*
X105213951Y-55034366D01*
X105263300Y-55031154D01*
X105276537Y-55017113D01*
X105263005Y-54984503D01*
X105252965Y-54953466D01*
X105268065Y-54911363D01*
X105318755Y-54894032D01*
X105323979Y-54892902D01*
X105324877Y-54872876D01*
X105322294Y-54860050D01*
X105341083Y-54828728D01*
X105352593Y-54822901D01*
X105407391Y-54823399D01*
X105499135Y-54847973D01*
X105596103Y-54878301D01*
X105658191Y-54890657D01*
X105692500Y-54882831D01*
X105707138Y-54852945D01*
X105710215Y-54799123D01*
X105710288Y-54791422D01*
X105719582Y-54724262D01*
X105742227Y-54692289D01*
X105750705Y-54689916D01*
X105806279Y-54698854D01*
X105871306Y-54737138D01*
X105933339Y-54795698D01*
X105979929Y-54865466D01*
X105996284Y-54897051D01*
X106035896Y-54948086D01*
X106079087Y-54963622D01*
X106097698Y-54968323D01*
X106153844Y-54999249D01*
X106231191Y-55054376D01*
X106321636Y-55128206D01*
X106384267Y-55181095D01*
X106456115Y-55238638D01*
X106509726Y-55277874D01*
X106536683Y-55292380D01*
X106552796Y-55298004D01*
X106598870Y-55326350D01*
X106657661Y-55370572D01*
X106690224Y-55395916D01*
X106779678Y-55459265D01*
X106867131Y-55514598D01*
X106953310Y-55574635D01*
X107000621Y-55637449D01*
X107007508Y-55708084D01*
X106976991Y-55794228D01*
X106963189Y-55822299D01*
X106943972Y-55869772D01*
X106945896Y-55895656D01*
X106967903Y-55913894D01*
X107012782Y-55944879D01*
X107067278Y-55987446D01*
X107067367Y-55987519D01*
X107101265Y-56018363D01*
X107115634Y-56047477D01*
X107113785Y-56078209D01*
X107113042Y-56090569D01*
X107096060Y-56163346D01*
X107090530Y-56185039D01*
X107065763Y-56267005D01*
X107038815Y-56315819D01*
X107001206Y-56342335D01*
X106944454Y-56357410D01*
X106898830Y-56374069D01*
X106847760Y-56414702D01*
X106818690Y-56464041D01*
X106822316Y-56508826D01*
X106823704Y-56511801D01*
X106830933Y-56552740D01*
X106836249Y-56624738D01*
X106838585Y-56714323D01*
X106839528Y-56895024D01*
X106732212Y-56986755D01*
X106703555Y-57012340D01*
X106644127Y-57080359D01*
X106624896Y-57136030D01*
X106616803Y-57175753D01*
X106589716Y-57207075D01*
X106566039Y-57232911D01*
X106554536Y-57285554D01*
X106539696Y-57350471D01*
X106497729Y-57392060D01*
X106438257Y-57396646D01*
X106404507Y-57391946D01*
X106370575Y-57406946D01*
X106355667Y-57452432D01*
X106358724Y-57532958D01*
X106378688Y-57653079D01*
X106386984Y-57696343D01*
X106406601Y-57833605D01*
X106406541Y-57945087D01*
X106384051Y-58045164D01*
X106336378Y-58148208D01*
X106260768Y-58268594D01*
X106233316Y-58310175D01*
X106174631Y-58403049D01*
X106120649Y-58492685D01*
X106091094Y-58541840D01*
X106036680Y-58626628D01*
X105989252Y-58694402D01*
X105975196Y-58713197D01*
X105935578Y-58768215D01*
X105911645Y-58804522D01*
X105902890Y-58824709D01*
X105912321Y-58835343D01*
X105948368Y-58818165D01*
X106006205Y-58775838D01*
X106081009Y-58711028D01*
X106088136Y-58704462D01*
X106205952Y-58592839D01*
X106301097Y-58494236D01*
X106385019Y-58395196D01*
X106469163Y-58282258D01*
X106564976Y-58141964D01*
X106607441Y-58077416D01*
X106762398Y-57824527D01*
X106887689Y-57585674D01*
X106988776Y-57348382D01*
X107071123Y-57100174D01*
X107140194Y-56828575D01*
X107144806Y-56808062D01*
X107173947Y-56682077D01*
X107205241Y-56551517D01*
X107232666Y-56441595D01*
X107239695Y-56414206D01*
X107278207Y-56258317D01*
X107305522Y-56130922D01*
X107323510Y-56017743D01*
X107334043Y-55904502D01*
X107338991Y-55776923D01*
X107340224Y-55620727D01*
X107340144Y-55591900D01*
X107335343Y-55404364D01*
X107323644Y-55241151D01*
X107305766Y-55107864D01*
X107282432Y-55010105D01*
X107254361Y-54953478D01*
X107254086Y-54953160D01*
X107240374Y-54915112D01*
X107234684Y-54855696D01*
X107230738Y-54806935D01*
X107216923Y-54722663D01*
X107196606Y-54631716D01*
X107177855Y-54557754D01*
X107161972Y-54493326D01*
X107154283Y-54459785D01*
X107136678Y-54393355D01*
X107091620Y-54275830D01*
X107025100Y-54131397D01*
X106940551Y-53966425D01*
X106841404Y-53787280D01*
X106731091Y-53600329D01*
X106613044Y-53411941D01*
X106490693Y-53228483D01*
X106448170Y-53169249D01*
X106355151Y-53048445D01*
X106241802Y-52908848D01*
X106115954Y-52759678D01*
X105985441Y-52610154D01*
X105858096Y-52469496D01*
X105741751Y-52346924D01*
X105715392Y-52320201D01*
X105573572Y-52181086D01*
X105413749Y-52030702D01*
X105243212Y-51875419D01*
X105069248Y-51721607D01*
X104899147Y-51575635D01*
X104740196Y-51443873D01*
X104599685Y-51332691D01*
X104484900Y-51248460D01*
X104431668Y-51211396D01*
X104335290Y-51143153D01*
X104250254Y-51081742D01*
X104185479Y-51038072D01*
X104086824Y-50977597D01*
X103968839Y-50909173D01*
X103841419Y-50838201D01*
X103714456Y-50770081D01*
X103597843Y-50710213D01*
X103501473Y-50663997D01*
X103435238Y-50636835D01*
X103407809Y-50626468D01*
X103354244Y-50605319D01*
X103294438Y-50581272D01*
X103247611Y-50561992D01*
X103230169Y-50554728D01*
X103200704Y-50543133D01*
X103177697Y-50533929D01*
X103130344Y-50513874D01*
X103077375Y-50491665D01*
X102988114Y-50455804D01*
X102889836Y-50417578D01*
X102793052Y-50380948D01*
X102708274Y-50349877D01*
X102646013Y-50328329D01*
X102616781Y-50320265D01*
X102582277Y-50312621D01*
X102527947Y-50293208D01*
X102475668Y-50273013D01*
X102438470Y-50260928D01*
X102417287Y-50255754D01*
X102357745Y-50240759D01*
X102271420Y-50218807D01*
X102168756Y-50192547D01*
X102091490Y-50172733D01*
X101997411Y-50148959D01*
X101924168Y-50131616D01*
X101858316Y-50118011D01*
X101786415Y-50105450D01*
X101695022Y-50091239D01*
X101570695Y-50072683D01*
X101484141Y-50059782D01*
X101381645Y-50044461D01*
X101300838Y-50032333D01*
X101254075Y-50025247D01*
X101245860Y-50024022D01*
X101127959Y-50011867D01*
X100977182Y-50003591D01*
X100806311Y-49999362D01*
X100628130Y-49999350D01*
X100455421Y-50003725D01*
X100300965Y-50012653D01*
X100224582Y-50019299D01*
X99925695Y-50057901D01*
X99658507Y-50114989D01*
X99412985Y-50192597D01*
X99382415Y-50202809D01*
X99321012Y-50218715D01*
X99294453Y-50225947D01*
X99250652Y-50247315D01*
X99243329Y-50252116D01*
X99196605Y-50273646D01*
X99131545Y-50296951D01*
X99063273Y-50322765D01*
X98939315Y-50381943D01*
X98793934Y-50462141D01*
X98635916Y-50558177D01*
X98474046Y-50664874D01*
X98317113Y-50777051D01*
X98243614Y-50831959D01*
X98138914Y-50910192D01*
X98023847Y-50996183D01*
X97912735Y-51079229D01*
X97866265Y-51115150D01*
X97693620Y-51266414D01*
X97504247Y-51457703D01*
X97300019Y-51686846D01*
X97082811Y-51951673D01*
X96854497Y-52250014D01*
X96616952Y-52579697D01*
X96602008Y-52600820D01*
X96549268Y-52673788D01*
X96494663Y-52747689D01*
X96418700Y-52861840D01*
X96313977Y-53068188D01*
X96226972Y-53301240D01*
X96160466Y-53549872D01*
X96117244Y-53802962D01*
X96100088Y-54049387D01*
X95981333Y-54049387D01*
X95990674Y-53881197D01*
X96007629Y-53709647D01*
X96031125Y-53554454D01*
X96060507Y-53427837D01*
X96073587Y-53383502D01*
X96090233Y-53326192D01*
X96097796Y-53298843D01*
X96100862Y-53285885D01*
X96127481Y-53202659D01*
X96170386Y-53092141D01*
X96224652Y-52965899D01*
X96285351Y-52835499D01*
X96347557Y-52712509D01*
X96367977Y-52675826D01*
X96430829Y-52572999D01*
X96510931Y-52451113D01*
X96600109Y-52322414D01*
X96690190Y-52199148D01*
X96744638Y-52126885D01*
X96823301Y-52022332D01*
X96891302Y-51931773D01*
X96942774Y-51863022D01*
X96971852Y-51823894D01*
X96991114Y-51798893D01*
X97043760Y-51735447D01*
X97102558Y-51668834D01*
X97133000Y-51634410D01*
X97187978Y-51567037D01*
X97226412Y-51513270D01*
X97254260Y-51480321D01*
X97310949Y-51423419D01*
X97387969Y-51350598D01*
X97477307Y-51269060D01*
X97570949Y-51186010D01*
X97660883Y-51108650D01*
X97739095Y-51044185D01*
X97797572Y-50999817D01*
X97797793Y-50999663D01*
X97841325Y-50967704D01*
X97907267Y-50917443D01*
X97981433Y-50859693D01*
X98093206Y-50772121D01*
X98193505Y-50695088D01*
X98280282Y-50631060D01*
X98365627Y-50571371D01*
X98461633Y-50507352D01*
X98580390Y-50430336D01*
X98639651Y-50392996D01*
X98748711Y-50327649D01*
X98860756Y-50263992D01*
X98968582Y-50205763D01*
X99064986Y-50156699D01*
X99142764Y-50120535D01*
X99194714Y-50101008D01*
X99213631Y-50101856D01*
X99217684Y-50105257D01*
X99242948Y-50091706D01*
X99245166Y-50090018D01*
X99302068Y-50061794D01*
X99400159Y-50028750D01*
X99534461Y-49992148D01*
X99699997Y-49953247D01*
X99891789Y-49913307D01*
X100104859Y-49873587D01*
X100128881Y-49870030D01*
X100221878Y-49861780D01*
X100347770Y-49855577D01*
X100496589Y-49851440D01*
X100658365Y-49849390D01*
X100823131Y-49849446D01*
X100980917Y-49851629D01*
X101121754Y-49855959D01*
X101235674Y-49862456D01*
X101312708Y-49871141D01*
X101372145Y-49881332D01*
X101474241Y-49897709D01*
X101558968Y-49910055D01*
X101669964Y-49925413D01*
X101785235Y-49942744D01*
X101881697Y-49958686D01*
X101950111Y-49971704D01*
X101981242Y-49980261D01*
X101982888Y-49981144D01*
X102018559Y-49991677D01*
X102076916Y-50003346D01*
X102114077Y-50010710D01*
X102197781Y-50030885D01*
X102286023Y-50055362D01*
X102341819Y-50071321D01*
X102401000Y-50086238D01*
X102429885Y-50090729D01*
X102450873Y-50091985D01*
X102514623Y-50108005D01*
X102610899Y-50138908D01*
X102733417Y-50182202D01*
X102875891Y-50235393D01*
X103032036Y-50295988D01*
X103195565Y-50361493D01*
X103360192Y-50429417D01*
X103519633Y-50497265D01*
X103667601Y-50562544D01*
X103797810Y-50622761D01*
X103903976Y-50675423D01*
X103914332Y-50680850D01*
X104102816Y-50785665D01*
X104302363Y-50906409D01*
X104494861Y-51031738D01*
X104662200Y-51150309D01*
X104682885Y-51166349D01*
X104752955Y-51224096D01*
X104846901Y-51304503D01*
X104957358Y-51401053D01*
X105076965Y-51507229D01*
X105198357Y-51616516D01*
X105314173Y-51722397D01*
X105417048Y-51818356D01*
X105578762Y-51971559D01*
X105728805Y-52114891D01*
X105855481Y-52237989D01*
X105964542Y-52346979D01*
X106061740Y-52447991D01*
X106152827Y-52547150D01*
X106243555Y-52650585D01*
X106339676Y-52764424D01*
X106446941Y-52894794D01*
X106571102Y-53047823D01*
X106588184Y-53069538D01*
X106650970Y-53154957D01*
X106725657Y-53262334D01*
X106803093Y-53378076D01*
X106874126Y-53488590D01*
X106929604Y-53580284D01*
X106940471Y-53599528D01*
X107005151Y-53724682D01*
X107075693Y-53876022D01*
X107148256Y-54043817D01*
X107218997Y-54218338D01*
X107284074Y-54389853D01*
X107339644Y-54548632D01*
X107381867Y-54684946D01*
X107406899Y-54789063D01*
X107417821Y-54844729D01*
X107435621Y-54929338D01*
X107456086Y-55022666D01*
X107470273Y-55094181D01*
X107496466Y-55299756D01*
X107508731Y-55528311D01*
X107508052Y-55620727D01*
X107506999Y-55764194D01*
G37*
G36*
X107023604Y-65881576D02*
G01*
X107011877Y-65893303D01*
X107000150Y-65881576D01*
X107011877Y-65869850D01*
X107023604Y-65881576D01*
G37*
G36*
X98134905Y-59973838D02*
G01*
X98121601Y-60031867D01*
X98087275Y-60128808D01*
X98030752Y-60263620D01*
X98028671Y-60268338D01*
X97990667Y-60360306D01*
X97944659Y-60480020D01*
X97893735Y-60618532D01*
X97840984Y-60766896D01*
X97789495Y-60916165D01*
X97742358Y-61057392D01*
X97702662Y-61181629D01*
X97673496Y-61279931D01*
X97657949Y-61343349D01*
X97648860Y-61388125D01*
X97631560Y-61465991D01*
X97610879Y-61554430D01*
X97584866Y-61666397D01*
X97558974Y-61784731D01*
X97537180Y-61891186D01*
X97521781Y-61974522D01*
X97515073Y-62023497D01*
X97514585Y-62028418D01*
X97506076Y-62074891D01*
X97489498Y-62150133D01*
X97467834Y-62240441D01*
X97461497Y-62265527D01*
X97439912Y-62345352D01*
X97422580Y-62401187D01*
X97412780Y-62422204D01*
X97409930Y-62408020D01*
X97411192Y-62354809D01*
X97417168Y-62269827D01*
X97427163Y-62161271D01*
X97440485Y-62037340D01*
X97456439Y-61906230D01*
X97468978Y-61827188D01*
X97495047Y-61695491D01*
X97529444Y-61541606D01*
X97569060Y-61378252D01*
X97610785Y-61218147D01*
X97651510Y-61074010D01*
X97688126Y-60958560D01*
X97714007Y-60879475D01*
X97732647Y-60804739D01*
X97731423Y-60768908D01*
X97710567Y-60770008D01*
X97707205Y-60768780D01*
X97715011Y-60739359D01*
X97739625Y-60680783D01*
X97777741Y-60601355D01*
X97790076Y-60576775D01*
X97848744Y-60459251D01*
X97913186Y-60329423D01*
X97971537Y-60211177D01*
X98001421Y-60151668D01*
X98060446Y-60043635D01*
X98103152Y-59978681D01*
X98128363Y-59955762D01*
X98134905Y-59973838D01*
G37*
G36*
X97290455Y-62082130D02*
G01*
X97278728Y-62093857D01*
X97267002Y-62082130D01*
X97278728Y-62070404D01*
X97290455Y-62082130D01*
G37*
G36*
X95424333Y-57617215D02*
G01*
X95417659Y-57641848D01*
X95386973Y-57691259D01*
X95338758Y-57754973D01*
X95307344Y-57793733D01*
X95258144Y-57855660D01*
X95212989Y-57914994D01*
X95164277Y-57982083D01*
X95104404Y-58067273D01*
X95025766Y-58180911D01*
X95007135Y-58208174D01*
X94820877Y-58508122D01*
X94642450Y-58845565D01*
X94630399Y-58869865D01*
X94590302Y-58943203D01*
X94564628Y-58974682D01*
X94552046Y-58966075D01*
X94554008Y-58942298D01*
X94574621Y-58878705D01*
X94612819Y-58787910D01*
X94664666Y-58677634D01*
X94726229Y-58555604D01*
X94793573Y-58429543D01*
X94862764Y-58307174D01*
X94929867Y-58196222D01*
X94990949Y-58104411D01*
X95060663Y-58010092D01*
X95140533Y-57908671D01*
X95220149Y-57813216D01*
X95293916Y-57730025D01*
X95356235Y-57665396D01*
X95401510Y-57625627D01*
X95424143Y-57617014D01*
X95424333Y-57617215D01*
G37*
G36*
X104283948Y-62680000D02*
G01*
X104267439Y-62752472D01*
X104253383Y-62803249D01*
X104230311Y-62877581D01*
X104211961Y-62926452D01*
X104202768Y-62947514D01*
X104177257Y-63009904D01*
X104142800Y-63096779D01*
X104104184Y-63196165D01*
X104052256Y-63328896D01*
X103948361Y-63578754D01*
X103851889Y-63787466D01*
X103761198Y-63958239D01*
X103674645Y-64094280D01*
X103590587Y-64198797D01*
X103570294Y-64220361D01*
X103531528Y-64259507D01*
X103513001Y-64275020D01*
X103512751Y-64274494D01*
X103524480Y-64250782D01*
X103554884Y-64198859D01*
X103598312Y-64128437D01*
X103609088Y-64111021D01*
X103665437Y-64013901D01*
X103731089Y-63893324D01*
X103800639Y-63759998D01*
X103868681Y-63624636D01*
X103929807Y-63497947D01*
X103978613Y-63390642D01*
X104009691Y-63313432D01*
X104018395Y-63290657D01*
X104037217Y-63243072D01*
X104049737Y-63210636D01*
X104076728Y-63138835D01*
X104111916Y-63044064D01*
X104150882Y-62938178D01*
X104174481Y-62875086D01*
X104216075Y-62771145D01*
X104249589Y-62696846D01*
X104273253Y-62655008D01*
X104285296Y-62648453D01*
X104283948Y-62680000D01*
G37*
G36*
X101956634Y-62624986D02*
G01*
X101948245Y-62649046D01*
X101920906Y-62678036D01*
X101892006Y-62692845D01*
X101867495Y-62698032D01*
X101801336Y-62721069D01*
X101709676Y-62758566D01*
X101602365Y-62806245D01*
X101489253Y-62859831D01*
X101380189Y-62915047D01*
X101276569Y-62965783D01*
X101173410Y-63007419D01*
X101092057Y-63030229D01*
X101038702Y-63032536D01*
X101019541Y-63012663D01*
X101025489Y-63003449D01*
X101065631Y-62974755D01*
X101136591Y-62934514D01*
X101230092Y-62886637D01*
X101337851Y-62835034D01*
X101451589Y-62783616D01*
X101563026Y-62736296D01*
X101663882Y-62696983D01*
X101745876Y-62669588D01*
X101786587Y-62658142D01*
X101869652Y-62636838D01*
X101929537Y-62624385D01*
X101955393Y-62623184D01*
X101956634Y-62624986D01*
G37*
G36*
X102747847Y-62023497D02*
G01*
X102737966Y-62067345D01*
X102731957Y-62112851D01*
X102731452Y-62117951D01*
X102707975Y-62164076D01*
X102656008Y-62226613D01*
X102584622Y-62297138D01*
X102502887Y-62367232D01*
X102419875Y-62428471D01*
X102344656Y-62472434D01*
X102257470Y-62512136D01*
X102200179Y-62533011D01*
X102182328Y-62530070D01*
X102203322Y-62503166D01*
X102262569Y-62452152D01*
X102309128Y-62412178D01*
X102386934Y-62340675D01*
X102476321Y-62254957D01*
X102565763Y-62165903D01*
X102596481Y-62134850D01*
X102672727Y-62060548D01*
X102721558Y-62018639D01*
X102745692Y-62006997D01*
X102747847Y-62023497D01*
G37*
G36*
X100776304Y-62196288D02*
G01*
X100802262Y-62220708D01*
X100796734Y-62258031D01*
X100792771Y-62263404D01*
X100748864Y-62280708D01*
X100680787Y-62267018D01*
X100657066Y-62250221D01*
X100670013Y-62220112D01*
X100688500Y-62203678D01*
X100733503Y-62189151D01*
X100776304Y-62196288D01*
G37*
G36*
X101396654Y-61942559D02*
G01*
X101401266Y-61968790D01*
X101368275Y-62015034D01*
X101346091Y-62035487D01*
X101296385Y-62061444D01*
X101257840Y-62057712D01*
X101242348Y-62023492D01*
X101259339Y-61992431D01*
X101303967Y-61960377D01*
X101356398Y-61940259D01*
X101396654Y-61942559D01*
G37*
G36*
X99813836Y-61068647D02*
G01*
X99793773Y-61102223D01*
X99744895Y-61145022D01*
X99675249Y-61190393D01*
X99592883Y-61231683D01*
X99531990Y-61257927D01*
X99454841Y-61291273D01*
X99401258Y-61314548D01*
X99389819Y-61319526D01*
X99340003Y-61337893D01*
X99302232Y-61337867D01*
X99250338Y-61320476D01*
X99231341Y-61312146D01*
X99195869Y-61283995D01*
X99196777Y-61259809D01*
X99236068Y-61249536D01*
X99269513Y-61242582D01*
X99338384Y-61220596D01*
X99430287Y-61187155D01*
X99534619Y-61145939D01*
X99630193Y-61108227D01*
X99716724Y-61077101D01*
X99778810Y-61058181D01*
X99807113Y-61054600D01*
X99813836Y-61068647D01*
G37*
G36*
X98804779Y-60393977D02*
G01*
X98824172Y-60457316D01*
X98825539Y-60462875D01*
X98851332Y-60515383D01*
X98898408Y-60582312D01*
X98957304Y-60652973D01*
X99018556Y-60716678D01*
X99072703Y-60762739D01*
X99110282Y-60780468D01*
X99128913Y-60785650D01*
X99166102Y-60814899D01*
X99184253Y-60833159D01*
X99210017Y-60845811D01*
X99215397Y-60845679D01*
X99255759Y-60853006D01*
X99316971Y-60869135D01*
X99336916Y-60874608D01*
X99394485Y-60885895D01*
X99426258Y-60885053D01*
X99432321Y-60882258D01*
X99467602Y-60883693D01*
X99499056Y-60900973D01*
X99505280Y-60923646D01*
X99493268Y-60934013D01*
X99440870Y-60946392D01*
X99362716Y-60946423D01*
X99271725Y-60935352D01*
X99180819Y-60914423D01*
X99102918Y-60884881D01*
X99008884Y-60826694D01*
X98914007Y-60743726D01*
X98835014Y-60649822D01*
X98778027Y-60553687D01*
X98749168Y-60464026D01*
X98754559Y-60389543D01*
X98759717Y-60378503D01*
X98781662Y-60366117D01*
X98804779Y-60393977D01*
G37*
G36*
X102913942Y-59973135D02*
G01*
X102897391Y-60003675D01*
X102857704Y-60052779D01*
X102803978Y-60110928D01*
X102745312Y-60168600D01*
X102690803Y-60216277D01*
X102649550Y-60244437D01*
X102642909Y-60247678D01*
X102586768Y-60276366D01*
X102520557Y-60311551D01*
X102429602Y-60343701D01*
X102309476Y-60356822D01*
X102251039Y-60355269D01*
X102175650Y-60345031D01*
X102135162Y-60328456D01*
X102132372Y-60309305D01*
X102170079Y-60291339D01*
X102251080Y-60278318D01*
X102260487Y-60277389D01*
X102317901Y-60267818D01*
X102349300Y-60255941D01*
X102364125Y-60248022D01*
X102409057Y-60241041D01*
X102437918Y-60232300D01*
X102499888Y-60202049D01*
X102582472Y-60155278D01*
X102675770Y-60097320D01*
X102756363Y-60046794D01*
X102833388Y-60002235D01*
X102888378Y-59974736D01*
X102912895Y-59968867D01*
X102913942Y-59973135D01*
G37*
G36*
X102325112Y-59990872D02*
G01*
X102328781Y-59997926D01*
X102309476Y-60006507D01*
X102297060Y-60004815D01*
X102293841Y-59990872D01*
X102297278Y-59988065D01*
X102325112Y-59990872D01*
G37*
G36*
X102379836Y-59971327D02*
G01*
X102368110Y-59983054D01*
X102356383Y-59971327D01*
X102368110Y-59959600D01*
X102379836Y-59971327D01*
G37*
G36*
X105710215Y-57098289D02*
G01*
X105708522Y-57110705D01*
X105694579Y-57113925D01*
X105691772Y-57110487D01*
X105694579Y-57082654D01*
X105701634Y-57078984D01*
X105710215Y-57098289D01*
G37*
G36*
X105532958Y-56994809D02*
G01*
X105573727Y-57009441D01*
X105592948Y-57030664D01*
X105589432Y-57039156D01*
X105559408Y-57050235D01*
X105518122Y-57047624D01*
X105489430Y-57031200D01*
X105487047Y-57026588D01*
X105489404Y-56998571D01*
X105495982Y-56994622D01*
X105532958Y-56994809D01*
G37*
G36*
X104740223Y-56829928D02*
G01*
X104748627Y-56872610D01*
X104755758Y-56912087D01*
X104783807Y-56957569D01*
X104802941Y-56976782D01*
X104818987Y-57007347D01*
X104816414Y-57020583D01*
X104792204Y-57023521D01*
X104744610Y-56989114D01*
X104736389Y-56980288D01*
X104713103Y-56934455D01*
X104702185Y-56880527D01*
X104705564Y-56835621D01*
X104725173Y-56816849D01*
X104740223Y-56829928D01*
G37*
G36*
X106151515Y-56835025D02*
G01*
X106146917Y-56876605D01*
X106138403Y-56891969D01*
X106109658Y-56910662D01*
X106093324Y-56903195D01*
X106087453Y-56868525D01*
X106106350Y-56820208D01*
X106114826Y-56810068D01*
X106137587Y-56808354D01*
X106151515Y-56835025D01*
G37*
G36*
X105401173Y-56131289D02*
G01*
X105396409Y-56173004D01*
X105380742Y-56199131D01*
X105351684Y-56204843D01*
X105293918Y-56192279D01*
X105260856Y-56178211D01*
X105241148Y-56154684D01*
X105250725Y-56143035D01*
X105288110Y-56143511D01*
X105317388Y-56145148D01*
X105355224Y-56119781D01*
X105364998Y-56107091D01*
X105387398Y-56105048D01*
X105401173Y-56131289D01*
G37*
G36*
X106553728Y-55969605D02*
G01*
X106573861Y-56003589D01*
X106569620Y-56041460D01*
X106541230Y-56091539D01*
X106500060Y-56128290D01*
X106470708Y-56130202D01*
X106460723Y-56089794D01*
X106465317Y-56062521D01*
X106485204Y-56042888D01*
X106497387Y-56036263D01*
X106502794Y-56001844D01*
X106503481Y-55980861D01*
X106523984Y-55961875D01*
X106553728Y-55969605D01*
G37*
G36*
X105452228Y-56101521D02*
G01*
X105440501Y-56113248D01*
X105428774Y-56101521D01*
X105440501Y-56089794D01*
X105452228Y-56101521D01*
G37*
G36*
X104765693Y-55806419D02*
G01*
X104738674Y-55839337D01*
X104736592Y-55840951D01*
X104706101Y-55886411D01*
X104689113Y-55950498D01*
X104688256Y-55959245D01*
X104682796Y-56012240D01*
X104679764Y-56037024D01*
X104667360Y-56045582D01*
X104638768Y-56034481D01*
X104616315Y-56007517D01*
X104614297Y-55999369D01*
X104620973Y-55947191D01*
X104646178Y-55882387D01*
X104680926Y-55824310D01*
X104716231Y-55792314D01*
X104754106Y-55787204D01*
X104765693Y-55806419D01*
G37*
G36*
X97523445Y-54925728D02*
G01*
X97513962Y-54954354D01*
X97475579Y-55007170D01*
X97405846Y-55088344D01*
X97395682Y-55099604D01*
X97334492Y-55161699D01*
X97282671Y-55205461D01*
X97250527Y-55222020D01*
X97241853Y-55221782D01*
X97226617Y-55212485D01*
X97245209Y-55180976D01*
X97269940Y-55150297D01*
X97321335Y-55092537D01*
X97380413Y-55030521D01*
X97437452Y-54974069D01*
X97482728Y-54932998D01*
X97506517Y-54917126D01*
X97523445Y-54925728D01*
G37*
G36*
X97550635Y-54479644D02*
G01*
X97554781Y-54521101D01*
X97552304Y-54602410D01*
X97545746Y-54675678D01*
X97535091Y-54731569D01*
X97522987Y-54752952D01*
X97512921Y-54743187D01*
X97503960Y-54700039D01*
X97501710Y-54636375D01*
X97505734Y-54567596D01*
X97515594Y-54509100D01*
X97530852Y-54476288D01*
X97538721Y-54471307D01*
X97550635Y-54479644D01*
G37*
G36*
X99495072Y-53628943D02*
G01*
X99407988Y-53668845D01*
X99323860Y-53703913D01*
X99272265Y-53719865D01*
X99254439Y-53726805D01*
X99213631Y-53754134D01*
X99206012Y-53759972D01*
X99151284Y-53792954D01*
X99061914Y-53839893D01*
X98944850Y-53897675D01*
X98807036Y-53963186D01*
X98655419Y-54033312D01*
X98496944Y-54104941D01*
X98338557Y-54174957D01*
X98187204Y-54240247D01*
X98049830Y-54297698D01*
X97933381Y-54344196D01*
X97844804Y-54376627D01*
X97791043Y-54391876D01*
X97773478Y-54396584D01*
X97726670Y-54417206D01*
X97726436Y-54417337D01*
X97683210Y-54434029D01*
X97639027Y-54441545D01*
X97609300Y-54438865D01*
X97609442Y-54424969D01*
X97609689Y-54424740D01*
X97638329Y-54408887D01*
X97702886Y-54378223D01*
X97796252Y-54335967D01*
X97911314Y-54285338D01*
X98040963Y-54229558D01*
X98159529Y-54178778D01*
X98300968Y-54117463D01*
X98431250Y-54060239D01*
X98539681Y-54011806D01*
X98615570Y-53976866D01*
X98633194Y-53968508D01*
X98709668Y-53932593D01*
X98766147Y-53906627D01*
X98791471Y-53895757D01*
X98795469Y-53894152D01*
X98832430Y-53877150D01*
X98900934Y-53844727D01*
X98993060Y-53800647D01*
X99100889Y-53748675D01*
X99126560Y-53736392D01*
X99243421Y-53683527D01*
X99351978Y-53638935D01*
X99441084Y-53606992D01*
X99499597Y-53592075D01*
X99600612Y-53579431D01*
X99495072Y-53628943D01*
G37*
G36*
X99712945Y-53643802D02*
G01*
X99720637Y-53695576D01*
X99725433Y-53769961D01*
X99727105Y-53854061D01*
X99725429Y-53934974D01*
X99720178Y-53999803D01*
X99711126Y-54035648D01*
X99710512Y-54036449D01*
X99701508Y-54024067D01*
X99691454Y-53977749D01*
X99681634Y-53909478D01*
X99673336Y-53831236D01*
X99667845Y-53755006D01*
X99666447Y-53692769D01*
X99670429Y-53656507D01*
X99676050Y-53645656D01*
X99703977Y-53627190D01*
X99712945Y-53643802D01*
G37*
%LPC*%
D11*
X94500000Y-65200000D03*
X94500000Y-51000000D03*
D12*
X108900000Y-58275000D03*
D13*
X108900000Y-60815000D03*
D14*
X106800000Y-49900000D03*
%LPD*%
M02*
