G04 #@! TF.GenerationSoftware,KiCad,Pcbnew,8.0.8*
G04 #@! TF.CreationDate,2025-02-18T10:08:15-06:00*
G04 #@! TF.ProjectId,Tunnleing_Amp,54756e6e-6c65-4696-9e67-5f416d702e6b,rev?*
G04 #@! TF.SameCoordinates,Original*
G04 #@! TF.FileFunction,Copper,L1,Top*
G04 #@! TF.FilePolarity,Positive*
%FSLAX46Y46*%
G04 Gerber Fmt 4.6, Leading zero omitted, Abs format (unit mm)*
G04 Created by KiCad (PCBNEW 8.0.8) date 2025-02-18 10:08:15*
%MOMM*%
%LPD*%
G01*
G04 APERTURE LIST*
G04 Aperture macros list*
%AMRoundRect*
0 Rectangle with rounded corners*
0 $1 Rounding radius*
0 $2 $3 $4 $5 $6 $7 $8 $9 X,Y pos of 4 corners*
0 Add a 4 corners polygon primitive as box body*
4,1,4,$2,$3,$4,$5,$6,$7,$8,$9,$2,$3,0*
0 Add four circle primitives for the rounded corners*
1,1,$1+$1,$2,$3*
1,1,$1+$1,$4,$5*
1,1,$1+$1,$6,$7*
1,1,$1+$1,$8,$9*
0 Add four rect primitives between the rounded corners*
20,1,$1+$1,$2,$3,$4,$5,0*
20,1,$1+$1,$4,$5,$6,$7,0*
20,1,$1+$1,$6,$7,$8,$9,0*
20,1,$1+$1,$8,$9,$2,$3,0*%
G04 Aperture macros list end*
G04 #@! TA.AperFunction,SMDPad,CuDef*
%ADD10R,2.350000X2.250000*%
G04 #@! TD*
G04 #@! TA.AperFunction,SMDPad,CuDef*
%ADD11RoundRect,0.140000X-0.170000X0.140000X-0.170000X-0.140000X0.170000X-0.140000X0.170000X0.140000X0*%
G04 #@! TD*
G04 #@! TA.AperFunction,SMDPad,CuDef*
%ADD12R,0.650000X1.528000*%
G04 #@! TD*
G04 #@! TA.AperFunction,SMDPad,CuDef*
%ADD13RoundRect,0.200000X-0.200000X-0.275000X0.200000X-0.275000X0.200000X0.275000X-0.200000X0.275000X0*%
G04 #@! TD*
G04 #@! TA.AperFunction,SMDPad,CuDef*
%ADD14RoundRect,0.140000X0.170000X-0.140000X0.170000X0.140000X-0.170000X0.140000X-0.170000X-0.140000X0*%
G04 #@! TD*
G04 #@! TA.AperFunction,ComponentPad*
%ADD15R,1.700000X1.700000*%
G04 #@! TD*
G04 #@! TA.AperFunction,ComponentPad*
%ADD16O,1.700000X1.700000*%
G04 #@! TD*
G04 #@! TA.AperFunction,ComponentPad*
%ADD17R,0.850000X0.850000*%
G04 #@! TD*
G04 #@! TA.AperFunction,ViaPad*
%ADD18C,0.600000*%
G04 #@! TD*
G04 #@! TA.AperFunction,ViaPad*
%ADD19C,1.000000*%
G04 #@! TD*
G04 #@! TA.AperFunction,Conductor*
%ADD20C,0.500000*%
G04 #@! TD*
G04 #@! TA.AperFunction,Conductor*
%ADD21C,0.300000*%
G04 #@! TD*
G04 #@! TA.AperFunction,Conductor*
%ADD22C,0.150000*%
G04 #@! TD*
G04 #@! TA.AperFunction,Conductor*
%ADD23C,0.200000*%
G04 #@! TD*
G04 APERTURE END LIST*
D10*
X109350000Y-65700000D03*
X104450000Y-65700000D03*
D11*
X105900000Y-56270000D03*
X105900000Y-57230000D03*
D12*
X100095000Y-62311000D03*
X101365000Y-62311000D03*
X102635000Y-62311000D03*
X103905000Y-62311000D03*
X103905000Y-56889000D03*
X102635000Y-56889000D03*
X101365000Y-56889000D03*
X100095000Y-56889000D03*
D13*
X100075000Y-52500000D03*
X101725000Y-52500000D03*
D14*
X105900000Y-62930000D03*
X105900000Y-61970000D03*
D10*
X104450000Y-53500000D03*
X109350000Y-53500000D03*
D13*
X101725000Y-49900000D03*
X103375000Y-49900000D03*
D15*
X108900000Y-58275000D03*
D16*
X108900000Y-60815000D03*
D17*
X106800000Y-49900000D03*
D18*
X101100000Y-53850000D03*
X101100000Y-54700000D03*
X101100000Y-55700000D03*
X101365000Y-58300000D03*
X100550000Y-58300000D03*
X99700000Y-58300000D03*
X98800000Y-58300000D03*
X98500000Y-57500000D03*
X97600000Y-57500000D03*
X96600000Y-57500000D03*
X95900000Y-57800000D03*
X94900000Y-57800000D03*
X94300000Y-56900000D03*
X94900000Y-56000000D03*
X95800000Y-55950000D03*
X96600000Y-56300000D03*
X97600000Y-56300000D03*
X98500000Y-56300000D03*
X99300000Y-55600000D03*
X99300000Y-54700000D03*
X98900000Y-52200000D03*
X100700000Y-51600000D03*
X99800000Y-51350000D03*
X105800000Y-58800000D03*
X98900000Y-53100000D03*
X105900000Y-61970000D03*
X105900000Y-57230000D03*
X109800000Y-56000000D03*
X101365000Y-56889000D03*
X99300000Y-53800000D03*
X105200000Y-61150000D03*
X105200000Y-58050000D03*
X98900000Y-51400000D03*
X109800000Y-63200000D03*
X100095000Y-62311000D03*
X106450000Y-59600000D03*
X109350000Y-65700000D03*
X105800000Y-60400000D03*
X109350000Y-53500000D03*
X108200000Y-56000000D03*
X108200000Y-63200000D03*
D19*
X95400000Y-56900000D03*
D20*
X106895000Y-56270000D02*
X108900000Y-58275000D01*
X105900000Y-56270000D02*
X106895000Y-56270000D01*
X106785000Y-62930000D02*
X108900000Y-60815000D01*
X105900000Y-62930000D02*
X106785000Y-62930000D01*
X103905000Y-65155000D02*
X104450000Y-65700000D01*
X103905000Y-62311000D02*
X103905000Y-65155000D01*
D21*
X101365000Y-62311000D02*
X101365000Y-56889000D01*
D20*
X104524000Y-56270000D02*
X103905000Y-56889000D01*
X103905000Y-56889000D02*
X103905000Y-54045000D01*
X105900000Y-56270000D02*
X104524000Y-56270000D01*
X103905000Y-54045000D02*
X104450000Y-53500000D01*
X103905000Y-62311000D02*
X104524000Y-62930000D01*
X104524000Y-62930000D02*
X105900000Y-62930000D01*
D22*
X102635000Y-53410000D02*
X101725000Y-52500000D01*
X101725000Y-52500000D02*
X102000000Y-52775000D01*
X102635000Y-56889000D02*
X102635000Y-53410000D01*
D23*
X101725000Y-49900000D02*
X101725000Y-52500000D01*
D22*
X95400000Y-56900000D02*
X100000000Y-56900000D01*
X100075000Y-56869000D02*
X100095000Y-56889000D01*
X100075000Y-52500000D02*
X100075000Y-56869000D01*
X100011000Y-56889000D02*
X100095000Y-56889000D01*
X100000000Y-56900000D02*
X100011000Y-56889000D01*
D23*
X103375000Y-49900000D02*
X106800000Y-49900000D01*
G04 #@! TA.AperFunction,Conductor*
G36*
X111296132Y-48403868D02*
G01*
X111299500Y-48412000D01*
X111299500Y-67788000D01*
X111296132Y-67796132D01*
X111288000Y-67799500D01*
X91912000Y-67799500D01*
X91903868Y-67796132D01*
X91900500Y-67788000D01*
X91900500Y-65100793D01*
X93239500Y-65100793D01*
X93239500Y-65299206D01*
X93270536Y-65495165D01*
X93331847Y-65683860D01*
X93331848Y-65683863D01*
X93331849Y-65683864D01*
X93421923Y-65860646D01*
X93538544Y-66021161D01*
X93678839Y-66161456D01*
X93839354Y-66278077D01*
X94016136Y-66368151D01*
X94204832Y-66429463D01*
X94302814Y-66444981D01*
X94400794Y-66460500D01*
X94400796Y-66460500D01*
X94599206Y-66460500D01*
X94677589Y-66448085D01*
X94795168Y-66429463D01*
X94983864Y-66368151D01*
X95160646Y-66278077D01*
X95321161Y-66161456D01*
X95461456Y-66021161D01*
X95578077Y-65860646D01*
X95668151Y-65683864D01*
X95729463Y-65495168D01*
X95760500Y-65299204D01*
X95760500Y-65100796D01*
X95729463Y-64904832D01*
X95668151Y-64716136D01*
X95578077Y-64539354D01*
X95461456Y-64378839D01*
X95321161Y-64238544D01*
X95160646Y-64121923D01*
X94983864Y-64031849D01*
X94983863Y-64031848D01*
X94983860Y-64031847D01*
X94795165Y-63970536D01*
X94599206Y-63939500D01*
X94599204Y-63939500D01*
X94400796Y-63939500D01*
X94400794Y-63939500D01*
X94204834Y-63970536D01*
X94016139Y-64031847D01*
X93839352Y-64121924D01*
X93678839Y-64238544D01*
X93538544Y-64378839D01*
X93421924Y-64539352D01*
X93331847Y-64716139D01*
X93270536Y-64904834D01*
X93239500Y-65100793D01*
X91900500Y-65100793D01*
X91900500Y-56404322D01*
X93694500Y-56404322D01*
X93694500Y-57495746D01*
X93699820Y-57525454D01*
X93700000Y-57527481D01*
X93700000Y-57600000D01*
X94400000Y-58400000D01*
X94476504Y-58400000D01*
X94478747Y-58400221D01*
X94505289Y-58405500D01*
X97400736Y-58405500D01*
X97408868Y-58408868D01*
X97900000Y-58900000D01*
X98075979Y-58900000D01*
X98078222Y-58900221D01*
X98104764Y-58905500D01*
X101003000Y-58905500D01*
X101011132Y-58908868D01*
X101014500Y-58917000D01*
X101014500Y-61238500D01*
X101011132Y-61246632D01*
X101003000Y-61250000D01*
X99400000Y-61250000D01*
X99400000Y-63400000D01*
X103443000Y-63400000D01*
X103451132Y-63403368D01*
X103454500Y-63411500D01*
X103454500Y-64363000D01*
X103451132Y-64371132D01*
X103443000Y-64374500D01*
X103255252Y-64374500D01*
X103231988Y-64379127D01*
X103196771Y-64386132D01*
X103196767Y-64386134D01*
X103130449Y-64430446D01*
X103130446Y-64430449D01*
X103086134Y-64496767D01*
X103086132Y-64496771D01*
X103077663Y-64539352D01*
X103074500Y-64555252D01*
X103074500Y-66844748D01*
X103086133Y-66903231D01*
X103086134Y-66903232D01*
X103130446Y-66969550D01*
X103130448Y-66969552D01*
X103196769Y-67013867D01*
X103255252Y-67025500D01*
X103255254Y-67025500D01*
X105644746Y-67025500D01*
X105644748Y-67025500D01*
X105703231Y-67013867D01*
X105769552Y-66969552D01*
X105813867Y-66903231D01*
X105825500Y-66844748D01*
X105825500Y-65950001D01*
X107975000Y-65950001D01*
X107975000Y-66844697D01*
X107986603Y-66903032D01*
X107986605Y-66903037D01*
X108030806Y-66969190D01*
X108030809Y-66969193D01*
X108096962Y-67013394D01*
X108096967Y-67013396D01*
X108155303Y-67025000D01*
X109099999Y-67025000D01*
X109100000Y-67024999D01*
X109100000Y-65950001D01*
X109600000Y-65950001D01*
X109600000Y-67024999D01*
X109600001Y-67025000D01*
X110544697Y-67025000D01*
X110603032Y-67013396D01*
X110603037Y-67013394D01*
X110669190Y-66969193D01*
X110669193Y-66969190D01*
X110713394Y-66903037D01*
X110713396Y-66903032D01*
X110725000Y-66844697D01*
X110725000Y-65950001D01*
X110724999Y-65950000D01*
X109600001Y-65950000D01*
X109600000Y-65950001D01*
X109100000Y-65950001D01*
X109099999Y-65950000D01*
X107975001Y-65950000D01*
X107975000Y-65950001D01*
X105825500Y-65950001D01*
X105825500Y-64555302D01*
X107975000Y-64555302D01*
X107975000Y-65449999D01*
X107975001Y-65450000D01*
X109099999Y-65450000D01*
X109100000Y-65449999D01*
X109100000Y-64375001D01*
X109600000Y-64375001D01*
X109600000Y-65449999D01*
X109600001Y-65450000D01*
X110724999Y-65450000D01*
X110725000Y-65449999D01*
X110725000Y-64555302D01*
X110713396Y-64496967D01*
X110713394Y-64496962D01*
X110669193Y-64430809D01*
X110669190Y-64430806D01*
X110603037Y-64386605D01*
X110603032Y-64386603D01*
X110544697Y-64375000D01*
X109600001Y-64375000D01*
X109600000Y-64375001D01*
X109100000Y-64375001D01*
X109099999Y-64375000D01*
X108155303Y-64375000D01*
X108096967Y-64386603D01*
X108096962Y-64386605D01*
X108030809Y-64430806D01*
X108030806Y-64430809D01*
X107986605Y-64496962D01*
X107986603Y-64496967D01*
X107975000Y-64555302D01*
X105825500Y-64555302D01*
X105825500Y-64555252D01*
X105813867Y-64496769D01*
X105784323Y-64452555D01*
X105769553Y-64430449D01*
X105769550Y-64430446D01*
X105703232Y-64386134D01*
X105703233Y-64386134D01*
X105703231Y-64386133D01*
X105703229Y-64386132D01*
X105703228Y-64386132D01*
X105673788Y-64380276D01*
X105644748Y-64374500D01*
X105644746Y-64374500D01*
X104367000Y-64374500D01*
X104358868Y-64371132D01*
X104355500Y-64363000D01*
X104355500Y-63411500D01*
X104358868Y-63403368D01*
X104367000Y-63400000D01*
X104499999Y-63400000D01*
X104500000Y-63400000D01*
X104500000Y-63392000D01*
X104503368Y-63383868D01*
X104511500Y-63380500D01*
X105587627Y-63380500D01*
X105592486Y-63381576D01*
X105640513Y-63403972D01*
X105690099Y-63410500D01*
X106109900Y-63410499D01*
X106159487Y-63403972D01*
X106207513Y-63381576D01*
X106212373Y-63380500D01*
X106844309Y-63380500D01*
X106946104Y-63353224D01*
X106958887Y-63349799D01*
X107061614Y-63290489D01*
X108541678Y-61810424D01*
X108549809Y-61807057D01*
X108553141Y-61807551D01*
X108694066Y-61850300D01*
X108900000Y-61870583D01*
X109105934Y-61850300D01*
X109303954Y-61790232D01*
X109486450Y-61692685D01*
X109646410Y-61561410D01*
X109777685Y-61401450D01*
X109875232Y-61218954D01*
X109935300Y-61020934D01*
X109955583Y-60815000D01*
X109935300Y-60609066D01*
X109875232Y-60411046D01*
X109777685Y-60228550D01*
X109646410Y-60068590D01*
X109486450Y-59937315D01*
X109486448Y-59937314D01*
X109486447Y-59937313D01*
X109303957Y-59839769D01*
X109303947Y-59839766D01*
X109105938Y-59779701D01*
X109105936Y-59779700D01*
X109105934Y-59779700D01*
X108900000Y-59759417D01*
X108694066Y-59779700D01*
X108694063Y-59779700D01*
X108694061Y-59779701D01*
X108496052Y-59839766D01*
X108496042Y-59839769D01*
X108313552Y-59937313D01*
X108153590Y-60068590D01*
X108022313Y-60228552D01*
X107924769Y-60411042D01*
X107924766Y-60411052D01*
X107864701Y-60609061D01*
X107864700Y-60609063D01*
X107864700Y-60609066D01*
X107844417Y-60815000D01*
X107864700Y-61020934D01*
X107864700Y-61020936D01*
X107864701Y-61020938D01*
X107907446Y-61161851D01*
X107906583Y-61170610D01*
X107904573Y-61173321D01*
X106601765Y-62476132D01*
X106593633Y-62479500D01*
X106212373Y-62479500D01*
X106207513Y-62478423D01*
X106168318Y-62460146D01*
X106162372Y-62453656D01*
X106162755Y-62444863D01*
X106168318Y-62439300D01*
X106268023Y-62392807D01*
X106352807Y-62308023D01*
X106393854Y-62220000D01*
X105406146Y-62220000D01*
X105447192Y-62308023D01*
X105531976Y-62392807D01*
X105631681Y-62439300D01*
X105637627Y-62445790D01*
X105637244Y-62454583D01*
X105631681Y-62460145D01*
X105592487Y-62478422D01*
X105587627Y-62479500D01*
X104715367Y-62479500D01*
X104707235Y-62476132D01*
X104503368Y-62272265D01*
X104500000Y-62264133D01*
X104500000Y-61720000D01*
X105406146Y-61720000D01*
X105649999Y-61720000D01*
X105650000Y-61719999D01*
X106150000Y-61719999D01*
X106150001Y-61720000D01*
X106393853Y-61720000D01*
X106352807Y-61631976D01*
X106268023Y-61547192D01*
X106159354Y-61496518D01*
X106150000Y-61495287D01*
X106150000Y-61719999D01*
X105650000Y-61719999D01*
X105650000Y-61495287D01*
X105640645Y-61496518D01*
X105531976Y-61547192D01*
X105447192Y-61631976D01*
X105406146Y-61720000D01*
X104500000Y-61720000D01*
X104500000Y-61250001D01*
X104500000Y-61250000D01*
X104499999Y-61250000D01*
X101727000Y-61250000D01*
X101718868Y-61246632D01*
X101715500Y-61238500D01*
X101715500Y-58911500D01*
X101718868Y-58903368D01*
X101727000Y-58900000D01*
X101799999Y-58900000D01*
X101800000Y-58900000D01*
X101800000Y-58717283D01*
X101800221Y-58715040D01*
X101805500Y-58688499D01*
X101805500Y-58542759D01*
X101806539Y-58537982D01*
X101850165Y-58442457D01*
X101870647Y-58300000D01*
X101850165Y-58157543D01*
X101806539Y-58062016D01*
X101805500Y-58057239D01*
X101805500Y-58011500D01*
X101808868Y-58003368D01*
X101817000Y-58000000D01*
X104499999Y-58000000D01*
X104500000Y-58000000D01*
X104500000Y-57480000D01*
X105406146Y-57480000D01*
X105447192Y-57568023D01*
X105531976Y-57652807D01*
X105640645Y-57703481D01*
X105650000Y-57704711D01*
X105650000Y-57480001D01*
X106150000Y-57480001D01*
X106150000Y-57704710D01*
X106159354Y-57703481D01*
X106268023Y-57652807D01*
X106352807Y-57568023D01*
X106393854Y-57480000D01*
X106150001Y-57480000D01*
X106150000Y-57480001D01*
X105650000Y-57480001D01*
X105649999Y-57480000D01*
X105406146Y-57480000D01*
X104500000Y-57480000D01*
X104500000Y-56935867D01*
X104503368Y-56927735D01*
X104707235Y-56723868D01*
X104715367Y-56720500D01*
X105587627Y-56720500D01*
X105592486Y-56721576D01*
X105631681Y-56739854D01*
X105637627Y-56746343D01*
X105637244Y-56755136D01*
X105631681Y-56760699D01*
X105531976Y-56807192D01*
X105447192Y-56891976D01*
X105406146Y-56980000D01*
X106393853Y-56980000D01*
X106352807Y-56891976D01*
X106268023Y-56807192D01*
X106168318Y-56760699D01*
X106162372Y-56754209D01*
X106162755Y-56745416D01*
X106168316Y-56739854D01*
X106207513Y-56721576D01*
X106212373Y-56720500D01*
X106703633Y-56720500D01*
X106711765Y-56723868D01*
X107846132Y-57858235D01*
X107849500Y-57866367D01*
X107849500Y-59144748D01*
X107861133Y-59203231D01*
X107861134Y-59203232D01*
X107905446Y-59269550D01*
X107905448Y-59269552D01*
X107971769Y-59313867D01*
X108030252Y-59325500D01*
X108030254Y-59325500D01*
X109769746Y-59325500D01*
X109769748Y-59325500D01*
X109828231Y-59313867D01*
X109894552Y-59269552D01*
X109938867Y-59203231D01*
X109950500Y-59144748D01*
X109950500Y-57405252D01*
X109938867Y-57346769D01*
X109894552Y-57280448D01*
X109894550Y-57280446D01*
X109828232Y-57236134D01*
X109828233Y-57236134D01*
X109828231Y-57236133D01*
X109828229Y-57236132D01*
X109828228Y-57236132D01*
X109798788Y-57230276D01*
X109769748Y-57224500D01*
X109769746Y-57224500D01*
X108491367Y-57224500D01*
X108483235Y-57221132D01*
X107171613Y-55909510D01*
X107068891Y-55850203D01*
X107068889Y-55850202D01*
X107068887Y-55850201D01*
X107068883Y-55850200D01*
X107068881Y-55850199D01*
X107039985Y-55842457D01*
X106954309Y-55819500D01*
X106212373Y-55819500D01*
X106207513Y-55818423D01*
X106159487Y-55796028D01*
X106109901Y-55789500D01*
X106109900Y-55789500D01*
X105690103Y-55789500D01*
X105690097Y-55789501D01*
X105652909Y-55794396D01*
X105640513Y-55796028D01*
X105592487Y-55818423D01*
X105587627Y-55819500D01*
X104464691Y-55819500D01*
X104379015Y-55842457D01*
X104379014Y-55842457D01*
X104369975Y-55844878D01*
X104361249Y-55843729D01*
X104355892Y-55836745D01*
X104355500Y-55833770D01*
X104355500Y-54837000D01*
X104358868Y-54828868D01*
X104367000Y-54825500D01*
X105644746Y-54825500D01*
X105644748Y-54825500D01*
X105703231Y-54813867D01*
X105769552Y-54769552D01*
X105813867Y-54703231D01*
X105825500Y-54644748D01*
X105825500Y-53750001D01*
X107975000Y-53750001D01*
X107975000Y-54644697D01*
X107986603Y-54703032D01*
X107986605Y-54703037D01*
X108030806Y-54769190D01*
X108030809Y-54769193D01*
X108096962Y-54813394D01*
X108096967Y-54813396D01*
X108155303Y-54825000D01*
X109099999Y-54825000D01*
X109100000Y-54824999D01*
X109100000Y-53750001D01*
X109600000Y-53750001D01*
X109600000Y-54824999D01*
X109600001Y-54825000D01*
X110544697Y-54825000D01*
X110603032Y-54813396D01*
X110603037Y-54813394D01*
X110669190Y-54769193D01*
X110669193Y-54769190D01*
X110713394Y-54703037D01*
X110713396Y-54703032D01*
X110725000Y-54644697D01*
X110725000Y-53750001D01*
X110724999Y-53750000D01*
X109600001Y-53750000D01*
X109600000Y-53750001D01*
X109100000Y-53750001D01*
X109099999Y-53750000D01*
X107975001Y-53750000D01*
X107975000Y-53750001D01*
X105825500Y-53750001D01*
X105825500Y-52355302D01*
X107975000Y-52355302D01*
X107975000Y-53249999D01*
X107975001Y-53250000D01*
X109099999Y-53250000D01*
X109100000Y-53249999D01*
X109100000Y-52175001D01*
X109600000Y-52175001D01*
X109600000Y-53249999D01*
X109600001Y-53250000D01*
X110724999Y-53250000D01*
X110725000Y-53249999D01*
X110725000Y-52355302D01*
X110713396Y-52296967D01*
X110713394Y-52296962D01*
X110669193Y-52230809D01*
X110669190Y-52230806D01*
X110603037Y-52186605D01*
X110603032Y-52186603D01*
X110544697Y-52175000D01*
X109600001Y-52175000D01*
X109600000Y-52175001D01*
X109100000Y-52175001D01*
X109099999Y-52175000D01*
X108155303Y-52175000D01*
X108096967Y-52186603D01*
X108096962Y-52186605D01*
X108030809Y-52230806D01*
X108030806Y-52230809D01*
X107986605Y-52296962D01*
X107986603Y-52296967D01*
X107975000Y-52355302D01*
X105825500Y-52355302D01*
X105825500Y-52355252D01*
X105813867Y-52296769D01*
X105784323Y-52252555D01*
X105769553Y-52230449D01*
X105769550Y-52230446D01*
X105703232Y-52186134D01*
X105703233Y-52186134D01*
X105703231Y-52186133D01*
X105703229Y-52186132D01*
X105703228Y-52186132D01*
X105673788Y-52180276D01*
X105644748Y-52174500D01*
X103255252Y-52174500D01*
X103231988Y-52179127D01*
X103196771Y-52186132D01*
X103196767Y-52186134D01*
X103130449Y-52230446D01*
X103130446Y-52230449D01*
X103086134Y-52296767D01*
X103086132Y-52296771D01*
X103074500Y-52355253D01*
X103074500Y-53238500D01*
X103071132Y-53246632D01*
X103063000Y-53250000D01*
X102869380Y-53250000D01*
X102861248Y-53246632D01*
X102503368Y-52888752D01*
X102500000Y-52880620D01*
X102500000Y-51850001D01*
X102500000Y-51850000D01*
X102499999Y-51850000D01*
X102073960Y-51850000D01*
X102068739Y-51848747D01*
X102050300Y-51839352D01*
X102035201Y-51836961D01*
X102027696Y-51832362D01*
X102025500Y-51825603D01*
X102025500Y-50574395D01*
X102028868Y-50566263D01*
X102035197Y-50563038D01*
X102050304Y-50560646D01*
X102163342Y-50503050D01*
X102253050Y-50413342D01*
X102310646Y-50300304D01*
X102325500Y-50206519D01*
X102325499Y-49593482D01*
X102325498Y-49593478D01*
X102774500Y-49593478D01*
X102774500Y-50206520D01*
X102789352Y-50300297D01*
X102789353Y-50300300D01*
X102789354Y-50300304D01*
X102846950Y-50413342D01*
X102936658Y-50503050D01*
X103049696Y-50560646D01*
X103143481Y-50575500D01*
X103606518Y-50575499D01*
X103606520Y-50575499D01*
X103685213Y-50563036D01*
X103700304Y-50560646D01*
X103813342Y-50503050D01*
X103903050Y-50413342D01*
X103960646Y-50300304D01*
X103974917Y-50210201D01*
X103979515Y-50202696D01*
X103986275Y-50200500D01*
X106163000Y-50200500D01*
X106171132Y-50203868D01*
X106174500Y-50212000D01*
X106174500Y-50344748D01*
X106186133Y-50403231D01*
X106186134Y-50403232D01*
X106230446Y-50469550D01*
X106230448Y-50469552D01*
X106296769Y-50513867D01*
X106355252Y-50525500D01*
X106355254Y-50525500D01*
X107244746Y-50525500D01*
X107244748Y-50525500D01*
X107303231Y-50513867D01*
X107369552Y-50469552D01*
X107413867Y-50403231D01*
X107425500Y-50344748D01*
X107425500Y-49455252D01*
X107413867Y-49396769D01*
X107369552Y-49330448D01*
X107369550Y-49330446D01*
X107325338Y-49300904D01*
X107303231Y-49286133D01*
X107303229Y-49286132D01*
X107303228Y-49286132D01*
X107273788Y-49280276D01*
X107244748Y-49274500D01*
X106355252Y-49274500D01*
X106331988Y-49279127D01*
X106296771Y-49286132D01*
X106296767Y-49286134D01*
X106230449Y-49330446D01*
X106230446Y-49330449D01*
X106186134Y-49396767D01*
X106186132Y-49396771D01*
X106174500Y-49455253D01*
X106174500Y-49588000D01*
X106171132Y-49596132D01*
X106163000Y-49599500D01*
X103986274Y-49599500D01*
X103978142Y-49596132D01*
X103974916Y-49589799D01*
X103960647Y-49499702D01*
X103960646Y-49499699D01*
X103960646Y-49499696D01*
X103903050Y-49386658D01*
X103813342Y-49296950D01*
X103700304Y-49239354D01*
X103700301Y-49239353D01*
X103700300Y-49239353D01*
X103700297Y-49239352D01*
X103606521Y-49224500D01*
X103143479Y-49224500D01*
X103049702Y-49239352D01*
X103049699Y-49239353D01*
X103049697Y-49239353D01*
X103049696Y-49239354D01*
X102992140Y-49268680D01*
X102936657Y-49296950D01*
X102846950Y-49386657D01*
X102841799Y-49396767D01*
X102789354Y-49499696D01*
X102789353Y-49499697D01*
X102789353Y-49499699D01*
X102789352Y-49499702D01*
X102774500Y-49593478D01*
X102325498Y-49593478D01*
X102310647Y-49499702D01*
X102310646Y-49499699D01*
X102310646Y-49499696D01*
X102253050Y-49386658D01*
X102163342Y-49296950D01*
X102050304Y-49239354D01*
X102050301Y-49239353D01*
X102050300Y-49239353D01*
X102050297Y-49239352D01*
X101956521Y-49224500D01*
X101493479Y-49224500D01*
X101399702Y-49239352D01*
X101399699Y-49239353D01*
X101399697Y-49239353D01*
X101399696Y-49239354D01*
X101342140Y-49268680D01*
X101286657Y-49296950D01*
X101196950Y-49386657D01*
X101191799Y-49396767D01*
X101139354Y-49499696D01*
X101139353Y-49499697D01*
X101139353Y-49499699D01*
X101139352Y-49499702D01*
X101124500Y-49593478D01*
X101124500Y-50206520D01*
X101139352Y-50300297D01*
X101139353Y-50300300D01*
X101139354Y-50300304D01*
X101196950Y-50413342D01*
X101286658Y-50503050D01*
X101399696Y-50560646D01*
X101414801Y-50563038D01*
X101422303Y-50567635D01*
X101424500Y-50574395D01*
X101424500Y-51825603D01*
X101421132Y-51833735D01*
X101414799Y-51836961D01*
X101399699Y-51839352D01*
X101381261Y-51848747D01*
X101376040Y-51850000D01*
X101153945Y-51850000D01*
X101145813Y-51846632D01*
X101142445Y-51838500D01*
X101143483Y-51833725D01*
X101185165Y-51742457D01*
X101205647Y-51600000D01*
X101185165Y-51457543D01*
X101125377Y-51326627D01*
X101125376Y-51326625D01*
X101031128Y-51217857D01*
X101031124Y-51217854D01*
X100910054Y-51140047D01*
X100888783Y-51133801D01*
X100885123Y-51131967D01*
X100226370Y-50637901D01*
X100168044Y-50607342D01*
X100161159Y-50605048D01*
X100161155Y-50605047D01*
X100161152Y-50605046D01*
X100161147Y-50605045D01*
X100161142Y-50605044D01*
X100096173Y-50594500D01*
X100096167Y-50594500D01*
X98706155Y-50594500D01*
X98685929Y-50595498D01*
X98683665Y-50595722D01*
X98674961Y-50596770D01*
X98668516Y-50599239D01*
X98664403Y-50600000D01*
X98600000Y-50600000D01*
X98561708Y-50654700D01*
X98560427Y-50656228D01*
X98525602Y-50691127D01*
X98525600Y-50691129D01*
X98313487Y-51009297D01*
X98313339Y-51009513D01*
X97900000Y-51599999D01*
X97900000Y-51665482D01*
X97899876Y-51667166D01*
X97894500Y-51703480D01*
X97894500Y-54510116D01*
X97891132Y-54518248D01*
X97018248Y-55391132D01*
X97010116Y-55394500D01*
X94605191Y-55394500D01*
X94598542Y-55394608D01*
X94597743Y-55394634D01*
X94577750Y-55399654D01*
X94574950Y-55400000D01*
X94500000Y-55400000D01*
X93700000Y-56299998D01*
X93700000Y-56372993D01*
X93699815Y-56375047D01*
X93694500Y-56404322D01*
X91900500Y-56404322D01*
X91900500Y-50900793D01*
X93239500Y-50900793D01*
X93239500Y-51099206D01*
X93270536Y-51295165D01*
X93331847Y-51483860D01*
X93331848Y-51483863D01*
X93331849Y-51483864D01*
X93421923Y-51660646D01*
X93538544Y-51821161D01*
X93678839Y-51961456D01*
X93839354Y-52078077D01*
X94016136Y-52168151D01*
X94204832Y-52229463D01*
X94302814Y-52244981D01*
X94400794Y-52260500D01*
X94400796Y-52260500D01*
X94599206Y-52260500D01*
X94677589Y-52248085D01*
X94795168Y-52229463D01*
X94983864Y-52168151D01*
X95160646Y-52078077D01*
X95321161Y-51961456D01*
X95461456Y-51821161D01*
X95578077Y-51660646D01*
X95668151Y-51483864D01*
X95729463Y-51295168D01*
X95754031Y-51140047D01*
X95760500Y-51099206D01*
X95760500Y-50900793D01*
X95729463Y-50704834D01*
X95729463Y-50704832D01*
X95668151Y-50516136D01*
X95578077Y-50339354D01*
X95461456Y-50178839D01*
X95321161Y-50038544D01*
X95160646Y-49921923D01*
X94983864Y-49831849D01*
X94983863Y-49831848D01*
X94983860Y-49831847D01*
X94795165Y-49770536D01*
X94599206Y-49739500D01*
X94599204Y-49739500D01*
X94400796Y-49739500D01*
X94400794Y-49739500D01*
X94204834Y-49770536D01*
X94016139Y-49831847D01*
X93839352Y-49921924D01*
X93678839Y-50038544D01*
X93538544Y-50178839D01*
X93421924Y-50339352D01*
X93331847Y-50516139D01*
X93270536Y-50704834D01*
X93239500Y-50900793D01*
X91900500Y-50900793D01*
X91900500Y-48412000D01*
X91903868Y-48403868D01*
X91912000Y-48400500D01*
X111288000Y-48400500D01*
X111296132Y-48403868D01*
G37*
G04 #@! TD.AperFunction*
G04 #@! TA.AperFunction,Conductor*
G36*
X100103067Y-50802300D02*
G01*
X100895400Y-51396550D01*
X100899884Y-51404124D01*
X100900000Y-51405750D01*
X100900000Y-53200000D01*
X100900001Y-53200001D01*
X101595184Y-53696560D01*
X101599844Y-53704027D01*
X101600000Y-53705918D01*
X101600000Y-58688500D01*
X101596632Y-58696632D01*
X101588500Y-58700000D01*
X98104764Y-58700000D01*
X98096632Y-58696632D01*
X98088500Y-58688500D01*
X97600000Y-58200000D01*
X94505289Y-58200000D01*
X94497157Y-58196632D01*
X94496558Y-58195984D01*
X93902769Y-57503230D01*
X93900000Y-57495746D01*
X93900000Y-56899998D01*
X94694355Y-56899998D01*
X94694355Y-56900001D01*
X94714859Y-57068869D01*
X94714859Y-57068870D01*
X94714860Y-57068872D01*
X94775182Y-57227930D01*
X94871817Y-57367929D01*
X94871819Y-57367931D01*
X94871821Y-57367933D01*
X94944577Y-57432389D01*
X94999148Y-57480734D01*
X95149775Y-57559790D01*
X95314944Y-57600500D01*
X95314947Y-57600500D01*
X95485053Y-57600500D01*
X95485056Y-57600500D01*
X95650225Y-57559790D01*
X95800852Y-57480734D01*
X95928183Y-57367929D01*
X96024818Y-57227930D01*
X96041887Y-57182921D01*
X96047920Y-57176513D01*
X96052640Y-57175500D01*
X99558000Y-57175500D01*
X99566132Y-57178868D01*
X99569500Y-57187000D01*
X99569500Y-57672748D01*
X99581133Y-57731231D01*
X99581134Y-57731232D01*
X99625446Y-57797550D01*
X99625448Y-57797552D01*
X99691769Y-57841867D01*
X99750252Y-57853500D01*
X99750254Y-57853500D01*
X100439746Y-57853500D01*
X100439748Y-57853500D01*
X100498231Y-57841867D01*
X100564552Y-57797552D01*
X100608867Y-57731231D01*
X100620500Y-57672748D01*
X100620500Y-57139001D01*
X100840000Y-57139001D01*
X100840000Y-57672697D01*
X100851603Y-57731032D01*
X100851605Y-57731037D01*
X100895806Y-57797190D01*
X100895809Y-57797193D01*
X100961962Y-57841394D01*
X100961967Y-57841396D01*
X101020303Y-57853000D01*
X101114999Y-57853000D01*
X101115000Y-57852999D01*
X101115000Y-57139001D01*
X101114999Y-57139000D01*
X100840001Y-57139000D01*
X100840000Y-57139001D01*
X100620500Y-57139001D01*
X100620500Y-56105302D01*
X100840000Y-56105302D01*
X100840000Y-56638999D01*
X100840001Y-56639000D01*
X101114999Y-56639000D01*
X101115000Y-56638999D01*
X101115000Y-55925001D01*
X101114999Y-55925000D01*
X101020303Y-55925000D01*
X100961967Y-55936603D01*
X100961962Y-55936605D01*
X100895809Y-55980806D01*
X100895806Y-55980809D01*
X100851605Y-56046962D01*
X100851603Y-56046967D01*
X100840000Y-56105302D01*
X100620500Y-56105302D01*
X100620500Y-56105252D01*
X100608867Y-56046769D01*
X100579323Y-56002555D01*
X100564553Y-55980449D01*
X100564550Y-55980446D01*
X100498232Y-55936134D01*
X100498233Y-55936134D01*
X100498231Y-55936133D01*
X100498229Y-55936132D01*
X100498228Y-55936132D01*
X100468788Y-55930276D01*
X100439748Y-55924500D01*
X100439746Y-55924500D01*
X100362000Y-55924500D01*
X100353868Y-55921132D01*
X100350500Y-55913000D01*
X100350500Y-53178354D01*
X100353868Y-53170222D01*
X100360197Y-53166997D01*
X100400304Y-53160646D01*
X100513342Y-53103050D01*
X100603050Y-53013342D01*
X100660646Y-52900304D01*
X100675500Y-52806519D01*
X100675499Y-52193482D01*
X100675498Y-52193478D01*
X100660647Y-52099702D01*
X100660646Y-52099699D01*
X100660646Y-52099696D01*
X100603050Y-51986658D01*
X100513342Y-51896950D01*
X100400304Y-51839354D01*
X100400301Y-51839353D01*
X100400300Y-51839353D01*
X100400297Y-51839352D01*
X100306521Y-51824500D01*
X99843479Y-51824500D01*
X99749702Y-51839352D01*
X99749699Y-51839353D01*
X99749697Y-51839353D01*
X99749696Y-51839354D01*
X99692140Y-51868680D01*
X99636657Y-51896950D01*
X99546950Y-51986657D01*
X99518680Y-52042140D01*
X99489354Y-52099696D01*
X99489353Y-52099697D01*
X99489353Y-52099699D01*
X99489352Y-52099702D01*
X99474500Y-52193478D01*
X99474500Y-52806520D01*
X99489352Y-52900297D01*
X99489353Y-52900300D01*
X99489354Y-52900304D01*
X99546950Y-53013342D01*
X99636658Y-53103050D01*
X99749696Y-53160646D01*
X99789800Y-53166997D01*
X99797303Y-53171595D01*
X99799500Y-53178355D01*
X99799500Y-55913000D01*
X99796132Y-55921132D01*
X99788000Y-55924500D01*
X99750252Y-55924500D01*
X99726988Y-55929127D01*
X99691771Y-55936132D01*
X99691767Y-55936134D01*
X99625449Y-55980446D01*
X99625446Y-55980449D01*
X99581134Y-56046767D01*
X99581132Y-56046771D01*
X99569500Y-56105253D01*
X99569500Y-56613000D01*
X99566132Y-56621132D01*
X99558000Y-56624500D01*
X96052640Y-56624500D01*
X96044508Y-56621132D01*
X96041887Y-56617078D01*
X96024818Y-56572070D01*
X95928183Y-56432071D01*
X95928180Y-56432068D01*
X95928178Y-56432066D01*
X95800854Y-56319268D01*
X95800852Y-56319266D01*
X95650225Y-56240210D01*
X95485056Y-56199500D01*
X95314944Y-56199500D01*
X95149775Y-56240210D01*
X95149773Y-56240211D01*
X94999149Y-56319265D01*
X94999145Y-56319268D01*
X94871821Y-56432066D01*
X94871815Y-56432073D01*
X94775182Y-56572070D01*
X94714860Y-56731128D01*
X94714859Y-56731130D01*
X94694355Y-56899998D01*
X93900000Y-56899998D01*
X93900000Y-56404321D01*
X93902843Y-56396750D01*
X94596564Y-55603927D01*
X94604454Y-55600025D01*
X94605219Y-55600000D01*
X97099998Y-55600000D01*
X97100000Y-55600000D01*
X98100000Y-54600000D01*
X98100000Y-51703482D01*
X98101931Y-51697103D01*
X98296167Y-51405750D01*
X98696586Y-50805121D01*
X98703900Y-50800223D01*
X98706155Y-50800000D01*
X100096167Y-50800000D01*
X100103067Y-50802300D01*
G37*
G04 #@! TD.AperFunction*
M02*
