G04 #@! TF.GenerationSoftware,KiCad,Pcbnew,8.0.8*
G04 #@! TF.CreationDate,2025-02-18T10:08:15-06:00*
G04 #@! TF.ProjectId,Tunnleing_Amp,54756e6e-6c65-4696-9e67-5f416d702e6b,rev?*
G04 #@! TF.SameCoordinates,Original*
G04 #@! TF.FileFunction,Copper,L3,Inr*
G04 #@! TF.FilePolarity,Positive*
%FSLAX46Y46*%
G04 Gerber Fmt 4.6, Leading zero omitted, Abs format (unit mm)*
G04 Created by KiCad (PCBNEW 8.0.8) date 2025-02-18 10:08:15*
%MOMM*%
%LPD*%
G01*
G04 APERTURE LIST*
G04 #@! TA.AperFunction,ComponentPad*
%ADD10R,1.700000X1.700000*%
G04 #@! TD*
G04 #@! TA.AperFunction,ComponentPad*
%ADD11O,1.700000X1.700000*%
G04 #@! TD*
G04 #@! TA.AperFunction,ComponentPad*
%ADD12R,0.850000X0.850000*%
G04 #@! TD*
G04 #@! TA.AperFunction,ViaPad*
%ADD13C,0.600000*%
G04 #@! TD*
G04 #@! TA.AperFunction,ViaPad*
%ADD14C,1.000000*%
G04 #@! TD*
G04 APERTURE END LIST*
D10*
X108900000Y-58275000D03*
D11*
X108900000Y-60815000D03*
D12*
X106800000Y-49900000D03*
D13*
X101100000Y-53850000D03*
X101100000Y-54700000D03*
X101100000Y-55700000D03*
X101365000Y-58300000D03*
X100550000Y-58300000D03*
X99700000Y-58300000D03*
X98800000Y-58300000D03*
X98500000Y-57500000D03*
X97600000Y-57500000D03*
X96600000Y-57500000D03*
X95900000Y-57800000D03*
X94900000Y-57800000D03*
X94300000Y-56900000D03*
X94900000Y-56000000D03*
X95800000Y-55950000D03*
X96600000Y-56300000D03*
X97600000Y-56300000D03*
X98500000Y-56300000D03*
X99300000Y-55600000D03*
X99300000Y-54700000D03*
X98900000Y-52200000D03*
X100700000Y-51600000D03*
X99800000Y-51350000D03*
X105800000Y-58800000D03*
X98900000Y-53100000D03*
X105900000Y-61970000D03*
X105900000Y-57230000D03*
X109800000Y-56000000D03*
X101365000Y-56889000D03*
X99300000Y-53800000D03*
X105200000Y-61150000D03*
X105200000Y-58050000D03*
X98900000Y-51400000D03*
X109800000Y-63200000D03*
X100095000Y-62311000D03*
X106450000Y-59600000D03*
X109350000Y-65700000D03*
X105800000Y-60400000D03*
X109350000Y-53500000D03*
X108200000Y-56000000D03*
X108200000Y-63200000D03*
D14*
X95400000Y-56900000D03*
G04 #@! TA.AperFunction,Conductor*
G36*
X97128087Y-55615604D02*
G01*
X97936221Y-56064567D01*
X97985263Y-56114331D01*
X98000000Y-56172962D01*
X98000000Y-57627037D01*
X97980315Y-57694076D01*
X97936220Y-57735432D01*
X97128087Y-58184395D01*
X97067867Y-58200000D01*
X94557032Y-58200000D01*
X94489993Y-58180315D01*
X94462884Y-58156698D01*
X93929852Y-57534827D01*
X93901169Y-57471116D01*
X93900000Y-57454129D01*
X93900000Y-56900000D01*
X94694355Y-56900000D01*
X94714859Y-57068869D01*
X94714860Y-57068874D01*
X94775182Y-57227931D01*
X94837475Y-57318177D01*
X94871817Y-57367929D01*
X94969117Y-57454129D01*
X94999150Y-57480736D01*
X95102212Y-57534827D01*
X95149775Y-57559790D01*
X95314944Y-57600500D01*
X95485056Y-57600500D01*
X95650225Y-57559790D01*
X95729692Y-57518081D01*
X95800849Y-57480736D01*
X95800850Y-57480734D01*
X95800852Y-57480734D01*
X95928183Y-57367929D01*
X96024818Y-57227930D01*
X96085140Y-57068872D01*
X96105645Y-56900000D01*
X96085140Y-56731128D01*
X96024818Y-56572070D01*
X95928183Y-56432071D01*
X95800852Y-56319266D01*
X95800849Y-56319263D01*
X95650226Y-56240210D01*
X95485056Y-56199500D01*
X95314944Y-56199500D01*
X95149773Y-56240210D01*
X94999150Y-56319263D01*
X94871816Y-56432072D01*
X94775182Y-56572068D01*
X94714860Y-56731125D01*
X94714859Y-56731130D01*
X94694355Y-56900000D01*
X93900000Y-56900000D01*
X93900000Y-56441333D01*
X93919685Y-56374294D01*
X93924800Y-56366933D01*
X94151576Y-56064566D01*
X94462800Y-55649600D01*
X94518771Y-55607779D01*
X94562000Y-55600000D01*
X97067867Y-55600000D01*
X97128087Y-55615604D01*
G37*
G04 #@! TD.AperFunction*
M02*
