M48
; DRILL file {KiCad 8.0.8} date 2025-02-12T17:11:24-0600
; FORMAT={-:-/ absolute / metric / decimal}
; #@! TF.CreationDate,2025-02-12T17:11:24-06:00
; #@! TF.GenerationSoftware,Kicad,Pcbnew,8.0.8
; #@! TF.FileFunction,MixedPlating,1,4
FMAT,2
METRIC
; #@! TA.AperFunction,Plated,PTH,ViaDrill
T1C0.300
; #@! TA.AperFunction,Plated,PTH,ViaDrill
T2C0.500
; #@! TA.AperFunction,Plated,PTH,ComponentDrill
T3C0.500
; #@! TA.AperFunction,Plated,PTH,ComponentDrill
T4C1.000
; #@! TA.AperFunction,NonPlated,NPTH,ComponentDrill
T5C2.200
%
G90
G05
T1
X94.3Y-56.9
X94.9Y-56.0
X94.9Y-57.8
X95.806Y-55.986
X95.847Y-57.794
X96.6Y-56.325
X96.6Y-57.475
X97.6Y-56.3
X97.6Y-57.475
X98.5Y-56.3
X98.5Y-57.5
X98.8Y-58.3
X98.9Y-51.4
X98.9Y-52.2
X98.9Y-53.1
X99.3Y-53.8
X99.3Y-54.7
X99.3Y-55.6
X99.8Y-51.4
X99.8Y-58.3
X100.095Y-62.311
X100.7Y-51.637
X100.765Y-58.3
X101.1Y-53.8
X101.1Y-54.7
X101.1Y-55.7
X101.365Y-56.889
X101.965Y-58.3
X105.2Y-58.05
X105.2Y-61.15
X105.8Y-58.8
X105.8Y-60.4
X105.9Y-57.23
X105.9Y-61.97
X106.45Y-59.6
X108.2Y-56.0
X108.2Y-63.2
X109.35Y-53.5
X109.35Y-65.7
X109.8Y-56.0
X109.8Y-63.2
T2
X95.4Y-56.9
T3
X106.8Y-49.9
T4
X108.9Y-58.335
X108.9Y-60.875
T5
X94.5Y-51.0
X94.5Y-65.2
M30
