G04 #@! TF.GenerationSoftware,KiCad,Pcbnew,8.0.8*
G04 #@! TF.CreationDate,2025-02-18T10:08:16-06:00*
G04 #@! TF.ProjectId,Tunnleing_Amp,54756e6e-6c65-4696-9e67-5f416d702e6b,rev?*
G04 #@! TF.SameCoordinates,Original*
G04 #@! TF.FileFunction,Legend,Top*
G04 #@! TF.FilePolarity,Positive*
%FSLAX46Y46*%
G04 Gerber Fmt 4.6, Leading zero omitted, Abs format (unit mm)*
G04 Created by KiCad (PCBNEW 8.0.8) date 2025-02-18 10:08:16*
%MOMM*%
%LPD*%
G01*
G04 APERTURE LIST*
G04 Aperture macros list*
%AMRoundRect*
0 Rectangle with rounded corners*
0 $1 Rounding radius*
0 $2 $3 $4 $5 $6 $7 $8 $9 X,Y pos of 4 corners*
0 Add a 4 corners polygon primitive as box body*
4,1,4,$2,$3,$4,$5,$6,$7,$8,$9,$2,$3,0*
0 Add four circle primitives for the rounded corners*
1,1,$1+$1,$2,$3*
1,1,$1+$1,$4,$5*
1,1,$1+$1,$6,$7*
1,1,$1+$1,$8,$9*
0 Add four rect primitives between the rounded corners*
20,1,$1+$1,$2,$3,$4,$5,0*
20,1,$1+$1,$4,$5,$6,$7,0*
20,1,$1+$1,$6,$7,$8,$9,0*
20,1,$1+$1,$8,$9,$2,$3,0*%
G04 Aperture macros list end*
%ADD10C,0.200000*%
%ADD11C,0.100000*%
%ADD12C,0.254000*%
%ADD13C,0.120000*%
%ADD14RoundRect,0.100000X-1.175000X1.125000X-1.175000X-1.125000X1.175000X-1.125000X1.175000X1.125000X0*%
%ADD15C,2.400000*%
%ADD16RoundRect,0.190000X-0.220000X0.190000X-0.220000X-0.190000X0.220000X-0.190000X0.220000X0.190000X0*%
%ADD17RoundRect,0.100000X0.325000X0.764000X-0.325000X0.764000X-0.325000X-0.764000X0.325000X-0.764000X0*%
%ADD18RoundRect,0.250000X-0.250000X-0.325000X0.250000X-0.325000X0.250000X0.325000X-0.250000X0.325000X0*%
%ADD19RoundRect,0.190000X0.220000X-0.190000X0.220000X0.190000X-0.220000X0.190000X-0.220000X-0.190000X0*%
%ADD20RoundRect,0.100000X1.175000X-1.125000X1.175000X1.125000X-1.175000X1.125000X-1.175000X-1.125000X0*%
%ADD21RoundRect,0.100000X-0.850000X-0.850000X0.850000X-0.850000X0.850000X0.850000X-0.850000X0.850000X0*%
%ADD22O,1.900000X1.900000*%
%ADD23RoundRect,0.100000X-0.425000X-0.425000X0.425000X-0.425000X0.425000X0.425000X-0.425000X0.425000X0*%
G04 APERTURE END LIST*
D10*
X108402219Y-50899999D02*
X108402219Y-50709523D01*
X108402219Y-50709523D02*
X108449838Y-50614285D01*
X108449838Y-50614285D02*
X108545076Y-50519047D01*
X108545076Y-50519047D02*
X108735552Y-50471428D01*
X108735552Y-50471428D02*
X109068885Y-50471428D01*
X109068885Y-50471428D02*
X109259361Y-50519047D01*
X109259361Y-50519047D02*
X109354600Y-50614285D01*
X109354600Y-50614285D02*
X109402219Y-50709523D01*
X109402219Y-50709523D02*
X109402219Y-50899999D01*
X109402219Y-50899999D02*
X109354600Y-50995237D01*
X109354600Y-50995237D02*
X109259361Y-51090475D01*
X109259361Y-51090475D02*
X109068885Y-51138094D01*
X109068885Y-51138094D02*
X108735552Y-51138094D01*
X108735552Y-51138094D02*
X108545076Y-51090475D01*
X108545076Y-51090475D02*
X108449838Y-50995237D01*
X108449838Y-50995237D02*
X108402219Y-50899999D01*
X108402219Y-50042856D02*
X109211742Y-50042856D01*
X109211742Y-50042856D02*
X109306980Y-49995237D01*
X109306980Y-49995237D02*
X109354600Y-49947618D01*
X109354600Y-49947618D02*
X109402219Y-49852380D01*
X109402219Y-49852380D02*
X109402219Y-49661904D01*
X109402219Y-49661904D02*
X109354600Y-49566666D01*
X109354600Y-49566666D02*
X109306980Y-49519047D01*
X109306980Y-49519047D02*
X109211742Y-49471428D01*
X109211742Y-49471428D02*
X108402219Y-49471428D01*
X108402219Y-49138094D02*
X108402219Y-48566666D01*
X109402219Y-48852380D02*
X108402219Y-48852380D01*
D11*
X92797620Y-59871137D02*
X93083334Y-59871137D01*
X92940477Y-60371137D02*
X92940477Y-59871137D01*
X93464286Y-60037804D02*
X93464286Y-60371137D01*
X93250000Y-60037804D02*
X93250000Y-60299708D01*
X93250000Y-60299708D02*
X93273810Y-60347328D01*
X93273810Y-60347328D02*
X93321429Y-60371137D01*
X93321429Y-60371137D02*
X93392857Y-60371137D01*
X93392857Y-60371137D02*
X93440476Y-60347328D01*
X93440476Y-60347328D02*
X93464286Y-60323518D01*
X93702381Y-60037804D02*
X93702381Y-60371137D01*
X93702381Y-60085423D02*
X93726191Y-60061613D01*
X93726191Y-60061613D02*
X93773810Y-60037804D01*
X93773810Y-60037804D02*
X93845238Y-60037804D01*
X93845238Y-60037804D02*
X93892857Y-60061613D01*
X93892857Y-60061613D02*
X93916667Y-60109232D01*
X93916667Y-60109232D02*
X93916667Y-60371137D01*
X94154762Y-60037804D02*
X94154762Y-60371137D01*
X94154762Y-60085423D02*
X94178572Y-60061613D01*
X94178572Y-60061613D02*
X94226191Y-60037804D01*
X94226191Y-60037804D02*
X94297619Y-60037804D01*
X94297619Y-60037804D02*
X94345238Y-60061613D01*
X94345238Y-60061613D02*
X94369048Y-60109232D01*
X94369048Y-60109232D02*
X94369048Y-60371137D01*
X94797619Y-60347328D02*
X94750000Y-60371137D01*
X94750000Y-60371137D02*
X94654762Y-60371137D01*
X94654762Y-60371137D02*
X94607143Y-60347328D01*
X94607143Y-60347328D02*
X94583334Y-60299708D01*
X94583334Y-60299708D02*
X94583334Y-60109232D01*
X94583334Y-60109232D02*
X94607143Y-60061613D01*
X94607143Y-60061613D02*
X94654762Y-60037804D01*
X94654762Y-60037804D02*
X94750000Y-60037804D01*
X94750000Y-60037804D02*
X94797619Y-60061613D01*
X94797619Y-60061613D02*
X94821429Y-60109232D01*
X94821429Y-60109232D02*
X94821429Y-60156851D01*
X94821429Y-60156851D02*
X94583334Y-60204470D01*
X95107143Y-60371137D02*
X95059524Y-60347328D01*
X95059524Y-60347328D02*
X95035714Y-60299708D01*
X95035714Y-60299708D02*
X95035714Y-59871137D01*
X95297619Y-60371137D02*
X95297619Y-60037804D01*
X95297619Y-59871137D02*
X95273810Y-59894947D01*
X95273810Y-59894947D02*
X95297619Y-59918756D01*
X95297619Y-59918756D02*
X95321429Y-59894947D01*
X95321429Y-59894947D02*
X95297619Y-59871137D01*
X95297619Y-59871137D02*
X95297619Y-59918756D01*
X95535714Y-60037804D02*
X95535714Y-60371137D01*
X95535714Y-60085423D02*
X95559524Y-60061613D01*
X95559524Y-60061613D02*
X95607143Y-60037804D01*
X95607143Y-60037804D02*
X95678571Y-60037804D01*
X95678571Y-60037804D02*
X95726190Y-60061613D01*
X95726190Y-60061613D02*
X95750000Y-60109232D01*
X95750000Y-60109232D02*
X95750000Y-60371137D01*
X96202381Y-60037804D02*
X96202381Y-60442566D01*
X96202381Y-60442566D02*
X96178571Y-60490185D01*
X96178571Y-60490185D02*
X96154762Y-60513994D01*
X96154762Y-60513994D02*
X96107143Y-60537804D01*
X96107143Y-60537804D02*
X96035714Y-60537804D01*
X96035714Y-60537804D02*
X95988095Y-60513994D01*
X96202381Y-60347328D02*
X96154762Y-60371137D01*
X96154762Y-60371137D02*
X96059524Y-60371137D01*
X96059524Y-60371137D02*
X96011905Y-60347328D01*
X96011905Y-60347328D02*
X95988095Y-60323518D01*
X95988095Y-60323518D02*
X95964286Y-60275899D01*
X95964286Y-60275899D02*
X95964286Y-60133042D01*
X95964286Y-60133042D02*
X95988095Y-60085423D01*
X95988095Y-60085423D02*
X96011905Y-60061613D01*
X96011905Y-60061613D02*
X96059524Y-60037804D01*
X96059524Y-60037804D02*
X96154762Y-60037804D01*
X96154762Y-60037804D02*
X96202381Y-60061613D01*
X96797619Y-60228280D02*
X97035714Y-60228280D01*
X96750000Y-60371137D02*
X96916666Y-59871137D01*
X96916666Y-59871137D02*
X97083333Y-60371137D01*
X97249999Y-60371137D02*
X97249999Y-60037804D01*
X97249999Y-60085423D02*
X97273809Y-60061613D01*
X97273809Y-60061613D02*
X97321428Y-60037804D01*
X97321428Y-60037804D02*
X97392856Y-60037804D01*
X97392856Y-60037804D02*
X97440475Y-60061613D01*
X97440475Y-60061613D02*
X97464285Y-60109232D01*
X97464285Y-60109232D02*
X97464285Y-60371137D01*
X97464285Y-60109232D02*
X97488094Y-60061613D01*
X97488094Y-60061613D02*
X97535713Y-60037804D01*
X97535713Y-60037804D02*
X97607142Y-60037804D01*
X97607142Y-60037804D02*
X97654761Y-60061613D01*
X97654761Y-60061613D02*
X97678571Y-60109232D01*
X97678571Y-60109232D02*
X97678571Y-60371137D01*
X97916666Y-60037804D02*
X97916666Y-60537804D01*
X97916666Y-60061613D02*
X97964285Y-60037804D01*
X97964285Y-60037804D02*
X98059523Y-60037804D01*
X98059523Y-60037804D02*
X98107142Y-60061613D01*
X98107142Y-60061613D02*
X98130952Y-60085423D01*
X98130952Y-60085423D02*
X98154761Y-60133042D01*
X98154761Y-60133042D02*
X98154761Y-60275899D01*
X98154761Y-60275899D02*
X98130952Y-60323518D01*
X98130952Y-60323518D02*
X98107142Y-60347328D01*
X98107142Y-60347328D02*
X98059523Y-60371137D01*
X98059523Y-60371137D02*
X97964285Y-60371137D01*
X97964285Y-60371137D02*
X97916666Y-60347328D01*
X94738096Y-60676109D02*
X94904762Y-61176109D01*
X94904762Y-61176109D02*
X95071429Y-60676109D01*
X95500000Y-61176109D02*
X95214286Y-61176109D01*
X95357143Y-61176109D02*
X95357143Y-60676109D01*
X95357143Y-60676109D02*
X95309524Y-60747538D01*
X95309524Y-60747538D02*
X95261905Y-60795157D01*
X95261905Y-60795157D02*
X95214286Y-60818966D01*
X95714285Y-61128490D02*
X95738095Y-61152300D01*
X95738095Y-61152300D02*
X95714285Y-61176109D01*
X95714285Y-61176109D02*
X95690476Y-61152300D01*
X95690476Y-61152300D02*
X95714285Y-61128490D01*
X95714285Y-61128490D02*
X95714285Y-61176109D01*
X96047618Y-60676109D02*
X96095237Y-60676109D01*
X96095237Y-60676109D02*
X96142856Y-60699919D01*
X96142856Y-60699919D02*
X96166666Y-60723728D01*
X96166666Y-60723728D02*
X96190475Y-60771347D01*
X96190475Y-60771347D02*
X96214285Y-60866585D01*
X96214285Y-60866585D02*
X96214285Y-60985633D01*
X96214285Y-60985633D02*
X96190475Y-61080871D01*
X96190475Y-61080871D02*
X96166666Y-61128490D01*
X96166666Y-61128490D02*
X96142856Y-61152300D01*
X96142856Y-61152300D02*
X96095237Y-61176109D01*
X96095237Y-61176109D02*
X96047618Y-61176109D01*
X96047618Y-61176109D02*
X95999999Y-61152300D01*
X95999999Y-61152300D02*
X95976190Y-61128490D01*
X95976190Y-61128490D02*
X95952380Y-61080871D01*
X95952380Y-61080871D02*
X95928571Y-60985633D01*
X95928571Y-60985633D02*
X95928571Y-60866585D01*
X95928571Y-60866585D02*
X95952380Y-60771347D01*
X95952380Y-60771347D02*
X95976190Y-60723728D01*
X95976190Y-60723728D02*
X95999999Y-60699919D01*
X95999999Y-60699919D02*
X96047618Y-60676109D01*
X93404763Y-61528700D02*
X93428572Y-61504891D01*
X93428572Y-61504891D02*
X93476191Y-61481081D01*
X93476191Y-61481081D02*
X93595239Y-61481081D01*
X93595239Y-61481081D02*
X93642858Y-61504891D01*
X93642858Y-61504891D02*
X93666667Y-61528700D01*
X93666667Y-61528700D02*
X93690477Y-61576319D01*
X93690477Y-61576319D02*
X93690477Y-61623938D01*
X93690477Y-61623938D02*
X93666667Y-61695367D01*
X93666667Y-61695367D02*
X93380953Y-61981081D01*
X93380953Y-61981081D02*
X93690477Y-61981081D01*
X94261905Y-61457272D02*
X93833334Y-62100129D01*
X94690477Y-61981081D02*
X94404763Y-61981081D01*
X94547620Y-61981081D02*
X94547620Y-61481081D01*
X94547620Y-61481081D02*
X94500001Y-61552510D01*
X94500001Y-61552510D02*
X94452382Y-61600129D01*
X94452382Y-61600129D02*
X94404763Y-61623938D01*
X95166667Y-61981081D02*
X94880953Y-61981081D01*
X95023810Y-61981081D02*
X95023810Y-61481081D01*
X95023810Y-61481081D02*
X94976191Y-61552510D01*
X94976191Y-61552510D02*
X94928572Y-61600129D01*
X94928572Y-61600129D02*
X94880953Y-61623938D01*
X95738095Y-61457272D02*
X95309524Y-62100129D01*
X95880953Y-61528700D02*
X95904762Y-61504891D01*
X95904762Y-61504891D02*
X95952381Y-61481081D01*
X95952381Y-61481081D02*
X96071429Y-61481081D01*
X96071429Y-61481081D02*
X96119048Y-61504891D01*
X96119048Y-61504891D02*
X96142857Y-61528700D01*
X96142857Y-61528700D02*
X96166667Y-61576319D01*
X96166667Y-61576319D02*
X96166667Y-61623938D01*
X96166667Y-61623938D02*
X96142857Y-61695367D01*
X96142857Y-61695367D02*
X95857143Y-61981081D01*
X95857143Y-61981081D02*
X96166667Y-61981081D01*
X96476190Y-61481081D02*
X96523809Y-61481081D01*
X96523809Y-61481081D02*
X96571428Y-61504891D01*
X96571428Y-61504891D02*
X96595238Y-61528700D01*
X96595238Y-61528700D02*
X96619047Y-61576319D01*
X96619047Y-61576319D02*
X96642857Y-61671557D01*
X96642857Y-61671557D02*
X96642857Y-61790605D01*
X96642857Y-61790605D02*
X96619047Y-61885843D01*
X96619047Y-61885843D02*
X96595238Y-61933462D01*
X96595238Y-61933462D02*
X96571428Y-61957272D01*
X96571428Y-61957272D02*
X96523809Y-61981081D01*
X96523809Y-61981081D02*
X96476190Y-61981081D01*
X96476190Y-61981081D02*
X96428571Y-61957272D01*
X96428571Y-61957272D02*
X96404762Y-61933462D01*
X96404762Y-61933462D02*
X96380952Y-61885843D01*
X96380952Y-61885843D02*
X96357143Y-61790605D01*
X96357143Y-61790605D02*
X96357143Y-61671557D01*
X96357143Y-61671557D02*
X96380952Y-61576319D01*
X96380952Y-61576319D02*
X96404762Y-61528700D01*
X96404762Y-61528700D02*
X96428571Y-61504891D01*
X96428571Y-61504891D02*
X96476190Y-61481081D01*
X96833333Y-61528700D02*
X96857142Y-61504891D01*
X96857142Y-61504891D02*
X96904761Y-61481081D01*
X96904761Y-61481081D02*
X97023809Y-61481081D01*
X97023809Y-61481081D02*
X97071428Y-61504891D01*
X97071428Y-61504891D02*
X97095237Y-61528700D01*
X97095237Y-61528700D02*
X97119047Y-61576319D01*
X97119047Y-61576319D02*
X97119047Y-61623938D01*
X97119047Y-61623938D02*
X97095237Y-61695367D01*
X97095237Y-61695367D02*
X96809523Y-61981081D01*
X96809523Y-61981081D02*
X97119047Y-61981081D01*
X97571427Y-61481081D02*
X97333332Y-61481081D01*
X97333332Y-61481081D02*
X97309523Y-61719176D01*
X97309523Y-61719176D02*
X97333332Y-61695367D01*
X97333332Y-61695367D02*
X97380951Y-61671557D01*
X97380951Y-61671557D02*
X97499999Y-61671557D01*
X97499999Y-61671557D02*
X97547618Y-61695367D01*
X97547618Y-61695367D02*
X97571427Y-61719176D01*
X97571427Y-61719176D02*
X97595237Y-61766795D01*
X97595237Y-61766795D02*
X97595237Y-61885843D01*
X97595237Y-61885843D02*
X97571427Y-61933462D01*
X97571427Y-61933462D02*
X97547618Y-61957272D01*
X97547618Y-61957272D02*
X97499999Y-61981081D01*
X97499999Y-61981081D02*
X97380951Y-61981081D01*
X97380951Y-61981081D02*
X97333332Y-61957272D01*
X97333332Y-61957272D02*
X97309523Y-61933462D01*
X97471429Y-64571137D02*
X97566667Y-64571137D01*
X97566667Y-64571137D02*
X97614286Y-64594947D01*
X97614286Y-64594947D02*
X97661905Y-64642566D01*
X97661905Y-64642566D02*
X97685715Y-64737804D01*
X97685715Y-64737804D02*
X97685715Y-64904470D01*
X97685715Y-64904470D02*
X97661905Y-64999708D01*
X97661905Y-64999708D02*
X97614286Y-65047328D01*
X97614286Y-65047328D02*
X97566667Y-65071137D01*
X97566667Y-65071137D02*
X97471429Y-65071137D01*
X97471429Y-65071137D02*
X97423810Y-65047328D01*
X97423810Y-65047328D02*
X97376191Y-64999708D01*
X97376191Y-64999708D02*
X97352382Y-64904470D01*
X97352382Y-64904470D02*
X97352382Y-64737804D01*
X97352382Y-64737804D02*
X97376191Y-64642566D01*
X97376191Y-64642566D02*
X97423810Y-64594947D01*
X97423810Y-64594947D02*
X97471429Y-64571137D01*
X97900001Y-65071137D02*
X97900001Y-64571137D01*
X97900001Y-64571137D02*
X98090477Y-64571137D01*
X98090477Y-64571137D02*
X98138096Y-64594947D01*
X98138096Y-64594947D02*
X98161906Y-64618756D01*
X98161906Y-64618756D02*
X98185715Y-64666375D01*
X98185715Y-64666375D02*
X98185715Y-64737804D01*
X98185715Y-64737804D02*
X98161906Y-64785423D01*
X98161906Y-64785423D02*
X98138096Y-64809232D01*
X98138096Y-64809232D02*
X98090477Y-64833042D01*
X98090477Y-64833042D02*
X97900001Y-64833042D01*
X98376192Y-64928280D02*
X98614287Y-64928280D01*
X98328573Y-65071137D02*
X98495239Y-64571137D01*
X98495239Y-64571137D02*
X98661906Y-65071137D01*
X98852382Y-65071137D02*
X98947620Y-65071137D01*
X98947620Y-65071137D02*
X98995239Y-65047328D01*
X98995239Y-65047328D02*
X99019048Y-65023518D01*
X99019048Y-65023518D02*
X99066667Y-64952089D01*
X99066667Y-64952089D02*
X99090477Y-64856851D01*
X99090477Y-64856851D02*
X99090477Y-64666375D01*
X99090477Y-64666375D02*
X99066667Y-64618756D01*
X99066667Y-64618756D02*
X99042858Y-64594947D01*
X99042858Y-64594947D02*
X98995239Y-64571137D01*
X98995239Y-64571137D02*
X98900001Y-64571137D01*
X98900001Y-64571137D02*
X98852382Y-64594947D01*
X98852382Y-64594947D02*
X98828572Y-64618756D01*
X98828572Y-64618756D02*
X98804763Y-64666375D01*
X98804763Y-64666375D02*
X98804763Y-64785423D01*
X98804763Y-64785423D02*
X98828572Y-64833042D01*
X98828572Y-64833042D02*
X98852382Y-64856851D01*
X98852382Y-64856851D02*
X98900001Y-64880661D01*
X98900001Y-64880661D02*
X98995239Y-64880661D01*
X98995239Y-64880661D02*
X99042858Y-64856851D01*
X99042858Y-64856851D02*
X99066667Y-64833042D01*
X99066667Y-64833042D02*
X99090477Y-64785423D01*
X99280953Y-64618756D02*
X99304762Y-64594947D01*
X99304762Y-64594947D02*
X99352381Y-64571137D01*
X99352381Y-64571137D02*
X99471429Y-64571137D01*
X99471429Y-64571137D02*
X99519048Y-64594947D01*
X99519048Y-64594947D02*
X99542857Y-64618756D01*
X99542857Y-64618756D02*
X99566667Y-64666375D01*
X99566667Y-64666375D02*
X99566667Y-64713994D01*
X99566667Y-64713994D02*
X99542857Y-64785423D01*
X99542857Y-64785423D02*
X99257143Y-65071137D01*
X99257143Y-65071137D02*
X99566667Y-65071137D01*
X99852381Y-64785423D02*
X99804762Y-64761613D01*
X99804762Y-64761613D02*
X99780952Y-64737804D01*
X99780952Y-64737804D02*
X99757143Y-64690185D01*
X99757143Y-64690185D02*
X99757143Y-64666375D01*
X99757143Y-64666375D02*
X99780952Y-64618756D01*
X99780952Y-64618756D02*
X99804762Y-64594947D01*
X99804762Y-64594947D02*
X99852381Y-64571137D01*
X99852381Y-64571137D02*
X99947619Y-64571137D01*
X99947619Y-64571137D02*
X99995238Y-64594947D01*
X99995238Y-64594947D02*
X100019047Y-64618756D01*
X100019047Y-64618756D02*
X100042857Y-64666375D01*
X100042857Y-64666375D02*
X100042857Y-64690185D01*
X100042857Y-64690185D02*
X100019047Y-64737804D01*
X100019047Y-64737804D02*
X99995238Y-64761613D01*
X99995238Y-64761613D02*
X99947619Y-64785423D01*
X99947619Y-64785423D02*
X99852381Y-64785423D01*
X99852381Y-64785423D02*
X99804762Y-64809232D01*
X99804762Y-64809232D02*
X99780952Y-64833042D01*
X99780952Y-64833042D02*
X99757143Y-64880661D01*
X99757143Y-64880661D02*
X99757143Y-64975899D01*
X99757143Y-64975899D02*
X99780952Y-65023518D01*
X99780952Y-65023518D02*
X99804762Y-65047328D01*
X99804762Y-65047328D02*
X99852381Y-65071137D01*
X99852381Y-65071137D02*
X99947619Y-65071137D01*
X99947619Y-65071137D02*
X99995238Y-65047328D01*
X99995238Y-65047328D02*
X100019047Y-65023518D01*
X100019047Y-65023518D02*
X100042857Y-64975899D01*
X100042857Y-64975899D02*
X100042857Y-64880661D01*
X100042857Y-64880661D02*
X100019047Y-64833042D01*
X100019047Y-64833042D02*
X99995238Y-64809232D01*
X99995238Y-64809232D02*
X99947619Y-64785423D01*
X100257142Y-65071137D02*
X100257142Y-64571137D01*
X100257142Y-64571137D02*
X100376190Y-64571137D01*
X100376190Y-64571137D02*
X100447618Y-64594947D01*
X100447618Y-64594947D02*
X100495237Y-64642566D01*
X100495237Y-64642566D02*
X100519047Y-64690185D01*
X100519047Y-64690185D02*
X100542856Y-64785423D01*
X100542856Y-64785423D02*
X100542856Y-64856851D01*
X100542856Y-64856851D02*
X100519047Y-64952089D01*
X100519047Y-64952089D02*
X100495237Y-64999708D01*
X100495237Y-64999708D02*
X100447618Y-65047328D01*
X100447618Y-65047328D02*
X100376190Y-65071137D01*
X100376190Y-65071137D02*
X100257142Y-65071137D01*
X100685714Y-64571137D02*
X100971428Y-64571137D01*
X100828571Y-65071137D02*
X100828571Y-64571137D01*
X101495237Y-64547328D02*
X101066666Y-65190185D01*
X101947618Y-65071137D02*
X101780952Y-64833042D01*
X101661904Y-65071137D02*
X101661904Y-64571137D01*
X101661904Y-64571137D02*
X101852380Y-64571137D01*
X101852380Y-64571137D02*
X101899999Y-64594947D01*
X101899999Y-64594947D02*
X101923809Y-64618756D01*
X101923809Y-64618756D02*
X101947618Y-64666375D01*
X101947618Y-64666375D02*
X101947618Y-64737804D01*
X101947618Y-64737804D02*
X101923809Y-64785423D01*
X101923809Y-64785423D02*
X101899999Y-64809232D01*
X101899999Y-64809232D02*
X101852380Y-64833042D01*
X101852380Y-64833042D02*
X101661904Y-64833042D01*
X98090477Y-65399919D02*
X98042858Y-65376109D01*
X98042858Y-65376109D02*
X97971429Y-65376109D01*
X97971429Y-65376109D02*
X97900001Y-65399919D01*
X97900001Y-65399919D02*
X97852382Y-65447538D01*
X97852382Y-65447538D02*
X97828572Y-65495157D01*
X97828572Y-65495157D02*
X97804763Y-65590395D01*
X97804763Y-65590395D02*
X97804763Y-65661823D01*
X97804763Y-65661823D02*
X97828572Y-65757061D01*
X97828572Y-65757061D02*
X97852382Y-65804680D01*
X97852382Y-65804680D02*
X97900001Y-65852300D01*
X97900001Y-65852300D02*
X97971429Y-65876109D01*
X97971429Y-65876109D02*
X98019048Y-65876109D01*
X98019048Y-65876109D02*
X98090477Y-65852300D01*
X98090477Y-65852300D02*
X98114286Y-65828490D01*
X98114286Y-65828490D02*
X98114286Y-65661823D01*
X98114286Y-65661823D02*
X98019048Y-65661823D01*
X98709524Y-65614204D02*
X99090477Y-65614204D01*
X99090477Y-65757061D02*
X98709524Y-65757061D01*
X99971429Y-65876109D02*
X99685715Y-65876109D01*
X99828572Y-65876109D02*
X99828572Y-65376109D01*
X99828572Y-65376109D02*
X99780953Y-65447538D01*
X99780953Y-65447538D02*
X99733334Y-65495157D01*
X99733334Y-65495157D02*
X99685715Y-65518966D01*
X100280952Y-65376109D02*
X100328571Y-65376109D01*
X100328571Y-65376109D02*
X100376190Y-65399919D01*
X100376190Y-65399919D02*
X100400000Y-65423728D01*
X100400000Y-65423728D02*
X100423809Y-65471347D01*
X100423809Y-65471347D02*
X100447619Y-65566585D01*
X100447619Y-65566585D02*
X100447619Y-65685633D01*
X100447619Y-65685633D02*
X100423809Y-65780871D01*
X100423809Y-65780871D02*
X100400000Y-65828490D01*
X100400000Y-65828490D02*
X100376190Y-65852300D01*
X100376190Y-65852300D02*
X100328571Y-65876109D01*
X100328571Y-65876109D02*
X100280952Y-65876109D01*
X100280952Y-65876109D02*
X100233333Y-65852300D01*
X100233333Y-65852300D02*
X100209524Y-65828490D01*
X100209524Y-65828490D02*
X100185714Y-65780871D01*
X100185714Y-65780871D02*
X100161905Y-65685633D01*
X100161905Y-65685633D02*
X100161905Y-65566585D01*
X100161905Y-65566585D02*
X100185714Y-65471347D01*
X100185714Y-65471347D02*
X100209524Y-65423728D01*
X100209524Y-65423728D02*
X100233333Y-65399919D01*
X100233333Y-65399919D02*
X100280952Y-65376109D01*
X100757142Y-65376109D02*
X100804761Y-65376109D01*
X100804761Y-65376109D02*
X100852380Y-65399919D01*
X100852380Y-65399919D02*
X100876190Y-65423728D01*
X100876190Y-65423728D02*
X100899999Y-65471347D01*
X100899999Y-65471347D02*
X100923809Y-65566585D01*
X100923809Y-65566585D02*
X100923809Y-65685633D01*
X100923809Y-65685633D02*
X100899999Y-65780871D01*
X100899999Y-65780871D02*
X100876190Y-65828490D01*
X100876190Y-65828490D02*
X100852380Y-65852300D01*
X100852380Y-65852300D02*
X100804761Y-65876109D01*
X100804761Y-65876109D02*
X100757142Y-65876109D01*
X100757142Y-65876109D02*
X100709523Y-65852300D01*
X100709523Y-65852300D02*
X100685714Y-65828490D01*
X100685714Y-65828490D02*
X100661904Y-65780871D01*
X100661904Y-65780871D02*
X100638095Y-65685633D01*
X100638095Y-65685633D02*
X100638095Y-65566585D01*
X100638095Y-65566585D02*
X100661904Y-65471347D01*
X100661904Y-65471347D02*
X100685714Y-65423728D01*
X100685714Y-65423728D02*
X100709523Y-65399919D01*
X100709523Y-65399919D02*
X100757142Y-65376109D01*
X101138094Y-65876109D02*
X101138094Y-65376109D01*
X101138094Y-65376109D02*
X101304761Y-65733252D01*
X101304761Y-65733252D02*
X101471427Y-65376109D01*
X101471427Y-65376109D02*
X101471427Y-65876109D01*
X97840477Y-66633462D02*
X97816668Y-66657272D01*
X97816668Y-66657272D02*
X97745239Y-66681081D01*
X97745239Y-66681081D02*
X97697620Y-66681081D01*
X97697620Y-66681081D02*
X97626192Y-66657272D01*
X97626192Y-66657272D02*
X97578573Y-66609652D01*
X97578573Y-66609652D02*
X97554763Y-66562033D01*
X97554763Y-66562033D02*
X97530954Y-66466795D01*
X97530954Y-66466795D02*
X97530954Y-66395367D01*
X97530954Y-66395367D02*
X97554763Y-66300129D01*
X97554763Y-66300129D02*
X97578573Y-66252510D01*
X97578573Y-66252510D02*
X97626192Y-66204891D01*
X97626192Y-66204891D02*
X97697620Y-66181081D01*
X97697620Y-66181081D02*
X97745239Y-66181081D01*
X97745239Y-66181081D02*
X97816668Y-66204891D01*
X97816668Y-66204891D02*
X97840477Y-66228700D01*
X97983335Y-66347748D02*
X98173811Y-66347748D01*
X98054763Y-66681081D02*
X98054763Y-66252510D01*
X98054763Y-66252510D02*
X98078573Y-66204891D01*
X98078573Y-66204891D02*
X98126192Y-66181081D01*
X98126192Y-66181081D02*
X98173811Y-66181081D01*
X98650001Y-66490605D02*
X98673810Y-66466795D01*
X98673810Y-66466795D02*
X98721429Y-66442986D01*
X98721429Y-66442986D02*
X98816667Y-66490605D01*
X98816667Y-66490605D02*
X98864286Y-66466795D01*
X98864286Y-66466795D02*
X98888096Y-66442986D01*
X99721429Y-66681081D02*
X99435715Y-66681081D01*
X99578572Y-66681081D02*
X99578572Y-66181081D01*
X99578572Y-66181081D02*
X99530953Y-66252510D01*
X99530953Y-66252510D02*
X99483334Y-66300129D01*
X99483334Y-66300129D02*
X99435715Y-66323938D01*
X100150000Y-66181081D02*
X100054762Y-66181081D01*
X100054762Y-66181081D02*
X100007143Y-66204891D01*
X100007143Y-66204891D02*
X99983333Y-66228700D01*
X99983333Y-66228700D02*
X99935714Y-66300129D01*
X99935714Y-66300129D02*
X99911905Y-66395367D01*
X99911905Y-66395367D02*
X99911905Y-66585843D01*
X99911905Y-66585843D02*
X99935714Y-66633462D01*
X99935714Y-66633462D02*
X99959524Y-66657272D01*
X99959524Y-66657272D02*
X100007143Y-66681081D01*
X100007143Y-66681081D02*
X100102381Y-66681081D01*
X100102381Y-66681081D02*
X100150000Y-66657272D01*
X100150000Y-66657272D02*
X100173809Y-66633462D01*
X100173809Y-66633462D02*
X100197619Y-66585843D01*
X100197619Y-66585843D02*
X100197619Y-66466795D01*
X100197619Y-66466795D02*
X100173809Y-66419176D01*
X100173809Y-66419176D02*
X100150000Y-66395367D01*
X100150000Y-66395367D02*
X100102381Y-66371557D01*
X100102381Y-66371557D02*
X100007143Y-66371557D01*
X100007143Y-66371557D02*
X99959524Y-66395367D01*
X99959524Y-66395367D02*
X99935714Y-66419176D01*
X99935714Y-66419176D02*
X99911905Y-66466795D01*
X100507142Y-66181081D02*
X100554761Y-66181081D01*
X100554761Y-66181081D02*
X100602380Y-66204891D01*
X100602380Y-66204891D02*
X100626190Y-66228700D01*
X100626190Y-66228700D02*
X100649999Y-66276319D01*
X100649999Y-66276319D02*
X100673809Y-66371557D01*
X100673809Y-66371557D02*
X100673809Y-66490605D01*
X100673809Y-66490605D02*
X100649999Y-66585843D01*
X100649999Y-66585843D02*
X100626190Y-66633462D01*
X100626190Y-66633462D02*
X100602380Y-66657272D01*
X100602380Y-66657272D02*
X100554761Y-66681081D01*
X100554761Y-66681081D02*
X100507142Y-66681081D01*
X100507142Y-66681081D02*
X100459523Y-66657272D01*
X100459523Y-66657272D02*
X100435714Y-66633462D01*
X100435714Y-66633462D02*
X100411904Y-66585843D01*
X100411904Y-66585843D02*
X100388095Y-66490605D01*
X100388095Y-66490605D02*
X100388095Y-66371557D01*
X100388095Y-66371557D02*
X100411904Y-66276319D01*
X100411904Y-66276319D02*
X100435714Y-66228700D01*
X100435714Y-66228700D02*
X100459523Y-66204891D01*
X100459523Y-66204891D02*
X100507142Y-66181081D01*
X101197618Y-66347748D02*
X101388094Y-66347748D01*
X101269046Y-66681081D02*
X101269046Y-66252510D01*
X101269046Y-66252510D02*
X101292856Y-66204891D01*
X101292856Y-66204891D02*
X101340475Y-66181081D01*
X101340475Y-66181081D02*
X101388094Y-66181081D01*
X101721427Y-66419176D02*
X101554760Y-66419176D01*
X101554760Y-66681081D02*
X101554760Y-66181081D01*
X101554760Y-66181081D02*
X101792855Y-66181081D01*
X106833333Y-63541752D02*
X106814285Y-63560800D01*
X106814285Y-63560800D02*
X106757143Y-63579847D01*
X106757143Y-63579847D02*
X106719047Y-63579847D01*
X106719047Y-63579847D02*
X106661904Y-63560800D01*
X106661904Y-63560800D02*
X106623809Y-63522704D01*
X106623809Y-63522704D02*
X106604762Y-63484609D01*
X106604762Y-63484609D02*
X106585714Y-63408419D01*
X106585714Y-63408419D02*
X106585714Y-63351276D01*
X106585714Y-63351276D02*
X106604762Y-63275085D01*
X106604762Y-63275085D02*
X106623809Y-63236990D01*
X106623809Y-63236990D02*
X106661904Y-63198895D01*
X106661904Y-63198895D02*
X106719047Y-63179847D01*
X106719047Y-63179847D02*
X106757143Y-63179847D01*
X106757143Y-63179847D02*
X106814285Y-63198895D01*
X106814285Y-63198895D02*
X106833333Y-63217942D01*
X107214285Y-63579847D02*
X106985714Y-63579847D01*
X107100000Y-63579847D02*
X107100000Y-63179847D01*
X107100000Y-63179847D02*
X107061904Y-63236990D01*
X107061904Y-63236990D02*
X107023809Y-63275085D01*
X107023809Y-63275085D02*
X106985714Y-63294133D01*
X106841752Y-56866666D02*
X106860800Y-56885714D01*
X106860800Y-56885714D02*
X106879847Y-56942856D01*
X106879847Y-56942856D02*
X106879847Y-56980952D01*
X106879847Y-56980952D02*
X106860800Y-57038095D01*
X106860800Y-57038095D02*
X106822704Y-57076190D01*
X106822704Y-57076190D02*
X106784609Y-57095237D01*
X106784609Y-57095237D02*
X106708419Y-57114285D01*
X106708419Y-57114285D02*
X106651276Y-57114285D01*
X106651276Y-57114285D02*
X106575085Y-57095237D01*
X106575085Y-57095237D02*
X106536990Y-57076190D01*
X106536990Y-57076190D02*
X106498895Y-57038095D01*
X106498895Y-57038095D02*
X106479847Y-56980952D01*
X106479847Y-56980952D02*
X106479847Y-56942856D01*
X106479847Y-56942856D02*
X106498895Y-56885714D01*
X106498895Y-56885714D02*
X106517942Y-56866666D01*
X106479847Y-56523809D02*
X106479847Y-56599999D01*
X106479847Y-56599999D02*
X106498895Y-56638095D01*
X106498895Y-56638095D02*
X106517942Y-56657142D01*
X106517942Y-56657142D02*
X106575085Y-56695237D01*
X106575085Y-56695237D02*
X106651276Y-56714285D01*
X106651276Y-56714285D02*
X106803657Y-56714285D01*
X106803657Y-56714285D02*
X106841752Y-56695237D01*
X106841752Y-56695237D02*
X106860800Y-56676190D01*
X106860800Y-56676190D02*
X106879847Y-56638095D01*
X106879847Y-56638095D02*
X106879847Y-56561904D01*
X106879847Y-56561904D02*
X106860800Y-56523809D01*
X106860800Y-56523809D02*
X106841752Y-56504761D01*
X106841752Y-56504761D02*
X106803657Y-56485714D01*
X106803657Y-56485714D02*
X106708419Y-56485714D01*
X106708419Y-56485714D02*
X106670323Y-56504761D01*
X106670323Y-56504761D02*
X106651276Y-56523809D01*
X106651276Y-56523809D02*
X106632228Y-56561904D01*
X106632228Y-56561904D02*
X106632228Y-56638095D01*
X106632228Y-56638095D02*
X106651276Y-56676190D01*
X106651276Y-56676190D02*
X106670323Y-56695237D01*
X106670323Y-56695237D02*
X106708419Y-56714285D01*
D12*
X102574318Y-60839762D02*
X101304318Y-60839762D01*
X102453365Y-59509285D02*
X102513842Y-59569761D01*
X102513842Y-59569761D02*
X102574318Y-59751190D01*
X102574318Y-59751190D02*
X102574318Y-59872142D01*
X102574318Y-59872142D02*
X102513842Y-60053571D01*
X102513842Y-60053571D02*
X102392889Y-60174523D01*
X102392889Y-60174523D02*
X102271937Y-60235000D01*
X102271937Y-60235000D02*
X102030032Y-60295476D01*
X102030032Y-60295476D02*
X101848603Y-60295476D01*
X101848603Y-60295476D02*
X101606699Y-60235000D01*
X101606699Y-60235000D02*
X101485746Y-60174523D01*
X101485746Y-60174523D02*
X101364794Y-60053571D01*
X101364794Y-60053571D02*
X101304318Y-59872142D01*
X101304318Y-59872142D02*
X101304318Y-59751190D01*
X101304318Y-59751190D02*
X101364794Y-59569761D01*
X101364794Y-59569761D02*
X101425270Y-59509285D01*
X102574318Y-58299761D02*
X102574318Y-59025476D01*
X102574318Y-58662619D02*
X101304318Y-58662619D01*
X101304318Y-58662619D02*
X101485746Y-58783571D01*
X101485746Y-58783571D02*
X101606699Y-58904523D01*
X101606699Y-58904523D02*
X101667175Y-59025476D01*
D11*
X102879847Y-52566666D02*
X102689371Y-52699999D01*
X102879847Y-52795237D02*
X102479847Y-52795237D01*
X102479847Y-52795237D02*
X102479847Y-52642856D01*
X102479847Y-52642856D02*
X102498895Y-52604761D01*
X102498895Y-52604761D02*
X102517942Y-52585714D01*
X102517942Y-52585714D02*
X102556038Y-52566666D01*
X102556038Y-52566666D02*
X102613180Y-52566666D01*
X102613180Y-52566666D02*
X102651276Y-52585714D01*
X102651276Y-52585714D02*
X102670323Y-52604761D01*
X102670323Y-52604761D02*
X102689371Y-52642856D01*
X102689371Y-52642856D02*
X102689371Y-52795237D01*
X102879847Y-52185714D02*
X102879847Y-52414285D01*
X102879847Y-52299999D02*
X102479847Y-52299999D01*
X102479847Y-52299999D02*
X102536990Y-52338095D01*
X102536990Y-52338095D02*
X102575085Y-52376190D01*
X102575085Y-52376190D02*
X102594133Y-52414285D01*
X106841752Y-62466666D02*
X106860800Y-62485714D01*
X106860800Y-62485714D02*
X106879847Y-62542856D01*
X106879847Y-62542856D02*
X106879847Y-62580952D01*
X106879847Y-62580952D02*
X106860800Y-62638095D01*
X106860800Y-62638095D02*
X106822704Y-62676190D01*
X106822704Y-62676190D02*
X106784609Y-62695237D01*
X106784609Y-62695237D02*
X106708419Y-62714285D01*
X106708419Y-62714285D02*
X106651276Y-62714285D01*
X106651276Y-62714285D02*
X106575085Y-62695237D01*
X106575085Y-62695237D02*
X106536990Y-62676190D01*
X106536990Y-62676190D02*
X106498895Y-62638095D01*
X106498895Y-62638095D02*
X106479847Y-62580952D01*
X106479847Y-62580952D02*
X106479847Y-62542856D01*
X106479847Y-62542856D02*
X106498895Y-62485714D01*
X106498895Y-62485714D02*
X106517942Y-62466666D01*
X106613180Y-62123809D02*
X106879847Y-62123809D01*
X106460800Y-62219047D02*
X106746514Y-62314285D01*
X106746514Y-62314285D02*
X106746514Y-62066666D01*
X106833333Y-55941752D02*
X106814285Y-55960800D01*
X106814285Y-55960800D02*
X106757143Y-55979847D01*
X106757143Y-55979847D02*
X106719047Y-55979847D01*
X106719047Y-55979847D02*
X106661904Y-55960800D01*
X106661904Y-55960800D02*
X106623809Y-55922704D01*
X106623809Y-55922704D02*
X106604762Y-55884609D01*
X106604762Y-55884609D02*
X106585714Y-55808419D01*
X106585714Y-55808419D02*
X106585714Y-55751276D01*
X106585714Y-55751276D02*
X106604762Y-55675085D01*
X106604762Y-55675085D02*
X106623809Y-55636990D01*
X106623809Y-55636990D02*
X106661904Y-55598895D01*
X106661904Y-55598895D02*
X106719047Y-55579847D01*
X106719047Y-55579847D02*
X106757143Y-55579847D01*
X106757143Y-55579847D02*
X106814285Y-55598895D01*
X106814285Y-55598895D02*
X106833333Y-55617942D01*
X106966666Y-55579847D02*
X107214285Y-55579847D01*
X107214285Y-55579847D02*
X107080952Y-55732228D01*
X107080952Y-55732228D02*
X107138095Y-55732228D01*
X107138095Y-55732228D02*
X107176190Y-55751276D01*
X107176190Y-55751276D02*
X107195238Y-55770323D01*
X107195238Y-55770323D02*
X107214285Y-55808419D01*
X107214285Y-55808419D02*
X107214285Y-55903657D01*
X107214285Y-55903657D02*
X107195238Y-55941752D01*
X107195238Y-55941752D02*
X107176190Y-55960800D01*
X107176190Y-55960800D02*
X107138095Y-55979847D01*
X107138095Y-55979847D02*
X107023809Y-55979847D01*
X107023809Y-55979847D02*
X106985714Y-55960800D01*
X106985714Y-55960800D02*
X106966666Y-55941752D01*
X101029847Y-49966666D02*
X100839371Y-50099999D01*
X101029847Y-50195237D02*
X100629847Y-50195237D01*
X100629847Y-50195237D02*
X100629847Y-50042856D01*
X100629847Y-50042856D02*
X100648895Y-50004761D01*
X100648895Y-50004761D02*
X100667942Y-49985714D01*
X100667942Y-49985714D02*
X100706038Y-49966666D01*
X100706038Y-49966666D02*
X100763180Y-49966666D01*
X100763180Y-49966666D02*
X100801276Y-49985714D01*
X100801276Y-49985714D02*
X100820323Y-50004761D01*
X100820323Y-50004761D02*
X100839371Y-50042856D01*
X100839371Y-50042856D02*
X100839371Y-50195237D01*
X100667942Y-49814285D02*
X100648895Y-49795237D01*
X100648895Y-49795237D02*
X100629847Y-49757142D01*
X100629847Y-49757142D02*
X100629847Y-49661904D01*
X100629847Y-49661904D02*
X100648895Y-49623809D01*
X100648895Y-49623809D02*
X100667942Y-49604761D01*
X100667942Y-49604761D02*
X100706038Y-49585714D01*
X100706038Y-49585714D02*
X100744133Y-49585714D01*
X100744133Y-49585714D02*
X100801276Y-49604761D01*
X100801276Y-49604761D02*
X101029847Y-49833333D01*
X101029847Y-49833333D02*
X101029847Y-49585714D01*
D10*
X103900000Y-67300000D02*
X110525000Y-67300000D01*
X109900000Y-64100000D02*
X103900000Y-64100000D01*
D13*
X105540000Y-56642164D02*
X105540000Y-56857836D01*
X106260000Y-56642164D02*
X106260000Y-56857836D01*
D10*
X99420000Y-63075000D02*
X99420000Y-61548000D01*
X99548000Y-58002000D02*
X104452000Y-58002000D01*
X99548000Y-61198000D02*
X99548000Y-58002000D01*
X104452000Y-58002000D02*
X104452000Y-61198000D01*
X104452000Y-61198000D02*
X99548000Y-61198000D01*
D13*
X100662742Y-51977500D02*
X101137258Y-51977500D01*
X100662742Y-53022500D02*
X101137258Y-53022500D01*
X105540000Y-62557836D02*
X105540000Y-62342164D01*
X106260000Y-62557836D02*
X106260000Y-62342164D01*
D10*
X103900000Y-55100000D02*
X109900000Y-55100000D01*
X109900000Y-51900000D02*
X103275000Y-51900000D01*
D13*
X102312742Y-49377500D02*
X102787258Y-49377500D01*
X102312742Y-50422500D02*
X102787258Y-50422500D01*
X110230000Y-59545000D02*
X110230000Y-62145000D01*
X107570000Y-62145000D02*
X110230000Y-62145000D01*
X107570000Y-59545000D02*
X110230000Y-59545000D01*
X107570000Y-59545000D02*
X107570000Y-62145000D01*
X107570000Y-58275000D02*
X107570000Y-56945000D01*
X107570000Y-56945000D02*
X108900000Y-56945000D01*
X106105000Y-49215000D02*
X106800000Y-49215000D01*
X106105000Y-49900000D02*
X106105000Y-49215000D01*
X106105000Y-50585000D02*
X106105000Y-50460000D01*
X106105000Y-50585000D02*
X106191724Y-50585000D01*
X106105000Y-50585000D02*
X107495000Y-50585000D01*
X107408276Y-50585000D02*
X107495000Y-50585000D01*
X107495000Y-50585000D02*
X107495000Y-50460000D01*
%LPC*%
D14*
X109350000Y-65700000D03*
X104450000Y-65700000D03*
D15*
X94500000Y-65200000D03*
D16*
X105900000Y-56270000D03*
X105900000Y-57230000D03*
D17*
X100095000Y-62311000D03*
X101365000Y-62311000D03*
X102635000Y-62311000D03*
X103905000Y-62311000D03*
X103905000Y-56889000D03*
X102635000Y-56889000D03*
X101365000Y-56889000D03*
X100095000Y-56889000D03*
D18*
X100075000Y-52500000D03*
X101725000Y-52500000D03*
D19*
X105900000Y-62930000D03*
X105900000Y-61970000D03*
D20*
X104450000Y-53500000D03*
X109350000Y-53500000D03*
D18*
X101725000Y-49900000D03*
X103375000Y-49900000D03*
D15*
X94500000Y-51000000D03*
D21*
X108900000Y-58275000D03*
D22*
X108900000Y-60815000D03*
D23*
X106800000Y-49900000D03*
G36*
X100127951Y-50619685D02*
G01*
X100132021Y-50622415D01*
X101047109Y-51262976D01*
X101090742Y-51317547D01*
X101100000Y-51364561D01*
X101100000Y-53100000D01*
X101748074Y-53562910D01*
X101791184Y-53617894D01*
X101800000Y-53663813D01*
X101800000Y-58776000D01*
X101780315Y-58843039D01*
X101727511Y-58888794D01*
X101676000Y-58900000D01*
X97951362Y-58900000D01*
X97884323Y-58880315D01*
X97863681Y-58863681D01*
X97400000Y-58400000D01*
X94456268Y-58400000D01*
X94389229Y-58380315D01*
X94362948Y-58357655D01*
X93730680Y-57635062D01*
X93701349Y-57571647D01*
X93700000Y-57553407D01*
X93700000Y-56347144D01*
X93719685Y-56280105D01*
X93731321Y-56264763D01*
X94463005Y-55441619D01*
X94522256Y-55404591D01*
X94555684Y-55400000D01*
X97100000Y-55400000D01*
X97100000Y-55399999D01*
X97900000Y-54599999D01*
X97900000Y-51639087D01*
X97919685Y-51572048D01*
X97922415Y-51567978D01*
X98562976Y-50652891D01*
X98617547Y-50609258D01*
X98664561Y-50600000D01*
X100060912Y-50600000D01*
X100127951Y-50619685D01*
G37*
%LPD*%
M02*
