G04 #@! TF.GenerationSoftware,KiCad,Pcbnew,8.0.8*
G04 #@! TF.CreationDate,2025-02-12T17:11:10-06:00*
G04 #@! TF.ProjectId,Tunnleing_Amp,54756e6e-6c65-4696-9e67-5f416d702e6b,rev?*
G04 #@! TF.SameCoordinates,Original*
G04 #@! TF.FileFunction,Copper,L2,Inr*
G04 #@! TF.FilePolarity,Positive*
%FSLAX46Y46*%
G04 Gerber Fmt 4.6, Leading zero omitted, Abs format (unit mm)*
G04 Created by KiCad (PCBNEW 8.0.8) date 2025-02-12 17:11:10*
%MOMM*%
%LPD*%
G01*
G04 APERTURE LIST*
G04 #@! TA.AperFunction,ComponentPad*
%ADD10R,0.850000X0.850000*%
G04 #@! TD*
G04 #@! TA.AperFunction,ComponentPad*
%ADD11R,1.700000X1.700000*%
G04 #@! TD*
G04 #@! TA.AperFunction,ComponentPad*
%ADD12O,1.700000X1.700000*%
G04 #@! TD*
G04 #@! TA.AperFunction,ViaPad*
%ADD13C,0.600000*%
G04 #@! TD*
G04 #@! TA.AperFunction,ViaPad*
%ADD14C,1.000000*%
G04 #@! TD*
G04 APERTURE END LIST*
D10*
X106800000Y-49900000D03*
D11*
X108900000Y-60875000D03*
D12*
X108900000Y-58335000D03*
D13*
X100700000Y-51636919D03*
X105800000Y-58800000D03*
X98900000Y-53100000D03*
X96600000Y-57475000D03*
X99300000Y-54700000D03*
X105900000Y-61970000D03*
X101100000Y-53800000D03*
X94900000Y-57800000D03*
X101100000Y-55700000D03*
X105900000Y-57230000D03*
X97600000Y-57475000D03*
X95806140Y-55986186D03*
X98500000Y-56300000D03*
X109800000Y-56000000D03*
X98900000Y-52200000D03*
X96600000Y-56325000D03*
X101365000Y-56889000D03*
X99300000Y-53800000D03*
X105200000Y-61150000D03*
X105200000Y-58050000D03*
X98900000Y-51400000D03*
X99800000Y-58300000D03*
X98500000Y-57500000D03*
X109800000Y-63200000D03*
X100095000Y-62311000D03*
X106450000Y-59600000D03*
X94300000Y-56900000D03*
X94900000Y-56000000D03*
X109350000Y-65700000D03*
X105800000Y-60400000D03*
X101965000Y-58300000D03*
X95847215Y-57794429D03*
X99800000Y-51400000D03*
X98800000Y-58300000D03*
X99300000Y-55600000D03*
X109350000Y-53500000D03*
X108200000Y-56000000D03*
X97600000Y-56300000D03*
X101100000Y-54700000D03*
X108200000Y-63200000D03*
X100765000Y-58300000D03*
D14*
X95400000Y-56900000D03*
G04 #@! TA.AperFunction,Conductor*
G36*
X100103067Y-50802300D02*
G01*
X100895400Y-51396550D01*
X100899884Y-51404124D01*
X100900000Y-51405750D01*
X100900000Y-53200000D01*
X100900001Y-53200001D01*
X101595184Y-53696560D01*
X101599844Y-53704027D01*
X101600000Y-53705918D01*
X101600000Y-58688500D01*
X101596632Y-58696632D01*
X101588500Y-58700000D01*
X98104764Y-58700000D01*
X98096632Y-58696632D01*
X98088500Y-58688500D01*
X97600000Y-58200000D01*
X97599999Y-58200000D01*
X94505289Y-58200000D01*
X94497157Y-58196632D01*
X94496558Y-58195984D01*
X93902769Y-57503230D01*
X93900000Y-57495746D01*
X93900000Y-56899998D01*
X94694355Y-56899998D01*
X94694355Y-56900001D01*
X94714859Y-57068869D01*
X94714859Y-57068870D01*
X94714860Y-57068872D01*
X94775182Y-57227930D01*
X94871817Y-57367929D01*
X94871819Y-57367931D01*
X94871821Y-57367933D01*
X94944577Y-57432389D01*
X94999148Y-57480734D01*
X95149775Y-57559790D01*
X95314944Y-57600500D01*
X95314947Y-57600500D01*
X95485053Y-57600500D01*
X95485056Y-57600500D01*
X95650225Y-57559790D01*
X95800852Y-57480734D01*
X95928183Y-57367929D01*
X96024818Y-57227930D01*
X96085140Y-57068872D01*
X96105645Y-56900000D01*
X96085140Y-56731128D01*
X96024818Y-56572070D01*
X95928183Y-56432071D01*
X95928180Y-56432068D01*
X95928178Y-56432066D01*
X95800854Y-56319268D01*
X95800852Y-56319266D01*
X95650225Y-56240210D01*
X95485056Y-56199500D01*
X95314944Y-56199500D01*
X95149775Y-56240210D01*
X95149773Y-56240211D01*
X94999149Y-56319265D01*
X94999145Y-56319268D01*
X94871821Y-56432066D01*
X94871815Y-56432073D01*
X94775182Y-56572070D01*
X94714860Y-56731128D01*
X94714859Y-56731130D01*
X94694355Y-56899998D01*
X93900000Y-56899998D01*
X93900000Y-56404321D01*
X93902844Y-56396749D01*
X94596564Y-55603927D01*
X94604454Y-55600025D01*
X94605219Y-55600000D01*
X97099998Y-55600000D01*
X97100000Y-55600000D01*
X98100000Y-54600000D01*
X98100000Y-51703482D01*
X98101931Y-51697103D01*
X98296167Y-51405750D01*
X98696586Y-50805121D01*
X98703900Y-50800223D01*
X98706155Y-50800000D01*
X100096167Y-50800000D01*
X100103067Y-50802300D01*
G37*
G04 #@! TD.AperFunction*
M02*
