%TF.GenerationSoftware,KiCad,Pcbnew,8.0.8*%
%TF.CreationDate,2025-02-18T10:08:30-06:00*%
%TF.ProjectId,Tunnleing_Amp,54756e6e-6c65-4696-9e67-5f416d702e6b,rev?*%
%TF.SameCoordinates,Original*%
%TF.FileFunction,Drillmap*%
%TF.FilePolarity,Positive*%
%FSLAX45Y45*%
G04 Gerber Fmt 4.5, Leading zero omitted, Abs format (unit mm)*
G04 Created by KiCad (PCBNEW 8.0.8) date 2025-02-18 10:08:30*
%MOMM*%
%LPD*%
G01*
G04 APERTURE LIST*
%ADD10C,0.050000*%
%ADD11C,0.200000*%
%ADD12C,0.100000*%
%ADD13C,0.220000*%
G04 APERTURE END LIST*
D10*
X9160000Y-4810000D02*
X11160000Y-4810000D01*
X11160000Y-6810000D01*
X9160000Y-6810000D01*
X9160000Y-4810000D01*
D11*
D12*
X9415000Y-5675000D02*
X9445000Y-5705000D01*
X9445000Y-5675000D02*
X9415000Y-5705000D01*
X9475000Y-5585000D02*
X9505000Y-5615000D01*
X9505000Y-5585000D02*
X9475000Y-5615000D01*
X9475000Y-5765000D02*
X9505000Y-5795000D01*
X9505000Y-5765000D02*
X9475000Y-5795000D01*
X9565000Y-5580000D02*
X9595000Y-5610000D01*
X9595000Y-5580000D02*
X9565000Y-5610000D01*
X9575000Y-5765000D02*
X9605000Y-5795000D01*
X9605000Y-5765000D02*
X9575000Y-5795000D01*
X9645000Y-5615000D02*
X9675000Y-5645000D01*
X9675000Y-5615000D02*
X9645000Y-5645000D01*
X9645000Y-5735000D02*
X9675000Y-5765000D01*
X9675000Y-5735000D02*
X9645000Y-5765000D01*
X9745000Y-5615000D02*
X9775000Y-5645000D01*
X9775000Y-5615000D02*
X9745000Y-5645000D01*
X9745000Y-5735000D02*
X9775000Y-5765000D01*
X9775000Y-5735000D02*
X9745000Y-5765000D01*
X9835000Y-5615000D02*
X9865000Y-5645000D01*
X9865000Y-5615000D02*
X9835000Y-5645000D01*
X9835000Y-5735000D02*
X9865000Y-5765000D01*
X9865000Y-5735000D02*
X9835000Y-5765000D01*
X9865000Y-5815000D02*
X9895000Y-5845000D01*
X9895000Y-5815000D02*
X9865000Y-5845000D01*
X9875000Y-5125000D02*
X9905000Y-5155000D01*
X9905000Y-5125000D02*
X9875000Y-5155000D01*
X9875000Y-5205000D02*
X9905000Y-5235000D01*
X9905000Y-5205000D02*
X9875000Y-5235000D01*
X9875000Y-5295000D02*
X9905000Y-5325000D01*
X9905000Y-5295000D02*
X9875000Y-5325000D01*
X9915000Y-5365000D02*
X9945000Y-5395000D01*
X9945000Y-5365000D02*
X9915000Y-5395000D01*
X9915000Y-5455000D02*
X9945000Y-5485000D01*
X9945000Y-5455000D02*
X9915000Y-5485000D01*
X9915000Y-5545000D02*
X9945000Y-5575000D01*
X9945000Y-5545000D02*
X9915000Y-5575000D01*
X9955000Y-5815000D02*
X9985000Y-5845000D01*
X9985000Y-5815000D02*
X9955000Y-5845000D01*
X9965000Y-5120000D02*
X9995000Y-5150000D01*
X9995000Y-5120000D02*
X9965000Y-5150000D01*
X9994500Y-6216100D02*
X10024500Y-6246100D01*
X10024500Y-6216100D02*
X9994500Y-6246100D01*
X10040000Y-5815000D02*
X10070000Y-5845000D01*
X10070000Y-5815000D02*
X10040000Y-5845000D01*
X10055000Y-5145000D02*
X10085000Y-5175000D01*
X10085000Y-5145000D02*
X10055000Y-5175000D01*
X10095000Y-5370000D02*
X10125000Y-5400000D01*
X10125000Y-5370000D02*
X10095000Y-5400000D01*
X10095000Y-5455000D02*
X10125000Y-5485000D01*
X10125000Y-5455000D02*
X10095000Y-5485000D01*
X10095000Y-5555000D02*
X10125000Y-5585000D01*
X10125000Y-5555000D02*
X10095000Y-5585000D01*
X10121500Y-5673900D02*
X10151500Y-5703900D01*
X10151500Y-5673900D02*
X10121500Y-5703900D01*
X10121500Y-5815000D02*
X10151500Y-5845000D01*
X10151500Y-5815000D02*
X10121500Y-5845000D01*
X10505000Y-5790000D02*
X10535000Y-5820000D01*
X10535000Y-5790000D02*
X10505000Y-5820000D01*
X10505000Y-6100000D02*
X10535000Y-6130000D01*
X10535000Y-6100000D02*
X10505000Y-6130000D01*
X10565000Y-5865000D02*
X10595000Y-5895000D01*
X10595000Y-5865000D02*
X10565000Y-5895000D01*
X10565000Y-6025000D02*
X10595000Y-6055000D01*
X10595000Y-6025000D02*
X10565000Y-6055000D01*
X10575000Y-5708000D02*
X10605000Y-5738000D01*
X10605000Y-5708000D02*
X10575000Y-5738000D01*
X10575000Y-6182000D02*
X10605000Y-6212000D01*
X10605000Y-6182000D02*
X10575000Y-6212000D01*
X10630000Y-5945000D02*
X10660000Y-5975000D01*
X10660000Y-5945000D02*
X10630000Y-5975000D01*
X10805000Y-5585000D02*
X10835000Y-5615000D01*
X10835000Y-5585000D02*
X10805000Y-5615000D01*
X10805000Y-6305000D02*
X10835000Y-6335000D01*
X10835000Y-6305000D02*
X10805000Y-6335000D01*
X10920000Y-5335000D02*
X10950000Y-5365000D01*
X10950000Y-5335000D02*
X10920000Y-5365000D01*
X10920000Y-6555000D02*
X10950000Y-6585000D01*
X10950000Y-6555000D02*
X10920000Y-6585000D01*
X10965000Y-5585000D02*
X10995000Y-5615000D01*
X10995000Y-5585000D02*
X10965000Y-5615000D01*
X10965000Y-6305000D02*
X10995000Y-6335000D01*
X10995000Y-6305000D02*
X10965000Y-6335000D01*
X9565000Y-5690000D02*
G75*
G02*
X9515000Y-5690000I-25000J0D01*
G01*
X9515000Y-5690000D02*
G75*
G02*
X9565000Y-5690000I25000J0D01*
G01*
X10680000Y-4965000D02*
X10680000Y-5015000D01*
X10655000Y-4990000D02*
X10705000Y-4990000D01*
X10925356Y-5862856D02*
X10925356Y-5792144D01*
X10854644Y-5792144D01*
X10854644Y-5862856D01*
X10925356Y-5862856D01*
X10925356Y-6116856D02*
X10925356Y-6046144D01*
X10854644Y-6046144D01*
X10854644Y-6116856D01*
X10925356Y-6116856D01*
D13*
X9450000Y-5210000D02*
X9560000Y-5100000D01*
X9450000Y-4990000D01*
X9340000Y-5100000D01*
X9450000Y-5210000D01*
X9450000Y-6630000D02*
X9560000Y-6520000D01*
X9450000Y-6410000D01*
X9340000Y-6520000D01*
X9450000Y-6630000D01*
D11*
X9418277Y-7123984D02*
X9418277Y-6923984D01*
X9418277Y-6923984D02*
X9465896Y-6923984D01*
X9465896Y-6923984D02*
X9494467Y-6933508D01*
X9494467Y-6933508D02*
X9513515Y-6952555D01*
X9513515Y-6952555D02*
X9523039Y-6971603D01*
X9523039Y-6971603D02*
X9532563Y-7009698D01*
X9532563Y-7009698D02*
X9532563Y-7038269D01*
X9532563Y-7038269D02*
X9523039Y-7076365D01*
X9523039Y-7076365D02*
X9513515Y-7095412D01*
X9513515Y-7095412D02*
X9494467Y-7114460D01*
X9494467Y-7114460D02*
X9465896Y-7123984D01*
X9465896Y-7123984D02*
X9418277Y-7123984D01*
X9618277Y-7123984D02*
X9618277Y-6990650D01*
X9618277Y-7028746D02*
X9627801Y-7009698D01*
X9627801Y-7009698D02*
X9637324Y-7000174D01*
X9637324Y-7000174D02*
X9656372Y-6990650D01*
X9656372Y-6990650D02*
X9675420Y-6990650D01*
X9742086Y-7123984D02*
X9742086Y-6990650D01*
X9742086Y-6923984D02*
X9732563Y-6933508D01*
X9732563Y-6933508D02*
X9742086Y-6943031D01*
X9742086Y-6943031D02*
X9751610Y-6933508D01*
X9751610Y-6933508D02*
X9742086Y-6923984D01*
X9742086Y-6923984D02*
X9742086Y-6943031D01*
X9865896Y-7123984D02*
X9846848Y-7114460D01*
X9846848Y-7114460D02*
X9837324Y-7095412D01*
X9837324Y-7095412D02*
X9837324Y-6923984D01*
X9970658Y-7123984D02*
X9951610Y-7114460D01*
X9951610Y-7114460D02*
X9942086Y-7095412D01*
X9942086Y-7095412D02*
X9942086Y-6923984D01*
X10199229Y-7123984D02*
X10199229Y-6923984D01*
X10199229Y-6923984D02*
X10265896Y-7066841D01*
X10265896Y-7066841D02*
X10332563Y-6923984D01*
X10332563Y-6923984D02*
X10332563Y-7123984D01*
X10513515Y-7123984D02*
X10513515Y-7019222D01*
X10513515Y-7019222D02*
X10503991Y-7000174D01*
X10503991Y-7000174D02*
X10484944Y-6990650D01*
X10484944Y-6990650D02*
X10446848Y-6990650D01*
X10446848Y-6990650D02*
X10427801Y-7000174D01*
X10513515Y-7114460D02*
X10494467Y-7123984D01*
X10494467Y-7123984D02*
X10446848Y-7123984D01*
X10446848Y-7123984D02*
X10427801Y-7114460D01*
X10427801Y-7114460D02*
X10418277Y-7095412D01*
X10418277Y-7095412D02*
X10418277Y-7076365D01*
X10418277Y-7076365D02*
X10427801Y-7057317D01*
X10427801Y-7057317D02*
X10446848Y-7047793D01*
X10446848Y-7047793D02*
X10494467Y-7047793D01*
X10494467Y-7047793D02*
X10513515Y-7038269D01*
X10608753Y-6990650D02*
X10608753Y-7190650D01*
X10608753Y-7000174D02*
X10627801Y-6990650D01*
X10627801Y-6990650D02*
X10665896Y-6990650D01*
X10665896Y-6990650D02*
X10684944Y-7000174D01*
X10684944Y-7000174D02*
X10694467Y-7009698D01*
X10694467Y-7009698D02*
X10703991Y-7028746D01*
X10703991Y-7028746D02*
X10703991Y-7085888D01*
X10703991Y-7085888D02*
X10694467Y-7104936D01*
X10694467Y-7104936D02*
X10684944Y-7114460D01*
X10684944Y-7114460D02*
X10665896Y-7123984D01*
X10665896Y-7123984D02*
X10627801Y-7123984D01*
X10627801Y-7123984D02*
X10608753Y-7114460D01*
X10789705Y-7104936D02*
X10799229Y-7114460D01*
X10799229Y-7114460D02*
X10789705Y-7123984D01*
X10789705Y-7123984D02*
X10780182Y-7114460D01*
X10780182Y-7114460D02*
X10789705Y-7104936D01*
X10789705Y-7104936D02*
X10789705Y-7123984D01*
X10789705Y-7000174D02*
X10799229Y-7009698D01*
X10799229Y-7009698D02*
X10789705Y-7019222D01*
X10789705Y-7019222D02*
X10780182Y-7009698D01*
X10780182Y-7009698D02*
X10789705Y-7000174D01*
X10789705Y-7000174D02*
X10789705Y-7019222D01*
D12*
X9127500Y-7437500D02*
X9157500Y-7467500D01*
X9157500Y-7437500D02*
X9127500Y-7467500D01*
D11*
X9456372Y-7343984D02*
X9475420Y-7343984D01*
X9475420Y-7343984D02*
X9494467Y-7353508D01*
X9494467Y-7353508D02*
X9503991Y-7363031D01*
X9503991Y-7363031D02*
X9513515Y-7382079D01*
X9513515Y-7382079D02*
X9523039Y-7420174D01*
X9523039Y-7420174D02*
X9523039Y-7467793D01*
X9523039Y-7467793D02*
X9513515Y-7505888D01*
X9513515Y-7505888D02*
X9503991Y-7524936D01*
X9503991Y-7524936D02*
X9494467Y-7534460D01*
X9494467Y-7534460D02*
X9475420Y-7543984D01*
X9475420Y-7543984D02*
X9456372Y-7543984D01*
X9456372Y-7543984D02*
X9437324Y-7534460D01*
X9437324Y-7534460D02*
X9427801Y-7524936D01*
X9427801Y-7524936D02*
X9418277Y-7505888D01*
X9418277Y-7505888D02*
X9408753Y-7467793D01*
X9408753Y-7467793D02*
X9408753Y-7420174D01*
X9408753Y-7420174D02*
X9418277Y-7382079D01*
X9418277Y-7382079D02*
X9427801Y-7363031D01*
X9427801Y-7363031D02*
X9437324Y-7353508D01*
X9437324Y-7353508D02*
X9456372Y-7343984D01*
X9608753Y-7524936D02*
X9618277Y-7534460D01*
X9618277Y-7534460D02*
X9608753Y-7543984D01*
X9608753Y-7543984D02*
X9599229Y-7534460D01*
X9599229Y-7534460D02*
X9608753Y-7524936D01*
X9608753Y-7524936D02*
X9608753Y-7543984D01*
X9684944Y-7343984D02*
X9808753Y-7343984D01*
X9808753Y-7343984D02*
X9742086Y-7420174D01*
X9742086Y-7420174D02*
X9770658Y-7420174D01*
X9770658Y-7420174D02*
X9789705Y-7429698D01*
X9789705Y-7429698D02*
X9799229Y-7439222D01*
X9799229Y-7439222D02*
X9808753Y-7458269D01*
X9808753Y-7458269D02*
X9808753Y-7505888D01*
X9808753Y-7505888D02*
X9799229Y-7524936D01*
X9799229Y-7524936D02*
X9789705Y-7534460D01*
X9789705Y-7534460D02*
X9770658Y-7543984D01*
X9770658Y-7543984D02*
X9713515Y-7543984D01*
X9713515Y-7543984D02*
X9694467Y-7534460D01*
X9694467Y-7534460D02*
X9684944Y-7524936D01*
X9932563Y-7343984D02*
X9951610Y-7343984D01*
X9951610Y-7343984D02*
X9970658Y-7353508D01*
X9970658Y-7353508D02*
X9980182Y-7363031D01*
X9980182Y-7363031D02*
X9989705Y-7382079D01*
X9989705Y-7382079D02*
X9999229Y-7420174D01*
X9999229Y-7420174D02*
X9999229Y-7467793D01*
X9999229Y-7467793D02*
X9989705Y-7505888D01*
X9989705Y-7505888D02*
X9980182Y-7524936D01*
X9980182Y-7524936D02*
X9970658Y-7534460D01*
X9970658Y-7534460D02*
X9951610Y-7543984D01*
X9951610Y-7543984D02*
X9932563Y-7543984D01*
X9932563Y-7543984D02*
X9913515Y-7534460D01*
X9913515Y-7534460D02*
X9903991Y-7524936D01*
X9903991Y-7524936D02*
X9894467Y-7505888D01*
X9894467Y-7505888D02*
X9884944Y-7467793D01*
X9884944Y-7467793D02*
X9884944Y-7420174D01*
X9884944Y-7420174D02*
X9894467Y-7382079D01*
X9894467Y-7382079D02*
X9903991Y-7363031D01*
X9903991Y-7363031D02*
X9913515Y-7353508D01*
X9913515Y-7353508D02*
X9932563Y-7343984D01*
X10123039Y-7343984D02*
X10142086Y-7343984D01*
X10142086Y-7343984D02*
X10161134Y-7353508D01*
X10161134Y-7353508D02*
X10170658Y-7363031D01*
X10170658Y-7363031D02*
X10180182Y-7382079D01*
X10180182Y-7382079D02*
X10189705Y-7420174D01*
X10189705Y-7420174D02*
X10189705Y-7467793D01*
X10189705Y-7467793D02*
X10180182Y-7505888D01*
X10180182Y-7505888D02*
X10170658Y-7524936D01*
X10170658Y-7524936D02*
X10161134Y-7534460D01*
X10161134Y-7534460D02*
X10142086Y-7543984D01*
X10142086Y-7543984D02*
X10123039Y-7543984D01*
X10123039Y-7543984D02*
X10103991Y-7534460D01*
X10103991Y-7534460D02*
X10094467Y-7524936D01*
X10094467Y-7524936D02*
X10084944Y-7505888D01*
X10084944Y-7505888D02*
X10075420Y-7467793D01*
X10075420Y-7467793D02*
X10075420Y-7420174D01*
X10075420Y-7420174D02*
X10084944Y-7382079D01*
X10084944Y-7382079D02*
X10094467Y-7363031D01*
X10094467Y-7363031D02*
X10103991Y-7353508D01*
X10103991Y-7353508D02*
X10123039Y-7343984D01*
X10275420Y-7543984D02*
X10275420Y-7410650D01*
X10275420Y-7429698D02*
X10284944Y-7420174D01*
X10284944Y-7420174D02*
X10303991Y-7410650D01*
X10303991Y-7410650D02*
X10332563Y-7410650D01*
X10332563Y-7410650D02*
X10351610Y-7420174D01*
X10351610Y-7420174D02*
X10361134Y-7439222D01*
X10361134Y-7439222D02*
X10361134Y-7543984D01*
X10361134Y-7439222D02*
X10370658Y-7420174D01*
X10370658Y-7420174D02*
X10389705Y-7410650D01*
X10389705Y-7410650D02*
X10418277Y-7410650D01*
X10418277Y-7410650D02*
X10437325Y-7420174D01*
X10437325Y-7420174D02*
X10446848Y-7439222D01*
X10446848Y-7439222D02*
X10446848Y-7543984D01*
X10542086Y-7543984D02*
X10542086Y-7410650D01*
X10542086Y-7429698D02*
X10551610Y-7420174D01*
X10551610Y-7420174D02*
X10570658Y-7410650D01*
X10570658Y-7410650D02*
X10599229Y-7410650D01*
X10599229Y-7410650D02*
X10618277Y-7420174D01*
X10618277Y-7420174D02*
X10627801Y-7439222D01*
X10627801Y-7439222D02*
X10627801Y-7543984D01*
X10627801Y-7439222D02*
X10637325Y-7420174D01*
X10637325Y-7420174D02*
X10656372Y-7410650D01*
X10656372Y-7410650D02*
X10684944Y-7410650D01*
X10684944Y-7410650D02*
X10703991Y-7420174D01*
X10703991Y-7420174D02*
X10713515Y-7439222D01*
X10713515Y-7439222D02*
X10713515Y-7543984D01*
X11103991Y-7334460D02*
X10932563Y-7591603D01*
X11361134Y-7343984D02*
X11380182Y-7343984D01*
X11380182Y-7343984D02*
X11399229Y-7353508D01*
X11399229Y-7353508D02*
X11408753Y-7363031D01*
X11408753Y-7363031D02*
X11418277Y-7382079D01*
X11418277Y-7382079D02*
X11427801Y-7420174D01*
X11427801Y-7420174D02*
X11427801Y-7467793D01*
X11427801Y-7467793D02*
X11418277Y-7505888D01*
X11418277Y-7505888D02*
X11408753Y-7524936D01*
X11408753Y-7524936D02*
X11399229Y-7534460D01*
X11399229Y-7534460D02*
X11380182Y-7543984D01*
X11380182Y-7543984D02*
X11361134Y-7543984D01*
X11361134Y-7543984D02*
X11342086Y-7534460D01*
X11342086Y-7534460D02*
X11332563Y-7524936D01*
X11332563Y-7524936D02*
X11323039Y-7505888D01*
X11323039Y-7505888D02*
X11313515Y-7467793D01*
X11313515Y-7467793D02*
X11313515Y-7420174D01*
X11313515Y-7420174D02*
X11323039Y-7382079D01*
X11323039Y-7382079D02*
X11332563Y-7363031D01*
X11332563Y-7363031D02*
X11342086Y-7353508D01*
X11342086Y-7353508D02*
X11361134Y-7343984D01*
X11513515Y-7524936D02*
X11523039Y-7534460D01*
X11523039Y-7534460D02*
X11513515Y-7543984D01*
X11513515Y-7543984D02*
X11503991Y-7534460D01*
X11503991Y-7534460D02*
X11513515Y-7524936D01*
X11513515Y-7524936D02*
X11513515Y-7543984D01*
X11646848Y-7343984D02*
X11665896Y-7343984D01*
X11665896Y-7343984D02*
X11684944Y-7353508D01*
X11684944Y-7353508D02*
X11694467Y-7363031D01*
X11694467Y-7363031D02*
X11703991Y-7382079D01*
X11703991Y-7382079D02*
X11713515Y-7420174D01*
X11713515Y-7420174D02*
X11713515Y-7467793D01*
X11713515Y-7467793D02*
X11703991Y-7505888D01*
X11703991Y-7505888D02*
X11694467Y-7524936D01*
X11694467Y-7524936D02*
X11684944Y-7534460D01*
X11684944Y-7534460D02*
X11665896Y-7543984D01*
X11665896Y-7543984D02*
X11646848Y-7543984D01*
X11646848Y-7543984D02*
X11627801Y-7534460D01*
X11627801Y-7534460D02*
X11618277Y-7524936D01*
X11618277Y-7524936D02*
X11608753Y-7505888D01*
X11608753Y-7505888D02*
X11599229Y-7467793D01*
X11599229Y-7467793D02*
X11599229Y-7420174D01*
X11599229Y-7420174D02*
X11608753Y-7382079D01*
X11608753Y-7382079D02*
X11618277Y-7363031D01*
X11618277Y-7363031D02*
X11627801Y-7353508D01*
X11627801Y-7353508D02*
X11646848Y-7343984D01*
X11903991Y-7543984D02*
X11789706Y-7543984D01*
X11846848Y-7543984D02*
X11846848Y-7343984D01*
X11846848Y-7343984D02*
X11827801Y-7372555D01*
X11827801Y-7372555D02*
X11808753Y-7391603D01*
X11808753Y-7391603D02*
X11789706Y-7401127D01*
X12094467Y-7543984D02*
X11980182Y-7543984D01*
X12037325Y-7543984D02*
X12037325Y-7343984D01*
X12037325Y-7343984D02*
X12018277Y-7372555D01*
X12018277Y-7372555D02*
X11999229Y-7391603D01*
X11999229Y-7391603D02*
X11980182Y-7401127D01*
X12208753Y-7429698D02*
X12189706Y-7420174D01*
X12189706Y-7420174D02*
X12180182Y-7410650D01*
X12180182Y-7410650D02*
X12170658Y-7391603D01*
X12170658Y-7391603D02*
X12170658Y-7382079D01*
X12170658Y-7382079D02*
X12180182Y-7363031D01*
X12180182Y-7363031D02*
X12189706Y-7353508D01*
X12189706Y-7353508D02*
X12208753Y-7343984D01*
X12208753Y-7343984D02*
X12246848Y-7343984D01*
X12246848Y-7343984D02*
X12265896Y-7353508D01*
X12265896Y-7353508D02*
X12275420Y-7363031D01*
X12275420Y-7363031D02*
X12284944Y-7382079D01*
X12284944Y-7382079D02*
X12284944Y-7391603D01*
X12284944Y-7391603D02*
X12275420Y-7410650D01*
X12275420Y-7410650D02*
X12265896Y-7420174D01*
X12265896Y-7420174D02*
X12246848Y-7429698D01*
X12246848Y-7429698D02*
X12208753Y-7429698D01*
X12208753Y-7429698D02*
X12189706Y-7439222D01*
X12189706Y-7439222D02*
X12180182Y-7448746D01*
X12180182Y-7448746D02*
X12170658Y-7467793D01*
X12170658Y-7467793D02*
X12170658Y-7505888D01*
X12170658Y-7505888D02*
X12180182Y-7524936D01*
X12180182Y-7524936D02*
X12189706Y-7534460D01*
X12189706Y-7534460D02*
X12208753Y-7543984D01*
X12208753Y-7543984D02*
X12246848Y-7543984D01*
X12246848Y-7543984D02*
X12265896Y-7534460D01*
X12265896Y-7534460D02*
X12275420Y-7524936D01*
X12275420Y-7524936D02*
X12284944Y-7505888D01*
X12284944Y-7505888D02*
X12284944Y-7467793D01*
X12284944Y-7467793D02*
X12275420Y-7448746D01*
X12275420Y-7448746D02*
X12265896Y-7439222D01*
X12265896Y-7439222D02*
X12246848Y-7429698D01*
X12361134Y-7343984D02*
X12361134Y-7382079D01*
X12437325Y-7343984D02*
X12437325Y-7382079D01*
X12732563Y-7620174D02*
X12723039Y-7610650D01*
X12723039Y-7610650D02*
X12703991Y-7582079D01*
X12703991Y-7582079D02*
X12694468Y-7563031D01*
X12694468Y-7563031D02*
X12684944Y-7534460D01*
X12684944Y-7534460D02*
X12675420Y-7486841D01*
X12675420Y-7486841D02*
X12675420Y-7448746D01*
X12675420Y-7448746D02*
X12684944Y-7401127D01*
X12684944Y-7401127D02*
X12694468Y-7372555D01*
X12694468Y-7372555D02*
X12703991Y-7353508D01*
X12703991Y-7353508D02*
X12723039Y-7324936D01*
X12723039Y-7324936D02*
X12732563Y-7315412D01*
X12894468Y-7410650D02*
X12894468Y-7543984D01*
X12846848Y-7334460D02*
X12799229Y-7477317D01*
X12799229Y-7477317D02*
X12923039Y-7477317D01*
X13103991Y-7543984D02*
X12989706Y-7543984D01*
X13046848Y-7543984D02*
X13046848Y-7343984D01*
X13046848Y-7343984D02*
X13027801Y-7372555D01*
X13027801Y-7372555D02*
X13008753Y-7391603D01*
X13008753Y-7391603D02*
X12989706Y-7401127D01*
X13342087Y-7543984D02*
X13342087Y-7343984D01*
X13427801Y-7543984D02*
X13427801Y-7439222D01*
X13427801Y-7439222D02*
X13418277Y-7420174D01*
X13418277Y-7420174D02*
X13399230Y-7410650D01*
X13399230Y-7410650D02*
X13370658Y-7410650D01*
X13370658Y-7410650D02*
X13351610Y-7420174D01*
X13351610Y-7420174D02*
X13342087Y-7429698D01*
X13551610Y-7543984D02*
X13532563Y-7534460D01*
X13532563Y-7534460D02*
X13523039Y-7524936D01*
X13523039Y-7524936D02*
X13513515Y-7505888D01*
X13513515Y-7505888D02*
X13513515Y-7448746D01*
X13513515Y-7448746D02*
X13523039Y-7429698D01*
X13523039Y-7429698D02*
X13532563Y-7420174D01*
X13532563Y-7420174D02*
X13551610Y-7410650D01*
X13551610Y-7410650D02*
X13580182Y-7410650D01*
X13580182Y-7410650D02*
X13599230Y-7420174D01*
X13599230Y-7420174D02*
X13608753Y-7429698D01*
X13608753Y-7429698D02*
X13618277Y-7448746D01*
X13618277Y-7448746D02*
X13618277Y-7505888D01*
X13618277Y-7505888D02*
X13608753Y-7524936D01*
X13608753Y-7524936D02*
X13599230Y-7534460D01*
X13599230Y-7534460D02*
X13580182Y-7543984D01*
X13580182Y-7543984D02*
X13551610Y-7543984D01*
X13732563Y-7543984D02*
X13713515Y-7534460D01*
X13713515Y-7534460D02*
X13703991Y-7515412D01*
X13703991Y-7515412D02*
X13703991Y-7343984D01*
X13884944Y-7534460D02*
X13865896Y-7543984D01*
X13865896Y-7543984D02*
X13827801Y-7543984D01*
X13827801Y-7543984D02*
X13808753Y-7534460D01*
X13808753Y-7534460D02*
X13799230Y-7515412D01*
X13799230Y-7515412D02*
X13799230Y-7439222D01*
X13799230Y-7439222D02*
X13808753Y-7420174D01*
X13808753Y-7420174D02*
X13827801Y-7410650D01*
X13827801Y-7410650D02*
X13865896Y-7410650D01*
X13865896Y-7410650D02*
X13884944Y-7420174D01*
X13884944Y-7420174D02*
X13894468Y-7439222D01*
X13894468Y-7439222D02*
X13894468Y-7458269D01*
X13894468Y-7458269D02*
X13799230Y-7477317D01*
X13970658Y-7534460D02*
X13989706Y-7543984D01*
X13989706Y-7543984D02*
X14027801Y-7543984D01*
X14027801Y-7543984D02*
X14046849Y-7534460D01*
X14046849Y-7534460D02*
X14056372Y-7515412D01*
X14056372Y-7515412D02*
X14056372Y-7505888D01*
X14056372Y-7505888D02*
X14046849Y-7486841D01*
X14046849Y-7486841D02*
X14027801Y-7477317D01*
X14027801Y-7477317D02*
X13999230Y-7477317D01*
X13999230Y-7477317D02*
X13980182Y-7467793D01*
X13980182Y-7467793D02*
X13970658Y-7448746D01*
X13970658Y-7448746D02*
X13970658Y-7439222D01*
X13970658Y-7439222D02*
X13980182Y-7420174D01*
X13980182Y-7420174D02*
X13999230Y-7410650D01*
X13999230Y-7410650D02*
X14027801Y-7410650D01*
X14027801Y-7410650D02*
X14046849Y-7420174D01*
X14123039Y-7620174D02*
X14132563Y-7610650D01*
X14132563Y-7610650D02*
X14151611Y-7582079D01*
X14151611Y-7582079D02*
X14161134Y-7563031D01*
X14161134Y-7563031D02*
X14170658Y-7534460D01*
X14170658Y-7534460D02*
X14180182Y-7486841D01*
X14180182Y-7486841D02*
X14180182Y-7448746D01*
X14180182Y-7448746D02*
X14170658Y-7401127D01*
X14170658Y-7401127D02*
X14161134Y-7372555D01*
X14161134Y-7372555D02*
X14151611Y-7353508D01*
X14151611Y-7353508D02*
X14132563Y-7324936D01*
X14132563Y-7324936D02*
X14123039Y-7315412D01*
D12*
X9157500Y-7716500D02*
G75*
G02*
X9107500Y-7716500I-25000J0D01*
G01*
X9107500Y-7716500D02*
G75*
G02*
X9157500Y-7716500I25000J0D01*
G01*
D11*
X9456372Y-7607984D02*
X9475420Y-7607984D01*
X9475420Y-7607984D02*
X9494467Y-7617508D01*
X9494467Y-7617508D02*
X9503991Y-7627031D01*
X9503991Y-7627031D02*
X9513515Y-7646079D01*
X9513515Y-7646079D02*
X9523039Y-7684174D01*
X9523039Y-7684174D02*
X9523039Y-7731793D01*
X9523039Y-7731793D02*
X9513515Y-7769888D01*
X9513515Y-7769888D02*
X9503991Y-7788936D01*
X9503991Y-7788936D02*
X9494467Y-7798460D01*
X9494467Y-7798460D02*
X9475420Y-7807984D01*
X9475420Y-7807984D02*
X9456372Y-7807984D01*
X9456372Y-7807984D02*
X9437324Y-7798460D01*
X9437324Y-7798460D02*
X9427801Y-7788936D01*
X9427801Y-7788936D02*
X9418277Y-7769888D01*
X9418277Y-7769888D02*
X9408753Y-7731793D01*
X9408753Y-7731793D02*
X9408753Y-7684174D01*
X9408753Y-7684174D02*
X9418277Y-7646079D01*
X9418277Y-7646079D02*
X9427801Y-7627031D01*
X9427801Y-7627031D02*
X9437324Y-7617508D01*
X9437324Y-7617508D02*
X9456372Y-7607984D01*
X9608753Y-7788936D02*
X9618277Y-7798460D01*
X9618277Y-7798460D02*
X9608753Y-7807984D01*
X9608753Y-7807984D02*
X9599229Y-7798460D01*
X9599229Y-7798460D02*
X9608753Y-7788936D01*
X9608753Y-7788936D02*
X9608753Y-7807984D01*
X9799229Y-7607984D02*
X9703991Y-7607984D01*
X9703991Y-7607984D02*
X9694467Y-7703222D01*
X9694467Y-7703222D02*
X9703991Y-7693698D01*
X9703991Y-7693698D02*
X9723039Y-7684174D01*
X9723039Y-7684174D02*
X9770658Y-7684174D01*
X9770658Y-7684174D02*
X9789705Y-7693698D01*
X9789705Y-7693698D02*
X9799229Y-7703222D01*
X9799229Y-7703222D02*
X9808753Y-7722269D01*
X9808753Y-7722269D02*
X9808753Y-7769888D01*
X9808753Y-7769888D02*
X9799229Y-7788936D01*
X9799229Y-7788936D02*
X9789705Y-7798460D01*
X9789705Y-7798460D02*
X9770658Y-7807984D01*
X9770658Y-7807984D02*
X9723039Y-7807984D01*
X9723039Y-7807984D02*
X9703991Y-7798460D01*
X9703991Y-7798460D02*
X9694467Y-7788936D01*
X9932563Y-7607984D02*
X9951610Y-7607984D01*
X9951610Y-7607984D02*
X9970658Y-7617508D01*
X9970658Y-7617508D02*
X9980182Y-7627031D01*
X9980182Y-7627031D02*
X9989705Y-7646079D01*
X9989705Y-7646079D02*
X9999229Y-7684174D01*
X9999229Y-7684174D02*
X9999229Y-7731793D01*
X9999229Y-7731793D02*
X9989705Y-7769888D01*
X9989705Y-7769888D02*
X9980182Y-7788936D01*
X9980182Y-7788936D02*
X9970658Y-7798460D01*
X9970658Y-7798460D02*
X9951610Y-7807984D01*
X9951610Y-7807984D02*
X9932563Y-7807984D01*
X9932563Y-7807984D02*
X9913515Y-7798460D01*
X9913515Y-7798460D02*
X9903991Y-7788936D01*
X9903991Y-7788936D02*
X9894467Y-7769888D01*
X9894467Y-7769888D02*
X9884944Y-7731793D01*
X9884944Y-7731793D02*
X9884944Y-7684174D01*
X9884944Y-7684174D02*
X9894467Y-7646079D01*
X9894467Y-7646079D02*
X9903991Y-7627031D01*
X9903991Y-7627031D02*
X9913515Y-7617508D01*
X9913515Y-7617508D02*
X9932563Y-7607984D01*
X10123039Y-7607984D02*
X10142086Y-7607984D01*
X10142086Y-7607984D02*
X10161134Y-7617508D01*
X10161134Y-7617508D02*
X10170658Y-7627031D01*
X10170658Y-7627031D02*
X10180182Y-7646079D01*
X10180182Y-7646079D02*
X10189705Y-7684174D01*
X10189705Y-7684174D02*
X10189705Y-7731793D01*
X10189705Y-7731793D02*
X10180182Y-7769888D01*
X10180182Y-7769888D02*
X10170658Y-7788936D01*
X10170658Y-7788936D02*
X10161134Y-7798460D01*
X10161134Y-7798460D02*
X10142086Y-7807984D01*
X10142086Y-7807984D02*
X10123039Y-7807984D01*
X10123039Y-7807984D02*
X10103991Y-7798460D01*
X10103991Y-7798460D02*
X10094467Y-7788936D01*
X10094467Y-7788936D02*
X10084944Y-7769888D01*
X10084944Y-7769888D02*
X10075420Y-7731793D01*
X10075420Y-7731793D02*
X10075420Y-7684174D01*
X10075420Y-7684174D02*
X10084944Y-7646079D01*
X10084944Y-7646079D02*
X10094467Y-7627031D01*
X10094467Y-7627031D02*
X10103991Y-7617508D01*
X10103991Y-7617508D02*
X10123039Y-7607984D01*
X10275420Y-7807984D02*
X10275420Y-7674650D01*
X10275420Y-7693698D02*
X10284944Y-7684174D01*
X10284944Y-7684174D02*
X10303991Y-7674650D01*
X10303991Y-7674650D02*
X10332563Y-7674650D01*
X10332563Y-7674650D02*
X10351610Y-7684174D01*
X10351610Y-7684174D02*
X10361134Y-7703222D01*
X10361134Y-7703222D02*
X10361134Y-7807984D01*
X10361134Y-7703222D02*
X10370658Y-7684174D01*
X10370658Y-7684174D02*
X10389705Y-7674650D01*
X10389705Y-7674650D02*
X10418277Y-7674650D01*
X10418277Y-7674650D02*
X10437325Y-7684174D01*
X10437325Y-7684174D02*
X10446848Y-7703222D01*
X10446848Y-7703222D02*
X10446848Y-7807984D01*
X10542086Y-7807984D02*
X10542086Y-7674650D01*
X10542086Y-7693698D02*
X10551610Y-7684174D01*
X10551610Y-7684174D02*
X10570658Y-7674650D01*
X10570658Y-7674650D02*
X10599229Y-7674650D01*
X10599229Y-7674650D02*
X10618277Y-7684174D01*
X10618277Y-7684174D02*
X10627801Y-7703222D01*
X10627801Y-7703222D02*
X10627801Y-7807984D01*
X10627801Y-7703222D02*
X10637325Y-7684174D01*
X10637325Y-7684174D02*
X10656372Y-7674650D01*
X10656372Y-7674650D02*
X10684944Y-7674650D01*
X10684944Y-7674650D02*
X10703991Y-7684174D01*
X10703991Y-7684174D02*
X10713515Y-7703222D01*
X10713515Y-7703222D02*
X10713515Y-7807984D01*
X11103991Y-7598460D02*
X10932563Y-7855603D01*
X11361134Y-7607984D02*
X11380182Y-7607984D01*
X11380182Y-7607984D02*
X11399229Y-7617508D01*
X11399229Y-7617508D02*
X11408753Y-7627031D01*
X11408753Y-7627031D02*
X11418277Y-7646079D01*
X11418277Y-7646079D02*
X11427801Y-7684174D01*
X11427801Y-7684174D02*
X11427801Y-7731793D01*
X11427801Y-7731793D02*
X11418277Y-7769888D01*
X11418277Y-7769888D02*
X11408753Y-7788936D01*
X11408753Y-7788936D02*
X11399229Y-7798460D01*
X11399229Y-7798460D02*
X11380182Y-7807984D01*
X11380182Y-7807984D02*
X11361134Y-7807984D01*
X11361134Y-7807984D02*
X11342086Y-7798460D01*
X11342086Y-7798460D02*
X11332563Y-7788936D01*
X11332563Y-7788936D02*
X11323039Y-7769888D01*
X11323039Y-7769888D02*
X11313515Y-7731793D01*
X11313515Y-7731793D02*
X11313515Y-7684174D01*
X11313515Y-7684174D02*
X11323039Y-7646079D01*
X11323039Y-7646079D02*
X11332563Y-7627031D01*
X11332563Y-7627031D02*
X11342086Y-7617508D01*
X11342086Y-7617508D02*
X11361134Y-7607984D01*
X11513515Y-7788936D02*
X11523039Y-7798460D01*
X11523039Y-7798460D02*
X11513515Y-7807984D01*
X11513515Y-7807984D02*
X11503991Y-7798460D01*
X11503991Y-7798460D02*
X11513515Y-7788936D01*
X11513515Y-7788936D02*
X11513515Y-7807984D01*
X11646848Y-7607984D02*
X11665896Y-7607984D01*
X11665896Y-7607984D02*
X11684944Y-7617508D01*
X11684944Y-7617508D02*
X11694467Y-7627031D01*
X11694467Y-7627031D02*
X11703991Y-7646079D01*
X11703991Y-7646079D02*
X11713515Y-7684174D01*
X11713515Y-7684174D02*
X11713515Y-7731793D01*
X11713515Y-7731793D02*
X11703991Y-7769888D01*
X11703991Y-7769888D02*
X11694467Y-7788936D01*
X11694467Y-7788936D02*
X11684944Y-7798460D01*
X11684944Y-7798460D02*
X11665896Y-7807984D01*
X11665896Y-7807984D02*
X11646848Y-7807984D01*
X11646848Y-7807984D02*
X11627801Y-7798460D01*
X11627801Y-7798460D02*
X11618277Y-7788936D01*
X11618277Y-7788936D02*
X11608753Y-7769888D01*
X11608753Y-7769888D02*
X11599229Y-7731793D01*
X11599229Y-7731793D02*
X11599229Y-7684174D01*
X11599229Y-7684174D02*
X11608753Y-7646079D01*
X11608753Y-7646079D02*
X11618277Y-7627031D01*
X11618277Y-7627031D02*
X11627801Y-7617508D01*
X11627801Y-7617508D02*
X11646848Y-7607984D01*
X11903991Y-7807984D02*
X11789706Y-7807984D01*
X11846848Y-7807984D02*
X11846848Y-7607984D01*
X11846848Y-7607984D02*
X11827801Y-7636555D01*
X11827801Y-7636555D02*
X11808753Y-7655603D01*
X11808753Y-7655603D02*
X11789706Y-7665127D01*
X11999229Y-7807984D02*
X12037325Y-7807984D01*
X12037325Y-7807984D02*
X12056372Y-7798460D01*
X12056372Y-7798460D02*
X12065896Y-7788936D01*
X12065896Y-7788936D02*
X12084944Y-7760365D01*
X12084944Y-7760365D02*
X12094467Y-7722269D01*
X12094467Y-7722269D02*
X12094467Y-7646079D01*
X12094467Y-7646079D02*
X12084944Y-7627031D01*
X12084944Y-7627031D02*
X12075420Y-7617508D01*
X12075420Y-7617508D02*
X12056372Y-7607984D01*
X12056372Y-7607984D02*
X12018277Y-7607984D01*
X12018277Y-7607984D02*
X11999229Y-7617508D01*
X11999229Y-7617508D02*
X11989706Y-7627031D01*
X11989706Y-7627031D02*
X11980182Y-7646079D01*
X11980182Y-7646079D02*
X11980182Y-7693698D01*
X11980182Y-7693698D02*
X11989706Y-7712746D01*
X11989706Y-7712746D02*
X11999229Y-7722269D01*
X11999229Y-7722269D02*
X12018277Y-7731793D01*
X12018277Y-7731793D02*
X12056372Y-7731793D01*
X12056372Y-7731793D02*
X12075420Y-7722269D01*
X12075420Y-7722269D02*
X12084944Y-7712746D01*
X12084944Y-7712746D02*
X12094467Y-7693698D01*
X12161134Y-7607984D02*
X12294467Y-7607984D01*
X12294467Y-7607984D02*
X12208753Y-7807984D01*
X12361134Y-7607984D02*
X12361134Y-7646079D01*
X12437325Y-7607984D02*
X12437325Y-7646079D01*
X12732563Y-7884174D02*
X12723039Y-7874650D01*
X12723039Y-7874650D02*
X12703991Y-7846079D01*
X12703991Y-7846079D02*
X12694468Y-7827031D01*
X12694468Y-7827031D02*
X12684944Y-7798460D01*
X12684944Y-7798460D02*
X12675420Y-7750841D01*
X12675420Y-7750841D02*
X12675420Y-7712746D01*
X12675420Y-7712746D02*
X12684944Y-7665127D01*
X12684944Y-7665127D02*
X12694468Y-7636555D01*
X12694468Y-7636555D02*
X12703991Y-7617508D01*
X12703991Y-7617508D02*
X12723039Y-7588936D01*
X12723039Y-7588936D02*
X12732563Y-7579412D01*
X12913515Y-7807984D02*
X12799229Y-7807984D01*
X12856372Y-7807984D02*
X12856372Y-7607984D01*
X12856372Y-7607984D02*
X12837325Y-7636555D01*
X12837325Y-7636555D02*
X12818277Y-7655603D01*
X12818277Y-7655603D02*
X12799229Y-7665127D01*
X13151610Y-7807984D02*
X13151610Y-7607984D01*
X13237325Y-7807984D02*
X13237325Y-7703222D01*
X13237325Y-7703222D02*
X13227801Y-7684174D01*
X13227801Y-7684174D02*
X13208753Y-7674650D01*
X13208753Y-7674650D02*
X13180182Y-7674650D01*
X13180182Y-7674650D02*
X13161134Y-7684174D01*
X13161134Y-7684174D02*
X13151610Y-7693698D01*
X13361134Y-7807984D02*
X13342087Y-7798460D01*
X13342087Y-7798460D02*
X13332563Y-7788936D01*
X13332563Y-7788936D02*
X13323039Y-7769888D01*
X13323039Y-7769888D02*
X13323039Y-7712746D01*
X13323039Y-7712746D02*
X13332563Y-7693698D01*
X13332563Y-7693698D02*
X13342087Y-7684174D01*
X13342087Y-7684174D02*
X13361134Y-7674650D01*
X13361134Y-7674650D02*
X13389706Y-7674650D01*
X13389706Y-7674650D02*
X13408753Y-7684174D01*
X13408753Y-7684174D02*
X13418277Y-7693698D01*
X13418277Y-7693698D02*
X13427801Y-7712746D01*
X13427801Y-7712746D02*
X13427801Y-7769888D01*
X13427801Y-7769888D02*
X13418277Y-7788936D01*
X13418277Y-7788936D02*
X13408753Y-7798460D01*
X13408753Y-7798460D02*
X13389706Y-7807984D01*
X13389706Y-7807984D02*
X13361134Y-7807984D01*
X13542087Y-7807984D02*
X13523039Y-7798460D01*
X13523039Y-7798460D02*
X13513515Y-7779412D01*
X13513515Y-7779412D02*
X13513515Y-7607984D01*
X13694468Y-7798460D02*
X13675420Y-7807984D01*
X13675420Y-7807984D02*
X13637325Y-7807984D01*
X13637325Y-7807984D02*
X13618277Y-7798460D01*
X13618277Y-7798460D02*
X13608753Y-7779412D01*
X13608753Y-7779412D02*
X13608753Y-7703222D01*
X13608753Y-7703222D02*
X13618277Y-7684174D01*
X13618277Y-7684174D02*
X13637325Y-7674650D01*
X13637325Y-7674650D02*
X13675420Y-7674650D01*
X13675420Y-7674650D02*
X13694468Y-7684174D01*
X13694468Y-7684174D02*
X13703991Y-7703222D01*
X13703991Y-7703222D02*
X13703991Y-7722269D01*
X13703991Y-7722269D02*
X13608753Y-7741317D01*
X13770658Y-7884174D02*
X13780182Y-7874650D01*
X13780182Y-7874650D02*
X13799230Y-7846079D01*
X13799230Y-7846079D02*
X13808753Y-7827031D01*
X13808753Y-7827031D02*
X13818277Y-7798460D01*
X13818277Y-7798460D02*
X13827801Y-7750841D01*
X13827801Y-7750841D02*
X13827801Y-7712746D01*
X13827801Y-7712746D02*
X13818277Y-7665127D01*
X13818277Y-7665127D02*
X13808753Y-7636555D01*
X13808753Y-7636555D02*
X13799230Y-7617508D01*
X13799230Y-7617508D02*
X13780182Y-7588936D01*
X13780182Y-7588936D02*
X13770658Y-7579412D01*
D12*
X9132500Y-7955500D02*
X9132500Y-8005500D01*
X9107500Y-7980500D02*
X9157500Y-7980500D01*
D11*
X9456372Y-7871984D02*
X9475420Y-7871984D01*
X9475420Y-7871984D02*
X9494467Y-7881508D01*
X9494467Y-7881508D02*
X9503991Y-7891031D01*
X9503991Y-7891031D02*
X9513515Y-7910079D01*
X9513515Y-7910079D02*
X9523039Y-7948174D01*
X9523039Y-7948174D02*
X9523039Y-7995793D01*
X9523039Y-7995793D02*
X9513515Y-8033888D01*
X9513515Y-8033888D02*
X9503991Y-8052936D01*
X9503991Y-8052936D02*
X9494467Y-8062460D01*
X9494467Y-8062460D02*
X9475420Y-8071984D01*
X9475420Y-8071984D02*
X9456372Y-8071984D01*
X9456372Y-8071984D02*
X9437324Y-8062460D01*
X9437324Y-8062460D02*
X9427801Y-8052936D01*
X9427801Y-8052936D02*
X9418277Y-8033888D01*
X9418277Y-8033888D02*
X9408753Y-7995793D01*
X9408753Y-7995793D02*
X9408753Y-7948174D01*
X9408753Y-7948174D02*
X9418277Y-7910079D01*
X9418277Y-7910079D02*
X9427801Y-7891031D01*
X9427801Y-7891031D02*
X9437324Y-7881508D01*
X9437324Y-7881508D02*
X9456372Y-7871984D01*
X9608753Y-8052936D02*
X9618277Y-8062460D01*
X9618277Y-8062460D02*
X9608753Y-8071984D01*
X9608753Y-8071984D02*
X9599229Y-8062460D01*
X9599229Y-8062460D02*
X9608753Y-8052936D01*
X9608753Y-8052936D02*
X9608753Y-8071984D01*
X9799229Y-7871984D02*
X9703991Y-7871984D01*
X9703991Y-7871984D02*
X9694467Y-7967222D01*
X9694467Y-7967222D02*
X9703991Y-7957698D01*
X9703991Y-7957698D02*
X9723039Y-7948174D01*
X9723039Y-7948174D02*
X9770658Y-7948174D01*
X9770658Y-7948174D02*
X9789705Y-7957698D01*
X9789705Y-7957698D02*
X9799229Y-7967222D01*
X9799229Y-7967222D02*
X9808753Y-7986269D01*
X9808753Y-7986269D02*
X9808753Y-8033888D01*
X9808753Y-8033888D02*
X9799229Y-8052936D01*
X9799229Y-8052936D02*
X9789705Y-8062460D01*
X9789705Y-8062460D02*
X9770658Y-8071984D01*
X9770658Y-8071984D02*
X9723039Y-8071984D01*
X9723039Y-8071984D02*
X9703991Y-8062460D01*
X9703991Y-8062460D02*
X9694467Y-8052936D01*
X9932563Y-7871984D02*
X9951610Y-7871984D01*
X9951610Y-7871984D02*
X9970658Y-7881508D01*
X9970658Y-7881508D02*
X9980182Y-7891031D01*
X9980182Y-7891031D02*
X9989705Y-7910079D01*
X9989705Y-7910079D02*
X9999229Y-7948174D01*
X9999229Y-7948174D02*
X9999229Y-7995793D01*
X9999229Y-7995793D02*
X9989705Y-8033888D01*
X9989705Y-8033888D02*
X9980182Y-8052936D01*
X9980182Y-8052936D02*
X9970658Y-8062460D01*
X9970658Y-8062460D02*
X9951610Y-8071984D01*
X9951610Y-8071984D02*
X9932563Y-8071984D01*
X9932563Y-8071984D02*
X9913515Y-8062460D01*
X9913515Y-8062460D02*
X9903991Y-8052936D01*
X9903991Y-8052936D02*
X9894467Y-8033888D01*
X9894467Y-8033888D02*
X9884944Y-7995793D01*
X9884944Y-7995793D02*
X9884944Y-7948174D01*
X9884944Y-7948174D02*
X9894467Y-7910079D01*
X9894467Y-7910079D02*
X9903991Y-7891031D01*
X9903991Y-7891031D02*
X9913515Y-7881508D01*
X9913515Y-7881508D02*
X9932563Y-7871984D01*
X10123039Y-7871984D02*
X10142086Y-7871984D01*
X10142086Y-7871984D02*
X10161134Y-7881508D01*
X10161134Y-7881508D02*
X10170658Y-7891031D01*
X10170658Y-7891031D02*
X10180182Y-7910079D01*
X10180182Y-7910079D02*
X10189705Y-7948174D01*
X10189705Y-7948174D02*
X10189705Y-7995793D01*
X10189705Y-7995793D02*
X10180182Y-8033888D01*
X10180182Y-8033888D02*
X10170658Y-8052936D01*
X10170658Y-8052936D02*
X10161134Y-8062460D01*
X10161134Y-8062460D02*
X10142086Y-8071984D01*
X10142086Y-8071984D02*
X10123039Y-8071984D01*
X10123039Y-8071984D02*
X10103991Y-8062460D01*
X10103991Y-8062460D02*
X10094467Y-8052936D01*
X10094467Y-8052936D02*
X10084944Y-8033888D01*
X10084944Y-8033888D02*
X10075420Y-7995793D01*
X10075420Y-7995793D02*
X10075420Y-7948174D01*
X10075420Y-7948174D02*
X10084944Y-7910079D01*
X10084944Y-7910079D02*
X10094467Y-7891031D01*
X10094467Y-7891031D02*
X10103991Y-7881508D01*
X10103991Y-7881508D02*
X10123039Y-7871984D01*
X10275420Y-8071984D02*
X10275420Y-7938650D01*
X10275420Y-7957698D02*
X10284944Y-7948174D01*
X10284944Y-7948174D02*
X10303991Y-7938650D01*
X10303991Y-7938650D02*
X10332563Y-7938650D01*
X10332563Y-7938650D02*
X10351610Y-7948174D01*
X10351610Y-7948174D02*
X10361134Y-7967222D01*
X10361134Y-7967222D02*
X10361134Y-8071984D01*
X10361134Y-7967222D02*
X10370658Y-7948174D01*
X10370658Y-7948174D02*
X10389705Y-7938650D01*
X10389705Y-7938650D02*
X10418277Y-7938650D01*
X10418277Y-7938650D02*
X10437325Y-7948174D01*
X10437325Y-7948174D02*
X10446848Y-7967222D01*
X10446848Y-7967222D02*
X10446848Y-8071984D01*
X10542086Y-8071984D02*
X10542086Y-7938650D01*
X10542086Y-7957698D02*
X10551610Y-7948174D01*
X10551610Y-7948174D02*
X10570658Y-7938650D01*
X10570658Y-7938650D02*
X10599229Y-7938650D01*
X10599229Y-7938650D02*
X10618277Y-7948174D01*
X10618277Y-7948174D02*
X10627801Y-7967222D01*
X10627801Y-7967222D02*
X10627801Y-8071984D01*
X10627801Y-7967222D02*
X10637325Y-7948174D01*
X10637325Y-7948174D02*
X10656372Y-7938650D01*
X10656372Y-7938650D02*
X10684944Y-7938650D01*
X10684944Y-7938650D02*
X10703991Y-7948174D01*
X10703991Y-7948174D02*
X10713515Y-7967222D01*
X10713515Y-7967222D02*
X10713515Y-8071984D01*
X11103991Y-7862460D02*
X10932563Y-8119603D01*
X11361134Y-7871984D02*
X11380182Y-7871984D01*
X11380182Y-7871984D02*
X11399229Y-7881508D01*
X11399229Y-7881508D02*
X11408753Y-7891031D01*
X11408753Y-7891031D02*
X11418277Y-7910079D01*
X11418277Y-7910079D02*
X11427801Y-7948174D01*
X11427801Y-7948174D02*
X11427801Y-7995793D01*
X11427801Y-7995793D02*
X11418277Y-8033888D01*
X11418277Y-8033888D02*
X11408753Y-8052936D01*
X11408753Y-8052936D02*
X11399229Y-8062460D01*
X11399229Y-8062460D02*
X11380182Y-8071984D01*
X11380182Y-8071984D02*
X11361134Y-8071984D01*
X11361134Y-8071984D02*
X11342086Y-8062460D01*
X11342086Y-8062460D02*
X11332563Y-8052936D01*
X11332563Y-8052936D02*
X11323039Y-8033888D01*
X11323039Y-8033888D02*
X11313515Y-7995793D01*
X11313515Y-7995793D02*
X11313515Y-7948174D01*
X11313515Y-7948174D02*
X11323039Y-7910079D01*
X11323039Y-7910079D02*
X11332563Y-7891031D01*
X11332563Y-7891031D02*
X11342086Y-7881508D01*
X11342086Y-7881508D02*
X11361134Y-7871984D01*
X11513515Y-8052936D02*
X11523039Y-8062460D01*
X11523039Y-8062460D02*
X11513515Y-8071984D01*
X11513515Y-8071984D02*
X11503991Y-8062460D01*
X11503991Y-8062460D02*
X11513515Y-8052936D01*
X11513515Y-8052936D02*
X11513515Y-8071984D01*
X11646848Y-7871984D02*
X11665896Y-7871984D01*
X11665896Y-7871984D02*
X11684944Y-7881508D01*
X11684944Y-7881508D02*
X11694467Y-7891031D01*
X11694467Y-7891031D02*
X11703991Y-7910079D01*
X11703991Y-7910079D02*
X11713515Y-7948174D01*
X11713515Y-7948174D02*
X11713515Y-7995793D01*
X11713515Y-7995793D02*
X11703991Y-8033888D01*
X11703991Y-8033888D02*
X11694467Y-8052936D01*
X11694467Y-8052936D02*
X11684944Y-8062460D01*
X11684944Y-8062460D02*
X11665896Y-8071984D01*
X11665896Y-8071984D02*
X11646848Y-8071984D01*
X11646848Y-8071984D02*
X11627801Y-8062460D01*
X11627801Y-8062460D02*
X11618277Y-8052936D01*
X11618277Y-8052936D02*
X11608753Y-8033888D01*
X11608753Y-8033888D02*
X11599229Y-7995793D01*
X11599229Y-7995793D02*
X11599229Y-7948174D01*
X11599229Y-7948174D02*
X11608753Y-7910079D01*
X11608753Y-7910079D02*
X11618277Y-7891031D01*
X11618277Y-7891031D02*
X11627801Y-7881508D01*
X11627801Y-7881508D02*
X11646848Y-7871984D01*
X11903991Y-8071984D02*
X11789706Y-8071984D01*
X11846848Y-8071984D02*
X11846848Y-7871984D01*
X11846848Y-7871984D02*
X11827801Y-7900555D01*
X11827801Y-7900555D02*
X11808753Y-7919603D01*
X11808753Y-7919603D02*
X11789706Y-7929127D01*
X11999229Y-8071984D02*
X12037325Y-8071984D01*
X12037325Y-8071984D02*
X12056372Y-8062460D01*
X12056372Y-8062460D02*
X12065896Y-8052936D01*
X12065896Y-8052936D02*
X12084944Y-8024365D01*
X12084944Y-8024365D02*
X12094467Y-7986269D01*
X12094467Y-7986269D02*
X12094467Y-7910079D01*
X12094467Y-7910079D02*
X12084944Y-7891031D01*
X12084944Y-7891031D02*
X12075420Y-7881508D01*
X12075420Y-7881508D02*
X12056372Y-7871984D01*
X12056372Y-7871984D02*
X12018277Y-7871984D01*
X12018277Y-7871984D02*
X11999229Y-7881508D01*
X11999229Y-7881508D02*
X11989706Y-7891031D01*
X11989706Y-7891031D02*
X11980182Y-7910079D01*
X11980182Y-7910079D02*
X11980182Y-7957698D01*
X11980182Y-7957698D02*
X11989706Y-7976746D01*
X11989706Y-7976746D02*
X11999229Y-7986269D01*
X11999229Y-7986269D02*
X12018277Y-7995793D01*
X12018277Y-7995793D02*
X12056372Y-7995793D01*
X12056372Y-7995793D02*
X12075420Y-7986269D01*
X12075420Y-7986269D02*
X12084944Y-7976746D01*
X12084944Y-7976746D02*
X12094467Y-7957698D01*
X12161134Y-7871984D02*
X12294467Y-7871984D01*
X12294467Y-7871984D02*
X12208753Y-8071984D01*
X12361134Y-7871984D02*
X12361134Y-7910079D01*
X12437325Y-7871984D02*
X12437325Y-7910079D01*
X12732563Y-8148174D02*
X12723039Y-8138650D01*
X12723039Y-8138650D02*
X12703991Y-8110079D01*
X12703991Y-8110079D02*
X12694468Y-8091031D01*
X12694468Y-8091031D02*
X12684944Y-8062460D01*
X12684944Y-8062460D02*
X12675420Y-8014841D01*
X12675420Y-8014841D02*
X12675420Y-7976746D01*
X12675420Y-7976746D02*
X12684944Y-7929127D01*
X12684944Y-7929127D02*
X12694468Y-7900555D01*
X12694468Y-7900555D02*
X12703991Y-7881508D01*
X12703991Y-7881508D02*
X12723039Y-7852936D01*
X12723039Y-7852936D02*
X12732563Y-7843412D01*
X12913515Y-8071984D02*
X12799229Y-8071984D01*
X12856372Y-8071984D02*
X12856372Y-7871984D01*
X12856372Y-7871984D02*
X12837325Y-7900555D01*
X12837325Y-7900555D02*
X12818277Y-7919603D01*
X12818277Y-7919603D02*
X12799229Y-7929127D01*
X13151610Y-8071984D02*
X13151610Y-7871984D01*
X13237325Y-8071984D02*
X13237325Y-7967222D01*
X13237325Y-7967222D02*
X13227801Y-7948174D01*
X13227801Y-7948174D02*
X13208753Y-7938650D01*
X13208753Y-7938650D02*
X13180182Y-7938650D01*
X13180182Y-7938650D02*
X13161134Y-7948174D01*
X13161134Y-7948174D02*
X13151610Y-7957698D01*
X13361134Y-8071984D02*
X13342087Y-8062460D01*
X13342087Y-8062460D02*
X13332563Y-8052936D01*
X13332563Y-8052936D02*
X13323039Y-8033888D01*
X13323039Y-8033888D02*
X13323039Y-7976746D01*
X13323039Y-7976746D02*
X13332563Y-7957698D01*
X13332563Y-7957698D02*
X13342087Y-7948174D01*
X13342087Y-7948174D02*
X13361134Y-7938650D01*
X13361134Y-7938650D02*
X13389706Y-7938650D01*
X13389706Y-7938650D02*
X13408753Y-7948174D01*
X13408753Y-7948174D02*
X13418277Y-7957698D01*
X13418277Y-7957698D02*
X13427801Y-7976746D01*
X13427801Y-7976746D02*
X13427801Y-8033888D01*
X13427801Y-8033888D02*
X13418277Y-8052936D01*
X13418277Y-8052936D02*
X13408753Y-8062460D01*
X13408753Y-8062460D02*
X13389706Y-8071984D01*
X13389706Y-8071984D02*
X13361134Y-8071984D01*
X13542087Y-8071984D02*
X13523039Y-8062460D01*
X13523039Y-8062460D02*
X13513515Y-8043412D01*
X13513515Y-8043412D02*
X13513515Y-7871984D01*
X13694468Y-8062460D02*
X13675420Y-8071984D01*
X13675420Y-8071984D02*
X13637325Y-8071984D01*
X13637325Y-8071984D02*
X13618277Y-8062460D01*
X13618277Y-8062460D02*
X13608753Y-8043412D01*
X13608753Y-8043412D02*
X13608753Y-7967222D01*
X13608753Y-7967222D02*
X13618277Y-7948174D01*
X13618277Y-7948174D02*
X13637325Y-7938650D01*
X13637325Y-7938650D02*
X13675420Y-7938650D01*
X13675420Y-7938650D02*
X13694468Y-7948174D01*
X13694468Y-7948174D02*
X13703991Y-7967222D01*
X13703991Y-7967222D02*
X13703991Y-7986269D01*
X13703991Y-7986269D02*
X13608753Y-8005317D01*
X13770658Y-8148174D02*
X13780182Y-8138650D01*
X13780182Y-8138650D02*
X13799230Y-8110079D01*
X13799230Y-8110079D02*
X13808753Y-8091031D01*
X13808753Y-8091031D02*
X13818277Y-8062460D01*
X13818277Y-8062460D02*
X13827801Y-8014841D01*
X13827801Y-8014841D02*
X13827801Y-7976746D01*
X13827801Y-7976746D02*
X13818277Y-7929127D01*
X13818277Y-7929127D02*
X13808753Y-7900555D01*
X13808753Y-7900555D02*
X13799230Y-7881508D01*
X13799230Y-7881508D02*
X13780182Y-7852936D01*
X13780182Y-7852936D02*
X13770658Y-7843412D01*
D12*
X9142856Y-8279856D02*
X9142856Y-8209144D01*
X9072144Y-8209144D01*
X9072144Y-8279856D01*
X9142856Y-8279856D01*
D11*
X9523039Y-8335984D02*
X9408753Y-8335984D01*
X9465896Y-8335984D02*
X9465896Y-8135984D01*
X9465896Y-8135984D02*
X9446848Y-8164555D01*
X9446848Y-8164555D02*
X9427801Y-8183603D01*
X9427801Y-8183603D02*
X9408753Y-8193127D01*
X9608753Y-8316936D02*
X9618277Y-8326460D01*
X9618277Y-8326460D02*
X9608753Y-8335984D01*
X9608753Y-8335984D02*
X9599229Y-8326460D01*
X9599229Y-8326460D02*
X9608753Y-8316936D01*
X9608753Y-8316936D02*
X9608753Y-8335984D01*
X9742086Y-8135984D02*
X9761134Y-8135984D01*
X9761134Y-8135984D02*
X9780182Y-8145508D01*
X9780182Y-8145508D02*
X9789705Y-8155031D01*
X9789705Y-8155031D02*
X9799229Y-8174079D01*
X9799229Y-8174079D02*
X9808753Y-8212174D01*
X9808753Y-8212174D02*
X9808753Y-8259793D01*
X9808753Y-8259793D02*
X9799229Y-8297888D01*
X9799229Y-8297888D02*
X9789705Y-8316936D01*
X9789705Y-8316936D02*
X9780182Y-8326460D01*
X9780182Y-8326460D02*
X9761134Y-8335984D01*
X9761134Y-8335984D02*
X9742086Y-8335984D01*
X9742086Y-8335984D02*
X9723039Y-8326460D01*
X9723039Y-8326460D02*
X9713515Y-8316936D01*
X9713515Y-8316936D02*
X9703991Y-8297888D01*
X9703991Y-8297888D02*
X9694467Y-8259793D01*
X9694467Y-8259793D02*
X9694467Y-8212174D01*
X9694467Y-8212174D02*
X9703991Y-8174079D01*
X9703991Y-8174079D02*
X9713515Y-8155031D01*
X9713515Y-8155031D02*
X9723039Y-8145508D01*
X9723039Y-8145508D02*
X9742086Y-8135984D01*
X9932563Y-8135984D02*
X9951610Y-8135984D01*
X9951610Y-8135984D02*
X9970658Y-8145508D01*
X9970658Y-8145508D02*
X9980182Y-8155031D01*
X9980182Y-8155031D02*
X9989705Y-8174079D01*
X9989705Y-8174079D02*
X9999229Y-8212174D01*
X9999229Y-8212174D02*
X9999229Y-8259793D01*
X9999229Y-8259793D02*
X9989705Y-8297888D01*
X9989705Y-8297888D02*
X9980182Y-8316936D01*
X9980182Y-8316936D02*
X9970658Y-8326460D01*
X9970658Y-8326460D02*
X9951610Y-8335984D01*
X9951610Y-8335984D02*
X9932563Y-8335984D01*
X9932563Y-8335984D02*
X9913515Y-8326460D01*
X9913515Y-8326460D02*
X9903991Y-8316936D01*
X9903991Y-8316936D02*
X9894467Y-8297888D01*
X9894467Y-8297888D02*
X9884944Y-8259793D01*
X9884944Y-8259793D02*
X9884944Y-8212174D01*
X9884944Y-8212174D02*
X9894467Y-8174079D01*
X9894467Y-8174079D02*
X9903991Y-8155031D01*
X9903991Y-8155031D02*
X9913515Y-8145508D01*
X9913515Y-8145508D02*
X9932563Y-8135984D01*
X10123039Y-8135984D02*
X10142086Y-8135984D01*
X10142086Y-8135984D02*
X10161134Y-8145508D01*
X10161134Y-8145508D02*
X10170658Y-8155031D01*
X10170658Y-8155031D02*
X10180182Y-8174079D01*
X10180182Y-8174079D02*
X10189705Y-8212174D01*
X10189705Y-8212174D02*
X10189705Y-8259793D01*
X10189705Y-8259793D02*
X10180182Y-8297888D01*
X10180182Y-8297888D02*
X10170658Y-8316936D01*
X10170658Y-8316936D02*
X10161134Y-8326460D01*
X10161134Y-8326460D02*
X10142086Y-8335984D01*
X10142086Y-8335984D02*
X10123039Y-8335984D01*
X10123039Y-8335984D02*
X10103991Y-8326460D01*
X10103991Y-8326460D02*
X10094467Y-8316936D01*
X10094467Y-8316936D02*
X10084944Y-8297888D01*
X10084944Y-8297888D02*
X10075420Y-8259793D01*
X10075420Y-8259793D02*
X10075420Y-8212174D01*
X10075420Y-8212174D02*
X10084944Y-8174079D01*
X10084944Y-8174079D02*
X10094467Y-8155031D01*
X10094467Y-8155031D02*
X10103991Y-8145508D01*
X10103991Y-8145508D02*
X10123039Y-8135984D01*
X10275420Y-8335984D02*
X10275420Y-8202650D01*
X10275420Y-8221698D02*
X10284944Y-8212174D01*
X10284944Y-8212174D02*
X10303991Y-8202650D01*
X10303991Y-8202650D02*
X10332563Y-8202650D01*
X10332563Y-8202650D02*
X10351610Y-8212174D01*
X10351610Y-8212174D02*
X10361134Y-8231222D01*
X10361134Y-8231222D02*
X10361134Y-8335984D01*
X10361134Y-8231222D02*
X10370658Y-8212174D01*
X10370658Y-8212174D02*
X10389705Y-8202650D01*
X10389705Y-8202650D02*
X10418277Y-8202650D01*
X10418277Y-8202650D02*
X10437325Y-8212174D01*
X10437325Y-8212174D02*
X10446848Y-8231222D01*
X10446848Y-8231222D02*
X10446848Y-8335984D01*
X10542086Y-8335984D02*
X10542086Y-8202650D01*
X10542086Y-8221698D02*
X10551610Y-8212174D01*
X10551610Y-8212174D02*
X10570658Y-8202650D01*
X10570658Y-8202650D02*
X10599229Y-8202650D01*
X10599229Y-8202650D02*
X10618277Y-8212174D01*
X10618277Y-8212174D02*
X10627801Y-8231222D01*
X10627801Y-8231222D02*
X10627801Y-8335984D01*
X10627801Y-8231222D02*
X10637325Y-8212174D01*
X10637325Y-8212174D02*
X10656372Y-8202650D01*
X10656372Y-8202650D02*
X10684944Y-8202650D01*
X10684944Y-8202650D02*
X10703991Y-8212174D01*
X10703991Y-8212174D02*
X10713515Y-8231222D01*
X10713515Y-8231222D02*
X10713515Y-8335984D01*
X11103991Y-8126460D02*
X10932563Y-8383603D01*
X11361134Y-8135984D02*
X11380182Y-8135984D01*
X11380182Y-8135984D02*
X11399229Y-8145508D01*
X11399229Y-8145508D02*
X11408753Y-8155031D01*
X11408753Y-8155031D02*
X11418277Y-8174079D01*
X11418277Y-8174079D02*
X11427801Y-8212174D01*
X11427801Y-8212174D02*
X11427801Y-8259793D01*
X11427801Y-8259793D02*
X11418277Y-8297888D01*
X11418277Y-8297888D02*
X11408753Y-8316936D01*
X11408753Y-8316936D02*
X11399229Y-8326460D01*
X11399229Y-8326460D02*
X11380182Y-8335984D01*
X11380182Y-8335984D02*
X11361134Y-8335984D01*
X11361134Y-8335984D02*
X11342086Y-8326460D01*
X11342086Y-8326460D02*
X11332563Y-8316936D01*
X11332563Y-8316936D02*
X11323039Y-8297888D01*
X11323039Y-8297888D02*
X11313515Y-8259793D01*
X11313515Y-8259793D02*
X11313515Y-8212174D01*
X11313515Y-8212174D02*
X11323039Y-8174079D01*
X11323039Y-8174079D02*
X11332563Y-8155031D01*
X11332563Y-8155031D02*
X11342086Y-8145508D01*
X11342086Y-8145508D02*
X11361134Y-8135984D01*
X11513515Y-8316936D02*
X11523039Y-8326460D01*
X11523039Y-8326460D02*
X11513515Y-8335984D01*
X11513515Y-8335984D02*
X11503991Y-8326460D01*
X11503991Y-8326460D02*
X11513515Y-8316936D01*
X11513515Y-8316936D02*
X11513515Y-8335984D01*
X11646848Y-8135984D02*
X11665896Y-8135984D01*
X11665896Y-8135984D02*
X11684944Y-8145508D01*
X11684944Y-8145508D02*
X11694467Y-8155031D01*
X11694467Y-8155031D02*
X11703991Y-8174079D01*
X11703991Y-8174079D02*
X11713515Y-8212174D01*
X11713515Y-8212174D02*
X11713515Y-8259793D01*
X11713515Y-8259793D02*
X11703991Y-8297888D01*
X11703991Y-8297888D02*
X11694467Y-8316936D01*
X11694467Y-8316936D02*
X11684944Y-8326460D01*
X11684944Y-8326460D02*
X11665896Y-8335984D01*
X11665896Y-8335984D02*
X11646848Y-8335984D01*
X11646848Y-8335984D02*
X11627801Y-8326460D01*
X11627801Y-8326460D02*
X11618277Y-8316936D01*
X11618277Y-8316936D02*
X11608753Y-8297888D01*
X11608753Y-8297888D02*
X11599229Y-8259793D01*
X11599229Y-8259793D02*
X11599229Y-8212174D01*
X11599229Y-8212174D02*
X11608753Y-8174079D01*
X11608753Y-8174079D02*
X11618277Y-8155031D01*
X11618277Y-8155031D02*
X11627801Y-8145508D01*
X11627801Y-8145508D02*
X11646848Y-8135984D01*
X11780182Y-8135984D02*
X11903991Y-8135984D01*
X11903991Y-8135984D02*
X11837325Y-8212174D01*
X11837325Y-8212174D02*
X11865896Y-8212174D01*
X11865896Y-8212174D02*
X11884944Y-8221698D01*
X11884944Y-8221698D02*
X11894467Y-8231222D01*
X11894467Y-8231222D02*
X11903991Y-8250269D01*
X11903991Y-8250269D02*
X11903991Y-8297888D01*
X11903991Y-8297888D02*
X11894467Y-8316936D01*
X11894467Y-8316936D02*
X11884944Y-8326460D01*
X11884944Y-8326460D02*
X11865896Y-8335984D01*
X11865896Y-8335984D02*
X11808753Y-8335984D01*
X11808753Y-8335984D02*
X11789706Y-8326460D01*
X11789706Y-8326460D02*
X11780182Y-8316936D01*
X11999229Y-8335984D02*
X12037325Y-8335984D01*
X12037325Y-8335984D02*
X12056372Y-8326460D01*
X12056372Y-8326460D02*
X12065896Y-8316936D01*
X12065896Y-8316936D02*
X12084944Y-8288365D01*
X12084944Y-8288365D02*
X12094467Y-8250269D01*
X12094467Y-8250269D02*
X12094467Y-8174079D01*
X12094467Y-8174079D02*
X12084944Y-8155031D01*
X12084944Y-8155031D02*
X12075420Y-8145508D01*
X12075420Y-8145508D02*
X12056372Y-8135984D01*
X12056372Y-8135984D02*
X12018277Y-8135984D01*
X12018277Y-8135984D02*
X11999229Y-8145508D01*
X11999229Y-8145508D02*
X11989706Y-8155031D01*
X11989706Y-8155031D02*
X11980182Y-8174079D01*
X11980182Y-8174079D02*
X11980182Y-8221698D01*
X11980182Y-8221698D02*
X11989706Y-8240746D01*
X11989706Y-8240746D02*
X11999229Y-8250269D01*
X11999229Y-8250269D02*
X12018277Y-8259793D01*
X12018277Y-8259793D02*
X12056372Y-8259793D01*
X12056372Y-8259793D02*
X12075420Y-8250269D01*
X12075420Y-8250269D02*
X12084944Y-8240746D01*
X12084944Y-8240746D02*
X12094467Y-8221698D01*
X12265896Y-8202650D02*
X12265896Y-8335984D01*
X12218277Y-8126460D02*
X12170658Y-8269317D01*
X12170658Y-8269317D02*
X12294467Y-8269317D01*
X12361134Y-8135984D02*
X12361134Y-8174079D01*
X12437325Y-8135984D02*
X12437325Y-8174079D01*
X12732563Y-8412174D02*
X12723039Y-8402650D01*
X12723039Y-8402650D02*
X12703991Y-8374079D01*
X12703991Y-8374079D02*
X12694468Y-8355031D01*
X12694468Y-8355031D02*
X12684944Y-8326460D01*
X12684944Y-8326460D02*
X12675420Y-8278841D01*
X12675420Y-8278841D02*
X12675420Y-8240746D01*
X12675420Y-8240746D02*
X12684944Y-8193127D01*
X12684944Y-8193127D02*
X12694468Y-8164555D01*
X12694468Y-8164555D02*
X12703991Y-8145508D01*
X12703991Y-8145508D02*
X12723039Y-8116936D01*
X12723039Y-8116936D02*
X12732563Y-8107412D01*
X12799229Y-8155031D02*
X12808753Y-8145508D01*
X12808753Y-8145508D02*
X12827801Y-8135984D01*
X12827801Y-8135984D02*
X12875420Y-8135984D01*
X12875420Y-8135984D02*
X12894468Y-8145508D01*
X12894468Y-8145508D02*
X12903991Y-8155031D01*
X12903991Y-8155031D02*
X12913515Y-8174079D01*
X12913515Y-8174079D02*
X12913515Y-8193127D01*
X12913515Y-8193127D02*
X12903991Y-8221698D01*
X12903991Y-8221698D02*
X12789706Y-8335984D01*
X12789706Y-8335984D02*
X12913515Y-8335984D01*
X13151610Y-8335984D02*
X13151610Y-8135984D01*
X13237325Y-8335984D02*
X13237325Y-8231222D01*
X13237325Y-8231222D02*
X13227801Y-8212174D01*
X13227801Y-8212174D02*
X13208753Y-8202650D01*
X13208753Y-8202650D02*
X13180182Y-8202650D01*
X13180182Y-8202650D02*
X13161134Y-8212174D01*
X13161134Y-8212174D02*
X13151610Y-8221698D01*
X13361134Y-8335984D02*
X13342087Y-8326460D01*
X13342087Y-8326460D02*
X13332563Y-8316936D01*
X13332563Y-8316936D02*
X13323039Y-8297888D01*
X13323039Y-8297888D02*
X13323039Y-8240746D01*
X13323039Y-8240746D02*
X13332563Y-8221698D01*
X13332563Y-8221698D02*
X13342087Y-8212174D01*
X13342087Y-8212174D02*
X13361134Y-8202650D01*
X13361134Y-8202650D02*
X13389706Y-8202650D01*
X13389706Y-8202650D02*
X13408753Y-8212174D01*
X13408753Y-8212174D02*
X13418277Y-8221698D01*
X13418277Y-8221698D02*
X13427801Y-8240746D01*
X13427801Y-8240746D02*
X13427801Y-8297888D01*
X13427801Y-8297888D02*
X13418277Y-8316936D01*
X13418277Y-8316936D02*
X13408753Y-8326460D01*
X13408753Y-8326460D02*
X13389706Y-8335984D01*
X13389706Y-8335984D02*
X13361134Y-8335984D01*
X13542087Y-8335984D02*
X13523039Y-8326460D01*
X13523039Y-8326460D02*
X13513515Y-8307412D01*
X13513515Y-8307412D02*
X13513515Y-8135984D01*
X13694468Y-8326460D02*
X13675420Y-8335984D01*
X13675420Y-8335984D02*
X13637325Y-8335984D01*
X13637325Y-8335984D02*
X13618277Y-8326460D01*
X13618277Y-8326460D02*
X13608753Y-8307412D01*
X13608753Y-8307412D02*
X13608753Y-8231222D01*
X13608753Y-8231222D02*
X13618277Y-8212174D01*
X13618277Y-8212174D02*
X13637325Y-8202650D01*
X13637325Y-8202650D02*
X13675420Y-8202650D01*
X13675420Y-8202650D02*
X13694468Y-8212174D01*
X13694468Y-8212174D02*
X13703991Y-8231222D01*
X13703991Y-8231222D02*
X13703991Y-8250269D01*
X13703991Y-8250269D02*
X13608753Y-8269317D01*
X13780182Y-8326460D02*
X13799230Y-8335984D01*
X13799230Y-8335984D02*
X13837325Y-8335984D01*
X13837325Y-8335984D02*
X13856372Y-8326460D01*
X13856372Y-8326460D02*
X13865896Y-8307412D01*
X13865896Y-8307412D02*
X13865896Y-8297888D01*
X13865896Y-8297888D02*
X13856372Y-8278841D01*
X13856372Y-8278841D02*
X13837325Y-8269317D01*
X13837325Y-8269317D02*
X13808753Y-8269317D01*
X13808753Y-8269317D02*
X13789706Y-8259793D01*
X13789706Y-8259793D02*
X13780182Y-8240746D01*
X13780182Y-8240746D02*
X13780182Y-8231222D01*
X13780182Y-8231222D02*
X13789706Y-8212174D01*
X13789706Y-8212174D02*
X13808753Y-8202650D01*
X13808753Y-8202650D02*
X13837325Y-8202650D01*
X13837325Y-8202650D02*
X13856372Y-8212174D01*
X13932563Y-8412174D02*
X13942087Y-8402650D01*
X13942087Y-8402650D02*
X13961134Y-8374079D01*
X13961134Y-8374079D02*
X13970658Y-8355031D01*
X13970658Y-8355031D02*
X13980182Y-8326460D01*
X13980182Y-8326460D02*
X13989706Y-8278841D01*
X13989706Y-8278841D02*
X13989706Y-8240746D01*
X13989706Y-8240746D02*
X13980182Y-8193127D01*
X13980182Y-8193127D02*
X13970658Y-8164555D01*
X13970658Y-8164555D02*
X13961134Y-8145508D01*
X13961134Y-8145508D02*
X13942087Y-8116936D01*
X13942087Y-8116936D02*
X13932563Y-8107412D01*
X9057500Y-8608500D02*
X9157500Y-8508500D01*
X9057500Y-8408500D01*
X8957500Y-8508500D01*
X9057500Y-8608500D01*
X9408753Y-8419031D02*
X9418277Y-8409508D01*
X9418277Y-8409508D02*
X9437324Y-8399984D01*
X9437324Y-8399984D02*
X9484944Y-8399984D01*
X9484944Y-8399984D02*
X9503991Y-8409508D01*
X9503991Y-8409508D02*
X9513515Y-8419031D01*
X9513515Y-8419031D02*
X9523039Y-8438079D01*
X9523039Y-8438079D02*
X9523039Y-8457127D01*
X9523039Y-8457127D02*
X9513515Y-8485698D01*
X9513515Y-8485698D02*
X9399229Y-8599984D01*
X9399229Y-8599984D02*
X9523039Y-8599984D01*
X9608753Y-8580936D02*
X9618277Y-8590460D01*
X9618277Y-8590460D02*
X9608753Y-8599984D01*
X9608753Y-8599984D02*
X9599229Y-8590460D01*
X9599229Y-8590460D02*
X9608753Y-8580936D01*
X9608753Y-8580936D02*
X9608753Y-8599984D01*
X9694467Y-8419031D02*
X9703991Y-8409508D01*
X9703991Y-8409508D02*
X9723039Y-8399984D01*
X9723039Y-8399984D02*
X9770658Y-8399984D01*
X9770658Y-8399984D02*
X9789705Y-8409508D01*
X9789705Y-8409508D02*
X9799229Y-8419031D01*
X9799229Y-8419031D02*
X9808753Y-8438079D01*
X9808753Y-8438079D02*
X9808753Y-8457127D01*
X9808753Y-8457127D02*
X9799229Y-8485698D01*
X9799229Y-8485698D02*
X9684944Y-8599984D01*
X9684944Y-8599984D02*
X9808753Y-8599984D01*
X9932563Y-8399984D02*
X9951610Y-8399984D01*
X9951610Y-8399984D02*
X9970658Y-8409508D01*
X9970658Y-8409508D02*
X9980182Y-8419031D01*
X9980182Y-8419031D02*
X9989705Y-8438079D01*
X9989705Y-8438079D02*
X9999229Y-8476174D01*
X9999229Y-8476174D02*
X9999229Y-8523793D01*
X9999229Y-8523793D02*
X9989705Y-8561889D01*
X9989705Y-8561889D02*
X9980182Y-8580936D01*
X9980182Y-8580936D02*
X9970658Y-8590460D01*
X9970658Y-8590460D02*
X9951610Y-8599984D01*
X9951610Y-8599984D02*
X9932563Y-8599984D01*
X9932563Y-8599984D02*
X9913515Y-8590460D01*
X9913515Y-8590460D02*
X9903991Y-8580936D01*
X9903991Y-8580936D02*
X9894467Y-8561889D01*
X9894467Y-8561889D02*
X9884944Y-8523793D01*
X9884944Y-8523793D02*
X9884944Y-8476174D01*
X9884944Y-8476174D02*
X9894467Y-8438079D01*
X9894467Y-8438079D02*
X9903991Y-8419031D01*
X9903991Y-8419031D02*
X9913515Y-8409508D01*
X9913515Y-8409508D02*
X9932563Y-8399984D01*
X10123039Y-8399984D02*
X10142086Y-8399984D01*
X10142086Y-8399984D02*
X10161134Y-8409508D01*
X10161134Y-8409508D02*
X10170658Y-8419031D01*
X10170658Y-8419031D02*
X10180182Y-8438079D01*
X10180182Y-8438079D02*
X10189705Y-8476174D01*
X10189705Y-8476174D02*
X10189705Y-8523793D01*
X10189705Y-8523793D02*
X10180182Y-8561889D01*
X10180182Y-8561889D02*
X10170658Y-8580936D01*
X10170658Y-8580936D02*
X10161134Y-8590460D01*
X10161134Y-8590460D02*
X10142086Y-8599984D01*
X10142086Y-8599984D02*
X10123039Y-8599984D01*
X10123039Y-8599984D02*
X10103991Y-8590460D01*
X10103991Y-8590460D02*
X10094467Y-8580936D01*
X10094467Y-8580936D02*
X10084944Y-8561889D01*
X10084944Y-8561889D02*
X10075420Y-8523793D01*
X10075420Y-8523793D02*
X10075420Y-8476174D01*
X10075420Y-8476174D02*
X10084944Y-8438079D01*
X10084944Y-8438079D02*
X10094467Y-8419031D01*
X10094467Y-8419031D02*
X10103991Y-8409508D01*
X10103991Y-8409508D02*
X10123039Y-8399984D01*
X10275420Y-8599984D02*
X10275420Y-8466650D01*
X10275420Y-8485698D02*
X10284944Y-8476174D01*
X10284944Y-8476174D02*
X10303991Y-8466650D01*
X10303991Y-8466650D02*
X10332563Y-8466650D01*
X10332563Y-8466650D02*
X10351610Y-8476174D01*
X10351610Y-8476174D02*
X10361134Y-8495222D01*
X10361134Y-8495222D02*
X10361134Y-8599984D01*
X10361134Y-8495222D02*
X10370658Y-8476174D01*
X10370658Y-8476174D02*
X10389705Y-8466650D01*
X10389705Y-8466650D02*
X10418277Y-8466650D01*
X10418277Y-8466650D02*
X10437325Y-8476174D01*
X10437325Y-8476174D02*
X10446848Y-8495222D01*
X10446848Y-8495222D02*
X10446848Y-8599984D01*
X10542086Y-8599984D02*
X10542086Y-8466650D01*
X10542086Y-8485698D02*
X10551610Y-8476174D01*
X10551610Y-8476174D02*
X10570658Y-8466650D01*
X10570658Y-8466650D02*
X10599229Y-8466650D01*
X10599229Y-8466650D02*
X10618277Y-8476174D01*
X10618277Y-8476174D02*
X10627801Y-8495222D01*
X10627801Y-8495222D02*
X10627801Y-8599984D01*
X10627801Y-8495222D02*
X10637325Y-8476174D01*
X10637325Y-8476174D02*
X10656372Y-8466650D01*
X10656372Y-8466650D02*
X10684944Y-8466650D01*
X10684944Y-8466650D02*
X10703991Y-8476174D01*
X10703991Y-8476174D02*
X10713515Y-8495222D01*
X10713515Y-8495222D02*
X10713515Y-8599984D01*
X11103991Y-8390460D02*
X10932563Y-8647603D01*
X11361134Y-8399984D02*
X11380182Y-8399984D01*
X11380182Y-8399984D02*
X11399229Y-8409508D01*
X11399229Y-8409508D02*
X11408753Y-8419031D01*
X11408753Y-8419031D02*
X11418277Y-8438079D01*
X11418277Y-8438079D02*
X11427801Y-8476174D01*
X11427801Y-8476174D02*
X11427801Y-8523793D01*
X11427801Y-8523793D02*
X11418277Y-8561889D01*
X11418277Y-8561889D02*
X11408753Y-8580936D01*
X11408753Y-8580936D02*
X11399229Y-8590460D01*
X11399229Y-8590460D02*
X11380182Y-8599984D01*
X11380182Y-8599984D02*
X11361134Y-8599984D01*
X11361134Y-8599984D02*
X11342086Y-8590460D01*
X11342086Y-8590460D02*
X11332563Y-8580936D01*
X11332563Y-8580936D02*
X11323039Y-8561889D01*
X11323039Y-8561889D02*
X11313515Y-8523793D01*
X11313515Y-8523793D02*
X11313515Y-8476174D01*
X11313515Y-8476174D02*
X11323039Y-8438079D01*
X11323039Y-8438079D02*
X11332563Y-8419031D01*
X11332563Y-8419031D02*
X11342086Y-8409508D01*
X11342086Y-8409508D02*
X11361134Y-8399984D01*
X11513515Y-8580936D02*
X11523039Y-8590460D01*
X11523039Y-8590460D02*
X11513515Y-8599984D01*
X11513515Y-8599984D02*
X11503991Y-8590460D01*
X11503991Y-8590460D02*
X11513515Y-8580936D01*
X11513515Y-8580936D02*
X11513515Y-8599984D01*
X11646848Y-8399984D02*
X11665896Y-8399984D01*
X11665896Y-8399984D02*
X11684944Y-8409508D01*
X11684944Y-8409508D02*
X11694467Y-8419031D01*
X11694467Y-8419031D02*
X11703991Y-8438079D01*
X11703991Y-8438079D02*
X11713515Y-8476174D01*
X11713515Y-8476174D02*
X11713515Y-8523793D01*
X11713515Y-8523793D02*
X11703991Y-8561889D01*
X11703991Y-8561889D02*
X11694467Y-8580936D01*
X11694467Y-8580936D02*
X11684944Y-8590460D01*
X11684944Y-8590460D02*
X11665896Y-8599984D01*
X11665896Y-8599984D02*
X11646848Y-8599984D01*
X11646848Y-8599984D02*
X11627801Y-8590460D01*
X11627801Y-8590460D02*
X11618277Y-8580936D01*
X11618277Y-8580936D02*
X11608753Y-8561889D01*
X11608753Y-8561889D02*
X11599229Y-8523793D01*
X11599229Y-8523793D02*
X11599229Y-8476174D01*
X11599229Y-8476174D02*
X11608753Y-8438079D01*
X11608753Y-8438079D02*
X11618277Y-8419031D01*
X11618277Y-8419031D02*
X11627801Y-8409508D01*
X11627801Y-8409508D02*
X11646848Y-8399984D01*
X11827801Y-8485698D02*
X11808753Y-8476174D01*
X11808753Y-8476174D02*
X11799229Y-8466650D01*
X11799229Y-8466650D02*
X11789706Y-8447603D01*
X11789706Y-8447603D02*
X11789706Y-8438079D01*
X11789706Y-8438079D02*
X11799229Y-8419031D01*
X11799229Y-8419031D02*
X11808753Y-8409508D01*
X11808753Y-8409508D02*
X11827801Y-8399984D01*
X11827801Y-8399984D02*
X11865896Y-8399984D01*
X11865896Y-8399984D02*
X11884944Y-8409508D01*
X11884944Y-8409508D02*
X11894467Y-8419031D01*
X11894467Y-8419031D02*
X11903991Y-8438079D01*
X11903991Y-8438079D02*
X11903991Y-8447603D01*
X11903991Y-8447603D02*
X11894467Y-8466650D01*
X11894467Y-8466650D02*
X11884944Y-8476174D01*
X11884944Y-8476174D02*
X11865896Y-8485698D01*
X11865896Y-8485698D02*
X11827801Y-8485698D01*
X11827801Y-8485698D02*
X11808753Y-8495222D01*
X11808753Y-8495222D02*
X11799229Y-8504746D01*
X11799229Y-8504746D02*
X11789706Y-8523793D01*
X11789706Y-8523793D02*
X11789706Y-8561889D01*
X11789706Y-8561889D02*
X11799229Y-8580936D01*
X11799229Y-8580936D02*
X11808753Y-8590460D01*
X11808753Y-8590460D02*
X11827801Y-8599984D01*
X11827801Y-8599984D02*
X11865896Y-8599984D01*
X11865896Y-8599984D02*
X11884944Y-8590460D01*
X11884944Y-8590460D02*
X11894467Y-8580936D01*
X11894467Y-8580936D02*
X11903991Y-8561889D01*
X11903991Y-8561889D02*
X11903991Y-8523793D01*
X11903991Y-8523793D02*
X11894467Y-8504746D01*
X11894467Y-8504746D02*
X11884944Y-8495222D01*
X11884944Y-8495222D02*
X11865896Y-8485698D01*
X12075420Y-8399984D02*
X12037325Y-8399984D01*
X12037325Y-8399984D02*
X12018277Y-8409508D01*
X12018277Y-8409508D02*
X12008753Y-8419031D01*
X12008753Y-8419031D02*
X11989706Y-8447603D01*
X11989706Y-8447603D02*
X11980182Y-8485698D01*
X11980182Y-8485698D02*
X11980182Y-8561889D01*
X11980182Y-8561889D02*
X11989706Y-8580936D01*
X11989706Y-8580936D02*
X11999229Y-8590460D01*
X11999229Y-8590460D02*
X12018277Y-8599984D01*
X12018277Y-8599984D02*
X12056372Y-8599984D01*
X12056372Y-8599984D02*
X12075420Y-8590460D01*
X12075420Y-8590460D02*
X12084944Y-8580936D01*
X12084944Y-8580936D02*
X12094467Y-8561889D01*
X12094467Y-8561889D02*
X12094467Y-8514270D01*
X12094467Y-8514270D02*
X12084944Y-8495222D01*
X12084944Y-8495222D02*
X12075420Y-8485698D01*
X12075420Y-8485698D02*
X12056372Y-8476174D01*
X12056372Y-8476174D02*
X12018277Y-8476174D01*
X12018277Y-8476174D02*
X11999229Y-8485698D01*
X11999229Y-8485698D02*
X11989706Y-8495222D01*
X11989706Y-8495222D02*
X11980182Y-8514270D01*
X12265896Y-8399984D02*
X12227801Y-8399984D01*
X12227801Y-8399984D02*
X12208753Y-8409508D01*
X12208753Y-8409508D02*
X12199229Y-8419031D01*
X12199229Y-8419031D02*
X12180182Y-8447603D01*
X12180182Y-8447603D02*
X12170658Y-8485698D01*
X12170658Y-8485698D02*
X12170658Y-8561889D01*
X12170658Y-8561889D02*
X12180182Y-8580936D01*
X12180182Y-8580936D02*
X12189706Y-8590460D01*
X12189706Y-8590460D02*
X12208753Y-8599984D01*
X12208753Y-8599984D02*
X12246848Y-8599984D01*
X12246848Y-8599984D02*
X12265896Y-8590460D01*
X12265896Y-8590460D02*
X12275420Y-8580936D01*
X12275420Y-8580936D02*
X12284944Y-8561889D01*
X12284944Y-8561889D02*
X12284944Y-8514270D01*
X12284944Y-8514270D02*
X12275420Y-8495222D01*
X12275420Y-8495222D02*
X12265896Y-8485698D01*
X12265896Y-8485698D02*
X12246848Y-8476174D01*
X12246848Y-8476174D02*
X12208753Y-8476174D01*
X12208753Y-8476174D02*
X12189706Y-8485698D01*
X12189706Y-8485698D02*
X12180182Y-8495222D01*
X12180182Y-8495222D02*
X12170658Y-8514270D01*
X12361134Y-8399984D02*
X12361134Y-8438079D01*
X12437325Y-8399984D02*
X12437325Y-8438079D01*
X12732563Y-8676174D02*
X12723039Y-8666650D01*
X12723039Y-8666650D02*
X12703991Y-8638079D01*
X12703991Y-8638079D02*
X12694468Y-8619031D01*
X12694468Y-8619031D02*
X12684944Y-8590460D01*
X12684944Y-8590460D02*
X12675420Y-8542841D01*
X12675420Y-8542841D02*
X12675420Y-8504746D01*
X12675420Y-8504746D02*
X12684944Y-8457127D01*
X12684944Y-8457127D02*
X12694468Y-8428555D01*
X12694468Y-8428555D02*
X12703991Y-8409508D01*
X12703991Y-8409508D02*
X12723039Y-8380936D01*
X12723039Y-8380936D02*
X12732563Y-8371412D01*
X12799229Y-8419031D02*
X12808753Y-8409508D01*
X12808753Y-8409508D02*
X12827801Y-8399984D01*
X12827801Y-8399984D02*
X12875420Y-8399984D01*
X12875420Y-8399984D02*
X12894468Y-8409508D01*
X12894468Y-8409508D02*
X12903991Y-8419031D01*
X12903991Y-8419031D02*
X12913515Y-8438079D01*
X12913515Y-8438079D02*
X12913515Y-8457127D01*
X12913515Y-8457127D02*
X12903991Y-8485698D01*
X12903991Y-8485698D02*
X12789706Y-8599984D01*
X12789706Y-8599984D02*
X12913515Y-8599984D01*
X13151610Y-8599984D02*
X13151610Y-8399984D01*
X13237325Y-8599984D02*
X13237325Y-8495222D01*
X13237325Y-8495222D02*
X13227801Y-8476174D01*
X13227801Y-8476174D02*
X13208753Y-8466650D01*
X13208753Y-8466650D02*
X13180182Y-8466650D01*
X13180182Y-8466650D02*
X13161134Y-8476174D01*
X13161134Y-8476174D02*
X13151610Y-8485698D01*
X13361134Y-8599984D02*
X13342087Y-8590460D01*
X13342087Y-8590460D02*
X13332563Y-8580936D01*
X13332563Y-8580936D02*
X13323039Y-8561889D01*
X13323039Y-8561889D02*
X13323039Y-8504746D01*
X13323039Y-8504746D02*
X13332563Y-8485698D01*
X13332563Y-8485698D02*
X13342087Y-8476174D01*
X13342087Y-8476174D02*
X13361134Y-8466650D01*
X13361134Y-8466650D02*
X13389706Y-8466650D01*
X13389706Y-8466650D02*
X13408753Y-8476174D01*
X13408753Y-8476174D02*
X13418277Y-8485698D01*
X13418277Y-8485698D02*
X13427801Y-8504746D01*
X13427801Y-8504746D02*
X13427801Y-8561889D01*
X13427801Y-8561889D02*
X13418277Y-8580936D01*
X13418277Y-8580936D02*
X13408753Y-8590460D01*
X13408753Y-8590460D02*
X13389706Y-8599984D01*
X13389706Y-8599984D02*
X13361134Y-8599984D01*
X13542087Y-8599984D02*
X13523039Y-8590460D01*
X13523039Y-8590460D02*
X13513515Y-8571412D01*
X13513515Y-8571412D02*
X13513515Y-8399984D01*
X13694468Y-8590460D02*
X13675420Y-8599984D01*
X13675420Y-8599984D02*
X13637325Y-8599984D01*
X13637325Y-8599984D02*
X13618277Y-8590460D01*
X13618277Y-8590460D02*
X13608753Y-8571412D01*
X13608753Y-8571412D02*
X13608753Y-8495222D01*
X13608753Y-8495222D02*
X13618277Y-8476174D01*
X13618277Y-8476174D02*
X13637325Y-8466650D01*
X13637325Y-8466650D02*
X13675420Y-8466650D01*
X13675420Y-8466650D02*
X13694468Y-8476174D01*
X13694468Y-8476174D02*
X13703991Y-8495222D01*
X13703991Y-8495222D02*
X13703991Y-8514270D01*
X13703991Y-8514270D02*
X13608753Y-8533317D01*
X13780182Y-8590460D02*
X13799230Y-8599984D01*
X13799230Y-8599984D02*
X13837325Y-8599984D01*
X13837325Y-8599984D02*
X13856372Y-8590460D01*
X13856372Y-8590460D02*
X13865896Y-8571412D01*
X13865896Y-8571412D02*
X13865896Y-8561889D01*
X13865896Y-8561889D02*
X13856372Y-8542841D01*
X13856372Y-8542841D02*
X13837325Y-8533317D01*
X13837325Y-8533317D02*
X13808753Y-8533317D01*
X13808753Y-8533317D02*
X13789706Y-8523793D01*
X13789706Y-8523793D02*
X13780182Y-8504746D01*
X13780182Y-8504746D02*
X13780182Y-8495222D01*
X13780182Y-8495222D02*
X13789706Y-8476174D01*
X13789706Y-8476174D02*
X13808753Y-8466650D01*
X13808753Y-8466650D02*
X13837325Y-8466650D01*
X13837325Y-8466650D02*
X13856372Y-8476174D01*
X13932563Y-8676174D02*
X13942087Y-8666650D01*
X13942087Y-8666650D02*
X13961134Y-8638079D01*
X13961134Y-8638079D02*
X13970658Y-8619031D01*
X13970658Y-8619031D02*
X13980182Y-8590460D01*
X13980182Y-8590460D02*
X13989706Y-8542841D01*
X13989706Y-8542841D02*
X13989706Y-8504746D01*
X13989706Y-8504746D02*
X13980182Y-8457127D01*
X13980182Y-8457127D02*
X13970658Y-8428555D01*
X13970658Y-8428555D02*
X13961134Y-8409508D01*
X13961134Y-8409508D02*
X13942087Y-8380936D01*
X13942087Y-8380936D02*
X13932563Y-8371412D01*
X14294468Y-8676174D02*
X14284944Y-8666650D01*
X14284944Y-8666650D02*
X14265896Y-8638079D01*
X14265896Y-8638079D02*
X14256372Y-8619031D01*
X14256372Y-8619031D02*
X14246849Y-8590460D01*
X14246849Y-8590460D02*
X14237325Y-8542841D01*
X14237325Y-8542841D02*
X14237325Y-8504746D01*
X14237325Y-8504746D02*
X14246849Y-8457127D01*
X14246849Y-8457127D02*
X14256372Y-8428555D01*
X14256372Y-8428555D02*
X14265896Y-8409508D01*
X14265896Y-8409508D02*
X14284944Y-8380936D01*
X14284944Y-8380936D02*
X14294468Y-8371412D01*
X14370658Y-8466650D02*
X14370658Y-8599984D01*
X14370658Y-8485698D02*
X14380182Y-8476174D01*
X14380182Y-8476174D02*
X14399230Y-8466650D01*
X14399230Y-8466650D02*
X14427801Y-8466650D01*
X14427801Y-8466650D02*
X14446849Y-8476174D01*
X14446849Y-8476174D02*
X14456372Y-8495222D01*
X14456372Y-8495222D02*
X14456372Y-8599984D01*
X14580182Y-8599984D02*
X14561134Y-8590460D01*
X14561134Y-8590460D02*
X14551611Y-8580936D01*
X14551611Y-8580936D02*
X14542087Y-8561889D01*
X14542087Y-8561889D02*
X14542087Y-8504746D01*
X14542087Y-8504746D02*
X14551611Y-8485698D01*
X14551611Y-8485698D02*
X14561134Y-8476174D01*
X14561134Y-8476174D02*
X14580182Y-8466650D01*
X14580182Y-8466650D02*
X14608753Y-8466650D01*
X14608753Y-8466650D02*
X14627801Y-8476174D01*
X14627801Y-8476174D02*
X14637325Y-8485698D01*
X14637325Y-8485698D02*
X14646849Y-8504746D01*
X14646849Y-8504746D02*
X14646849Y-8561889D01*
X14646849Y-8561889D02*
X14637325Y-8580936D01*
X14637325Y-8580936D02*
X14627801Y-8590460D01*
X14627801Y-8590460D02*
X14608753Y-8599984D01*
X14608753Y-8599984D02*
X14580182Y-8599984D01*
X14703992Y-8466650D02*
X14780182Y-8466650D01*
X14732563Y-8399984D02*
X14732563Y-8571412D01*
X14732563Y-8571412D02*
X14742087Y-8590460D01*
X14742087Y-8590460D02*
X14761134Y-8599984D01*
X14761134Y-8599984D02*
X14780182Y-8599984D01*
X14999230Y-8466650D02*
X14999230Y-8666650D01*
X14999230Y-8476174D02*
X15018277Y-8466650D01*
X15018277Y-8466650D02*
X15056373Y-8466650D01*
X15056373Y-8466650D02*
X15075420Y-8476174D01*
X15075420Y-8476174D02*
X15084944Y-8485698D01*
X15084944Y-8485698D02*
X15094468Y-8504746D01*
X15094468Y-8504746D02*
X15094468Y-8561889D01*
X15094468Y-8561889D02*
X15084944Y-8580936D01*
X15084944Y-8580936D02*
X15075420Y-8590460D01*
X15075420Y-8590460D02*
X15056373Y-8599984D01*
X15056373Y-8599984D02*
X15018277Y-8599984D01*
X15018277Y-8599984D02*
X14999230Y-8590460D01*
X15208753Y-8599984D02*
X15189706Y-8590460D01*
X15189706Y-8590460D02*
X15180182Y-8571412D01*
X15180182Y-8571412D02*
X15180182Y-8399984D01*
X15370658Y-8599984D02*
X15370658Y-8495222D01*
X15370658Y-8495222D02*
X15361134Y-8476174D01*
X15361134Y-8476174D02*
X15342087Y-8466650D01*
X15342087Y-8466650D02*
X15303992Y-8466650D01*
X15303992Y-8466650D02*
X15284944Y-8476174D01*
X15370658Y-8590460D02*
X15351611Y-8599984D01*
X15351611Y-8599984D02*
X15303992Y-8599984D01*
X15303992Y-8599984D02*
X15284944Y-8590460D01*
X15284944Y-8590460D02*
X15275420Y-8571412D01*
X15275420Y-8571412D02*
X15275420Y-8552365D01*
X15275420Y-8552365D02*
X15284944Y-8533317D01*
X15284944Y-8533317D02*
X15303992Y-8523793D01*
X15303992Y-8523793D02*
X15351611Y-8523793D01*
X15351611Y-8523793D02*
X15370658Y-8514270D01*
X15437325Y-8466650D02*
X15513515Y-8466650D01*
X15465896Y-8399984D02*
X15465896Y-8571412D01*
X15465896Y-8571412D02*
X15475420Y-8590460D01*
X15475420Y-8590460D02*
X15494468Y-8599984D01*
X15494468Y-8599984D02*
X15513515Y-8599984D01*
X15656373Y-8590460D02*
X15637325Y-8599984D01*
X15637325Y-8599984D02*
X15599230Y-8599984D01*
X15599230Y-8599984D02*
X15580182Y-8590460D01*
X15580182Y-8590460D02*
X15570658Y-8571412D01*
X15570658Y-8571412D02*
X15570658Y-8495222D01*
X15570658Y-8495222D02*
X15580182Y-8476174D01*
X15580182Y-8476174D02*
X15599230Y-8466650D01*
X15599230Y-8466650D02*
X15637325Y-8466650D01*
X15637325Y-8466650D02*
X15656373Y-8476174D01*
X15656373Y-8476174D02*
X15665896Y-8495222D01*
X15665896Y-8495222D02*
X15665896Y-8514270D01*
X15665896Y-8514270D02*
X15570658Y-8533317D01*
X15837325Y-8599984D02*
X15837325Y-8399984D01*
X15837325Y-8590460D02*
X15818277Y-8599984D01*
X15818277Y-8599984D02*
X15780182Y-8599984D01*
X15780182Y-8599984D02*
X15761134Y-8590460D01*
X15761134Y-8590460D02*
X15751611Y-8580936D01*
X15751611Y-8580936D02*
X15742087Y-8561889D01*
X15742087Y-8561889D02*
X15742087Y-8504746D01*
X15742087Y-8504746D02*
X15751611Y-8485698D01*
X15751611Y-8485698D02*
X15761134Y-8476174D01*
X15761134Y-8476174D02*
X15780182Y-8466650D01*
X15780182Y-8466650D02*
X15818277Y-8466650D01*
X15818277Y-8466650D02*
X15837325Y-8476174D01*
X15913515Y-8676174D02*
X15923039Y-8666650D01*
X15923039Y-8666650D02*
X15942087Y-8638079D01*
X15942087Y-8638079D02*
X15951611Y-8619031D01*
X15951611Y-8619031D02*
X15961134Y-8590460D01*
X15961134Y-8590460D02*
X15970658Y-8542841D01*
X15970658Y-8542841D02*
X15970658Y-8504746D01*
X15970658Y-8504746D02*
X15961134Y-8457127D01*
X15961134Y-8457127D02*
X15951611Y-8428555D01*
X15951611Y-8428555D02*
X15942087Y-8409508D01*
X15942087Y-8409508D02*
X15923039Y-8380936D01*
X15923039Y-8380936D02*
X15913515Y-8371412D01*
M02*
